<svg xmlns="http://www.w3.org/2000/svg" viewBox="0 0 322 373.6"><title>cotton</title><g id="Layer_2" data-name="Layer 2"><g id="Layer_1-2" data-name="Layer 1"><path d="M236.42,199.32c.09.56-.09.79-.72.77a7,7,0,0,0-4.25.92,24,24,0,0,0-1.86,1.55,71.28,71.28,0,0,1,9.17-.4l0,.43c-3.26.21-6.52.43-9.78.62-.07,0-.15-.31-.27-.56l-6.41,4.71.14.38,4.72-.44,0,.32-4.54.57c.08.39.13.69.21,1,.16.62.48,1.06,1.21.93,1.05-.18,2.09-.41,3.15-.56a11,11,0,0,1,2.88-.23c1.14.15,1.47-.32,1.54-1.28a.7.7,0,0,1,.09-.27c0-.05.09-.09.22-.21a3.66,3.66,0,0,0,0,.39c.2.87.31,1.57,1.62,1.63a4.1,4.1,0,0,1,3.12,1c.06.06.29,0,.45-.05,3.05-.42,6.22-.33,9.13-1.42a26.51,26.51,0,0,0,4.54-2.7c.45-.29.82-.71,1.26-1a.74.74,0,0,1,.67,0,1.28,1.28,0,0,1,.58.74,2.85,2.85,0,0,1-1.57,2.61c-.78.55-1.6,1-2.64,1.68,1.14-.12,2-.2,2.9-.31,1.42-.18,2.85-.32,4.26-.6,1.57-.31,3.13-.71,4.67-1.15,1.9-.54,3.77-1.16,5.65-1.75a.63.63,0,0,1,.18-.05c1.4,0,2.81,0,4.19.11a17,17,0,0,0,6,0,3.88,3.88,0,0,1,1,.09,9.71,9.71,0,0,0,4.86-1.06c1.74-.86,3.58-1.53,5.35-2.33a26.2,26.2,0,0,0,2.66-1.44,26.87,26.87,0,0,1,3.18-1.8l-2.38,3A32.27,32.27,0,0,0,300.9,198l.22.35a15.45,15.45,0,0,1-1.78,1.48c-1.42.87-2.87,1.69-4.31,2.5a70.17,70.17,0,0,1-6.89,3c-2.28,1-4.66,1.75-7,2.65-2,.75-3.91,1.56-5.88,2.32s-4,1.57-6,2.23-3.9,1.12-5.87,1.61c-1.33.33-2.7.56-4,.83-.12,0-.32,0-.36.08-.85,1.3-2.2.72-3.34.87-1.44.19-2.9.22-4.35.35-1.26.11-2.52.26-3.93.4l1.46,2.67,1-1.87.19.09c-.24.6-.5,1.2-.7,1.81a1,1,0,0,0,0,.77,12.08,12.08,0,0,0,4,3.08c-.24.81-.26.84-.89.38s-1.18-1-1.91-1.58c.79,1.44,1.45,2.76,2.2,4,1,1.65,2.08,3.22,3,4.88a1.27,1.27,0,0,0,1.58.78c1.46-.2,3-.05,4.44-.14a20.89,20.89,0,0,1-9-6.32c3.4,2,6.26,4.88,10.12,6.18-1.52-1.3-3-2.65-4.57-3.88s-3.25-2.34-4.89-3.51c.29-.6.66-.62,1.73,0,1.28.74,2.53,1.53,3.84,2.2,1.08.56,2.23,1,3.33,1.5a5.36,5.36,0,0,1,.92.72l-.41.7a8.57,8.57,0,0,0,1.51.83c2.7.84,5.4,1.65,8.13,2.41,2.06.58,4.13,1.13,6.22,1.57,2.5.53,5,.86,7.53,1.43a21.19,21.19,0,0,0,4.9.3c1,0,2.09-.33,3.13-.29,1.37.05,2.69-.48,4.11-.17.69.15,1.51-.43,2.29-.49a26.79,26.79,0,0,1,3,.1l0,.35-1.35.27v.31a7.71,7.71,0,0,0,1.31.07,14.56,14.56,0,0,0,1.69-.4,19.27,19.27,0,0,1-2.84,2.35,14.6,14.6,0,0,1-3.7,1.32c-2,.46-4,.77-6.06,1.09a29.9,29.9,0,0,1-3.88.39c-2.73.06-5.47,0-8.21,0a2.41,2.41,0,0,1-1.1-.36c5.1-.47,10.28-.35,15.24-1.77l0-.3c-.51-.1-1-.23-1.52-.29-.12,0-.25.27-.41.33a1.74,1.74,0,0,1-.86.19,10.35,10.35,0,0,1-1.44-.48l-.11.22.54.4-.05.24c-.61-.11-1.21-.23-1.82-.33s-1.25-.75-2,.05c-.17.19-1-.17-1.51-.3a4.46,4.46,0,0,0-1.5-.22l1.74.86-.13.29-5.78-1.25,1.22-.32c-.37-.45-1.59-.08-1.32-1.08-1.24-.3-2.49-.6-3.73-.92-1.7-.44-3.39-1-5.1-1.33-2.37-.52-4.75-1-7.14-1.39a9.35,9.35,0,0,0-1.63-.06h-4.78l-.2.38a33.58,33.58,0,0,0,2.35,3.2,13.75,13.75,0,0,0,5.72,3.29,10.22,10.22,0,0,0,3.87,1c1-.07,1.83.49,2.7.37a2.89,2.89,0,0,1,2.2.4c.44.29,1.24,0,1.88,0,.39,0,.85-.23,1.17-.1,1.72.74,3.42.32,5.12,0a3.68,3.68,0,0,1,.56,0l-1.55.88,7.35,1,0,.17-10.08,1.21c-.36,1.09-.44,1.12-1.45.6-.11-.06-.24-.14-.35-.12q-2.73.53-5.45,1.09a.42.42,0,0,0-.23.17,6.92,6.92,0,0,0,.32,2,8.1,8.1,0,0,0,1.34,1.49,8.11,8.11,0,0,1,.58.88l1.65.85-.09.27-1.37-.22c.81.67,1.39,1.19,2,1.65,1.29,1,2.6,1.89,3.9,2.82.15.11.32.29.48.28,1.18-.09,1.85.79,2.75,1.25s1.8,1,2.71,1.41c1.58.78,3.16,1.54,4.77,2.26a5.55,5.55,0,0,0,4.07,0,7.66,7.66,0,0,1,4.93.22l-4.4.47,0,.35c.65,0,1.3,0,1.94,0,1.28,0,2.56-.08,3.84-.17s2.61-.28,3.92-.36,2.44-.07,3.65-.13,2.42-.08,3.61-.25a40.85,40.85,0,0,0,4.5-.87c1.41-.37,2.77-.92,4.16-1.36.52-.17,1.08-.24,1.62-.36l.12.3-2.34,1.25a25.38,25.38,0,0,1-7.32,2.47c-1.23.24-2.45.5-3.68.71-1,.16-2,.26-3,.37-2.26.27-4.53.55-6.79.81-.51.06-1,0-1.53.06-.77.1-1.52.33-2.29.39a14.83,14.83,0,0,1-1.59-.18c-.83,0-1.66,0-2.49,0a17.87,17.87,0,0,1-5.67-1,7.47,7.47,0,0,0-1.84-.14,1.37,1.37,0,0,1-.36,0c-1.44-.5-2.89-1-4.33-1.53-.76-.29-1.5-.65-2.25-1,0,0-.05,0-.08,0l-4-.7.36,1.39-.32.28c-.27-.38-.51-.78-.81-1.13-1.23-1.51-2.5-3-3.71-4.5s-2.43-3.13-3.63-4.7c-.49-.65-1-1.31-1.41-2-.59-.91-1.12-1.86-1.73-2.75-.73-1.07-1.56-2.06-2.28-3.14-1-1.55-2-3.13-3-4.72-1.36-2.25-2.72-4.51-4-6.79-1.16-2-2.26-4.08-3.38-6.12-1-1.87-2.09-3.72-3.06-5.63-.55-1.09-.94-2.27-1.42-3.4-.14-.35-.33-.67-.49-1s-.28-.7-.43-1.06l.35-.17,11.29,19.83c.14-.81.3-1.53.38-2.25a1.32,1.32,0,0,0-.24-.77c-.83-1.28-1.72-2.52-2.53-3.81-1-1.6-2-3.18-2.91-4.85-1.35-2.63-2.56-5.34-3.84-8a3.87,3.87,0,0,0-.77-1.29,3.92,3.92,0,0,0-1.33-.47l-.18-.45,1.33.16-.14-.78,3.22,1.21-.07.27L247,214l1.41.67-.1.27-2.23-.73c0,1.23,1.34,1.8,3.06,1.25l-.34-.7a7.09,7.09,0,0,0,1.25.45,3.18,3.18,0,0,0,1.44-.14l-3.3-1,0-.3h1.29c-1.3-.52-1.74-2.35-3.43-2.19-1.78-1.39-3.53,0-5.29.08-1.56,0-3.12.29-4.78.45,0,.21.1.61.22,1a37.23,37.23,0,0,0,3.17,6.47c1.16,2.19,2.27,4.4,3.42,6.59.57,1.08,1.18,2.14,1.75,3.21,1.49,2.81,2.94,5.65,4.45,8.45a72.19,72.19,0,0,1,3.53,6.44c.53,1.28,1.56,2.22,1.86,3.68.22,1.06,1.25,2,1.91,2.93,1.08,1.61,2.15,3.23,3.24,4.83.59.86,1.22,1.7,1.8,2.56a2.17,2.17,0,0,1,.18.7l-.41.17c-.79-1-1.59-2-2.36-3-.9-1.2-1.8-2.42-2.65-3.66-.59-.86-1.11-1.77-1.64-2.67-1.65-2.77-3.33-5.52-4.91-8.33s-3-5.64-4.56-8.46c-.93-1.72-1.92-3.4-2.85-5.12-.79-1.45-1.58-2.9-2.29-4.39s-1.75-3-2.45-4.63c-.93-2.14-2.45-4.13-1.95-6.7,0-.2-.29-.63-.52-.69a12.62,12.62,0,0,0-1.88-.22c.39,1,.73,2.09,1.18,3.1.93,2.11,1.91,4.21,2.89,6.3,1.18,2.51,2.35,5,3.6,7.51.93,1.85,2,3.62,3,5.45.41.77.75,1.58,1.12,2.38.53,1.13,1,2.28,1.58,3.39.87,1.67,1.81,3.31,2.71,5,1.25,2.29,2.47,4.59,3.73,6.87,1,1.82,2,3.66,3.16,5.38a5.61,5.61,0,0,0,2,1.44,34,34,0,0,0,3.67,1.79c1.69.67,3.42,1.23,5.15,1.78,1.13.36,2.29.62,3.44.93v.3a10.08,10.08,0,0,1-2.07,0c-2.18-.47-4.34-1-6.49-1.57a19.37,19.37,0,0,1-1.9-.81,4.59,4.59,0,0,0-.94-.14l.26,1.23c-.47-.28-.86-.38-1-.63a6.24,6.24,0,0,0-4.22-2.57,37.31,37.31,0,0,0-4.52-.76c-1.31-.1-2.69.93-2.51,1.77a8.8,8.8,0,0,0,1.08,3.19A24.86,24.86,0,0,0,251.3,266a21.55,21.55,0,0,0,2.92,2.38,19,19,0,0,0,2.94,1.45c1.14.5,2.3,1,3.48,1.37,1.34.45,2.71.8,4.08,1.17,1.55.42,3.11.82,4.66,1.22.92.24,1.84.45,2.75.7.41.12.81.3,1.21.46l-.11.3-9.78-2.36.91,1c-1.89-.54-3.57-.95-5.2-1.52-1.39-.49-2.7-1.18-4-1.78-.4-.18-.81-.32-1.21-.5l-5.19-2.42c-.77-.36-1.56-.66-2.3-1.07s-1.53-1.1-2.37-1.51a17.44,17.44,0,0,0-6.25-2.17,19.14,19.14,0,0,1-3.79-1c-1.36-.4-2.72-.79-4.07-1.24a29.51,29.51,0,0,1-4.15-1.57c-1.5-.78-2.87-1.82-4.31-2.73a12.13,12.13,0,0,1-2-1.22,34.73,34.73,0,0,1-2.39-2.79c-.62-.74-1.22-1.5-1.88-2.21-.12-.13-.46-.06-.85-.1a28.84,28.84,0,0,1,1.82,3.27,20.25,20.25,0,0,0,2.5,4.35,1.61,1.61,0,0,1,.38.75c0,.19-.34.58-.41.55-.53-.2-1.27-.15-1.26-1.06,0-.3-.19-.78-.72-.32-.12.1-.53,0-.7-.1-1.52-1.17-3.09-2.3-4.49-3.6s-2.6-2.81-3.91-4.2c-1.08-1.14-2.2-2.23-3.28-3.36-.51-.54-1-1.12-1.63-1.86a3,3,0,0,0-.09.79,19.47,19.47,0,0,1,.94,3.29c.22,2.23,1.55,3.87,2.62,5.66l.64,1c.11.18.2.43.36.52,1,.54,2.08,1,3.12,1.56a2.34,2.34,0,0,1,.75.41c.64.74,1.47.61,2.29.65.29,0,.81.27.81.39a2,2,0,0,1-.42,1c-1,1.29-2.48,1.65-3.93,2.09-.41.12-.8.32-1.28.51,1.75,1.12,2.77,2.75,4,4.17a7.05,7.05,0,0,1,1.64,5.85,5.11,5.11,0,0,1-.76,1.84c-.79,1.34-1.64,2.65-2.53,4.08,1.73.88,1.22,2.77,1.6,4.32.08.35-.31.79-.38,1.21a16,16,0,0,0-.21,2.2c0,1.58.06,3.16-.05,4.74-.07,1-.51,1.88-.63,2.83a24.71,24.71,0,0,0-.08,2.79c0,.27,0,.54,0,.81-.1,1.64-.19,3.28-.31,4.92a3.28,3.28,0,0,1-.22.91c-.25.67-.51,1.31.13,1.92a.46.46,0,0,1,.11.35c-.09.71-.21,1.41-.3,2.11a9.32,9.32,0,0,0-.12,1.47c.05,1.53.19,3.05.2,4.58s-.12,2.93-.09,4.39c0,1.05.25,2.1.32,3.16s0,2,.07,3c0,.57.09,1.13.14,1.69.18,2.19.52,4.37.49,6.56,0,1.12.06,2.22.13,3.33.17,2.75.14,5.52.48,8.25.3,2.44.4,4.89.62,7.33s.54,5,.79,7.51c.07.74,0,1.49,0,2.23,0,.92.17,1.84.2,2.76.09,2.63.15,5.26.21,7.89a6.49,6.49,0,0,1-.22,2.13,7.36,7.36,0,0,1-.52-1.21c-.25-1.07-.44-2.16-.65-3.24-.32-1.66-.67-3.32-.93-5-.3-1.88-.52-3.78-.77-5.67s-.55-3.94-.77-5.92c-.1-.89,0-1.81-.08-2.71-.18-2-.45-3.93-.62-5.89-.08-1,0-2-.06-3,0-.49-.42-1-.36-1.44a20,20,0,0,0-.43-5.53c-.21-1.61-.35-3.23-.44-4.84-.07-1.23,0-2.47,0-3.7a13.11,13.11,0,0,0-.22-1.56c-1.32.21-2.12-.64-2.9-1.27a37.94,37.94,0,0,1-3.43-3.33c-1.16-1.2-2.26-2.45-3.4-3.67a.9.9,0,0,0-.65-.31l3.57,5.48c1.16,1.78,2.3,3.56,3.47,5.33.53.8,1.18,1.54,1.67,2.36a30.67,30.67,0,0,1,1.8,3.4,5.33,5.33,0,0,1,.14,1.7c-1.86.13-2.94-.94-4-1.84a53.23,53.23,0,0,1-4.11-4c-1.08-1.13-2.09-2.34-3.11-3.53a6.78,6.78,0,0,1-.6-1l-.37.31a2.81,2.81,0,0,0,.15.6c.58,1.17,1.16,2.34,1.77,3.5s1.26,2.39,1.94,3.55c.81,1.37,1.65,2.72,2.52,4.05s1.78,2.68,2.69,4c.76,1.12,1.52,2.23,2.3,3.33a9.43,9.43,0,0,1,1.1,1.37,4.41,4.41,0,0,1,.11,1.51c-.33-.06-.78,0-1-.2q-1.88-1.84-3.66-3.78c-.74-.81-1.42-1.7-2.09-2.57-.82-1.06-1.59-2.14-2.4-3.2a4.06,4.06,0,0,0-1.19-1.05c.65,1.12,1.27,2.25,1.94,3.35s1.39,2.23,2.11,3.34q1.71,2.63,3.44,5.23c.41.62.93,1.18,1.3,1.82a3.91,3.91,0,0,1,.23,1.25c-.54-.09-1.27,0-1.57-.3-1.36-1.42-2.62-2.94-3.89-4.45-.71-.83-1.37-1.7-2.2-2.73a5.66,5.66,0,0,0,0,1.46c1,3.06,2,6.11,3,9.15.35,1,.92,2,1.26,3.05a6.72,6.72,0,0,1,.18,2.35,8.58,8.58,0,0,1-.92-1.36c-.56-1.29-1-2.63-1.57-3.94-.32-.77-.71-1.51-1-2.29-.09-.23,0-.52-.08-.77s-.22-.3-.29-.47c-.39-.94-.8-1.87-1.13-2.83-.21-.6-.31-1.25-.56-1.86-.48,2.47.43,5,.06,7.41h-.3c-.42-1.83-.84-3.66-1.26-5.49-.15-.67-.31-1.34-.41-2a4.81,4.81,0,0,1,.08-1c-.06-.06-.32-.21-.35-.39-.26-1.68-.45-3.36-.73-5-.35-2.12-.78-4.23-1.16-6.34,0-.19,0-.38,0-.57q-.45-3.13-.92-6.27c-.18-1.22-.37-2.43-.55-3.65-.27-1.86-.54-3.73-.81-5.59-.29-2-.55-4.07-.9-6.09-.18-1-.6-2-.8-3.06s-.14-1.84-.28-2.75a13.39,13.39,0,0,0-.5-1.78,3.76,3.76,0,0,1-.3-1,18,18,0,0,0-1.25-5.26c-.27-.9-.43-1.83-.69-2.73a17.85,17.85,0,0,0-.67-1.72c-.47-1.15-1-2.29-1.41-3.45-.15-.39-.12-.84-.29-1.22a45.42,45.42,0,0,1-1.81-4.18,16.3,16.3,0,0,0-1.32-3.51c-.28-.48-.42-1-.66-1.54a18.86,18.86,0,0,0-2.37-4.61.5.5,0,0,1-.13-.25c-.2-2.1-1.54-3.73-2.32-5.59a31.7,31.7,0,0,1-1.72-6.34c-.14-.74-.3-1.47-.48-2.32-.69.09-1.3.21-1.92.25a3.15,3.15,0,0,1-2.68-1.59,11.57,11.57,0,0,1-2.64-5.14,9.35,9.35,0,0,0-.39-1.85c-.08,1.87-1.14,3.32-2,4.8a13,13,0,0,1-2.59,2.72c-.69.64-1.47,1.19-2.22,1.78-.36.28-.77.52-1.1.82s-.69.76-1,1.12a2.45,2.45,0,0,1-.61.44c-1.83.93-3.72,1.77-5.49,2.81-1.24.73-2.29,1.77-3.5,2.57-1.81,1.21-2.91,3-4.27,4.63a6.63,6.63,0,0,0-1.58,3.85,1.48,1.48,0,0,0,.16.75,1.3,1.3,0,0,1-.47,1.81c-.58.41-1,.15-1.58-.24a10.23,10.23,0,0,0-2.39-1,4.34,4.34,0,0,1-2.74-4c0-.09,0-.21,0-.27-.56-.74-.21-1.3.55-1.93-.42-.11-.72-.29-.94-.22-1.08.34-2.14.75-3.21,1.12-1.67.58-3.35,1.12-5,1.73-.46.17-.83.58-1.29.79-1.44.65-3,.51-4.54.89-.06,0-.16,0-.18,0-.82,1-2,.15-3,.52-.4.15-1-.17-1.51-.33-1.91-.61-3.92-.73-5.84-1.46a18.86,18.86,0,0,1-3.34-2,1.43,1.43,0,0,1-.54-1.78c.19-.59.72-.78,1.38-.79,1.49,0,3-.06,4.48-.21a15.34,15.34,0,0,0,3.33-.65,16.53,16.53,0,0,0,6-3.11,3.78,3.78,0,0,0,.73-1.6c0-.07-.39-.44-.56-.41a5.72,5.72,0,0,1-3-.31,4.41,4.41,0,0,0-2.24.12c-1.22.24-2.19-.4-3.18-.85-.47-.22-.73-.92-1.08-1.4s-.78-1.14-1.23-1.66c-1.71-2-1.38-2.67.12-4.16a4.83,4.83,0,0,0,1.59-4.15c0-.32,0-.64,0-1,0-1.07-.48-1.32-1.49-1.51-1.41-.27-2.77-.79-4.15-1.2s-3-.89-4.54-1.29a8.55,8.55,0,0,1-2.37-.51c-.53-.34-1.25-.21-1.72-.81a2.71,2.71,0,0,1,2.23-.27,42.25,42.25,0,0,1,4.64.83c1.81.44,3.6,1,5.39,1.52a1.39,1.39,0,0,0,1.87-.59,15,15,0,0,1,1.76-1.71c.63-.68,1.17-1.46,1.8-2.14,1.14-1.25,2.32-2.47,3.47-3.7a5.27,5.27,0,0,0,.37-.52c-.9-.37-1.44.18-2,.58-1.17.85-2.26,1.81-3.48,2.59-1.63,1-3.34,2-5,2.92a4.48,4.48,0,0,1-.55.22l3.57-4.13-.11-.14c-1,.66-2.08,1.35-3.15,2s-2.22,1.2-3.33,1.8l-.25-.24,3.94-4.8a2.71,2.71,0,0,0-1.07-.24,1.47,1.47,0,0,0-.94.65c-.46.86-.79,1.79-1.2,2.68a.5.5,0,0,1-.4.21,3.4,3.4,0,0,0-2.66,1.15,1.57,1.57,0,0,1-.87.33c-1.72.21-3.45.37-5.17.6a7.11,7.11,0,0,0-1.59.47c-2.16.83-4.33,1.64-6.46,2.56A4.69,4.69,0,0,0,86.76,249c-.16.3-.68.66-.94.59-1.48-.36-2.32.59-3.24,1.42s-1.59,1.39-2.35,2.12c-1.09,1-2.14,2.14-3.22,3.19-1.55,1.5-3.13,3-4.67,4.49-.68.67-1.26,1.43-1.93,2.11-1.63,1.67-3.28,3.32-4.92,5a14.73,14.73,0,0,0-1,1.16c-1,1.32-2.14,2.61-3.11,4a22,22,0,0,0-1.32,2.6c-.92,1.78-1.9,3.53-2.76,5.34-.77,1.61-1.43,3.28-2.08,4.94q-1.35,3.42-2.61,6.87c-.53,1.45-1,2.93-1.45,4.39-.18.53-.47,1-.63,1.56-.72,2.4-1.39,4.82-2.12,7.22a47.34,47.34,0,0,0-1.49,9.13c-.11,1.1-.13,2.21-.21,3.31-.14,2-.27,4.06-.46,6.09-.21,2.23-.35,4.48-.74,6.68a15.65,15.65,0,0,1-2.27,6,19.86,19.86,0,0,1-1.81,1.94c-.77.87-1.55,1.74-2.24,2.67a15.49,15.49,0,0,1-5.31,4.83,10.59,10.59,0,0,1-2.28.83,1.08,1.08,0,0,1-1-.37,1.42,1.42,0,0,1,0-1.23,13.15,13.15,0,0,1,2.06-2.09,29,29,0,0,1,3.23-2.3,10,10,0,0,0,3.95-4.77,31,31,0,0,0,1.85-6.35c.39-1.8,1-3.54,1.45-5.33.37-1.58.6-3.19.85-4.8.17-1.12.33-2.26.4-3.39s-.05-2.14,0-3.19c.14-1.57.43-3.13.59-4.7.19-1.84.29-3.69.47-5.53.08-.8.28-1.59.37-2.39a5.12,5.12,0,0,0-.16-1c-.26-2.4-.51-4.8-.79-7.38-.53.74-1,1.42-1.49,2.08a31.26,31.26,0,0,1-2.55,3.38c-1.56,1.61-3.29,3.06-4.94,4.59-.3.28-.49.67-.78,1a40.15,40.15,0,0,1-7.7,5.51c-1.45.86-2.86,1.81-4.31,2.67s-2.68,1.48-4,2.25c-.38.22-.67.6-1.05.81a30.84,30.84,0,0,0-3.65,1.95C13,318,11.37,319.13,10.63,321a44.12,44.12,0,0,0-1.88,4.52,14.92,14.92,0,0,0-.15,3.77c0,.58.13,1.16.17,1.74.15,2.49,1.36,4.62,2.27,6.86a4.26,4.26,0,0,1,.36,1.53,1,1,0,0,1-.61.71.9.9,0,0,1-.8-.37c-.76-1.64-1.45-3.32-2.17-5-.17-.38-.39-.75-.58-1.12a1.25,1.25,0,0,1-.13-.26,30.25,30.25,0,0,1-.77-3.26c-.2-1.55-.27-3.11-.34-4.67a10.72,10.72,0,0,1,.12-2,15,15,0,0,1,3.62-8.26c.09-.1.23-.18.26-.28.32-1.59,1.71-2.32,2.73-3.31,1.36-1.33,2.78-2.59,4.24-3.81.41-.35,1.08-.38,1.51-.72,1.25-1,2.4-2,3.65-3s2.72-1.8,4-2.83a31.64,31.64,0,0,0,2.46-2.62c1.72-1.78,3.42-3.57,5.19-5.3a11.12,11.12,0,0,0,2.44-3.25c.63-1.35,1.13-2.76,1.77-4.11s1.35-2.54,2-3.8a3.94,3.94,0,0,0,.23-.4c.42-1.07.9-2.11,1.22-3.21.64-2.19,1.09-4.42,1.79-6.59.4-1.24.66-2.64,2-3.37a1.46,1.46,0,0,0,.58-1c.16-1.45.22-2.9.33-4.36a10.54,10.54,0,0,0,.16-2,18.75,18.75,0,0,1,.22-5.35,24.67,24.67,0,0,0,.1-3.39l0,0,2.54-6c-.79.22-1.83.57-2.89.8-.84.18-1.63.58-2.56-.17-.51-.41-1.57-.23-2.37-.18a6.32,6.32,0,0,1-2.76-.28,12.89,12.89,0,0,0-4.75-1.23,27.25,27.25,0,0,0-6.5.85c-1.37.35-2.77.6-4.15.92-.69.16-1.37.37-2,.53-.87-1.25-.11-1.89.58-2.5A12.36,12.36,0,0,1,26.6,243a13.16,13.16,0,0,1,5-.72c2.6.25,5.23.08,7.8.84a13.24,13.24,0,0,0,4,.4,27.26,27.26,0,0,0,2.76-.63c2.23-.29,4.15-1.48,6.26-2.08.27-.08.61-.24.82-.14.93.42,1.42-.2,2-.72a19.61,19.61,0,0,1,2.73-2.26,30.93,30.93,0,0,1,3.54-1.58l4.39-2c-1.62-.64-3.19-1.18-4.69-1.88-1.26-.58-2.43-1.33-3.63-2-1.45-.85-2.91-1.7-4.33-2.59a10.18,10.18,0,0,1-1.62-1.25c-1.12-1.06-2.12-2.27-3.31-3.24A24.84,24.84,0,0,1,44.15,218c-1.17-1.63-2.06-3.46-3.06-5.21-.68-1.19-1.35-2.39-2-3.58-1.46-2.53-2.93-5-4.37-7.57-.28-.48-.44-1-.7-1.52-1.13-2.14-2.31-4.26-3.4-6.42s-2.12-4.32-3.14-6.5c-.38-.82-.64-1.71-1-2.54a8.35,8.35,0,0,0-.67-1.09c.06-.23.25-.53.18-.73-.6-1.64-1.33-3.24-1.86-4.91-.46-1.44-.68-2.95-1-4.41-.11-.42-.4-.8-.52-1.22-.41-1.48-.77-3-1.18-4.47a5.6,5.6,0,0,0-.51-1.2,4.58,4.58,0,0,1-.77-3,3.9,3.9,0,0,0-.26-1.16c-.27-1.41-.45-2.85-.8-4.24a15.92,15.92,0,0,0-1.75-5.14s-.06-.05-.06-.08c.21-1.12-.45-2-.65-3.06a8.45,8.45,0,0,0-1.16-3.24c-.5-.75-.54-1.78-1-2.58-.68-1.25-1.66-2.34-2.28-3.61A24.23,24.23,0,0,0,9,136.07a9.46,9.46,0,0,0-4.86-3.55c-.88-.23-1.83-.2-2.69-.48-.57-.19-1.35-.66-1.44-1.13a1.5,1.5,0,0,1,1.2-1.77,20.78,20.78,0,0,1,3.28-1,11.36,11.36,0,0,1,3.28.41A34.21,34.21,0,0,1,12,129.65,12.62,12.62,0,0,1,14.31,131c2.09,1.28,4.21,2.51,6.24,3.88,1.59,1.08,3.06,2.32,4.57,3.51,1.12.88,2.27,1.74,3.32,2.71a18.81,18.81,0,0,1,2.25,2.52,1.46,1.46,0,0,1,0,1.16c-.3.75-.74,1.43-1.05,2.17-.09.22.07.55.13.94a12.36,12.36,0,0,0,.88-1.21,3.27,3.27,0,0,0,.6-2.43c-.35-1.7-.27-3.49-.54-5.21a54,54,0,0,1-.61-8.66c0-1.68,0-3.35,0-5,0-1.49.1-3,.19-4.48.13-2.23.29-4.47.45-6.7.13-1.8.17-3.61.45-5.38A36,36,0,0,1,32.39,104c.57-1.86,1.28-3.67,1.86-5.52.09-.3-.14-.72-.27-1.07-.3-.78-.62-1.56-.95-2.33a16.88,16.88,0,0,1-1.36-3.25c-.23-1.21-1.28-2.13-1-3.5.09-.49-.27-1.05-.4-1.59a35.79,35.79,0,0,1-1-3.92,21.38,21.38,0,0,1,.11-3c0-1-.12-2-.09-3.05,0-.84.17-1.68.25-2.53,0-.48,0-1,.07-1.43.1-1.07.19-2.14.34-3.2s.32-1.86.5-2.79c.28-1.37.57-2.73.86-4.09s.51-2.59.82-3.88A16.27,16.27,0,0,1,34,54.13a14.52,14.52,0,0,1,2.82-3.41,2.66,2.66,0,0,1,.54-.29,33.73,33.73,0,0,0-1.93,4c-.59,1.75-.94,3.58-1.36,5.39-.22.92-.37,1.86-.54,2.8-.12.65-.22,1.3-.33,2-.42,2.67-.9,5.33-1.23,8-.26,2.14-.35,4.31-.44,6.47-.06,1.42-.06,2.85,0,4.27A20.29,20.29,0,0,0,31.87,86c.34,1.86.61,3.74,1.11,5.55s1.22,3.54,1.95,5.6c.32-.53.47-.82.65-1.09.71-1.08,1.38-2.18,2.17-3.19.18-.23.79-.26,1.14-.15a1,1,0,0,1,.49.82,4.11,4.11,0,0,1-.54,1.87l-.09-.57c-.12.11-.29.18-.33.3-.36,1-.7,2-1,3s-.58,1.87-.94,2.77a26.09,26.09,0,0,0-1.83,7.62c-.11,1.38-.52,2.74-.73,4.11-.1.66,0,1.35-.09,2s-.15,1.13-.2,1.69c-.15,1.61-.36,3.22-.43,4.83s0,3.42,0,5.13-.29,3.55-.38,5.32c0,.69.16,1.38.17,2.08,0,1.56-.07,3.13.07,4.67.17,1.93.55,3.83.81,5.75.23,1.69.35,3.41.64,5.09.17,1,.61,1.9.83,2.87.14.59,0,1.24.14,1.83.21,1,.48,2.07.78,3.09.48,1.63,1,3.25,1.5,4.88.42,1.43.77,2.87,1.2,4.3a9.14,9.14,0,0,0,.63,1.46c1.28,2.56,1.61,5.58,3.73,7.74a1.1,1.1,0,0,1,.32.68c0,1.33.9,2.33,1.3,3.51a8.17,8.17,0,0,0,1.37,2.26c.87,1.12,1.84,2.18,2.76,3.27.12.14.27.36.23.49-.39,1.27.61,2.07,1.13,2.92a52.56,52.56,0,0,0,3.75,5.14c1.19,1.48,2.5,2.87,3.75,4.3l1.72,2,.4-2.69c.67,1.57,1.31,3.14,2,4.69a3.35,3.35,0,0,0,.71,1c.4.4.81.68.63,1.42-.08.36.4.88.67,1.3.51.79,1,1.58,1.59,2.33.68.91,1.4,1.78,2.1,2.67s1.49,2,2.3,2.9c1,1.12,2,2.18,3,3.27.17.19.26.47.46.6a7.92,7.92,0,0,0,1.07.5l.19-.31-1.31-1.83a1.63,1.63,0,0,1,2,.7c1.15,1.38,1.69,1.57,3.4,1.11a4.27,4.27,0,0,1,1.09,0l0,.26a10.22,10.22,0,0,1-3,.42c-.91-.13-1.23.39-1.71.77l3.93,3.92c1.4,1.39,3.15,1.37,5,1.24,0,.52-.06.92-.72.92H82.06l-.13.3a8.49,8.49,0,0,0,1.8,1c1.39.39,2.84.6,4.25.93.93.22,1.83.53,2.75.8l-.09.44L86.08,228l-.08.22,3.26,2.21c.13.09.32.11.41.21.94,1.09,2.15,1,3.42.92a16.9,16.9,0,0,1,3.19.42,2,2,0,0,1,.52.25l-.17.31H93l-.08.2,2.72,1.05c1.11.43,2.22.89,3.34,1.29.88.31,1.78.59,2.69.82s2.1.37,3.11.7a1,1,0,0,0,1.25-.3c.65-.67,1-.64,1.62.08a1.76,1.76,0,0,0,2.82-.11c1-1.55,2.64-1.72,4.16-2.16.17-.05.52.26.69.48a3,3,0,0,1,.31.82l1.52-1.34a5.64,5.64,0,0,1,4.41-1.29,3,3,0,0,0,3.15-1.54,8.25,8.25,0,0,1,1.82-1.52l-.74-.43,1.72-1.09a.79.79,0,0,1-.09-.51c0-.14.43-.24.66-.23a1.61,1.61,0,0,1,.9.23c.92.71,1.91.42,2.9.33.26,0,.67-.08.77.05a2.51,2.51,0,0,0,1.85.8c.32.05.58.39.9.46,1.35.27,2.35,1.37,3.77,1.52s2.82.58,4.23.6,2.68,1.1,4.3.74a42.18,42.18,0,0,1,5.15-.35,2.25,2.25,0,0,0,1.38-.77,32.76,32.76,0,0,0,2.08-3,5,5,0,0,0,.39-1.05H157a9.85,9.85,0,0,1,0,1.72,12.22,12.22,0,0,1-.59,1.77,1.47,1.47,0,0,0,1.91-1.61,10.08,10.08,0,0,1,.26-1.73l-1.31-.56,0-.18c1.73-.16,3.48-.24,5.19-.51a4.67,4.67,0,0,0,2.19-1c.92-.78,1.18-.92,2-.39,6.57-2.85,10-8.25,12.36-14.7l-.47.12-.37.07c0-.1,0-.17,0-.19a11.64,11.64,0,0,1,1.11-.84c.54-.33.54-.67.47-1.31a8.25,8.25,0,0,1,.55-2.55l.33.06-.2,1.83c1.26-1.08,2.2-1.92,2.32-3.6a4.53,4.53,0,0,1,2.35-3.62,4.23,4.23,0,0,0,1.6-3.13c.14-.92.33-1.84.49-2.76l.27,0-.23,2.78a26.82,26.82,0,0,0,6.36-11.91l-.21-.15-.62.55-.19-.19.86-.86c.64-3.39,1.65-6.94,1-10.68l-.63.38c1-1.58.36-3.07.33-4.52a8.82,8.82,0,0,0-.09-1.09c-.15-1-.32-2.06-.48-3.08,0-.24,0-.48,0-.8.22.1.31.11.32.15.39,1.52,1.58,2.57,2.43,3.77a11.74,11.74,0,0,0,3,2.4c2,1.41,4.11,2.74,6.12,4.16,1,.7,1.86,1.56,2.84,2.28a12.11,12.11,0,0,0,1.75.89l-.86.62,15.56,9.82-.18.33c-1.47-.72-3-1.34-4.4-2.18-2.06-1.25-4-2.65-6-4q-3.8-2.55-7.58-5.12a3.7,3.7,0,0,1-.58-.7,2.42,2.42,0,0,1-1.78-1.33,1.11,1.11,0,0,0-.51-.51,9.75,9.75,0,0,1-1.25-.53c-1.31-.95-2.58-1.95-3.87-2.92a8.3,8.3,0,0,0-1.9-1.15c.25.79.5,1.58.75,2.37.07.23.24.51.18.71-.29,1,.28,1.54.92,2.08,2.64,2.21,5.24,4.46,7.94,6.59,2.09,1.64,4.32,3.12,6.41,4.61l-.56.11-.08.23,10.62,6.41v.14a9.13,9.13,0,0,1-.92-.25,35.34,35.34,0,0,1-8.17-4.57c-1.72-1.25-3.47-2.43-5.19-3.68s-3.45-2.53-5.13-3.84c-1.19-.93-2.32-2-3.48-2.92-.54-.45-1.12-.86-1.86-1.43a18.3,18.3,0,0,1,0,2.78c-.19,1.17.61,2,.94,2.91.06.17.55.14.74.31.64.59,1.25,1.21,1.83,1.85A32.67,32.67,0,0,0,207.2,190a32.07,32.07,0,0,1,2.56,2.05c.12.1.09.38.11.45l10.51,6.13,0,.13a21.43,21.43,0,0,1-3.36-1.16c-2.28-1.22-4.51-2.56-6.69-3.95-1.05-.67-1.93-1.61-2.93-2.37-.82-.62-1.74-1.11-2.53-1.75-1.71-1.38-3.38-2.81-5.06-4.22-.5-.42-1-.85-1.58-1.37-.19,1-.43,1.94-.52,2.88s.95,1.17,1.51,1.65c1.32,1.14,2.75,2.15,4.12,3.24a1.23,1.23,0,0,1,.38.94l-1-.55-.16.15a15.26,15.26,0,0,0,1.25,1.37c1.28,1.11,2.58,2.21,3.92,3.26,1,.78,2,1.49,3.07,2.19,1.45,1,3,1.78,4.38,2.87a37.74,37.74,0,0,0,3.79,2.16c.79.5,2.31-.13,2.29-1.06s.47-1,.84-1.52a7,7,0,0,0,1.78-3c.09-.53.57-1,.78-1.51s.3-1.08.47-1.62c.09-.29.18-.68.4-.81a3.65,3.65,0,0,0,1.51-2.42,11.62,11.62,0,0,1,.58-1.2c.16-.38.26-.78.4-1.17a3.3,3.3,0,0,1,.21-.49c.78-1.43,1.56-2.85,2.33-4.29a.54.54,0,0,0,0-.46c-.45-.61.12-.83.39-1.19a7.13,7.13,0,0,0,.91-1.34,18,18,0,0,0,.86-2.36c.06-.21,0-.66-.19-.72-3.12-1.18-5.69-3.25-8.38-5.12-1.6-1.11-3.15-2.29-4.72-3.44s-2.91-2.05-4.31-3.16c-2.68-2.11-5.34-4.24-8-6.43a54.82,54.82,0,0,1-4-3.75c-1.39-1.42-2.67-2.94-4-4.42l.25-.24,2.78,2.49c1.46,1.31,2.89,2.65,4.39,3.92,1.71,1.45,3.44,2.87,5.21,4.24s3.72,2.75,5.58,4.13c.08.06.19.07.25.14,1.37,1.43,3.16,2.31,4.72,3.5,2,1.52,4.12,2.88,6.2,4.29.91.62,1.87,1.16,2.78,1.78a1,1,0,0,0,1.37-.09,5.71,5.71,0,0,0,2.19-3.58c.47-2.46,1.15-4.87,1.71-7.31,0-.22-.09-.66-.25-.72a21.19,21.19,0,0,1-6-4.13c-1.85-1.6-3.94-2.92-5.89-4.42a12.67,12.67,0,0,1-1.47-1.57,18.33,18.33,0,0,1-2.24-1.28c-1.25-1-2.4-2-3.62-3-1.48-1.19-3-2.33-4.48-3.54-.27-.22-.36-.66-.54-1l.34-.27,24.3,19.22c.07-1.39,1.19-2.39.34-3.52a5.46,5.46,0,0,0,.72-1.5c.28-2.11.53-4.23.67-6.35.15-2.29.16-4.58.22-6.88a22.58,22.58,0,0,1,0-2.64c.17-1.19-.44-1.8-1.27-2.5-1.37-1.16-2.59-2.5-3.84-3.79s-2.35-2.49-3.5-3.76a3.38,3.38,0,0,1-.4-.79l.26-.15,8.44,8.47c0-1.22,0-2.23,0-3.23-.05-1.77-.14-3.54-.22-5.3h0c.68,0,.64.49.67.92.11,1.54.16,3.08.31,4.61.22,2.17.51,4.32.76,6.49a8,8,0,0,1,0,.88c1-1.1,2-2.14,2.92-3.27,1.69-2.11,3.31-4.28,5-6.42,1.38-1.8,2.78-3.6,4.14-5.42a34.77,34.77,0,0,0,2-2.94,1.28,1.28,0,0,0-.05-1c-.37-.79-.83-1.54-1.24-2.27a12.13,12.13,0,0,0-1.58,1.52c-.35.47-.38,1.17-.71,1.67-.61.93-1.34,1.77-2,2.66-.41.56-.75,1.18-1.2,1.7q-3,3.53-6.11,7a7.85,7.85,0,0,1-1.2.93l-.19-.16c.62-.74,1.26-1.46,1.86-2.22.84-1.08,1.63-2.19,2.46-3.27,1.47-1.91,3-3.78,4.43-5.73,1.16-1.59,2.23-3.25,3.26-4.92a1.52,1.52,0,0,0-.07-1.18,19.39,19.39,0,0,0-1.11-1.94c-3.52,4.29-6.27,9-10.66,12.22,2.87-4.82,6.83-8.83,9.9-13.45l-2-2.68c-.25.32-.45.55-.61.79-.92,1.46-1.75,3-2.78,4.36a47.55,47.55,0,0,1-3.51,4,6.29,6.29,0,0,1-1.59.85l7.73-10.85c-.42-.9-.76-1.72-1.18-2.5-.26-.48-.89-.34-1.29.2-1,1.41-2,2.87-3.17,4.2s-2.27,2.35-3.42,3.52l-.34-.26c.72-1.15,1.4-2.33,2.18-3.43s1.84-2.34,2.76-3.5a18.9,18.9,0,0,1,1.48-1.81c.55-.53.58-.93,0-1.42-.15-.13-.2-.38-.37-.75a8,8,0,0,1-.95,1.42c-1.58,1.5-3.15,3-4.84,4.4a2.75,2.75,0,0,0-1,3l-.31,0L235,115.67l-.14.86a4,4,0,0,1-.47-1.15,4.71,4.71,0,0,0-2.73-3.75c-1.78-1-2.35-2.74-3.18-4.29a4.94,4.94,0,0,1-.31-4.51,3.82,3.82,0,0,0,.21-1.68,1.35,1.35,0,0,0-.46-1,7.67,7.67,0,0,1-2.77-2.54,1.83,1.83,0,0,0-.81-.73c-.5-.22-1-.63-1.62-.06a8.53,8.53,0,0,1-1.6.8c-.6.34-1.14.76-1.74,1.1s-1,.42-1.5.66a12.89,12.89,0,0,1-3,1.48c-1.14.22-1.71,1.3-3.06,1.3,7.9,6,15.47,11.93,22.12,19.09a7.75,7.75,0,0,1-1.54-.81c-1.83-1.55-3.6-3.18-5.42-4.75-2.53-2.19-5.06-4.37-7.63-6.52-2.28-1.91-4.6-3.78-6.92-5.65a15.7,15.7,0,0,0-1.49-.94l-3.06,2,.59.93,0,0c-.12,0-.29.17-.35.13-1.58-1.08-2.52.32-3.6,1-1.63,1-3.21,2-4.73,3.17-1.36,1-2.61,2.16-3.76,3.12,4.53,4.45,9,8.82,13.44,13.21.15.15.15.47.24.77.89-.26.8.32.85.72a12.07,12.07,0,0,1,1.42,1c1.09,1,2.14,2.1,3.19,3.17a3.35,3.35,0,0,1,.81,1.36c-1.23-1-2.52-1.9-3.67-3-1.64-1.54-3.16-3.19-4.73-4.81-2.06-2.12-4.05-4.3-6.17-6.35-1.92-1.86-4-3.58-6-5.4l-4.42,4c5.42,5.11,11.08,9.95,15.63,15.86l-.3.3c-1.17-1.09-2.35-2.16-3.5-3.26s-2.2-2.16-3.27-3.27-2.06-2.2-3.1-3.28c-.55-.57-1.11-1.12-1.69-1.65-1.38-1.28-2.77-2.55-4.26-3.92l-3,3.24c6.22,4.53,11.24,10,16.32,15.4-3.16-1.93-5.38-4.92-8.1-7.34s-5.49-5.08-8.38-7.77c-.79,1.5-1.53,2.89-2.23,4.29a.77.77,0,0,0,.11.69q2.32,2.5,4.69,4.94c.79.82,1.64,1.59,2.41,2.44,1.4,1.54,2.75,3.11,4.13,4.67l-.31.31c-1-1-1.95-1.93-2.9-2.92s-2-2.08-2.93-3.12l-2.83-3.06-2.93-3.2c-.3.66-.62,1.34-.91,2a2,2,0,0,0,.7,2.71c2.12,1.77,4,3.85,5.94,5.82,1.25,1.26,2.46,2.56,3.65,3.87.16.18.14.53.26,1l-11-11c-.79.8-1.44,3.78-1,4.43a7,7,0,0,0-.35,1.4,27.1,27.1,0,0,0,.07,3.41,2.48,2.48,0,0,0,.69,1.3c.94,1,2,2,2.92,2.95a11.28,11.28,0,0,1,.79,1l-.28.27c-.48-.49-.94-1-1.43-1.46s-1.06-1-1.66-1.6l.51,3.38a5.7,5.7,0,0,1-2.35-2.29,10.25,10.25,0,0,1-1.29-4.72,56.59,56.59,0,0,0-.86-6.88,28.32,28.32,0,0,0-1.51-5.83,46.91,46.91,0,0,0-3.46-6.42,39.29,39.29,0,0,0-3.23-4.33c-.75-.91-1.68-1.68-2.51-2.53s-1.67-1.8-2.5-2.71c-.35-.39-.68-.8-1.13-1.34l-.31,1.68-.31,0a3.64,3.64,0,0,1-.09-1.39c.26-.74-.08-1.07-.6-1.43-.7-.48-1.37-1-2.09-1.48a26.55,26.55,0,0,0-3.81-2.34c-1.81-.78-3.64-1.71-5.81-1.52v1.08c-.39-.4-.69-.9-1.11-1.07s-1,0-1.67-.23a3.66,3.66,0,0,1,1.09-.55c.74-.09,1.28-.64,1-1.28a16,16,0,0,0-1.9-3.57,17.14,17.14,0,0,0-2.92-2.19,4.23,4.23,0,0,1-.94-1.16c-.87-.36-.92.16-.61-3.09l.24,0a2.5,2.5,0,0,1,.11.89,2,2,0,0,0,.85,2.26,6.43,6.43,0,0,0,.9.54c.5.27,1,.52,1.65.84l.56-1.88H149c0,.23.16.5.08.67-.61,1.22.19,2,.76,2.93a22.81,22.81,0,0,1,1.57,3.44,3.69,3.69,0,0,1,0,1.19,32.58,32.58,0,0,1,3.5.7c1.07.33,2,1,3.18,1l1.2-4.45.43.12-1.36,4.51,6.19,4L168.52,93a30.08,30.08,0,0,1-1.38,7.75c-.74,2.47-1.38,5-2.07,7.47.87,1,1.75,2,2.67,3s1.92,1.79,2.74,2.79c1.56,1.88,3.09,3.81,4.52,5.79,2.35,3.26,3.42,7.06,4.35,10.9.19.8.3,1.62.45,2.44l.25.05a5.1,5.1,0,0,0,.49-.93c.39-1.35.72-2.72,1.13-4.06a8.36,8.36,0,0,1,1-2.68c1.29-1.67,1.77-3.81,3.38-5.32a19.89,19.89,0,0,0,2.35-3.34l-.5-.45c.11,0,.21-.13.25-.11.64.38,1,.11,1.46-.41a16.4,16.4,0,0,1,1.67-1.74c1.06-1,2.14-2,3.26-2.87.65-.53,1.42-.92,2.1-1.41s1.1-1,1.7-1.38c1.14-.77,2.31-1.48,3.48-2.21s2.43-1.49,3.83-2.35l-2-1.59.14-.2c.51.35,1,.72,1.54,1a.87.87,0,0,0,1.24-.12c2-2,4.08-3.86,6.19-5.83l.36.49-3.23,3,.12.28a14.48,14.48,0,0,0,1.69-.52,31,31,0,0,0,5.57-2.94,42,42,0,0,1,4.06-2.27c.24-.13.48-.28.74-.44l-1.19-1.6L221,93c.28.22.58.43.83.67.9.86,1.48.82,2.41,0a3.41,3.41,0,0,1,1.21-.69c.54-.18,1.08-.3,1.31-.92,0-.09.26-.12.4-.17a8,8,0,0,0,1.48-.59c1.83-1.18,3.7-2.32,5.4-3.67a16.45,16.45,0,0,0,2.67-3.08A11.1,11.1,0,0,0,238,82.26a2.43,2.43,0,0,0-.57-2.79.44.44,0,0,1-.06-.27.48.48,0,0,1,.07-.17,2.26,2.26,0,0,1,1.78,2.78,7,7,0,0,1-1.9,4.42.93.93,0,0,0-.24.72c.94-1.17,1.85-2.35,2.82-3.49a2.27,2.27,0,0,0,.53-2.37,10.94,10.94,0,0,1,0-2.79,11.78,11.78,0,0,0,.9,1.36,2.89,2.89,0,0,1,1,2.38c-.09,1.56.5,3.15.7,4.74s.23,3,.34,4.64a164.94,164.94,0,0,0,17.94-2.59l.08.4c-1.54.37-3.06.85-4.62,1.08-3,.44-6,.75-9,1.1-1.35.16-2.73.2-4.06.47-.41.08-.77.7-1,1.15a6.43,6.43,0,0,0-.3,1.27c-.17.57-.42,1.12-.56,1.69,0,.1.31.41.48.41q2.27,0,4.53-.06c1.45,0,2.89-.14,4.33-.2l5.21-.21c1.7-.07,3.4-.11,5.1-.22,1.07-.07,2.13-.26,3.2-.38a3.56,3.56,0,0,1,.68.06c-1.09,1.09-8.32,1.9-9.42,1.22a6.84,6.84,0,0,1-1.22.29c-2.52.09-5,.17-7.57.21-1.68,0-3.36,0-5,0a1.33,1.33,0,0,0-1.35,1.73,30.34,30.34,0,0,0,2,3.64c.19.3.45.87,1.07.5,0,0,.24.27.22.25a13.59,13.59,0,0,1,1.87-.3c2.42,0,4.85,0,7.27-.05s5-.23,7.52-.31c2.05-.06,4.11,0,6.17-.08.43,0,.85-.06,1.28-.09l0,.28A6.43,6.43,0,0,1,267,103c-1.79.17-3.58.36-5.38.41-3.08.09-6.16.1-9.23.12-2.92,0-5.85,0-8.81,0,.64,2.21,2.88,3.3,3.14,5.6h1.59c2.18,0,4.36-.07,6.53-.12,1.87,0,3.74-.16,5.61-.19.85,0,1.72.24,2.56.17,2.06-.17,4.12-.45,6.18-.72.1,0,.17-.29.25-.45.29.44.12.91-.5,1.1a10.69,10.69,0,0,1-2.57.62c-2,.1-4,0-5.95,0h-11a7.6,7.6,0,0,0-1.37.06c-.14,0-.37.43-.31.53a27.32,27.32,0,0,0,1.4,2.42c.71,1.07,1.45,2.11,2.22,3.14a8.19,8.19,0,0,0,.95.94s.14.07.14.09c-.29,1.7,1.15,2.54,1.86,3.73.37.62,1,1.1.89,1.93,0,.11.41.39.6.37a38.46,38.46,0,0,1,8.6.41c1,.12,2,.14,3.06.23.47,0,.93.14,1.4.21l0,.31c-1.77-.08-3.54-.14-5.3-.25-2.26-.15-4.51-.36-6.77-.5a2.62,2.62,0,0,0-.93.33,6.23,6.23,0,0,1,.49.8c.47,1.13.93,2.26,1.38,3.4.57,1.45,1.17,2.88,1.67,4.35a11.7,11.7,0,0,1,.31,2.11l1-.16a4.85,4.85,0,0,1-.22.7c-.65,1.27-.21,2.48.06,3.74a26.26,26.26,0,0,1,.33,3.62c.1,1.34.17,2.68.26,4.08.78.56,2-.15,2.66.81l-2.48-.21c-.08.91-.16,1.81-.23,2.72s-.14,1.93-.18,2.9c0,.69.49,1,1.36,1,.32,0,.64,0,1,0,.12,0,.24,0,.37.28-.5,0-1,0-1.51.08a9.26,9.26,0,0,0-1,.2l.5.83c-1.07-.18-.89.68-.92,1.28,0,1.31,0,2.61,0,3.93l1.18.49a2.27,2.27,0,0,0-.75.25c-.32.29-.76.61-.83,1a13.28,13.28,0,0,0,0,2.3c.67-.89,1.34-1.72,2-2.6,1.18-1.7,2.32-3.42,3.48-5.13l0,0a1.08,1.08,0,0,1,0,1.53c-1.55,2.12-3,4.28-4.53,6.42,2.06,1.13,2.05,3.27,2.71,5.06a5.62,5.62,0,0,1-.23,3.28c-.24,1.06-.22,2.18-.39,3.26a8.27,8.27,0,0,1-.59,2c-1.1,2.48-2.23,4.94-3.37,7.41a26.73,26.73,0,0,1-5.57,7.73c-.74.74-1.38,1.6-2.17,2.28-2.06,1.77-4.15,3.53-6.29,5.19a16.9,16.9,0,0,1-3,1.76c-1.27.61-2.6,1.12-3.91,1.66-.12,0-.27,0-.47-.17a35.92,35.92,0,0,0,4.29-2.23,70.79,70.79,0,0,0,7.51-5.75,28.88,28.88,0,0,0,5.5-6.37c1.13-1.91,2.36-3.77,3.44-5.71a25.73,25.73,0,0,0,1-2.8c.17-.42.57-.75.71-1.17a7.45,7.45,0,0,0,.13-1.62c-2.59,1-5,2.13-7.56,2.87-2.06.6-2.57,2.39-3.79,3.61h7.52l0,.19c-1.27.13-2.53.27-3.8.38s-2.4.14-3.6.26a1.9,1.9,0,0,0-1.42,1,37.33,37.33,0,0,1-2.5,3.16h2.18c-.3.3-.45.58-.65.62a8.19,8.19,0,0,1-2,.2c-.61,0-.88.3-1.23.67-.63.65-1.34,1.24-2,1.85l.13.29h7.48l0,.22a14.12,14.12,0,0,1-2,.35c-1.64.06-3.28,0-4.91.07a2.92,2.92,0,0,0-2.67,1.13,8.06,8.06,0,0,1-1.37,1.33,41.55,41.55,0,0,1,4.4,0c1.45.13,2.9-.3,4.34.06l0,.28c-1.23.14-2.47.37-3.7.39-1.9,0-3.81-.12-5.71-.1-.37,0-.74.46-1.09.72l-2.31,1.74.1.28,2.15-.22ZM76.06,224.16a5.07,5.07,0,0,0,3,.62,17.65,17.65,0,0,0-2.54-.83c-.14,0-.34.15-.51.24a8.38,8.38,0,0,0-1.26-.64c-.78-.25-1.6-.42-2.4-.62l-.07.3ZM189.83,211.8l1.22,3,.33-.13a14.2,14.2,0,0,1-.64-2.31c-.09-.8-.45-.67-.94-.48a1.26,1.26,0,0,0,.29-1.55c-.45-.92-.78-1.9-1.21-3C188.22,209.11,189.08,210.44,189.83,211.8ZM26.46,159c.15-.67.46-1.37-.44-1.88l-1.14,2.66.75.19.82-1c-.17.92-.47,1.86.3,2.76.4-.79.78-1.5,1.12-2.22s.21-1.28-.68-1.47ZM136,246.19c-.21,0-.49,0-.61.14-.66.69-1.29,1.42-1.93,2.14a15.08,15.08,0,0,1-1.13,1.25c-1.69,1.51-3.42,3-5.11,4.51-.77.69-1.45,1.5-2.25,2.16-1.58,1.3-3.21,2.53-4.72,3.71l2.93.14a4.32,4.32,0,0,1,.54-.83c1.1-1.07,2.26-2.08,3.34-3.17.77-.77,1.43-1.66,2.18-2.46,1.14-1.22,2.37-2.37,3.47-3.62s2.17-2.64,3.25-4l4.74-5.58c.43-.51.88-1,1.32-1.5l-.2-.31a3.73,3.73,0,0,0-1.25.6,17.38,17.38,0,0,0-1.37,2,18.84,18.84,0,0,1-3.23,4.17C135.85,245.63,136,246,136,246.19Zm15.19,4a1.68,1.68,0,0,0,.39-.26c2-2.44,4.19-4.81,6.09-7.36,1.46-2,2.64-4.14,3.91-6.24.24-.4.57-.94.47-1.3a25.77,25.77,0,0,0-1.18-2.93l-.28-.11-1.29,2.62.28.15.67-.86a1,1,0,0,1,0,.75c-1.05,2.14-2.08,4.29-3.2,6.39-.44.82-1.21,1.48-1.6,2.31a11.83,11.83,0,0,1-2.24,3.44,4,4,0,0,0-.36.56c-.45.63-.92,1.25-1.34,1.9a4.38,4.38,0,0,0-.33,1,4.41,4.41,0,0,0-.93.64c-.95,1.09-1.85,2.23-2.78,3.34-.43.52-.88,1-1.32,1.55l.35.3C147.86,254,150,252.51,151.16,250.22Zm-20.61-6.87h0a1.09,1.09,0,0,1,.32-1.36c1.18-1.27,2.27-2.62,3.37-4,.51-.62,1-1.28,1.59-2.1-.46,0-.67,0-.8.07-.53.34-1,.71-1.54,1.07a33.71,33.71,0,0,0-2.89,2.06c-.66.57-1.05,1.44-1.7,2a10.3,10.3,0,0,1-2.59,2.31c-.85.39-1.34,1.52-2.17,2a44.36,44.36,0,0,0-3.68,2.81c-1.83,1.28-3.87,2.26-6,3.47,1.26-2.61,3.36-4.16,5.43-5.93-.4,0-.6-.12-.68-.05a22.48,22.48,0,0,1-5.12,3,1,1,0,0,0-.27,1.61c.14.16.33.38.31.56a13.5,13.5,0,0,1-.46,3.23,17.46,17.46,0,0,1-1.76,3,.46.46,0,0,0,.23.2,2.53,2.53,0,0,1,1.93,1.51c.52,1.25,1.47,1.3,2.63,1.06a8.79,8.79,0,0,1,2.13.11,8.23,8.23,0,0,1,1-1.69c1-1.1,2.13-2.09,3.2-3.13s2.1-2.1,3.17-3.14c.4-.39.89-.69,1.28-1.09.55-.56,1-1.18,1.58-1.76.81-.89,1.62-1.77,2.44-2.64a5,5,0,0,1,.66-.53,13.81,13.81,0,0,1,.86-1.41c.93-1.17,2.33-1.94,2.89-3.46a1.93,1.93,0,0,1,.92-1.09c1.13-.42.92-1.59,1.53-2.15l-2.1-1.57c-1.39,1.75-2.72,3.41-4,5.06C131.66,242,131.1,242.69,130.55,243.35Zm.88,14.34,0,0a2.84,2.84,0,0,1-.41.76c-1.16,1.12-2.35,2.2-3.53,3.3-.32.3-.63.61-.94.93a8.82,8.82,0,0,0-2.14,2.47,7.2,7.2,0,0,1-3.37,3.45c-1.8.89-3.71,1.56-5.59,2.27a10.81,10.81,0,0,1-1.8.33,2.94,2.94,0,0,0,.53.35,14,14,0,0,0,6.33.22,31.49,31.49,0,0,0,3.44-.76c1.62-.53,3.19-1.22,4.86-1.87-.62-.78.11-1.44.6-2,1.14-1.34,2.35-2.63,3.61-3.85,1.88-1.83,3.87-3.55,5.76-5.37s3.9-3.88,5.84-5.82c1-1,2.16-2,3.11-3.15,1.82-2.13,3.62-4.29,5.3-6.53s3.34-4.78,5-7.17l-.23-.24h-1.52c-.26.39-.38.79-.62.87a3.28,3.28,0,0,0-1.65,1.75c-1,1.82-2,3.7-3.2,5.42-1.09,1.57-2.45,2.94-3.67,4.42-.49.6-.87,1.3-1.36,1.9s-1.08.92-1.4,1.5-.67.59-.93.41a6.09,6.09,0,0,1-.84,1.47c-.76.8-1.63,1.48-2.41,2.25-2.15,2.12-4.26,4.29-6.43,6.4-1.2,1.17-2.46,2.28-3.77,3.33a26.86,26.86,0,0,1-3.22,2.19c-.25.15-.78-.08-1.12-.26-.07,0,.08-.6.19-.89s.25-.28.39-.42c1.78-1.63,3.56-3.25,5.33-4.88s3.54-3.2,5.21-4.9q3.13-3.2,6.08-6.58c1.73-2,3.36-4.06,5-6.11,1.16-1.44,2.28-2.91,3.57-4.56-1,.25-1.74.39-2.46.65a2.77,2.77,0,0,0-1.17.76c-1.09,1.32-2.11,2.7-3.18,4q-2,2.46-4,4.86c-.8.94-1.66,1.82-2.5,2.72l-.21-.15a3.06,3.06,0,0,1,.3-.59c.48-.59,1-1.15,1.46-1.74,1.22-1.51,2.43-3,3.65-4.54a18.3,18.3,0,0,0,1.72-2.06c.44-.75,1.24-1.19,1.54-2.06a7.86,7.86,0,0,1,1-1.49c-.9.12-1.81,0-2.22.35a17.18,17.18,0,0,0-2.09,2.83c-.12.17-.12.43-.26.58-.8.92-1.63,1.81-2.44,2.72-1.1,1.22-2.19,2.45-3.29,3.66-.36.39-.89.7-1.08,1.15-.48,1.18-1.58,1.77-2.31,2.71a16.52,16.52,0,0,1-1.71,1.64c-1.22,1.16-2.37,2.41-3.68,3.47s-2.94,2.1-4.25,3l1.2,2.18a7.18,7.18,0,0,0,.83-.61c1.27-1.23,2.5-2.49,3.78-3.7A10.68,10.68,0,0,1,131.43,257.69Zm109.72,1.49a20.8,20.8,0,0,1-1.44-2.2c-1.05-2.14-2.07-4.3-3-6.49-.78-1.81-1.43-3.69-2.19-5.51-.09-.23-.5-.33-.76-.49,0,.23.09.47.13.7a1.25,1.25,0,0,1-.06.29l-3.28-1.5-.18.29c.83,1.21,1.65,2.43,2.49,3.63a25.7,25.7,0,0,1,1.58,2.25,7,7,0,0,0,.95,1.88,29.3,29.3,0,0,1,4.06,5.87c.34.56,1.15.84,1.75,1.26-.25.15-.6.49-.72.42-1.48-.86-3-1.73-4.38-2.69a31.75,31.75,0,0,1-2.46-2v.72c-1.67-1.16-6.57-8.47-6.24-9.15-.24-.16-.55-.25-.69-.47-.51-.8-.95-1.63-1.43-2.45A3,3,0,0,0,224,242c-2.22-1.11-4.37-2.38-5.68-4.7a6.87,6.87,0,0,1,2.15.81c1.35.86,2.34,2.36,4.22,2.26.16,0,.35.24.51.39s.27.39.45.46c1.71.64,3.43,1.24,5.14,1.86l.15-.25-.43-1c-.18-.21-.33-.37-.47-.55-.94-1.2-1.45-2.76-3-3.44a1.86,1.86,0,0,0-.69,0l-.09.33a12.66,12.66,0,0,1-1.76-1.43,9.2,9.2,0,0,0-3.07-2.72,10.88,10.88,0,0,1-1.54-.82c-2.31-1.51-4.59-3.07-6.92-4.54a8.34,8.34,0,0,0-2.72-1.21,36.2,36.2,0,0,1-4.78-1.55c-.59-.2-.82-.2-1.07.43a1.49,1.49,0,0,1-1,.81c-.34,0-.81-.37-1.06-.7a14.22,14.22,0,0,1-1-1.78,8.1,8.1,0,0,0-1.47.48,1.33,1.33,0,0,1-2.16-.69,4.44,4.44,0,0,0-.67-.86c-.89-1.06-2.21-.56-3.31-.85a9,9,0,0,1-3.71-1.5,15.53,15.53,0,0,0-2.64-2,15.42,15.42,0,0,1-5-4,7.8,7.8,0,0,0,.15,1.56c.5,1.5.15,2.25-1.09,2.64-.37.69-.55,1.35-1,1.68-.26.2-.91-.11-1.48-.21l-1.55,1.2a13.32,13.32,0,0,0,2.52.65,9.9,9.9,0,0,1,5.52,1.53,5.4,5.4,0,0,0,1.23.46,32.72,32.72,0,0,0-2.19-3.66c-.74-.95-.67-2.06-1-3.08,0-.1.14-.27.17-.33a14.13,14.13,0,0,1,1.24,1.68c1.16,2.15,2.25,4.34,3.38,6.51a1.68,1.68,0,0,0,.39.53c1.11.9,2.24,1.79,3.36,2.68-1.1-2.14-2.48-4.14-2.64-6.65,1.41,2.34,2.69,4.76,4,7.13a3.81,3.81,0,0,0,2.54,1.6c-.5-1-1.19-1.79-1.64-2.72a19.94,19.94,0,0,1-.9-2.91l.23-.08c1.18,2,2.37,4,3.53,6a2.56,2.56,0,0,0,2.1,1.36,22.1,22.1,0,0,1-2.72-7.34c1.24,2.12,2.38,4.29,3.44,6.5.88,1.83,1.5,2.51,3.31,3.13a21.48,21.48,0,0,1-2.84-7.92c.19.14.28.18.31.25,1,2,2.13,3.95,3,6a10.16,10.16,0,0,0,4.51,5.26,39.09,39.09,0,0,1-4.35-10.63,10.62,10.62,0,0,1,1.58,2.23c1.46,3,2.84,6.1,4.28,9.14a3.32,3.32,0,0,0,2.42,2.06l-4.1-10.93.34-.15a9.5,9.5,0,0,1,.87,1.4c1.35,3.32,2.65,6.67,4,10a10.58,10.58,0,0,0,1.53,2.87,37.44,37.44,0,0,0,3.31,3.11c-.91-1.92-1.77-4-2.84-5.94-.68-1.23-2.32-5.23-2.15-6.25,1.4,2.68,2.71,5.41,4.06,8.11,2,4.08,4,7.07,4.88,7.44l-4.36-7.6.24-.14c.84,1.22,1.67,2.45,2.52,3.67,1,1.45,2.05,2.88,3,4.35a21.33,21.33,0,0,0,6.06,6,13.58,13.58,0,0,0,2.08.93c-2.2-2.17-5-3.71-6.29-6.73.14,0,.21,0,.25.06.23.22.47.44.69.67a37.86,37.86,0,0,0,7.6,6.39,26,26,0,0,0,6.92,2.8,25.68,25.68,0,0,1,3.62,1.53c1.05.5,2.06,1.1,3.08,1.65a10,10,0,0,1-2.21-4.31,3.81,3.81,0,0,1,1.55-4.12c-1.21-1.64-2.43-3.15-3.5-4.77-.91-1.36-1.65-2.83-2.47-4.25-.59-1-1.2-2.07-1.76-3.12-.43-.81-.83-1.64-1.2-2.48-.82-1.86-1.61-3.74-2.45-5.6-.21-.47-.65-.84-.85-1.32-.53-1.23-1-2.51-1.47-3.74-.86-2-1.83-4-2.63-6.07-.88-2.27-1.61-4.59-2.34-6.7l.75-1.25a1.51,1.51,0,0,1,.2.29c1.06,2.68,2.1,5.36,3.18,8,.66,1.63,1.44,3.22,2.09,4.86.37.94.5,2,.92,2.9.86,1.88,1.87,3.69,2.77,5.55,1.06,2.18,2,4.41,3.11,6.57.87,1.74,1.81,3.46,2.81,5.13,1.14,1.89,2.39,3.71,3.59,5.55l2.55-.39c0-.13,0-.21,0-.25-1.58-2.18-3.23-4.33-4.74-6.56-1.12-1.65-2.08-3.42-3.09-5.14-.77-1.3-1.58-2.58-2.27-3.92-1.09-2.11-2.1-4.25-3.12-6.39-.75-1.58-1.47-3.18-2.19-4.78s-1.41-3.28-2.15-4.9c-.45-1-1-2-1.43-3s-.75-2.18-1.12-3.27-.7-2-1-3-.7-2.25-1-3.3c-.82.1-1.57.22-2.32.27s-1.51,0-2.15,0a24.41,24.41,0,0,1,1.32,4.87c1.4,1.61,1.3,3.93,2.3,5.83l-1.64.44,4,12.75a5.4,5.4,0,0,1-.93-1.41c-.23-.52-.38-1.08-.57-1.63a12.55,12.55,0,0,0,1.33,5.36c.81,1.6,1.68,2.8,3.41,3.29l-1-2.78a.41.41,0,0,1,0-.18,1.56,1.56,0,0,0-.53-1.58,3,3,0,0,1-.66-1.22c-.36-.93-.7-1.87-1-2.83-.1-.32,0-.85-.14-1-.63-.45-.44-1-.39-1.43a11.56,11.56,0,0,1-2-5.21l.69-.83a2.3,2.3,0,0,1-.8.15c-.15,0-.37-.36-.33-.44s.33-.45.5-.46.63.17.68.35c.13.45,0,1,.16,1.42.43,1.05,1,2,1.46,3.1.12.29-.12,1-.06,1,.81.21.55,1,.81,1.47a25.34,25.34,0,0,1,1.46,3.41c.58,1.59,1,3.23,1.61,4.83a18.42,18.42,0,0,0,1.63,3.77c.71,1.09.66,2.36,1.36,3.49,1,1.71,1.44,3.8,2.26,5.67.94,2.14,2,4.22,3.09,6.31.41.82.85,1.63,1.28,2.44l-.15.07ZM51.57,286.86l.23,0c.48-1.37.91-2.75,1.45-4.09.28-.71.79-1.34,1.12-2a8.2,8.2,0,0,0,.87-2.33c.19-1.55.16-3.12.25-4.68.12-2.16.21-4.32.43-6.47s.57-4.31.91-6.46c.3-1.88.65-3.76,1-5.63.49-2.79,1-5.58,1.47-8.37.31-1.64.72-3.26,1.08-4.89.18-.81.81-1.6,1.27-1.64-1.91,12.17-4.55,24.25-5.45,36.6.5-.79.68-1.74,1.2-2.42,1.44-1.85,1.41-4.2,2.25-6.26.78-1.9.81-4.1,1.16-6.18s.62-4.34,1.08-6.48.81-4.16,1.42-6.2c.78-2.62,1.4-5.29,2.08-7.93l1.19-4.58-.18-.2c-1.54.75-3.14,1.42-4.62,2.27a49.28,49.28,0,0,0-4.44,3,12.68,12.68,0,0,0-1.44,1.59c-.85.89-2,1.61-2.51,2.66s-1.5,1.63-2,2.75c-.7,1.55-1.22,3.14-1.81,4.72a4,4,0,0,0-.12,1.85c.09.67.38,1.28-.18,1.93-.22.25-.14.78-.13,1.19,0,1,.18,2,.12,3-.21,3.1-.48,6.2-.76,9.29-.05.55-.54,1.22-.35,1.6.69,1.4-.29,2.65-.14,4a50.77,50.77,0,0,1,.1,6.26,32.78,32.78,0,0,1-.21,3.34,23.58,23.58,0,0,0-.44,2.4c0,2,.1,4.09.19,6.13,0,.84.18,1.68.27,2.53l.24,0c.31-.84.68-1.67.92-2.53a12.94,12.94,0,0,1,1-2.88,8.28,8.28,0,0,0,1-3.19c.2-2.58.16-5.18.26-7.76.07-1.73.16-3.46.32-5.18.29-3.22.64-6.43,1-9.64.12-1.2.17-2.41.27-3.62.16-1.86.33-3.72.49-5.58a7.84,7.84,0,0,0-.1-2.21,7.25,7.25,0,0,1,.4-2.68c0-.23.3-.41.46-.62.17.17.44.31.49.51a3.87,3.87,0,0,1,.07,1.14c-.06,1.11-.15,2.22-.21,3.33-.08,1.49-.12,3-.24,4.47-.17,2.18-.41,4.35-.61,6.53-.14,1.53-.26,3.06-.44,4.58-.26,2.29-.58,4.58-.83,6.87-.17,1.55-.27,3.12-.4,4.68Zm112.6-52.1a1.55,1.55,0,0,1-1,1.76c-.29.13-.67.26-.8.51-.57,1.06-1.07,2.15-1.6,3.24s-1,2.27-1.65,3.35c-.46.81-1.1,1.51-1.63,2.28-.7,1-1.3,2.13-2.08,3.1-1.3,1.61-2.7,3.14-4,4.72-.35.41-.56.93-.92,1.32-1.19,1.3-2.46,2.54-3.63,3.87-1.53,1.74-3,3.51-4.46,5.33a37.25,37.25,0,0,0-2,3.15,1.66,1.66,0,0,1-.27-.5,4.47,4.47,0,0,1,.59-3.1,20,20,0,0,1,4-5.75,4.52,4.52,0,0,0,.67-1.15l-.25-.13c-.49.54-.95,1.11-1.46,1.61-.91.9-1.83,1.79-2.79,2.63-1.26,1.1-2.44,2.41-4.11,2.84a6.41,6.41,0,0,0-2.91,1.68c-.41.39-.73.89-1.14,1.28s-1.14,1-1.71,1.49a1.67,1.67,0,0,0,1,.05c1.69-.53,3.37-1.13,5.08-1.61.64-.18,1.17-.1,1.48.83.38,1.12-.32,1.61-.83,2.21a2.08,2.08,0,0,0-.56,2.3c.14.35.46.69.44,1-.11,1.58,1.29,1.57,2.26,2.42-.15-.52-.33-.8-.26-1,.58-1.49.82-3.14,2-4.35a16.22,16.22,0,0,0,1.32-1.68c1-1.37,1.89-2.95,3.68-3.55.09,0,.22-.11.22-.17,0-.81.74-1,1.22-1.38,1.7-1.28,3.48-2.44,5.17-3.73,1.09-.83,2.42-1.25,3.34-2.41.74-.92,1.29-2.08,2.61-2.51s1.64-2,2.6-2.89c.17-.16.16-.53.23-.8a20.42,20.42,0,0,1,.57-2c.53-1.37,1.24-2.67,1.67-4.07a11.77,11.77,0,0,0,.67-3.79c-.07-2.2-.2-2.19.35-4,1.68.69,2,2.41,2.89,3.8-.08-.59-.48-1.12-.49-1.65a5.07,5.07,0,0,1,.57-1.66c.24,0,.22,0,.18-.07-1.43-.8-.28-2.43-1.1-3.43,0,0,0-.18.06-.27a1.6,1.6,0,0,0-.84-1.84C167,234.42,166.1,235.37,164.18,234.76Zm6.14-2.06,2.75,3.44c.5.61,1.23,1.14,1.45,1.84a5.56,5.56,0,0,0,1.54,2.33c.69.68,1.34,1.41,2,2.16a13.51,13.51,0,0,0,1.16,1.58c1.66,1.45,3.39,2.82,5.07,4.25.27.23.67.74.58.9-.16.32-.62.48-.93.68.63.49,1.38,1.05,2.1,1.64a37.57,37.57,0,0,1,2.85,2.46c.47.48,1.47.71,1.12,1.77-.87.46-1.56-.06-2.27-.46s-1.14-.67-1.71-1l-.17.27.88.7c1.7,1.39,3.4,2.78,5.07,4.2.19.16.19.53.28.8-.35.1-.74.34-1.06.27a5.16,5.16,0,0,1-1.25-.65,9.89,9.89,0,0,0,1.62,1.45c1.31,1,2.65,2,3.94,3,1.06.84,2.07,1.74,3.12,2.61a1.28,1.28,0,0,1,.25,1.83c-1.07-.38-1.4-.8-1.27-1.36h-2.25c0,.15.18.2.35.32,1,.74,2,1.46,3,2.24q2,1.57,3.84,3.22c.32.28,1,.58.43,1.15s-.86.2-1.3-.09-1.15-.67-1.72-1a.76.76,0,0,0,.31.56,32.6,32.6,0,0,1,5.86,4.86,4.42,4.42,0,0,1,.56,1.16l-.31.29c-2.89-.75-5.16-2.77-7.82-4l9.63,8.09a4.44,4.44,0,0,0,.26-1.15,5.11,5.11,0,0,0-.34-2.37,4.12,4.12,0,0,1-.41-4.39c.75-1.41,1.54-2.81,2.35-4.28a2.17,2.17,0,0,0-.58-.33c-1.08-.31-2.17-.56-3.25-.87-.21-.06-.37-.31-.55-.47l.16-.37,4.75,1c-1.36-.84-2.78-1.53-4.19-2.23-1.69-.84-3.43-1.61-5.07-2.55s-3.1-2-4.59-3c-.28-.2-.31-.75-.45-1.14.35-.07.77-.29,1-.18,2,.8,4.06,1.67,6.1,2.5.43.17.88.29,1.32.43l.2-.29-.43-.17c-1.2-.45-2.44-.81-3.59-1.37-2-1-3.94-2.06-5.88-3.15-1.18-.67-2.32-1.42-3.47-2.15a1.23,1.23,0,0,1-.65-1.54c.26-.59.82-.48,1.39-.29,1.89.64,3.8,1.21,5.71,1.8.51.16,1,.3,1.52.47.8.28,1.6.59,2.59,1-.14-.43-.14-.61-.22-.66-.85-.51-1.69-1-2.56-1.49-1.75-.91-3.55-1.73-5.28-2.69s-3.13-1.9-4.68-2.87c-1-.6-1.93-1.19-2.82-1.88a1.15,1.15,0,0,1-.18-1.05,1,1,0,0,1,.9-.34c1,.32,2,.76,3,1.15l4.44,1.75c.14.06.29.09.44.14a2.08,2.08,0,0,0-.93-.79c-1.34-.62-2.7-1.19-4-1.84-1.79-.89-3.56-1.84-5.34-2.75-1.28-.66-2.59-1.28-3.84-2-.26-.15-.3-.66-.44-1,.43-.12.92-.43,1.28-.33a25.47,25.47,0,0,1,2.76,1.14c.71.31,1.42.63,2.14.93l4.6,1.91c-.25-.3-.32-.45-.43-.51-1.05-.63-2.11-1.27-3.18-1.86-.51-.28-1.1-.45-1.62-.72-1.25-.66-2.47-1.38-3.72-2s-2.39-1.17-3.58-1.78a1.06,1.06,0,0,1-.56-1.58c.36-.55,1-.39,1.59-.11,1,.51,2.05,1,3.08,1.47a1.41,1.41,0,0,0-.69-.8c-.63-.33-1.31-.57-1.93-.92-1.2-.68-2.39-1.38-3.55-2.13-.51-.33-1-.78-.57-1.49.31-.53.25-1-.28-1.29a1,1,0,0,0-1.38.38,1.78,1.78,0,0,1-2.74.46,8.49,8.49,0,0,1-1-1.16Zm-82.5-1.23c-1.87-1.39-3.62-2.71-5.39-4a2.7,2.7,0,0,0-.93-.44c-1.58-.39-3.17-.71-4.74-1.12-1.74-.45-3.46-.93-5.18-1.45a9.13,9.13,0,0,1-1.36-.62c-8.64-2.33-16.72-5.61-25.16-8A21.83,21.83,0,0,0,46.39,218c1.09,1.29,1.81,2.85,3.18,4s2.44,2.53,3.79,3.65a7.34,7.34,0,0,0,2.86,1.5c2.17.52,4.4.81,6.61,1.17,1.5.24,3,.44,4.5.66l6.84,1c1.19.17,2.37.36,3.57.5,1.8.21,3.6.4,5.41.59C84.68,231.19,86.22,231.32,87.82,231.47ZM45.07,213.4l.13-.37,31.49,10,.14-.25a2,2,0,0,0-.29-.63,13.82,13.82,0,0,0-1.9-1.68c-1-.68-1.83-1.71-3.18-1.95a21.67,21.67,0,0,1-3.7-1c-2.15-.79-4.27-1.68-6.4-2.54-1.61-.65-3.23-1.29-4.83-2q-3-1.26-6-2.55c-2.11-.91-4.22-1.83-6.32-2.75l-4.43-1.94c.64,1.45,1.13,2.78,1.79,4,.95,1.77,2,3.48,3,5.21.13.22.34.51.56.56,2.13.45,4.3.74,6.41,1.29,3,.79,6,1.75,8.94,2.64a3.77,3.77,0,0,0,.35.14,1.91,1.91,0,0,0,.47-.08C55.79,217.36,50.21,215.93,45.07,213.4Zm209.72,43.26-7.37-12.5.24-.08.59-1.11c-1.3.29-1.74,0-2-1.21,0-.1,0-.22,0-.3-.42-.66-.9-1.29-1.26-2-1-2-2-4-3.05-6-.79-1.53-1.68-3-2.45-4.56-.94-1.87-1.79-3.78-2.68-5.67-1-2.11-2.09-4.19-3-6.34-.79-1.85-1.4-3.78-2.11-5.76h-2.59c.32.8.58,1.44.83,2.08,1,2.54,1.93,5.1,3,7.6s2.22,4.76,3.34,7.14c.77,1.64,1.51,3.29,2.29,4.92q1.38,2.87,2.82,5.7c.53,1,1.1,2.06,1.67,3.08,1.42,2.51,2.8,5,4.29,7.5,1.12,1.83,2.46,3.53,3.57,5.37C251.82,256,253.25,256.35,254.79,256.66Zm-209,13.73-.33-.06a6.43,6.43,0,0,0-.28,1,21.08,21.08,0,0,1-.19,2.23c-.5,2.21-1,4.42-1.66,6.59-.29,1-.3,2.1-1,2.95a3.13,3.13,0,0,0-.41,1c-.5,1.3-.93,2.64-1.5,3.91a25.19,25.19,0,0,1-2.08,4,59.88,59.88,0,0,1-4.48,5.77c-.73.82-1.68,1.43-2.41,2.33a31,31,0,0,1-4.76,4.62c-1.53,1.22-3,2.52-4.46,3.79a9.14,9.14,0,0,1-.81.74c-.88.59-1.8,1.12-2.67,1.71a5.29,5.29,0,0,0-.75.75l.18.23c.61-.32,1.23-.6,1.81-1,.89-.54,1.72-1.17,2.61-1.7,1.61-1,3.26-1.85,4.87-2.81.73-.44,1.4-1,2.09-1.47,1.18-.86,2.43-1.65,3.52-2.62,2-1.75,3.9-3.57,5.78-5.43a17.87,17.87,0,0,0,2.09-2.68c.71-1,1.28-2.2,2-3.25.89-1.3,2.07-2.37,2-4.21,0-2.09.28-4.2.34-6.3,0-1.14-.21-2.29-.17-3.43.06-1.65.26-3.29.41-4.93C45.57,271.57,45.69,271,45.77,270.38Zm-18.5-92.21a5.48,5.48,0,0,0,.15.65c.55,1.54,1.22,3,1.62,4.62a2.9,2.9,0,0,0,1.78,2.16c.56.24,1.16.4,1.71.66,2.22,1.09,4.43,2.2,6.64,3.31,1.68.84,3.37,1.66,5,2.53,1.91,1,3.79,2,5.7,3s4,2,5.95,3.1c.25.13.37.51.57.8l.62-.3c-1.7-1.88-3.39-3.74-5.05-5.62-.4-.45-.7-1-1.08-1.47a4.89,4.89,0,0,0-1.27-1.39,20.56,20.56,0,0,0-2.19-.57,30.16,30.16,0,0,1-3.32-1.49c-.86-.45-1.62-1.08-2.46-1.56-1.77-1-3.57-2-5.34-3-.84-.48-1.63-1.07-2.46-1.57C31.72,180.81,29.55,179.53,27.27,178.17Zm34.56,27.58.16-.24a6.28,6.28,0,0,0-.66-.69c-1.86-1.43-3.71-2.87-5.6-4.24a27.78,27.78,0,0,0-2.81-1.73c-1.24-.69-2.59-1.22-3.76-2-2.82-1.94-6.15-2.94-9-4.92a45.38,45.38,0,0,0-4.51-2.42c-1.58-.87-3.13-1.78-4.7-2.66-.14-.08-.34,0-.63,0a5.71,5.71,0,0,0,.21.9c.51,1.21,1.11,2.4,1.56,3.63a3.44,3.44,0,0,0,2,2.1c2.25,1,4.46,2,6.7,3,2,.88,4,1.71,6,2.56,1.52.66,3,1.3,4.57,2s3.18,1.41,4.76,2.13c1.06.49,2.11,1,3.17,1.51C60.13,205,61,205.37,61.83,205.75Zm195.83-65.34c-.25.36-.36.51-.45.67a30.93,30.93,0,0,1-1.58,3.06,49.32,49.32,0,0,1-3.18,4.27,61.57,61.57,0,0,1-4.9,5.5c-2.45,2.31-5.11,4.4-7.67,6.59-.25.21-.59.47-.63.74-.27,1.84-.47,3.69-.67,5.41a2.83,2.83,0,0,0,1-.4c1.13-1.08,2.19-2.24,3.31-3.33s2.21-2.07,3.3-3.12,2.39-2.32,3.56-3.5,2.16-2.24,3.24-3.36c.89-.93,1.79-1.84,2.64-2.8a2.73,2.73,0,0,0,.53-1c.24-.83.52-1.63,1.44-1.85.58-.14.7-.43.69-.94,0-1.16.07-2.33,0-3.48A14.81,14.81,0,0,0,257.67,140.41Zm-188.06,76c-1-1.3-1.88-2.6-2.88-3.83a2.86,2.86,0,0,0-1.34-1c-1.14-.32-2.36-.33-3.47-.71-1.78-.6-3.5-1.39-5.24-2.12q-2.32-1-4.62-2l-6.54-2.88c-1.8-.79-3.61-1.54-5.39-2.38-1.26-.59-2.46-1.31-3.69-2a7,7,0,0,0,.71,1.67c.26.49.46,1,.75,1.49.51.85.75,1.9,1.87,2.31,2.58,1,5.13,2,7.69,2.95,3.09,1.19,6.17,2.41,9.27,3.57,1.72.64,3.49,1.15,5.21,1.8s3.47,1.45,5.21,2.16C68,215.84,68.79,216.1,69.6,216.38ZM57.66,228.59l-.12.13c2.8,1.28,5.53,2.73,8.41,3.78A47.41,47.41,0,0,0,72.57,234c.61.13,1.24.2,1.86.27l5.75.6a29.39,29.39,0,0,0,4.62.39,16.79,16.79,0,0,1,2.61,0c1.46.14,2.93.08,4.39.26.79.09,1.32.06,1.49-.79-1.12-.61-2.23-1.23-3.36-1.83a1.61,1.61,0,0,0-.63-.18l-6.53-.44c-1-.07-2-.14-2.94-.25-2.17-.25-4.33-.53-6.5-.81-1.45-.19-2.9-.38-4.34-.62-1-.17-2.07-.46-3.12-.65C63.14,229.5,60.4,229.05,57.66,228.59Zm161.87-15.14c1.15,3.38,2.18,6.82,3.49,10.16s2.87,6.49,4.33,9.73l.26-.11c-.07-.37-.16-.73-.22-1.1a32.92,32.92,0,0,0-.53-3.33c-.44-1.65-1.2-3.22-1.49-4.89-.19-1.1-1.39-2.47.2-3.33-.16-.37-.45-.72-.39-1a.86.86,0,0,0-.39-1.12,2.28,2.28,0,0,1-.47-2.2c-.74-.65-1.5-3.67-1-4.45-2.25-1.08-4.62-.74-7-1a3.57,3.57,0,0,0,0,.65q.54,2.19,1.1,4.37c.59,2.28,1.16,4.56,1.78,6.83.49,1.8,1,3.6,1.6,5.36.39,1.15,1,2.23,1.46,3.35.19-.18.24-.32.22-.43-.51-2.37-1-4.75-1.55-7.11-.38-1.64-.54-3.36-1.61-4.78-.11-.15-.16-.53-.08-.6.7-.6-.09-.65-.35-.95l.38-.4-1.23-.7,1.27-.53c-1.58-.56-1.63-.68-1.11-2.62l1,2.17C219.35,213.56,219.35,213.56,219.54,213.45ZM44.9,183.38c-1-1.79-1.94-3.46-2.93-5.09a4,4,0,0,0-1.11-1.12c-.68-.48-1.46-.83-2.14-1.32-1.49-1.09-2.95-2.23-4.41-3.35l-4.85-3.71c-.69-.52-1.39-1-2-1.51-.79.64-.61,1.89-1.83,2a12.27,12.27,0,0,1,.62-1.8c.1-.26.21-.67.08-.82-.28-.34-.79-.84-1.05-.76-.78.24-.76-.2-.87-.68,0-.18-.24-.31-.36-.47-.06.17-.21.37-.18.52.35,1.46.7,2.92,1.12,4.37a3.7,3.7,0,0,0,.84,1.74,23.54,23.54,0,0,0,2.71,1.74c1.88,1.21,3.73,2.47,5.61,3.66,2.31,1.46,4.64,2.89,7,4.32C42.31,181.84,43.56,182.57,44.9,183.38Zm211.61-48.51-.21,0a7.26,7.26,0,0,1-.56,1.5c-.73,1.13-1.53,2.2-2.32,3.29-.15.21-.42.35-.51.57-.79,1.92-2.42,3.2-3.65,4.78-1,1.34-2.29,2.51-3.44,3.77s-2.25,2.59-3.46,3.79a1.54,1.54,0,0,1-2.46,0l-.28,6.17a6.49,6.49,0,0,0,.66-.43c1.23-1.1,2.47-2.19,3.67-3.32,1.77-1.67,3.62-3.27,5.23-5.08a69.34,69.34,0,0,0,4.31-5.66c1.05-1.46,2.07-3,3-4.51a4.88,4.88,0,0,0,.73-2.36A9.59,9.59,0,0,0,256.51,134.87Zm-16.67,11.93c0,1.66,0,3.23,0,4.8a1.86,1.86,0,0,0,.26.62,3.68,3.68,0,0,0,.55-.41q1.26-1.36,2.49-2.74a41.2,41.2,0,0,0,3.4-3.89c1.77-2.57,4.18-4.59,5.95-7.19a24.51,24.51,0,0,0,2.81-4.63c.65-1.63-.18-2.75-.78-4.12-1.3,1.93-2.47,3.74-3.71,5.5-1.65,2.33-3.3,4.66-5.07,6.89-1.36,1.72-3,3.26-4.36,5C240.91,147.19,240.51,147.33,239.85,146.79Zm18.63,7.6h-.28a12.1,12.1,0,0,1-1.07,2.78,40.65,40.65,0,0,1-3.51,4.27c-1.2,1.3-2.5,2.51-3.81,3.69-1.82,1.65-3.64,3.3-5.57,4.83-2.2,1.73-4.51,3.32-6.77,5-.32.23-.8.4-.92.71-.54,1.38-1,2.8-1.46,4.21a7.18,7.18,0,0,0,2.14-1.17c.52-.41.93-.95,1.45-1.37,2.56-2.1,5.16-4.17,7.71-6.28a18,18,0,0,1,2.49-2.25c2.28-1.23,3.87-3.24,5.83-4.82,1.09-.88,1.94-2,3-2.93.8-.65.72-1.46.77-2.27.05-1,0-1.93,0-2.9C258.5,155.38,258.49,154.89,258.47,154.4Zm-60.47,81-.38.27c.52.89,1,1.8,1.57,2.65a63.16,63.16,0,0,0,3.74,5.18c1.53,1.81,3.26,3.45,4.94,5.12,1.07,1.06,2.21,2,3.31,3.07l4.7,4.4.33-.27c-.36-.66-.76-1.3-1.07-2-.61-1.33-1.1-2.71-1.77-4-.44-.85-.24-2-1.36-2.56a9,9,0,0,1-1.92-1.72c-.66-.65-1.33-1.3-1.92-2s-1.46-1.14-2-1.78a8.15,8.15,0,0,0-2.49-2.18c-1.49-.68-2.29-2.41-4.07-2.65,0,0,0,0-.07-.07ZM210.42,209l-.13.25-1.46-.63.42.86a9.62,9.62,0,0,1,1.77,0c1,.2,1.71.21,2.34-.84a10.54,10.54,0,0,1,2.36-2c-2.75-.81-5.28-1.6-7-3.51-.27,0-.52.08-.64,0-.55-.4-1.05-.87-1.58-1.29-1.91-1.51-3.84-3-5.72-4.52-1.53-1.25-3-2.58-4.41-3.81l-1.73,2.39a9.35,9.35,0,0,0,1.21,1.37,59.21,59.21,0,0,0,5.26,3.89c1.25.77,2.21,1.85,3.44,2.64a31,31,0,0,0,5.94,3.28,8.27,8.27,0,0,1,1.2.68l-.09.23-4.07-.89Zm39.24-28.14-.08,0,.95-.58,0,.23c.35-.07.71-.12,1.06-.22.13,0,.22-.25.35-.28a20,20,0,0,0,2.4-.58c1-.4,2-1.08,3-1.42s2.08-.9,3.28-.09c.43-2.19.88-4.31,1.26-6.44s-.71-4.2-1.22-6.3a12.87,12.87,0,0,0-1.87,2.58c-1.11,2.23-2.07,4.53-3.2,6.75a25.64,25.64,0,0,1-2.18,3.44,5.78,5.78,0,0,1-1.36,1l-.15-.2.45-.63ZM233.37,95l-.18-.12a4.83,4.83,0,0,1-.29.78s-.42,0-.46-.11-.19-.54-.09-.69a8.71,8.71,0,0,1,1.15-1.39c1.36-1.33,2.76-2.61,4.13-3.93.65-.63,1.21-1.36,1.9-1.95a3.06,3.06,0,0,0,1-3.77l-4.87,5.54-.24-.21.26-.66c-1.84,1.39-3.57,2.82-5.44,4.07s-3.92,2.37-5.94,3.58l4.3,3.77c.68-1.85,1.31-3.58,2-5.3a8.48,8.48,0,0,1,3.5-4.14c-2.37,3.2-3.44,6.89-4.16,10.73,1.43-1.37,2.86-2.68,4.23-4.05.85-.85,1.72-1.75.92-3.17-.3.22-.57.46-.87.65A6.91,6.91,0,0,1,233.37,95ZM44.56,184.85c.11-.08,0,.08-.08.05-6.29-4.25-12.57-8.5-18.73-12.69a11.91,11.91,0,0,1,.54,1.89c.25,1.87.86,3.42,2.77,4.24,1,.41,1.77,1.13,2.68,1.64,1.36.76,2.76,1.45,4.14,2.17.33.18.66.38,1,.55,1.87,1,3.75,1.92,5.61,2.91s3.42,1.85,5.13,2.76a2.54,2.54,0,0,0,.73.08c-1.09-.92-2-1.68-2.92-2.48A8.32,8.32,0,0,1,44.56,184.85Zm18.59,24.83.16-.16c-.24-.18-.48-.38-.73-.55-1-.66-2.07-1.28-3.07-2a48,48,0,0,0-9.28-4.77c-1.77-.75-3.54-1.5-5.29-2.31s-3.23-1.59-4.85-2.39c-1.29-.64-2.59-1.27-3.88-1.93-.84-.43-1.66-.89-2.65-1.42a16.07,16.07,0,0,0,.87,2,4.63,4.63,0,0,0,2.25,2.31c1.83.68,3.6,1.51,5.4,2.27l8.42,3.57,7.21,3.05Zm11.34,28.64.36.16-2.31,10,.17,0,4.47-11.9c-1.3-.23-2.76-.49-4.22-.73-.52-.09-1.1-.25-1.37.45A2.78,2.78,0,0,1,71.8,239c-.48,1.63-1,3.23-1.51,4.86s-.86,3.25-1.34,4.86-1.13,3.38-1.62,5.09c-.41,1.41-.72,2.84-1,4.27s-.57,2.8-.9,4.42c.26-.24.39-.31.43-.41.73-1.92,1.47-3.83,2.16-5.76s1.41-4.11,2.12-6.17c.36-1,.76-2.07,1.05-3.13a7.22,7.22,0,0,1,1.75-3.58.49.49,0,0,0,.12-.4C72.57,241.16,73.88,239.86,74.49,238.32ZM237.14,173c1.69-1.42,3.33-2.74,4.9-4.13,1.86-1.65,3.66-3.36,5.5-5,1.11-1,2.27-2,3.38-3,.88-.82,1.72-1.68,2.56-2.54s1.84-1.85,2.7-2.83,1.06-2.24,2.28-2.83a.59.59,0,0,0,.26-.48c-.07-.78-.19-1.55-.3-2.44-.2.23-.37.4-.51.59-.88,1.2-1.73,2.42-2.65,3.59a27.59,27.59,0,0,1-1.88,2.11c-.82.86-1.69,1.68-2.52,2.53s-1.89,2.07-2.93,3c-1.52,1.36-3.11,2.66-4.72,3.93s-3.4,2.59-5.1,3.88c-.12.09-.32.17-.34.29C237.54,170.71,237.35,171.8,237.14,173Zm-44.5,27.78a18.13,18.13,0,0,0,2,2c2.17,1.58,4.37,3.13,6.61,4.59a14.49,14.49,0,0,0,3.13,1.51,17.84,17.84,0,0,0,2.83.52c0-1,.12-2.09-1.17-2.52-.13,0-.17-.29-.29-.4-.35-.32-.91-.94-1-.87-.66.42-.88-.18-1.22-.42-2.25-1.65-4.48-3.33-6.74-5-.9-.65-1.89-1.18-2.79-1.83-.47-.34-.89-.11-1,.19-.22.7-.81,1-1.26,1.44a1.89,1.89,0,0,0-.28.54C191.79,200.87,192,201.59,192.64,200.74Zm25.81,4.54a67.1,67.1,0,0,1-20.93-15.87l-.79,2.79c1.38,1.13,2.93,2.43,4.53,3.68s3.08,2.31,4.6,3.49c1.68,1.3,3.29,2.7,5,3.93,1.27.9,2.86,1.42,4,2.44s1.71.68,2.58,0A4.79,4.79,0,0,1,218.45,205.28ZM71,235.64a4.65,4.65,0,0,0-1.25.08c-.55.2-1.35.41-1.52.83A27.3,27.3,0,0,0,67,240.68c-.5,2.15-.9,4.32-1.37,6.47-.34,1.56-.85,3.1-1.06,4.68-.25,1.88-1,3.62-1.16,5.55a33.46,33.46,0,0,1-1.15,4.54c-.25,1.16-.31,2.36-.49,3.84a7.77,7.77,0,0,0,.59-1c.54-1.56,1.12-3.1,1.55-4.69.48-1.78.8-3.61,1.23-5.41.31-1.3.64-2.61,1.06-3.88s1.08-2.79,1.54-4.21c.75-2.32,1.41-4.66,2.14-7a5.05,5.05,0,0,1,.75-1.68A1.76,1.76,0,0,0,71,235.64ZM239.76,104.17c-1.39,1.27-2.69,2.56-4.11,3.7a1.87,1.87,0,0,0-.88,1.69c.1,1.29-.64,2.59.18,3.9a28.61,28.61,0,0,1,1.54,3.2l5.59-6.94-.9.22-.16-.2,1.37-1.49-.84-1.25c-2,1.92-3.71,4.07-6.19,5.29,1.41-1.82,2.86-3.61,4.37-5.33C240.8,105.73,240.82,105.17,239.76,104.17ZM258,163c-1,1-1.88,1.95-2.8,2.86-.54.54-1.11,1-1.66,1.57-1.44,1.36-2.84,2.77-4.32,4.08-1.14,1-2.38,1.9-3.57,2.84-1.67,1.32-3.32,2.69-5,4-1.11.82-2.42,1.39-3.47,2.27s-3,1.23-3.33,3c-.1.48-.24.95-.34,1.36.55-.43,1.09-.93,1.7-1.32,1.38-.89,2.85-1.66,4.19-2.61,2.1-1.49,4.14-3.07,6.16-4.66,1.59-1.25,3.12-2.59,4.68-3.89.5-.42,1-.8,1.52-1.25,1.21-1.17,2.3-2.5,3.62-3.54A6,6,0,0,0,258,163Zm-2.31,73c.7,1.09,1.35,2.06,1.95,3.05.93,1.54,1.79,3.12,2.75,4.64s2,3,3,4.48c.55.84,1,1.78,1.55,2.58,1.76,2.39,3.6,4.73,5.38,7.11.74,1,.7,1,1.81.2l-2.35-2.59.15-.16.61.26c-.25-.93-1.42-1.68-.28-2.81-1.45-.78-2.15-2.25-3.33-3.27s-2.39-2.36-3.58-3.54c-.29-.29-.72-.48-.9-.82a28.57,28.57,0,0,0-1.44-2.94C259.43,240,258.33,237.41,255.67,235.94ZM231,107l-.27-.28a3,3,0,0,1,.32-.76,11.25,11.25,0,0,1,2.24-2.57c2-1.27,1.62-3.24,2-5.11a2.05,2.05,0,0,0-.57.17c-1.36,1-2.74,2.08-4.06,3.18a2.56,2.56,0,0,0-1,1.37,10,10,0,0,0,.06,3c.13.74.74,1.38.94,2.11a5.61,5.61,0,0,0,2.89,3.3l.92-7.15c-.65.51-1.22,1-1.8,1.4ZM207.24,309.75a4.53,4.53,0,0,1-1.36-.36c-1.55-1.08-3.1-2.18-4.57-3.37-1.3-1-2.51-2.2-3.74-3.32-1-.92-2-1.87-3-2.79a1.75,1.75,0,0,0-.58-.22l-.13.2,13.37,16.28ZM39.84,174.62a3.8,3.8,0,0,0-.1-.9Q38.89,171.87,38,170a1.19,1.19,0,0,0-.42-.48c-1.43-.87-2.9-1.69-4.31-2.6s-3-2-4.62-3.16c-.22.63-.54,1.37-.73,2.15a1,1,0,0,0,.3.83,12.58,12.58,0,0,0,1.42.94c2.61,1.69,5.22,3.38,7.81,5.09C38.2,173.32,38.9,173.91,39.84,174.62Zm214.9-3.22a4,4,0,0,0-.83.43c-1.06,1-2.05,2.12-3.16,3.08-1.44,1.25-2.94,2.45-4.48,3.56-2.68,1.94-5.11,4.23-8,5.85-1.9,1.05-3.74,2.24-5.56,3.42-.78.5-1.74.94-1.64,2.23,1.25-.8,2.47-1.6,3.7-2.36,2-1.24,4-2.42,6-3.7s4.17-2.76,6.16-4.26c2.71-2,5.38-4.14,8-6.33.57-.49.73-1.47,1.08-2.22l-.28-.13-2,2.45-.17-.11ZM194.9,314.23c0,.43,0,.86,0,1.29a25,25,0,0,0,.2,2.93,5,5,0,0,0,.78,2.39c1.38,1.6,3,3,4.45,4.54,1.73,1.78,3.44,3.58,5.16,5.36,0,0,.16,0,.41,0C202.22,325.17,198.15,320,194.9,314.23ZM231,246.52c-.4-.16-.84-.19-1-.43a2.91,2.91,0,0,1-.6-1.36c-.1-.84-.54-1.13-1.31-1.19a9.6,9.6,0,0,1-1.37-.32,1.29,1.29,0,0,0,0,.43c1.06,1.84,2,3.74,3.22,5.5s2.07,4.12,4.31,5.26a14.29,14.29,0,0,1,2.38,2,3.18,3.18,0,0,0,.69.34l.16-.22-2.62-3.67c-.19-.26-.4-.5-.58-.77-.65-1-1.31-1.92-1.92-2.91a9,9,0,0,1-.62-1.43c-.07-.18,0-.42-.14-.57A5.82,5.82,0,0,0,231,246.52Zm-38.94,40.9-.21.21L207,302.09c0-1,0-1.95,0-2.93a1.18,1.18,0,0,0-.49-.74c-.56-.41-1.21-.7-1.76-1.12-.84-.63-1.59-1.36-2.44-2s-1.72-.93-2.51-1.51c-1.53-1.12-3-2.31-4.49-3.49-.73-.59-1.43-1.22-2.13-1.85C192.79,288.14,192.43,287.77,192.06,287.42Zm-18.69-38.95,0-.13L169.33,245c0,1.41-.41,3,.1,4.19.7,1.63.48,3.67,2.1,5,.45.36.73.73,1.2.71a4.6,4.6,0,0,1-.6-1.34c0-.24.42-.72.69-.76a6.18,6.18,0,0,1,1.66.15c.27,0,.53.12.8.19a9.11,9.11,0,0,0-1.72-1.71,25.51,25.51,0,0,1-2.23-1.94c-.16-.17,0-.81.2-1.1s.61-.21.92-.18A3.68,3.68,0,0,1,173.37,248.47Zm34.09,68.91c-.43.1-.83.33-1,.22-1.16-.79-2.31-1.63-3.4-2.52a20.42,20.42,0,0,1-1.38-1.52c-.51-.51-1.08-1-1.61-1.47-.84-.78-1.66-1.57-2.49-2.36l-.17.17,10.52,12.34Zm-129-80.53L75,249.38a135.36,135.36,0,0,1,6.26-12.19Zm117.66,49,11,9.48v-3.18c-1.2-.63-2.38-1.21-3.52-1.86-1.4-.8-2.78-1.63-4.14-2.49-1-.62-1.91-1.31-2.88-1.94C196.46,285.73,196.22,285.81,196.16,285.81Zm11.7.49a12.23,12.23,0,0,1-1.76-.63c-1.15-.63-2.27-1.33-3.38-2-1.61-1-3.21-2-4.81-3l-1.47-1,0,.1,11.19,9.73Zm-8.2-78.49,0-.14c-.49-.33-1-.68-1.49-1-1.16-.72-2.33-1.42-3.5-2.14-.89-.55-1.81-1.06-2.66-1.66-.62-.44-1.12-1-1.72-1.49a1.06,1.06,0,0,0-.85-.11c-.13,0-.21.48-.18.72a1.58,1.58,0,0,0,.37,1c1.43,1.12,2.59,2.6,4.48,3.1S197.83,207.21,199.66,207.81Zm6.76,50.36c-.82.49-1.39.06-1.92-.41-1-.86-1.61-2.06-3.12-2.36a28.61,28.61,0,0,1-4.33-1.49c-.6-.22-1.16-.55-1.73-.83,0,.24,0,.36.14.41,1.56.79,3.15,1.51,4.67,2.36s2.89,1.78,4.33,2.67a6.13,6.13,0,0,1,1.64,1.05,2.33,2.33,0,0,0,2.51.71,16.2,16.2,0,0,0,2.52-.89l-2.5-1.2C208.15,259.31,207.27,259.28,206.42,258.17ZM36.87,167.49l.3-.26a20.81,20.81,0,0,0-1.69-2.63A12.94,12.94,0,0,0,33.43,163l-3.22-2.47-1,1.9Zm184.95,57.66c0,.4,0,.71.11,1q.58,2.75,1.19,5.5a1.7,1.7,0,0,0,.3.72c.84,1,1.69,2,2.58,2.93a17.82,17.82,0,0,0,1.38,1.23c-.16-.34-.41-.87-.65-1.41a11.07,11.07,0,0,0-1.2-2.67c-.88-1.06-1-2.34-1.46-3.51-.29-.72-.7-1.4-1.05-2.1-.17-.35-.31-.7-.47-1.06l.2-.12ZM202.32,300l.3-.31-12.36-11.42a5.68,5.68,0,0,0,1.14,2.24c.75.81,1.7,1.43,2.52,2.18s1.47,1.53,2.27,2.23c1.19,1,2.44,2,3.66,3ZM78.72,246.57l.24.12c2.48-2.53,3-6.18,5.33-9l-2-.32Zm188.93,2.22a8.71,8.71,0,0,1,1.2,1,22.06,22.06,0,0,0,5.73,5,17.33,17.33,0,0,1,1.77,1.53,3,3,0,0,0,.57.3l.21-.29a34.91,34.91,0,0,0-3.23-3,9.33,9.33,0,0,1-3.74-4.66c-.09-.29-.4-.52-.72-.9l.13,1-.22.22-1.23-.82Zm-65.32-31.32.24-.06c-.07-.73-.08-1.47-.22-2.19a14.17,14.17,0,0,0-.61-2.2c-.23-.64-.57-1.25-.86-1.87a2.26,2.26,0,0,0-2.69-1.37Zm7.2-6.74c.32,2.78,1.75,5,2.93,7.32a12.65,12.65,0,0,0-.1-2c-.15-1.29-.31-2.57-.46-3.85-.07-.62.2-.88.9-.68-.11-.26-.17-.56-.26-.57C211.59,210.84,210.63,210.79,209.53,210.73ZM235.79,95.62c.25-.23.42-.36.56-.51a23.71,23.71,0,0,1,2.54-2.72A3.92,3.92,0,0,0,240.75,90a1.13,1.13,0,0,0,.06-.18c.05-.4.1-.81.18-1.45-.34.3-.46.4-.57.51l-4,4c-.44.44-1,.8-.84,1.59C235.69,94.71,235.71,95,235.79,95.62Zm-30.86,167.5a4.23,4.23,0,0,0,.4-1.05c0-.23-.14-.64-.31-.7-1.36-.48-2.76-.85-4.12-1.33-1.78-.62-3.53-1.3-5.3-2-.38-.14-.78-.26-1.17-.38l-.12.29Zm-6,36.57-.2.19,8.22,8.33c0-.76,0-1.4-.1-2-.12-1.3-1.41-1.57-2.18-2.17-1.7-1.31-3.64-2.32-5.09-4A2.09,2.09,0,0,0,198.89,299.69Zm-85.31-51.29,8.46-8.48-.07,0-9.33,7ZM88.12,237.6l-.22-.22a5.9,5.9,0,0,1-1.28.21,1,1,0,0,0-1.13.74c-.37,1-.85,2-1.22,3s-.65,2-1,2.93l.44.21Zm96.49,36.33c.06.16.08.38.2.47q6.18,4.71,12.38,9.39a1.65,1.65,0,0,0,.43.21.52.52,0,0,0,.28,0,2,2,0,0,0,.38-.24c-2.32-1.72-4.55-3.43-6.83-5.05S187.22,275.11,184.61,273.93Zm53.22-172.7c-2.36,1.69-3.23,3.62-2.73,5.93.71-.79,1.43-1.58,2.12-2.4.18-.22.43-.7.35-.77-.5-.5,0-.87.22-1C238.74,102.41,238.44,101.87,237.83,101.23ZM30.89,158.94l4,2.89.21-.27c-.81-.22-.67-1.5-1.81-1.42L33.1,159l.24.1a4.61,4.61,0,0,0,.47-1.23.93.93,0,0,0-.54-.72c-.73-.21-1.55-.48-1.83.69A4.85,4.85,0,0,1,30.89,158.94ZM193.8,208.36l3.83,6.18.25-.13a18.64,18.64,0,0,1-1.52-4C196.13,208.9,195.3,208.53,193.8,208.36ZM210,269.19l.2-.22c-.39-.74-.57-1.61-1.62-1.88-1.67-.43-3.31-1-5-1.43a1.74,1.74,0,0,0-.46,0l0,.13Zm-90-32.74.26.28c.54-.43,1.11-.84,1.62-1.3s1.05-1.06,1.57-1.59l-.11-.3-3.25-.3C121.18,234.41,120.74,235.44,119.93,236.45Zm96.42-18,.15-.06-1.22-7h-1.41Zm21.71-121a8.65,8.65,0,0,0-1.56-.28c-.48,0-.93.17-.77.86a4,4,0,0,1,0,.9c0,.69,0,1.39,0,2.08l.28,0ZM206.57,217.91c0-.4.07-.51,0-.58-.92-2.14-1.83-4.27-2.77-6.4,0-.11-.31-.13-.47-.19,0,.16-.17.35-.13.49.08.29.27.55.36.84A19.05,19.05,0,0,0,206.57,217.91Zm-.71-6.67,2.33,4.45a17.86,17.86,0,0,0-.35-3.9c0-.26-.47-.55-.77-.62A4.09,4.09,0,0,0,205.86,211.24ZM24,159a16.41,16.41,0,0,1,.54-1.69c.56-1.27.5-1.42-.9-1.8C22.37,157.6,22.26,158.22,24,159ZM197.27,336l-.27,0,.53,3.75,2.12.09ZM24.33,164.33c1-1.72,1.1-3,.28-3.48-.45.51-.93,1-1.33,1.5S23.38,163.7,24.33,164.33Zm172,163.21-.17,0c.08.89.14,1.79.24,2.67,0,.14.24.27.38.39a12.26,12.26,0,0,1,1.08.91c.62.66,1.19,1.37,1.78,2.06l.09-.1Zm-135.21-124c-2.49-4.26-2.28-3.36-4.31-3.09Zm157.78,6,.12.28,3.45.27-.25-1.88a10,10,0,0,0-1.78.38A9.6,9.6,0,0,0,218.94,209.52Zm21.15-117-.18-.06-2.78,3.92.2.29c.45-.17,1.09-.22,1.32-.54a12.43,12.43,0,0,0,1.22-2.4A5.43,5.43,0,0,0,240.09,92.51Zm4.52,92.38.2.31c1.62-1,3.47-1.67,4.4-3.55l-.18-.24Zm-28.86,37.59c.64,1.68.34,3.68,1.65,5.22C217.74,225.65,216.67,224.09,215.75,222.48Zm-124,14.6c-.82.48-1.87-.36-2.16.94-.17.76-.43,1.51-.65,2.26l.3.13ZM231,240.78c1.23,2.41,1.23,2.41,2.55,2.74C233.64,242.08,233.38,241.79,231,240.78Zm-44.21,19-.26.33,5.18,3.46.24-.36Zm-161.26-95,1.07-2.54-.92-.57C24.79,164.33,24.78,164.52,25.55,164.86Zm.91.9c1-1.23,1.22-2.64.56-3.11l-1.16,2.45ZM24.41,154l1.33,1c0-.92,1-1.79-.31-2.61Zm4.18,3.08c1.08-1.6,1.08-1.6-.13-2C27.48,156.44,27.61,156.9,28.59,157.07Zm-1.68-7.63-1.11,1.83c.53.07,1,.3,1.22.14C27.76,150.78,27.71,150.26,26.91,149.44Zm2.3,3.68,1,.82.69-1.56-1.16-.78ZM193.93,302.37l-.29.27,3.48,3.81.19-.18Zm-21.37-58.43.07-.08-2.37-1.8-1.13.72ZM26.81,147.35l.38.18a14.28,14.28,0,0,1,.75-1.26c.29-.4.66-.75,1.17-1.31-.52,0-1-.16-1.11,0C27.55,145.69,27.2,146.53,26.81,147.35Zm1.33,14.52c.87-2.29.87-2.29.43-2.55l-1,2Zm162.46,45-.23.23a3.85,3.85,0,0,1,1.64,2.35l.39-1.62Zm8.61,83.83.13-.1-2.45-2.38-.57.2Zm61.6-50.78-.24.2,2.36,2.76.27-.24C262.33,241.82,262.06,240.45,260.82,239.92Zm12.66,18.33.31-.23-2.56-3.45-.28.21Zm-88.77-43.94L186.8,216C186.45,215,186.21,213.88,184.71,214.32Zm85.93,33.38c-.15-.82-1.13-1.56,0-2.22l-1.79.2ZM160.23,227.79l1.12,1.52v-1.76a1.51,1.51,0,0,0-.31,0ZM27.32,156c.77-1.21.78-1.29.16-1.87C26.55,155.39,26.54,155.53,27.32,156Zm.69-3.48c1,.27,1.05-.45,1.27-.88.09-.17-.17-.52-.27-.78l-.28.08Zm2.65,3.65-.18-.21c-.29.25-.7.44-.85.76s-.58.95.28,1.23ZM194.5,308.39c-.39,1,.15,1.75,1.62,2.19Zm-65.8-77.74-1.09,2.46C128.59,232.57,129.17,231.87,128.7,230.66ZM276.5,258.9l.32-.3-2.05-2c-.12.29-.27.52-.23.56C275.18,257.76,275.85,258.33,276.5,258.9ZM65,220.62l-.12.26,3,1,.11-.34Zm6.62,32.57-.46-.08-.73,2.59.3.07Zm221.49-16,2.38-.47C294.09,236.35,293.27,236.56,293.1,237.16Zm-40-23.89a2.68,2.68,0,0,0,2.87.65ZM94.21,235.06c.46,1.22.72,1.28,1.69.45ZM295,237.32a2,2,0,0,0,2.81.28Zm-42.15-25.45-2-.14c.12.39.14.78.28.83a1.26,1.26,0,0,0,.75-.17C252.12,212.28,252.37,212.12,252.83,211.87Z"/><path d="M46.66,252.59c-1.38.68-1.89,2.14-2.85,3.19a31.63,31.63,0,0,0-2.39,3.16,5.94,5.94,0,0,0-.56,1.19,15.62,15.62,0,0,1-4.2,5.83,6.12,6.12,0,0,1-3,1.28,20.35,20.35,0,0,0-6.21,2.19,35.69,35.69,0,0,0-4,3l.14.27a8.79,8.79,0,0,1,4.65-1.21,6.23,6.23,0,0,0,4.57-.82,19.62,19.62,0,0,1,2-.95A27.49,27.49,0,0,0,39,267.33c1.16-.92,2.48-1.76,3.06-3.32a9.44,9.44,0,0,1,1.64-2.51c.18-.23.73-.17,1.11-.24,0,.28.16.59.07.83a29.7,29.7,0,0,1-1.32,3.18,15.59,15.59,0,0,1-5.33,5.56,17,17,0,0,1-3.1,2c-1.85.74-3.48,2.18-5.74,1.79a15.57,15.57,0,0,0-3.19.08c-.06,0-.15,0-.19,0-1.52,1.48-3.75,1.44-5.46,2.5-.11.07-.3.12-.31.2-.21,1.05-1.38,1-1.91,1.75-.7.94-1.43,1.86-2.11,2.81s-1.29,2-2,2.9a1.64,1.64,0,0,1-1.13.32c-.26-.5-.63-1.19-.46-1.61a24.75,24.75,0,0,1,1.8-3.27c.7-1.17,1.41-2.34,2.16-3.47a23.6,23.6,0,0,1,2.16-3,30.55,30.55,0,0,1,3.72-3.53,40.77,40.77,0,0,1,5.1-3.42,11.32,11.32,0,0,1,3.87-1.38,6.36,6.36,0,0,0,5.14-3.4c.22-.41.63-.73.87-1.13.55-.92,1.05-1.87,1.57-2.8a10.38,10.38,0,0,1,1-1.87,17.13,17.13,0,0,1,2.93-2.9,20,20,0,0,1,3.54-1.6l.17.85Z"/><path d="M210.5,9.38c-.74-.54-1.5-1.05-2.22-1.62a24.19,24.19,0,0,0-8.84-4.54c-.64-.16-1.27-.38-1.92-.5a1.86,1.86,0,0,0-.72.16c-1.51-.24-3-.5-4.52-.71a15.91,15.91,0,0,0-3.17-.32c-2.4.15-4.8.45-7.19.73a38.6,38.6,0,0,0-4.31.62c-2,.46-4,.55-5.87,1.62a9.58,9.58,0,0,1-2.09.52c-.89.27-1.79.56-2.65.92A9.42,9.42,0,0,0,164.21,8a9.89,9.89,0,0,1-2.9,1.48c-3.49,1.44-6.79,3.16-9.23,6.15-.93,1.14-1.75,2.36-2.56,3.58A14.53,14.53,0,0,0,147.92,22a35.73,35.73,0,0,0-1.13,4c-.28,1.09-.56,2.19-.75,3.3s-.31,2.51-.45,3.76l-.13,1.12-.26.08a9.44,9.44,0,0,1-.64-2.26,35.05,35.05,0,0,1,.25-3.9c.12-1.47.21-2.95.41-4.41a11,11,0,0,1,1.27-4.59,19.9,19.9,0,0,1,2.8-4.19c1.3-1.26,2.57-2.56,4-3.71.81-.67,1.89-1,2.74-1.61a21.11,21.11,0,0,1,5.16-2.39,11,11,0,0,0,3.06-2A16.72,16.72,0,0,1,168,3.11c1.25-.56,2.63-.86,3.87-1.45A6.53,6.53,0,0,1,175.69,1a2.38,2.38,0,0,0,.65-.12c1.09-.18,2.17-.37,3.26-.51A19.57,19.57,0,0,1,182,.12a57.36,57.36,0,0,0,6.48-.06c2.37-.3,4.44.76,6.68,1a30.23,30.23,0,0,1,5.74,1.72c.53.17,1,.47,1.54.66a16.83,16.83,0,0,1,5.92,3.89,19.05,19.05,0,0,0,2.43,1.74Z"/><path d="M96.24,66.85a28.09,28.09,0,0,0-.93-2.75,6.61,6.61,0,0,0-1.18-1.69,44.24,44.24,0,0,0-8.21-7.17,18.38,18.38,0,0,1-2.7-1.54,9.08,9.08,0,0,0-3.43-1.62,27.22,27.22,0,0,0-3.16-.75,5,5,0,0,1-.83-.41,41.65,41.65,0,0,0-5.45-2.47,37.3,37.3,0,0,0-5.74-.86A10.61,10.61,0,0,0,63,47.46c-1.24,0-2.47.12-3.71.16-1.67.06-3.35.08-5,.14-1,0-1.94.13-2.91.17-.74,0-1.47,0-2.21,0l0-.25.85-.08,0-.16-.93-.25c1.8-1.3,3.9-1.39,6-1.6,1.69-.17,3.36-.56,5-.85a4.93,4.93,0,0,1,.94-.12c2.41.06,4.83,0,7.23.24a27.5,27.5,0,0,1,3.55.94A10.44,10.44,0,0,1,76,48.06a23.4,23.4,0,0,0,4.16,2.44c2.53,1.26,5.25,2.17,7.51,3.91a22.32,22.32,0,0,1,3.12,3c1.79,2,3.51,4.16,5.23,6.27a15.37,15.37,0,0,1,1.08,1.56,3.39,3.39,0,0,1,.25.69l-.23.11-.71-.76v1.54Z"/><path d="M213.37,26.17l3.82-.62-.93-.18a6.27,6.27,0,0,1,4.06-.16,45.87,45.87,0,0,1,9.5,4.2c3.6,2.19,7.25,4.34,10.68,6.8A63.76,63.76,0,0,1,247,42.08a37.4,37.4,0,0,1,3.19,3.51,46.77,46.77,0,0,1,4.31,5.68c1.15,2,2.67,3.66,3.69,5.69.41.81.72,1.66,1.11,2.48.31.66.74,1.28,1,2,.63,1.7,1.19,3.43,1.77,5.15.41,1.24.81,2.48,1.21,3.72.24.75.46,1.51.69,2.26l-.25.08c-.32-.76-.67-1.52-1-2.29-1-2.43-1.76-4.93-2.87-7.28s-2.51-4.59-3.83-6.86a41.15,41.15,0,0,0-2.73-4.36,65.82,65.82,0,0,0-4.8-5.68c-2.39-2.48-4.87-4.88-7.41-7.2a32.73,32.73,0,0,0-5.51-4.39c-3.49-2-6.85-4.32-10.74-5.56-1.16-.37-2.35-.63-3.54-.93-.47-.12-1-.18-1.44-.3-1.33-.34-2.65-.75-4-1a25.22,25.22,0,0,0-2.52-.31Z"/><path d="M265.62,156.25a49.65,49.65,0,0,0,2.63-5c1-2.57,1.81-5.21,2.57-7.87s1.3-5.18,1.94-7.77,1.27-5,1.83-7.57a10.5,10.5,0,0,0,.07-2.22c0-2.84,0-5.69,0-8.53,0-1.84-.15-3.68-.19-5.52,0-1.31.05-2.62,0-3.92a37.48,37.48,0,0,0-.47-4c-.18-1.08-.53-2.12-.74-3.2,0-.22.21-.5.36-.82-1.33,0-.9-1.21-1-1.84a15.49,15.49,0,0,0-2.37-6.4c-.93-1.43-1.9-2.84-2.93-4.21a4.38,4.38,0,0,1-.69-3.29c1.92.89,2.94,2.55,3.9,4.28a29.36,29.36,0,0,1,2.53,4.59,76.44,76.44,0,0,1,2,7.94,28.48,28.48,0,0,1,.58,4c.15,2.12.19,4.25.27,6.38.06,1.63.19,3.26.15,4.89-.08,3.93-.17,7.87-.4,11.8a28.79,28.79,0,0,1-.88,4.71,60.73,60.73,0,0,1-1.66,6.45c-.66,1.9-.92,3.89-1.7,5.76-.49,1.17-.57,2.52-1,3.71-.64,1.67-1.44,3.28-2.22,4.88-.38.79-.94,1.49-1.33,2.28-.28.59-.63.72-1.18.48Z"/><path d="M142.34,80.8a1.61,1.61,0,0,0,1.06-1.31c.63-2.35,1.26-4.7,2-7,.49-1.6,1.11-3.17,1.67-4.75a.83.83,0,0,0,.08-.52c-1-2.11-.94-4.42-1.3-6.65a18.76,18.76,0,0,1-.11-3.08c0-.14.29-.27.52-.48.27,2.2.45,4.22.79,6.21.24,1.35.73,2.66,1.08,4a19.65,19.65,0,0,0,1.75,3.91,43.26,43.26,0,0,0,2.08,3.9,38.12,38.12,0,0,0,2.63,3.33c.84,1,1.68,2,2.56,3s1.94,2.14,3,3.15a32.65,32.65,0,0,0,3.34,3.06,36.26,36.26,0,0,0,4,2.39c1.36.77,2.76,1.47,4.1,2.31-3.16-.21-6.18-.75-8.7-3l-1.27,4-.35-.1c.21-.79.38-1.59.65-2.35.55-1.52.36-2.16-1-3-.38-.23-.8-.4-1.05-.52-1.43-1.73-2.82-3.37-4.18-5s-2.74-3.45-4.13-5.2l-4.21,11.29-.2,0c-.05-.2-.2-.44-.14-.6.63-1.74,1.31-3.47,1.95-5.2a53.43,53.43,0,0,0,2-5.71c.17-.68-.45-1.59-.8-2.36-.87-1.89-1.79-3.76-2.7-5.64-.29.84-.65,1.81-1,2.79-.68,2.13-1.29,4.28-2,6.4-.33,1-.87,1.9-1.24,2.88-.08.2.18.53.3.8.2.45.41.89.62,1.33l-.22.12-.69-1.24-.47,1-.23-.07a3.57,3.57,0,0,0,.18-.9,6.72,6.72,0,0,0-.25-1.13Z"/><path d="M111.92,56c.79-1.26,1.54-2.55,2.38-3.77a35.14,35.14,0,0,1,2.75-3.57c1.06-1.17,2.26-2.22,3.43-3.29s2.16-1.88,3.24-2.81a16.47,16.47,0,0,1,1.86-1.53,15.71,15.71,0,0,1,2.15-1c2.08-.9,4.14-1.85,6.25-2.69a24.41,24.41,0,0,1,10.49-1.66,4.62,4.62,0,0,1,1.74.37c.29.14.63.83.52,1-.25.38-.28,1-1.13.94a17.62,17.62,0,0,0-6.86.09,33.18,33.18,0,0,0-9.28,3.47c-1.54,1-3.24,1.64-4.78,2.59a26.7,26.7,0,0,0-3.18,2.46,17.43,17.43,0,0,0-4.64,5.1c-.22.42-.4,1.3-1.3,1.12,0,0-.12.2-.2.29l-3,3.24Z"/><path d="M106.91,174.46c-.22,0-.52.09-.63,0-1.2-1.19-2.36-2.42-3.54-3.62s-2.71-2.64-4-4c-1.68-1.79-3.31-3.63-5-5.45-.91-1-1.84-2-2.73-3-.58-.66-1.13-1.35-1.64-2.06-1.07-1.48-2.11-3-3.17-4.49-.65-.92-1.34-1.82-2-2.77a21.76,21.76,0,0,1-1.22-2.22c-.81-1.65-1.65-3.29-2.36-5a32.3,32.3,0,0,1-1.24-3.76c-.33-1.18-.57-2.38-.86-3.57a7.34,7.34,0,0,0-.27-.74l-2.18,1.5-.23-.26a13.48,13.48,0,0,1,1.35-1.19,1.33,1.33,0,0,0,.74-1.6c-.45-2.08-.8-4.19-1.06-6.31a36.48,36.48,0,0,1-.07-3.77c0-.73-.09-1.46-.07-2.19.06-2,.11-3.94.24-5.9q.18-2.68.52-5.35a8.76,8.76,0,0,1,.67-1.79c-.17,2.9-.4,5.64-.46,8.37a71,71,0,0,0,.16,8.28c.27,2.77,1.07,5.48,1.37,8.25a38.34,38.34,0,0,0,1.58,6.63c.34,1.16,1.08,2.22,1.31,3.39a16.85,16.85,0,0,0,1.58,3.79c.85,1.84,1.95,3.57,3,5.33A42,42,0,0,0,91,157c1.43,1.71,2.84,3.42,4.28,5.11,1.07,1.25,2.14,2.5,3.27,3.69s2.33,2.38,3.53,3.54c1.67,1.62,3.36,3.21,5,4.81Z"/><path d="M261,253.73a11.79,11.79,0,0,1,1.63,2.09c.69,1.46,2,2.36,2.94,3.61a15,15,0,0,0,1.16,1.25l-.09.26c-.37-.11-.86-.11-1.08-.35-1.27-1.38-2.47-2.81-3.69-4.23a14.55,14.55,0,0,1-.95-1.2c-1.17-1.69-2.35-3.38-3.47-5.1-1.24-1.91-2.46-3.84-3.61-5.81-.95-1.63-1.78-3.33-2.64-5-.07-.14,0-.36,0-.54s0-.49-.14-.56c-1.66-1-2.17-2.9-3.12-4.42a9.12,9.12,0,0,1-.68-2.21.65.65,0,0,0-.18-.32c-1.51-1.15-1.94-3-2.82-4.52-.4-.71-.85-1.4-1.19-2.14-1.1-2.42-2.81-4.58-3.19-7.31a3.66,3.66,0,0,1,0-.72l.25-.09c.72,1.38,1.46,2.75,2.17,4.13.87,1.7,1.7,3.42,2.59,5.11,1.3,2.45,2.66,4.86,3.95,7.32.54,1,.89,2.16,1.43,3.19.41.77,1,1.44,1.49,2.18s1.1,1.75,1.6,2.65c.75,1.33,1.37,2.72,2.25,4,1.11,1.6,2.07,3.31,3.09,5,.56.91,1.14,1.82,1.69,2.74a11.66,11.66,0,0,1,.52,1.12Z"/><path d="M201.87,145.22c1.77,1.56,3.53,3.12,5.31,4.66.92.79,1.86,1.54,2.82,2.29,2.44,1.91,4.89,3.8,7.32,5.7,2.69,2.1,5.34,4.24,8.05,6.31,2,1.51,4.06,2.9,6.08,4.38.6.44,1.12,1,1.68,1.46l-.23.31a4.5,4.5,0,0,1-1-.39q-5-3.57-10-7.18c-2-1.45-4-2.89-5.94-4.41-2.26-1.77-4.47-3.6-6.66-5.45-1.8-1.52-3.59-3-5.28-4.67a28,28,0,0,1-2.33-2.87Z"/><path d="M142.34,80.8a23.86,23.86,0,0,0-1.81-3A24.77,24.77,0,0,0,136.89,74,22.3,22.3,0,0,0,132,71.07c-3.4-1.49-6.89-2.81-10.37-4.1a24.11,24.11,0,0,0-8.35-1.71c-1.85,0-3.7-.43-5.56-.6a6,6,0,0,0-1.76.25c-.43.1-.83.29-1.27.36,1.58-1.56,3.45-1.55,5.46-1.21,1.13.19,2.32-.06,3.46.08a34.19,34.19,0,0,1,5.62,1c2.83.85,5.59,1.94,8.36,3,1.5.56,3,1.19,4.46,1.79l.08,0c2,1.35,4.35,2.09,5.93,4a24.16,24.16,0,0,1,3.52,4.83c.32.67.87,1.19.73,2Z"/><path d="M25.14,111.6a45,45,0,0,0-1.25,5.49,22.32,22.32,0,0,0,.22,5,52,52,0,0,0,1,6.16,20.91,20.91,0,0,0,1.56,3.69c.36.77.83,1.48,1.17,2.26a3.1,3.1,0,0,1,.08,1l-.46.16A45.17,45.17,0,0,1,25,131.51,33.67,33.67,0,0,1,23.22,127a12.33,12.33,0,0,1-.55-2.77c-.14-1.36-.2-2.73-.21-4.1a4.67,4.67,0,0,1,.4-1.3,1.22,1.22,0,0,0,.12-.51c-.36-2.08.53-3.88,1.26-5.72a9.12,9.12,0,0,1,.68-1.17Z"/><path d="M235.85,154.78c-.53-.37-1.09-.71-1.59-1.12-1.35-1.1-2.61-2.3-4-3.33-1.73-1.27-3.56-2.42-5.35-3.62l-6.28-4.23c-1.27-.86-2.59-1.66-3.79-2.61-1-.79-1.85-1.75-2.76-2.63l.19-.23c.57.38,1.13.77,1.7,1.15,2.44,1.61,4.88,3.2,7.31,4.81,2,1.34,4,2.66,6,4s4.21,2.93,6.19,4.55a22.15,22.15,0,0,1,2.58,3Z"/><path d="M200.67,163.72l2.26,1.77c1.72,1.35,3.41,2.74,5.16,4.05q4.5,3.37,9.06,6.65,2.57,1.86,5.22,3.61c1.39.92,2.85,1.72,4.24,2.63.22.14.24.58.36.88l0,0c-.92-.51-1.88-1-2.76-1.53-2.84-1.85-5.67-3.71-8.46-5.63-2.19-1.51-4.33-3.09-6.46-4.68-2.44-1.82-4.86-3.65-7.24-5.54a12.64,12.64,0,0,1-1.58-1.83Z"/><path d="M108.08,231.71c2.57-.7,5.15-1.34,7.69-2.11a15.54,15.54,0,0,0,5.56-2.55c.42-.35,1-.52,1.41-.87,1.94-1.54,3.86-3.1,5.78-4.66.12-.1.18-.27.3-.37s.43-.28.64-.42c0,.24,0,.55-.14.71a29.94,29.94,0,0,1-2.74,3.05c-1.45,1.3-3,2.48-4.57,3.63-2.41,1.77-5.31,2.3-8.11,3.11a17.59,17.59,0,0,1-5.23.61c-.21,0-.42,0-.63,0Z"/><path d="M208.54,105.55a4.15,4.15,0,0,1,.94.59c1.13,1.23,2.2,2.53,3.34,3.76,1.45,1.56,3,3.06,4.41,4.62,2.19,2.36,4.34,4.76,6.52,7.12,1.29,1.4,2.62,2.76,3.92,4.15a3.19,3.19,0,0,1,.35.59l-.18.22a5.51,5.51,0,0,1-1.22-.71c-1.62-1.61-3.23-3.22-4.77-4.9-1.87-2-3.68-4.11-5.49-6.19-2-2.32-4-4.67-6-7-.47-.54-1.1-.95-1.6-1.48-.17-.18-.15-.53-.21-.81Z"/><path d="M44.54,151.79c12.15-1.71,23.87-4.47,33.93-12.44a5.09,5.09,0,0,1-.77,1.07c-1.48,1.13-3,2.26-4.51,3.31a19.48,19.48,0,0,1-2.58,1.43,80.9,80.9,0,0,1-11.34,4.38c-.74.23-1.47.51-2.22.66a4.41,4.41,0,0,1-1.24-.1,2.78,2.78,0,0,1-.66.41A27.55,27.55,0,0,1,45.62,152,7.61,7.61,0,0,1,44.54,151.79Z"/><path d="M218.6,134.3c1,.61,2.11,1.17,3.1,1.86s2.07,1.59,3.07,2.42c1.5,1.25,3,2.52,4.45,3.79,1,.9,2.1,1.81,3.12,2.74.25.23.34.63.59.85s.81.5,1.19.78a34.21,34.21,0,0,1,3.12,2.57c-1.16.09-1.88-.69-2.64-1.28a66.93,66.93,0,0,1-5.7-4.69c-1-1-2.12-1.81-3.19-2.7-2.43-2-4.84-4.06-7.25-6.1Z"/><path d="M47.86,142.22c8.56-4.48,17.9-7.35,26.14-12.52l.18.29a10.76,10.76,0,0,0-1,.63,31.07,31.07,0,0,1-6.87,3.86c-2,.89-3.95,1.94-5.95,2.85-1.54.7-3.13,1.29-4.68,2-1.39.6-2.75,1.26-4.15,1.84-1.17.48-2.38.88-3.57,1.32Z"/><path d="M171.4,113.95c-1.56-1.13-1.84-2.83-2.4-4.37a13.51,13.51,0,0,1-.39-7.66c.33-1.51.4-3.07.74-4.57s.9-3,1.36-4.53l.33.09c-.26,1.1-.57,2.19-.76,3.3-.32,1.81-.57,3.64-.82,5.46a20.2,20.2,0,0,0-.21,2.68,23.9,23.9,0,0,0,1.67,7.43A20.45,20.45,0,0,1,171.4,113.95Z"/><path d="M206.29,102.28a3.93,3.93,0,0,1,.87-2.91c1.29-1.59,2.37-3.36,3.63-5s2.78-3.4,4.21-5.07c1.86-2.16,3.73-4.31,5.64-6.41,1.19-1.31,2.47-2.53,3.72-3.78a.59.59,0,0,1,.55-.08c-.66.75-1.3,1.51-2,2.24-.94,1-1.95,1.92-2.85,2.94s-1.76,2.18-2.67,3.25c-.7.83-1.46,1.6-2.15,2.44q-2.31,2.84-4.57,5.72c-1.09,1.4-2.17,2.81-3.18,4.27A21,21,0,0,0,206.29,102.28Z"/><path d="M107.78,183.85c.75.89,1.26.4,1.81-.17s1.05-.93,1.58-1.4l.26.27c-.29.3-.58.6-.86.9a24.31,24.31,0,0,1-7,5.11c-1.41.72-2.75,1.55-4.16,2.26a22.07,22.07,0,0,1-6.28,2.27c-1.61.26-3.23.44-4.85.64a1.33,1.33,0,0,1-.94-.21c1.19-.19,2.41-.28,3.58-.58,2.25-.59,4.49-1.23,6.69-2A38.33,38.33,0,0,0,102,189a16.59,16.59,0,0,0,1.89-1.33c1.2-.82,2.4-1.64,3.63-2.42C108.31,184.79,108.35,184.71,107.78,183.85Z"/><path d="M126.55,215.19c.1-1.4-1.07-.65-1.67-1.12l.36,0c.55,0,1.24-.49,1.59.29s-.26,1.18-.67,1.7a21.49,21.49,0,0,1-6.12,4.86c-.69.41-1.35.88-2,1.33a18.17,18.17,0,0,1-7.07,3.17c2.53-1.53,5.24-3.06,7.84-4.75S123.95,217,126.55,215.19Z"/><path d="M233.74,114.55a10.08,10.08,0,0,1-4.33-3.21,13.89,13.89,0,0,0-1.27-1.14c-1.1-1.14-2.16-2.32-3.25-3.47a42.49,42.49,0,0,1-3-3.22c-.56-.73-1.59-1.16-1.64-2.27,0,0-.14-.08-.2-.14l-1.8-1.57.17-.24a7.15,7.15,0,0,1,1.16.82c1.85,1.95,3.61,4,5.51,5.87,2.29,2.29,4.69,4.46,7,6.7C232.71,113.27,233.21,113.93,233.74,114.55Z"/><path d="M45.55,147.61a192.86,192.86,0,0,0,27.39-10.95c.06,0,.21.12.6.36-2.09,1-3.88,1.87-5.73,2.62s-3.57,1.52-5.31,2.29-3.74,1.55-5.6,2.33-3.7,1.24-5.53,2-3.85,1.13-5.79,1.68Z"/><path d="M181.74,179.21a4.78,4.78,0,0,1,.55-.48,16,16,0,0,0,5.75-6.1c.94-1.6,1.76-3.27,2.69-4.87a9.55,9.55,0,0,0,1.66-4.38,7.1,7.1,0,0,0-1-2.73c-.22-.51-.57-1-.78-1.51,1.3.49,1.15,2.33,2.58,2.85a16.93,16.93,0,0,1-2.15,6.21c-.78,1.17-1.18,2.59-1.87,3.84a20,20,0,0,1-4.62,5.85A4.67,4.67,0,0,1,181.74,179.21Z"/><path d="M108.75,234.37c5.57-1.45,11.21-2.72,16.26-5.83l2.68-3.35.17.08a4,4,0,0,1-.34.81c-1.26,1.8-2.53,3.58-4.69,4.43a18.42,18.42,0,0,1-2.56,1.12c-1.27.28-2.25,1.2-3.58,1.36s-2.68.7-4,1-2.58.45-3.87.67Z"/><path d="M128.24,217.19c.49.66.11,1-.32,1.62-1.3,2-3.31,3-4.93,4.34l-1-.54.35,1-5.6,2.86-.27-.82C120.61,223.13,125.27,221.41,128.24,217.19Z"/><path d="M200.81,82.18c1-1.91,1.92-3.83,2.93-5.72a12.61,12.61,0,0,1,1.53-2.39c1-1.17,1.49-2.66,2.49-3.84s2-2.54,2.93-3.82,1.84-2.46,2.75-3.69c.42-.57.84-1.16,1.25-1.74l.41.39c-.7.91-1.43,1.81-2.11,2.74-2,2.77-4,5.53-6,8.33-1.08,1.54-2.1,3.12-3.06,4.74s-1.62,3.06-2.47,4.57c-.12.21-.47.28-.71.41Z"/><path d="M197.86,75.14c.84-1.49,1.66-3,2.52-4.47q2.41-4.13,4.87-8.24c.41-.69.92-1.32,1.39-2l.4.41c-.92,1.58-1.82,3.18-2.75,4.75s-1.91,3.07-2.81,4.63-1.7,3.15-2.59,4.71a.64.64,0,0,1-1,.2Z"/><path d="M84.4,187.11c6.54-1.5,16.79-6.09,17.41-8.09.2.38.42.62.41.84s-.29.35-.47.51a6.61,6.61,0,0,1-.77.64,22,22,0,0,1-2,1.23c-1.13.58-2.3,1.08-3.45,1.63a38.59,38.59,0,0,1-9.07,3.23A10.61,10.61,0,0,1,84.4,187.11Z"/><path d="M112.14,220.08c1.82-1.14,3.59-2.12,5.2-3.3a54,54,0,0,0,4.57-3.91,12.2,12.2,0,0,0,1.4-2,1.35,1.35,0,0,1-.17,1.69,18.57,18.57,0,0,1-2.54,3,21.52,21.52,0,0,1-7.29,4.37,3.72,3.72,0,0,1-.54.12C112.61,220,112.43,220.05,112.14,220.08Z"/><path d="M46.47,157.38a12,12,0,0,1,3.56-.57c1,.13,1.57-.46,2.38-.53A15.06,15.06,0,0,0,55,155.8c2.28-.62,4.54-1.29,7-1.78-.3.25-.55.63-.89.74a53.4,53.4,0,0,1-5.79,1.71c-2.62.52-5.18,1.52-7.92,1.25l-.88-.09Z"/><path d="M213.16,82.8c-.28.48-.52,1-.83,1.44-1.24,1.76-2.46,3.53-3.76,5.24A36.65,36.65,0,0,0,204,97.39a3.22,3.22,0,0,1-.56,1.13,7.07,7.07,0,0,1,.38-2c.91-1.75,1.94-3.44,2.94-5.15.73-1.25,1.39-2.54,2.21-3.72,1.2-1.73,2.52-3.37,3.79-5.05Z"/><path d="M203.07,92.51c-.85-.37-.46-1.18-.31-1.71,1-3.71,3.27-6.79,5.29-10,1.16-1.83,2.45-3.59,3.71-5.36a3.55,3.55,0,0,1,.77-.61l.18.22c-1.13,1.66-2.23,3.35-3.4,5a44.63,44.63,0,0,0-4.91,8.06c-.46,1.07-1,2.11-1.39,3.2A3.31,3.31,0,0,0,203.07,92.51Z"/><path d="M200,59.93l4.66-5.62c.87-1.05,1.68-2.15,2.61-3.15A22.16,22.16,0,0,1,210,48.69a2.2,2.2,0,0,1,1.5-.11c-1.52.21-2.24,1.46-3.11,2.38-2.22,2.35-4.3,4.82-6.41,7.27-.53.62-1,1.33-1.47,2l-.51-.35Z"/><path d="M49.69,135.25c2.33-1.17,4.62-2.45,7-3.46,1.39-.59,2.67-1.4,4.09-1.92s2.52-1.17,3.79-1.73a1.12,1.12,0,0,1,1,.09l-15.71,7.35Z"/><path d="M181.06,196.78a67.57,67.57,0,0,0,11.36-11.43c-1.22,2.48-3.16,4.42-4.95,6.45A19.07,19.07,0,0,1,181.06,196.78Z"/><path d="M223.55,89l-9.93,8.5-.25-.17c.12-.26.17-.6.36-.77.91-.76,1.89-1.45,2.81-2.2.75-.62,1.44-1.3,2.17-1.95,1.27-1.12,2.55-2.23,3.85-3.32a3.43,3.43,0,0,1,.88-.39Z"/><path d="M93.69,204.53l2.73-.7-.71.53.09.3c1.51-.36,3-.68,4.53-1.09a41.31,41.31,0,0,1,4.5-1.15c-.24.2-.45.49-.72.57-1.94.61-3.89,1.25-5.86,1.75a18.06,18.06,0,0,1-3.41.42,3.52,3.52,0,0,1-1.22-.42Z"/><path d="M114.91,214.25c2.67-1.74,5.33-3.48,8-5.23.13-.08.15-.33.27-.6h-1.89a3.49,3.49,0,0,1,.38-.25c.67-.3,1.48-.52,1.89.14.18.29-.27,1.24-.69,1.57a26.31,26.31,0,0,1-7.69,4.39A.65.65,0,0,1,114.91,214.25Z"/><path d="M188.68,181.89c-.95,1-1.87,1.93-2.85,2.84s-2.21,2-3.38,2.88a5.76,5.76,0,0,1-1.77.79c-.16.05-.43-.25-.59-.36a17.63,17.63,0,0,0,1.62-.83,36.71,36.71,0,0,0,3.15-2.2c.84-.69,1.52-1.57,2.32-2.3.42-.39.76-1,1.53-.81Z"/><path d="M220.74,64.4q-3.82,5.08-7.65,10.16c-.08.11-.35.07-.73.13,1.46-2,2.8-3.77,4.17-5.56s2.6-3.31,3.9-5Z"/><path d="M184,148.34c.78-.35,1.22.29,1.61.67,2.06,2,4.06,4,6.06,6a4.9,4.9,0,0,1,.54.83L192,156Z"/><path d="M62.67,91.36l-13,6.31-.14-.29q6.29-3.22,12.6-6.42C62.2,90.93,62.37,91.12,62.67,91.36Z"/><path d="M197.86,75.14l.39.75c-.76,1.62-1.58,3.24-2.29,4.9s-1.33,3.35-2.09,5.29a14.13,14.13,0,0,1,1.49-5.55,27.26,27.26,0,0,1,1.5-3.18c.42-.71.64-1.48,1-2.2Z"/><path d="M178.44,174.06a57.76,57.76,0,0,0,8.22-10.83C186.73,164.95,180.46,173.22,178.44,174.06Z"/><path d="M108.06,229.16l8-3.23c.09,1-.56,1.5-1.64,1.49a1,1,0,0,0-.54.08C112.17,228.82,110.09,229,108.06,229.16Z"/><path d="M224.59,206.33c1.58-.8,7.52-1.44,11.35-1.27C235.36,205.55,226.56,206.56,224.59,206.33Z"/><path d="M155.63,86.86l-3.49,12a6,6,0,0,1,0-1,66.36,66.36,0,0,1,3-10.71.56.56,0,0,1,.19-.28C155.38,86.81,155.5,86.85,155.63,86.86Z"/><path d="M69,120.42c-3.51,2-11.21,5.44-12,5.1L69,120.17Z"/><path d="M56.54,116.94l12.9-6.17C69.2,111.38,57.53,117.14,56.54,116.94Z"/><path d="M190.3,143.49c-.67-.56-1.37-1.08-2-1.67-1.87-1.77-3.7-3.57-5.47-5.52a18.58,18.58,0,0,1,2.09,1.45c1.69,1.54,3.33,3.14,5,4.75a3.67,3.67,0,0,1,.5.89Z"/><path d="M200.67,163.72l-.18.37a36,36,0,0,1-2.87-2.63c-1.12-1.26-2.09-2.64-3.11-4a.53.53,0,0,1,0-.52Z"/><path d="M258.48,116.73c.25-.12.5-.34.75-.34q3.24,0,6.49.09c1,0,2.09.13,3.35.21-.28.17-.39.29-.49.29-2.56,0-5.13,0-7.69-.06-.8,0-1.6-.14-2.39-.22Z"/><path d="M92.17,177.58c-.15.22-.25.56-.45.64-1.9.74-3.8,1.48-5.74,2.12-1.29.42-2.63.68-4,1l-.09-.34c1.23-.4,2.46-.78,3.68-1.2,1.61-.55,3.21-1.14,4.82-1.7.57-.2,1.16-.36,1.74-.54Z"/><path d="M59.17,99.55l-13,6.05-.14-.29,13-6.16Z"/><path d="M71,100.9c-1.6,1.59-9,5.33-10.55,5.33Z"/><path d="M148.94,93.15l2.58-8.67.35,0a2.13,2.13,0,0,1,.08.75,19.62,19.62,0,0,1-1.21,4c-.62,1.2-.6,2.54-1.21,3.69a3.18,3.18,0,0,1-.31.41Z"/><path d="M164.44,93.23l-3.12,11C160.93,103.1,163.38,94.41,164.44,93.23Z"/><path d="M64.17,89.89l7.53-5.38C71.37,85.76,66.11,89.6,64.17,89.89Z"/><path d="M114,197.31c-.41,1-7.61,5.07-9.19,5Z"/><path d="M114.06,188.25c-1.08,1.55-2.76,2.33-4.28,3.3-1.14.73-2.4,1.29-3.61,1.91-.09,0-.23,0-.44-.19.31-.18.63-.36.94-.55,2.15-1.37,4.3-2.76,6.46-4.12a4.4,4.4,0,0,1,.95-.33Z"/><path d="M92.18,177.58c1.26-.53,2.54-1,3.78-1.61.8-.37,1.55-.84,2.5-1.38l-1.61-2,.15-.14,3.7,4.07-.19.21c-.31-.35-.61-.7-.92-1s-.69-.73-.93-1a6.78,6.78,0,0,1-1.35,1.18c-1.42.69-2.89,1.28-4.36,1.86-.21.08-.52-.09-.78-.14Z"/><path d="M219.68,125.71a5,5,0,0,1-1-.66c-.91-1-1.74-2.06-2.66-3.06-1.08-1.18-2.23-2.3-3.33-3.45-.07-.07,0-.22-.11-.54.59.56,1.07,1,1.48,1.42,1.4,1.56,2.77,3.14,4.16,4.71.47.53,1,1,1.45,1.57Z"/><path d="M268.86,137.69l-7.87-1,.05-.45c2.68-.17,5.24.65,7.85,1.06Z"/><path d="M136.94,210.51a3.56,3.56,0,0,1-.76.8,4,4,0,0,1-3.07.61c-.62-.17-1.39.31-2,.21-1.28-.2-2.71-.19-3.77-1.7a9,9,0,0,0,5,1.19c1.62-.05,3.3.22,4.48-1.29Z"/><path d="M164,207.13l6.63-7.2C170.8,200.87,166.33,205.92,164,207.13Z"/><path d="M217.56,77.18c-.48.74-.92,1.5-1.43,2.21q-.93,1.29-2,2.51a4.22,4.22,0,0,1-.89.63l-.29-.36L217.43,77Z"/><path d="M116.83,188.86l2.28,3.43.35-.45.65.47-.57.61.89,1.64-.25.18-.92-1.23-.86.65-.19-.06c.06-.2.06-.48.2-.59.55-.41.43-.81.11-1.3-.68-1-1.33-2.1-2-3.15Z"/><path d="M267.09,130.94c-2.49.14-5-.86-7.63-.33.1-.15.21-.5.42-.59a2.65,2.65,0,0,1,1.19-.18q2,.15,4,.4c.72.09,1.43.27,2.14.4Z"/><path d="M46.71,122.4a23,23,0,0,1,2.16-1.53c2-1.08,3.95-2.1,5.93-3.13a1,1,0,0,1,.83-.06c-.82.48-1.63,1-2.45,1.43-1.84,1-3.69,2.07-5.55,3.08a3.25,3.25,0,0,1-.92.19Z"/><path d="M68.68,151.27c-.12.61-2.09,1.8-4.32,2.36-.59.15-1.34,1-2.08.12Z"/><path d="M206.3,194.08l6.16,5.13-.23.28-6.28-5Z"/><path d="M83.65,174.06l8.17-3c-2.35,2-5.39,2.17-8.06,3.31Z"/><path d="M62.23,97.45l7.26-4.64c-.49.9-5.31,4.14-7.08,4.88Z"/><path d="M144.74,86.69A24,24,0,0,1,146.47,79l.34.08Z"/><path d="M116.29,210l5.9-4.85C121.54,206.65,118.56,209.27,116.29,210Z"/><path d="M212.88,53.53c-1.46,1.66-2.74,3.12-4,4.56-.06.07-.3,0-.64,0C209.68,56.45,210.61,54.53,212.88,53.53Z"/><path d="M165,187.3c-1.1,2.41-2.93,4.29-4.51,6.37l-.22-.15,4.52-6.36Z"/><path d="M136.84,219.22c-.16.12-.31.34-.47.34-1.43.06-2.85.59-4.28.17a9.68,9.68,0,0,1-2.59-1.29A12,12,0,0,0,136.84,219.22Z"/><path d="M167.56,181.51l1.64-7.25A13.64,13.64,0,0,1,167.56,181.51Z"/><path d="M188.7,181.9a2.75,2.75,0,0,1,.24-1c1-1.35,2.07-2.67,3.13-4a3.64,3.64,0,0,1,.6-.49l.23.22c-1.07,1.41-2.12,2.82-3.21,4.21a13.48,13.48,0,0,1-1,1.06Z"/><path d="M200,59.91c.37.95-.43,1.45-.82,2.09-.48.8-1,1.58-1.56,2.33a3.45,3.45,0,0,1-.79.6l-.23-.21L200,59.94Z"/><path d="M190.91,151.32l-4.36-4.51.27-.26c1.74,1.22,2.9,3,4.28,4.59Z"/><path d="M78.48,155.46l5-4,.15.19a18.6,18.6,0,0,1-5,4Z"/><path d="M238.12,133.23l-.4-5.55.45,0c.13,1.64.28,3.27.37,4.91,0,.22-.28.45-.43.68Z"/><path d="M114.09,188.27l.49-1.55.35,0-1.43-2.44.27-.16,2.72,4.14-.25.19-1.11-1.37-1.08,1.15Z"/><path d="M211.37,145.93a8.32,8.32,0,0,1-3.3-3.26C209.11,143.83,210.8,144.35,211.37,145.93Z"/><path d="M171.68,209.51l4-5.82a21.74,21.74,0,0,1-3.79,6Z"/><path d="M148.5,73.65,147,78.7C146.47,77.84,147.35,74.83,148.5,73.65Z"/><path d="M262.64,141.87c2-.67,3.88.31,5.71.08-1.61.6-3.27-.12-5,.11l.12.81-.16.07Z"/><path d="M181.81,160.62l3.19-5.13C185.12,156.39,182.7,160.36,181.81,160.62Z"/><path d="M193.12,52.76l-2.75,5.46C190.22,57.23,192.28,53.17,193.12,52.76Z"/><path d="M160.83,93.95c.18.24.35.37.33.46q-.51,2-1.08,3.92c0,.13-.23.21-.36.31-.05-.14-.18-.31-.14-.43C160,96.84,160.38,95.47,160.83,93.95Z"/><path d="M200.78,82.17a3.65,3.65,0,0,1,0,1.05c-.33,1.25-.72,2.48-1.16,3.7a7.28,7.28,0,0,1,1.15-4.74Z"/><path d="M236.42,199.33h5.36a.31.31,0,0,1-.18.1c-1.33.14-2.66.22-4,.41a1.1,1.1,0,0,1-1.2-.52Z"/><path d="M65.76,127.79l1.59-.84c.64-.35,1.27-.72,1.92-1,.14-.07.34,0,.51,0,0,.14,0,.37-.08.41-1.22.59-2.44,1.16-3.67,1.72C66,128,65.94,128,65.76,127.79Z"/><path d="M159.28,89.24l-1.49,5.43-.36-.1,1.5-5.45Z"/><path d="M121,202.63c-1.1.76-2.2,1.53-3.32,2.27a1.27,1.27,0,0,1-.94.16c.56-.36,1.12-.72,1.67-1.1a17.63,17.63,0,0,1,1.44-1.06,4.3,4.3,0,0,1,1.17-.28Z"/><path d="M164.77,196.4c-.11-.27-.09-.26.63-1.13a7.81,7.81,0,0,0,.86-1.36c.25-.49.44-1,.71-1.66.67.81,0,1.25-.2,1.72a6.17,6.17,0,0,1-.91,1.29C165.52,195.66,165.13,196,164.77,196.4Z"/><path d="M194.12,69.75a21.6,21.6,0,0,1,2.48-4.59c0,.22.08.49,0,.67-.73,1.35-1.49,2.69-2.25,4Z"/><path d="M102,195.57c-.06-.34-.06-.34,1.4-1.14l1.91-1C105.33,194,103.76,195,102,195.57Z"/><path d="M154.8,158.82l1-6.1C155.74,154.73,155.85,156.76,154.8,158.82Z"/><path d="M164.84,216.41l3.46-3.26.21.21a17,17,0,0,1-3.46,3.27Z"/><path d="M83.39,174.41l-4.91,1.73-.11-.28,4.9-1.86Z"/><path d="M258.5,116.71h-5.7v-.23l3.77-.23a5.19,5.19,0,0,1,1.24,0c.25,0,.46.3.68.46Z"/><path d="M84.25,221.08h6v.19h-6Z"/><path d="M62.27,170l2.49-.44,2.58-.5C67.2,169.48,63.84,170.24,62.27,170Z"/><path d="M109.76,178.47l-2.29-3.22.18-.16c.74.78,1.51,1.54,2.2,2.36C110,177.61,109.81,178,109.76,178.47Z"/><path d="M167.45,182.85l-1.73,3.46C165.33,185.74,166.41,183.33,167.45,182.85Z"/><path d="M117.91,194.09c.14.56-2.35,2.65-3.67,3Z"/><path d="M127.18,198.93c.92-.24,1.85-.45,2.75-.74.14,0,.22-.43.23-.67s-.1-.43-.1-.66c.87,1.22.76,1.53-.68,1.87-.74.17-1.51.25-2.27.38Z"/><path d="M164.57,173l-1.12,3.66-.4-.11a2.08,2.08,0,0,1,.1-.51c.47-1,1-2,1.45-3Z"/><path d="M48.13,130c-.7.45-1.4.9-2.11,1.34s-1.2.7-1.8,1.05l-.14-.23c.89-.55,1.76-1.13,2.67-1.64a8.78,8.78,0,0,1,1.4-.5Z"/><path d="M162.9,177.8l-1.78,3.72-.33-.16,1.79-3.72Z"/><path d="M96.13,197.7a8.27,8.27,0,0,1-1.55.4,14,14,0,0,1-2.94-.12c1.32-.19,2.63-.4,4-.56.17,0,.37.19.56.3Z"/><path d="M130.66,205.75c.93-.86,2.77-.83,2-2.64l.29,0a4.47,4.47,0,0,1,.19,1.22C133.1,204.93,131.8,205.71,130.66,205.75Z"/><path d="M192.92,73.09l-1.25,4.62-.24-.06L192.62,73Z"/><path d="M146.71,47.23l-.53,3.89-.34,0,.5-3.87Z"/><path d="M172.78,175.23l-.86,4.49-.3-.06.92-4.48Z"/><path d="M70.74,125.26c.86-.4,1.51-1.22,2.53-1.29l.14.29-2.46,1.42Z"/><path d="M207,60.85l-.4-.41,1.23-2,.32.15C208.25,59.55,207.33,60.08,207,60.85Z"/><path d="M130.34,205.58c-1.51.61-2.06.56-2.78,0Z"/><path d="M251.23,189.87h-2.77c.89-1,1.84-.15,2.76-.24Z"/><path d="M96.15,197.72c.16-.18.29-.44.49-.52.61-.24,1.24-.4,1.86-.6.06.68-1,1.17-2.37,1.09Z"/><path d="M204.26,192.45l1.74,1.5-.27.33-1.87-1.36Z"/><path d="M217.56,77.18l-.12-.13,1.61-2.1A2.16,2.16,0,0,1,217.56,77.18Z"/><path d="M188.15,159.92l1.2-3.3.45.87-.26-.08L188.39,160Z"/><path d="M50,128.73l3.13-1.39C52.63,128.19,50.63,129.09,50,128.73Z"/><path d="M76,135.53c-.63.39-1.1.7-1.6,1a.43.43,0,0,1-.4,0c-.08-.07-.1-.35,0-.39a11.51,11.51,0,0,1,1.42-.93C75.44,135.1,75.69,135.35,76,135.53Z"/><path d="M243.45,212.94l.18.45,0,.27-2-.88.14-.41Z"/><path d="M219.68,125.71v0l2.74,2.56-.28.28Z"/><path d="M170.35,185.66l-1,2.78-.3-.09.84-2.82Z"/><path d="M118,200.68l2-1.93C120.12,199.58,119.18,200.51,118,200.68Z"/><path d="M190.3,143.49l.09-.11,1.86,1.77-.38.35Z"/><path d="M164.6,173.07l.68-2.8.38.12c-.33.89-.17,2-1.08,2.65Z"/><path d="M61.92,97.52c-.49,1.11-1.71,1-2.44,1.73l-.19-.3Z"/><path d="M200.2,4.41l2.86,1.73-.13.22L200,4.69Z"/><path d="M276.17,237.42l-3-.49,0-.3,3,.4Z"/><path d="M46.71,122.38a.81.81,0,0,1-.49.94A8.19,8.19,0,0,0,44.62,125l-.24-.22,2.32-2.36Z"/><path d="M160.27,219.79l2.63-1.82.18.27L160.41,220Z"/><path d="M56.94,126.08l-2.55,1A2.3,2.3,0,0,1,56.94,126.08Z"/><path d="M188,160.41A2.82,2.82,0,0,1,186.7,163Z"/><path d="M207.52,112.65l2,2,.08-.07-2-2Z"/><path d="M146.41,46.58l.45-2.74.31,0-.44,2.75Z"/><path d="M171.23,210.13c-.48.69-.59,1.77-1.85,1.92Z"/><path d="M222.36,72.56l-1.84,1.54-.24-.3,1.89-1.53Z"/><path d="M155.56,86.51c-.36-.81.4-1.43.51-2.16l.26,0-.48,2.16Z"/><path d="M224.25,87.63l1.48-1.47.31.28-1.46,1.48Z"/><path d="M71,150.58l-1.87.83-.15-.4,1.91-.74Z"/><path d="M161.06,171l-.88,2.72-.28-.1.92-2.72Z"/><path d="M81.56,161.11l-1.88,1.24-.19-.29,1.9-1.21Z"/><path d="M92.23,225.31l2.38-.37,0,.31C93.92,225.41,93.21,225.9,92.23,225.31Z"/><path d="M227,183.31c.76-.26,1.25,0,1.78.79l-.13.23-1.62-1Z"/><path d="M121,202.63l-1.67-.87c1-.55,1.68-.28,1.65.87Z"/><path d="M91.26,165.35l1.83,2.27-.19.16-1.83-2.21Z"/><path d="M221.13,64.1c.21-1,.82-1.38,1.66-1Z"/><path d="M152.35,84.1c-.5-.71-.31-1.34.54-1.88Z"/><path d="M105.11,208.35l-2.21.69-.1-.34,2.22-.64Z"/><path d="M230.19,207.13l-2.59.54C227.82,207.11,229,206.86,230.19,207.13Z"/><path d="M48.15,130a1.75,1.75,0,0,1,2.08-.79l-2.1.77Z"/><path d="M232.53,255.23a13.53,13.53,0,0,1-5.88-3.81c-.86-.87-1.71-1.76-2.49-2.7s-1.64-2.17-2.43-3.28a6.88,6.88,0,0,1-1.19-1.89,4.45,4.45,0,0,1,.17-2c0-.13.55-.31.75-.23a1,1,0,0,1,.56.68,11.21,11.21,0,0,0,2.37,4.68,35.11,35.11,0,0,0,2.33,3.39,45,45,0,0,0,3.64,3.29Z"/><path d="M134.12,254.78l3.7-3.28c-.08-.14,0-.05,0,0q-1.64,1.76-3.3,3.51s-.12,0-.19,0Z"/><path d="M134.12,254.78l.19.19a6.63,6.63,0,0,1-2.9,2.7l0,0a15.14,15.14,0,0,1,1-1.3C133,255.82,133.56,255.31,134.12,254.78Z"/><path d="M130.55,243.35c-.51.45-1,.89-1.53,1.37-1.48,1.45-2.88,3-4.42,4.37-1.78,1.61-3.66,3.11-5.54,4.62-1.15.93-2.37,1.77-3.56,2.65l-.19-.22c.63-.56,1.24-1.16,1.91-1.68,1.14-.91,2.34-1.74,3.46-2.67,1.66-1.38,3.31-2.79,4.89-4.26,1.42-1.32,2.74-2.75,4.08-4.15.34-.36.59-.42.89,0Z"/><path d="M217.42,212.19l.67.59-.54,1.36-.43-1.84Z"/></g></g></svg>