<svg xmlns="http://www.w3.org/2000/svg" viewBox="0 0 380.98 370.91"><title>recykle</title><g id="Layer_2" data-name="Layer 2"><g id="Layer_1-2" data-name="Layer 1"><path d="M142.32,129.7l.22-.55c-.51-.39-1-.78-1.45-1.09-1.32-.83-2.69-1.58-4-2.43-1.08-.7-2.07-1.54-3.16-2.22-1.29-.81-2.67-1.49-4-2.28-1.49-.91-2.92-1.9-4.4-2.82-.89-.55-1.83-1-2.73-1.52-1.84-1.07-3.67-2.16-5.51-3.22-1.05-.61-2.13-1.17-3.18-1.78-1.86-1.08-3.69-2.21-5.56-3.27-2-1.15-4.11-2.19-6.12-3.36s-3.91-2.48-5.89-3.68c-1.1-.67-2.27-1.23-3.41-1.84-.41-.22-.8-.49-1.22-.69-1.18-.56-2.4-1-3.54-1.66-.91-.5-1.73-1.17-2.59-1.76a2,2,0,0,0-.41-.23,33.09,33.09,0,0,1-7-3.43A60.46,60.46,0,0,0,73,89c-1.05-.57-2-1.29-3.05-1.89s-2.15-1.15-3.23-1.7c-.61-.31-1.23-.57-1.9-.88l0,.09a11.28,11.28,0,0,1-2-1.37.8.8,0,0,1,.54-1.33,10.18,10.18,0,0,1,1.28,0c.16-.44.38-1,.59-1.59q.85-2.42,1.68-4.85a5,5,0,0,0,.21-.62c.57-2.79,2-5.23,3.16-7.76.7-1.5,1.25-3.07,2-4.56s1.52-2.82,2.23-4.25c.4-.8.61-1.69,1-2.49S76.46,54,77,53c.78-1.45,1.51-2.93,2.27-4.38a10.42,10.42,0,0,1,.59-1c.64-1,1.31-1.88,1.92-2.85s1.28-2.15,1.92-3.23c.51-.86,1-1.74,1.55-2.57.81-1.25,1.68-2.47,2.51-3.7.18-.26.29-.57.47-.82.74-1,1.51-2,2.25-3.06,1-1.42,2-2.87,3.06-4.29A15.42,15.42,0,0,1,94.57,26c1.16-1.28,2.35-2.54,3.46-3.86.88-1,1.61-2.2,2.51-3.22a29.42,29.42,0,0,1,2.71-2.67c1.86-1.63,3.75-3.21,5.64-4.81A22.23,22.23,0,0,1,112,8.92c1.81-1,3.42-2.45,5.52-3A7.74,7.74,0,0,0,120,4.82c1.6-1.1,3.48-1.31,5.27-1.71s3.81-.53,5.71-.82c1.06-.16,2.1-.45,3.16-.57,1.28-.14,2.57-.1,3.85-.24S140.67,1,142,.9c2.09-.14,4.16-.68,6.28-.2a5,5,0,0,0,1.3-.12c2.23-.13,4.46-.28,6.69-.37.73,0,1.46.13,2.19.13.53,0,1.07-.16,1.6-.16,1.31,0,2.62.09,3.93.1.63,0,1.25-.1,1.88-.11,1.23,0,2.46,0,3.69,0,2.06,0,4.12-.22,6.17-.16,1.81.05,3.61.42,5.42.51,1.3.07,2.6-.11,3.91-.15,1,0,2.06,0,3.09,0,2.67.05,5.33.1,8,.2,2,.07,4,.26,6,.34,1.64.06,3.29,0,4.93.06,1.36.08,2.72.33,4.07.5.28,0,.57,0,.86.05,2.77.07,5.54.08,8.31.22,1.35.07,2.69.37,4,.53a6,6,0,0,0,1.37,0,10.7,10.7,0,0,1,4.38.59,5.85,5.85,0,0,0,1.4.2,3.53,3.53,0,0,1,2.76.9,1.08,1.08,0,0,0,.61.25c2.8.46,5.6.86,8.39,1.38a35.91,35.91,0,0,1,6.61,1.91c1.36.54,2.8,1,4.17,1.55,2.27.94,4.53,1.89,6.77,2.89a17,17,0,0,1,2.26,1.34c1.3.84,2.62,1.66,3.84,2.6,1.4,1.08,2.75,2.24,4,3.46,1.78,1.68,3.54,3.38,5.2,5.17a59.17,59.17,0,0,1,6.24,7.59c1.43,2.19,3,4.29,4.44,6.46,1,1.55,1.95,3.17,3,4.73.85,1.32,1.79,2.59,2.62,3.93.71,1.14,1.28,2.36,2,3.52,1.1,1.86,2.31,3.66,3.33,5.56.81,1.51,1.41,3.13,2.07,4.71a6.12,6.12,0,0,1,.25,1.25c1.95-.88,3.93-1.8,5.92-2.68,1.38-.61,2.76-1.22,4.16-1.76,2.39-.92,4.8-1.77,7.19-2.7,1.53-.6,3-1.32,4.55-1.91,1.17-.45,2.38-.77,3.58-1.14,2.09-.65,4.19-1.29,6.28-2a1.24,1.24,0,0,0,.57-.55c.61-1,1.38-1.57,1.76-1.17.67.72,0,1.45-.28,2-.41.91-1.19,1.66-1.67,2.55-1.05,1.94-2,3.94-3,5.9-.55,1-1.17,2.06-1.77,3.07-1.48,2.47-3.1,4.88-4.44,7.43-1.22,2.32-2.65,4.5-3.94,6.77-1.4,2.45-2.91,4.85-4.36,7.27-.26.43-.44.9-.7,1.33-1.35,2.22-2.73,4.42-4.06,6.65-.93,1.56-1.77,3.18-2.7,4.74s-2,3.14-2.91,4.73c-1.51,2.56-3,5.16-4.46,7.73-1.29,2.23-2.61,4.44-3.91,6.66-1.76,3-3.51,6-5.3,9a9.32,9.32,0,0,1-1.08,1.3l.63,1.56a7.91,7.91,0,0,1-1.68.48c-1,.06-2.05,0-3.08,0-2.35-.05-4.69-.13-7-.14-1.05,0-2.11.2-3.16.19-1.43,0-2.86-.13-4.29-.19-.39,0-.78,0-1.17,0-1.07,0-2.14,0-3.21,0-1.78,0-3.55-.07-5.33-.05-1.53,0-3.06.15-4.6.16s-2.78-.1-4.17-.12c-2.73,0-5.46,0-8.19-.06-.85,0-1.7-.13-2.55-.17-.55,0-1.1,0-1.65,0-1.75-.05-3.49-.15-5.24-.17s-3.26.06-4.88.06c-1.19,0-2.39-.05-3.58-.07-1.59,0-3.19,0-4.78,0-2.52,0-5-.15-7.57-.19-1.13,0-2.26.1-3.38.09s-2.28-.13-3.42-.18-2.11,0-3.17-.09c-.81,0-1.62-.16-2.43-.19-1,0-2,0-3,0-1.42-.11-2.82-.31-4.23-.46.59-.43,1.12-.79,1.62-1.19a28.71,28.71,0,0,1,6.53-3.94c.77-.33,1.42-.93,2.17-1.34,1.66-.91,3.37-1.73,5-2.65,2-1.09,3.89-2.27,5.85-3.37.74-.41,1.58-.63,2.3-1.07a15.34,15.34,0,0,0,2.52-1.44,5.9,5.9,0,0,1,1.32-.66c.27-.13.52-.29.84-.48-1.11-2.08-2.15-4.08-3.23-6.06-.21-.38-.65-.64-.86-1-.92-1.69-1.73-3.43-2.7-5.09-1.07-1.83-2.36-3.54-3.39-5.4a30,30,0,0,1-2.48-4.91,20.41,20.41,0,0,0-2-3.18c-.65-1.14-1.18-2.35-1.81-3.5-.24-.43-.67-.75-.92-1.19-1.13-2-2.2-4.06-3.33-6.06-.34-.61-.87-1.11-1.22-1.72s-.43-1.16-.71-1.7c-.4-.79-.91-1.53-1.3-2.32-.48-1-.87-2-1.35-3-.3-.62-.68-1.2-1-1.79a9,9,0,0,0-1.69-2.57c-1-.79-1.22-2-1.91-2.83a12.39,12.39,0,0,1-1.4-3.1A15.94,15.94,0,0,0,190,52.78a11.31,11.31,0,0,1-.62-1.18,3.1,3.1,0,0,1-.15-.53c-.18.1-.43.15-.54.3-.3.44-.55.92-.82,1.38-.84,1.47-1.69,2.93-2.51,4.41-.45.82-.82,1.68-1.3,2.48s-.95,1.26-1.36,1.94c-.54.88-1,1.81-1.5,2.7S180,66,179.5,66.9c-.68,1.11-1.32,2.23-2,3.35q-1.64,2.85-3.27,5.72c-1.5,2.63-3,5.29-4.51,7.89-.89,1.5-2,2.89-2.89,4.36-.66,1-1.23,2.15-1.85,3.22-1,1.77-2,3.54-3.05,5.3-1.39,2.37-2.82,4.73-4.18,7.11-.51.89-.82,1.9-1.33,2.78-1.23,2.14-2.56,4.23-3.79,6.38-.77,1.34-1.39,2.77-2.17,4.11-1,1.8-2.16,3.55-3.23,5.32-.79,1.31-1.53,2.64-2.34,3.93s-1.54,2.33-2.31,3.5ZM243.86,34.47c-.73.52-1.44,1.08-2.21,1.54-2.31,1.38-4.63,2.75-7,4.07-1.69.95-3.43,1.8-5.15,2.69-1,.5-2,.94-2.88,1.51-1.56,1-3,2-4.61,3-1.8,1.11-3.66,2.13-5.48,3.22s-3.77,2.34-5.66,3.51-4,2.47-6,3.72c-.52.32-1,.69-1.51,1l-4,2.71c.4.6.77,1.11,1.08,1.66s.56,1.1.82,1.66a1,1,0,0,0,1.49.47c.95-.71,1.85-1.48,2.83-2.14s2-1.26,3.05-1.84c.73-.41,1.55-.67,2.25-1.12,1.22-.8,2.32-1.8,3.58-2.53,3.39-1.94,6.85-3.77,10.27-5.66,3.92-2.16,7.84-4.33,11.77-6.48.7-.39,1.45-.69,2.18-1,0,.26-.07.38-.18.44-2.45,1.56-4.88,3.14-7.36,4.66-1.62,1-3.29,1.89-4.92,2.86-1.23.73-2.42,1.55-3.66,2.26-1.71,1-3.47,1.87-5.19,2.86-2,1.15-4,2.35-6,3.54-1.25.76-2.49,1.54-3.73,2.32-1.69,1.07-3.37,2.16-5.08,3.26L214,87.53c2.44-1.59,4.79-3.37,7.64-4.24q-2.93,2.14-6,4.1c-.71.46-1.1.94-.67,1.8s.68,1.53,1.07,2.28c1,2,2,4,3.09,5.93.88,1.65,1.82,3.28,2.71,4.93s1.71,3.28,2.54,4.93c.26.52.37,1.13.67,1.63a1.34,1.34,0,0,1-.55,2.12c-2,1-3.94,2-5.89,3-2.48,1.29-5,2.61-7.42,3.94-1.4.76-2.76,1.58-4.16,2.33-1.59.84-3.21,1.61-4.81,2.43s-3,1.57-4.51,2.35c1.35,0,2.71,0,4.07,0,.57,0,1.15-.07,1.72-.1,1-.06,2.08-.18,3.12-.18s2.32.15,3.48.16c.77,0,1.54-.17,2.31-.15,1,0,1.94.21,2.92.22,2.34,0,4.69,0,7,0,1,0,1.92.1,2.87.09s1.91-.13,2.87-.13c1.44,0,2.88.06,4.31.12.54,0,1.08.16,1.63.16.92,0,1.84-.09,2.75-.1,3.1,0,6.2,0,9.3,0,2,0,4,.1,6,.17.66,0,1.32.15,2,.12,1,0,2-.25,3-.26,1.44,0,2.89.12,4.33.15,2.43.06,4.87.08,7.3.15,1.93.06,3.86.18,5.79.24,1.1,0,2.21,0,3.31,0s2.47.28,3.7.28,2.35-.24,3.53-.26a23.87,23.87,0,0,1,2.59.2c.79-1.7,1.42-3.24,2.21-4.7s1.78-3,2.67-4.45,1.67-2.84,2.52-4.26,1.84-3,2.75-4.53q1.65-2.76,3.28-5.55c.44-.75.86-1.51,1.29-2.27s.78-1.31,1.17-2a13.87,13.87,0,0,0,1.7-3c.38-1.3,1.49-2,1.93-3.28a22.75,22.75,0,0,1,1.64-3c.52-1,1-1.95,1.5-2.88,1.2-2.06,2.47-4.08,3.68-6.14.76-1.29,1.42-2.65,2.18-3.94q3-5.18,6.13-10.34c.88-1.47,1.85-2.9,2.75-4.36q1.91-3.08,3.78-6.19c.36-.6.63-1.25,1-1.85a10.23,10.23,0,0,1,.94-1.11.82.82,0,0,0-.68,0c-2,.93-4,1.86-6.06,2.81-1.66.78-3.28,1.66-5,2.38s-3.26,1.17-4.87,1.8c-2.53,1-5,2-7.57,3-1.83.73-3.66,1.44-5.48,2.18-.81.33-1.26.07-1.65-.69a5.1,5.1,0,0,0-1.07-1.19c-.34-.34-.82-.58-1.07-1-1-1.65-2-3.34-2.94-5-1.25-2.17-2.49-4.34-3.75-6.51-1.09-1.88-2.19-3.75-3.28-5.62-1.22-2.09-2.35-4.23-3.67-6.25-1.76-2.69-3.62-5.31-5.54-7.89a41.76,41.76,0,0,0-4.81-5.85,111.71,111.71,0,0,0-8.77-7.11,53,53,0,0,0-5.2-3.21,25.19,25.19,0,0,0-3.51-1.84c-1.26-.49-2.49-1.3-4.06-.79l.52-.66c-1.28-.35-2.48-.66-3.66-1-2.91-.86-5.81-1.77-8.73-2.61-1.46-.42-2.94-.74-4.41-1.09a5.47,5.47,0,0,0-4.1.9c-2.4,1.41-4.78,2.86-7.07,4.43-1.56,1.07-3.45,1.61-4.68,3.27-.7.95-2,1.46-2.87,2.28-1.35,1.22-2.6,2.53-3.89,3.81-.5.5-1,1-1.47,1.52,2.6-1.76,5.11-3.6,7.65-5.37q3.06-2.14,6.22-4.13A20.51,20.51,0,0,1,228,11.47c1.12-.5,2.23-1,3.38-1.47a37.44,37.44,0,0,1,4.21-1.33c1.21-.29,2.48-.36,3.72-.53l.12.41c-1.67.79-3.33,1.58-5,2.36-1.46.68-3,1.26-4.39,2s-2.93,1.87-4.43,2.76c-1.11.66-2.33,1.14-3.42,1.83-2,1.24-3.92,2.57-5.87,3.87-.63.42-1.23.87-1.84,1.31-1.17.83-2.35,1.64-3.49,2.51-.8.61-1.54,1.3-2.32,1.95-1.06.89-2.16,1.72-3.18,2.66-1.6,1.48-3.15,3-4.69,4.54-.63.63-1.19,1.32-1.78,2l.23.23a1.72,1.72,0,0,0,.56-.25,22.44,22.44,0,0,1,3.29-3c1.87-1.3,3.52-2.91,5.26-4.38,1-.83,1.94-1.67,2.94-2.48.7-.57,1.44-1.09,2.18-1.6.55-.38,1.13-.71,1.69-1.06,1-.61,2-1.21,2.92-1.83,1.33-.86,2.63-1.77,4-2.58.71-.43,1.53-.66,2.27-1,1-.53,2-1.18,3-1.67,2.14-1,4.31-1.94,6.48-2.87.4-.17.88-.13,1.3-.27.83-.27,1.62-.65,2.45-.88,1.54-.42,3.1-.78,4.65-1.15,1-.23,1.94-.44,2.91-.66l.08.23c-1.42.63-2.85,1.25-4.27,1.9-3.64,1.67-7.32,3.27-10.91,5.06-2.55,1.27-4.95,2.83-7.45,4.2a38,38,0,0,0-10,7.37,7.49,7.49,0,0,1-1.1.84l-.14-.19,3-2.84a23.07,23.07,0,0,0-3.31,2.15c-.59.44-1.17.88-1.73,1.35-1.14,1-2.26,1.94-3.4,2.9-.38.31-.87.5-1.21.84-.92.91-1.75,1.93-2.7,2.81s-2.37,1.84-3.45,2.87c-2,1.94-4,4-6,5.94-1,.95-.86,2,.44,2.76C209.32,32.67,228.7,21,250.24,12.84c-.39,1-1.33,1.62-1.93,1.31a4.83,4.83,0,0,1-.9.79c-2,1-4,1.91-6,2.93-1.63.84-3.19,1.81-4.8,2.67s-3.41,1.69-5.06,2.64c-1.92,1.1-3.79,2.3-5.66,3.5-3.47,2.22-6.94,4.43-10.36,6.72-1.77,1.19-3.48,2.47-5.15,3.8-2.33,1.86-4.59,3.79-6.87,5.7-.77.65-1.52,1.33-2.28,2-1.15,1-2.31,1.93-3.46,2.91l-4,3.39.77,1.27c1.22-1.15,2.4-2.36,3.69-3.45,1.56-1.31,3.18-2.53,4.82-3.73,1.2-.88,2.51-1.61,3.7-2.49.74-.54,1.33-1.29,2.06-1.85s1.62-1,2.4-1.5c1.62-1.11,3.19-2.28,4.81-3.38.85-.58,1.76-1.07,2.65-1.59,1.05-.62,2.13-1.21,3.16-1.87s2.23-1.57,3.39-2.29c1.68-1,3.4-2,5.09-3,1.31-.78,2.6-1.61,3.93-2.38.76-.44,1.58-.77,2.34-1.21,2.13-1.21,4.22-2.49,6.37-3.66s4.45-2.3,6.7-3.42c1.05-.53,2.14-1,3.21-1.48a13.09,13.09,0,0,1-2.8,2.49c-2.83,1.69-5.74,3.25-8.62,4.86l-5.65,3.16c-.41.23-.82.47-1.22.72-1.37.89-2.72,1.83-4.11,2.69-1.21.75-2.49,1.39-3.7,2.14-1,.64-2,1.41-3,2.08-1.22.8-2.5,1.51-3.71,2.32-1.52,1-3,2.08-4.5,3.14-1.28.91-2.51,1.89-3.8,2.79-1.52,1.06-3.09,2-4.6,3.12-1.26.9-2.45,1.9-3.67,2.86-.44.35-.89.68-1.33,1q-1.33,1.09-2.64,2.2l-4.13,3.51.42,1.28c.17.54.37.73.81.17A8.89,8.89,0,0,1,198,54.23c.56-.44,1.24-.73,1.82-1.14,1.47-1,2.86-2.22,4.38-3.18s3.5-1.85,5.17-2.89c2.92-1.81,5.74-3.78,8.66-5.59s6.17-3.7,9.28-5.52a1.69,1.69,0,0,1,.78-.12c.95-.69,1.73-1.35,2.6-1.86q4.43-2.61,8.92-5.14c1.82-1,3.73-1.89,5.47-3.1,1.55-1.08,3.26-1.92,4.91-2.86,1.48-.84,3-1.67,4.46-2.5l.13.22c-1,.71-1.89,1.5-2.91,2.13q-5,3.07-10.12,6c-1.3.76-2.69,1.35-4,2.13-2,1.23-4,2.58-6,3.81-3.5,2.13-7.05,4.17-10.53,6.33-2.7,1.67-5.33,3.45-8,5.21-.77.51-1.47,1.15-2.24,1.67-1.43,1-2.92,1.84-4.33,2.84s-3,2.28-4.53,3.42l-5,3.77a12,12,0,0,0,1.18,1.89c.4.44.87.87,1.63.22,1.44-1.23,3-2.32,4.52-3.43.57-.41,1.23-.71,1.83-1.09,1-.6,1.88-1.25,2.83-1.84q3.27-2,6.57-4.05c.94-.57,1.89-1.11,2.86-1.63s1.7-.79,2.5-1.27c1.78-1.07,3.49-2.27,5.3-3.29,2-1.15,4.17-2.11,6.22-3.23,3.3-1.8,6.55-3.68,9.85-5.47.36-.2.86-.17,1.2-.49,0,0,.11,0,.17.05ZM122.5,7.29C126.09,8.85,135,15.15,136,17.09L120.51,8c-.81.38-1.62.75-2.42,1.15-.14.07-.32.26-.31.38a.63.63,0,0,0,.31.43c1.14.6,2.32,1.14,3.45,1.77s2.26,1.37,3.39,2.06a3.52,3.52,0,0,1-1.9-.18c-2.1-1-4.15-2.11-6.24-3.14a1.06,1.06,0,0,0-.84-.06,25.94,25.94,0,0,0-2.3,1.52c-2.28,1.67-4.51,3.41-6.83,5-1.56,1.07-2.12,3.05-4,3.93-.92.44-1.49,1.62-2.19,2.48-1.48,1.82-2.92,3.68-4.41,5.49S93.3,32.17,92,34s-2.26,3.6-3.39,5.4c-.26.42-.66.75-.89,1.18-.75,1.37-1.39,2.8-2.19,4.14s-1.7,2.57-2.56,3.85c-.51.77-1,1.53-1.52,2.31-.06.09,0,.24,0,.34a11,11,0,0,1-1.09,2.27A19.45,19.45,0,0,0,77,59.14a4.21,4.21,0,0,1-.42.73c-.62,1-1.29,2.07-1.85,3.15-.73,1.39-1.37,2.82-2,4.23-1,2.08-2,4.16-3,6.25-.43.9-.8,1.83-1.19,2.75l-2.62,6c1.74.83,3.3,1.57,4.85,2.33.89.44,1.78.89,2.66,1.35,1.23.64,2.47,1.27,3.69,1.94s2.72,1.51,4.08,2.27c2.07,1.15,4.13,2.34,6.22,3.46,1.59.85,3.26,1.57,4.84,2.44,2.75,1.51,5.45,3.12,8.19,4.65,1.09.61,2.28,1.07,3.36,1.7,1.37.8,2.66,1.72,4,2.59,1.13.73,2.25,1.49,3.41,2.17,1.65,1,3.34,1.84,5,2.78,1.28.72,2.53,1.49,3.81,2.21,2.69,1.51,5.4,3,8.07,4.52,1.24.71,2.37,1.61,3.59,2.34.55.34,1.27.4,1.82.75,1.69,1.08,3.33,2.26,5,3.37s3.29,2.12,5,3.23c.45-1,.84-1.89,1.26-2.77q1.64-3.48,3.3-7c.28-.59.65-1.14.93-1.73.53-1.11.76-2.5,1.58-3.31,1.47-1.47,1.72-3.5,2.85-5.09a37.7,37.7,0,0,0,2.27-4c.51-1,1-1.94,1.45-2.9s1-2,1.57-3c.71-1.2,1.56-2.33,2.26-3.54,1.19-2.06,2.28-4.18,3.48-6.24,1.05-1.81,2.22-3.56,3.28-5.37,1.45-2.49,2.83-5,4.25-7.51,1-1.67,1.92-3.33,2.88-5,1.43-2.48,2.83-5,4.29-7.45.68-1.16,1.5-2.24,2.19-3.39s1.18-2.22,1.79-3.32c.23-.42.68-.79.76-1.23a9.82,9.82,0,0,1,1.66-3.26c.42-.72,1-1.37,1.45-2.06a.62.62,0,0,0,.1-.48c-.28-.75.23-1,.73-1.34s1-.51,1-.8c.07-1,.83-1.48,1.31-2.18.79-1.16,1.54-2.35,2.28-3.54a25.41,25.41,0,0,1,1.5-2.48c.76-1,1.74-1.74,2.53-2.69,1.62-1.94,3.18-3.94,4.77-5.91.61-.76,1.19-1.54,1.83-2.27,1.37-1.57,2.73-3.15,4.16-4.66,1.61-1.69,3.28-3.31,4.95-4.94,1-1,2-2,3.1-2.93s1.88-1.57,2.83-2.35c.52-.43,1-.9,1.57-1.29s1.34-.81,2-1.21c.94-.56,1.88-1.15,2.83-1.7C225.74,6.75,227,6,228.34,5.3l0-.23L207,3.56c1.22,1.19,2.55,2.11,3.73,3.2.42.39,1.42.85.65,1.91-.75-.56-1.45-1.07-2.14-1.6-1.09-.84-2.16-1.7-3.25-2.53a4.78,4.78,0,0,0-1.67-1.09,17,17,0,0,0-3.09,0L205.1,7A8.5,8.5,0,0,1,208,11.31c-1.5-1.38-2.81-2.59-4.13-3.78-1-.91-2-1.85-3.06-2.69-.81-.64-1.52-1.51-2.76-1.45a18.92,18.92,0,0,1-2.67-.18c-.77-.07-1.53-.17-2.3-.25l-.1.28a22.44,22.44,0,0,1,9.08,8.85,6.55,6.55,0,0,1-1.79-1.1C198.84,9.65,197.51,8.2,196,6.9c-1.28-1.12-2.71-2.07-4-3.12A2.79,2.79,0,0,1,191.5,3h-9.41a41.71,41.71,0,0,1,8.63,6.36,42.36,42.36,0,0,1,7.4,7.63,2.51,2.51,0,0,1-1.19-.49c-.8-.63-1.57-1.3-2.36-2a23.18,23.18,0,0,1-3.16-2.67c-1.18-1.41-2.79-2.26-4.07-3.54a29.05,29.05,0,0,0-4.72-3.73c-1.46-.94-2.86-2.22-4.85-2a10.41,10.41,0,0,1-2.1.11,14.72,14.72,0,0,0-5.65.16c1.5.73,2.91,1.4,4.3,2.11a.5.5,0,0,1,.19.37,36.65,36.65,0,0,1,8.11,5.94c2.51,2.21,4.85,4.62,7.27,6.95l-.21.37a5.28,5.28,0,0,1-1.18-.56c-1.42-1.17-2.8-2.4-4.21-3.6s-2.64-2.33-4-3.42c-1.6-1.25-3.25-2.44-4.92-3.6-1.46-1-2.94-2-4.47-2.88a25.17,25.17,0,0,0-3.77-1.82,5.82,5.82,0,0,0-1.89.05c-2.21,0-4.42,0-6.63,0A85.73,85.73,0,0,1,178.2,18a1,1,0,0,1-.72-.13c-1-.74-1.87-1.52-2.82-2.26q-2.52-2-5.08-3.88c-1.47-1.1-2.92-2.22-4.44-3.25-1.85-1.24-3.79-2.36-5.65-3.59S155.61,2.64,153.11,3c-2.7.36-5.46.34-8.45.49l.56.16a7.36,7.36,0,0,1,2.24.53c2.06,1.27,4,2.65,6,4s3.93,2.83,5.83,4.32c1.5,1.16,3,2.38,4.35,3.67,1.69,1.56,3.3,3.2,4.93,4.84a13.78,13.78,0,0,1,1,1.34,5.88,5.88,0,0,1-1.66-1c-1.82-1.58-3.55-3.27-5.44-4.76-2.64-2.09-5.37-4.09-8.11-6.06-3.1-2.23-6-4.77-9.56-6.33a4.45,4.45,0,0,1-.46-.31c-.25-.15-.51-.41-.76-.41a23,23,0,0,0-2.78.18c-.83.11-1.65.32-2.52.5,2.35,1.51,4.59,2.85,6.71,4.34s4,3.16,6.12,4.61,5.42,4.59,5.38,5.41c-.78-.54-1.55-1-2.28-1.6-2.47-1.9-4.85-3.93-7.4-5.71s-5.4-3.57-8.2-5.17c-1.49-.85-2.88-2.22-5-1.47a18.41,18.41,0,0,1-3.38.57l-.1.27c5.2,3.18,10.33,6.46,14.59,10.89a1.81,1.81,0,0,1-.67-.27c-1.64-1.1-3.24-2.24-4.91-3.3-2.83-1.8-5.69-3.54-8.54-5.29-.15-.09-.37-.07-.53-.15a7.53,7.53,0,0,1-2.06-1A1.67,1.67,0,0,0,126.06,6C124.93,6.46,123.76,6.83,122.5,7.29Z"/><path d="M338.1,123c.46.4.92.8,1.37,1.21a11.27,11.27,0,0,1,1.17,1.12q2,2.38,3.85,4.81c1.34,1.72,2.68,3.45,4,5.2a24.72,24.72,0,0,1,1.42,2.29c1.7,2.92,3.37,5.86,5.08,8.77.71,1.21,1.56,2.35,2.24,3.58.93,1.69,1.72,3.46,2.62,5.17.57,1.08,1.22,2.12,1.83,3.19.95,1.66,1.91,3.3,2.82,5,1,1.84,1.94,3.7,2.89,5.56.7,1.37,1.34,2.76,2,4.12.54,1,1.18,2,1.7,3.07.82,1.67,1.6,3.37,2.35,5.08s1.38,3.27,2,4.92c.43,1.09.8,2.2,1.2,3.3s.86,2.09,1.14,3.17q1.13,4.35,2.11,8.74c.2.9.13,1.86.3,2.77a4.92,4.92,0,0,0,.73,1.3c-1,.16-.64,1-.59,1.57a27.52,27.52,0,0,1-.78,8.46c-.27,1.24-.47,2.5-.83,3.71a39.38,39.38,0,0,1-1.53,4.21c-.75,1.73-1.6,3.42-2.42,5.12-.2.41-.41.82-.61,1.22a8.17,8.17,0,0,1,1.21.11,4.23,4.23,0,0,1,.86.41c-.23.23-.43.54-.71.67a12.89,12.89,0,0,0-1.43.45,5.45,5.45,0,0,0-1.5,1.31c-.75,1-.92,2.32-1.88,3.29a9.67,9.67,0,0,0-1.35,2.63c-.22.45-.34,1.14-.69,1.28-1.07.44-1,1.53-1.45,2.28-1,1.56-1.36,3.47-2.78,4.84-.51.49-.58,1.41-1,2.08-.7,1.24-1.47,2.44-2.22,3.65-.25.39-.56.74-.82,1.13-.65,1-1.28,2-1.91,3,0,.05-.12.09-.12.14-.18,1.67-1.44,2.84-2.06,4.3a26.43,26.43,0,0,1-1.66,2.8c-.33.58-.59,1.19-.93,1.77-.71,1.21-1.49,2.39-2.17,3.62-.28.5-.32,1.13-.58,1.65-.54,1-1.15,2.06-1.73,3.08-.84,1.49-1.61,3-2.56,4.45-.79,1.18-1.24,2.62-2.47,3.52-.18.13-.15.53-.27.77-.72,1.45-1.45,2.89-2.18,4.33-.65,1.28-1.3,2.58-2,3.84a13.81,13.81,0,0,1-1.34,2.14c-.28.35.05,1.32-.93,1a4.57,4.57,0,0,0-.13.51,4.72,4.72,0,0,1-.18,1.37,14.7,14.7,0,0,1-1.92,3.41c-.89,1-1.19,2.39-2.39,3.23-.66.46-.93,1.46-1.41,2.18a17.93,17.93,0,0,0-2,3c-.89,2.19-2.93,3.49-4,5.53-.32.62-1.08,1-1.64,1.52-.19.17-.47.28-.57.48-.66,1.4-2,2.21-3,3.28a51.12,51.12,0,0,1-4.14,3.79c-1.06.89-2.23,1.65-3.38,2.44-1.74,1.19-3.46,2.42-5.26,3.5a57.42,57.42,0,0,1-5.24,2.76c-1.53.71-3.15,1.2-4.7,1.88-2.32,1-4.82,1.23-7.25,1.74-.76.16-1.5.46-2.27.55-1.6.19-3.21.29-4.82.4s-2.95.12-4.42.22c-.37,0-.72.35-1.1.39-2.71.28-5.42.52-8.12.77s-5.41.58-8.13.71a37.51,37.51,0,0,0-4.89.38,22.26,22.26,0,0,1-3.63.39c-1.8,0-3.61-.12-5.42-.17a13.22,13.22,0,0,0-2.39,0c-1.11.17-2.19.69-3.32-.16-.18,2.18-.32,4.19-.51,6.21s-.41,3.88-.59,5.82c-.22,2.38-.36,4.77-.6,7.15-.14,1.36-.41,2.71-.62,4.06,0,.06-.08.11-.09.17-.27,2-.51,3.92-.84,5.87a5.77,5.77,0,0,1-.71,1.6c-.27.52-.6,1-1,1.65-.43-.89-.88-1.74-1.25-2.61a1,1,0,0,1,.07-.81c.47-.64.21-1.05-.21-1.59-1.16-1.49-2.24-3-3.34-4.57-1-1.36-2-2.7-2.89-4.1-1.59-2.47-3.12-5-4.68-7.46-.65-1-1.33-2.07-2-3.1-1.22-1.85-2.41-3.72-3.67-5.55-.81-1.18-1.73-2.28-2.59-3.42-.11-.15-.2-.32-.3-.48-1.22-1.92-2.44-3.84-3.65-5.76-.76-1.21-1.49-2.46-2.28-3.65-.34-.51-.87-.9-1.2-1.41-.73-1.13-1.36-2.32-2.08-3.46s-1.59-2.24-2.28-3.41-1.76-1.82-2-3.19c-.1-.54-.76-1-1.17-1.47a6.66,6.66,0,0,1-.5-.65c-.84-1.32-1.57-2.73-2.53-4a7.87,7.87,0,0,1-1.43-2.59c-.13-.42-.6-.72-.86-1.11q-1.55-2.26-3.07-4.55a25.39,25.39,0,0,1-1.94-3.11,5.77,5.77,0,0,1-.32-2.31,6.5,6.5,0,0,1,1.41-.36c.47-.93,1-2.15,1.68-3.3.83-1.44,1.81-2.8,2.64-4.24,1.08-1.88,2.06-3.81,3.1-5.71.59-1.08,1.23-2.13,1.81-3.22.75-1.41,1.37-2.91,2.23-4.26,1-1.53,1.36-3.33,2.49-4.81a25.84,25.84,0,0,0,1.84-3.84c1.06-2,2.24-4,3.3-6s1.95-4,3-6c.5-1,1.24-1.81,1.75-2.77s.89-2,1.32-3.08c0-.09.06-.2.12-.25,1.18-.94,1.25-2.47,2-3.65.92-1.46,1.8-2.94,2.69-4.42a3,3,0,0,0,.21-.49,20.11,20.11,0,0,1,2.42-4.4,23.09,23.09,0,0,0,2.17-3.76,32.46,32.46,0,0,1,2.71-4.78c.87-1.29,1.55-2.7,2.33-4.05q1.6-2.78,3.24-5.54c.56-.95,1.13-1.88,1.65-2.77,1,1.35,1,3,1.07,4.74s.38,3.33.52,5c.12,1.4.18,2.82.21,4.22,0,1.71,0,3.42,0,5.13s.25,3.59.41,5.39.36,3.41.53,5.11c.05.56.05,1.13.08,1.7l1.63-.3a.44.44,0,0,1,.19,0c2.36.7,4.72-.12,7.09-.06a49.27,49.27,0,0,0,5.18-.5c.92-.08,1.84,0,2.77,0,1.9-.05,3.79-.15,5.69-.18.89,0,1.78.18,2.66.17,2.57,0,5.14-.12,7.7-.19.12,0,.3-.1.37,0,1.25.94,2.74.23,4.1.59a16.29,16.29,0,0,0,3,.08c.72,0,1.42.26,2.14.33,1.12.1,2.24.16,3.35.19,1.28,0,2.55,0,3.83,0,.06,0,.15,0,.19,0,1.23,1.11,2.62.21,3.93.33.32,0,.65,0,1,0q1.45.23,2.89.52c1.21.24,2.41.51,3.62.76.64.13,1.31.19,1.94.38.92.28,1.79.69,2.71,1s1.73.41,2.74.65a4,4,0,0,0-.28-.88c-.6-.93-1.3-1.79-1.83-2.75-.63-1.13-1.07-2.35-1.67-3.49-.85-1.62-1.79-3.18-2.65-4.79-.49-.92-.89-1.89-1.35-2.82-.3-.59-.63-1.17-1-1.74-.75-1.29-1.52-2.57-2.25-3.87-1-1.7-1.86-3.43-2.83-5.12-.62-1.08-1.38-2.08-2-3.17s-1.19-2.51-1.86-3.72a16.88,16.88,0,0,0-1.39-1.86c-.13-.17-.26-.35-.38-.54-1.34-2.17-2.67-4.35-4-6.51s-2.58-4.18-3.92-6.23c-.83-1.28-1.79-2.47-2.61-3.76s-1.34-2.47-2.1-3.66c-1.22-1.92-2.55-3.78-3.77-5.7-.73-1.15-1.34-2.37-2.05-3.53-.57-.92-1.29-1.75-1.84-2.67-1.33-2.2-2.58-4.45-3.9-6.66-.57-.95-1.29-1.8-1.84-2.75-1-1.81-2-3.66-2.93-5.54a11.47,11.47,0,0,1,3.06,3.64,39.28,39.28,0,0,0,2.86,4c.94,1.37,1.79,2.81,2.72,4.19,1.18,1.75,2.41,3.48,3.61,5.21,1.05,1.51,2.15,3,3.16,4.54q2.11,3.2,4.11,6.46c.66,1.09,1.14,2.29,1.81,3.37s1.48,2,2.17,3.07c.94,1.41,1.81,2.87,2.75,4.28,1.13,1.69,2.34,3.33,3.45,5s1.94,3.22,2.92,4.83c1.15,1.87,2.34,3.72,3.48,5.6.47.77.8,1.62,1.27,2.39.93,1.5,1.92,3,2.87,4.46.27.42.45.89.7,1.33,1.12,2,2.28,3.89,3.38,5.85.67,1.19,1.26,2.42,1.92,3.61.82,1.5,1.68,3,2.5,4.47.39.71.72,1.45,1.11,2.16.3.55.66,1.07,1,1.63.54,1,1,2,1.58,3.05.46.86,1,1.67,1.44,2.54.52,1.06.85,2.23,1.46,3.23a37.59,37.59,0,0,1,2.94,5.54,35.34,35.34,0,0,0,1.5,3.73c1.2,2.23,2,4.63,3,6.92.46,1,.74,2.07,1.12,3.1.17.46.4.91.6,1.36a2.39,2.39,0,0,1,.2.42c.24,1.07.47,2.14.71,3.21.47,2.09,1,4.16,1.39,6.27a38,38,0,0,1,.59,5.21c.1,2.52.1,5.05,0,7.58a38.3,38.3,0,0,1-1.45,7.41c.15,0,.46,0,.52-.06.69-1.05,1.33-2.14,2-3.19.56-.87,1.21-1.69,1.75-2.58,1-1.62,1.91-3.26,2.86-4.9l.41-.68h-3.59c1.38-.88,2.43-1,3.13-.2l-.12-.74a2.41,2.41,0,0,0,2.14-1.68c.39-.91,1.06-1.7,1.53-2.59a7,7,0,0,0,.37-1.57c1.55-.76,1.89-2.64,2.83-4.12l-.12-.27c-.81.21-1.63.38-2.44.62-3,.9-6.05,1.78-9.3,1.45,1.14-.32,2.28-.67,3.43-1s2.38-.5,3.57-.8a44.24,44.24,0,0,0,5-1.39c.62-.24,1.06-1.08,1.48-1.71.78-1.16,1.51-2.36,2.22-3.57a15.49,15.49,0,0,0,.75-1.77,35,35,0,0,1-15.08,1.8l3-.54c.4-.07.81-.1,1.21-.16,1.42-.19,2.85-.32,4.26-.59,1.82-.35,3.62-.81,5.42-1.22.06,0,.11-.08.17-.09a3,3,0,0,0,3-2.19,28.42,28.42,0,0,1,2.25-4,1.7,1.7,0,0,0,.06-.66.14.14,0,0,0,0-.16c.2-.29.43-.57.6-.87,1-1.65,1.89-3.32,2.86-5,.59-1,1.21-2,1.81-3a94.08,94.08,0,0,1-22.48,5.24l-.06-.24c2.74-.61,5.49-1.18,8.21-1.83,1.49-.36,3-.83,4.42-1.27,3.37-1,6.76-2,10.09-3.09a3.28,3.28,0,0,0,1.44-1.52c.92-1.6,1.68-3.29,2.58-4.9.47-.84,1.09-1.59,1.75-2.53-1.9.75-3.63,1.44-5.37,2.11a14.71,14.71,0,0,1-1.69.52c-1.76.44-3.53.86-5.3,1.3-1,.26-2.07.55-3.11.78q-2.23.49-4.47.91a21.29,21.29,0,0,1-3.09.45c-1.32,0-2.53.61-3.83.71s-2.69.24-4.28.38a10.36,10.36,0,0,1,5.58-1.62,8.83,8.83,0,0,0,2-.47c1.78-.38,3.57-.71,5.33-1.14,1.52-.37,3-.89,4.53-1.29,1.19-.31,2.41-.52,3.6-.82,1.68-.42,3.36-.86,5-1.35,1.86-.55,3.71-1.12,5.53-1.78a2.4,2.4,0,0,0,1-1.09c.78-1.37,1.5-2.78,2.25-4.18l1-1.85c-4.64,1-9.23,2.06-13.86,2.9s-9.43,1.44-14.14,2.15l-.07-.39c1.18-.25,2.35-.54,3.53-.75,2.33-.42,4.68-.73,7-1.2,3.2-.64,6.38-1.37,9.56-2.09,2.45-.56,4.87-1.21,7.33-1.72a4.13,4.13,0,0,0,2.75-2.51c.86-1.57,1.7-3.15,2.54-4.73.1-.19.19-.4.45-.91-1.15.3-2,.56-3,.76-3.05.66-6.11,1.28-9.17,1.94-.67.14-1.31.41-2,.51a6.85,6.85,0,0,1-1.33-.12,1.58,1.58,0,0,0-.66.08,9.67,9.67,0,0,1-1.9.81c-2.81.46-5.64.82-8.47,1.2a8.57,8.57,0,0,1-1.14,0l-.08-.3c.44-.13.87-.29,1.32-.38,1.55-.31,3.1-.56,4.64-.88,4-.86,8-1.75,12.06-2.62,3.3-.71,6.61-1.36,9.88-2.18A3,3,0,0,0,371.5,230c1.16-2.36,2.18-4.79,3.25-7.2a1.18,1.18,0,0,0,0-.35c-.87.22-1.71.47-2.55.65-3.14.67-6.28,1.35-9.44,2-2.11.41-4.25.71-6.38,1-1.63.26-3.26.55-4.89.74-1.07.12-2.16.07-3.24.13l-5.32.29a1.33,1.33,0,0,1-.84-.21c5.31-.94,10.63-1.86,15.94-2.82s10.66-2,16-3.17l-1.34-.4,0-.31h3l1.43-4c-4.08.6-7.87,1.22-11.68,1.71s-7.69.87-11.53,1.29l-.12-.39a3.93,3.93,0,0,1,1-.45c2.25-.38,4.5-.72,6.75-1.09,2.87-.47,5.73-1,8.6-1.41,1.26-.19,2.54-.28,3.81-.59l-1.19-.19c1.68-.84,3.25-.13,4.78-.62l.89-3.84c-2.26.5-4.31,1-6.38,1.41a14.94,14.94,0,0,1-2.9.41c-.72,0-1.3.71-2.18.21-.34-.19-1.2.53-1.82.83l-.19-.22c.41-.35.78-.87,1.25-1,2.28-.67,4.6-1.23,6.9-1.85,1.34-.36,2.68-.74,4.26-1.18l-1.08-.37c.28-.59.28-.59,2-.63v-2.09a24.5,24.5,0,0,1-2.59.33,3.54,3.54,0,0,1-1.2-.43l.08-.3c.79-.18,1.57-.37,2.36-.53,1.5-.29,1.6-.3,1.34-1.67-.49-2.61-1.08-5.21-1.67-7.8a36.77,36.77,0,0,0-1-3.88c-.55-1.59-1.26-3.13-1.87-4.7-.42-1.08-.79-2.17-1.18-3.25-.46-1.27-.82-2.59-1.39-3.81-1.14-2.43-2.4-4.81-3.59-7.22-.72-1.46-1.37-2.95-2.1-4.4-.88-1.74-1.9-3.4-2.71-5.17-1.1-2.4-2.61-4.57-3.7-7-.74-1.63-1.8-3.12-2.66-4.7-.46-.85-.77-1.79-1.22-2.66s-1.08-1.85-1.62-2.77c-1.16-2-2.22-4-3.49-5.92-1.91-2.85-4-5.6-6-8.4a62.22,62.22,0,0,0-3.83-5.36,20.68,20.68,0,0,1-1.64-2.9c-.16-.25-.3-.51-.45-.76ZM306.73,253.1c.49,2.5.88,4.67,1.34,6.82.18.85.62,1.66.73,2.52.28,2.08.43,4.17.67,6.25.11.91.43,1.8.49,2.71.13,2,.08,3.92.24,5.86s.44,3.79.41,5.72c0,3,.22,6.05.35,9.08.07,1.62.1,3.25.19,4.87.07,1.31.3,2.62.29,3.93q-.07,5.22-.32,10.43a14.32,14.32,0,0,1-.63,2.57c-.28-.36-.43-.47-.45-.6a33.06,33.06,0,0,1-.58-3.76c-.1-1.84,0-3.68,0-5.53,0-1.18-.1-2.37-.2-3.55s-.3-2.2-.35-3.31c-.06-1.53,0-3.06,0-4.59,0-1.37-.07-2.74-.2-4.11s-.37-2.56-.54-3.84-.32-2.27-.39-3.41c-.09-1.53,0-3.07-.17-4.59-.21-2.37-.54-4.73-.82-7.1-.22-1.85-.4-3.71-.66-5.55s-.6-3.53-.88-5.3-.54-3.74-.81-5.61c0,0-.1-.07-.23-.15l-.1.45c-.73-.27-1.47-.59-2.23-.8s-1.55-.31-2.35-.46c.44,2.93.89,5.66,1.26,8.4.32,2.39.56,4.79.8,7.2.16,1.56.25,3.12.38,4.69.19,2.37.4,4.74.56,7.12.1,1.43.11,2.87.19,4.31q.28,5,.59,9.91c.08,1.29.29,2.58.32,3.88s-.1,2.44-.16,3.66h-.29c-.32-1.54-.67-3.08-.95-4.63s-.49-2.86-.62-4.3c-.19-2-.29-4.07-.4-6.11,0-.68,0-1.38,0-2.05-.08-.85-.32-1.69-.37-2.55-.1-1.66-.13-3.32-.18-5a3.22,3.22,0,0,0-.05-.47,26.22,26.22,0,0,1-.48-2.62c-.14-1.67-.12-3.35-.27-5s-.44-3.1-.61-4.66c-.1-.91,0-1.85-.19-2.74a22.17,22.17,0,0,1-.74-4.76,16,16,0,0,0-.52-3.15c-.06-.35-.06-.92-.26-1-.9-.37-1.85-.6-2.79-.89,1.5,15.33,1.06,30.52,1.62,45.68a73.05,73.05,0,0,1-1.09-7.88c-.21-2.35-.29-4.72-.42-7.08s-.22-4.91-.37-7.37c-.17-2.86-.38-5.72-.55-8.59,0-.54,0-1.09,0-1.64,0-1.12,0-2.24-.09-3.36-.12-1.45-.41-2.88-.47-4.33-.08-1.88,0-3.78,0-5.71l-5.4-.88v1.61a3.2,3.2,0,0,1,.53,1.08c.18,2.32.33,4.65.39,7,0,1.73-.15,3.48-.1,5.21.08,2.78.28,5.55.43,8.33.16,3,.31,6.08.47,9.12,0,.93.12,1.87.18,2.8l-.3.05a3.15,3.15,0,0,1-.23-.64c-.16-1.25-.3-2.5-.46-3.75-.18-1.47-.33-2.94-.55-4.4a83.59,83.59,0,0,1-.93-12.64c0-.78,0-1.55,0-2.33,0-1.13-.13-2.25-.21-3.38-.11-1.46-.22-2.91-.35-4.36-.08-.89-.25-1.77-.31-2.66S286,250,285,250c-1.25,0-2.51.07-3.76,0-2-.11-4-.3-6.15-.46,1.06,2.12,1.55,13.6.64,15.3-.08-.59,0-1.2-.09-1.79-.33-2.25-.76-4.48-1.05-6.73-.24-1.87-.34-3.76-.52-5.64a1.56,1.56,0,0,0-1.42-1.58,6.43,6.43,0,0,0-1.49-.18c-.25,0-.68.43-.66.64.1,1.1.38,2.18.46,3.27.09,1.26,0,2.53,0,3.79a3.28,3.28,0,0,1-.5-1.14c-.64-1.82-.46-3.85-1.65-5.55-.79-1.13-.68-1.24-2.07-.69v3.05l-.29.06c-.27-1-.51-2-.84-3a1,1,0,0,0-.71-.62c-.82,0-1.64.13-2.46.11-1.57,0-3.14-.16-4.7-.22-.52,0-1.05.08-1.58.06-.89,0-1.78-.14-2.68-.15-.36,0-.73.2-1.1.2-1.72,0-3.45-.09-5.17-.06-1.93,0-3.86.26-5.78.18a2.74,2.74,0,0,0-2.06.52,1.64,1.64,0,0,1-2.64-.93c-.14-.82-.18-1.66-.29-2.49-.06-.39-.24-.77-.27-1.16-.07-.8-.07-1.6-.11-2.4s-.12-1.51-.15-2.27c0-1.09,0-2.19,0-3.28q0-3.73-.09-7.47s0-.06,0-.09c0-.83,0-1.65,0-2.48,0-1.12,0-2.23,0-3.34,0-.89-.14-1.79-.21-2.68h-.26c-.15.27-.3.54-.43.82-1.35,2.7-2.68,5.4-4,8.09-.23.46-.6.85-.85,1.3-1.15,2.09-2.15,4.28-3.47,6.25a51.79,51.79,0,0,0-3.06,5.82c-.32.65-.74,1.24-1.09,1.88-.78,1.44-1.54,2.88-2.31,4.33a35.42,35.42,0,0,0-1.91,3.66,21,21,0,0,1-2.43,4.67,10.34,10.34,0,0,0-.86,1.35c-.85,1.7-1.63,3.44-2.52,5.12-1,2-2.2,3.93-3.27,5.91-.78,1.45-1.5,2.93-2.24,4.39-.55,1.08-1.08,2.16-1.65,3.23-.32.61-.68,1.19-1,1.78-.59,1-1.22,2-1.79,3-.77,1.37-1.47,2.8-2.27,4.15-1.15,1.94-2.38,3.83-3.56,5.75-.56.91-1.08,1.86-1.67,2.75s-1.17,1.62-1.81,2.5a8.13,8.13,0,0,1,1.76,1.74c1.11,2.12,3,3.68,4,5.94.72,1.68,2.3,2.93,3,4.71.06.17.25.28.36.44,1.33,1.91,2.68,3.81,4,5.74.94,1.4,1.84,2.82,2.73,4.26.29.47.46,1,.71,1.49a7.13,7.13,0,0,0,.53.89,9.42,9.42,0,0,1,1.63,2.34c.64,2.17,2.34,3.62,3.37,5.52.53,1,1.23,1.86,1.82,2.81,1.1,1.79,2.16,3.6,3.28,5.38.55.88,1.62,1.64,1.71,2.54s.81,1.26,1.28,1.81a5.76,5.76,0,0,1,.64.66c.71,1.18,1.38,2.39,2.08,3.58,1.27,2.16,2.53,4.33,3.84,6.47,1.14,1.86,2.33,3.68,3.51,5.51.44.67.95,1.3,1.36,2s.61,1.24.91,1.86c.21-1.74.74-3.35.55-5.1a21.66,21.66,0,0,1,.27-5.06c.26-2,.09-4.07.51-6.09.26-1.26.86-2.56.26-3.93a1.86,1.86,0,0,1,0-1c.28-1.26.67-2.49.87-3.76a2,2,0,0,1,3-1.52,1.29,1.29,0,0,0,.73.16c1.34-.14,2.67-.32,4-.48a27.58,27.58,0,0,1,3.59,0,58,58,0,0,0,6.13-.65c1.73-.17,3.48-.2,5.21-.37,2.36-.23,4.71-.54,7.06-.8s4.66-.47,7-.69c.39,0,.79,0,1.18,0,1.26-.13,2.51-.31,3.77-.43,1.09-.1,2.19-.06,3.26-.23,2.09-.32,4.17-.75,6.26-1.14,1-.18,1.9-.38,2.85-.57a2.55,2.55,0,0,0,.93-.21c1.56-1.11,3.74-.66,5.17-2.08,0,0,.12,0,.19,0a14,14,0,0,0,1.71-.28,15.52,15.52,0,0,0,1.82-.71c.66-.28,1.31-.57,2-.89a25.48,25.48,0,0,1,3.89-1.87,6.39,6.39,0,0,0,2.9-1.6c2.16-2.13,4.41-4.18,6.62-6.27a16.12,16.12,0,0,0,1.32-1.33c.5-.6.29-1.34.33-2,.14-2.52.44-5,.53-7.56.07-1.91-.13-3.83-.16-5.75,0-1.43.09-2.86.06-4.29,0-1.94-.12-3.89-.29-5.82-.19-2.29-.49-4.57-.75-6.85q-.28-2.49-.57-5c-.14-1.16-.21-2.34-.44-3.48-.44-2.18-1-4.33-1.47-6.51-.38-1.81-.62-3.66-1-5.47a22.47,22.47,0,0,0-.89-2.6l-.25.06c.16.76.3,1.52.47,2.28.48,2.12,1.36,4.16,1.06,6.41a1.78,1.78,0,0,0,.06.47c.3,2.08.69,4.15.87,6.24.14,1.68,0,3.38,0,5.07,0,.66.16,1.32.16,2,0,.86-.18,1.73-.13,2.58.08,1.48.35,2.94.4,4.42.1,2.74.1,5.48.14,8.22,0,.84,0,1.67,0,2.51,0,.62-.09,1.24-.09,1.86,0,1.39.14,2.78.07,4.16-.12,2.16-.34,4.32-.57,6.47,0,.41-.38.8-.41,1.21a12.48,12.48,0,0,0,.12,1.83l-.28,0c-.1-.19-.28-.38-.28-.57,0-2.21,0-4.42,0-6.63,0-1.41,0-2.82-.1-4.23-.13-1.9-.41-3.79-.53-5.7-.18-2.61-.25-5.23-.42-7.84,0-.71-.3-1.41-.34-2.12a21.82,21.82,0,0,0-.08-3.39,51.89,51.89,0,0,1-.9-7.54c-.16-2.21-.19-4.42-.36-6.63-.06-.74-.6-1.49-.51-2.17a9,9,0,0,0-.28-4.09,15,15,0,0,1-.13-1.82c-.28-1.56-.62-3.11-.95-4.66-.4-1.93,0-4.17-2.17-5.39A16.31,16.31,0,0,0,306.73,253.1ZM320,274.57l-.33.08c2.07,12.94,3.23,25.89.83,39l.34-.27c1.79-1.55,2.16-3.82,2.87-5.89a18,18,0,0,0,.71-3.3,27.18,27.18,0,0,0,.55-5.32c-.14-2.32.16-4.68-.51-7a41.83,41.83,0,0,1-.6-4.38c-.3-1.7-.68-3.4-1.1-5.08-.27-1.05-.69-2.06-1-3.09-.23-.67-.48-1.35-.72-2Z"/><path d="M73.24,220.16l4.62,2.71c1-1.73,2-3.49,3.12-5.18,1.3-2,2.7-3.94,4-5.92.47-.7.85-1.47,1.26-2.21.3-.54-.14-.72-.49-.79-1.41-.26-2.32-1.33-3.45-2s-2.32-1.6-3.46-2.42c-.33-.23-.62-.51-.94-.77l.17-.29,7.4,4-.27-.76,2.31,1.3c.65-.91,1.33-1.85,2-2.81a4.14,4.14,0,0,0,.34-.86l0,0c.71-1,1.41-2,2.12-3,.89-1.25,1.83-2.46,2.67-3.75,1.39-2.14,2.71-4.33,4.09-6.49.49-.77,1.1-1.46,1.61-2.22,1-1.51,2-3.06,3-4.55a21.35,21.35,0,0,1,2-2.36.88.88,0,0,1,.8,0c2.07,1.11,4.15,2.21,6.17,3.41,1.78,1.06,3.48,2.26,5.25,3.35,1.37.85,2.8,1.61,4.19,2.45s2.7,1.69,4.06,2.53c1.1.67,2.21,1.32,3.32,2l.21-.19c-.55-1-1.12-2-1.64-3.05-.68-1.33-1.32-2.68-2-4s-1.51-2.88-2.29-4.31-1.66-3-2.46-4.45c-1-1.83-1.93-3.68-2.88-5.53s-2-4-3-5.91c-.8-1.51-1.68-3-2.51-4.48-.33-.6-.61-1.24-.93-1.85-1.19-2.3-2.4-4.59-3.58-6.89-.75-1.46-1.43-3-2.19-4.41s-1.52-2.74-2.25-4.12c-.86-1.64-1.68-3.3-2.54-4.94s-1.83-3.4-2.73-5.11c-.7-1.33-1.38-2.67-2.05-4q-1.38-2.74-2.74-5.5a50.42,50.42,0,0,1-2.64-5.51c-.49-1.4-1.11-1.61-2.42-1.3a6.81,6.81,0,0,1-2.28-.24c-.16,0-.31-.08-.46-.09l-5-.2c-1.21-.05-2.42-.15-3.63-.19a48,48,0,0,0-7.19-.08c-2.09.26-4.1-.45-6.19,0a18.73,18.73,0,0,1-3.88-.1c-1,0-2.06.13-3.09.17-.69,0-1.38,0-2.06,0-.39,0-.79.18-1.18.16s-.88-.29-1.32-.31c-1.12,0-2.24,0-3.36,0-.64,0-1.28-.06-1.93,0-2.77,0-5.54.14-8.31.14s-5.38-.12-8.06-.14c-1.4,0-2.79.1-4.19.1-1.23,0-2.46-.1-3.69-.11-.92,0-1.84.08-2.76.06-1.14,0-2.29.57-3.43,0a.36.36,0,0,0-.28,0,5.42,5.42,0,0,1-3,.3c-1.85-.14-3.71-.14-5.57-.2-.22,0-.44,0-.66-.08l-.06.23a5.33,5.33,0,0,1,.87.4c2.21,1.53,4.4,3.09,6.61,4.62.72.5,1.48.94,2.2,1.44.52.36,1,.79,1.51,1.14s1.37.82,2,1.29,1.22,1.07,1.85,1.56c2.13,1.67,4.29,3.31,6.43,5a3.08,3.08,0,0,1,.63.58,1.1,1.1,0,0,1-.88,1.84.67.67,0,0,0-.45.2c-.71,1.14-1.42,2.28-2.09,3.44-.37.65-.67,1.34-1,2-1.31,2.37-2.6,4.76-3.95,7.11-1.09,1.91-2.27,3.77-3.39,5.65-.19.32-.28.7-.48,1q-1.77,2.85-3.56,5.68a45.26,45.26,0,0,0-2.76,4.38C9,169.26,7.78,172.1,6.69,175a54.56,54.56,0,0,0-2,6.68c-.5,2.11-.81,4.26-1.14,6.41a55.44,55.44,0,0,0-.72,5.83,47.4,47.4,0,0,0,.27,5c.09,1.48.07,3,.27,4.43.26,1.91.64,3.81,1.05,5.7.57,2.62,1.17,5.23,1.83,7.83.4,1.56.89,3.1,1.41,4.63s1,3,1.65,4.41a31.56,31.56,0,0,0,2.74,5.52,40.12,40.12,0,0,1,3.16,6c.34.72,1.07,1.31.83,2.34-.07.31.73.8,1.08,1.25s.62,1,.92,1.44l.73-6.75.28,0a9,9,0,0,1,.46,2.11c0,2.09-.31,4.19-.3,6.28a6.7,6.7,0,0,0,.8,2.53,28.08,28.08,0,0,0,1.47,2.67,5.46,5.46,0,0,0,1.1,1.32c-.09-1.48-.25-3-.26-4.43s.12-3.12.17-4.69a8.86,8.86,0,0,1,1.3-4.47c0,2.45,0,4.77,0,7.09,0,1.34.15,2.68.11,4a4,4,0,0,1-.61,1.35c1.22,0,.31,1.15.54,1.75s-.09,1.14,0,1.71a3.7,3.7,0,0,0,.44,1.27c.4.78.86,1.53,1.26,2.3a16.63,16.63,0,0,0,1.18,2.15c.1-1.72.19-3.44.3-5.16,0-.62.16-1.23.23-1.85a4.5,4.5,0,0,0,0-.74c0-.21-.17-.48-.09-.63.73-1.41.4-3,.71-4.46a10,10,0,0,1,1.84-4.7c-.18,2.17-.36,4.11-.5,6.06-.1,1.36-.1,2.74-.23,4.1-.2,2-.6,4-.71,6a28.54,28.54,0,0,0,.23,5.1,6,6,0,0,0,1.06,2q1.39,2.35,2.81,4.68a.36.36,0,0,0,.17.11,76.29,76.29,0,0,1,2.24-22.34l.37,0c-.17,2-.38,4.08-.51,6.12-.11,1.74-.08,3.5-.18,5.24s-.28,3.68-.4,5.52a4.93,4.93,0,0,0,.08,1.33.87.87,0,0,1-.67,1.18c.87,1.27.75,2.72.71,4.14a6.73,6.73,0,0,0,1.12,3.84c.84,1.35,1.48,2.82,2.22,4.23a2,2,0,0,0,.68.81c-.05-1.14-.12-2.28-.15-3.41,0-.82,0-1.64,0-2.45a10.22,10.22,0,0,0,0-1.72,9.85,9.85,0,0,1,.32-4.57,6.72,6.72,0,0,0-.07-1.59,20,20,0,0,1,.26-4.52c.58-2.15.2-4.4.9-6.5.22-.65.52-1.27.8-2a8.43,8.43,0,0,1,.44,4.44c-.13,1.92-.23,3.84-.37,5.76-.09,1.13-.27,2.26-.36,3.39s-.19,2.45-.19,3.67c0,2.51.14,5,.13,7.52,0,1.43-.38,2.87-.26,4.28a9.31,9.31,0,0,0,1.11,2.82c.48,1.05,1,2.09,1.52,3.12s1.21,2.31,1.82,3.47c-.08-1.78-.21-3.53-.21-5.28s.11-3.61.19-5.41a35.85,35.85,0,0,1,.35-5.25c.33-1.65-.16-3.44.68-5a2.81,2.81,0,0,1-.14-.86c.45-3.4.91-6.8,1.43-10.19a13.14,13.14,0,0,1,.78-2.25c.65,2.43,0,4.73-.2,7.06-.25,2.71-.44,5.43-.66,8.15-.12,1.55-.29,3.1-.37,4.65-.06,1.17,0,2.34,0,3.51,0,.84-.11,1.68-.15,2.52a19,19,0,0,0-.14,4.41c.24,1.25-.1,2.44.11,3.64a6.36,6.36,0,0,0,.19.81c.09.28.34.74.29.78a7,7,0,0,1-1.19.54l3.62,7.59.29-.07c-.07-1.22-.17-2.45-.21-3.67s0-2.44,0-3.66c0-1.76-.06-3.52,0-5.28.11-2.41.33-4.82.51-7.23.14-2,.24-4,.46-5.92.16-1.44.49-2.85.75-4.28s.51-2.77.77-4.15a.72.72,0,0,1,.47-.51c0,1.28,0,2.57,0,3.84-.07,1.67-.21,3.34-.35,5-.1,1.13-.28,2.26-.36,3.39-.16,2.34-.27,4.69-.39,7-.07,1.34-.16,2.67-.18,4,0,.83.13,1.66.15,2.48,0,.34-.15.68-.15,1,0,1.44.11,2.88.15,4.32s0,2.74,0,4.11c0,1.07.09,2.13.2,3.19a3,3,0,0,0,.44,1c.72,1.31,1.43,2.63,2.2,3.92a14.09,14.09,0,0,0,1.27,1.54,109.2,109.2,0,0,1,1.52-26.06h.32c0,1.14,0,2.28,0,3.42s-.24,2-.28,3c-.12,3.21-.16,6.42-.28,9.63-.08,2.07-.26,4.13-.37,6.2-.08,1.54-.15,3.07-.18,4.61a1.58,1.58,0,0,0,.25.87c.73,1.08,1.47,2.16,2.29,3.18a7.68,7.68,0,0,0,1.36,1.08c-.05-1-.15-2.09-.15-3.18,0-1.45.07-2.91.16-4.36,0-.28.26-.55.37-.83s.19-.55.14-.58c-.72-.41-.38-1-.33-1.57.22-2.92.37-5.84.6-8.75.09-1.1.33-2.2.51-3.29h.29c0,1.52.08,3,.09,4.55s.05,3.18,0,4.76c-.08,2.1-.29,4.19-.36,6.29-.06,1.89,0,3.79,0,5.68a8.83,8.83,0,0,1,0,1.49c-.29,1.63.65,2.42,1.95,3a3.25,3.25,0,0,1,.58.5c.09-1.59-.82-3.07.11-4.77.13.68.22,1.1.3,1.53s.12.93.22,1.38c.28,1.22.12,2.61,1.19,3.53a16.26,16.26,0,0,0,1.93,1.33c1,.61,1.91,1.2,2.89,1.76a8.15,8.15,0,0,0,1.32.54c1.53.55,3.06,1.1,4.6,1.61.45.15,1,.11,1.41.23,2.71.73,5.41,1.54,8.14,2.23a36.28,36.28,0,0,0,4.46.8c1,.12,2,0,3,.06,1.18.12,2.34.43,3.51.59s2.34.22,3.51.34c1.35.14,2.7.33,4.06.45.72.06,1.46,0,2.19,0,.3,0,.6.07.9.09,2.26.2,4.51.41,6.77.58,2,.15,4,.3,6.05.38,2.45.1,4.9.13,7.35.21,1,0,1.94.19,2.91.18,3.07,0,6.12.17,9.18.37,1.2.08,2.42-.07,3.63,0,1.37,0,2.74.19,4.12.23.63,0,1.26-.14,1.89-.16q3.4-.12,6.8-.19c1,0,2.08,0,3.18,0,.08-1.22.14-2.37.25-3.51.17-1.89.44-3.78.55-5.67.09-1.65,0-3.32,0-5,.07-1.88.34-3.76.34-5.63,0-2.15-.26-4.3-.31-6.45,0-1.83.07-3.66.09-5.48,0-.72-.07-1.45-.09-2.17s0-1.32,0-2c0-2.38,0-4.76,0-7.14,0-.64-.12-1.27-.09-1.9.08-1.9.23-3.79.29-5.69,0-1.1,0-2.21,0-3.31s0-2.46.07-3.69c.1-1.83.26-3.66.36-5.49,0-.9,0-1.82,0-2.72.16-2.34.38-4.68.53-7,0-.59-.19-1.2-.14-1.79.15-1.81.5-3.62.52-5.43,0-1.24.63-2.51-.07-3.76-.12-.21.07-.59.11-.9a12.76,12.76,0,0,0,0-3.19,5.15,5.15,0,0,1,.4-1.65,2.29,2.29,0,0,1,1.49,2.34c.13,1.79.42,3.57.44,5.35s-.23,3.55-.34,5.33c0,.46,0,.92,0,1.38-.1,1.87-.28,3.74-.33,5.62,0,1.26.16,2.53.13,3.8s-.26,2.75-.33,4.13,0,2.85,0,4.28c-.06,2.12-.21,4.24-.24,6.37,0,2.5,0,5,.05,7.49,0,2.67,0,5.34,0,8-.06,2.43-.27,4.86-.36,7.29s-.11,5.1-.21,7.65c-.08,2.06-.26,4.11-.37,6.16-.06,1-.07,2-.12,3-.08,1.73-.13,3.47-.29,5.2-.2,2.07-.43,4.14-.8,6.18a8.32,8.32,0,0,1-1.08,2.14l-.29-.13-.09-1.72c-.47.08-.86.17-1.26.21-1.82.2-3.64.41-5.47.58-2.34.21-4.69.43-7,.56-1,.06-2-.15-3-.16-2.83,0-5.66,0-8.49,0-2,0-4-.27-6-.34-1,0-2,.16-3.07.16-2,0-4.05-.09-6.08-.14-1.08,0-2.16,0-3.24-.07-1.57-.1-3.13-.29-4.69-.41-1-.08-2.07-.12-3.1-.14s-1.89,0-2.83,0q-3.41-.26-6.8-.63c-2.43-.26-4.85-.58-7.28-.84-.61-.07-1.24,0-1.84-.06-1.1-.2-2.17-.53-3.26-.74-1.25-.24-2.52-.39-3.77-.61-.67-.12-1.33-.3-2-.46-1.25-.3-2.52-.56-3.76-.9-.62-.17-1.19-.56-1.81-.75-1.32-.4-2.67-.69-4-1.12a9,9,0,0,1-2.1-1,41,41,0,0,0-5.26-3.48c-1.21-.54-1.86-1.64-3-2.14-.49-.21-.79-.84-1.19-1.26-.8-.82-1.65-1.58-2.4-2.43-.54-.6-.95-1.31-1.44-2-.31-.42-.67-.8-1-1.22a32.39,32.39,0,0,1-2-2.63c-1-1.58-1.52-3.39-2.87-4.77a8.39,8.39,0,0,1-1.18-2.31Q46.83,302.76,46,301c-.63-1.36-1.21-2.74-1.88-4.08a36.33,36.33,0,0,1-2-4.77,33.64,33.64,0,0,0-2.35-4.39c-1.2-2.32-2.33-4.68-3.51-7-.87-1.72-1.73-3.44-2.68-5.12s-1.87-3-2.77-4.55c-.42-.72-.7-1.52-1.12-2.24-.67-1.17-1.43-2.28-2.11-3.45-.3-.53-.4-1.19-.73-1.69a50.94,50.94,0,0,1-4-7.65A49.28,49.28,0,0,0,20,251.23c-.24-.42-.31-1-.58-1.36a5.27,5.27,0,0,0-1-.87c-.11-.1-.32-.22-.31-.31.19-1.49-1-2.42-1.49-3.63a60.82,60.82,0,0,0-2.82-5.7c-.78-1.45-1.72-2.82-2.53-4.25-.61-1.07-1.13-2.18-1.69-3.28-.68-1.33-1.3-2.69-2-4a2.76,2.76,0,0,1-.34-1.56c0-.64-.6-1.27-.86-1.93-.67-1.72-1.35-3.43-1.92-5.18-.65-2-1.21-4-1.78-6-.39-1.37-.78-2.75-1.09-4.14a5.73,5.73,0,0,1,.11-1.35,1.15,1.15,0,0,0-.19-.46,5.73,5.73,0,0,1-.77-1.65c-.15-1.42-.1-2.87-.18-4.3-.06-1-.28-2-.33-3.07,0-.8-.54-1.64.14-2.41a.56.56,0,0,0,0-.47,3.63,3.63,0,0,1,0-2.59c.32-1.08.22-2.28.45-3.39.55-2.7,1.15-5.4,1.82-8.08A37.2,37.2,0,0,1,4,176.86c.74-1.91,1.74-3.73,2.35-5.68.46-1.47,1.38-2.67,2-4.06.67-1.6,1.69-3.05,2.5-4.6.67-1.26,1.23-2.58,1.89-3.84.55-1,1.2-2,1.78-3.07.27-.48.49-1,.74-1.5.87-1.66,1.69-3.34,2.62-5,1.13-2,2.35-3.89,3.51-5.85.71-1.19,1.34-2.42,2.06-3.6.82-1.33,1.69-2.63,2.62-4.06-.7-.53-1.53-1.17-2.38-1.78A18.89,18.89,0,0,1,21.22,132a32,32,0,0,0-3.55-2.56c-1.26-.93-2.48-1.93-3.74-2.87-.76-.57-1.57-1.06-2.34-1.62-.32-.23-.57-.57-.88-.81-.56-.43-1.14-.84-1.72-1.25a1.54,1.54,0,0,1-.17-.09c-1.2-1.14-2.41-2.26-3.58-3.42a8.16,8.16,0,0,1-.86-1.16c.55-.21,1.05-.42,1.57-.58A12,12,0,0,1,8.4,117c1.92-.14,3.85-.1,5.76-.23,1.7-.12,3.38-.4,5.07-.53,1.28-.1,2.57-.08,3.85-.08,2,0,3.93.06,5.9,0,1.56,0,3.13-.18,4.69-.17,3,0,5.92.14,8.88.19,1.69,0,3.38,0,5.07,0,.21,0,.42.15.64.16,2.72.08,5.45.17,8.17.2,2.91,0,5.81,0,8.72,0,3.77,0,7.54.13,11.31.18,2.12,0,4.25,0,6.38,0,2.64.08,5.28.2,7.92.41a1.73,1.73,0,0,1,1.26.92,4.5,4.5,0,0,1-.17,1.79l-.24,0L94,124.2c1.11,2,2.24,4,3.33,6,.67,1.25,1.27,2.53,1.94,3.78,1.71,3.23,3.45,6.44,5.14,9.68,1,1.93,2,3.9,2.94,5.84.2.38.61.7.69,1.09a14.92,14.92,0,0,0,1.42,3c.15.32.3.65.47,1l3.48,6.58c1.36,2.58,2.75,5.15,4.08,7.76,1.17,2.29,2.24,4.63,3.4,6.92.78,1.54,1.68,3,2.47,4.54,1.06,2,2.07,4.1,3.13,6.14.57,1.1,1.23,2.14,1.81,3.24,1.24,2.37,2.45,4.77,3.69,7.14a14.15,14.15,0,0,0,.89,1.34,3.44,3.44,0,0,1-2.6-.78c-1.11-.75-2.33-1.34-3.5-2-1.53-.88-3.05-1.77-4.58-2.64-2.38-1.36-4.78-2.69-7.16-4.06-1.19-.69-2.33-1.46-3.51-2.16-1.53-.92-3.08-1.8-4.61-2.72-.44-.26-.67-.13-.91.29-1,1.74-2,3.48-3.09,5.17-.65,1-1.48,1.89-2.16,2.88s-1.22,2-1.86,3c-1.45,2.28-2.93,4.55-4.37,6.83-1.71,2.7-3.37,5.44-5.11,8.13-1.05,1.62-2.24,3.15-3.31,4.76s-1.95,3.12-3,4.66c-.64,1-1.38,1.86-2,2.82-1,1.44-1.9,2.91-2.86,4.35-.36.54-.77,1-1.15,1.57-.59.81-1.16,1.63-1.75,2.44a1.87,1.87,0,0,1-.5.57c-1.15.64-1.5,1.8-2,2.89-.73,1.51-1.61,3-2.44,4.41-.54.94-1.14,1.85-1.68,2.79-.08.15,0,.41,0,.46L67,242.8l.05.27,3.81.38c.8.08,1.59.2,2.39.25.62,0,1.25,0,1.88,0,.82.05,1.63.17,2.45.23s1.76.13,2.64.12c2.77,0,5.55-.14,8.32-.12,1.76,0,3.53.24,5.29.32.52,0,1.05-.18,1.58-.18,2.18,0,4.35.09,6.53.06,1.8,0,3.59-.22,5.38-.25s3.36.09,5,.07c1.44,0,2.87-.16,4.3-.2.38,0,.77.28,1.15.26,1-.06,2-.26,3-.31.6,0,1.21.16,1.81.15,2.67,0,5.34-.14,8-.18,2.29,0,4.59.05,6.88-.07,1.9-.1,3.79-.41,5.69-.63.82-.09,1.63-.22,2.45-.27,3.21-.2,6.41-.37,9.62-.54,1.17-.06,2.34-.1,3.51-.16l0,.24-3.52.49c-1.64.22-3.27.45-4.91.63s-3.29.3-4.93.44l-3,.25-2,.2c-1.51.17-3,.39-4.52.5-2.48.18-5,.3-7.44.41-3.09.14-6.19.29-9.28.38-1.88.05-3.76,0-5.64,0s-4-.43-5.87-.06-3.44-.06-5.15,0c-1.55.09-3.12-.09-4.68-.09-1.28,0-2.55.12-3.83.11-1.7,0-3.39-.16-5.09-.17-1.41,0-2.81.14-4.22.15s-3-.08-4.47-.11-2.74,0-4.1-.07-2.87-.25-4.3-.34c-1.06-.07-2.14,0-3.19-.1-1.44-.14-2.86-.39-4.29-.57s-2.6-.3-3.89-.46c-.38,0-.75-.15-1.13-.21L54,242.79c-1.87-.3-3.73-.58-5.6-.89a17.45,17.45,0,0,1-1.7-.39c-1.11-.3-2.22-.66-3.34-.94-1.7-.42-3.44-.74-5.13-1.2-1.21-.33-2.37-.83-3.56-1.24L31.45,237c-1.62-.58-3.25-1.13-4.86-1.76a35.51,35.51,0,0,1-3.75-1.69c-1.78-1-3.52-2-5.26-3.06q-1.72-1-3.35-2.23A14.58,14.58,0,0,1,12.89,227c-1.16-1.1-2.39-2.14-3.48-3.3a6.92,6.92,0,0,1-1.23-2.23,17.71,17.71,0,0,1,1.88,1.11c1.18.9,2.31,1.88,3.47,2.81a18.34,18.34,0,0,0,1.57,1.15c2.23,1.43,4.43,2.91,6.73,4.23,1.68,1,3.5,1.7,5.25,2.56.5.25,1,.56,1.45.84l.17-.3c-2-1.24-3.94-2.45-5.85-3.75-1.25-.85-2.4-1.86-3.62-2.76s-2.27-1.58-3.39-2.39a8.87,8.87,0,0,1-.65-.67c-1.69-1.52-3.46-3-5.06-4.58A48.31,48.31,0,0,1,7,215.87l.26-.29c.87.63,1.77,1.23,2.59,1.91,1.41,1.16,2.75,2.41,4.17,3.56,1.15.93,2.36,1.76,3.55,2.64,1.8,1.34,3.56,2.73,5.41,4s3.83,2.15,5.47,3.54c1.83,1.55,4,2.46,5.92,3.79a37.06,37.06,0,0,0,5.16,3,12.8,12.8,0,0,0,3.87.86c-14.18-7.6-26.08-18-37.5-29.09l.14-.24a4.84,4.84,0,0,1,1,.51c2.33,2,4.6,4,7,5.94,1.55,1.27,3.21,2.4,4.82,3.6s3.36,2.58,5.1,3.79c2,1.36,4,2.62,6,3.95s3.73,2.55,5.61,3.81c.46.31,1,.54,1.46.81.28.15.75.22.82.44.29.86,1.2.78,1.74,1.25a13.35,13.35,0,0,0,2.21,1.42c1.13.65,2.28,1.25,3.41,1.89,1.77,1,3.49,2.09,5.3,3a21,21,0,0,0,3.3,1.21,11.21,11.21,0,0,0,1.76.25,14,14,0,0,0-2.64-1.59c-2.23-.72-4-2.29-6.11-3.21a27.88,27.88,0,0,1-3.72-2.3c-1.34-.86-2.69-1.72-4-2.62-1.66-1.15-3.3-2.33-4.91-3.55-2.28-1.73-4.56-3.46-6.78-5.27-1.63-1.32-3.13-2.82-4.77-4.13-1.25-1-2.65-1.79-4-2.72-.59-.42-1.11-1-1.68-1.4-1.13-.9-2.35-1.71-3.41-2.69-1.3-1.22-2.47-2.59-3.69-3.9,0-.05,0-.18,0-.39a2,2,0,0,1,.62.18q1.69,1.24,3.36,2.51c1,.77,2,1.57,3,2.36.76.6,1.49,1.23,2.27,1.8s1.44.9,2.11,1.4c2,1.49,3.89,3.08,5.91,4.52,2.28,1.63,4.65,3.13,7,4.69L39.87,229a5.29,5.29,0,0,0,.64.41c.43.2.39.2.58.75a1.39,1.39,0,0,0,.6.6c1.66,1,3.33,2,5,3,2.24,1.33,4.46,2.69,6.73,4s4.62,2.24,6.69,3.7c1.42,1,3,.91,4.44,1.34a1.75,1.75,0,0,0,.47.05c.35,0,.93.12,1,0,.2-.35.37-1.07.19-1.24a4.41,4.41,0,0,0-1.61-.75,16.49,16.49,0,0,1-5-2.28,28.68,28.68,0,0,0-3.08-1.57c-1.33-.76-2.65-1.56-3.92-2.42-1.64-1.11-3.21-2.31-4.84-3.45-1.81-1.27-3.69-2.43-5.44-3.77s-3.44-3-5.22-4.38c-1.41-1.12-3-2.08-4.38-3.17-1.11-.85-2.12-1.83-3.21-2.69s-2.46-1.78-3.63-2.75c-1.43-1.19-2.79-2.47-4.19-3.71-1-.85-2-1.65-2.9-2.56a20.1,20.1,0,0,1-1.64-2.11l.21-.19c2.19,1.73,4.37,3.48,6.57,5.19s4.16,3.15,6.22,4.74c1.31,1,2.57,2.09,3.89,3.09s2.7,2,4.07,2.9c1,.71,2.08,1.37,3.12,2L46.35,227c1.31.85,2.62,1.72,3.94,2.55.47.29,1,.45,1.49.75,1.16.78,2.26,1.65,3.43,2.4,2.45,1.58,4.94,3.09,7.4,4.66,1.32.84,2.59,1.75,3.87,2.64a2.07,2.07,0,0,1,.34.45l1.34-2.76c-1.5-.78-3-1.55-4.49-2.35-1.15-.62-2.32-1.22-3.41-1.95-1.72-1.15-3.38-2.38-5-3.59-1.95-1.42-3.88-2.87-5.82-4.29a15.05,15.05,0,0,0-2.66-1.84c-1.6-.7-2.6-2.15-4.14-2.94a23.46,23.46,0,0,1-4.18-3.1c-2.5-2.11-4.94-4.29-7.39-6.46a2.81,2.81,0,0,1-.67-1.07c1.42.92,2.86,1.83,4.27,2.76,1.14.75,2.26,1.52,3.39,2.29.68.47,1.32,1,2,1.44,1.28.89,2.59,1.74,3.87,2.65,1.57,1.11,3.11,2.26,4.67,3.38,1.32,1,2.66,1.89,4,2.85,1.1.8,2.13,1.7,3.27,2.43,1.9,1.21,3.87,2.3,5.79,3.48.22.14.3.5.47.73a1.08,1.08,0,0,0,.34.24c1.35.8,2.71,1.6,4.07,2.38.89.51,1.79,1,2.72,1.53l2-3.19c-1.32-.67-2.6-1.25-3.8-2s-2.15-1.45-3.21-2.19c-.13-.09-.24-.22-.37-.3a23.36,23.36,0,0,1-2.42-1.46,36.58,36.58,0,0,0-3-2.61,32,32,0,0,1-3.2-2.36c-1.68-1.34-3.27-2.79-4.95-4.13-.93-.74-2-1.33-2.94-2-1.8-1.33-3.58-2.69-5.37-4-1.44-1.09-2.88-2.17-4.29-3.29-1.21-1-2.37-2-3.57-2.95-.93-.75-1.9-1.45-2.84-2.19-.59-.47-1.15-1-1.73-1.47l.23-.34c.18,0,.39,0,.52.09C32.15,203.18,34,204.58,36,206c1.56,1.13,3.15,2.21,4.69,3.37,1.16.88,2.22,1.89,3.39,2.76,1.68,1.24,3.44,2.38,5.13,3.61,2.12,1.54,4.18,3.17,6.32,4.7,3.38,2.42,6.74,4.87,10.21,7.16,2.16,1.42,4.5,2.55,6.82,3.85l1.68-2.59-6.06-4c-2.27-1.51-4.56-3-6.8-4.55s-4.26-3.08-6.38-4.62c-1.63-1.18-3.32-2.29-4.88-3.56-2-1.64-3.91-3.39-5.83-5.12a5.15,5.15,0,0,1-.67-1.05c.58.34,1,.54,1.42.82,1.93,1.39,3.82,2.81,5.76,4.19,1.78,1.26,3.62,2.44,5.39,3.73,2.21,1.6,4.34,3.31,6.56,4.9,2,1.41,4,2.72,6,4.07,1.54,1,3.08,2.09,4.64,3.11.52.34,1.08.62,1.62.93l2.44-4c-1.69-.06-2.75-1.23-4-2-.16-.1-.21-.45-.21-.69a4.39,4.39,0,0,1,.14-.85Z"/><path d="M338.13,123a11.13,11.13,0,0,0-1.33.63c-.71.45-1.36,1-2.06,1.45-2.47,1.59-4.94,3.17-7.43,4.72-1.69,1-3.43,2-5.12,3.06-1.33.82-2.62,1.71-3.93,2.55-1.59,1-3.19,2-4.77,3-2.06,1.33-4.08,2.73-6.16,4-1.9,1.17-3.88,2.2-5.79,3.34-.76.46-1.41,1.09-2.15,1.58-1,.64-2,1.21-3,1.83-.43.27-.83.57-1.27.83-.89.52-1.79,1-2.68,1.53s-2,1.19-3,1.81-2.06,1.4-3.09,2.09-1.93,1.38-3,1.95-2.38,1-3.5,1.69c-1.27.74-2.42,1.71-3.68,2.46-1.5.89-3.08,1.63-4.6,2.48-.82.46-1.59,1-2.41,1.48-1.5.86-3,1.74-4.55,2.5a2.63,2.63,0,0,1-1.52,0c-.5-.1-.8-.47-.49-1a5.8,5.8,0,0,1,1.06-1.51,14.42,14.42,0,0,1,2.73-2,49.68,49.68,0,0,0,4.24-2.94c.76-.5,1.62-.85,2.41-1.31s1.49-.94,2.23-1.42c.21-.14.39-.32.6-.45,1.09-.69,2.18-1.41,3.3-2.06.66-.39,1.43-.61,2.08-1,1.49-.91,2.91-1.92,4.41-2.81,1.78-1.05,3.65-2,5.43-3,2.55-1.49,5.16-2.91,7.56-4.62,1.27-.9,2.69-1.37,4-2.12,1-.55,1.78-1.31,2.72-1.88,1.12-.69,2.31-1.29,3.46-1.95s2.31-1.37,3.47-2l4.63-2.7c2-1.19,4-2.41,6.07-3.58,2.22-1.27,4.47-2.5,6.69-3.76s4.5-2.6,6.74-3.9a2.94,2.94,0,0,1,.92-.48c.33,0,.86,0,1,.22s0,.7-.09,1a1.38,1.38,0,0,1-.24.4Z"/><path d="M73.27,220.13l-1,.78c-3.23-1.6-11.88-8.29-15.43-11.83A17.71,17.71,0,0,1,59,210.14c1.64,1.12,3.22,2.34,4.85,3.46,2.88,2,5.79,3.9,8.67,5.85a5.31,5.31,0,0,1,.71.71Z"/><path d="M64.88,207.07l14,9.62-.18-.86c.91.25,1.73,1.16,1.6,1.88,0,.22-.54.59-.67.53a28.26,28.26,0,0,1-3.18-1.6,37.13,37.13,0,0,1-3.52-2.38c-1.59-1.23-3.1-2.55-4.65-3.82-1.23-1-2.47-2-3.7-3Z"/><path d="M72.51,206l8.28,4.42.44-.87c.78.88,1.52,1.67,2.2,2.5.4.49.19,1-.43,1a3.69,3.69,0,0,1-1.14-.3,25.08,25.08,0,0,1-5.66-3.41c-1.34-.92-2.61-1.94-3.92-2.91Z"/><path d="M348.6,269.33a.14.14,0,0,1,0,.16,112.31,112.31,0,0,1-17.47,4.26l-.07-.25c1-.29,1.91-.61,2.89-.85,2.11-.51,4.21-1.11,6.35-1.43,2.55-.38,4.9-1.47,7.43-1.91A4.29,4.29,0,0,1,348.6,269.33Z"/><path d="M335.17,290.1l.51.94c-2.07.49-4,1.15-6.15.88C331.19,290.68,333.25,290.68,335.17,290.1Z"/><path d="M89.87,204.08a3.07,3.07,0,0,1-3.44-1.49c1.22.75,2.7.11,3.41,1.52Z"/><path d="M370.29,207l3.71-1,.44.81-4.09.46Z"/><path d="M62.72,312.82l.51,2.31C62.62,315,62.47,314.36,62.72,312.82Z"/><path d="M243.67,34.28l2.49-1.68.21.35-2.51,1.52Z"/><path d="M232.11,56.13c-1,.62-2.08,1.25-3.13,1.85-1.87,1.06-3.74,2.12-5.63,3.15-2.48,1.34-5,2.62-7.45,4-1.51.84-2.94,1.83-4.4,2.74-1.7,1.06-3.4,2.12-5.12,3.16-.19.12-.49.06-.74.08.13-.21.2-.48.39-.61,1.92-1.35,3.82-2.75,5.81-4,2.43-1.53,4.92-3,7.43-4.39,1.58-.89,3.27-1.59,4.88-2.44s3-1.7,4.48-2.49c.88-.46,1.82-.82,2.75-1.2a2.21,2.21,0,0,1,.67-.05Z"/><path d="M226,66.31c-5.07,3.53-10.6,6.3-16.07,9.33.06-.16.07-.4.18-.46,1.38-.82,2.81-1.56,4.16-2.42.94-.6,1.72-1.46,2.69-2,1.67-1,3.43-1.74,5.13-2.63,1.18-.62,2.32-1.31,3.47-2a.87.87,0,0,1,.27-.05Z"/><path d="M212.42,83.12c-.59-.29-.34-.76.13-1.21a18,18,0,0,1,1.61-1.41c2.73-2,5.46-4.1,8.72-5.28l.16.21Z"/><path d="M280.55,263.1l1-.44-.08-.27-.83.11c-.16-2-.27-3.94-.48-5.9-.13-1.19-.44-2.35-.57-3.54a10.51,10.51,0,0,1,.09-2.17c0-.09.46-.27.53-.21.33.28.82.6.87,1,.27,2.17.43,4.36.65,6.54.08.84.29,1.68.33,2.52.06,1.4,0,2.81,0,4.21.08,1.78.28,3.54.36,5.32a34.2,34.2,0,0,1-.12,4.41C280.73,270.91,281,266.93,280.55,263.1Z"/></g></g></svg>