<svg xmlns="http://www.w3.org/2000/svg" viewBox="0 0 524.28 479.94"><title>circle</title><g id="Layer_2" data-name="Layer 2"><g id="Layer_1-2" data-name="Layer 1"><path d="M115.26,3.7A12.57,12.57,0,0,1,114,5.55c-4.23,4-8.43,8-12.74,11.92A130.37,130.37,0,0,0,86,34.1c-4,5.13-8.33,10-12.4,15.09-2.5,3.12-4.8,6.39-7.15,9.62-1,1.37-1.83,2.86-2.87,4.2A154.39,154.39,0,0,0,52.72,79.54c-2.54,4.32-5.7,8.28-8.33,12.55-2.44,4-4.63,8.09-6.77,12.23a122.66,122.66,0,0,0-5.94,12.33c-1.93,5-5.31,9.37-6.5,14.71a18.83,18.83,0,0,1-1.91,4.77c-4.17,7.69-6.85,15.91-9,24.35-2.41,9.29-5.31,18.45-7.68,27.75C5,194.42,4,200.76,2.69,207A6.31,6.31,0,0,1,1.2,210.2a5,5,0,0,1-.45-1.68c.75-7,1.48-14.1,2.39-21.13.64-5,1.45-9.93,2.39-14.85.72-3.81,1.75-7.56,2.65-11.34.6-2.55,1.38-5.07,1.79-7.66,1.29-8.22,4.55-15.81,7.51-23.48q5.18-13.44,10.74-26.73c1.4-3.35,3.18-6.55,4.87-9.77,2.12-4,4.27-8,6.56-12,1.26-2.17,2.86-4.13,4.24-6.23,2.83-4.29,5.48-8.7,8.47-12.87q5.2-7.25,10.87-14.14A180.19,180.19,0,0,1,81.73,29.58c8.72-7.89,17.54-15.64,26.93-22.73A14.3,14.3,0,0,1,115.26,3.7Z"/><path d="M401.72,0a4.41,4.41,0,0,1,1.45.39q9.75,7,19.44,14.09c3.58,2.63,7.17,5.28,10.6,8.1,3,2.46,5.78,5.19,8.67,7.79,1.95,1.76,3.81,3.63,5.87,5.24,6.48,5,11.55,11.41,16.79,17.6q9.2,10.87,18.1,22c2.2,2.75,4.07,5.77,6,8.72,2.38,3.62,4.73,7.25,7,11,1.23,2.05,2.14,4.29,3.24,6.42,2.32,4.46,4.85,8.82,7,13.36,2.37,5.07,4.52,10.26,6.54,15.49,3,7.8,4.86,15.94,6.52,24.12a306.79,306.79,0,0,1,5.23,32.09,10,10,0,0,1-1,6.49,36.34,36.34,0,0,1-1.19-3.47c-1.47-6.57-2.73-13.2-4.39-19.72a124.35,124.35,0,0,0-4-12c-2.6-7.08-5.23-14.15-8-21.17-1.22-3.08-2.83-6-4.22-9-1.19-2.57-2.31-5.18-3.45-7.77-.14-.31-.17-.68-.33-1-1.7-3.09-3.43-6.17-5.12-9.27-2.94-5.42-5.74-10.91-8.81-16.26-2.26-3.94-4.79-7.75-7.32-11.52a123.44,123.44,0,0,0-7.56-10.59c-3.37-4-5.6-8.92-9.58-12.5a20.43,20.43,0,0,1-3.48-4.23c-4.71-7.41-10.8-13.55-17.16-19.52-6.67-6.25-13-12.87-19.7-19.1-4.86-4.51-10.08-8.63-15.12-12.95-.81-.69-1.55-1.47-2.32-2.21Z"/><path d="M137.65,444.72c2.22.86,4.44,1.7,6.64,2.59,6.53,2.66,13,5.6,19.59,7.94,4.83,1.71,9.93,2.62,14.9,3.94,3.09.82,6.12,1.87,9.24,2.58,5,1.14,10,2.08,15,3.12,1,.21,2,.54,2.94.78a132.67,132.67,0,0,0,18.13,2.86c4.52.45,9,1.67,13.48,2.25,4.16.54,8.37.81,12.56,1,7.3.3,14.6.43,21.9.61.9,0,1.81-.12,2.72-.16,3.08-.12,6.16-.43,9.23-.31,7.59.3,15-.73,22.47-2,8.1-1.39,16.28-2.33,24.38-3.76,6-1.05,11.82-2.59,17.73-3.91a7,7,0,0,1,3.43-.09c-.47.37-.88.92-1.42,1.09-6.85,2.17-13.68,4.41-20.59,6.39-6,1.73-12.07,3.35-18.18,4.68-13,2.82-26,4.93-39.35,4.68a111.2,111.2,0,0,0-14.37.59c-7,.78-13.9,0-20.81-.4a73.23,73.23,0,0,1-15.82-2.33,41.86,41.86,0,0,0-9.14-1.37c-6.48-.37-12.56-2.45-18.73-4.1a135.23,135.23,0,0,1-22.4-8.38q-14.38-6.74-28.65-13.69C140.56,448.34,138.52,447.24,137.65,444.72Z"/><path d="M0,218.4.71,214l.72.09-.71,4.34Z"/><path d="M354.54,460.53l2.27-.2.08.46-2.18.54Z"/></g></g></svg>