<svg xmlns="http://www.w3.org/2000/svg" viewBox="0 0 371.13 321.49"><title>Hands</title><g id="Layer_2" data-name="Layer 2"><g id="Layer_1-2" data-name="Layer 1"><path d="M305.29,230.34c-.61-1.07-.86-1.12-1.75-.49-.69.49-1.63,1.41-2.85,1.09-.25-.07-.59.13-.88.26a3.65,3.65,0,0,0-1.17.61c-.81.82-2,.53-2.79,1a3.56,3.56,0,0,1-2.16.64c-.09,0-.24,0-.28.05-1,1.36-2.41.55-3.62.78a5.44,5.44,0,0,0-1.06.49,3.4,3.4,0,0,1-.93.36c-.47.06-1-.06-1.44,0-.72.11-1.43.31-2.15.47v.34c-.14-.15-.26-.39-.43-.45s-.76-.16-.82-.05c-.32.57-.8.49-1.32.54a5.92,5.92,0,0,0-1.33.51,3.88,3.88,0,0,1-1,.3,5.12,5.12,0,0,0-2.56.61c-.85.51-1.81,1.39-3.15,1.11a16.9,16.9,0,0,0-3.36,0,3.71,3.71,0,0,0-1.79.59c-.94.5-2.19.42-3.13,1.15-.07.06-.5-.23-.66-.43-.36-.47-.63-.52-1.07-.06a1.82,1.82,0,0,1-1,.44,16.36,16.36,0,0,1-1.83,0,2.77,2.77,0,0,0-2.54.8c-.14-.15-.26-.39-.44-.44-.42-.14-1.16-.39-1.26-.24-.79,1.13-1.91.63-2.9.7-.76.05-1.6-.18-1.83.69a8,8,0,0,0-1.94-.64c-.45,0-.92.36-1.39.55a2.57,2.57,0,0,1-.87.28c-2.31,0-4.63,0-6.94,0a2.65,2.65,0,0,0-1.4.57,1,1,0,0,1-1.44,0,2.16,2.16,0,0,0-1.23-.52c-2.06,0-4.11,0-6.17,0-.25,0-.64,0-.73-.11-.68-1.1-1.75-.7-2.69-.76-.22,0-.45,0-.67,0-.9,0-1.9-.26-2.42,1-1.18-1.62-2.77-.76-4.15-.92-.55-.06-1.05,0-1.42-.54-.13-.2-.55-.29-.84-.31-.67,0-1.36.06-2,0a12,12,0,0,1-1.31-.5,8,8,0,0,0-1.83-.31c-.62,0-1.16.09-1.61-.55-.18-.26-.81-.17-1.23-.3a3.28,3.28,0,0,1-1.15-.47,1.14,1.14,0,0,0-1.75.07c-.54.66-1,.68-1.58,0-.23-.26-.51-.48-.75-.75-.72-.81-1.23-.82-1.92,0a3.47,3.47,0,0,1-.41.33c-.42-1-1.21-1-2.08-.86a.52.52,0,0,1-.44-.13c-.63-1.08-1.68-.66-2.59-.76a4.08,4.08,0,0,1-1.08-.42,7.53,7.53,0,0,1-.82-.37,12.91,12.91,0,0,0-3-1c-.7-.2-1.36-.74-2.22-.66-.18,0-.38-.18-.58-.28l-1-.53a7.94,7.94,0,0,1-.72-.41c-.16-.1-.29-.37-.42-.36-1,.11-1.43-.83-2.13-1.27a6.58,6.58,0,0,0-1.59-.43,4.74,4.74,0,0,1-.76-.38c.25-.13.51-.38.76-.37.93,0,1.84-.15,2.67.7.39.39,1.4.2,2.13.22a2.35,2.35,0,0,1,2,.61c.32.35,1.21.12,1.83.25.46.09.87.36,1.33.48a7.54,7.54,0,0,0,1.81.34,2,2,0,0,1,1.7.57c.34.35,1.19.26,1.82.26s1.05,0,1.44.52a1.34,1.34,0,0,0,.94.32c1.06,0,2.12,0,3.18,0,.7,0,1.4-.15,1.86.64.1.17.52.2.79.21.8,0,1.61,0,2.41,0s1.39-.17,1.85.63c.1.18.58.2.89.2,1.22,0,2.44,0,3.66,0,.8,0,1.67-.27,2.22.68.1.17.59.17.91.17,1.8,0,3.6,0,5.4,0a1.26,1.26,0,0,1,.87.39c.4.51.67.59,1.12,0a1.31,1.31,0,0,1,.95-.41c.9,0,2-.37,2.58.73.07.12.42.11.64.11q4.92,0,9.83,0c.28,0,.71,0,.8-.19.45-.79,1.13-.65,1.85-.64q5.35,0,10.7,0a3.52,3.52,0,0,0,1.16-.48,2.88,2.88,0,0,1,.92-.36c1.09,0,2.18,0,3.28,0,.7,0,1.42.13,1.87-.67.08-.15.45-.19.69-.2.45,0,.9,0,1.35,0,.85,0,1.79.24,2.21-1l.27,0a3.18,3.18,0,0,0,.3.59.93.93,0,0,0,1.56.09,1.49,1.49,0,0,1,1.42-.55,17.87,17.87,0,0,0,2.6,0,4.8,4.8,0,0,0,1.24-.52,3.3,3.3,0,0,1,.86-.3,3.79,3.79,0,0,1,1.25,0c1.55.36,2.63-1.32,4.18-.94.84-1.28,2.15-.56,3.24-.78a8.63,8.63,0,0,0,1.42-.56,2.93,2.93,0,0,1,.78-.27c.45,0,.9,0,1.35,0,.85,0,1.79.26,2.24-1,.28.34.4.6.59.7s.66.11.7,0c.34-.76.94-.62,1.56-.58a7.39,7.39,0,0,0,1.63,0,4.6,4.6,0,0,0,1.16-.49c.25-.12.49-.26.73-.39,0,0,.08,0,.09,0,.95-1,2.63-.34,3.55-1.47.11-.14.4-.15.61-.2s.48,0,.54-.08c.79-1.27,2-.58,3.07-.71.6-.07,1.22,0,1.6-.62.09-.16.45-.16.67-.27a5.11,5.11,0,0,1,3-.88c.64-1.12,1.72-.66,2.66-.78a3.65,3.65,0,0,0,1.07-.46c.25-.12.47-.28.72-.4l1-.51c.25-.12.52-.2.75-.33a9.63,9.63,0,0,1,3-1c.82-.16,1.5-.95,2.28-1.39a1.57,1.57,0,0,1,.92-.11,2.8,2.8,0,0,0,2.85-1.1,3.63,3.63,0,0,1,2.76-1.54c.92-.1,1.87-.82,3-.83.09,0,.18-.17.27-.26a4.42,4.42,0,0,1,2.11-1.46,10.63,10.63,0,0,0,2.89-1.89c.15-.11.3-.4.4-.39,1.24.23,2.16-.6,3.2-1a6.37,6.37,0,0,0,1.44-1.15c.24-.19.56-.53.76-.48,1.27.31,1.93-.53,2.68-1.27a1.68,1.68,0,0,1,1-.41c.73-.06,1.49.08,2.21,0a2.28,2.28,0,0,1,2.37,1.07,1.58,1.58,0,0,0,1.57.66,1.9,1.9,0,0,1,1.93,1.66,1.44,1.44,0,0,0,.36.73c.6.62,1.25,1.19,1.84,1.82a1.46,1.46,0,0,1,.3.85,9.35,9.35,0,0,1,0,1.92,2.83,2.83,0,0,1-.53,1.29,1.15,1.15,0,0,0,.09,1.68,3,3,0,0,1,.48.67c.2.35.36,1,.55,1a8.47,8.47,0,0,0,2.09-.29,13.08,13.08,0,0,1,1.25-.43c.85-.09,1.79.27,2.44-.71.1-.15.81,0,1.22.17s.81.43,1.24.52a3.78,3.78,0,0,0,1.34,0,3.42,3.42,0,0,1,3.63,1.47,7.63,7.63,0,0,0,1.49,1.49,3.46,3.46,0,0,1,1.53,3.61c0,.23.11.68.28.75,1,.36.64,1.14.64,1.79s.31,1.42-.65,1.79c-.19.07-.26.61-.29.94-.07.91.29,1.88-.71,2.62-.28.2-.13,1-.11,1.57s.1,1.21-.6,1.58c-.16.08-.14.46-.25.68a8.14,8.14,0,0,0-1,3c-.08.79-1,1.47-1.38,2.26s-.63,1.63-1,2.42c-.13.27-.49.45-.76.64s-.86.38-.85.52c.1,1-.79,1.38-1.25,2a1.92,1.92,0,0,0-.45,1.22c0,.26.63.42,1,.63s.59.25.6.37c0,1.45,1.45,1.86,2.06,2.85a3.14,3.14,0,0,1,.49,1.24c.1.88-.27,1.84.75,2.5.41.27.14,1.72-.26,2.1-.14.13-.4.28-.38.4a4.51,4.51,0,0,1-.9,2.95c-.17.27-.26.63-.49.83-.43.37-.45.63,0,1,.76.64.74.9.06,1.59a2.27,2.27,0,0,0-.39.81c-.05.14,0,.36-.06.46-.94,1.22-1.43,2.78-2.79,3.67-.08.05-.23.11-.23.16,0,1.29-1.2,1.49-2,2a1.35,1.35,0,0,1-.74.32c-.85-.06-1,.43-.93,1.08a1.79,1.79,0,0,1-.7,1.84,24.65,24.65,0,0,0-1.83,1.83c-.09.09-.2.23-.3.23-1,0-1.53.33-1.4,1.4,0,.07-.09.19-.17.22-.81.33-1.65.59-2.41,1a6.84,6.84,0,0,0-1.45,1.17c-.69.66-1.32,1.4-2,2.05-.51.48-.93,1.07-1.83,1-.37,0-.77.69-1.16,1.06-.14.13-.27.4-.4.39a6.27,6.27,0,0,0-2.94.93,3,3,0,0,0-1.86,1.94.9.9,0,0,1-.49.6,4.25,4.25,0,0,0-2.93,2.94c-.28.77-1.15,1.33-1.76,2s-1.11,1.16-1.7,1.69a3.71,3.71,0,0,1-1.81,1.09,7.83,7.83,0,0,0-2.45,1.51,4.21,4.21,0,0,1-1.76,1,8.41,8.41,0,0,0-2.32,1.36,17.49,17.49,0,0,1-1.7.86c-.82.37-1.67.68-2.5,1a6,6,0,0,0-.69.43c-.23.14-.47.29-.71.42l-1,.52c-.14.07-.27.28-.38.26-1-.18-1.31.77-2,1.16a3.41,3.41,0,0,1-1.32.52c-.86.1-1.82-.25-2.43.73-.07.11-.35.15-.53.14-.75-.06-1.47-.12-1.95.68-.1.16-.52.15-.8.16a4.53,4.53,0,0,0-2.65.63c-.82.53-1.84,1.44-3.16,1.06a1.4,1.4,0,0,0-1.75.65c-.08.15-.45.18-.69.19-.9,0-1.8,0-2.7,0-.62,0-1.24,0-1.58.64,0,.05-.1.13-.14.12-1.36-.3-2.31,1-3.61.94-.81,0-1.71-.25-2.21.71-1.26-.15-2.23.82-3.38.94-1.49.16-3,0-4.53,0a3.77,3.77,0,0,0-1.15.48,2.8,2.8,0,0,1-.92.35c-1.51,0-3-.05-4.53,0a4.05,4.05,0,0,0-1.31.55c-.22.1-.44.23-.67.31s-.4,0-.46,0c-1.08,1.32-2.55.6-3.85.74-.69.08-1.42-.1-1.86.69-.08.15-.45.19-.69.19-.71,0-1.41,0-2.12,0-.87,0-1.84-.23-2.32,1-.25-.27-.41-.42-.54-.58a.91.91,0,0,0-1.49-.1,1.65,1.65,0,0,1-1.59.59c-1.45,0-2.89,0-4.34,0-.75,0-1.49-.12-2.07.67-.35.49-2.54.19-3-.31s-.64-.36-1,0a1.48,1.48,0,0,1-.95.44c-3.41,0-6.81,0-10.22,0-.58,0-1.18-.08-1.41.69a1.15,1.15,0,0,1-.67,0c-.19-.66-.69-.67-1.23-.67l-8.68,0c-.25,0-.64,0-.72-.12-.59-1-1.1-.69-1.66.22-.57-1.19-1.55-.94-2.46-.94-1.51,0-3,0-4.53,0a1.23,1.23,0,0,1-.71-.19,2.94,2.94,0,0,0-3.88,0c-.2.16-.65.29-.78.19a16.14,16.14,0,0,0-2-1.05,3.21,3.21,0,0,0-4.15.18c-.57-1.13-1.63-.84-2.59-.84s-1.73,0-2.6,0c-.22,0-.56,0-.64-.08-.8-1.21-2-.7-3.08-.79-.44,0-.9,0-1.35,0-.24,0-.63,0-.71-.15-.6-1-1.56-.66-2.42-.71-.28,0-.72.08-.83-.06-.88-1.23-2.16-.69-3.28-.75a2.44,2.44,0,0,1-1.43-.52,3.67,3.67,0,0,0-2-.33c-.55,0-1,0-1.33-.52a1.2,1.2,0,0,0-.84-.32c-.67,0-1.36.05-2,0a12,12,0,0,1-1.33-.48,9.3,9.3,0,0,0-1.83-.32c-.61,0-1.22.12-1.59-.59-.08-.15-.44-.17-.67-.23s-.54,0-.61-.17c-.59-1-1.57-.6-2.42-.72a6.18,6.18,0,0,1-1.25-.46,3.5,3.5,0,0,0-.94-.34c-.74,0-1.48,0-2.22,0-.25,0-.63,0-.71-.15-.49-.87-1.26-.75-2-.67-.12,0-.32,0-.36-.07-.55-.9-1.4-.85-2.28-.8-.18,0-.38-.19-.55-.32s-.23-.36-.31-.35c-1.43.28-2.39-1.17-3.78-1-.16,0-.36.08-.47,0a17.76,17.76,0,0,1-2.22-1.37c-.45-.36-.71-.35-1,.09-.46.69-1,.66-1.49.08-.73-.8-1.4-1.7-2.72-1.32-.15,0-.38-.19-.57-.28l-1.12-.55c-.17-.08-.43-.12-.49-.25a1.35,1.35,0,0,0-1.67-.63,2.51,2.51,0,0,1-2.68-1.2c-.09-.13-.24-.36-.31-.34-1.47.33-2.47-1.25-3.88-1a2.2,2.2,0,0,1-2.36-1,1.52,1.52,0,0,0-1.58-.64c-.13,0-.32.08-.37,0-1.1-1.21-3.22-.4-4.09-2.06-.08-.16-.29-.41-.39-.39-1.2.22-2.09-.59-3.12-.91a4.08,4.08,0,0,1-.65-.35l-1-.49-.74-.36-1-.47-.72-.39-.86-.45-.82-.39-1-.45-.67-.32-1-.52-.66-.33-1-.51-.66-.33-1-.51c-.24-.13-.47-.28-.71-.41s-.58-.29-.88-.43l-.75-.34a6.76,6.76,0,0,1-1-.52c-.53-.38-1-.83-1.54-1.21a4.46,4.46,0,0,0-.87-.44c-.11,0-.31,0-.37,0-.8-1-2.4-.84-3-2.11-.07-.15-.29-.37-.42-.35-1.08.16-1.44-.78-2.08-1.29-.26-.2-.63-.47-.89-.42-1.16.24-1.77-.48-2.42-1.2-.13-.14-.26-.4-.39-.4-1.47,0-1.91-1.35-2.88-2-.34-.23-.72-.41-1.09-.6l-.66-.34a8.75,8.75,0,0,1-.95-.5c-.54-.37-1-.79-1.57-1.16a7.74,7.74,0,0,0-.94-.51c-.24-.12-.5-.22-.75-.34s-.69-.33-1-.5a2.91,2.91,0,0,1-.71-.42c-.62-.6-1.2-1.24-1.8-1.85-.11-.11-.28-.26-.39-.24-.79.19-1.16-.41-1.6-.84s-.79-1-1.58-.88c-.15,0-.34-.24-.52-.38-.65-.5-1-1.27-2.06-1.38-.55-.06-1-.83-1.8-.84-.1,0-.16-.49-.3-.72a3,3,0,0,0-.69-.84c-.36-.26-.81-.38-1.19-.62-.61-.38-.9-1.18-1.87-1.15-.41,0-.84-.7-1.26-1.09-.16-.15-.32-.44-.48-.44-1.5,0-2-1.41-2.91-2.12-.2-.15-.41-.47-.56-.44-.76.16-1.15-.34-1.51-.81-.5-.64-1.25-.75-1.89-1.09A11.13,11.13,0,0,1,63,256.62a3.73,3.73,0,0,0-.87-.46c-.27-.14-.55-.26-.81-.41s-.21-.31-.34-.33c-1.93-.27-2.62-2.08-3.92-3.11a3.75,3.75,0,0,0-.54-.35,6.87,6.87,0,0,1-1.35-.72c-.81-.72-1.53-1.54-2.31-2.29a2.42,2.42,0,0,0-.63-.35c-.34-.17-.7-.32-1-.5-.14-.07-.25-.3-.36-.29-1.44.07-1.91-1.24-2.79-2-.71-.58-1.28-1.33-1.95-2a2.26,2.26,0,0,0-.66-.29l-.9-.42a4.13,4.13,0,0,0-.89-.42A2.46,2.46,0,0,1,42,241.07c-.07-.32-.38-.85-.54-.83-1,.1-1.33-.77-2-1.22-.29-.2-.64-.32-.93-.51a13,13,0,0,1-1.43-1c-.72-.62-1.19-1.43-2.32-1.66-.71-.14-1.28-1.09-1.89-1.7s-1.29-1.33-1.93-2c-.07-.07-.13-.19-.2-.2-1.83-.2-2.52-1.91-3.76-2.88-.73-.56-1.12-1.52-2.28-1.56-.39,0-.73-.66-1.13-1-1-.82-1.57-2.2-3.14-2.45a1.55,1.55,0,0,1-1.14-1.6c0-.22-.26-.66-.4-.66-1.43,0-1.93-1.25-2.8-2a23.45,23.45,0,0,1-1.94-2c-.07-.07-.13-.19-.2-.2-1.95-.29-2.7-2.08-4-3.17,0,0,0-.07-.06-.07-1-.18-1.67-.58-1.68-1.7,0,0-.09-.12-.14-.12-1.77-.1-2.4-1.75-3.55-2.67A33.84,33.84,0,0,1,2,207.45a2,2,0,0,1-.27-.51,1,1,0,0,1,1.42.14,4.94,4.94,0,0,0,2.19,1.54c.78.2,1.35,1.21,2,1.86.16.16.32.45.47.45,1.49,0,2,1.4,2.91,2.12.15.11.26.38.4.39,1.53.07,2.08,1.45,3.05,2.25.12.1.25.3.36.29,1-.06,1.32.42,1.3,1.32a.46.46,0,0,0,.31.32c1.54,0,2.07,1.46,3.05,2.24.12.1.24.31.35.3,1.43-.05,1.9,1.26,2.78,2a22,22,0,0,1,1.95,2c.09.09.18.23.28.25,1.87.23,2.52,2,3.81,3,.66.48,1,1.49,2.06,1.37.12,0,.28.47.43.71s.38.85.53.84c1-.08,1.36.74,2,1.22.15.12.24.41.37.42,1.85.11,2.44,1.89,3.69,2.8.76.56,1.16,1.63,2.35,1.58.15,0,.3.31.48.44.62.44.91,1.37,1.93,1.23.11,0,.3.45.44.71s.29.84.42.84c1.45-.06,2,1.22,2.78,2a1.88,1.88,0,0,0,1.59.65c.67-.08,1.11,0,1.12.89a1.05,1.05,0,0,0,.73.73c.75,0,.94.31.94,1,0,.23.33.65.52.66a2.35,2.35,0,0,1,1.38.67,15.58,15.58,0,0,0,2.37,1.08,5.9,5.9,0,0,1,1.37,1c.7.65,1.34,1.37,2,2.06.09.09.19.25.28.25,1.49,0,1.9,1.5,3,2s2,1.62,3,2.09a8.74,8.74,0,0,1,2.25,1.6,3.6,3.6,0,0,0,1.85,1.19,7.22,7.22,0,0,1,2.53,1.53,1.08,1.08,0,0,1,.39.79c0,.81.42,1.07,1.09,1a1.71,1.71,0,0,1,1.89.77c.46.71,1.27.72,1.89,1.09A11.08,11.08,0,0,1,78,264.3c.15.15.35.42.49.41,1.08-.14,1.45.78,2.07,1.32a3,3,0,0,0,.53.38,15.82,15.82,0,0,1,1.44.76c.55.38,1.12.73,1.67,1.06,1,.62,2.43.75,3.09,2,.11.2.45.29.69.42s.7.35,1,.53c.14.07.27.28.38.26,1.07-.14,1.45.77,2.08,1.31a3.84,3.84,0,0,0,.71.41l1,.53c.14.07.27.27.38.26,1.07-.13,1.46.77,2.08,1.32.16.14.37.4.51.37.79-.15,1.17.43,1.6.87a2.48,2.48,0,0,0,1.56.93c.48.06.88.77,1.34,1.15a4.44,4.44,0,0,0,.78.44l.95.49a6.78,6.78,0,0,0,.73.35c.2.07.55,0,.62.14.49.84,1.27.69,2,.74a1,1,0,0,1,.65.7c.08.61.27.93.93,1a2.38,2.38,0,0,1,.89.44c.16.09.32.34.45.32.77-.12,1.18.38,1.61.85a3.06,3.06,0,0,0,1.64,1,9.48,9.48,0,0,1,2.32,1.38,4.56,4.56,0,0,0,.61.2c.3.13.6.27.9.42l.8.42.89.44.81.4.88.46.81.4.82.39c.3.14.58.31.88.44s.49,0,.53.13c.47,1,1.33.78,2.15.78.21,0,.42.23.64.35l.88.44.75.35a7,7,0,0,1,1,.49,6.86,6.86,0,0,0,3,1c.82.13,1.53.91,2.29,1.41.05,0,.13.09.17.07,1.26-.42,2.3.43,3.08,1,1.17.84,2.32.62,3.5.79a1.85,1.85,0,0,1,1.06.9,1.65,1.65,0,0,0,1.92.74,1.94,1.94,0,0,1,2.16.81c.63,1,1.6.94,2.54.88a1.27,1.27,0,0,1,1.33.5,1.27,1.27,0,0,0,.93.33c1.61,0,3.21,0,4.81-.12a4.72,4.72,0,0,0,1.42-.61c.49.81.27,1.29-.67,1.34a3,3,0,0,0-.86,0,3.26,3.26,0,0,0-.74.57,2.53,2.53,0,0,0,.71.49,2.4,2.4,0,0,0,1.05,0,1.78,1.78,0,0,1,2.07.78c.58,1,1.45.92,2.35.85a1.5,1.5,0,0,1,1.59.59c.36.51,1.88.32,2.4-.08a2.39,2.39,0,0,1,1.22-.49c1.09-.07,2.19,0,3.27-.06a6.74,6.74,0,0,0,1.55-.56,3.28,3.28,0,0,1,.89-.25c1-.05,2-.05,3-.09.25,0,.62,0,.73-.13.67-.9,1.61-.6,2.47-.63s1.68.13,2.3-.67c.13-.17.53-.16.81-.17.8,0,1.61,0,2.41,0a2,2,0,0,0,1.82-.63,1,1,0,0,1,.94-.06.87.87,0,0,1,.29.81,1.08,1.08,0,0,1-.75.53c-1,.15-2.05-.07-3,.76-.36.32-1.23.08-1.87.09s-1.54-.08-2.11.65c-.13.17-.53.17-.8.18-1,0-2,0-3,.06-.22,0-.55,0-.65.11-.74,1-1.79.65-2.74.64a2.7,2.7,0,0,0-2.32.89,4.15,4.15,0,0,0-.38.7c.24.13.47.36.71.36,1.35,0,2.7,0,4,0,.68,0,1.15,0,1.09.9,0,.57.3.81.84.81s1.09,0,1.64,0c.22,0,.55,0,.64.11.7,1,1.71.65,2.64.69.28,0,.7,0,.8.17.55.95,1.44.71,2.24.67a1.9,1.9,0,0,1,1.52.53c.39.35,1.19.29,1.81.3s1.12,0,1.52.55c.15.22.62.29,1,.29,2.92,0,5.86.16,8.77-.05,1.36-.1,2.67-.88,4.18-1.42a.52.52,0,0,0,.29.23c.28.06.74.13.84,0,.45-.63,1.06-.55,1.66-.49.79.08,1,.71.45,1.49-.53-.64-1.08-1-1.7-.07-.12.18-.6.08-.9.17-.45.13-.89.31-1.34.46a5.05,5.05,0,0,1-.88.27c-.31,0-.67-.07-1,0s-.43.38-.64.58c.22.18.44.49.68.51.73.06,1.48,0,2.21,0,2.06,0,4.11,0,6.17,0a4.18,4.18,0,0,0,1.24-.51,3.34,3.34,0,0,1,.94-.31c.61,0,1.23.08,1.83,0A11.78,11.78,0,0,0,213,312l1.1.89-.17.35a5.44,5.44,0,0,0-1.26,0,4.69,4.69,0,0,0-1.06.56,3.44,3.44,0,0,0,1,.48c.66.08,1.33.13,1.79-.6.12-.19.64-.13,1-.16a13.1,13.1,0,0,0,1.53-.1c.21,0,.37-.34.56-.53-.23-.17-.44-.45-.68-.49a11,11,0,0,0-1.58,0l0-.42a5,5,0,0,0,.8-.23,5.5,5.5,0,0,0,.72-.48,3,3,0,0,0-.76-.54,2.64,2.64,0,0,0-1,0c-.68.05-1.36.16-1.82-.54,0-.07-.17-.15-.24-.14-1.24.3-2.08-.78-3.2-.91a.55.55,0,0,1-.41-.31c0-.12.19-.42.27-.41a14.19,14.19,0,0,1,1.9.33c.43.11.83.47,1.25.49,1.28.07,2.57,0,3.85,0,.69,0,1.43-.19,1.85.65a2.44,2.44,0,0,0,.82-.21c.33-.12.64-.41,1-.42,1.25-.05,2.51,0,3.76,0a1.34,1.34,0,0,1,.72.15c.87.63.86.64,1.69-.17.41,1,1.24,1,2.09.87a1.34,1.34,0,0,0,.69-.27,1.77,1.77,0,0,1,2.69,0,1.53,1.53,0,0,0,.89.26c1.57,0,3.15.07,4.72,0a5.08,5.08,0,0,0,1.55-.69,2.09,2.09,0,0,1,.27.31c.33.5.59.43,1,0a1.45,1.45,0,0,1,.94-.45c4,0,8,0,12,0,.44,0,.88-.36,1.32-.53a3,3,0,0,1,1-.28c1.51,0,3,0,4.53,0,.31,0,.79,0,.89-.19.48-.86,1.23-.64,1.95-.63,1.12,0,2.25,0,3.37,0,.63,0,1.3-.21,1.64.6a.6.6,0,0,0,.58.14.78.78,0,0,0,.34-.6c-.1-.76.16-1,.93-1.07.36,0,.69-.45,1.1-.75.75,1.29,2,.71,3.1.8.09,0,.23,0,.27-.07.89-1.27,2.22-.62,3.36-.73a22.88,22.88,0,0,1,2.31,0c.61,0,1.22.06,1.59-.62.09-.16.43-.2.67-.27s.48,0,.54-.08c.67-1.14,1.76-.61,2.69-.72s2.14.35,3-.72c.26-.31,1.17,0,1.75-.13a6.18,6.18,0,0,0,1.32-.54c.22-.1.48-.36.65-.31,1.25.37,1.87-.48,2.58-1.22s1-.72,1.66.07a1,1,0,0,0,1.59,0,1.58,1.58,0,0,1,1.51-.56c.8,0,1.71.29,2.22-.68A.39.39,0,0,1,302,300c1.8.46,2.49-1.09,3.52-2a1.76,1.76,0,0,1,2.62,0c.15.14.59.08.85,0a2.9,2.9,0,0,0,1.08-.58c.79-.77,2-.5,2.72-.95s1.65-.41,2.28-.77a6.38,6.38,0,0,1,2.87-.88c.14,0,.26-.26.39-.4.65-.71,1.25-1.46,2.41-1.17.24.06.56-.21.84-.34l1-.52.65-.34,1-.5.73-.36a10.66,10.66,0,0,0,1-.5,5,5,0,0,1,3-.91c.12,0,.24-.28.38-.4a3.87,3.87,0,0,1,2-1.3c.82-.13,1.54-.9,2.32-1.37.16-.1.35-.13.52-.21l1.1-.56.59-.28,1-.5.66-.33c.34-.17.68-.36,1-.52s.5-.21.76-.31.51-.17.76-.29.75-.36,1.11-.56a2.66,2.66,0,0,0,.62-.39c.76-.74,1.45-1.53,2.25-2.22a15.72,15.72,0,0,1,1.43-.75A1.32,1.32,0,0,0,346,279c0-.62.31-.73.86-.9a4.44,4.44,0,0,0,1.48-1.07c.55-.49,1-1.08,1.58-1.54.38-.31.94-.41,1.33-.71s1.35-.89,1.4-1.4c.09-1,.81-1.38,1.32-2,.16-.19.38-.37.43-.59a2.07,2.07,0,0,1,1.91-1.91c.24-.05.61-.41.59-.59-.07-.65.29-1,.69-1.37s1.21-.86,1.08-1.8c0-.21.63-.49.64-.75a10,10,0,0,1,1-3.11c.24-.63.11-1.29.67-1.95a5.84,5.84,0,0,0,1-2.77,9,9,0,0,0,0-3.07c-.1-.55-.71-1-1.14-1.47-.07-.07-.49.05-.63.2-1.73,1.75-3.44,3.52-5.16,5.28-.07.07-.13.19-.21.19-1.88.19-2.53,2-3.79,2.95a37.62,37.62,0,0,0-2.72,2.7,2.68,2.68,0,0,1-.74.35c-.3.14-.6.27-.88.43s-.32.36-.44.34c-.93-.18-1.23.66-1.8,1-.42.28-.94.43-1.35.71s-.84.75-1.3,1.08a8.6,8.6,0,0,1-1.11.59,5.72,5.72,0,0,0-.65.34c-.15.11-.27.39-.4.39-1.53,0-2,1.48-3,2.17-.25.17-.56.46-.79.42a2.34,2.34,0,0,0-2.32,1,5.75,5.75,0,0,1-1.42.76c-.79.45-1.55.94-2.33,1.39-.23.13-.54.14-.76.29a5.7,5.7,0,0,1-3,.94c-.13,0-.23.29-.38.41-.6.47-1,1.11-1.94,1.25s-1.55.89-2.33,1.35a4.7,4.7,0,0,1-.6.23c-1,.42-2.07.7-3.08,1a6.24,6.24,0,0,1-2.15.62,1.52,1.52,0,0,0-.6.25,4.23,4.23,0,0,0-1.17.61c-.81.81-1.87.68-2.83,1s-1.49,1.24-2.31,1.36c-1.1.16-1.76,1.44-3,1a.68.68,0,0,0-.62.15c-.53.89-1.36.67-2.14.66s-1.29-.06-1.68.65c-.08.14-.39.16-.59.24-1,.41-2.06.7-3.08,1a5.77,5.77,0,0,1-2.14.62c-.12,0-.31,0-.36.08-.85,1.29-2.16.51-3.24.74a8.16,8.16,0,0,0-1.41.56c-.05,0-.09.14-.13.13-1.26-.1-2.23.8-3.38,1a21.82,21.82,0,0,1-3,0c-.25,0-.63,0-.71.17-.49.88-1.28.68-2,.65s-1.35-.1-1.77.65c-.09.17-.51.21-.78.22a20,20,0,0,0-2,0,5,5,0,0,0-1.31.56c-.05,0-.09.13-.13.13-1.22-.09-2.18.78-3.29.95a27.89,27.89,0,0,1-4.14,0c-.67,0-1.34-.08-1.79.64-.11.18-.58.19-.88.19-1.51,0-3,0-4.53,0a3.83,3.83,0,0,0-1.15.5,2.75,2.75,0,0,1-.93.33c-1.83,0-3.66,0-5.49,0-.22,0-.56,0-.65.08-1,1.3-2.35.62-3.56.74-.7.07-1.49.27-2-.57,0-.08-.5,0-.74.12a6.8,6.8,0,0,1-1.25.47c-.86.1-1.72-.14-2.46.7-.56.63-2.79,0-3.57-.88-.11-.12-.17-.34-.29-.37a3.25,3.25,0,0,0-.76,0,2.22,2.22,0,0,0,.14.66c.1.17.31.28.67.59a5.47,5.47,0,0,1-1,.22c-.83,0-1.67-.07-2.5-.05a1.9,1.9,0,0,1-1.71-.57,1,1,0,0,0-1.59.19c-.49.62-1,.6-1.54.06a1.92,1.92,0,0,0-1.16-.48c-2.31,0-4.63,0-6.94,0-.25,0-.64.07-.74-.06-.92-1.19-2.23-.73-3.37-.78-2.05-.09-4.11,0-6.17,0-.22,0-.54,0-.63-.11-.66-.89-1.6-.66-2.47-.67s-1.86,0-2.79,0a2.41,2.41,0,0,1-.79-.34c.27-.15.54-.42.8-.42,4.11,0,8.22,0,12.34.07a1.19,1.19,0,0,1,.63.17c.83.56.82.57,1.66-.17.5,1.1,1.49.84,2.39.84h22.07c.79,0,1.61.09,2.2-.67.11-.15.47-.15.72-.16,1.06,0,2.12,0,3.18,0,.73,0,1.49.12,2-.68.09-.15.46-.17.7-.17.87,0,1.73,0,2.6,0,.65,0,1.27,0,1.69-.64.12-.19.57-.22.87-.22,1.51,0,3,0,4.53,0a3.85,3.85,0,0,0,1.17-.47,3.1,3.1,0,0,1,.93-.35c.83,0,1.67,0,2.5,0,.67,0,1.35.09,1.77-.66.09-.16.51-.2.78-.2,1,0,2,.35,2.69-.73.09-.14.48-.11.72-.11.71,0,1.41,0,2.12,0,.25,0,.63,0,.72-.15.59-.94,1.5-.68,2.33-.67.6,0,1.16,0,1.48-.64,0,0,0-.07.06-.07,1.25.08,2.24-.72,3.38-1,.89-.19,1.87.24,2.63-.73.23-.29,1.09-.11,1.65-.11s1.17,0,1.49-.62c0-.05.09-.13.13-.13a10.06,10.06,0,0,0,3.13-.92c.94-.28,2.11.3,2.86-.82.09-.14.56,0,.82-.06a13.92,13.92,0,0,0,1.41-.55c.08,0,.16-.2.2-.19,1.35.34,2.25-.92,3.51-1a4,4,0,0,0,1.32-.53c.22-.1.44-.22.66-.33s.68-.36,1-.5a3.3,3.3,0,0,1,1-.29c.59,0,1.15,0,1.52-.59.09-.15.37-.21.58-.28,1-.33,1.92-1.12,3.12-.91.12,0,.28-.33.45-.46.6-.47,1-1.12,1.95-1.23.79-.1,1.5-.84,2.26-1.28a1.43,1.43,0,0,1,.76-.3,2,2,0,0,0,2.07-.84,2.66,2.66,0,0,1,1.66-1,9.43,9.43,0,0,0,2.32-1.36,5.59,5.59,0,0,1,.7-.23c.27-.11.53-.26.8-.39l.88-.45.8-.41.81-.42.94-.51.65-.34,1-.5.75-.34c.3-.14.6-.28.89-.44s.32-.36.44-.33c.93.19,1.23-.65,1.81-1,.42-.28.94-.42,1.35-.71a17.11,17.11,0,0,0,1.35-1.17c.19-.17.41-.48.57-.46.78.12,1.13-.42,1.58-.87a3.8,3.8,0,0,1,1.58-.92,5.53,5.53,0,0,0,2.84-1.89c.49-.77.73-1.47,1.74-1.63a3.35,3.35,0,0,0,1.28-.62,13.56,13.56,0,0,0,1.28-1.11c.66-.6,1.08-1.55,2.23-1.43.12,0,.39-.23.39-.35-.05-1.46,1.24-2,2-2.85,1.15-1.28,2.45-2.43,3.68-3.64.07-.07.18-.15.18-.22,0-1,.44-1.44,1.43-1.39.09,0,.3-.23.29-.34-.1-1.53,1.38-1.94,2.06-2.91.14-.2.49-.4.47-.55-.15-1,.74-1.4,1.25-2,.12-.14.39-.26.39-.4a3.93,3.93,0,0,1,.9-2.83,4.29,4.29,0,0,0,.57-1.1,5.13,5.13,0,0,0,.27-.68c.06-.21,0-.55.14-.62,1.06-.62.66-1.61.74-2.5a4.44,4.44,0,0,1,.43-1.15,3.31,3.31,0,0,0,.4-1c0-1.86,0-3.73,0-5.59a2.38,2.38,0,0,0-1.77-1.92c-.19,0-.47,0-.54-.13-.66-1-1.69-.67-2.61-.74a3.89,3.89,0,0,1-1.07-.42,3.18,3.18,0,0,0-1-.41c-1.35,0-2.7,0-4,0-.64,0-1.05.18-1,.94,0,.24-.2.49-.32.74s-.33.63-.5.94-.28.54-.44.79-.39.38-.36.52c.15.8-.44,1.15-.88,1.59a3.05,3.05,0,0,0-.93,1.56,9.43,9.43,0,0,1-1.35,2.33,6.59,6.59,0,0,0-.25.69c-.13.3-.29.58-.44.87a3.27,3.27,0,0,0-.38.82,4.35,4.35,0,0,1-2.6,2.46c-.61,0-.73.33-.79.85,0,.29-.33.79-.46.78-.75-.08-1.07.43-1.5.86-.62.64-1.29,1.24-1.93,1.86-.11.11-.26.26-.26.38a2.83,2.83,0,0,1-2,2.59c-1.46.51-2.17,1.66-3.21,2.53-.07.06-.16.17-.23.16-1.16-.1-1.6.88-2.28,1.5-.09.08-.22.22-.31.21-1.1-.21-1.41.81-2.06,1.29-.13.09-.23.32-.34.32-1.48,0-2,1.38-2.91,2.1a9.84,9.84,0,0,1-2.18,1.53,15.07,15.07,0,0,1-2.42.72c-.51.12-.88.78-1.35,1.15a4.45,4.45,0,0,1-1,.49c-.14.06-.39,0-.45.1-.62,1-1.64.59-2.51.71a5,5,0,0,0-1.23.53l-.75.34c-.29.14-.6.27-.88.43s-.37.4-.52.37c-.84-.15-1.22.48-1.63,1a1.71,1.71,0,0,1-1.83.7c-.88-.21-1.05.71-1.61,1a5.72,5.72,0,0,0-1.34.72c-.79.78-2.11.45-2.67,1-1.13,1-2.29.48-3.41.7a6.69,6.69,0,0,0-1.33.54l-.67.32-1,.46-.82.39-.82.38a3.36,3.36,0,0,1-1,.41c-.95.08-1.94-.28-2.73.72-.23.29-1.09.1-1.66.1a1.55,1.55,0,0,0-1.52.6c-.16.22-.68.24-1,.27-.86.07-1.82-.28-2.43.71-.08.13-.41.16-.62.15-.72-.05-1.41-.1-1.86.67-.09.15-.46.17-.7.17-.87,0-1.73,0-2.6,0-.64,0-1.28-.07-1.68.64-.1.17-.5.22-.77.23-.74,0-1.48,0-2.22,0-.25,0-.64,0-.73.14-.59.94-1.5.68-2.33.68-.6,0-1.13,0-1.5.62-.11.18-.5.24-.76.25-1.12,0-2.25,0-3.37,0-.67,0-1.35-.08-1.78.66-.1.17-.51.21-.78.22-1,0-1.93-.06-2.89,0a4.77,4.77,0,0,0-1.24.5,2.92,2.92,0,0,1-.95.31c-1.67,0-3.34-.05-5,0a9.9,9.9,0,0,0-2.11.61c.08.08-.05,0-.13-.14-.31-.55-.62-.61-1-.07-.5.73-1,.71-1.51,0-.32-.46-.6-.43-1,0a1.7,1.7,0,0,1-1,.46c-1.51,0-3,0-4.53,0a1.47,1.47,0,0,1-1-.41c-.41-.44-.66-.49-1.08,0a1.43,1.43,0,0,1-.95.43c-3.5,0-7,0-10.5,0-.24,0-.62,0-.71-.14-.53-.88-1.36-.7-2.15-.7h-6.36c-.24,0-.62,0-.71-.16-.55-.85-1.38-.68-2.16-.68s-1.54.05-2.31,0a2.09,2.09,0,0,1-.66-.26,4.1,4.1,0,0,1,.31-.53,2,2,0,0,1,1.94-.74c.73.09,1.48,0,2.21,0a4.68,4.68,0,0,1,1.16.45,3.15,3.15,0,0,0,1,.38q13.64,0,27.28,0c.41,0,.82-.35,1.24-.52a2.6,2.6,0,0,1,.85-.31c1.09,0,2.18,0,3.28,0,.7,0,1.42.13,1.88-.65.1-.17.52-.19.79-.19,1.12,0,2.25,0,3.37,0,.64,0,1.28.07,1.68-.64.1-.17.51-.21.77-.22.71,0,1.42.08,2.12,0a4.41,4.41,0,0,0,1.16-.48,3.11,3.11,0,0,1,.92-.36c.74,0,1.48,0,2.22,0,.22,0,.56,0,.65-.1.89-1.23,2.18-.53,3.27-.74a8.76,8.76,0,0,0,1.41-.56,2.8,2.8,0,0,1,.86-.28c1,0,2,.35,2.7-.73.09-.14.47-.09.72-.12,1.21-.13,2.58.53,3.57-.76.09-.12.43-.07.64-.06.66,0,1.26.06,1.69-.63.12-.19.63-.17,1-.2.86-.06,1.82.32,2.43-.69.08-.14.4-.18.61-.18,1,0,2.12.33,2.9-.75.11-.15.56,0,.83-.08.48-.15.94-.37,1.41-.57.23-.1.44-.23.67-.3s.56,0,.63-.13c.55-.94,1.43-.67,2.24-.66.63,0,1.21,0,1.58-.65.09-.16.45-.15.68-.24s.54-.25.81-.38.64-.32,1-.46c.17-.07.45-.06.52-.18.41-.75,1.1-.72,1.76-.6a2.63,2.63,0,0,0,2.47-1.1c.3-.31.84-.36,1.17-.65.83-.74,1.87-.68,2.85-.94.82-.22,1.49-1,2.28-1.4a15.81,15.81,0,0,0,2.49-1c.87-.67,1.84-.6,2.74-.91.73-.25,1.23-1.16,1.85-1.75a6.73,6.73,0,0,1,2.32-1.67,13.37,13.37,0,0,1,2.31-.7c.51-.1.92-.72,1.37-1.11.17-.15.32-.45.48-.45,1.49,0,1.93-1.43,2.9-2.11.15-.11.27-.38.41-.39,1.55,0,2-1.49,3-2.24.1-.08.17-.25.27-.26,2-.28,2.71-2.15,4-3.25a6.77,6.77,0,0,0,2-2,4.52,4.52,0,0,1,2.09-2.07,1.77,1.77,0,0,0,.95-1.63c0-.37.61-.77,1-1.12.66-.65,1.35-1.27,2-1.93a2.61,2.61,0,0,0,.33-.75c.12-.27.26-.55.39-.82l.44-.89.41-.8c.15-.29.29-.58.43-.88s.2-.5.32-.75.34-.69.52-1,.23-.43.34-.65.33-.7.49-1.05c0-.08,0-.23,0-.28,1.49-1.16.65-2.79.81-4.2.06-.52-.07-1,.53-1.31a1,1,0,0,0,0-.81c-.58-.31-.6-.76-.53-1.31,0-.38,0-.77,0-1.16,0-.64-.17-1.08-.93-1-.57,0-.81-.22-.81-.81a2.12,2.12,0,0,0-.31-.75c-.16-.34-.31-.69-.48-1s-.2-.6-.39-.66-.53.13-.69.31a2.7,2.7,0,0,0-1,1.67,1.76,1.76,0,0,1-1.22,1.18,2.18,2.18,0,0,0-1.55.93,2,2,0,0,1-2,.83c-.73-.09-1.72,1-1.9,1.7-.08.31-.5.81-.66.78-1.19-.27-1.82.49-2.53,1.18-.27.26-.71.34-1,.56a5,5,0,0,1-2.95.92c-.13,0-.23.29-.38.41-.59.49-.93,1.35-1.93,1.22-.14,0-.32.18-.46.3s-.29.41-.39.39c-1.25-.27-2.15.62-3.2,1-.55.19-.94.8-1.45,1.14a2,2,0,0,1-1.15.45,3.06,3.06,0,0,0-3.07,1.26c-.17.23-.55.5-.77.45-1.18-.29-1.81.47-2.54,1.15a2.17,2.17,0,0,1-1.21.5c-.89.08-1.88-.29-2.51.74-.08.13-.41.15-.62.14-.72,0-1.42-.12-1.85.67-.07.13-.4.19-.61.18C306.46,229.19,305.67,229.08,305.29,230.34Zm-86.13,83.14c0-.79.43-1,1.17-1,.94,0,1.95.21,2.61-.74a6.09,6.09,0,0,0,.36-.69c-.22-.1-.45-.31-.65-.28-1,.15-2.21-.43-3,.69a.62.62,0,0,1-.44.15c-.56,0-1,.14-1.06.83s.49.88,1,1c-.25,1.05-1.06.47-1.64.6a3.42,3.42,0,0,0-.95.57c.3.17.6.47.9.48a27.47,27.47,0,0,0,5-.11c1-.17,1.94-.91,3.07-.9.07,0,.13-.14.22-.18a7.58,7.58,0,0,1,1.36-.51c.59-.11,1.41.12,1.75-.2a2.54,2.54,0,0,1,2-.64c.26,0,.52-.32.78-.5-.25-.18-.5-.5-.76-.5-1.15,0-2.31,0-3.46.06a2,2,0,0,0-.62.21l-3.54,1.42a1.28,1.28,0,0,1-.38,0Zm37.2-1.06.21.37c.39-.23,1.11-.45,1.11-.68,0-.75-.71-.6-1.17-.55-1.45.18-3-.37-4.37.78-.55.45-1.67.42-2.54.86s-1.82,1.31-3.05.92c-.12,0-.36.34-.55.52.17.16.36.47.51.45,1.61-.2,3.39.66,4.84-.72a.94.94,0,0,1,.72-.14c1.26.25,2-1,3.07-1.14A4,4,0,0,0,256.36,312.42Zm-17.2-.05.12.23a4.52,4.52,0,0,0,1.05,0c.23-.06.42-.31.62-.47-.22-.18-.42-.48-.66-.51a15.74,15.74,0,0,0-1.92,0,2.06,2.06,0,0,0-1.82.62c-.39.47-1,.37-1.41-.16-.14-.16-.42-.21-.63-.32l-.29.66-.33.79-.45-.79c-.13-.23-.28-.45-.41-.67-.17.19-.44.36-.5.58-.34,1.32-.83,1.74-2.24,1.81-.28,0-.75,0-.8.19a6.47,6.47,0,0,0-.2,1.39c.22,0,.6.11.64,0,.37-.69,1-.59,1.59-.6a3.19,3.19,0,0,0,1-.31c.44-.17.87-.37,1.31-.51,1.2-.37,2.42-.68,3.61-1.08A15.6,15.6,0,0,0,239.15,312.37Zm7.94.05.1.19a1.25,1.25,0,0,0,.48,0,8.39,8.39,0,0,0,.83-.48c-.28-.19-.55-.54-.83-.54-1,0-2.08-.35-2.82.71a.61.61,0,0,1-.54.13c-1.28-.37-2.11.72-3.1,1.12a5.42,5.42,0,0,1-2.07.55,1.82,1.82,0,0,0-1.72.61c-.14.19-.57.21-.87.25a7.53,7.53,0,0,0-1,0c-.2.05-.35.3-.53.47.19.18.38.51.56.5,1-.07,2.21.48,3-.64a.69.69,0,0,1,.52-.18c.8,0,1.6.19,2.09-.73.08-.14.55,0,.82-.11,1.21-.32,2.42-.67,3.62-1,.08,0,.13-.14.21-.19ZM316,300.66l.25.4,1.26-.76c.18-.11.4-.32.56-.29.94.19,1.13-.83,1.8-1.08.07,0,.06-.47,0-.64s-.44-.1-.58,0c-.73.46-1.38,1.28-2.14,1.37a8.62,8.62,0,0,0-3.08,1c-.29.15-.57.32-.86.46a3.19,3.19,0,0,1-.82.36c-.34.06-.72-.06-1,0s-.41.31-.61.47c.19.18.38.51.56.51.75,0,1.62.39,2.14-.58.08-.16.45-.16.68-.24a5,5,0,0,0,.76-.29C315.2,301.16,315.58,300.9,316,300.66Zm-29.38,8.4.11.21a5.19,5.19,0,0,0,.94-.11.56.56,0,0,0,.32-.41c0-.15-.16-.44-.25-.44-1,0-2.11-.23-2.87.19-1.2.67-2.64.53-3.72,1.4-.22.18-.47.31-.71.47.25.19.54.57.74.53,1.37-.28,2.72-.66,4.08-1,.05,0,.09-.09.14-.13ZM263,312.41l.21.34c.43-.21.86-.43,1.3-.63s.63-.23.92-.38a8,8,0,0,0,.72-.46,2.76,2.76,0,0,0-.74-.55c-1.31-.4-2.13.85-3.29,1.09-.39.08-.83.63-1.44.64-.14,0-.38.28-.39.44s.21.48.33.48a3.48,3.48,0,0,0,1.24-.23A7.4,7.4,0,0,0,263,312.41Zm35.33-5.69v.09a16.33,16.33,0,0,0,2-.28,7.24,7.24,0,0,0,1.47-.67c.18-.09.42-.26.43-.42s-.2-.5-.31-.5c-.66,0-1.53-.17-1.92.17a2.35,2.35,0,0,1-1.91.57,3.19,3.19,0,0,0-1.05,0c-.25.07-.44.35-.65.53.2.16.39.43.62.46A8.06,8.06,0,0,0,298.35,306.72ZM227,316.15l.1-.18c.13,0,.28,0,.38,0,.29-.15.57-.34.85-.51-.28-.18-.56-.37-.86-.52a.51.51,0,0,0-.37,0c-.42.16-.83.35-1.25.53Zm44.39-5.7-.06-.29c-.25-.06-.6-.25-.74-.15a4.33,4.33,0,0,0-1,1.05c-.07.09.23.44.35.67Zm6,0c-.33-.23-.53-.46-.7-.45s-.34.27-.5.42c.17.18.32.44.53.5S277,310.64,277.37,310.4Zm-4,.77c.34.27.52.52.7.52a.64.64,0,0,0,.47-.43.66.66,0,0,0-.43-.48C274,310.75,273.77,311,273.41,311.17Z"/><path d="M102.17,28.71c.08.17.13.43.26.5.37.18.87.49,1.16.37a12.45,12.45,0,0,0,2.33-1.37c.54-.39,1-.5,1.37.11s.72.62,1.15,0a1.17,1.17,0,0,1,.79-.38c1-.06,2.07.34,2.81-.74.09-.14.48-.09.73-.09h2c.22,0,.56,0,.65-.08,1-1.32,2.36-.54,3.54-.77a6.09,6.09,0,0,0,1.15-.5,3,3,0,0,1,.93-.35c.8,0,1.61,0,2.41,0s1.42.12,1.88-.66c.09-.15.46-.17.7-.19s.77,0,1.16,0c.9,0,1.91.31,2.43-1,.85,1.43,2.06.94,3.12,1a1.26,1.26,0,0,0,.77-.46c.53-.57,1-.61,1.53,0s2.84.7,3.57,0a1.44,1.44,0,0,1,.9-.36c9.67,0,19.34,0,29,0,.61,0,1.21.59,1.93,1-.82.83-1.36,1.37-2.45,1.3-2.21-.14-4.43-.07-6.65,0a1.9,1.9,0,0,0-1.13.52.93.93,0,0,1-1.49,0,2.26,2.26,0,0,0-1.22-.54c-.93-.08-1.86,0-2.79,0s-1.84-.23-2.31.93c-.23-.21-.38-.32-.5-.46a1,1,0,0,0-1.69-.06c-.57.7-1,.72-1.64,0s-1.13-.58-1.79,0a1.62,1.62,0,0,1-1,.4c-3.47,0-6.94,0-10.41,0a4.06,4.06,0,0,0-1.24.51,3.11,3.11,0,0,1-.94.31c-.87,0-1.73,0-2.6,0-.62,0-1.2,0-1.59.63-.1.17-.5.23-.77.24-1.35,0-2.7,0-4,0-.73,0-1.49-.14-2,.68-.09.16-.52.18-.79.19-.71,0-1.41,0-2.12,0-.28,0-.71,0-.8.19-.49.83-1.24.64-2,.64s-1.41-.12-1.87.66c-.11.19-.63.16-1,.18-.86,0-1.81-.3-2.42.7-.09.15-.46.16-.71.16-.74,0-1.48,0-2.22,0-.25,0-.64,0-.73.14-.61,1-1.58.59-2.42.7a2.81,2.81,0,0,0-1.3.56c-.57.45-1,.54-1.44-.11s-.7-.59-1.08,0a2.34,2.34,0,0,1-2.56,1.24c-.65-.11-1.38-.16-1.75.64,0,.05-.1.12-.14.12a4.35,4.35,0,0,0-3,.94,9.32,9.32,0,0,1-.89.43c-.08,0-.13.21-.19.21-1.24-.06-2.24.72-3.38,1-.58.13-1.23-.06-1.58.62,0,.08-.15.19-.21.18a4.38,4.38,0,0,0-2.94.93,5.85,5.85,0,0,1-1,.46,2.83,2.83,0,0,1-.92.36c-1,0-2-.35-2.68.74a.1.1,0,0,1-.08,0c-1.21-.27-2.1.59-3.13.92a4.74,4.74,0,0,0-.71.4l-.88.44-.74.32a6.92,6.92,0,0,0-1,.53c-.51.36-1,.76-1.45,1.16-.17.14-.37.47-.47.44-1.29-.4-2.12.73-3.22.93-.22,0-.41.26-.6.41s-.37.41-.51.38c-.79-.15-1.12.43-1.56.87a3,3,0,0,1-1.59.92,8.6,8.6,0,0,0-2.33,1.33c-.13.08-.27.26-.4.24a5.25,5.25,0,0,0-2.52.73,8.42,8.42,0,0,0-2,1.34,7.08,7.08,0,0,1-.87.48l-.88.44-.82.39-.87.47c-.27.14-.55.25-.82.38A3,3,0,0,0,52,55c-.63.59-1.21,1.23-1.81,1.85-.07.07-.14.17-.22.18-1.88.2-2.49,2-3.8,3-.1.07-.16.26-.26.28-.94.16-1.78.4-1.67,1.64,0,0-.08.11-.13.13l-2.46,1a1.44,1.44,0,0,0-.49.26q-2.48,2.47-4.95,5c-.07.07-.17.14-.17.22-.14,1.88-1.89,2.53-2.9,3.73s-2.4,2.39-3.61,3.57c-.11.11-.27.27-.26.39.12,1.06-.77,1.45-1.33,2.07-.14.16-.39.37-.36.52.16.8-.45,1.15-.88,1.59a2.28,2.28,0,0,0-.9,1.56c0,.47-.75.88-1.15,1.33-.16.18-.45.42-.41.59.15.82-.45,1.22-.92,1.56-.85.61-1,1.09.18,1.71-1.28.57-1,1.6-1,2.53q0,3.42,0,6.84c0,.28,0,.72.14.82,1,.61.61,1.56.71,2.41a6.56,6.56,0,0,0,.58,1.39,2.63,2.63,0,0,1,.26,1,2.16,2.16,0,0,0,2.42,2.36,1.38,1.38,0,0,1,.9.34,1,1,0,0,1,0,.77c-.65.12-1.64.47-1.92.17-.73-.78-1.16-.64-1.64.1-.85-.54-1.66-1-2.44-1.54-.17-.12-.42-.36-.4-.49.16-.8-.41-1.13-.86-1.57a10.12,10.12,0,0,1-1-1.62c-.6-.82-.38-1.88-.8-2.46-1.55-2.11-.39-4.4-.74-6.56-.1-.66.05-1.32-.67-1.78A1.18,1.18,0,0,1,17,88.65c.94-.6.75-1.49.72-2.33,0-.6,0-1.14.59-1.49.16-.09.14-.46.25-.67a5.74,5.74,0,0,0,1-3.1c0-.12.29-.24.4-.39a4.57,4.57,0,0,0,1.28-2c.16-.76,1.22-1.32,1.83-2a4.62,4.62,0,0,0,.54-1c.11-.22.2-.44.31-.66s.34-.69.53-1a4.57,4.57,0,0,1,.61-.91c.78-.8,1.57-1.59,2.4-2.34.4-.36.37-.6,0-.94-.88-.84-1.77-1.67-2.6-2.55a1.6,1.6,0,0,1-.4-1c0-2.92,0-5.85,0-8.77,0-1,.8-1.23,1.2-1.83.19-.3.33-.63.5-.94l.43-.78c.14-.24.29-.47.41-.71s.34-.69.52-1c.06-.11.23-.2.23-.29-.05-1.46,1.24-2,2-2.84a2,2,0,0,0,.62-1.59,2,2,0,0,1,.44-1.14,22.81,22.81,0,0,1,1.6-1.65,3.22,3.22,0,0,1,1.5-.86,2,2,0,0,0,1.46-1.67c0-.26.25-.69.43-.71a2.1,2.1,0,0,0,2.09-2.11c0-.13.17-.36.26-.36,1.59,0,2.06-1.55,3.1-2.31.13-.09.28-.28.38-.26.93.19,1.23-.65,1.81-1,.42-.28.93-.43,1.35-.71a13.34,13.34,0,0,0,1.28-1.1c.17-.15.31-.46.47-.46,1.55,0,2-1.51,3-2.24.24-.17.59-.21.82-.4,1.23-1,3.25-.43,4.18-2.06.1-.18.36-.42.5-.4.88.16,1.24-.55,1.73-1a2.3,2.3,0,0,1,1.45-.77c.48-.05.86-.77,1.33-1.13.28-.22.66-.3,1-.5a7.34,7.34,0,0,1,2.92-1c.82-.15,1.53-.92,2.3-1.41a.83.83,0,0,1,.45-.14c.8,0,1.63.19,2.1-.73a.29.29,0,0,1,.25-.11c1.87.52,2.47-1.2,3.59-2,.31-.23.72-.31,1-.53.51-.35,1-.78,1.47-1.13a8.75,8.75,0,0,1,1-.53,7,7,0,0,0,.71-.38c.18-.12.35-.43.49-.41,1,.13,1.37-.79,2-1.25a6.64,6.64,0,0,1,1-.47l.72-.36.87-.49.88-.45a9,9,0,0,0,.82-.38,18.78,18.78,0,0,1,3-1c.71-.3,1.44-.43,2.11-.7,1-.4,2.19-.47,2.89-1a4.74,4.74,0,0,1,2.64-.64A4.18,4.18,0,0,0,94.94,9c.25-.12.48-.26.73-.39,0,0,.08,0,.09,0,.95-1.05,2.64-.33,3.54-1.48,0,0,.05-.07.07-.06,1.34.34,2.26-.84,3.48-1a5.86,5.86,0,0,0,1.4-.56,2.84,2.84,0,0,1,.87-.26c.7,0,1.42.07,2.12,0a5.25,5.25,0,0,0,1.15-.49,4.36,4.36,0,0,1,1.12-.32c.86-.08,1.83.32,2.42-.71a.57.57,0,0,1,.43-.17c1.11,0,2.3.35,3.16-.79.13-.17.67,0,1,0h2.89c.65,0,1.27.06,1.69-.64.11-.19.57-.21.87-.23.95-.07,2,.4,2.63-1,.57,1,1.08,1.24,1.68.27.09-.15.53-.12.81-.12,1.51,0,3,0,4.53,0,.37,0,.74-.35,1.09-.56.15-.09.26-.34.39-.34,1.06,0,2.32-.37,3.13.08a1.52,1.52,0,0,0,2,0c1.05-.56,2.63-.15,4-.12.15,0,.32.26.44.43a1,1,0,0,0,1.8,0s0-.06,0-.09c.36-.51,3.63-.54,4,0,.63.86,1.25.87,1.82,0,.33-.51.54-.51.77.07s.61.67,1,.05,1-.63,1.54,0a1.55,1.55,0,0,0,1,.5c4.31,0,8.61,0,12.92,0,.28,0,.72-.05.82.09.71,1.07,1.77.69,2.72.74.64,0,1.29,0,1.93,0s1.33-.12,1.77.62c.11.19.57.22.88.23,1.06,0,2.12,0,3.18,0,.71,0,1.39-.17,1.86.63.11.19.64.19,1,.2.67,0,1.35,0,2,0,.24,0,.62,0,.71.16.61,1,1.56.62,2.42.71a5,5,0,0,1,1.23.46,3.61,3.61,0,0,0,.94.35c.67.06,1.35,0,2,0a3.83,3.83,0,0,1,2.35.6A5.67,5.67,0,0,0,197.76,7c.35-.08.8.32,1.22.45s.89.21,1.32.35.77.33,1.17.44a9.71,9.71,0,0,0,1.89.37,2.07,2.07,0,0,1,1.62.56c.35.35,1.18.3,1.8.3s1.09-.06,1.52.53c.19.26.81.2,1.22.32s.78.3,1.17.42a4.06,4.06,0,0,0,1.59.37,2.31,2.31,0,0,1,2.38,1,1.59,1.59,0,0,0,1.56.69,9.29,9.29,0,0,1,1.73,0,4.84,4.84,0,0,1,1.16.46c.25.11.51.21.75.33a19.45,19.45,0,0,0,3.07,1.08,5.56,5.56,0,0,0,2.13.62.56.56,0,0,1,.44.14c.63,1,1.63.63,2.52.73a4.5,4.5,0,0,1,1.15.45,23.07,23.07,0,0,0,2.9,1.18c.52.14,1.05,0,1.41.59.1.16.46.15.67.26a17.47,17.47,0,0,0,3.07,1.1,4.88,4.88,0,0,0,2.06.59.49.49,0,0,1,.28,0l2.3,1.42a5.16,5.16,0,0,0,.6.25l1,.45.73.37a7.05,7.05,0,0,0,1.88.85c.69.1,1.42-.1,1.81.7a.2.2,0,0,0,.16.09c1.22-.31,2.07.66,3.14.88a2.45,2.45,0,0,1,.57.31l1,.52.66.32a8.07,8.07,0,0,1,1,.53,7.35,7.35,0,0,0,2.93,1c.47.1.93.74,1.62.73.11,0,.25.26.32.42.16.37.28.76.42,1.14l1-.67c1,.78,2.41,1,3.07,2.22,1.2-.1,1.82,1.39,3.19,1.08.42-.09,1,.7,1.56,1.06.32.21.72.31,1,.55a5,5,0,0,0,3,1c.31,0,.57.58.9.82a13.55,13.55,0,0,0,1.24.69c.21.12.42.26.62.39.76.52,2,.61,1.88,2a1.11,1.11,0,0,0,.69.18c1.19-.28,1.8.51,2.5,1.22a1.33,1.33,0,0,0,1,.45c1.12-.21,1.69.5,2.35,1.16a6.09,6.09,0,0,0,.91.51c.53.36,1,.78,1.57,1.14.32.21.68.34,1,.53a4,4,0,0,1,.9.62c.72.76,1.39,1.57,2.11,2.38a6.27,6.27,0,0,1-.78.79c-.2.15-.59.3-.77.21-.81-.41-1.57-.91-2.35-1.38-.13-.08-.27-.28-.38-.26-1.08.16-1.45-.76-2.07-1.31-.14-.13-.3-.37-.42-.36-1.11.15-1.5-.8-2.15-1.36-.22-.19-.58-.42-.82-.37-1.15.25-1.76-.48-2.44-1.17a3.46,3.46,0,0,0-.93-.51l-.74-.36-1-.48-.73-.38c-.32-.16-.63-.31-1-.45-.08,0-.23,0-.28,0-.81-1-2.38-.85-3-2.09-.11-.21-.51-.28-.78-.39-.11,0-.28,0-.38,0A15.43,15.43,0,0,1,266.49,36a1.91,1.91,0,0,0-1.84-.71c-1.24.27-2-.4-2.67-1.24a1.15,1.15,0,0,0-.87-.43c-1.17.28-1.76-.47-2.42-1.17-.15-.16-.36-.47-.47-.44-1.24.34-2.07-.73-3.15-.9-.22,0-.4-.28-.62-.4s-.59-.29-.89-.44l-.8-.42-.81-.41a6,6,0,0,0-3.11-1c-.26,0-.57-.47-.81-.77-.37-.46-.73-.9-1.42-.78a.31.31,0,0,1-.26-.1c-.7-1.12-1.78-.75-2.77-.73-.13,0-.28,0-.38,0-.76-.43-1.5-.9-2.26-1.33-.24-.14-.51-.21-.76-.32s-.58-.31-.88-.46a8.77,8.77,0,0,0-.81-.38c-.14-.05-.4,0-.46-.07-.58-.93-1.48-.83-2.38-.82-.17,0-.35-.24-.52-.38s-.32-.39-.42-.36c-1.26.32-2.11-.76-3.22-.9a.49.49,0,0,1-.34-.16c-.57-1-1.56-.61-2.41-.73a5.68,5.68,0,0,1-1.25-.46,6.93,6.93,0,0,1-.75-.32,14.14,14.14,0,0,0-3.08-1.09c-.6-.17-1.2-.67-2-.63a4.56,4.56,0,0,1-2-.54c-1.11-.45-2.08-1.57-3.54-1.17-.37.1-.87-.31-1.32-.45s-.9-.2-1.33-.34a9.46,9.46,0,0,1-1.15-.48c-.14-.06-.26-.31-.35-.29-1.21.27-2.08-.62-3.12-.88-.12,0-.3,0-.36-.11-.86-1.26-2.16-.58-3.27-.78-.46-.08-.87-.36-1.32-.48a7.69,7.69,0,0,0-1.81-.34c-.65,0-1.3.13-1.65-.62,0-.05-.1-.12-.14-.12-1.6.31-2.76-1.32-4.4-1-.36.08-.81-.29-1.23-.45a3.37,3.37,0,0,0-.93-.36c-.74,0-1.48,0-2.22,0-.25,0-.63,0-.71-.12-.63-1-1.63-.63-2.51-.74A9.74,9.74,0,0,1,187.24,8a9.2,9.2,0,0,0-2-.39c-.6,0-1.12,0-1.5-.57-.12-.2-.56-.27-.86-.28-.77,0-1.54,0-2.31,0s-1.47.19-2-.63c-.1-.17-.52-.18-.8-.19-.83,0-1.67,0-2.51,0-.65,0-1.26.1-1.68-.61-.11-.19-.57-.24-.87-.25-2.12,0-4.24,0-6.36,0-.27,0-.68,0-.78-.21-.42-.76-1.1-.66-1.77-.66-6.72,0-13.43,0-20.15,0a1.28,1.28,0,0,1-.87-.41c-.44-.53-.74-.48-1.12.05a2.06,2.06,0,0,1-2,.25c-.9-.63-.9-.63-1.66.1-.16-.19-.3-.49-.49-.53-.45-.1-1.2-.28-1.36-.07-.54.72-1.2.61-1.9.6-2.41,0-4.82,0-7.23,0-.44,0-.87.37-1.31.56a2.69,2.69,0,0,1-.86.28c-.7,0-1.42-.07-2.12,0a4.38,4.38,0,0,0-1.16.48,2.89,2.89,0,0,1-.92.36c-1.06,0-2.12,0-3.18,0-.73,0-1.48-.14-2,.67-.1.16-.52.17-.8.17-.74,0-1.48,0-2.22,0-.25,0-.63,0-.71.18-.45.87-1.21.67-1.93.65s-1.42-.13-1.87.66c-.1.17-.51.2-.78.21a14.14,14.14,0,0,0-2,0c-1.19.22-2.25.83-3.46,1.09-.54.12-1.12.61-1.84.59a2.29,2.29,0,0,0-.86.31c-.36.15-.71.31-1.06.49a7.71,7.71,0,0,0-.7.49c.2.22.38.61.59.62,1.06.05,2.12,0,3.18,0a.35.35,0,0,0,.26-.11c.57-1,1.54-.7,2.4-.71q1.59,0,3.18,0c.62,0,1.2,0,1.61-.61.11-.17.51-.23.78-.23,1.09,0,2.18,0,3.28,0,.7,0,1.42.11,1.87-.67.08-.15.45-.19.69-.19.9,0,1.8,0,2.7,0,.62,0,1.21,0,1.6-.62.1-.18.5-.26.76-.26,4.08,0,8.16,0,12.24,0,.84,0,1.78.23,2.11-.6a12.25,12.25,0,0,0,2.11.57,1.7,1.7,0,0,0,1.13-.5.94.94,0,0,1,1.49,0,2.1,2.1,0,0,0,1.24.51c4.82,0,9.64,0,14.46,0a1.63,1.63,0,0,1,1.06.4c.43.44.72.47,1.07,0,.48-.67,1-.57,1.51,0a1.83,1.83,0,0,0,1.07.47c1,.06,1.93,0,2.89,0,.51,0,1,0,1,.66s-.39.83-1,.83q-7,0-14.07,0c-2.44,0-4.88,0-7.33,0a1.33,1.33,0,0,1-.88-.4c-.4-.45-.66-.48-1.09,0a1.48,1.48,0,0,1-1,.42c-2.89,0-5.78,0-8.68,0a4.21,4.21,0,0,0-1.31.54,2.51,2.51,0,0,1-.85.29c-2.09,0-4.18,0-6.26,0a4,4,0,0,0-1.24.51,3.06,3.06,0,0,1-.93.33c-.87,0-1.73,0-2.6,0-.61,0-1.2,0-1.62.6-.12.19-.56.23-.86.24-.71,0-1.41,0-2.12,0-.25,0-.64,0-.73.13-.62,1.07-1.62.65-2.5.69-.61,0-1.22,0-1.83,0-.25,0-.64,0-.73.14-.59,1-1.55.68-2.41.7-.64,0-1.28,0-1.93,0-.25,0-.64,0-.72.15-.56.93-1.43.67-2.24.67-.62,0-1.19,0-1.6.63-.12.2-.62.22-1,.21-.6,0-1.13,0-1.52.58-.13.2-.55.27-.85.28-1,.06-2-.32-2.71.73-.1.15-.54.08-.82.1-.89,0-1.9-.33-2.48.75,0,0-.06.05-.08,0-1.5-.46-2.48,1.19-4,.92A3.68,3.68,0,0,0,81,20.8c-.77.49-1.76,1.48-3,1.07-.19-.06-.49.21-.74.33l-1,.5-.79.43c-.24.13-.47.29-.71.41s-.68.34-1,.51a7.31,7.31,0,0,1-.76.33c-.18.06-.48,0-.54.11-.63,1-1.64.57-2.51.71a4.91,4.91,0,0,0-1.22.54l-.65.34-1,.5-.75.33-.88.44c-.27.13-.55.27-.83.38-.08,0-.22,0-.28,0-1.51,1-3.68,1-4.71,2.86-.14.26-.62.32-.94.49s-.53.27-.78.43-.36.39-.52.37c-.73-.1-1.07.4-1.51.83a2.89,2.89,0,0,1-1.65,1A7.85,7.85,0,0,0,51.87,35c-.21.12-.44.22-.66.33s-.69.34-1,.52c-.11.06-.2.23-.29.23-1,0-1.54.31-1.41,1.39a.37.37,0,0,1-.24.27c-1.59,0-2,1.55-3.09,2.29a4,4,0,0,1-.75.32,2.7,2.7,0,0,0-.81.37c-.72.68-1.38,1.42-2.09,2.11-.47.45-.86,1.05-1.69.9-.13,0-.47.26-.46.39.07,1.48-1.3,2-2,2.86-.41.51-.87,1.13-1.75,1-.11,0-.44.55-.47.87-.06.52-.25.8-.77.74-.75-.08-1.1.34-.94,1,.29,1.18-.5,1.74-1.16,2.41a1.48,1.48,0,0,0-.48.85c0,.73-.37.89-1,.8a2.24,2.24,0,0,0-.77,0c-.25.06-.61.18-.69.37s.12.52.29.7c.46.49.75,1.85.26,2.16C28,59,28.3,60.8,28.37,62.56c0,.61.06,1.13-.57,1.49-.16.09-.16.45-.26.67s-.3.59-.46.87c0,.05-.14.07-.15.12,0,.45-.21,1.24-.1,1.28,1,.38.25,2.47,2,2.1a1.24,1.24,0,0,0,.54-.35c.75-.74,1.49-1.49,2.23-2.24.11-.11.32-.24.31-.34-.07-1.35,1.14-1.83,1.81-2.66a23.31,23.31,0,0,1,1.69-1.7c.07-.07.15-.18.22-.18,1.46.07,2-1.26,2.83-2,1.18-1,2.21-2.22,3.35-3.29.34-.31.87-.41,1.26-.68a17,17,0,0,0,1.36-1.14c.17-.15.32-.45.48-.45,1.49,0,1.92-1.43,2.91-2.11.18-.12.34-.44.49-.43,1.14.09,1.54-.88,2.21-1.45.18-.15.48-.33.66-.28,1.1.32,1.7-.37,2.38-1,.33-.32.87-.41,1.26-.69s.95-.81,1.43-1.21c.21-.17.47-.44.69-.43.85,0,1.67.09,2.2-.77.06-.09.31-.13.45-.09,1,.3,1.65-.29,2.3-1a5.29,5.29,0,0,1,1.34-.73c.19-.1.36-.23.55-.34a9.76,9.76,0,0,0,.94-.51,8.42,8.42,0,0,1,3-1A9.16,9.16,0,0,0,70,40.63a.51.51,0,0,1,.36-.09c1.27.39,1.94-.47,2.65-1.24.11-.12.25-.34.34-.32,1.24.23,2.17-.58,3.2-1a7.51,7.51,0,0,0,1.52-1.21,1.54,1.54,0,0,1,.8-.42c.79,0,1.54.11,2-.74.07-.12.41-.12.63-.12a5.94,5.94,0,0,1,1.06,0,2.89,2.89,0,0,0,3-1.21,1.26,1.26,0,0,1,.85-.49c.78,0,1.53.11,2-.73.1-.16.59-.09.9-.1a5,5,0,0,0,2.46-.61c.87-.49,1.81-1.47,3.14-1.1a1.43,1.43,0,0,0,1.78-.6c.11-.18.56-.22.86-.23.93,0,1.87.28,2.63-.7.33-.42,1.13-.49,1.71-.71ZM93.46,13.55l.05.17c.37-.07.92,0,1.08-.22a1.68,1.68,0,0,1,1.55-.73c.14,0,.39-.27.4-.43s-.22-.48-.33-.48a5.55,5.55,0,0,0-1.31.25c-.41.13-.79.4-1.21.49-.69.16-1.42.19-2.11.35a4.81,4.81,0,0,0-1.14.52,5.58,5.58,0,0,0-.63.46c.21.19.41.53.63.54.71,0,1.46.2,2-.53C92.65,13.71,93.12,13.68,93.46,13.55Zm-6.16,2,.84-.79c-.28-.18-.57-.49-.85-.49s-.56.32-.84.49Z"/><path d="M181.6,192.16a1.8,1.8,0,0,0-.38-.48c-.15-.11-.55-.16-.57-.1-.6,1.2-1.69.61-2.57.7-.57.06-1.16,0-1.73,0-.25,0-.61,0-.71.19-.46.76-1.15.66-1.87.64s-1.49-.15-2,.67c-.09.15-.46.18-.7.18-1.38,0-2.76,0-4.14,0-.7,0-1.41-.1-1.87.67-.1.17-.51.2-.79.2-1.25,0-2.51,0-3.76,0-.81,0-1.66-.18-2.25.71-.09.14-.91.06-1.11-.17-.48-.56-.77-.71-1.23,0a.73.73,0,0,1-1.33,0c-.4-.56-.7-.68-1.17-.06a1.26,1.26,0,0,1-.89.37c-3.21,0-6.43,0-9.64,0-.25,0-.64,0-.72-.13-.61-1.06-1.11-.59-1.66.23-.53-1.15-1.48-.93-2.36-.93-2.35,0-4.69,0-7,0-.27,0-.69,0-.78-.2-.45-.78-1.16-.68-1.86-.67l-3.28,0c-.19,0-.48,0-.55-.05-1-1.34-2.4-.64-3.64-.8a3.94,3.94,0,0,1-.93-.35,3.86,3.86,0,0,0-1.17-.46c-1.51,0-3,0-4.53,0-.22,0-.55.06-.65-.06-1.13-1.42-2.67-.65-4-.78a7.59,7.59,0,0,1-1.58-.51c-1.05-.32-1.79-1.49-3.06-1.17-.2,0-.55,0-.63-.1-.83-1.25-2.09-.69-3.17-.74-.59,0-1.14.08-1.5-.57-.09-.17-.43-.23-.67-.28s-.5.09-.66,0c-1.13-.72-2.57-.6-3.68-1.37a1.83,1.83,0,0,0-.77-.3,3.65,3.65,0,0,0-1.15,0,3.13,3.13,0,0,1-3.14-1.31c-.34-.38-1.23-.35-1.87-.36s-1.14.09-1.5-.55c-.09-.16-.44-.18-.67-.26s-.59-.08-.69-.24c-.41-.69-1.06-.52-1.68-.65A21.43,21.43,0,0,1,80.08,182c-1.06-.4-2.45-.84-3-2.13a.2.2,0,0,0-.16-.1c-1.21.3-2.07-.62-3.12-.88a3.14,3.14,0,0,1-.64-.36l-.87-.46-.81-.4c-.29-.15-.57-.31-.87-.44-.11,0-.31,0-.37,0-.81-1-2.39-.83-3-2.09-.08-.17-.36-.4-.51-.37-.95.2-1.37-.56-1.77-1.09a1.58,1.58,0,0,0-1.67-.64c-.68.1-1-.09-1-.86,0-.27-.45-.8-.59-.77-1.56.33-2.28-.82-3.21-1.66a7.06,7.06,0,0,0-2.58-1.91,10.7,10.7,0,0,1-4.51-3.53c-.12-.15-.26-.41-.39-.4-1.42,0-2-1.17-2.8-1.95-4.45-4.38-8.83-8.82-13.24-13.23,0,0-.07,0-.07-.06A4.75,4.75,0,0,0,32.95,146c-.06-.05,0-.4,0-.41.3-.05.68-.18.89,0a9.5,9.5,0,0,1,1.2,1.1c.18.17.4.49.56.47.82-.11,1.21.48,1.68.94s.73,1,1.5.84c.13,0,.41.29.47.49a4,4,0,0,0,2.88,2.88c.22.06.33.51.49.77s.42.85.55.82c1-.17,1.37.64,1.88,1.13,1.52,1.47,3,3,4.45,4.5a1.85,1.85,0,0,0,.48.28,13.07,13.07,0,0,1,1.36.71c.58.39.88,1.23,1.81,1,.09,0,.22.12.31.2a7.23,7.23,0,0,0,2.23,1.58A7.92,7.92,0,0,1,59.52,166c.15.22.51.3.77.44l.9.43.8.41c.29.15.59.29.88.45s.37.4.51.37c.8-.17,1.16.41,1.6.86a3.81,3.81,0,0,0,1.55.93,15.46,15.46,0,0,1,2.92,1.83c.35.22.76.36,1.08.61a6.26,6.26,0,0,0,2.91,1c.82.14,1.5,1,2.3,1.39s1.68.64,2.52,1a2.17,2.17,0,0,1,.53.38c.15.12.3.4.41.38a4.61,4.61,0,0,1,3.1.94,10.17,10.17,0,0,0,2.92,1c.83.18,1.48,1.06,2.31,1.38a4.26,4.26,0,0,0,2.17.14,2.27,2.27,0,0,1,2.37,1,1.56,1.56,0,0,0,1.49.65c.71,0,1.42.07,2.12,0a1.92,1.92,0,0,1,2.07.85,2.09,2.09,0,0,0,2.26.85,1.82,1.82,0,0,1,1.71.57c.29.32,1.07.24,1.63.25a2,2,0,0,1,1.71.56c.33.35,1.19.29,1.8.28s1.12,0,1.5.56c.13.2.56.27.86.28.74,0,1.48,0,2.22,0,.24,0,.62,0,.7.17.59,1,1.06.59,1.61-.29.49,1.08,1.32,1.08,2.21,1a.5.5,0,0,1,.41.19c.58,1.11,1,.58,1.52-.27.73,1.27,1.85,1,2.91.93.16,0,.39,0,.46.07,1,1.29,2.35.66,3.56.78.77.07,1.61-.25,2.13.68.09.16.53.18.81.18l8.87,0a1.34,1.34,0,0,1,.79.2,4.16,4.16,0,0,0,4.66,0,2.23,2.23,0,0,1,2.21.13,2,2,0,0,0,1.14.51c3,0,5.91,0,8.87,0,.28,0,.72,0,.8-.18.49-.91,1.28-.65,2-.65,2.09,0,4.18,0,6.27,0a4,4,0,0,0,1.24-.5,2.85,2.85,0,0,1,.93-.34c1.8,0,3.6,0,5.4,0a4.7,4.7,0,0,0,1.25-.49,4.32,4.32,0,0,1,1.13-.31c.9-.06,1.9.27,2.59-1.24.16.41.22.6.31.76.3.57.64.58,1,0,.07-.11.16-.3.22-.3,1.24.13,2.18-.78,3.3-.94s2.38,0,3.56,0a5.64,5.64,0,0,0,1.4-.57,3.81,3.81,0,0,1,1-.24,4.8,4.8,0,0,0,2.57-.6c.79-.52,1.75-1.44,3-1.11.7.18,1.32-.35,2-.58,1-.35,1.73-1.46,3-1.09a.66.66,0,0,0,.47,0c.78-.45,1.55-.94,2.33-1.4a6.91,6.91,0,0,1,.68-.27c.3-.13.58-.28.88-.43l.81-.41.88-.45.83-.38.81-.39.87-.46.86-.46.73-.38,1-.48.75-.35c.32-.16.63-.33.94-.5s.33-.34.45-.31c.79.17,1.12-.43,1.57-.86a2.29,2.29,0,0,1,1.59-.91c.46,0,.88-.74,1.33-1.14.16-.15.36-.43.5-.41.88.16,1.29-.47,1.71-1a1.92,1.92,0,0,1,1.84-.74,1.47,1.47,0,0,0,1-.39c.91-.85,1.75-1.77,2.64-2.64a2.59,2.59,0,0,1,.66-.33c.34-.17.69-.35,1-.54.14-.08.28-.29.38-.27,1,.23,1.36-.6,1.85-1.11a1.65,1.65,0,0,1,1.52-.57,14.67,14.67,0,0,0,1.93,0c.25,0,.59,0,.72-.18,1.1-1.35,2.6-.32,3.85-.68.63.94,1.59.89,2.55.88.15,0,.29.23.44.34a5.08,5.08,0,0,0,2.07,1.39c.78.19,1.32,1.24,2,1.83a2.33,2.33,0,0,1,.88,2.26,17.74,17.74,0,0,0,0,2.41c0,.7.14,1.4-.65,1.86-.18.11-.2.58-.21.88,0,1.83,0,3.66,0,5.49a1,1,0,0,1,0,.47c-.46.78-1,1.54-1.44,2.3-.05.08-.17.17-.16.23.25,1.2-.52,2.12-.92,3.12a8.71,8.71,0,0,1-1.21,1.53c-.21.29-.51.69-.45,1,.25,1.13-.51,1.69-1.16,2.34-.18.18-.5.38-.49.55.1,1.07-.77,1.46-1.34,2.06-.09.09-.26.17-.27.26-.13,1.83-1.77,2.54-2.79,3.67-1.8,2-3.78,3.81-5.69,5.7a1.37,1.37,0,0,1-.63.38,2.29,2.29,0,0,0-1.91,2c0,.15-.1.36-.2.41-.77.35-1.58.62-2.34,1a8.13,8.13,0,0,0-1.33,1c-.2.16-.34.52-.53.53-1,.06-1.67.44-1.57,1.59,0,.05-.13.17-.21.18-1.88.19-2.45,2.06-3.79,2.95a9.61,9.61,0,0,1-.87.48c-.29.15-.59.28-.88.45s-.38.4-.52.37c-.76-.16-1.1.37-1.48.83a2.59,2.59,0,0,1-2.07.91c-.57,0-1.09.72-1.66,1.08-.35.22-.75.38-1.12.57s-.46.3-.7.43-.54.27-.81.41-.59.29-.87.46-.32.37-.43.34c-.93-.21-1.24.63-1.81,1a11.75,11.75,0,0,1-1.36.7s-.08,0-.09,0c-.79.93-1.57,1.27-2.4,0a1.15,1.15,0,0,0-.59.3c-.63.86-1.31,1.58-2.52,1.31a.56.56,0,0,0-.38,0c-.77.47-1.53,1-2.31,1.43a1.71,1.71,0,0,1-.79.21c-1,0-2-.36-2.69.73-.08.12-.41.12-.63.12-.87,0-1.73,0-2.6,0-.64,0-1.29-.07-1.69.64-.09.16-.45.22-.68.22-1.48,0-3-.08-4.43,0a8.33,8.33,0,0,0-2,.63c-.75-1.18-2.1-.51-3.28-.62-.22,0-.45.09-.67.05-.38-.06-.75-.19-1.12-.28a3.2,3.2,0,0,0,.94-.5c.94-1,2.18-.62,3.31-.74.09,0,.24,0,.27-.07.65-1.13,1.76-.64,2.69-.73.26,0,.55.21.83.31s.62.2.92.3c-.12-.29-.24-.59-.38-.87,0-.07-.15-.11-.33-.22.65-.67,1.05-1.38,2.14-1.22a17.16,17.16,0,0,0,2.79,0c.24,0,.63,0,.71-.18.45-.87,1.22-.67,1.94-.66a2.41,2.41,0,0,0,1.9-.63c.62-.57,1.72-.6,2.43-1.11.89-.64,2.11-.48,2.78-1a4.79,4.79,0,0,1,2.75-.65,3.3,3.3,0,0,0,1.06-.48c.16-.09.32-.37.43-.34.94.23,1.23-.64,1.81-1,.42-.28.91-.45,1.36-.7.21-.12.38-.31.59-.43s.53-.27.8-.41a7.33,7.33,0,0,1,3.1-1c.27,0,.53-.51.79-.79a2,2,0,0,1,1.44-.79c.45,0,.83-.72,1.28-1a8,8,0,0,1,1.11-.57l.64-.34s.06-.13.11-.15c.83-.42,2-.52,1.86-1.87,0,0,.1-.11.15-.1,1.17.13,1.58-.89,2.27-1.49.07-.06.15-.17.23-.17,1.49,0,1.92-1.42,2.91-2.09.15-.11.27-.39.4-.39,1.55,0,1.93-1.77,3.07-2.16,1.3-.44,1.63-1.52,2.34-2.37.26-.32.82-.37,1.18-.63s.65-.53.68-.83c.06-.61.28-.86.89-.86a1,1,0,0,0,.67-.28q2.46-2.42,4.88-4.88a2.34,2.34,0,0,0,.31-.66c.15-.32.29-.64.46-1s.34-.31.33-.44c-.13-1.07.76-1.46,1.31-2.08a3.66,3.66,0,0,0,.42-.7c.18-.34.35-.69.53-1,0-.05.13-.09.13-.13,0-1.19.72-2.19,1-3.29.18-.75.13-1.5.85-2a2.23,2.23,0,0,0,.87-2.44,1.37,1.37,0,0,1,.56-1.51c.22-.14.29-.62.3-.95,0-1.83,0-3.66,0-5.49a1.43,1.43,0,0,1,.36-.9c.68-.69.7-1.19,0-1.85a1.19,1.19,0,0,1-.41-.7c0-.83-.43-1.05-1.16-1s-1.42-.07-2.12,0a4.17,4.17,0,0,0-1.15.5l-.74.35-.95.49s0,.07-.06.07c-1,.22-1.83.53-1.82,1.77,0,.06-.35.2-.51.16-1.71-.4-2.78.49-3.84,1.68a5.69,5.69,0,0,1-2.61,1.88,8.15,8.15,0,0,0-3.74,2.81.92.92,0,0,1-.72.35c-1.19-.31-1.8.51-2.52,1.18a2,2,0,0,1-1,.51c-.57.07-.81.32-.77.87s-.18.81-.77.85a2.76,2.76,0,0,0-.88.42l-.81.4-.88.45c-.24.13-.53.4-.73.35-1.19-.3-1.82.49-2.51,1.19-.2.2-.49.53-.66.48-1.83-.44-2.44,1.19-3.52,2-.12.1-.22.35-.32.34-1.26-.08-2.24.76-3.4,1-.6.11-1.21,0-1.59.64-.09.16-.44.2-.67.27s-.48,0-.54.11c-.6,1-1.57.6-2.41.71a6,6,0,0,0-1.33.53,2.8,2.8,0,0,1-.85.3c-.74,0-1.48-.06-2.21,0a3.52,3.52,0,0,0-1.08.46c-.27.13-.54.28-.81.41-1,.49-2.21.53-3,1a5.67,5.67,0,0,1-2.64.63A7.62,7.62,0,0,0,181.6,192.16Z"/><path d="M236.44,138.22c-.8-.18-1.52-.35-2.24-.49-.15,0-.39,0-.46.08-.91,1.26-2.22.61-3.37.73-.64.07-1.28,0-1.93,0-.25,0-.64,0-.72.17-.48.89-1.28.66-2,.66-2.38,0-4.76,0-7.13,0a4,4,0,0,0-1.24.51,3.22,3.22,0,0,1-.93.34c-1,.06-1.95-.27-2.74.72-.22.28-1,.1-1.57.1s-1.19,0-1.6.62c-.13.2-.62.21-1,.22-.89,0-1.81-.25-2.54.7-.23.3-1.1,0-1.65.16a11.42,11.42,0,0,0-1.51.56,3.28,3.28,0,0,1-.87.27c-1,.06-2-.35-2.67.76,0,0-.06.06-.08.05-1.23-.36-2.16.44-3.1.94a5.58,5.58,0,0,1-2.88.85c-.13,0-.25.26-.4.39-.59.53-1,1.17-2,1.32a7.5,7.5,0,0,0-2.33,1.34,3.3,3.3,0,0,1-.41.24l-1.63.67a1.64,1.64,0,0,0-.34-.39c-.16-.11-.46-.24-.57-.17-.93.63-1.84,1.3-2.74,2-.15.11-.28.38-.41.38-1.49,0-1.94,1.42-2.92,2.1-.18.12-.33.44-.48.43a6.48,6.48,0,0,0-2.71.78,7.76,7.76,0,0,0-1.79,1.26c-.7.55-1.16,1.26-2.21,1.5-.79.19-1.36,1.27-2.07,1.9a4.14,4.14,0,0,1-1,.49,6.41,6.41,0,0,0-.73.37c-.15.1-.26.4-.39.39-1.54,0-2,1.48-3,2.15a6,6,0,0,1-.89.46c-.11,0-.31,0-.37,0-1.08,1.32-2.55.6-3.84.74-.7.07-1.41-.08-1.86.69-.1.18-.6.24-.86.16a.83.83,0,0,1-.42-.65c0-.69-.27-1-1-1-.26,0-.52-.3-.79-.45s-.48-.25-.73-.37l-1-.48a3.57,3.57,0,0,0-.75-.35,2.17,2.17,0,0,1-1.7-1.67,4.89,4.89,0,0,0-.94-1.37c-.16-.2-.54-.36-.53-.52.06-1.23-.86-2.19-1-3.3-.17-2.07,0-4.17-.07-6.26,0-.9.62-1.26,1.1-1.68a1.82,1.82,0,0,0,.64-1.59,3.24,3.24,0,0,1,.42-1.15c.12-.28.43-.58.38-.81-.28-1.24.52-1.86,1.28-2.56a1.17,1.17,0,0,0,.4-.89c-.31-1.14.5-1.68,1.11-2.35s1.36-1.06,1.52-2.17c.1-.69,1.09-1.27,1.69-1.88.83-.84,1.7-1.65,2.5-2.52.33-.36.43-.93.76-1.3a4,4,0,0,1,1.57-1.33c.64-.19.95-.32,1-1,0-.24.33-.69.47-.68,1,.13,1.28-.75,1.85-1.2s1-1.07,1.59-1.53a10.27,10.27,0,0,1,1.27-.67c.69-.42,1.4-.82,1.55-1.75,0-.26.32-.72.43-.7.84.11,1.17-.53,1.64-1s.8-.89,1.54-.82c.16,0,.53-.51.54-.8,0-.56.22-.95.78-.81,1.16.28,1.77-.47,2.43-1.15l1.82-1.84c.13-.13.32-.35.44-.33,1,.18,1.33-.74,1.93-1.19.18-.13.35-.47.47-.44,1.22.23,2.11-.57,3.13-.94a6.06,6.06,0,0,0,.71-.4,9.43,9.43,0,0,0,.88-.44,8.47,8.47,0,0,1,3-1,9.41,9.41,0,0,0,2.3-1.41,1.37,1.37,0,0,1,.74-.09c.62,0,1.21.09,1.6-.58.1-.17.43-.22.66-.29s.56,0,.62-.14c.5-.94,1.35-.66,2.13-.66s1.28.06,1.68-.65c.1-.17.51-.22.77-.23.74,0,1.48,0,2.22,0,.22,0,.56,0,.65-.1.82-1.17,2-.63,3.09-.72.64-.05,1.3,0,1.92,0a5.36,5.36,0,0,0,1.33-.54c.14-.06.24-.24.38-.27a9.31,9.31,0,0,0,3.22-1.59c.24-.16.69,0,1,0-.13.25-.2.65-.4.74-1.44.59-2.4,2-4,2.4-.49.14-.83.76-1.28,1.11a5.51,5.51,0,0,1-1,.49l-.74.36c-.32.16-.64.33-1,.47-.14.06-.39,0-.44.12-.55,1-1.48.68-2.3.67-.6,0-1.17,0-1.48.63,0,.05-.1.13-.14.13-1.36-.31-2.3,1-3.58.95-.84,0-1.75-.23-2.31.73-.08.14-.49.16-.72.11a2.87,2.87,0,0,0-3.15,1.24c-.11.15-.3.41-.4.39-1.22-.28-2.17.44-3.11,1a28.5,28.5,0,0,1-2.93,1c-1.11.49-2.18,1.1-3.29,1.64-.81.39-1.37,1.31-2.07,2a3.5,3.5,0,0,1-.79.45c-.32.17-.64.31-1,.48-.11.06-.19.25-.28.24-1.46,0-1.91,1.34-2.84,2-.73.55-1.11,1.61-2.3,1.49-.15,0-.34.34-.52.52a56.51,56.51,0,0,1-5.09,4.94,7.81,7.81,0,0,0-1.93,1.95,24.79,24.79,0,0,1-3.48,3.54c-.09.09-.25.18-.26.27-.12,1.81-1.87,2.38-2.73,3.63-.07.1-.23.15-.29.25-.46.83-.7,1.87-2,1.93-.08,0-.07.77-.18,1.16a7,7,0,0,1-.46,1.15c-.06.14-.32.26-.3.35.26,1.21-.58,2.09-.91,3.11a3.65,3.65,0,0,1-.42.7c-.14.24-.28.47-.41.71s-.36.68-.52,1a3,3,0,0,0-.35.94c-.05.7,0,1.41,0,2.12s.31,1.7-.69,2.19l0,5.43c1.07.79,1.63,2.42,3.43,2,.21,0,.52.3.75.49a1.2,1.2,0,0,0,1.7,0c1.14-.88.92-2.09.9-3.26a1.77,1.77,0,0,1,.53-1.65c.21-.17.15-.65.27-1,.05-.15.24-.35.36-.35s.36.22.36.34c0,1.31,0,2.63-.08,3.94a.53.53,0,0,1-.21.31c-.36.3-.81.71-.25,1a1.73,1.73,0,0,0,1.38-.18c.4-.21.66-.68,1-1a1.31,1.31,0,0,1,.54-.36c1.53-.38,2-1,2-2.54,0-.64,0-1.29,0-1.93s-.13-1.3.6-1.66c0,0,.06,0,.06-.07-.14-1.26.76-2.24,1-3.41a7.65,7.65,0,0,1,.52-1.44,3.59,3.59,0,0,0,.36-.94c0-.7,0-1.41,0-2.12,0-.22-.07-.56,0-.65a2.52,2.52,0,0,0,.76-2.35c0-.14.19-.28.3-.43.14.14.41.28.41.43,0,.61,0,1.22,0,1.83,0,1.32,0,2.63,0,4,0,.63-.06,1.09-.86,1-.21,0-.59.16-.61.29a1,1,0,0,0,.25.73,3.2,3.2,0,0,1-.07,3.25c-.39.39-.68,2-.34,2.32a.91.91,0,0,0,.89,0c1.35-1.31,2.68-2.65,4-4,.26-.28.26-.8.39-1.2s.32-.88.5-1.32c.09-.23.21-.44.31-.66l.45-1c.13-.28.23-.56.38-.82a6.24,6.24,0,0,0,1-3,2.81,2.81,0,0,1,.76-1.52c.2-.25.67-.27,1-.4.11.39.4,1,.29,1.12-1.25.94-.6,2.24-.77,3.39a2.65,2.65,0,0,1-.49,1.23c-.45.56-.62,1.17-.09,1.62a1.11,1.11,0,0,0,1.61-.22c.56-.6,1-1.48,2.06-1.32a.38.38,0,0,0,.32-.17c.35-1,.68-1.93,1-2.89a11.35,11.35,0,0,0,.42-1.19c.27-1.17,1.57-1.94,1.26-3.32a.56.56,0,0,1,0-.38c.47-.78,1-1.55,1.42-2.34.12-.21.12-.49.24-.7s.34-.63.59-.7a.86.86,0,0,1,.78.34,1,1,0,0,1-.13.94c-.67.47-.52,1.13-.67,1.78-.24,1.05-1.09,1.94-.92,3.14,0,.06-.47.23-.73.29a1,1,0,0,0-.78,1.35,6.87,6.87,0,0,0,1.11,1.3.38.38,0,0,0,.36,0c.75-.48,1.5-1,2.22-1.49a7.15,7.15,0,0,0,1.11-1.05,3.69,3.69,0,0,0,.41-.8l.44-.88c.13-.24.26-.48.38-.72s.31-.64.46-1,.44-.65.38-.91c-.25-1.08.47-1.63,1.06-2.29a4.73,4.73,0,0,0,.6-1.09c.05-.11,0-.26.08-.37.75-1.34,1.52-2.66,2.24-4,.13-.24.06-.57.15-.83s.23-.36.35-.36.38.24.36.33c-.1.63-.25,1.26-.41,1.89,0,.08-.17.13-.19.21-.38,1.25-.75,2.5-1.13,3.76,0,0,0,.07,0,.1l-1.39,3.6c-.09.23-.19.45-.3.67s-.33.64-.47,1a5.11,5.11,0,0,0-.39,1.21c0,.16.24.44.44.52s.37-.14.56-.23c.36-.18.73-.36,1.08-.56s.41-.26.61-.4.45-.32.69-.45a3.88,3.88,0,0,1,1.12-.54,2.29,2.29,0,0,0,2-1.93c.11-.39.68-.65,1-1a1.56,1.56,0,0,0,.36-.74c.07-.47-.12-1.07.11-1.39a17.48,17.48,0,0,1,1.87-2l1.2,1.27c-1,.42-1,1.21-.92,2.08,0,.23-.33.48-.48.74s-.31.48-.25.64a.73.73,0,0,0,.58.36c.76,0,1.61.28,2.19-.6.14-.22.7-.24,1.05-.22,1,.05,2,.06,2.61-.95.16-.26.28-.54.41-.8l.44-.88.39-.82c.13-.27.24-.55.38-.82s.31-.59.46-.88.26-.55.41-.81.41-.36.39-.51c-.1-.76.38-1.18.86-1.6a3.85,3.85,0,0,0,1-1.65,20.77,20.77,0,0,1,1.81-2.87c.51-.87.91-1.81,1.37-2.71a5.09,5.09,0,0,1,.44-.62c.11.2.29.4.31.61,0,.67.11,1.37-.58,1.82-.1.07-.23.22-.21.31.28,1.23-.73,2.07-1,3.14A4.67,4.67,0,0,1,212,130a1.85,1.85,0,0,0-.58,1.71c.14.94-.78,1.17-1.15,1.76-.17.26-.51.49-.53.75a3.59,3.59,0,0,0,.28,1.12,3.48,3.48,0,0,0,.82-.47c.53-.55,1-.51,1.43.08.17.2.5.27.76.4l.32-.74.42-1,.37-.84c.11-.25.22-.5.33-.75s.33-.7.5-1,.23-.43.35-.65l.5-1c.13-.24.23-.5.38-.73s.37-.29.37-.42c0-1.21,1-1.71,1.62-2.46.14-.17.46-.19.7-.27,0,.27.2.69.08.79-.8.71-.59,1.78-1,2.54a6.49,6.49,0,0,0-.78,2.51c0,.45-.65.92-1.09,1.27-.86.67-.6,1.58-.5,2.39.07.53.63.55.93.1.61-.9,1-.62,1.76-.05a2.36,2.36,0,0,0,2.11.2c.68-.37,1.56-1,1.29-2.12a2.6,2.6,0,0,1,1.17-2.8c.17-.13.44-.33.43-.49-.07-1.09.81-1.51,1.41-2.14a1.05,1.05,0,0,0,.32-.56c.09-1.38,1.38-1.77,2.07-2.79.45.71.36,1.17-.1,1.59-.16.15-.46.37-.43.48.35,1.25-.66,2.08-1,3.12-.15.55-.78,1-1.16,1.45a2,2,0,0,0-.48.88c-.07.68.15,1.43-.66,1.86-.07,0,.05.43.08.66.23,0,.58,0,.67-.13.64-.93,1.16-.74,1.82,0a1.24,1.24,0,0,0,1.2.18,9.86,9.86,0,0,0,1.31-1.75s0-.15,0-.19a3.09,3.09,0,0,0,.9-2.66c0-.1.5-.25.77-.38s.75-.29.75-.43c0-1.34,1.21-1.8,1.83-2.67.31-.44.47-1,.8-1.42.63-.8,1.33-1.54,2-2.3l.28.17c0,.33.13.74,0,1-.63,1-1.34,2-2,3-.13.18-.42.34-.42.5a3.67,3.67,0,0,1-.87,2.69,11.52,11.52,0,0,0-.68,1.26c-.56.87-1.18,1.71-1.73,2.59-.07.12,0,.43.17.56a.53.53,0,0,0,.51,0,1.18,1.18,0,0,0,.3-.38c.92.22,1.69.43,2.47.57a.8.8,0,0,0,.68-.24c.38-.69.68-1.42,1-2.13a6.54,6.54,0,0,1,.66-1.27,7.88,7.88,0,0,0,1.18-2,12.66,12.66,0,0,1,3.54-4.53c.24-.21.31-.59.51-.86q.9-1.18,1.86-2.33s.38,0,.39.11c.05.27.15.62,0,.81-.67,1-1.4,2-2.12,3-.09.13-.32.26-.3.36.2,1.17-.54,2-.93,3a4.16,4.16,0,0,1-.38.72c-.12.18-.43.35-.41.49.15,1.08-.74,1.48-1.3,2.07-.37.39-.7,1.91-.36,2.31a.91.91,0,0,0,.88.05c.59-.76,1.09-.83,1.67,0,.11.15.45.32.55.26,1-.6,2.29-1,2.69-1.92.48-1,1.47-1.72,1.77-2.65.66-2.06,2.6-2.9,3.71-4.48,0-.05.18,0,.34-.06a2.55,2.55,0,0,1-.87,2.95,4.35,4.35,0,0,0-.71,1.24,5.33,5.33,0,0,0-.26.49c-.14.33-.26.66-.38,1a8.76,8.76,0,0,0,1.43-.08c.19,0,.32-.36.3-.33a25.48,25.48,0,0,0,2.57.54c.23,0,.74-.39.71-.55-.13-.93.61-1.29,1.08-1.81.62-.69,1.33-1.3,2-2a1.27,1.27,0,0,0,.34-.55c.26-1.09,1.17-1.4,2.52-.49a4.54,4.54,0,0,0-1.09.71A10.39,10.39,0,0,0,256,128c-.45.76-.93,1.5-1.35,2.28a2.48,2.48,0,0,0-.13.82c.27-.07.65,0,.8-.21.72-.86,1.42-1.65,2.72-1.35.16,0,.41-.14.56-.28.31-.28.53-.76.88-.86,1.84-.53,2-2.6,3.41-3.55a2.91,2.91,0,0,1,.31-.21s.12,0,.26,0a1.06,1.06,0,0,1-.28,1.41,8.9,8.9,0,0,0-2.21,3.71,4.41,4.41,0,0,1-1.12,1.28,2.81,2.81,0,0,0-.48,2.39c.3.5.68.46,1,0s.84-.8,1.34-.32.28.95-.26,1.36c-.18.14-.15.56-.22.86.51,0,1.13.12,1.5-.12.65-.42,1.49-1,1.66-1.66.52-2,2.64-2.72,3.35-4.32.79-1.78,2.29-2.74,3.39-4.14.16-.2.49-.27.74-.41,0,.36.18.86,0,1-.88.93-1.06,2.29-2.19,3.12-.61.45-.67,1.58-1.09,2.35a18,18,0,0,1-1.13,1.48,4.42,4.42,0,0,0-.37.9c.31-.09.62-.19.93-.26s.83-.15,1.25-.23a3.54,3.54,0,0,1-.14,1.26c-.19.37-.66.59-1,.92s-.38.53-.31.69a.93.93,0,0,0,.68.37c1.64.16,2.32-.39,2.84-2.05.07-.23.52-.32.78-.51A3,3,0,0,0,273,133c.36-.58.62-1.22,1-2a6.62,6.62,0,0,1,1.12,1.27,1.82,1.82,0,0,1,0,1.13c-.06.21-.37.34-.54.53-1.35,1.45-1.35,1.6.09,2.94a3.72,3.72,0,0,0,3.32-.16c.44-.51,1.12-.84,1-1.74,0-.23.46-.56.73-.83q1-1,2-2s.12,0,.19,0a1.89,1.89,0,0,1-.28,2.3c-.53.51-.67,1.15-.11,1.58s.59,1,.56,1.59a3.42,3.42,0,0,0,.34,1.1,3,3,0,0,0,.85-.58,15.53,15.53,0,0,0,.75-1.43c.1-.18.31-.45.44-.43,1,.13,1.35-.74,1.92-1.24s1.21-1.24,1.84-1.83a1.54,1.54,0,0,1,.74-.38.66.66,0,0,1,.55.25c.06.1-.08.4-.21.54-.35.37-.77.68-1.12,1.06s-1.05.91-1.15,1.79c-.05.49-.84.89-1.26,1.36a.8.8,0,0,0-.25.56c0,.16.31.41.45.39,1.09-.18,1.48.72,2.07,1.3s2.83.62,3.28.21c0,0,.11-.1.12-.15.16-1.77,1.74-2.5,2.74-3.63,1.28-1.43,2.7-2.74,4.07-4.09a1.37,1.37,0,0,1,.62-.41,1.83,1.83,0,0,1,.7.16,2,2,0,0,1-.25.62c-.41.45-.86.87-1.31,1.28a4.05,4.05,0,0,0-.9,1.48,10.63,10.63,0,0,1-1.86,2.14c-.25.29-.34.71-.57,1a9.08,9.08,0,0,1-1.24,1.5c-.5.45-.52.7,0,1.11s.88,1,1.7.87a2,2,0,0,0,1.57-.7c1-1.17,2.13-2.22,3.21-3.31a3,3,0,0,1,.56-.31c0,.44.18.84,0,1.06-.61,1-1.31,1.94-2,2.91-.17.24-.31.5-.47.76.29.12.58.26.87.37s.45,0,.53.16a2.4,2.4,0,0,0,3.06.57,5.86,5.86,0,0,0,2.3-2.49c.44-.75.56-1,1.6-.54-.68,1-1.34,1.93-2,2.88-.16.23-.51.42-.53.65a4.81,4.81,0,0,0,.23,1.23,4.57,4.57,0,0,0,.88-.52c.59-.55,1.09-1.19,1.71-1.69a1.28,1.28,0,0,1,1-.14.85.85,0,0,1,.31.78,1,1,0,0,1-.72.57c-.68.06-1,.36-1,1s.37.88,1,.87c.24,0,.48.25.73.37l1,.45a2.41,2.41,0,0,1,.59.25,2,2,0,0,0,3-.1c.61-.62,1.24-1.23,1.86-1.84l.38.2c-.15.42-.28.84-.45,1.25a6.81,6.81,0,0,1-.46.77,2.35,2.35,0,0,0,.81.33c.66,0,.87.3.81.9-.09.89-.15,1.74,1.18,1.65.17,0,.35.33.55.46s.45.34.62.3.31-.35.4-.56a15,15,0,0,1,1-2c.68,1.08,1.57.94,2.47.85.1,0,.24.37.36.57l-1.58.92c-.23.13-.48.23-.71.35a3.19,3.19,0,0,0,.36.7,10.65,10.65,0,0,1,.89.86c.56.83,1.08,1.06,1.83-.29a5.12,5.12,0,0,0,.23,1.19,2.2,2.2,0,0,0,.67.75c.37.25.82.38,1.2.63.6.41,1,1,1.87,1.17a7.44,7.44,0,0,1,2.63,1.62c.47.36.76.94,1.51.83.14,0,.48.32.47.49-.06.91.4,1.07,1.2,1.22.51.09.92.73,1.29,1.27-1.22,0-2.49.69-3.46-.57a10.31,10.31,0,0,0-1.36-1.35,3.79,3.79,0,0,0-.8-.43c-.3-.15-.6-.29-.89-.45-.13-.08-.24-.3-.36-.3-1.22,0-1.7-1-2.45-1.64a3.27,3.27,0,0,0-1.71-1.06,7.77,7.77,0,0,1-2.28-1.29c-.21-.12-.45-.19-.68-.29a6.11,6.11,0,0,0-3.12-1c-.33,0-.73-.66-1.09-1-.14-.13-.27-.4-.39-.4a6.68,6.68,0,0,1-3.11-1,2.38,2.38,0,0,1-.84-.52,2.79,2.79,0,0,0-2.73-1.18c-.62.11-1.08-.34-1.59-.52-1.08-.38-1.93-1.5-3.26-1.16-.21.06-.54,0-.62.18a1.59,1.59,0,0,1-1.94.64,4.9,4.9,0,0,1-1.43-.89c0-.2,0-.28,0-.32.22-.34.44-.68.67-1a4.75,4.75,0,0,0-1.24-.27,2.11,2.11,0,0,1-1.44-.52,3.59,3.59,0,0,0-1.91-.3,1.58,1.58,0,0,1-1.43-.55c-.22-.26-.81-.2-1.22-.32s-.78-.27-1.16-.43a3.56,3.56,0,0,0-.91-.4c-.7-.06-1.42,0-2.12,0a10.61,10.61,0,0,1-1.24-.47,9.49,9.49,0,0,0-1.91-.33c-.59,0-1.1,0-1.52-.56-.18-.25-.74-.24-1.13-.31s-.8.07-.91-.09c-.71-1.06-1.75-.68-2.71-.75a3.28,3.28,0,0,1-.93-.34,4.71,4.71,0,0,0-1.16-.48c-.7-.07-1.41,0-2.12,0-.27,0-.68-.05-.78-.22-.42-.76-1.11-.66-1.77-.66-1.67,0-3.34,0-5,0a1.63,1.63,0,0,1-1-.43,1.12,1.12,0,0,0-1.8.05c-.51.6-.95.61-1.53.06a1.87,1.87,0,0,0-1.14-.51c-2.63,0-5.27,0-7.9,0a1.66,1.66,0,0,1-1-.35,3.12,3.12,0,0,0-3.55.09,3,3,0,0,1-.36.28c-.18-.22-.3-.48-.49-.57a.84.84,0,0,0-.72,0,1.7,1.7,0,0,1-2.59,0,1.15,1.15,0,0,0-1.64,0,2.34,2.34,0,0,1-1.23.49c-1.35.06-2.7,0-4,0-.59,0-1.12.07-1.51-.56C237.46,137.88,236.76,138.15,236.44,138.22ZM248.5,135a23,23,0,0,0,1.76-2c.12-.18-.14-.62-.22-.94l-.84.39a2.74,2.74,0,0,1-.83.33c-.63,0-.9.42-.77.94C247.69,134.08,248.05,134.37,248.5,135Zm6.27-.44h.48c.71,0,1-.37.92-1a.74.74,0,0,0-1.07-.72,6.25,6.25,0,0,0-1.52,1.18,1.37,1.37,0,0,0,.43.56A1.86,1.86,0,0,0,254.77,134.55Z"/><path d="M125.12,75c-1,1-1.91,2.06-2.9,3-1.77,1.76-3.57,3.48-5.35,5.24-.14.14-.28.44-.22.57a.78.78,0,0,0,.56.4,29.14,29.14,0,0,0,4.71-.08c.6-.09,1.28-.93,1.54-1.58a2.62,2.62,0,0,1,1.82-1.77A1.14,1.14,0,0,0,126,80c.08-.59.31-.75.87-.92A4.74,4.74,0,0,0,128.35,78a5.28,5.28,0,0,1,2.2-1.54c.78-.2,1.35-1.2,2-1.84s1.1-1.53,2.22-1.47c.13,0,.28-.23.42-.36.6-.54,1-1.24,2-1.33.48,0,.89-.77,1.32-1.18a9.45,9.45,0,0,1,1.26-1.17c.21-.14.63,0,1,.06a2.33,2.33,0,0,1-.33.68c-1.47,1.48-3,2.94-4.46,4.38a5.84,5.84,0,0,1-1,.51c-.41.26-.81.56-1.2.85-.13.09-.22.26-.35.32a3.73,3.73,0,0,0-2.25,2.24c-.26.73-1.18.63-1.74,1a11.9,11.9,0,0,0-1.79,1.73c-.67.64-1.11,1.59-2.29,1.53-.14,0-.48.71-.41,1a1.21,1.21,0,0,0,.84.77c1.47.08,3,0,4.43,0,1,0,1.93,0,2.89,0a5,5,0,0,0,1.12-.31l-.53-1.13,1.9-1.55c.56.13,1.27.35,2,.45.23,0,.51-.2.77-.3s.55-.18.82-.27c-.09.38-.16,1.07-.27,1.08-1.05.07-1.72,1.26-2.91,1-.23-.06-.59.37-.9.57.28.19.57.53.85.54,3.08,0,6.17,0,9.25,0a1.06,1.06,0,0,0,.74-.42c.07-.11-.16-.51-.34-.68-1.21-1.16-1.21-1.15,0-2.25.44-.41.85-.88,1.31-1.26a5,5,0,0,1,.89-.45,3.88,3.88,0,0,0,.85-.5c.61-.57,1.08-1.46,1.79-1.7A7.5,7.5,0,0,0,153.2,75a.23.23,0,0,1,.18-.06c1.88.4,2.57-1.22,3.65-2.16a1.13,1.13,0,0,1,1.52-.23,2.59,2.59,0,0,1-.32.55q-1,1-2,1.93c-.66.61-1.13,1.4-2.23,1.5-.47,0-.85.81-1.31,1.2s-1,1.2-2,1.24c-.46,0-.91.71-1.31,1.14-.08.08.08.56.14.56.24,0,.61,0,.72-.17.42-.62.88-.75,1.7-.24-1.1.66-1.48,2-2.87,2-.2,0-.39.28-.6.42s-.49.41-.71.39c-.86-.08-1,.45-1,1.08s.5.86,1.1.86,1.3,0,1.78-.66c.34-.5,1.75-.33,2.13.19s.72.57,1.09,0c.51-.82,1-1.66,1.57-2.46s1.05-.78,1.62,0a6.46,6.46,0,0,0,1,.8c-.5.1-.78.14-1.06.22a7.78,7.78,0,0,0-.73.3,2.13,2.13,0,0,0,.34.7,17.85,17.85,0,0,0,1.59,1c.88.67,1.37.82,2.05-.08.07-.09.37,0,.56,0,.85.08,1.47.05,1.55-1.12a1.84,1.84,0,0,1,1.18-1.33,2.85,2.85,0,0,0,2-1.33,1.78,1.78,0,0,1,2-.36c.62.17.54.79.18,1.27a2.27,2.27,0,0,1-.69.66A12.77,12.77,0,0,1,163.57,84c-.64.17-.87.44-.85,1s.26.89.89.88a1.24,1.24,0,0,1,.76.29c.89.79,1.18.79,2-.1a1.54,1.54,0,0,1,.35-.18c.49,1.09,1.49.82,2.39.84.74,0,1.49-.06,2.22,0a3.25,3.25,0,0,0,3.41-1.37c.14-.21.54-.26.82-.37s.55-.11.67-.28c.66-.89,1.52-.5,2.31-.54l.2.3c-.39.37-.79.72-1.16,1.1a5.56,5.56,0,0,0-.5.72c.29.12.58.26.88.36a5.15,5.15,0,0,0,.65.14c0,.16,0,.21,0,.23-.81,1.06-.81,1,.46,1.38.22.06.37.36.59.44.42.15,1,.45,1.29.29,1-.55,1.93-1.29,2.89-1.93.33-.22.72-.33,1-.55.49-.33.94-.71,1.4-1.07.2-.16.4-.53.55-.5,1.19.2,2.07-.56,3.07-.94a2.87,2.87,0,0,0,.85-.55,1,1,0,0,1,1.5,0c-1,.73-1.49,1.7-2.69,2.17a6.84,6.84,0,0,0-3.09,1.81c-.25.31-.78.39-1.18.59-.21.11-.52.2-.58.37s.14.44.25.64.46.46.44.67c-.08,1.07.57,1.11,1.36,1.1.36,0,.88,0,1,.24.53.72.82.65,1.36,0,.41-.52.81-1.3,1.76-1.1.14,0,.35-.22.52-.36a3.89,3.89,0,0,1,.49-.43,4.51,4.51,0,0,1,1.47-.7c1.17-.14,1.79-1,2.52-1.72,0,0,.12-.11.16-.09,1.25.38,2.07-.71,3.16-.92.25,0,.44-.34.69-.46.41-.2.83-.34,1.25-.51l.3.46a20.41,20.41,0,0,1-2.27,2,22,22,0,0,1-3.07,1.56c-.81.37-1.7.55-2.47,1a4.29,4.29,0,0,0-1.55,1.43c-.33.56.25,1,.62,1.45a1.79,1.79,0,0,0,1.84.7.81.81,0,0,1,.47,0,21.33,21.33,0,0,0,2.33,1.39,1.71,1.71,0,0,0,1.5-.07c.78-.8,1.47-1.57,2.74-1.42.25,0,.52-.35.81-.43a16.9,16.9,0,0,1,1.89-.39c.09,0,.31.21.3.29a.66.66,0,0,1-.3.42,13,13,0,0,0-2.47,1c-.37.25-.45,1-.49,1.6,0,.29.3.87.48.88a3.73,3.73,0,0,0,1.37-.34,9.55,9.55,0,0,0,.89-.44c.25-.12.5-.21.75-.33l1-.52c.19-.09.49-.12.57-.27.46-.82,1.23-.57,1.9-.53.22,0,.57.45.58.69a1,1,0,0,1-.55.74c-.81.36-1.67.6-2.48.93a.61.61,0,0,0-.29.52.84.84,0,0,0,.51.45,6.62,6.62,0,0,0,1.15.13c-.14.27-.17.43-.26.48-.53.32-.91.82-.56,1.34a1.78,1.78,0,0,0,1.34.58,2.9,2.9,0,0,1,2.63.94c.28.34.85.44,1.28.66a3.25,3.25,0,0,1,.47.38,2.05,2.05,0,0,1-.48.37,1.58,1.58,0,0,1-.57,0c-1.53,0-1.53,0-2.34.58-1.18-.51-2.32-.93-3.37-1.49a4.67,4.67,0,0,1-1.29-1.25c-.39-.49-.7-.5-1.05,0-.52.73-1,.63-1.55,0A1.78,1.78,0,0,0,201,100a14.52,14.52,0,0,1-1.43-.77c-.55-.39-.86-1.14-1.74-1-.13,0-.32-.27-.49-.41s-.32-.39-.42-.36c-1.25.4-2.05-.73-3.13-.87-.15,0-.36-.08-.42-.19-.45-.84-1.23-.69-2-.66s-1.43.14-1.83-.66c0,0-.05-.06-.07-.06-1.39.31-2.35-1-3.68-1-.27,0-.71,0-.8-.15-.62-1-1.59-.58-2.44-.7a5.6,5.6,0,0,1-1.24-.47,3.36,3.36,0,0,0-.93-.36c-.74,0-1.48,0-2.21,0-.25,0-.64,0-.72-.12-.56-1-1.48-.72-2.32-.74-.67,0-1.35,0-2,0-.27,0-.68,0-.78-.21-.42-.68-1-.64-1.7-.63-2,0-3.93.14-5.88,0a13.65,13.65,0,0,1-3.24-1.06c-.73-.26-.83-.5-1.58,0a2.69,2.69,0,0,1-2.58,0,3.69,3.69,0,0,0-2.46-.68,6.4,6.4,0,0,1-1.33-.49,3.07,3.07,0,0,0-1-.31c-6.27,0-12.53,0-18.8,0a1.64,1.64,0,0,1-1-.23c-1.13-.93-2-.91-3.2.28-.5-1.16-1.52-.92-2.45-.9s-1.92-.35-2.43.89l-.33.19a2.47,2.47,0,0,0-.29-.71c-.49-.58-1-.47-1.59-.06a2.55,2.55,0,0,1-1.3.52c-2.86,0-5.72,0-8.58,0a3.72,3.72,0,0,0-1.16.48,2.94,2.94,0,0,1-.93.33c-1.12,0-2.25,0-3.37,0-.58,0-1.15.13-1.5-.56a.91.91,0,0,0-.77,0c-.77,1.44-2,1.54-3.44,1.39a11.41,11.41,0,0,0-1.54,0c-.22,0-.56,0-.64.11-.83,1.26-2.1.55-3.16.76a12.68,12.68,0,0,0-1.51.57,4.63,4.63,0,0,1-1.07.24c-.86.07-1.82-.3-2.43.71-.09.14-.47.15-.71.15-1,0-2-.36-2.68.74,0,0-.12.1-.16.09-1.72-.57-3.05,1-4.69.84-.67-.05-1.33-.09-1.79.64-.12.19-.63.16-1,.19-.86.06-1.84-.33-2.41.71,0,0-.11.11-.15.1-1.22-.31-2.18.46-3.11,1a10.18,10.18,0,0,1-2.84.91c-.82.17-1.47,1.17-2.3,1.35a21.53,21.53,0,0,0-3.19,1c-.6.23-1.25.11-1.87.66s-1.73.58-2.43,1.1c-.89.65-2,.53-2.8,1a7.42,7.42,0,0,1-2.24.7c-.54.13-1,.75-1.45,1.15-.17.14-.34.45-.48.43-1.11-.12-1.49.84-2.15,1.37a3.48,3.48,0,0,1-.82.38c-.25.11-.5.2-.75.31s-.69.35-1,.53a5.66,5.66,0,0,0-.65.34c-.15.11-.27.39-.4.39-1.56,0-2,1.51-3,2.24-.15.11-.31.36-.43.34-.81-.13-1.22.41-1.65.91a3.36,3.36,0,0,1-1.69.92,11.81,11.81,0,0,0-2.52,1.53c-.42-.81-.75-.94-1.57-.18a7.07,7.07,0,0,1-2.79,1.1c-.22.07-.56-.24-.84-.38.25-.13.51-.25.75-.4s.8-.37.82-.6c.11-1.32,1.32-1.74,2-2.55.12-.14.88,0,1.11.29.47.48.7.45,1.15,0a3.37,3.37,0,0,1,2-1.35c.53-.09.92-1.06,1.35-1.65.18-.24.27-.53.43-.79s.41-.37.38-.51c-.16-.83.52-1.16.9-1.69.56-.78,1-1.62,1.59-2.39.39-.52,1.06-.85.94-1.67,0-.11.15-.27.25-.39a5.66,5.66,0,0,0,1.48-2.15c.27-.8,1.24-1.34,1.84-2a11.38,11.38,0,0,0,.59-1.11c.31-.46.71-.87,1-1.34s.37-.79.63-1.13c.6-.77,1.25-1.5,1.9-2.23,0,0,.38.07.39.13a1.55,1.55,0,0,1,0,.9c-.28.42-.77.7-1,1.13-.53.89-.93,1.86-1.45,2.76a11.62,11.62,0,0,1-1.09,1.41c-.18.22-.54.44-.53.64,0,.82-.24,1.17-1.11,1.16-.19,0-.6.58-.56.84.17,1.18-.56,1.82-1.28,2.5a22,22,0,0,0-1.68,1.72,2.48,2.48,0,0,0-.47,1.1.71.71,0,0,0,.34.6c.16.07.44-.1.65-.2s.68-.36,1-.54a5.68,5.68,0,0,0,.64-.35c.15-.11.27-.4.39-.4,1.35.07,1.83-1.12,2.61-1.83a3.85,3.85,0,0,0,1.42-2c.19-.8,1.22-1.41,1.88-2.1.13-.14.38-.26.39-.4.12-1.54,1.5-2.13,2.32-3.13.12-.14.32-.34.29-.47-.19-.82.56-1.08.89-1.59s.53-1,.84-1.5a9.61,9.61,0,0,1,1-1.16c.44-.47.88-.94,1.36-1.36a2.45,2.45,0,0,1,.7-.31c0,.3.2.69.08.88-.66,1-1.4,2-2.11,3-.07.1-.25.17-.26.27-.3,1.9-2.07,2.64-3.1,3.95a4.58,4.58,0,0,0-.39.73c-.17.32-.34.63-.5,1s-.23.5-.35.75-.34.55-.46.84a4.91,4.91,0,0,0-.18.81,3.77,3.77,0,0,0,.82-.12,8.58,8.58,0,0,0,1-.52,5,5,0,0,0,.63-.36c.15-.11.27-.4.39-.4,1.41.09,1.86-1.19,2.68-1.9a3.74,3.74,0,0,0,1.35-2c.22-.81,1.25-1.39,1.88-2.11a7.53,7.53,0,0,0,.52-1c.17-.26.35-.62.6-.7a.86.86,0,0,1,.77.34,1.3,1.3,0,0,1-.11,1c-.15.3-.53.48-.72.76-.3.45-.52,1-.81,1.42-.13.21-.38.34-.47.56a3.11,3.11,0,0,0-.1.82,4.57,4.57,0,0,0,.75-.14A5.5,5.5,0,0,1,66.7,96c.59-.05,1.14,0,1.5-.64a.77.77,0,0,1,.67-.24A1.86,1.86,0,0,0,71,94.24c.43-.66,1.39-.89,1.35-2,0-.38.56-.8.91-1.16q2.42-2.47,4.87-4.92a2,2,0,0,1,.46-.26l.31.13a4.23,4.23,0,0,1-.43,1.26c-.42.56-1,1-1.46,1.53a10.88,10.88,0,0,0-.75,1.34,7.28,7.28,0,0,0-.5.67,4.71,4.71,0,0,0-.36,1.22c0,.15.2.42.37.47s.39-.11.59-.18c0,0,0-.06.06-.07A5.24,5.24,0,0,0,78.67,90a13.17,13.17,0,0,1,2.42-2.57,2,2,0,0,0,.42-.81A2.17,2.17,0,0,1,83.22,85a1.3,1.3,0,0,0,.79-.74c.22-.67,1.54-1.29,2.06-.84A.62.62,0,0,1,86,84c-1.41,1.4-2.85,2.77-4.26,4.17a3.06,3.06,0,0,0-.42.78l.83.29c.23.08.61.08.68.22.54,1.14,1.6.78,2.26.53a2.15,2.15,0,0,0,1.46-1.81c0-.47.62-.9,1-1.34.14-.17.46-.28.48-.45.12-.91.45-1.53,1.5-1.53.12,0,.32-.33.34-.52a2,2,0,0,1,1.88-1.89,1.5,1.5,0,0,0,.68-.49,1,1,0,0,1,1.43-.12,3.16,3.16,0,0,1-.36.54c-1.17,1.15-2.35,2.27-3.51,3.43a2.53,2.53,0,0,0-.33.65c-.16.31-.34.62-.49.94s-.28.44-.26.65a.6.6,0,0,0,.48.35c1.07-.17,2.33.55,3.21-.68.14-.19.65-.16,1-.14,1,0,2,.16,2.52-.88a2.82,2.82,0,0,0,.49-1.22,3.58,3.58,0,0,1,2.79-3.86c.22-.07.37-.38.59-.44a9.06,9.06,0,0,1,1.26-.2c0,.43.08.95-.13,1.26a7.53,7.53,0,0,1-1.46,1.5c-.21.18-.59.14-.87.24s-.54.18-.6.35.14.43.23.65.3.64.45,1,.17.61.36.69.47-.16.71-.26a4,4,0,0,1,1.07-.44c.93-.08,1.93.24,2.62-.77.09-.13.87,0,1.12.26.71.67,1.22.71,1.92,0a1.49,1.49,0,0,1,.89-.39c.86,0,1.73,0,2.6,0a1.75,1.75,0,0,0,1.7-.63c.18-.25.81-.22,1.24-.23.69,0,1.21-.1,1.17-1a1.32,1.32,0,0,1,.42-.79c.7-.75,1.4-1.5,2.15-2.19.54-.49.92-1.19,1.87-1.19.38,0,.75-.62,1.14-.94,1.06-.85,1.68-2.16,3.23-2.54.64-.16,1.18-.9,2-.59Z"/><path d="M107.91,51.49a3.57,3.57,0,0,0,.45.58c.12.11.39.22.49.16a17.05,17.05,0,0,0,2.05-1.3,1.86,1.86,0,0,1,2.3.12c.34.42.57.47,1,.1a2.42,2.42,0,0,1,1.21-.5c.85-.11,1.82.28,2.41-.74.08-.14.47-.13.71-.13,1,0,2,0,3,0,.25,0,.64,0,.73-.13.66-1.06,1.69-.68,2.6-.71s1.55.06,2.31,0a6.56,6.56,0,0,0,1.42-.55,2.64,2.64,0,0,1,.87-.27c5.94,0,11.89,0,17.83,0,.44,0,.88-.36,1.33-.49a1.41,1.41,0,0,1,.76,0c.4.12.77.46,1.15.47,2.89,0,5.78,0,8.67,0a1.7,1.7,0,0,1,1,.46c.41.39.66.36,1-.05.52-.6,2.56-.59,3.17-.1a2.1,2.1,0,0,0,1.16.48c2.34,0,4.69,0,7,0,.25,0,.64,0,.73.09.54.79,1.29.78,2.12.74a.74.74,0,0,1,.57,1.24,15.68,15.68,0,0,1-1,1.18c-.56-1.17-1.52-1-2.39-1-2.06,0-4.11,0-6.17,0-.27,0-.69,0-.8-.17-.48-.74-1.19-.66-1.89-.66q-12.92,0-25.83,0a4,4,0,0,0-1.24.5,2.91,2.91,0,0,1-.94.32c-1.77,0-3.53,0-5.3,0a4.41,4.41,0,0,0-1.33.53,2.71,2.71,0,0,1-.85.3c-.9,0-1.8,0-2.7,0-.62,0-1.2,0-1.59.63-.12.19-.56.22-.86.24-.92.07-1.94-.33-2.62.72-.09.14-.47.12-.72.12-.84,0-1.67,0-2.51,0-.64,0-1.28-.08-1.69.64-.09.17-.5.22-.77.23-.93,0-1.87-.09-2.79,0a4.94,4.94,0,0,0-1.4.57c-.05,0-.09.13-.13.13-1.22-.09-2.19.73-3.31.95a12.09,12.09,0,0,1-2.6,0c-.62,0-1.23,0-1.57.65,0,.08-.16.19-.22.17-1.23-.33-2.16.44-3.1.94a5.07,5.07,0,0,1-2.87.84c-.67,1.17-1.78.68-2.75.76-.22,0-.56,0-.64.12-.53.9-1.56.46-2.17.81a10.43,10.43,0,0,1-2.85.91,9.81,9.81,0,0,0-2.31,1.41,1.36,1.36,0,0,1-.64.14,6.09,6.09,0,0,1-1.15,0,2.9,2.9,0,0,0-2.91,1.19c-.22.28-.68.36-1,.54l-.72.39-.89.44-.8.42-.89.43-.79.42c-.24.13-.52.45-.7.4-1.19-.32-1.81.46-2.55,1.12a1.83,1.83,0,0,1-1.29.51c-1.09-.19-1.39.75-2,1.18a11.7,11.7,0,0,1-1.12.57c-.22.11-.44.22-.64.35s-.1.21-.17.22c-1,.23-1.85.5-1.78,1.77,0,.05-.28.11-.42.18l-1.19.61c-.11.06-.23.22-.31.2-.87-.18-1.25.51-1.73,1a2.18,2.18,0,0,1-1.44.79c-.45,0-.85.68-1.27,1.06-.17.15-.32.46-.47.46-1.35,0-1.79,1.17-2.63,1.83S55.23,80.57,54,80.79c-.74.13-1.29,1.25-2,1.88a3.64,3.64,0,0,1-1,.49c-.22.1-.51.13-.66.28-2.58,2.58-5.13,5.17-7.71,7.75a1.31,1.31,0,0,1-.65.35,2.49,2.49,0,0,0-1.92,2c-.17.55-.79.95-1.18,1.44a3.17,3.17,0,0,0-.46.78c-.4,1-1.19,1.89-.93,3.11,0,.08-.22.21-.32.33-.52.64-1.47,1-1.31,2.07-1.4,1.07-.5,2.62-.86,3.88-.28,1-1,1.82-.87,2.94-1.26.8-.71,2-.76,3.14a4,4,0,0,0,0,1.06,8.41,8.41,0,0,0,.47,1.25c.08.19.17.37.26.56-.23.08-.57.29-.66.21A18.24,18.24,0,0,1,32,112.8c-.07-.07,0-.32,0-.37-1.23-.83-.25-2.63-1.52-3.45-.13-.09-.15-.41-.15-.62,0-1.89,0-3.79,0-5.68,0-.24.05-.61.2-.69.75-.41.72-1.06.65-1.76a.85.85,0,0,1,0-.47c.46-.78,1-1.54,1.42-2.31a5.34,5.34,0,0,0,.24-.6q.22-.49.45-1c.12-.25.26-.48.38-.73s.31-.65.48-1c.06-.11.25-.18.25-.28a6.6,6.6,0,0,1,.9-2.94c.41-.81.88-1.66,1.8-1.72.58,0,.83-.31.77-.86s.22-.87.84-.85a1,1,0,0,0,.67-.26c2-2,4-4,6-6.06.07-.07.12-.2.19-.21,1-.1,1.76-.4,1.63-1.63,0,0,0-.07.06-.07.82-.06,1.41-.87,2-.92.93-.08,1.22-.74,1.76-1.16.72-.56,1.1-1.54,2.29-1.52.36,0,.74-.65,1.09-1l2-2.07a2.42,2.42,0,0,1,2.3-1c.64.12,1.74-1,1.78-1.69s.22-.94.79-.8c1.12.28,1.69-.46,2.36-1.1s1.1-1.44,2.27-1.55c.78-.07,1.48-.87,2.23-1.32a7,7,0,0,1,.68-.27,9.7,9.7,0,0,1,3-1c.81-.09,1.5-1,2.3-1.38s1.67-.67,2.5-1a5.21,5.21,0,0,0,.6-.41c.26-.16.53-.29.8-.43l.95-.5.66-.34c.34-.17.67-.38,1-.52a3.51,3.51,0,0,1,1-.28,4.94,4.94,0,0,0,2.56-.62c.79-.48,1.71-1.47,3-1.08.18.06.55,0,.62-.14.53-.95,1.4-.7,2.21-.68.62,0,1.19,0,1.6-.61.13-.2.62-.22,1-.25a5.45,5.45,0,0,0,2.56-.61c.88-.51,1.87-1.49,3.22-1.1a1.36,1.36,0,0,0,1.68-.6.75.75,0,0,1,.59-.22c.78,0,1.55.14,2-.72.07-.12.41-.13.62-.13.67,0,1.35,0,2,0C106.88,52.34,106.88,52.34,107.91,51.49Z"/><path d="M340.12,90.69a2.72,2.72,0,0,1-.91-.38c-2-2-3.93-4-5.89-6-.09-.09-.18-.23-.28-.25-1.85-.27-2.6-1.94-3.79-3-1.52-1.37-2.9-2.89-4.34-4.35-.07-.07-.14-.18-.21-.18-1.85-.19-2.49-2-3.76-2.9-.71-.53-1.15-1.29-2.19-1.53-.75-.17-1.32-1.14-2-1.75a5.1,5.1,0,0,0-2.25-1.61c-.81-.22-1.39-1.25-2.08-1.92-.16-.15-.33-.43-.49-.42-1.41.05-1.79-1.31-2.71-1.91a.22.22,0,0,1-.1-.16c.09-1.5-.89-1.42-1.91-1.35a1,1,0,0,1-.65-.33c-.62-.6-1.21-1.23-1.81-1.85-.09-.09-.19-.25-.28-.24-1.31.07-1.78-1.09-2.6-1.74A8.56,8.56,0,0,0,299.34,57a11.4,11.4,0,0,1-4.53-3.53,3,3,0,0,0-.94-.51c-.25-.12-.57-.18-.73-.37-.67-.8-1.82-1.27-1.78-2.58,0-.11-.48-.26-.76-.36s-.53-.15-.95-.26a9.31,9.31,0,0,1,1.17-1.12,1,1,0,0,1,.87-.1,13.3,13.3,0,0,0,2.78,2c1.06.49,1.77,1.71,2.68,2.56.6.56,1,1.45,2.06,1.34.13,0,.29.22.44.34.64.53,1,1.42,2.07,1.37.12,0,.38.43.39.66,0,.7.3,1,1,.94a.58.58,0,0,1,.37.08c1.23.88,2.67,1.45,3.64,2.71A19.79,19.79,0,0,0,309,62a.92.92,0,0,0,.56.31c.76,0,1,.31,1,1,0,.2.25.58.39.58,1.51,0,2,1.4,2.92,2.1.15.11.25.38.39.4,1.89.21,2.51,2,3.81,3,.13.09.21.33.32.34,1.71.16,2.37,1.7,3.48,2.64.75.64,1.41,1.39,2.11,2.1.09.09.16.26.25.28,2.19.41,3.15,2.38,4.57,3.72,3.58,3.4,7,7,10.51,10.44a2.65,2.65,0,0,1,.76,1.78Z"/><path d="M160.86,299.95h2.21a1.88,1.88,0,0,0,1.74-.57c.15-.19.58-.19.89-.2,1.09,0,2.18,0,3.27,0,.64,0,1.29,0,1.72-.62.1-.14.4-.19.61-.2,1.38,0,2.76,0,4.13-.06a2.83,2.83,0,0,0,2-.57c.42-.35,1.28-.22,1.94-.25.81,0,1.6.08,2.31-.64.3-.31,1.09-.16,1.66-.16.07,0,.25.46.21.49a5.16,5.16,0,0,1-1.55,1,10.74,10.74,0,0,1-2.2.09c-.22,0-.54,0-.65.08-1.07,1.14-2.45.63-3.71.73-.73.06-1.47-.09-2,.62-.13.17-.53.15-.81.17-1,0-2,0-3,.09-.25,0-.62,0-.72.15-.58.82-1.41.6-2.19.61l-4.62.07c-.25,0-.59,0-.73.15-1.09,1.19-2.49.4-3.73.58-.15,0-.56-.54-.53-.79a1,1,0,0,1,.73-.63c1-.08,2,0,3,0Z"/><path d="M204.64,306.27l-1.72.92c-.08,0-.17.16-.24.14-1.67-.3-2.95,1.4-4.69.89a1.55,1.55,0,0,0-1.8.6c-.13.19-.58.19-.88.21-.7,0-1.41,0-2.12,0-.25,0-.59,0-.72.18-1.1,1.34-2.61.32-3.88.7a1.74,1.74,0,0,1-.28-.51,4.44,4.44,0,0,1,1.56-.95c1-.16,2,.16,2.83-.75.34-.36,1.34-.1,2-.1s1.46.08,2-.66c.14-.2.64-.18,1-.2.87-.05,1.74.19,2.47-.67.26-.3,1.1-.06,1.65-.18a12.39,12.39,0,0,0,1.51-.57,3.57,3.57,0,0,1,1-.27c.93-.05,1.93.27,2.62-.73.1-.14.66-.14.87,0a.93.93,0,0,1,.3.81c-.06.23-.4.42-.64.56a5.55,5.55,0,0,1-1.06.51c-.52.18-1.06.29-1.59.44Z"/><path d="M186.69,52.92c-.71,0-1.41,0-2.12,0s-1.27.08-1.69-.61c-.11-.18-.51-.23-.78-.25-.58,0-1.15,0-1.73,0-1.39,0-1.78-.41-1.48-1.75,0-.14.6-.3.62-.27.41.71,1.09.57,1.72.58a17.32,17.32,0,0,1,2.11,0,7,7,0,0,1,1.42.52,3.13,3.13,0,0,0,.88.27c.83,0,1.67,0,2.5,0,.65,0,1.26-.07,1.73.56a1.14,1.14,0,0,0,.79.26c.8,0,1.6,0,2.4,0s2-.35,2.76.63c.13.16.55.06.82.15a1.82,1.82,0,0,1,.48.38c-.15.14-.33.41-.45.39-.92-.19-2,.38-2.78-.59-.1-.12-.61-.08-.8.07a1.9,1.9,0,0,1-2.54,0,2,2,0,0,0-1.05-.35c-.93,0-1.86,0-2.79,0Z"/><path d="M197.18,302.81c-.54.55-.91,1.3-1.93,1.2a16,16,0,0,0-1.83,0c-.22,0-.52,0-.66.08-1.48,1.32-3.28.61-4.93.81a2.54,2.54,0,0,0-1.75.58c-.27.27-.89.23-1.35.23-.71,0-1.4-.08-1.94.58a1.17,1.17,0,0,1-.78.24c-1,0-2.05,0-3.08.07a1.67,1.67,0,0,0-.89.27,2.14,2.14,0,0,1-3.09-.34c-.09-.11-.17-.37-.13-.41a1,1,0,0,1,.56-.27c1.35,0,2.69,0,4,0a4.1,4.1,0,0,0,1.07-.3,6.68,6.68,0,0,1,1.37-.44c.85-.07,1.76.13,2.35-.88.61.86,1.08.74,1.83.13.44-.36,1.35-.14,2.06-.16s1.44.12,1.91-.61c0,0,.11-.11.16-.1,1.68.39,3-.92,4.63-.92h2.32Z"/><path d="M104.46,83.64a5.78,5.78,0,0,1,.6-1.47,5,5,0,0,1,2.49-2.2,1.71,1.71,0,0,0,.73-.36c1.1-1.07,2.16-2.18,3.28-3.23a9.93,9.93,0,0,1,1.1-.61c.48-.34.91-.77,1.38-1.12a4,4,0,0,1,.76-.35c0,.36.13.82,0,1a19.7,19.7,0,0,1-1.67,1.72l-7.51,7.55a1.59,1.59,0,0,1-.36.17Z"/><path d="M157.51,82.18l-1.31-1.1c1.1-.6,1.48-2,2.95-2,.16,0,.31-.29.49-.43.6-.47,1-1.11,1.93-1.28A7.65,7.65,0,0,0,164,75.95c.85-.55,1.68-1.14,2.53-1.68a.43.43,0,0,1,.4.1c.08.23.18.59.07.72-.68.75-1.3,1.78-2.16,2.08a7.69,7.69,0,0,0-1.92,1.28c-.32.22-.72.32-1,.54a18.25,18.25,0,0,0-1.47,1.14c-.66.56-1.06,1.44-2.14,1.44C158,81.57,157.69,82,157.51,82.18Z"/><path d="M137.64,80.85c-.53-.47-1-.87-1.44-1.3,0,0,.26-.44.34-.42,1,.25,1.36-.67,1.93-1.14s1.08-1.43,2.15-1.43c.17,0,.46-.51.49-.8,0-.57.28-.78.83-.83a2.2,2.2,0,0,0,.82-.38c.13-.08.23-.31.34-.32,1.28,0,1.74-1.16,2.58-1.78.51-.38,1.12-.62,1.67-1,.2-.12.33-.37.53-.5a1.57,1.57,0,0,1,.55-.1c0,.16,0,.39-.12.48-1.59,1.56-3.19,3.1-4.79,4.64-.11.11-.21.3-.34.33-1.88.33-2.64,2.06-3.94,3.12C138.73,79.87,138.26,80.31,137.64,80.85Z"/><path d="M38.67,109.67a8.74,8.74,0,0,0,1-1c.28-.38.44-.86.71-1.26s.72-.87,1-1.33.38-.76.61-1.1c.35-.51.78-1,1.13-1.48.22-.32.34-.71.55-1s.68-.88,1-1.35.4-.84.68-1.2a8.92,8.92,0,0,1,1.31-1.45c.15-.13.57.07.87.11a2.47,2.47,0,0,1-.34.67,4.15,4.15,0,0,0-1.29,1.93c-.22.85-1.25,1.54-1.32,2.35-.14,1.58-1.88,2-2.09,3.59-.1.74-1.22,1.32-1.83,2a4.86,4.86,0,0,0-.54,1l-.28.54a2.75,2.75,0,0,1-.46-.28C39.19,110.25,39,110,38.67,109.67Z"/><path d="M133.88,279c.54.84,1.07,1,1.64.16.07-.1.29-.13.44-.13,1.41,0,2.82-.06,4.23-.05.21,0,.42.25.64.38a2.84,2.84,0,0,1-.67.39c-.69.18-1.39.3-2.27.48-.32-.47-.75-.62-1.46.12-.31.33-1.15.17-1.75.2a15.67,15.67,0,0,0-1.63,0,14.65,14.65,0,0,0-1.81.53c-.37-.42-1-.82-1.51.27-.84-1-1.65-1.11-2.52-.15a.9.9,0,0,1-.87,0,.88.88,0,0,1-.24-.82,1,1,0,0,1,.76-.51c1.47,0,2.94,0,4.41,0C132.19,279.82,133.21,280,133.88,279Z"/><path d="M119.11,279.87c1.6,0,3.21,0,4.81,0,.52,0,1,0,1,.68s-.51.74-1.05.74c-1.51,0-3,.05-4.52,0a1.53,1.53,0,0,1-.92-.36,1.21,1.21,0,0,0-1.85,0,4.39,4.39,0,0,1-2.9.27c-.19-.19-.37-.65-.27-.81a1.24,1.24,0,0,1,.87-.52c1.6-.05,3.2,0,4.8,0Z"/><path d="M140.58,286.56c.58,1,.36,1.52-.56,1.55-1.25,0-2.5,0-3.76,0-.28,0-.7,0-.83.12-.83,1-1.95.62-3,.69-.83.06-1.67,0-2.5,0a2.43,2.43,0,0,0-1.85.55c-.36.32-1.14.19-1.73.21-.06,0-.23-.47-.19-.5.5-.35,1-.88,1.56-.93,1.53-.14,3.08,0,4.62-.11a4.22,4.22,0,0,0,1.2-.44,3.06,3.06,0,0,1,.86-.31c1.12-.05,2.25,0,3.37-.07S139.9,287.71,140.58,286.56Z"/><path d="M144.59,294.45c-.3-.43-.82-.69-1.41.19a.67.67,0,0,1-.62.14c-.69-.26-1.36-.57-2-.89a.43.43,0,0,1-.13-.31c.19-.14.39-.35.6-.35,1,0,2,0,3,0h3.66a2.73,2.73,0,0,0,2.13-.59c.33-.31,1.15-.15,1.73-.08.15,0,.4.6.32.77a1.17,1.17,0,0,1-.81.59c-1.31.08-2.63,0-3.95.09A22.09,22.09,0,0,0,144.59,294.45Z"/><path d="M166.63,295.73c1.35,0,2.85,0,4.35,0a2.81,2.81,0,0,1,.91.38,2.69,2.69,0,0,1-.87.36,1.93,1.93,0,0,0-1.73.59c-.13.17-.52.18-.8.19-2.08,0-4.16.07-6.24.07a2.51,2.51,0,0,1-.86-.36c.24-.14.48-.29.74-.41s.31,0,.37-.05C163.65,295.2,165.16,296.13,166.63,295.73Z"/><path d="M121.88,273.46c-.29-.44-.75-.7-1.36.15a1.1,1.1,0,0,1-1-.06c-.5-.56-.84-.7-1.36,0a1,1,0,0,1-.9.24,6.9,6.9,0,0,1-1.16-1.09c.21-.13.42-.38.63-.39,3,0,5.94,0,8.92,0a1.2,1.2,0,0,1,.47,0,2.27,2.27,0,0,1,.46.39c-.16.13-.31.35-.47.36-.61,0-1.22,0-1.82,0S122.84,273.27,121.88,273.46Z"/><path d="M175.08,294.91c.64,0,1.28,0,1.92,0,.25,0,.59,0,.73-.14,1.08-1.13,2.48-.51,3.73-.7.16,0,.36.24.54.37-.16.14-.32.39-.47.39-1.85,0-3.49,1.31-5.41.85a2.1,2.1,0,0,1-3,0,4.07,4.07,0,0,0-.82-.41,3.47,3.47,0,0,1,1-.36,16.67,16.67,0,0,1,1.83.07Z"/><path d="M156.1,292.39c.56,0,1.47.21,2.09-.66.08-.11.35-.11.54-.12,1.28,0,2.56-.08,3.84-.06a3.17,3.17,0,0,1,1,.34,5.36,5.36,0,0,1-1,.4,6.82,6.82,0,0,1-1.15,0c-.19,0-.44,0-.56.05-1.58,1.34-3.47.55-5.21.79a2.52,2.52,0,0,1-.86,0,5.13,5.13,0,0,1-.87-.35,4.69,4.69,0,0,1,.92-.39A8,8,0,0,1,156.1,292.39Z"/><path d="M171.76,289.1l1,1.25-1.42.22c-.74.1-1.56-.09-2.09.7-.08.12-.35.14-.53.14-1.38,0-2.75.07-4.13.05-.22,0-.43-.24-.65-.37.22-.14.43-.37.66-.39.67,0,1.35.07,2,0a11.61,11.61,0,0,0,1.54-.53c.42-.12.85-.16,1.28-.24l2.28-.48Z"/><path d="M157.23,298.07c-.6,0-1.21.08-1.81.09a2.78,2.78,0,0,1-.69-.18,3,3,0,0,1,.29-.62,1.84,1.84,0,0,1,1.75-.71c.88.07,1.78,0,2.67,0a2.23,2.23,0,0,1,.66.23,2.65,2.65,0,0,1-.35.6C159.08,298.11,159.07,298.1,157.23,298.07Z"/><path d="M92,266.35c1.19,0,2.37,0,3.56,0,.24,0,.47.21.71.33-.23.15-.47.43-.7.43q-3.7,0-7.4,0c-.22,0-.44-.25-.66-.38.22-.13.43-.37.66-.38C89.46,266.33,90.74,266.35,92,266.35Z"/><path d="M160,284a1.69,1.69,0,0,1,.57,0c.15.06.35.24.35.37s-.2.29-.35.37a13.11,13.11,0,0,1-1.49.69,4,4,0,0,1-1,.17c-1.14.1-2.38-.36-3.32.74-.11.12-.57-.05-.86-.09a3.37,3.37,0,0,1,.31-.7,2,2,0,0,1,1.77-.73c1.07,0,2.25.36,3.13-.71.15-.18.6-.12.92-.17Z"/><path d="M275.94,131.89l-1.22-1.27,2.7-2.7c.22-.22.39-.49.62-.68s.32-.1.48-.14a1.62,1.62,0,0,1-.08.56c-.17.3-.6.6-.56.85a2.85,2.85,0,0,1-1.24,2.52A7.82,7.82,0,0,0,275.94,131.89Z"/><path d="M107,267.55c-.65-.14-1.3-.26-1.93-.42a4.51,4.51,0,0,1-.78-.36c.24-.14.49-.39.73-.4q2.84-.05,5.68,0c.24,0,.48.27.72.41a2.12,2.12,0,0,1-.69.35c-.54,0-1.1-.05-1.63,0C108.41,267.22,107.71,267.41,107,267.55Z"/><path d="M110.23,273.57c-.39-.74-.17-1.29.64-1.32a29.43,29.43,0,0,1,3.36.07c.24,0,.59.46.63.74s-.4.69-.57.67c-.92-.12-2,.49-2.79-.54C111.41,273.08,110.73,273.41,110.23,273.57Z"/><path d="M147.36,285.69c.51.85,1,1,1.58.21.19-.24.77-.19,1.17-.22a14.89,14.89,0,0,1,1.92,0c.18,0,.34.27.51.42-.17.12-.33.31-.51.33a7.34,7.34,0,0,1-1.15,0,3.53,3.53,0,0,0-1.75.52,6.63,6.63,0,0,1-2.59.24s-.18-.47-.1-.59A6.91,6.91,0,0,1,147.36,285.69Z"/><path d="M172.89,77.83c-.45.38-.86,1-1.35,1.08a3.47,3.47,0,0,0-1.92,1.28,2.21,2.21,0,0,1-.69.29c0-.27-.21-.6-.1-.79a2,2,0,0,1,.85-1c1-.37,1.81-1.37,3-1.28Z"/><path d="M209.93,99.81c.22-.26.34-.52.44-.51,1,.08,1.46-.76,2.12-1.26a2,2,0,0,1,1.16-.31c.13,0,.42.61.33.75a2.6,2.6,0,0,1-.87.64,3.28,3.28,0,0,0-.71.4C211.68,100.31,210.89,100,209.93,99.81Z"/><path d="M187.67,300c.47.65.86.95,1.57.19.3-.32,1.12-.18,1.7-.21.08,0,.21.22.23.35s-.12.28-.19.28c-1.17,0-2,1.37-3.26.86a5.38,5.38,0,0,0-1.06-.19c.2-.33.39-.67.61-1A1.79,1.79,0,0,1,187.67,300Z"/><path d="M203,129.38c0,.59.15,1.1,0,1.26a2.88,2.88,0,0,0-.83,2.34c0,.18-.58.37-.89.55-.18-.32-.59-.75-.5-.94a30.26,30.26,0,0,1,1.6-2.71C202.46,129.75,202.62,129.69,203,129.38Z"/><path d="M100.33,267.57c-.7-.14-1.4-.27-2.09-.45a2.57,2.57,0,0,1-.64-.4c.22-.13.44-.36.66-.37,1.12,0,2.23,0,3.35,0,.2,0,.39.23.59.35a2.93,2.93,0,0,1-.53.42c-.46.22-.94.4-1.41.6Z"/><path d="M70.37,86.81a2.27,2.27,0,0,1,0,.88,10.24,10.24,0,0,1-1,2,.94.94,0,0,1-.92.16c-.24-.17-.47-.78-.36-.93.6-.78,1.31-1.48,2-2.21Z"/><path d="M103.62,272.22c.7,0,1.41,0,2.11,0,.22,0,.42.26.63.4-.19.12-.39.35-.58.35-1.4,0-2.81,0-4.21,0-.21,0-.42-.26-.63-.4.23-.12.44-.34.68-.36.67,0,1.34,0,2,0Z"/><path d="M109.68,280c.44.81,1,.66,1.66-.35.11.55.29.88.2,1.12a1,1,0,0,1-.65.57,21.73,21.73,0,0,1-2.68,0c-.18,0-.36-.27-.54-.41a4,4,0,0,1,.52-.33C108.63,280.43,109.08,280.25,109.68,280Z"/><path d="M207.5,309.21a1,1,0,0,1,.29,0l1.08.32c-.3.15-.61.29-.91.46a5.59,5.59,0,0,1-.79.49,1.61,1.61,0,0,1-1,.15,1,1,0,0,1-.3-.89c.07-.23.5-.39.8-.48a3.15,3.15,0,0,1,.86,0Z"/><path d="M257,123.93c.65-.63,1.29-1.24,1.91-1.86.24-.24.44-.52.68-.75a.47.47,0,0,1,.4-.11.41.41,0,0,1,.14.38c-.55.83-1.1,1.67-1.72,2.45C258,124.49,257.54,124.52,257,123.93Z"/><path d="M145.19,286.83a4.37,4.37,0,0,1-.56.43,10.92,10.92,0,0,1-1.39.63c-.3.1-.74.2-.94,0a1,1,0,0,1-.25-.91c0-.2.44-.41.7-.45a9.44,9.44,0,0,1,1.71-.08C144.66,286.51,144.86,286.67,145.19,286.83Z"/><path d="M151.44,298.2a11.26,11.26,0,0,1-1.33,0c-.17,0-.31-.24-.46-.37.15-.13.3-.36.46-.37,1,0,1.91,0,2.86,0,.14,0,.27.21.41.32-.14.14-.26.4-.41.41a14.84,14.84,0,0,1-1.52,0Z"/><path d="M89.69,79.43a6,6,0,0,1-.37.48c-.71.74-1.43,1.48-2.16,2.2-.1.1-.32.08-.48.11,0-.18,0-.45.11-.54.68-.59,1.4-1.1,1.52-2.13,0-.19.59-.35.93-.45C89.32,79.08,89.5,79.3,89.69,79.43Z"/><path d="M178.8,83.73a16.66,16.66,0,0,1,1.55-1.24c.16-.1.5.1.77.17-.1.21-.15.48-.31.62C180.3,83.72,179.86,84.49,178.8,83.73Z"/><path d="M284.87,130.2l-1.4,1.54c-.16-.17-.5-.45-.47-.51a14.47,14.47,0,0,1,1.13-1.55S284.49,129.94,284.87,130.2Z"/><path d="M72.47,85.78c-.56.37-.88.75-1.14.72s-.7-.48-.69-.73a1,1,0,0,1,.72-.73C71.6,85,71.92,85.4,72.47,85.78Z"/><path d="M228.35,123.26a2.32,2.32,0,0,1-.07.67.6.6,0,0,1-.43.27c-.07,0-.25-.2-.26-.32a5.39,5.39,0,0,1,0-1.24c0-.2.24-.39.37-.58a2.6,2.6,0,0,1,.41.54A2,2,0,0,1,228.35,123.26Z"/><path d="M139,294.05a1.48,1.48,0,0,1,.57,0c.16.07.27.27.4.42-.27.12-.54.35-.8.34a6.87,6.87,0,0,1-1.3-.3c.12-.16.21-.4.37-.45a2.49,2.49,0,0,1,.76,0Z"/><path d="M104.05,78.21a2.92,2.92,0,0,1-.07,1,1.5,1.5,0,0,1-.75.61c-.14.06-.39-.13-.58-.2a2.85,2.85,0,0,1,.43-.75,7.24,7.24,0,0,1,1-.67Z"/><path d="M125.14,75a7.85,7.85,0,0,1,.58-1,13.28,13.28,0,0,1,1.18-1.32c.1-.1.32-.07.49-.09,0,.14.09.36,0,.42-.75.68-1.53,1.34-2.3,2Z"/><path d="M80.57,84.38c-.11.39-.12.89-.37,1.15s-.7.15-1.07.21l-.24-.41,1.29-1.16Z"/><path d="M80.66,83.88c0-.3-.11-.66,0-.88a1.52,1.52,0,0,1,.8-.53c.14,0,.36.17.55.26a5.43,5.43,0,0,1-.44.67,7.39,7.39,0,0,1-.66.61Z"/><path d="M301.86,136.1c.19.39.42.67.36.77a3.82,3.82,0,0,1-.86.93c-.07.06-.38-.19-.58-.3Z"/><path d="M182.92,81c0,.38,0,.9-.18,1.1s-.77.23-1.18.32l-.24-.44,1.25-1.11Z"/><path d="M124.63,283.08a2.26,2.26,0,0,1-.66,0c-.14,0-.24-.24-.36-.37a9.72,9.72,0,0,1,1.45-.36c.19,0,.41.25.62.38l-.86.38a.53.53,0,0,1-.19,0Z"/><path d="M147.07,297.28a6.82,6.82,0,0,1,.63,1.06c0,.11-.24.34-.38.52a7.76,7.76,0,0,1-1-1c-.09-.12.17-.48.27-.73Z"/><path d="M213.53,92.55a8.34,8.34,0,0,1-1.23.73c-.11,0-.35-.24-.53-.37.34-.35.67-.71,1-1C212.82,91.85,213.14,92.18,213.53,92.55Z"/><path d="M122.57,289.72c.51-.69,1.87-.93,2.13-.56a.65.65,0,0,1-.18.53C124,289.75,123.37,289.72,122.57,289.72Z"/><path d="M117.11,283.93a1.31,1.31,0,0,1-.47,0,3.62,3.62,0,0,1-.57-.37,3.06,3.06,0,0,1,.53-.4.73.73,0,0,1,.47,0c.35.1.7.24,1,.36l-.91.56Z"/><path d="M142.28,282.23a1.52,1.52,0,0,1-.56,0c-.17-.07-.29-.26-.43-.4.13-.12.24-.28.39-.34a1,1,0,0,1,.56,0c.37.11.73.27,1.09.41l-1,.49Z"/><path d="M211.95,272.89c-.45-.74-.32-1.35.3-1.47a1.89,1.89,0,0,1,.7.16,2.08,2.08,0,0,1-.24.62A6.65,6.65,0,0,1,211.95,272.89Z"/><path d="M94.83,80c.37-.52.73-1.05,1.12-1.56,0-.05.29,0,.4.07a.35.35,0,0,1,0,.34c-.51.39-1,.75-1.56,1.12Z"/><path d="M1.39,206.68,0,205.54l.36-.41,1.28,1.28Z"/><path d="M340.1,90.72c.48.39,1,.76,1.43,1.17.07.06,0,.29,0,.41s-.31.07-.32,0c-.25-.62-1.29-.72-1.05-1.64Z"/><path d="M202.24,85.11l-.56-.61c.23-.13.45-.38.68-.37s.4.28.59.44Z"/><path d="M94.8,79.92a2.49,2.49,0,0,1,0,.67,3.76,3.76,0,0,1-.37.8s-.3-.08-.3-.13a2.51,2.51,0,0,1,0-1c.06-.16.43-.2.66-.3Z"/><path d="M142.17,277.61c.15.39.39.71.31.89a1,1,0,0,1-.71.39c-.17,0-.37-.23-.56-.35Z"/><path d="M104.08,78.23c.38-.51.75-1,1.15-1.52,0,0,.26,0,.33.06s.09.3,0,.33c-.51.38-1,.74-1.55,1.1Z"/><path d="M39.53,114.64c-.58.53-1,.9-1.4,1.25,0,0-.18-.13-.27-.2.42-.4.83-.81,1.26-1.19C39.17,114.45,39.35,114.57,39.53,114.64Z"/><path d="M250,123.71a2.58,2.58,0,0,1,.15.83c0,.18-.28.33-.44.5a2.76,2.76,0,0,1-.31-.8c0-.18.21-.38.33-.57Z"/><path d="M206.37,92.25a2.62,2.62,0,0,1-.8.22c-.19,0-.37-.23-.55-.36.24-.15.46-.39.71-.43s.44.19.66.3Z"/><path d="M159.42,72.51l-.56-.62c.23-.13.46-.37.68-.36s.39.28.59.44Z"/><path d="M186.54,134.4l-.55.68c-.16-.19-.43-.38-.44-.59s.23-.44.36-.67Z"/><path d="M48.14,96.82a4,4,0,0,1-.29-1.11c0-.18.28-.33.44-.49a2.61,2.61,0,0,1,.35.78C48.65,96.17,48.42,96.37,48.14,96.82Z"/><path d="M195.47,82.14c-.24.1-.48.28-.71.26s-.42-.26-.63-.4c.22-.14.43-.38.66-.4s.46.18.69.28Z"/><path d="M174.33,287.71l.94.86a2.31,2.31,0,0,1-.73.4c-.18,0-.56-.22-.55-.33A3.43,3.43,0,0,1,174.33,287.71Z"/><path d="M213.1,308a2.17,2.17,0,0,1-.73.22c-.2,0-.39-.22-.59-.35a2.56,2.56,0,0,1,.74-.4c.18,0,.4.18.6.28Z"/><path d="M216.47,102.25a2.54,2.54,0,0,1-.78.3c-.2,0-.4-.2-.6-.32.23-.17.43-.42.68-.48s.46.14.69.22Z"/><path d="M193.07,82.27l.69.51c-.23.16-.44.42-.69.45s-.41-.24-.62-.38Z"/><path d="M194.64,91.34c-.2.11-.41.33-.59.3a2.58,2.58,0,0,1-.75-.4c.16-.12.31-.35.48-.35a3.19,3.19,0,0,1,.83.19Z"/><path d="M263.5,123.53l.58-.6c.13.22.38.45.37.67s-.27.42-.42.63Z"/><path d="M108.94,272.76c-.23.09-.48.29-.7.26s-.39-.29-.58-.45c.2-.12.39-.34.59-.35a1.9,1.9,0,0,1,.69.28Z"/><path d="M168.71,74.2l-.59-.64c.2-.12.41-.36.59-.34s.44.25.65.39Z"/><path d="M209.83,272.37l-.57-.65c.23-.12.46-.33.7-.33s.35.26.53.4Z"/><path d="M73.19,84.15l-.65.59a2,2,0,0,1-.32-.71c0-.18.25-.36.39-.55Z"/></g></g></svg>