<svg xmlns="http://www.w3.org/2000/svg" viewBox="0 0 479.58 483.99"><title>Earth_top</title><g id="Layer_2" data-name="Layer 2"><g id="Layer_1-2" data-name="Layer 1"><path d="M431.51,95.31c-.81-1.06-1.49-2.13-3-2.19a1.5,1.5,0,0,1-.91-.63c-1.55-2.06-3.06-4.16-4.61-6.23a13.36,13.36,0,0,0-1.58-1.91,3.64,3.64,0,0,1-1.26-3.15c1,.53,2.19.76,2.54,1.43.7,1.31,2,1.77,2.94,2.69,1.57,1.53,3.14,3.06,4.65,4.64a2.59,2.59,0,0,1,.66,1.47,5.06,5.06,0,0,0,1.85,3.33c1.33,1.27,2.56,2.64,3.82,4a2.72,2.72,0,0,1,.61,1c1.35,4.13,4.08,7.52,6,11.33a2.81,2.81,0,0,1,.36.8c.49,3.42,2.68,6.05,4.28,8.92,1.84,3.31,4.21,6.3,6.2,9.53,1.88,3.07,3.92,6.09,4.66,9.73a6,6,0,0,0,.87,2.22,12.23,12.23,0,0,1,2.08,5.86,1.88,1.88,0,0,0,.07.37c1,3,2.12,5.86,2.83,8.88a79.25,79.25,0,0,0,3.55,10.11,30,30,0,0,1,.69,3.85c.58,2.49,1.24,5,1.88,7.45.08.33.31.67.25,1-.34,1.81.65,3.16,1.33,4.7.6,1.36.45,3,.68,4.57.18,1.19.41,2.38.66,3.57.41,1.88.88,3.74,1.28,5.62.22,1,.29,2.09.5,3.12.65,3.2,1.34,6.4,2,9.6,0,.12.11.26.08.37-.95,2.87,1,5.36,1.07,8.11,0,3.12.22,6.23.41,9.34.11,1.89.43,3.77.52,5.66s.05,4,0,6-.05,4-.11,6a5.38,5.38,0,0,1-.23,2c-.71,1.56-.36,3.13-.37,4.73,0,2-.35,4.08-.56,6.12a8.72,8.72,0,0,0-.17,1.38,26.49,26.49,0,0,1-.95,8.65,2.55,2.55,0,0,0-.14,1.24c.85,3.1-.37,6-.81,9a43.14,43.14,0,0,0-.21,5,4.78,4.78,0,0,1,0,.88c-.44,1.92-.95,3.82-1.36,5.74a10.29,10.29,0,0,0-.37,3.11,7.3,7.3,0,0,1-1,4.73,4,4,0,0,0-.46,1.29c-.27,1.39-.43,2.79-.75,4.17-.9,3.9-1.8,7.8-2.79,11.68-.65,2.53-1.48,5-2.22,7.52a40.42,40.42,0,0,1-1.79,5.88c-1,2.12-1.12,4.51-2.5,6.54a22,22,0,0,0-2.16,5.37c-.74,2.19-1.37,4.42-2,6.64a6.65,6.65,0,0,0-.12,1l2.93-1.26.33.49a6.83,6.83,0,0,1-1.13,1.14,14,14,0,0,0-5.39,5.22c-1.13,2.17-2.07,4.45-3.2,6.62s-2.41,4.54-3.78,6.7c-1.55,2.45-3.33,4.75-4.92,7.18-1,1.58-1.84,3.31-2.9,4.87-.8,1.18-1.92,2.13-2.72,3.3s-1.13,2.34-1.83,3.43a22.14,22.14,0,0,1-2,2.38,7.58,7.58,0,0,0-.65.77c-1.29,2-2.55,4-3.87,5.91a20.74,20.74,0,0,1-1.44,1.54c-.92,1.09-1.71,2.3-2.72,3.29-2.14,2.11-3.51,5-6.31,6.42a2.39,2.39,0,0,0-.74.68c-1.61,2.12-3.19,4.25-4.81,6.36a4.33,4.33,0,0,1-1,1A75.06,75.06,0,0,0,402,423.8c-1.53,1.49-2.89,3.43-5.16,4.11-.37.11-.63.54-1,.8-2.7,2.07-5.57,3.95-8.06,6.24a47.68,47.68,0,0,1-7.57,5.22c-2,1.24-3.8,2.77-5.75,4.08-1.18.79-2.55,1.3-3.72,2.1a25.89,25.89,0,0,1-5.58,2.77,1,1,0,0,0-.42.28c-1.49,1.95-3.86,2.42-5.85,3.53s-3.95,2.52-6,3.62-4.3,1.94-6.39,3c-2.32,1.19-4.49,2.71-6.88,3.71s-4.49,2.68-7.23,2.79c-.59,0-1.15.49-1.75.66-2,.57-4.06,1-6,1.67a34,34,0,0,0-3.21,1.66,17.14,17.14,0,0,1-3.6,1.43A106.22,106.22,0,0,0,305.18,475c-4,1.35-8.2,1.94-12.31,2.88-2.79.64-5.56,1.44-8.38,1.9-4.36.7-8.75,1.24-13.14,1.71-3.85.41-7.73.66-11.6.92-2.14.15-4.29.14-6.43.3-.74.06-1.44.51-2.19.62-1.45.21-2.91.3-4.36.43a25.86,25.86,0,0,1-3,.21,9.46,9.46,0,0,1-1.84-.5c-.31-.08-.73-.21-1-.08a1.6,1.6,0,0,1-2.48-.6l-.37,1.09c-1.23-.09-2.43-.13-3.62-.27-2.92-.34-5.82-.77-8.74-1.09s-5.69-.49-8.53-.8c-1.63-.17-3.24-.56-4.88-.7s-3.27,0-4.9-.09a13,13,0,0,1-2.35-.33,19.62,19.62,0,0,0-3.91-1c-2.62,0-5.05-1.09-7.56-1.22a39.66,39.66,0,0,1-6.34-.62c-4.94-1.07-9.85-2.31-14.77-3.48a9.68,9.68,0,0,0-1.09-.32c-5.12-.58-9.9-2.47-14.74-4.05a57.43,57.43,0,0,1-13-5.64,2.93,2.93,0,0,0-.93-.4,7.71,7.71,0,0,1-4.22-2.13,4.59,4.59,0,0,0-1.58-.76c-3.6-1.5-7.1-3.15-9.93-6a3,3,0,0,0-1.06-.65c-1.58-.57-3.19-1-4.74-1.67a4.7,4.7,0,0,1-1.86-1.26,9.87,9.87,0,0,0-5.19-3.42,6.79,6.79,0,0,1-4.49-3.81,1.93,1.93,0,0,0-.78-1,11.73,11.73,0,0,1-3.83-3,4.73,4.73,0,0,0-2.28-1.27,12.5,12.5,0,0,1-6.17-3.55c-2.38-2.26-4.5-4.82-7-6.91A57.56,57.56,0,0,1,82.27,421a2.45,2.45,0,0,0-.74-.68c-3.52-1.66-5.75-4.89-8.75-7.2a21,21,0,0,1-3.85-4.66,23.33,23.33,0,0,0-5.87-5.86,16.19,16.19,0,0,1-2.77-3.06c-.21-.25-.29-.61-.48-.89-1.9-2.77-3.83-5.53-5.72-8.31C53.36,389.2,52.77,388,52,387a30.74,30.74,0,0,0-3.11-3.31c-2.3-2.13-3.8-4.83-5.35-7.45a65.66,65.66,0,0,0-6.19-8.9,4.2,4.2,0,0,1-.83-1.11,24,24,0,0,0-4.35-6.92,1.84,1.84,0,0,1-.5-.87c-.18-2.32-1.65-4.15-2.41-6.25a10.3,10.3,0,0,0-2.35-3.55c-1.25-1.27-1.57-2.85-2.06-4.4-.13-.4-.16-.91-.43-1.17-1.35-1.29-1.44-3.09-2.08-4.67a26.79,26.79,0,0,0-2.7-5.13,11.94,11.94,0,0,1-2-5.65,24,24,0,0,0-1-4.25c-.73-2.38-1.52-4.74-2.33-7.09a4.6,4.6,0,0,0-.86-1.66,6.8,6.8,0,0,1-1.57-3.91,16.54,16.54,0,0,0-1.08-3.29c-.75-2-1.57-3.89-2.32-5.85a1.73,1.73,0,0,1-.06-1.12c.61-1.62-.16-2.88-.81-4.29a16.11,16.11,0,0,1-1.77-7.69,8.22,8.22,0,0,0-.66-2.92,13.11,13.11,0,0,1-.85-5,12.55,12.55,0,0,0-.84-5.41,17.78,17.78,0,0,1-1-5.93,45.31,45.31,0,0,1-.25-6.66c.16-2.29-.68-4.64-1-7a5.82,5.82,0,0,1-.06-2.37c.94-3.23.11-6.34-.26-9.52a76.73,76.73,0,0,1,0-8.79,6.32,6.32,0,0,0-.2-2.69,7.28,7.28,0,0,1-.44-4.81,4.82,4.82,0,0,0,.1-2,7.79,7.79,0,0,1,.46-4.71,20.73,20.73,0,0,0,.85-8.1,12.26,12.26,0,0,1,0-3c.62-3.18,1.42-6.33,2.05-9.51.55-2.77,1-5.56,1.44-8.34a1.65,1.65,0,0,1,.18-.6c2.09-3.25,2.34-7.08,3.44-10.65a2.24,2.24,0,0,0,.11-.87c-.47-4.28,1.87-8,2.39-12.07a.57.57,0,0,1,.1-.23c2.66-4,3.16-8.76,5.12-13,1.7-3.68,2.67-7.69,4.15-11.48.49-1.25,1.63-2.23,2.33-3.42.46-.77.59-1.73,1-2.54.78-1.57,1.66-3.1,2.47-4.66,1.39-2.67,2.75-5.37,4.16-8,.58-1.1,1.22-2.17,1.87-3.23A11.46,11.46,0,0,0,33.72,119c.85-2.39,2.5-4.17,4.12-6a6.11,6.11,0,0,0,1.35-2.87,9.25,9.25,0,0,1,2.15-4.59c2.33-2.81,4.37-5.85,6.53-8.8a11.28,11.28,0,0,1,1-1.3c1.48-1.5,3.08-2.89,4.46-4.47a28.32,28.32,0,0,0,1.93-3.25A17.51,17.51,0,0,1,57,85.56q2.88-3.18,5.81-6.33c1.64-1.76,3.33-3.47,5-5.23,1-1.11,2-2.28,3-3.42.44-.51.88-1,1.35-1.49s.74-.57,1.06-.9q5.23-5.38,10.45-10.77a7.43,7.43,0,0,1,.64-.61c2.61-2.12,5.41-4,7.79-6.39a27,27,0,0,1,7.56-4.91,2.28,2.28,0,0,0,.9-.68,11.07,11.07,0,0,1,4.38-3.33c3-1.6,6-3.22,9-4.93,1.19-.69,2.16-1.78,3.36-2.44,3.14-1.73,6.5-3.09,9.48-5a33.24,33.24,0,0,1,8.09-3.8c2-.63,3.23-2.19,5-2.93,3.93-1.61,7.81-3.32,12.09-4,1.78-.28,3.39-1.5,5.16-2q6.77-2,13.61-3.81c3.72-1,7.44-1.78,10.82-3.76A17,17,0,0,1,186,7.43c2.4-.6,4.83-1.08,7.22-1.71,3.44-.9,6.86-1.9,10.3-2.82a25.94,25.94,0,0,1,2.62-.41c2.75-.43,5.51-.8,8.24-1.33,1.81-.35,3.55-.65,5.33.15a2.12,2.12,0,0,0,1.69,0c1.92-1.17,4.1-.9,6.15-1.2a34,34,0,0,1,5.77,0c2.28.06,4.55.12,6.82.23,1.17.06,2.32.26,3.49.39,1.84.2,3.7.32,5.52.64a5.09,5.09,0,0,1,2.18,1.1,1.61,1.61,0,0,0,2.25.12,6.13,6.13,0,0,1,2.3-.85c1.32-.24,2.67-.33,4-.48a1.18,1.18,0,0,1,.25,0c2.89.32,5.82.48,8.68,1,4.06.76,8.07,1.77,12.09,2.72,2.08.49,4.13,1.1,6.19,1.65a6.87,6.87,0,0,0,.74.17c2.75.42,5.52.72,8.24,1.29a13.18,13.18,0,0,1,3.06,1.56c.47.24,1,.69,1.42.65,3.6-.28,6.91.94,10.3,1.78,2,.51,4.12.89,5.77,2.41a3.14,3.14,0,0,0,1.68.39c2.28.24,3.53,1.5,3.53,3.53a1.37,1.37,0,0,1-1.2,1.51c-1.62.41-3-.33-4.37-.91a49,49,0,0,0-11.37-3.64,10.91,10.91,0,0,1-1.1-.29l-6.49-1.69a7.24,7.24,0,0,1-1.47-.37c-3.2-1.63-6.77-1.74-10.18-2.46s-7-1.1-10.43-1.7a34,34,0,0,1-6.42-1.36c-4-1.54-8.18-1.19-12.3-1.45-4.67-.29-9.34-.63-14-.83-3-.13-6.07,0-9.1-.05-.68,0-1.35.09-2,.07a31.46,31.46,0,0,0-10.6,1.19,2.35,2.35,0,0,1-1.37.11c-2.41-.87-4.75-.12-7.09.28-4.65.8-9.3,1.64-13.95,2.49a10.54,10.54,0,0,0-1.81.57c-4.78,1.81-9.87,2.43-14.76,3.81a9.88,9.88,0,0,0-2.67,1.39,9.43,9.43,0,0,1-5.15,1.76,11.49,11.49,0,0,0-6.41,1.64,9.15,9.15,0,0,1-5.08,1.32,5.14,5.14,0,0,0-1.74.19c-2.69,1.12-5.31,2.43-8,3.44a63,63,0,0,1-6.1,1.6,8.29,8.29,0,0,0-1.56.47c-3.26,1.58-6.52,3.16-9.74,4.81-1.87,1-3.65,2.12-5.53,3.06a42.58,42.58,0,0,1-5.2,2.24,9.11,9.11,0,0,0-4.62,2.9,10.17,10.17,0,0,1-4.2,2.92,27.68,27.68,0,0,0-8.25,5.32,24,24,0,0,1-6,4.1,20.79,20.79,0,0,0-5.11,3.66A36,36,0,0,1,89.08,60a4.73,4.73,0,0,0-1.59,1.4,17.56,17.56,0,0,1-6.67,6.23,2.4,2.4,0,0,0-.7.53c-1.8,2.06-3.56,4.15-5.39,6.18-1.09,1.21-2.28,2.35-3.44,3.5-2.06,2-4.3,3.84-5.9,6.38-1.38,2.19-3.4,4-5,6a48.43,48.43,0,0,0-2.67,4.11,7.06,7.06,0,0,1-.49.88c-1.46,1.68-2.95,3.32-4.41,5-.47.54-.89,1.12-1.3,1.7-1,1.47-2.1,2.94-3.11,4.44q-1.34,2-2.58,4c-1.61,2.66-3.14,5.37-4.79,8a19.27,19.27,0,0,1-2.53,3.31,8,8,0,0,0-2.18,3.78,2.12,2.12,0,0,1-.17.48c-1.35,2.58-2.74,5.14-4,7.74-1.17,2.35-3,4.35-3.39,7.12a4.12,4.12,0,0,1-1,2.29c-2,2-2.5,4.63-3.33,7.14-.31.94-.91,1.78-1.3,2.69s-.66,1.79-1,2.7c-.38,1.15-.69,2.32-1.09,3.47-.87,2.53-2.42,4.84-2.49,7.64a2.31,2.31,0,0,1-.45,1.15,8.63,8.63,0,0,0-1.93,5.84c.06.66-.41,1.35-.55,2.05-.38,2,.84,3.45,1.72,5,1.12,2,2.19,4,3.41,5.89a42.63,42.63,0,0,0,4.65,6.59,13.84,13.84,0,0,0,5.29,3.32,18.42,18.42,0,0,1,5.24,3.17,52.79,52.79,0,0,1,4.68,4.87c1.18,1.2,2.57,2.21,3.64,3.5,1.78,2.16,4.3,3.05,6.58,4.4a32.51,32.51,0,0,1,6.69,5.14c1.43,1.46,2.14,3.6,3.24,5.39,1.45,2.37,2.94,4.72,4.44,7a21.9,21.9,0,0,0,1.8,2.43c1.21,1.4,2.45,2.76,3.73,4.1.55.58,1.35,1,1.79,1.59,1.39,2,3.4,2.79,5.65,3.26a18.41,18.41,0,0,1,3,.92c2.13.85,3,2.51,2.3,4.67a52.89,52.89,0,0,1-2.15,4.94,6.86,6.86,0,0,0-.55,1,14.24,14.24,0,0,1-3,5.51c-2,2.45-3.93,4.94-5.89,7.41-.7.89-1.42,1.77-2.06,2.71a3.26,3.26,0,0,0-.07,3.9c.89,1.41.57,2.21-1,2.63a3.35,3.35,0,0,0-2.32,2.49,11.14,11.14,0,0,1-6.9,7.51c-2.11.89-2.16,4.4-.24,5.77a1.79,1.79,0,0,0,1.6-.28c1.19-1,1.6-1,2.28.4.83,1.7,1.46,3.5,2.26,5.22q2,4.42,4.19,8.79c1.4,2.88,2.55,5.94,4.36,8.54,2.23,3.19,3.35,6.87,5.28,10.16.57,1,1.25,1.89,1.87,2.83,0,0,.07.06.09.09,1.6,2.89,4.1,5.32,4.76,8.69.3,1.5.1,3.09.24,4.63.3,3.2-.92,6-2,8.92a33.61,33.61,0,0,0-1.09,4.68,3.32,3.32,0,0,0-.1,1.5c.79,2.74.25,5.55.46,8.31s0,5.49.14,8.23a41.58,41.58,0,0,0,.48,4.28,4.15,4.15,0,0,1-1.37,4.11,2.81,2.81,0,0,0-.86,1.49,28.78,28.78,0,0,0,.82,15.09,94.09,94.09,0,0,0,5.05,11.87c1,2.12,1.88,4.35,3.68,6a3.21,3.21,0,0,1,.86,1.39,10.48,10.48,0,0,0,4.25,5.45c1.86,1.35,3.83,2.57,5.76,3.82a30,30,0,0,1,3.37,2.18c.54.47.69,1.39,1,2.16,1-1.17,1.69.33,2.38.78a77.12,77.12,0,0,0,9.69,5.49c2.6,1.23,5,2.81,7.56,4.21,1.75,1,3.54,1.89,5.3,2.86,2.26,1.25,4.49,2.57,6.78,3.75,1.23.64,2.57,1.06,3.86,1.58.15.06.36.08.45.19,1.65,2.09,4,2.82,6.41,3.67,1.11.39,2,1.49,3,2.23a3.09,3.09,0,0,0,1.31.66,10.58,10.58,0,0,1,5.17,2.17c.75.57,1.56,1.05,2.35,1.56.17.11.41.26.57.22,1.54-.41,2.51.59,3.65,1.31a11.56,11.56,0,0,0,2.42.86c1.63.57,3.27,1.1,4.88,1.72a16.58,16.58,0,0,1,3.41,1.55c2.94,2,6.67,1.64,9.68,3.38.36.21.85.29,1.1.58a5.5,5.5,0,0,0,3.72,1.62,24.92,24.92,0,0,1,4.88,1.06,36.43,36.43,0,0,0,6.35,1c1.61.22,3.23.36,4.81.71,1.85.4,3.66,1,5.5,1.48a4.28,4.28,0,0,0,1,0l.12-.37a5.89,5.89,0,0,1-1.27-.84,2.1,2.1,0,0,1-.65-1.34c0-.27.82-.74,1.17-.67a34,34,0,0,1,5.81,1.56,5.47,5.47,0,0,0,2.87.49,13.56,13.56,0,0,1,3,.25c.5.06,1,.22,1.48.31,1.53.28,3.08.51,4.6.84s3.23,1,5,.32a3.24,3.24,0,0,1,2,.13c3.17,1.08,6.44.66,9.67.77.72,0,1.43,0,2.15-.06a37.18,37.18,0,0,1,4.13-.14c3.91.29,7.71-.61,11.56-.92,3.7-.3,7.39-.67,11.09-1.06,1.38-.14,2.74-.42,4.33-.67a3.76,3.76,0,0,0-.82-.48,19.44,19.44,0,0,0-2.69-.56c-2.75-.28-5.51-.49-8.27-.73-2.18-.18-4.37-.33-6.55-.54-3.44-.32-6.88-.6-10.3-1-2.09-.27-4.14-.81-6.21-1.21a4.72,4.72,0,0,0-1.85-.21,6.53,6.53,0,0,1-4.07-.5,18,18,0,0,0-2.2-.57c-1.22-.31-2.44-.65-3.67-.94-2.54-.61-5.09-1.15-7.61-1.82-8.65-2.31-17.3-4.61-25.92-7-2.59-.73-5.08-1.84-7.62-2.74-2-.72-4.08-1.37-6.12-2.07q-4.71-1.63-9.41-3.29c-3.3-1.17-6.61-2.31-9.87-3.58a37.46,37.46,0,0,1-7.57-3.41c-2.14-1.46-4.53-2.13-6.75-3.26-2.55-1.31-5-2.77-7.57-4.11s-4.89-2.45-7.3-3.75c-1.29-.7-2.46-1.6-3.72-2.35-1.52-.9-3.1-1.7-4.61-2.62-2.91-1.78-5.88-3.48-8.63-5.48a76.17,76.17,0,0,1-6.07-5.36,2.58,2.58,0,0,1-.68-.89,1.1,1.1,0,0,1,0-.93,1,1,0,0,1,.89-.21,9.42,9.42,0,0,1,2.89,1.51c2.25,2.23,5,3.72,7.62,5.36,3.79,2.36,7.6,4.69,11.45,6.95,2.07,1.21,4.24,2.25,6.36,3.35,1.75.91,3.53,1.76,5.25,2.72,4.12,2.31,8.41,4.24,12.72,6.14a18,18,0,0,1,2.73,2.11,4.32,4.32,0,0,0,1.59.68,14.83,14.83,0,0,1,2.71.37c2,.85,3.93,1.9,5.9,2.86a9.06,9.06,0,0,0,1.27.57c2.93.91,5.89,1.75,8.8,2.72,4.92,1.63,9.8,3.37,14.73,5,2.6.86,5.25,1.57,7.89,2.32s5.29,1.43,7.92,2.17c4.51,1.27,9,2.6,13.51,3.85,1.9.53,3.83.94,5.76,1.35a7.71,7.71,0,0,0,1.25-.08,11.19,11.19,0,0,1,2.23.18c3.36.81,6.71,1.69,10.06,2.53a1,1,0,0,0,.62,0c2.3-1.06,4.37.28,6.53.62.79.13,1.57.36,2.36.46,2.46.3,4.92.6,7.39.82,1.8.16,3.61.14,5.41.31,2.59.25,5.18.59,7.77.88.5.06,1,.05,1.51.1l5.65.54a4.41,4.41,0,0,0,.88.12c3.67-.42,7.41.4,11-.59,1.89-.51,3.73-1.2,5.68-1.83a2.16,2.16,0,0,0-2.21-1.25c-2.4-.07-4.8,0-7.2-.09-2.86-.12-5.71-.37-8.57-.54-1.34-.08-2.68-.1-4-.15a11.54,11.54,0,0,1-1.89-.13c-2.31-.49-4.59-1.18-6.92-1.5-2-.28-4.14,0-6.18-.27-2.78-.35-5.54-1-8.3-1.46-.25,0-.49-.12-.74-.17-2.26-.49-4.52-1-6.79-1.45-1.61-.29-3.26-.34-4.87-.62-2.07-.35-4.15-.74-6.19-1.24-2.74-.67-5.46-1.46-8.18-2.22-2.24-.63-4.46-1.3-6.69-1.93-.89-.25-1.8-.42-2.7-.65-.53-.14-1.2-.18-1.53-.53-1.73-1.81-4.17-1.94-6.3-2.78a16.4,16.4,0,0,1-4.83-2.38c-.95-.79-2.38-1-3.62-1.41-5.24-1.74-10.58-3.15-15.64-5.43-1.1-.5-2.39-.56-3.53-1-1.92-.73-3.79-1.59-5.68-2.4l-.22-.12c-3.44-1.38-6.89-2.74-10.32-4.15-1.17-.48-2.27-1.11-3.42-1.62-4.27-1.89-8.58-3.72-12.82-5.68-1.4-.65-2.64-1.65-4-2.4-2-1.09-4.1-2-6-3.16-5.39-3.24-11.17-5.93-15.53-10.67-.71-.78-1.39-1.59-2-2.43-.17-.23-.29-.79-.17-.89a1.53,1.53,0,0,1,1-.24,2,2,0,0,1,.94.35c2.86,1.92,5.71,3.87,8.57,5.79a12.09,12.09,0,0,0,2.48,1.43,6.3,6.3,0,0,1,3.09,2.08,3.2,3.2,0,0,0,1.53,1,24.23,24.23,0,0,1,7.1,3.79c1.8,1.31,4.13,1.86,6.18,2.85,2.69,1.29,5.33,2.68,8,4,.45.23.89.47,1.34.69,1.27.61,2.54,1.23,3.82,1.81.65.29,1.34.49,2,.76,1.9.78,3.79,1.59,5.7,2.35,2.27.91,4.55,1.77,6.82,2.67l7.87,3.11c.82.32,1.65.62,2.49.91,3.25,1.14,6.51,2.28,9.77,3.4,2.15.74,4.32,1.45,6.48,2.16.48.16,1,.24,1.46.43,2.73,1.1,5.42,2.27,8.17,3.3,1.25.47,2.66.52,3.88,1,4.29,1.85,8.94,2.39,13.33,3.81,4.81,1.55,9.84,2,14.66,3.36,3.29.91,6.71.59,9.92,1.68a6.4,6.4,0,0,0,3.95.27,5.13,5.13,0,0,1,2.58.41,12.73,12.73,0,0,0,5.1.56c1.34-.13,2.73.43,4.11.58,3.68.42,7.36.83,11,1.16,3.43.31,6.92-.39,10.32.57.51.14,1.11-.06,1.64,0a19.13,19.13,0,0,0,3.35.75c1,0,2.07-.69,3.12-.74a27.53,27.53,0,0,1,4.65.32,19.19,19.19,0,0,0,8.1-1c4.15-1.26,8.18-2.92,12.25-4.42.2-.07.45-.13.56-.29.33-.49.61-1,.9-1.52-.56-.27-1.14-.79-1.69-.77-1.51.06-3,.37-4.51.53a16.63,16.63,0,0,1-2,.05,30.65,30.65,0,0,0-4.92-.05c-4.73.72-9.41-.33-14.12-.17-1.88.06-3.76-.07-5.64-.13a9.39,9.39,0,0,1-1.38-.15,23.34,23.34,0,0,0-5.86-.58c-2.4.16-4.86-.43-7.29-.69l-8.3-.89c-1-.12-2.09-.24-3.12-.42-3-.53-6-1.09-9-1.63-3.48-.63-7-1.29-10.45-1.86a89.15,89.15,0,0,1-14.49-3.52c-1.83-.62-3.79-.83-5.65-1.38-3.17-.95-6.29-2.07-9.47-3-1.53-.45-3.16-.52-4.69-1-3.72-1.1-7.4-2.3-11.09-3.48s-7.26-2.27-10.85-3.51c-1.74-.6-3.38-1.51-5.1-2.19-.73-.29-1.56-.31-2.32-.54a9.69,9.69,0,0,1-2.89-1.08,2.42,2.42,0,0,1-.49-2c.05-.31,1-.59,1.54-.69a3,3,0,0,1,1.49.19c2.61.95,5.21,2,7.82,2.9,1.9.69,3.81,1.37,5.75,2,5.28,1.64,10.55,3.3,15.87,4.82,1.72.49,3.59.47,5.35.88,3.3.78,6.84.66,9.86,2.53a2,2,0,0,0,.81.34c5.24.49,10.13,2.48,15.26,3.45,2.15.4,4.33.67,6.47,1.08,2.73.52,5.43,1.21,8.17,1.68,3.57.62,7.16,1.09,10.74,1.63a10.54,10.54,0,0,1,1.24.25,18.48,18.48,0,0,0,5.59.76c2.11-.06,4.24.6,6.37.94.75.12,1.49.23,2.25.29,2.26.18,4.52.36,6.79.48,1.93.11,3.86.12,5.79.21,1,0,2,.19,3,.27,1.46.13,2.91.3,4.37.36s3.2,0,4.8,0c2.56.07,5.11.19,7.67.29.51,0,1,0,1.52,0,3,0,5.92.17,8.85-.1,4.88-.45,9.95.07,14.35-3.11,2.36-1.71,5.2-2.75,7.83-4.09a.91.91,0,0,0,.23-.11l1.86-1.84a9.27,9.27,0,0,0-2.62-.47c-4,.46-7.91,1.18-11.89,1.54-2.08.19-4.2-.26-6.31-.29a6.42,6.42,0,0,0-2.89.51,37.2,37.2,0,0,0-5.17,3.15c-1.75,1.28-3.8,1.35-5.76,1.7a58.71,58.71,0,0,1-7.52,1c-3.89.19-7.72-.3-10.8-3a9.72,9.72,0,0,1-2-3.3,3.07,3.07,0,0,0-3-2.16c-3,0-6,.13-9.05,0a45.89,45.89,0,0,1-6.48-1,.81.81,0,0,1-.17-1.55,7.25,7.25,0,0,1,2.83-.71,40,40,0,0,1,4.76.16c2.35.18,4.7.39,7,.66,2.08.24,2.41.11,2.52-2a27.27,27.27,0,0,0-.33-4.38c-.09-.82-.71-.87-1.42-.88a26.75,26.75,0,0,1-3.87-.28,12.7,12.7,0,0,0-4.61.2,25.45,25.45,0,0,1-5.5,0,55.27,55.27,0,0,1-12.15-2.18c-2.72-.7-5.46-1.31-8.17-2a24.78,24.78,0,0,1-2.91-1.21,5.32,5.32,0,0,0-.95-.33c-2.1-.43-4.2-.81-6.29-1.29-.78-.18-1.8-.31-1.76-1.46,0-.72,1.52-1.29,2.5-.7,1.66,1,3.42.53,5.13.79,2,.32,4,1,6,1.48a4.59,4.59,0,0,0,1.11.24c3.24,0,6.33,1.24,9.47,1.36,3.46.13,6.69,1.35,10.13,1.34a38.17,38.17,0,0,1,11.42,2,1.45,1.45,0,0,0,2-1.14,5.58,5.58,0,0,0,.11-2c-.26-2.21-.59-4.42-.88-6.62a10.31,10.31,0,0,0-.2-1.76,25.4,25.4,0,0,1-1.23-8.73,2.53,2.53,0,0,0-.25-1.23c-1.22-2.3-1.06-4.82-1.31-7.28-.12-1.15-.5-2.28-.72-3.42a4.09,4.09,0,0,1-.12-1.59,22.62,22.62,0,0,0,.31-7.67,39.52,39.52,0,0,1,0-7.09c.21-3.23.58-6.46,1-9.68.17-1.45.48-2.89.78-4.32a2.7,2.7,0,0,1,.51-.83c.79-1.17,1.57-2.34,2.37-3.49.56-.81,1.12-1.64,1.75-2.4s1.39-1.35,2-2.1a4.51,4.51,0,0,0,.78-4.19c-.56-2.25-1-4.52-1.55-6.79a.75.75,0,0,0-.06-.24c-1.83-2.77-.52-5.6-.2-8.42.39-3.42.88-6.84,1.06-10.27a5.41,5.41,0,0,0-1.3-2.9c-1-1.48-2.28-2.82-3.4-4.24a4.9,4.9,0,0,1-1.24-3.62,2.72,2.72,0,0,1,1.7-2.57,4.52,4.52,0,0,0,2.43-2.78c.69-1.77,1.38-3.54,2.23-5.24a7.7,7.7,0,0,0,.38-5.32c-.32-1.43-1.61-2-2.87-2.15-2.71-.37-5-1.7-7.42-2.83A4.69,4.69,0,0,1,295.4,294c-1-2.64-2.09-3.22-4.68-2.11a62.41,62.41,0,0,0-6.31,3.47c-.8.46-1.52,1.09-2.35,1.49-1.55.77-2.8.05-3.25-1.63a18.45,18.45,0,0,0-1.34-3.79,2.3,2.3,0,0,0-3.61-1,14.42,14.42,0,0,0-2.49,2.09c-.92.87-1.7,1.9-2.69,2.66a1.93,1.93,0,0,1-1.8.19,2.06,2.06,0,0,1-.35-1.77,4.7,4.7,0,0,1,1.09-2,14.35,14.35,0,0,1,7.76-4.73,4.11,4.11,0,0,1,4.91,2.39c.35.72.6,1.49.91,2.23.52,1.23,1.26,1.48,2.4.75s2-1.36,3-2.09a8.4,8.4,0,0,1,6.1-1.61,10.81,10.81,0,0,0,2,.09,3.25,3.25,0,0,1,3.48,2,5.14,5.14,0,0,0,3.51,2.81c2.25.69,4.44,1.61,6.65,2.44,2.79,1.05,5,4.84,4.67,8.1a14.68,14.68,0,0,1-3.06,8,8.61,8.61,0,0,0-.7,1.34,29.7,29.7,0,0,1-1.85,3.23,2.69,2.69,0,0,0-.28,3.28,8.23,8.23,0,0,0,1.1,1.54,13.6,13.6,0,0,1,3.32,6.87,5.91,5.91,0,0,1,0,2.62c-.82,3.32-1.81,6.59-2.61,9.91a7.8,7.8,0,0,0-.07,3.24c.62,3.14,1.27,6.3,2.17,9.37,1.09,3.68-.21,6.57-2.39,9.36a16.12,16.12,0,0,0-1.47,2.74,23.75,23.75,0,0,0-1,2.17,28.21,28.21,0,0,0-1.58,4.49,34.48,34.48,0,0,0-.34,11.2,14.58,14.58,0,0,1-.33,3.23,10.91,10.91,0,0,0-.08,1.51c.18,5,.31,10,.59,14.92a36.6,36.6,0,0,0,.91,4.44c.27,1.48.49,3,.7,4.47s.44,2.92.57,4.38.18,3,.2,4.51c0,2.14,0,4.28,0,6.41,0,.59,0,1.18.06,1.77.25,4.4.12,8.86,1.77,13.05a6,6,0,0,0,4.52,4,19.76,19.76,0,0,0,7.63-.36c1.11-.21,2.19-.56,3.3-.8,5-1.08,8.83-4.23,12.67-7.29a53.81,53.81,0,0,0,5.13-5.06,2.79,2.79,0,0,0,.54-3.08,2.45,2.45,0,0,1,.57-2.78,5.61,5.61,0,0,0,1.2-2c.73-2.46,1.48-4.93,2-7.45a5.83,5.83,0,0,1,3.88-4.7,67.09,67.09,0,0,0,7-3.52c1.4-.77,1.42-1.92.22-3.1-1.63-1.61-3.23-3.24-3.95-5.49-.57-1.81.21-2.93,2.11-2.9a2.45,2.45,0,0,0,2.2-.92,3.27,3.27,0,0,1,1.32-.94c2.24-.87,4.48-1.72,6.75-2.5,1.43-.5,2.9-.85,4.34-1.32.34-.11.59-.45.89-.67,1.52-1.11,2.9-2.67,4.6-3.24,3.54-1.18,4.8-3.7,5.27-7q1.06-7.52,2.14-15a1.36,1.36,0,0,1,.07-.37c1.89-4.08,1-8.78,2.8-12.88.19-.42.2-.92.38-1.34,1.54-3.49,3.18-6.95,4.65-10.47,1-2.36,2.77-4.1,4.11-6.17,1.72-2.67,4.15-4.46,6.49-6.45a73.19,73.19,0,0,0,5.4-5.85,74.73,74.73,0,0,0,8.2-10.91,27.13,27.13,0,0,1,2.44-2.54,2.85,2.85,0,0,0,.83-1.66,4.22,4.22,0,0,1,1.19-3.36c2.11-2.09,2.33-5.12,3.78-7.53a1.23,1.23,0,0,0-.42-1.1,8.08,8.08,0,0,0-3.07-.36,9.68,9.68,0,0,1-5-.15,5.93,5.93,0,0,0-2.34,0c-1,.09-2,.35-3,.38-1.56,0-3.12,0-4.68-.11a4.64,4.64,0,0,1-2.29-.52c-3-2.13-5.48-4.56-5.62-8.65-.09-2.38-1-4.75-.95-7.12.1-4.14-1.87-7.65-2.76-11.48a58.35,58.35,0,0,1-1.15-9.1,10.44,10.44,0,0,0-1.88-4.74c-.74-1.22-1.67-2.33-2.36-3.58a4,4,0,0,1-.14-4,5.56,5.56,0,0,0,.42-3.81,5.27,5.27,0,0,1,.35-1.8c.52.37,1.21.63,1.53,1.13a3.22,3.22,0,0,1,.54,2c-.28,1.91.7,3.32,1.53,4.84,1,1.83,2,3.67,2.94,5.54a28.52,28.52,0,0,1,1.16,2.94,3.46,3.46,0,0,1,.43,1.57c-.4,2.19.43,4.11,1.11,6.07a10.87,10.87,0,0,0,.58,1.8c2.34,4.2,2.55,8.86,3,13.47a36.31,36.31,0,0,0,.46,5.41,14.07,14.07,0,0,0,2.12,3.93,1.39,1.39,0,0,0,1.31.36,2.3,2.3,0,0,0,.89-1.24,1.78,1.78,0,0,0-.09-1.11,7.16,7.16,0,0,1,.54-5.54,7,7,0,0,0,.55-4.92c-.47-1.75-1-3.49-1.51-5.23a4.67,4.67,0,0,1-.43-1.44,12.25,12.25,0,0,0-1.47-6.06,25.31,25.31,0,0,1-1-4c-.68-2.56-1.43-5.11-2.13-7.67-.24-.89-.37-1.82-.66-2.7a25.78,25.78,0,0,0-1.24-3c-.6-1.25-1.24-2.48-1.94-3.67-1.77-3.07-3.6-6.1-5.37-9.17a5.94,5.94,0,0,0-2.65-2.6c-1.4-.66-1-2.16-1-3.28a3.58,3.58,0,0,1,1.28-2.13c.22-.21,1.22.13,1.62.49a3.34,3.34,0,0,1,.8,1.67,4.84,4.84,0,0,0,2.07,3.21,3.47,3.47,0,0,1,.94,1c1.6,2.42,3,5,4.79,7.26a38.16,38.16,0,0,1,6.33,12.32c1,3.09,1.57,6.31,2.6,9.39a30.57,30.57,0,0,1,2.07,9.35,1.72,1.72,0,0,0,.18.73c1.38,2.72,1.11,5.48.19,8.25s-1.8,5.25-2.62,7.9a5.93,5.93,0,0,0,0,1.87,5.82,5.82,0,0,0,2-.13c2.62-1.16,5.18-2.43,7.77-3.67a5.78,5.78,0,0,0,1.66-.89c1.63-1.65,3.71-2.24,5.84-2.85a15.53,15.53,0,0,0,2.65-1.18c2-1,4-2.06,6-3.11a6.18,6.18,0,0,0,1.86-1c2.43-2.76,6-3.38,9.09-4.78a6.71,6.71,0,0,0,3.87-3.56c.38-.94.66-1.92,1-2.86a3.45,3.45,0,0,0-.32-3c-.85-1.68-1.63-3.41-2.34-5.15-.64-1.57-1.78-2.09-3.18-1.14a8.45,8.45,0,0,1-7,1.29c-1.48-.34-3-.49-4.49-.76a3.56,3.56,0,0,1-2.69-2.25,24.52,24.52,0,0,1-2-9.67c-.14-4.14.68-8.14,1.19-12.19a3.41,3.41,0,0,1,1.43-2.17c.91-.56,1.79.21,2.4.92,2.11,2.52,4.3,5,6.21,7.66a4.85,4.85,0,0,0,4.12,2.25,5.34,5.34,0,0,1,4.39,1.83,2.59,2.59,0,0,0,1.18.69,3.7,3.7,0,0,1,2.49,2.92c.87,3.25,2.52,5.91,5.74,7.41,1.2.56,2.2,1.55,3.36,2.23a5.44,5.44,0,0,0,4.75.25c2.68-.94,4.47-2.89,6.2-5a5,5,0,0,1,2.15-1.38,1.71,1.71,0,0,0,1.38-1.71c0-2.69,0-5.38,0-8.07,0-2.49,0-5-.14-7.47-.14-3.53,0-7.07-1-10.53a21.5,21.5,0,0,1-.14-3.15c-.21-1.7-.57-3.39-.81-5.09-.13-1-.1-1.94-.23-2.89a115.2,115.2,0,0,0-3-15.38c-.66-2.31-.87-4.75-1.35-7.12-.33-1.61-.82-3.18-1.17-4.79-.45-2.08-.76-4.2-1.25-6.27-.32-1.33-.92-2.6-1.26-3.93s-.39-2.66-.74-4c-.76-2.8-1.6-5.57-2.46-8.35-1-3.22-2-6.45-3.09-9.62-.72-2.05-1.73-4-2.55-6-.7-1.75-1.27-3.56-2-5.31-.46-1.17-1-2.3-1.56-3.44s-1.15-2.53-1.78-3.77c-.43-.85-1-1.62-1.45-2.46-.91-1.76-1.71-3.57-2.65-5.31-1.31-2.43-1.64-5.34-3.69-7.4a1.91,1.91,0,0,1-.54-1c-.39-2.94-2.46-5-3.68-7.56-.48-1-.62-2.17-1.09-3.18a40.07,40.07,0,0,0-2.14-4,8.27,8.27,0,0,0-3.11-3.35C430.42,97.81,430.44,96.54,431.51,95.31Zm-38,259.49-.08-.47a9.2,9.2,0,0,1,1.27-.63c2.44-.79,4.93-1.46,7.33-2.35,4.43-1.64,9.16-2.38,13.36-4.69s8.32-4.29,12.34-6.67c2.53-1.5,4.72-3.54,7.16-5.21,4.48-3.07,9.19-5.85,12.65-10.19,2.73-1.25,4.32-3.8,6.49-5.68a46,46,0,0,0,8.09-8.21,2.58,2.58,0,0,1,.76-.66,5.53,5.53,0,0,0,2.29-3.22c.76-2.4,1.6-4.78,2.23-7.22a8.27,8.27,0,0,0-.19-2.62l-.65-.33a24.56,24.56,0,0,0-1.86,2.37c-2.5,4.08-6.16,7-9.77,10s-7.1,5.53-10.72,8.22c-2.3,1.71-4.65,3.34-7.06,4.89-1.12.72-2.46,1.09-3.66,1.7-3.11,1.6-6.14,3.35-9.3,4.85-5.22,2.48-10.5,4.84-15.79,7.17a7.17,7.17,0,0,1-2.59.35c-.3,0-.84-.3-.88-.52a1.57,1.57,0,0,1,.43-1.06,2.71,2.71,0,0,1,1-.61c3.25-1.5,6.5-3,9.76-4.48,1.77-.8,3.57-1.53,5.34-2.32a30.71,30.71,0,0,0,3.4-1.6c1.36-.81,2.6-1.84,3.94-2.69,1-.65,2.2-1.09,3.23-1.75,5.16-3.28,10.29-6.6,15.42-9.92a8.75,8.75,0,0,0,.89-.71c1.11-.94,2.2-1.9,3.33-2.83.58-.48,1.24-.89,1.82-1.37q4.79-4,9.55-8a13.78,13.78,0,0,0,1.35-1.5c.88-1,1.72-2.08,2.66-3,1.26-1.29,2.55-2.52,2.25-4.56a2,2,0,0,1,.11-.62q.7-3.5,1.4-7c.28-1.39.56-2.78.8-4.18a8.51,8.51,0,0,0,0-1.41l-.44-.08-.84,1.06c-2.41,3.08-4.78,6.2-7.24,9.23a24.35,24.35,0,0,1-3.07,3c-1.88,1.61-3.82,3.15-5.74,4.71-.49.4-1,.74-1.51,1.13-2.5,2-4.87,4.21-7.53,6-5.34,3.54-10.81,6.89-16.28,10.23-2.66,1.62-5.29,3.37-8.45,3.93a3.19,3.19,0,0,1-.92-.11c.1-.3.1-.69.3-.87a18.27,18.27,0,0,1,2.25-1.81c3.35-2.18,6.79-4.25,10.1-6.5,4.05-2.76,7.38-6.54,12-8.51a3.26,3.26,0,0,0,1.17-1,24,24,0,0,1,5.46-4.61A50.27,50.27,0,0,0,462.19,282a124.77,124.77,0,0,1,8.83-9.18,7.14,7.14,0,0,0,1.79-5.45,53.59,53.59,0,0,1,1.1-11.14,9.8,9.8,0,0,0,0-1.54l-.42-.05c-.46.77-.93,1.53-1.39,2.31q-1.21,2-2.42,4.1a8.57,8.57,0,0,1-1,1.74c-1.24,1.27-2.74,2.32-3.14,4.22-.06.28-.44.5-.68.74-1.6,1.62-3.27,3.17-4.78,4.86-4.87,5.48-10.64,9.94-16.43,14.34-4,3-8.32,5.6-12.5,8.36a2.7,2.7,0,0,1-1.14.51,7.07,7.07,0,0,1-1.55-.18,6.82,6.82,0,0,1,.58-1.39,3.67,3.67,0,0,1,1.05-.9c1.87-1.21,3.88-2.25,5.62-3.62,3.34-2.63,6.65-5.32,9.77-8.21,2.9-2.69,6.37-4.7,8.8-7.94A30.55,30.55,0,0,1,458,270.1a64.76,64.76,0,0,1,6.23-5.85,14.58,14.58,0,0,0,3.34-4c.34-.49.61-1,1.1-1.84h-6a2.89,2.89,0,0,1-1-.11c-2.23-.85-4.45-1.71-6.67-2.61a7,7,0,0,1-1.41-.84,16.22,16.22,0,0,1-6.18-8,3.08,3.08,0,0,0-1.65-1.73,34.9,34.9,0,0,0-5.4-1.21,4,4,0,0,1-3-1.57c-1.19-1.79-2.36-3.6-3.6-5.36a4.36,4.36,0,0,0-1.14-.82,12.77,12.77,0,0,0-.73,1.23,1.78,1.78,0,0,0-.06.75c.07,3.12-.08,6.26.29,9.34s1.48,4.67,4.65,4.54a5.06,5.06,0,0,1,1.26.14,5.53,5.53,0,0,0,5.07-1.26,2.91,2.91,0,0,1,2.17-.64,5.2,5.2,0,0,1,4.2,3.27c1,2.7,2.07,5.36,2.77,8.13a16.57,16.57,0,0,1,0,4.62c-.16,3.83-1.6,6.86-5.33,8.45-.85.36-1.68.79-2.5,1.23-2.31,1.25-4.94,2-6.72,4.15-.5.62-1.54.81-2.32,1.19a35.84,35.84,0,0,0-4.72,2.37c-1.76,1.21-3.42,2.47-5.66,2.58a4,4,0,0,0-1.2.39c-2.38,1-4.76,1.89-7.12,2.89a4.47,4.47,0,0,0-1,.83c.37.27.71.71,1.12.79,2.36.46,4.72.93,7.11,1.19a2.59,2.59,0,0,1,2.54,2.08,2.77,2.77,0,0,1-.59,3.29,2.09,2.09,0,0,0-.41.78c-.84,2.3-1.59,4.63-2.52,6.88a18.91,18.91,0,0,1-1.75,2.72,20.43,20.43,0,0,0-1.25,2.11c-1,2.16-1.89,4.4-3,6.48a38.08,38.08,0,0,1-3,4.07,46.35,46.35,0,0,1-6.43,7.46,41.93,41.93,0,0,0-4.37,4.56,7,7,0,0,0-.76,2.28c-.17.52-.23,1.31-.59,1.51a7.35,7.35,0,0,0-3.66,4c-.13.33-.54.55-.72.87-1.18,2.07-2.37,4.15-3.49,6.26a28.29,28.29,0,0,0-1.62,3.65,17.56,17.56,0,0,0-.46,2.49,7.21,7.21,0,0,1-.41,1.55,15.68,15.68,0,0,0-1.41,2.88c-1.11,5.25-1.29,10.69-3.3,15.76a1.58,1.58,0,0,0-.1.75,9.15,9.15,0,0,1-1.1,5.49,2,2,0,0,0,.21,1.82c.25.31,1.15.3,1.69.15,2.28-.64,4.51-1.41,6.78-2.07C398,379,402,378,405.87,376.78c2-.63,3.89-1.59,5.83-2.38a12.62,12.62,0,0,1,1.44-.44c2-.55,4.12-.94,6.07-1.68,2.14-.81,4.16-2,6.23-2.95,1.25-.6,2.51-1.18,3.77-1.76,1.72-.79,3.44-1.56,5.15-2.36a8,8,0,0,0,1-.59c1.43-.93,2.82-1.92,4.28-2.77s3.06-1.55,4.55-2.39a4.51,4.51,0,0,0,1.25-1.22,23.63,23.63,0,0,0,2-2.89c1-1.82,1.89-3.71,2.8-5.58a1.48,1.48,0,0,0,.07-.75c-.16-1.69.94-2.74,1.81-4a22,22,0,0,0,2.09-4.24.93.93,0,0,0-.77-1.33c-.82-.19-.66-.79-.29-1.27a4.15,4.15,0,0,1,1.07-.87,6.26,6.26,0,0,0,3-4.17,6.73,6.73,0,0,1,.6-1.38c.53-1.16,1.12-2.31,1.57-3.5s.68-2.25,1-3.38c.9-3,1.82-5.91,2.69-8.87.06-.22-.13-.51-.26-1a16.62,16.62,0,0,0-1.35,1.16c-2.14,2.32-4.09,4.83-6.41,6.94-3.7,3.37-7.61,6.52-11.48,9.69-1.27,1-2.78,1.76-4.06,2.78a58.12,58.12,0,0,1-10.06,6.55c-1.61.8-3,2.06-4.59,2.88-2.4,1.24-4.89,2.29-7.36,3.39-4.93,2.2-9.76,4.68-15.25,5.26a7,7,0,0,0-1.42.53,14.17,14.17,0,0,1-2.76.88A9.11,9.11,0,0,1,393.52,354.8ZM9,267.79l-.5.15c.27,3,.27,6.16,1.38,9,1.3,3.42,2.89,6.73,4.38,10.08a3.79,3.79,0,0,0,.65.76,18.09,18.09,0,0,1,1.9,2.31c2.24,3.82,4.32,7.74,6.63,11.52s4.91,7.75,7.51,11.53c2.31,3.37,4.77,6.63,7.21,9.91,1.28,1.72,2.61,3.42,4,5.06s3,3.41,4.53,5.09c2,2.21,4,4.45,6.06,6.57,3.31,3.36,6.7,6.64,10.05,10a11.24,11.24,0,0,1,.79,1,30.54,30.54,0,0,0,3.6,4.38,21.87,21.87,0,0,1,5.52,6.34,3.53,3.53,0,0,0,.69.73c1,1,2.05,1.95,3,3s1.59,2.19,2.46,3.22c.27.32.85.38,1.28.56.14-.45.3-.9.4-1.36a1.89,1.89,0,0,0-.1-.62c-.58-3.58-1.2-7.16-1.73-10.75a11.76,11.76,0,0,1-.08-3.15c.24-1.91.78-3.79.93-5.7a6.44,6.44,0,0,0-.66-3c-.33-.75-.58-1.3.17-1.86a1.8,1.8,0,0,0,.63-2,2.31,2.31,0,0,1,.15-1.56,3.21,3.21,0,0,0-.09-3.59c-.81-1.43-1.7-2.82-2.55-4.24C74.7,327,72,323,69.8,318.67c-1.31-2.57-3.23-4.93-3.6-7.95,0-.27-.3-.51-.4-.79-1.21-3.36-2.38-6.73-3.61-10.07a12.86,12.86,0,0,0-1.48-3.16c-1.24-1.7-2.79-3.17-4-4.88-3.28-4.56-6.56-9.11-9.63-13.81-2.46-3.77-4.6-7.74-6.87-11.63-.45-.76-.89-1.53-1.3-2.32-1.73-3.32-2.69-7-5-10a6.61,6.61,0,0,1-.68-1.76c-.25-.67-.46-1.36-.76-2-1.06-2.25-2.21-4.46-3.2-6.75a20.41,20.41,0,0,1-.66-2.93,8.07,8.07,0,0,0-.67-1.68c-.6-1.14-1.34-2.21-1.86-3.39-.74-1.69-1.27-3.47-2-5.16-1-2.2-2.06-4.34-3-6.55-.66-1.5-1.18-3.07-1.75-4.61-.29-.78-.52-1.59-.85-2.36-1.32-3.14-2.89-6.2-3.94-9.42S13,201,12.24,197.84a4.44,4.44,0,0,0-.74-1.19c-.29.37-.76.7-.84,1.1-.42,2.14-.84,4.28-1.08,6.45-.45,4.1-.78,8.21-1.17,12.32-.26,2.68-.58,5.36-.8,8-.17,2.09-.18,4.19-.36,6.28A35.57,35.57,0,0,0,8.34,244c.15.51.14,1.43-.16,1.65-1.27.93-1.09,2.23-1,3.45.1,2.95.34,5.89.51,8.83.12,2.14.43,4.19,1.92,5.9a3.54,3.54,0,0,1,.78,1.44c.63,2.68,2.12,4.93,3.41,7.3.88,1.62,1.3,3.49,2.21,5.1,1.49,2.64,3.2,5.16,4.84,7.72,2.27,3.55,4.51,7.12,6.85,10.62,1.42,2.13,2.94,4.19,4.48,6.23,1.7,2.25,3.61,4.35,5.2,6.67s2.85,4.57,4.88,6.41a2.49,2.49,0,0,1,.78,1.13,9.28,9.28,0,0,1,.08,1.88,12.35,12.35,0,0,1-2,0,1.59,1.59,0,0,1-.87-.69c-1.08-1.6-2.12-3.22-3.17-4.83-.38-.59-.63-1.39-1.17-1.74-2.11-1.39-3.41-3.49-4.85-5.44-2.12-2.88-4.16-5.82-6.07-8.84-3.14-4.94-6.27-9.9-9.17-15-1.9-3.33-3.4-6.88-5.07-10.34C10.11,270.22,9.57,269,9,267.79Zm343.6,157.07a5.59,5.59,0,0,1,1.08-.5c2.9-.53,5.79-1.16,8.72-1.51,3.91-.46,7.87-.35,11.75-1.2a32.81,32.81,0,0,1,4-.32c2.12-.2,4.24-.42,6.36-.64a4.64,4.64,0,0,0,1.23-.27,3.09,3.09,0,0,1,3.62.61,1.3,1.3,0,0,0,1.09.34,20.14,20.14,0,0,0,2.42-1.31c.79-.46,1.57-.94,2.35-1.43,1.43-.88,2.92-1.68,4.25-2.69,1.64-1.24,3.09-2.74,4.73-4,2.68-2.05,5.36-4,7-7.18A15.15,15.15,0,0,1,414.3,401c1.51-1.46,3.42-2.53,4.78-4.1a99.34,99.34,0,0,0,8.39-10.45c.16-.24.43-.41.6-.65,1-1.45,2.13-2.88,3.09-4.39.25-.39.11-1,.15-1.54a6.27,6.27,0,0,0-1.59.36c-4.18,2.2-8.29,4.53-12.51,6.65a35,35,0,0,1-5,1.65,8.73,8.73,0,0,0-1.54.54,28.7,28.7,0,0,1-10.11,3.78,12.57,12.57,0,0,0-1.69.5c-5.92,1.66-11.83,3.37-17.77,5-3.21.86-6.48,1.49-9.7,2.28s-6.52,1.8-10,1.54a3.36,3.36,0,0,0-1.23.25c-.94.31-1.37.92-.77,1.82s1.39,1.79,2.07,2.68c1.21,1.58,1.14,2.5-.28,3.85a5.91,5.91,0,0,1-1,.82,51.1,51.1,0,0,0-7.18,5.1,6.33,6.33,0,0,0-2.31,5.56,7.48,7.48,0,0,1-.71,4.47c-.43.77-1,1.48-1.39,2.25a8.88,8.88,0,0,0-1,2.26c-.3,1.39.26,1.86,1.58,1.35,4.53-1.79,9.29-1.76,14-1.92,2-.06,4-.32,6-.55,3.38-.4,6.75-1,10.14-1.21a7.35,7.35,0,0,0,4.84-2.07,23.7,23.7,0,0,1,3-2.09c.7-.47,1.45-.86,2.12-1.37a1.06,1.06,0,0,0,.24-.87c0-.12-.5-.29-.74-.25-2.39.41-4.78.81-7.15,1.31-3.17.67-6.32,1.44-9.61.88a2.24,2.24,0,0,0-1.34.22c-2.08,1.11-4.4,1-6.61,1.26-2.71.28-5.45.17-8.18.23A3.84,3.84,0,0,1,352.62,424.86ZM21,201.06c.56,1.3,1,2.57,1.64,3.79,1.54,3.14,3.2,6.23,4.69,9.39s2.85,6.49,4.32,9.72c.64,1.41,1.78,2.7,2,4.17a12.16,12.16,0,0,0,2.13,4.5c.43.67.76,1.41,1.13,2.12,1,1.94,2.09,3.85,3.05,5.82.77,1.58,1.39,3.23,2.1,4.84a10.5,10.5,0,0,0,1.23,2.37A24.71,24.71,0,0,1,48,255.37a4.23,4.23,0,0,0,1.16,1.88,7,7,0,0,1,2.29,4,3.63,3.63,0,0,0,.79,1.66c2.71,2.71,4.2,6.18,6,9.44a16.25,16.25,0,0,0,1.28,2.16c1,1.24,1.71,1.12,2.19-.39A40.71,40.71,0,0,0,63.09,269a4.1,4.1,0,0,0-.49-2.38c-1.16-2.29-2.44-4.51-3.68-6.75a5.11,5.11,0,0,0-.35-.53c-.94-1.29-2-2.52-2.8-3.88-1.62-2.66-3.13-5.39-4.66-8.1-.37-.66-.6-1.4-1-2.06-1.44-2.58-3-5.1-4.34-7.71-1.57-3-3-6-4.5-9.06-1.65-3.37-3.35-6.72-4.91-10.14-1.26-2.75-1.88-5.79-3.76-8.27a2.19,2.19,0,0,1-.35-1.31,1.24,1.24,0,0,1,.54-.89c.17-.1.65.13.85.34a11,11,0,0,1,1.11,1.53c2,3.09,2.85,6.77,5.23,9.64a2.91,2.91,0,0,1,.35.67c1.11,2.45,2.16,4.94,3.35,7.35s2.56,4.67,3.76,7c1.72,3.37,4.22,6.33,5.3,10a7.65,7.65,0,0,0,1.1,2c1.49,2.24,3.1,4.4,4.51,6.69,2.05,3.34,4,6.77,5.94,10.15.6,1,1.34,1.08,2.13.19.61-.7,1.13-1.48,1.74-2.18,2.06-2.37,4.14-4.73,6.21-7.09a6.15,6.15,0,0,0,.66-.92c1-1.71,2-3.42,3-5.15.57-1,.25-1.79-.88-2.17-.64-.22-1.33-.28-2-.51-1.79-.63-3.59-1.21-4.86-2.79-.89-1.1-1.89-2.12-2.85-3.16a24.44,24.44,0,0,1-2-2.09q-3.69-5.06-7.26-10.2a25.69,25.69,0,0,1-1.39-2.54,15.45,15.45,0,0,0-1.65-3c-3.15-3.57-7.38-5.64-11.42-8a27.6,27.6,0,0,1-4.17-3,3.26,3.26,0,0,1-.83-2,3.3,3.3,0,0,0-2.89-3.22,3.66,3.66,0,0,1-1.75-.64c-1.74-1.61-3.79-1.36-5.87-1.23a5.83,5.83,0,0,1-2.47-.25C24.22,202.76,22.74,201.92,21,201.06Zm-9,84.81-.52.15c.2,1.21.32,2.44.62,3.62.68,2.69,1.52,5.34,2.14,8,.81,3.53,1.66,7,3.75,10.08,2.61,3.82,5.05,7.76,7.63,11.61,1.32,2,2.77,3.83,4.17,5.73,1.55,2.11,2.77,4.38,4.68,6.34,4.22,4.35,7.9,9.22,11.82,13.87,2.74,3.25,5.43,6.56,8.3,9.7,3.25,3.53,6.68,6.9,10,10.33.15.15.31.29.46.44,3,2.83,6,5.6,8.84,8.51a33.5,33.5,0,0,1,3.42,4.36c.82,1.17,1.93,1.27,2.65,0a9.78,9.78,0,0,0,1-2.46c.66-2.67-.27-4.43-2.69-5.67a11.22,11.22,0,0,1-2.8-1.92q-4.26-4.22-8.37-8.6c-1.93-2.06-3.55-4.45-5.65-6.3a47,47,0,0,1-9.56-10.81,4.21,4.21,0,0,0-1-1c-1.31-1.08-2.64-2.13-4-3.2a3.84,3.84,0,0,1-.44-.45c-2.15-2.43-4.33-4.84-6.44-7.31-1.5-1.77-3-3.56-4.34-5.44-1.84-2.56-3.62-5.18-5.29-7.86-4.11-6.62-8.14-13.29-12.21-19.94-.18-.29-.36-.57-.55-.85-1.67-2.41-3.22-4.85-3.45-7.9A4,4,0,0,0,12,285.87Zm430.31,77.36L442,363c-2.07,1.32-4.21,2.55-6.18,4-2.39,1.76-4.74,3.47-7.84,3.7a3.42,3.42,0,0,0-1.35.63c-.94.57-1.82,1.23-2.77,1.76a62.07,62.07,0,0,1-12.35,5.05c-4.68,1.39-9.24,3.16-13.89,4.67a22,22,0,0,1-3.82.58,11.49,11.49,0,0,0-3.18.46,4.13,4.13,0,0,1-3.13.4c-1.71-.51-2.88.26-3.64,1.85a6.71,6.71,0,0,1-2.11,2.88c-3.44,2.1-7,3.95-10.57,5.89a.79.79,0,0,1-.24.07c-3.56.62-6.84,2.08-10.19,3.34a6.59,6.59,0,0,1-2.81.17c-.94-.08-1.37.2-1.23,1.15a1.49,1.49,0,0,0,1.7,1.36,15.11,15.11,0,0,0,2.84-.58c2.12-.57,4.21-1.26,6.34-1.78,3.63-.89,7.38-1.34,10.86-2.84a10,10,0,0,1,1.44-.48c4.08-1.05,8.16-2.09,12.24-3.15,2.53-.66,5.06-1.32,7.57-2,3.26-1,6.92-.66,9.7-3.15a4.72,4.72,0,0,1,1.51-.64c1.57-.59,3.21-1.06,4.72-1.78,3.72-1.78,7.36-3.71,11.08-5.5,2.05-1,4.19-1.78,6.27-2.7a6.39,6.39,0,0,0,3.31-2.41c.74-1.26,1.59-2.44,2.37-3.67,1.2-1.88,2.4-3.76,3.54-5.67A3.55,3.55,0,0,0,442.33,363.24Zm-429-176.75-.45.11c-.54,2.26-1.3,4.48-.93,6.88a2.71,2.71,0,0,0,.22.59c.9,2.19,1.87,4.36,2.7,6.58,1.18,3.16,2.2,6.37,3.42,9.52,1.71,4.4,3.55,8.74,5.29,13.13.46,1.16.69,2.42,1.12,3.6,1.48,4.12,4,7.83,4.9,12.17a3.23,3.23,0,0,0,.42.76c.66,1.22,1.39,2.41,2,3.66,1.52,3.26,2.6,6.7,4.49,9.82,2.12,3.49,3.81,7.23,5.77,10.82,1.21,2.21,2.54,4.36,3.85,6.51,1.75,2.89,3.5,5.77,5.31,8.62,1.17,1.84,2.44,3.62,3.7,5.4a3.09,3.09,0,0,0,.86.74c.55.36,1.13.22,1.11-.43-.05-1.81,1.07-2.94,2.09-4.18.72-.87.92-2,0-2.73a14.57,14.57,0,0,1-3.39-4c-1.78-2.7-3.65-5.34-5.41-8-.59-.91-.9-2-1.45-2.93-1.57-2.67-3.27-5.27-4.78-8s-2.81-5.44-4.19-8.18c-1.69-3.34-3.39-6.68-5-10-1.43-2.9-2.82-5.81-4.17-8.75-1.47-3.2-2.86-6.44-4.3-9.65-1.33-3-2.53-6-4.08-8.84a43.48,43.48,0,0,1-3.19-8.89,19.17,19.17,0,0,0-2-4.89,12.33,12.33,0,0,1-2.15-5.31C15,189.16,14,187.84,13.37,186.49ZM20.1,315.62l-.43.18a7.77,7.77,0,0,0,.23,1.7c1.28,3.48,2.58,7,3.94,10.4a18.63,18.63,0,0,0,1.71,3.35,26.3,26.3,0,0,0,2.14,2.48,2,2,0,0,1,.36,2.52c-.52.92.43,2.37,1.25,2,1.34-.59,2,.16,2.66,1,1.84,2.45,3.33,5.18,5.66,7.24a.42.42,0,0,1,.14.21c.5,2.55,2.54,4,4.2,5.65.35.36.64.79,1,1.18q2.52,3.09,5,6.17c1.09,1.33,2.23,2.63,3.3,4,.59.74,1,1.58,1.62,2.33a8.64,8.64,0,0,0,1.34,1.43A28.93,28.93,0,0,1,57.36,370a75.82,75.82,0,0,0,8.21,8.36,35.06,35.06,0,0,1,2.72,3q3.4,3.48,6.87,6.88a2.33,2.33,0,0,0,1.54.78c.38,0,.93-.81,1-1.28a38.23,38.23,0,0,0-.05-5.79c-.06-.64-.82-1.29-1.4-1.77s-1.61-.79-2.25-1.37c-2-1.84-4-3.71-5.95-5.69-5.21-5.4-10.43-10.8-15.52-16.31-3.58-3.87-7-7.89-10.43-11.88-1.49-1.72-2.9-3.51-4.27-5.33-2.11-2.79-4-5.73-6.25-8.42a82.93,82.93,0,0,1-8.33-11.58A32.91,32.91,0,0,0,20.1,315.62Zm10,24.45-.39.23a8,8,0,0,0,.32,1.12c.95,2.12,1.81,4.28,2.9,6.33,1.24,2.34,2.89,4.47,4,6.86,2.16,4.61,5.3,8.58,8,12.81,1.1,1.69,2.37,3.26,3.52,4.92,1.6,2.31,3.13,4.67,4.73,7a3.86,3.86,0,0,0,1.27,1c.62.36,1.29.62,1.94.92a2,2,0,0,1,1.29,2.32,3.91,3.91,0,0,0,.61,2c.68,1.29,1.56,2.47,2.2,3.77,1.08,2.19,1.87,4.55,4.43,5.59a6.62,6.62,0,0,1,1.87,1.38c.57.53,1.06,1.12,2,.72,1.32-.58,1.92-.46,2.51.83a6.48,6.48,0,0,0,2.54,2.87,2.05,2.05,0,0,1,.79,1.62c-.12,1.09,1,2.85,2,2.59s1.59.41,2.19,1c1.49,1.59,3,3.18,4.53,4.73a1,1,0,0,0,.89.16c.15,0,.27-.52.22-.76a4.23,4.23,0,0,0-.45-1c-.5-1-1-2-1.49-3-.39-.84-.74-1.69-1.09-2.55-1.12-2.72-2.36-5.39-3.32-8.17a8.79,8.79,0,0,0-3.65-4.66c-1-.63-1.85-1.37-2.75-2.09-.49-.39-.94-.84-1.42-1.25-.9-.76-1.86-1.46-2.69-2.29-1.78-1.79-3.48-3.65-5.24-5.47-3.58-3.7-7.2-7.36-10.75-11.08-1.39-1.46-2.67-3-4-4.59-1.7-2.07-3.38-4.16-5-6.3-.94-1.24-1.7-2.61-2.59-3.89q-3.92-5.59-7.89-11.15C31.59,341.71,30.82,340.91,30.11,340.06Zm329.13,99.61a2.3,2.3,0,0,0,.32,0c4-1.27,8.54-.73,12.24-3.25.1-.07.25-.07.35-.13,1.13-.71,2.27-1.4,3.36-2.17.29-.21.37-.7.54-1.06-.33-.15-.66-.44-1-.43-1.17,0-2.46.5-3.48.15-2.38-.83-4.25,0-6.33,1-1.24.56-2.82.42-4.25.5-2.1.11-4.2.17-6.3.17-2.43,0-4.86-.12-7.29-.14-.57,0-1.32,0-1.68.27-1.61,1.47-3.16,3-4.63,4.65-.59.65-.28,1.37.65,1.4a16.88,16.88,0,0,0,2.62-.3c1.16-.15,2.31-.33,3.48-.43,1.92-.17,3.86-.25,5.78-.46,1.74-.19,3.49-.82,5.17.23A1.16,1.16,0,0,0,359.24,439.68ZM142.6,456.92l.35-.38c-.27-.38-.45-.91-.82-1.1-1.79-.95-3.64-1.78-5.44-2.71A4.54,4.54,0,0,1,135,451.5a6.62,6.62,0,0,1-.61-2c.58.18,1.17.34,1.74.54s1.19.46,1.78.7l.12-.3c-1.14-.71-2.24-1.52-3.43-2.11A67.87,67.87,0,0,1,127,443.9a48.55,48.55,0,0,0-6.25-3.06,8.33,8.33,0,0,1-1-.54c-.78-.52-1.52-1.12-2.33-1.57a32.66,32.66,0,0,1-4.35-2.35c-2.6-2.06-5.85-3.08-8.15-5.68-1.4-1.58-3.49-2.55-5.31-3.73a12.06,12.06,0,0,0-1.84-.82l-.25.45A302.45,302.45,0,0,0,142.6,456.92Zm-.77-4,.14-.49c-.37-.79-1-.53-1.7-.32l-.1.39Z"/><path d="M168.79,51a3,3,0,0,1-4.36.73A6.25,6.25,0,0,0,162.3,51c-.69-.17-1.42-.17-2.12-.32-1.67-.35-3.15-.28-4.34,1.22-2.21,2.79-5.51,3.56-8.7,4.39-1.92.5-3.93.63-5.34,2.3a2.65,2.65,0,0,1-.86.52c-3.58,1.79-7.25,3.41-10.7,5.42A68.71,68.71,0,0,0,122.6,70c-1.4,1.1-1.4,2.19-.35,3.65A7,7,0,0,0,123.37,75c2.79,2.29,5.58,4.59,8.43,6.8,2.22,1.72,4.12,3.5,3.48,6.73a17.5,17.5,0,0,0-.13,3.67c0,.36.23.93.48,1a1.24,1.24,0,0,0,1.08-.4c.62-.79,1.13-1.67,1.67-2.52.86-1.34,1.69-2.7,2.57-4,.5-.75.84-1.46-.26-1.95-3.36-1.49-5.53-4.24-7.48-7.16A65.37,65.37,0,0,1,130,71.43a8.47,8.47,0,0,1-.77-2.26,1.24,1.24,0,0,1,.37-1.08,1.15,1.15,0,0,1,1.08.32c1.21,1.7,2.35,3.46,3.5,5.2.5.76.94,1.56,1.47,2.29s1.11,1.37,1.67,2c1.42,1.72,2.77,3.49,4.3,5.11a2.43,2.43,0,0,0,2,.58,64.31,64.31,0,0,0,6.42-2.3,3.89,3.89,0,0,0,2.44-3.05c.45-2.82,2.28-4.73,4.12-6.66a17.65,17.65,0,0,0,1.46-1.87c.25-.34.37-.78.64-1.08,1.59-1.78,3.21-3.54,4.82-5.3.85-.93,1.74-1.83,2.53-2.81,1.18-1.46,2.56-1.69,3.51-.13,1.68,2.75,4.1,4.65,6.51,6.64,1.66,1.38,2.07,3.41,2.53,5.4.74,3.24.8,3.26,3.78,1.94,2.35-1,3.4-.73,5.06,1.24a9.7,9.7,0,0,1,2.16,5.4,24.43,24.43,0,0,1-.88,10.14,2,2,0,0,0,.77,2.45,27.21,27.21,0,0,1,2.35,1.69,36.11,36.11,0,0,1,2.8,2.86c.78.88,1.42,1.88,2.22,2.75,1.84,2,1.6,3.93-.69,5.34-1.87,1.15-3.59,2.65-5.6,3.41a58.48,58.48,0,0,1-8.64,2.25c-.63.14-1.4-.46-2.13-.61a6.15,6.15,0,0,0-2.63-.33,16.16,16.16,0,0,1-8.14.07c-.21,0-.44-.17-.62-.11a12.8,12.8,0,0,0-1.28.56c.23.37.36.9.7,1.08,1.81,1,3.66,1.92,5.5,2.88a7.77,7.77,0,0,1,1.2.7,2.08,2.08,0,0,1,.52,3.1,16.77,16.77,0,0,1-7.57,6.24,15.23,15.23,0,0,1-8.05,1.59,2,2,0,0,0-.75.08,23.71,23.71,0,0,1-7.86,1,3.19,3.19,0,0,0-2.18,1.45,12.16,12.16,0,0,1-5.94,4.73,47.84,47.84,0,0,1-5.52,2.2c-2.63.68-5.32,1.35-8.07.28-1.37-.54-2.19-.09-2.36,1.36-.42,3.72-2.44,6.61-4.7,9.37a10.66,10.66,0,0,1-2.52,2.08c-2.62,1.69-5.21,3.47-8,4.9-2.49,1.28-4.87,2.91-7.78,3.21a3,3,0,0,0-2.62,2.24c-.78,2.23-1.69,4.41-2.49,6.64a11.06,11.06,0,0,0-.39,2c-.29,1.74-.55,3.49-.85,5.24a1,1,0,0,1-.37.63c-1.72.94-2,2.7-2.6,4.33-.18.52-.29,1.06-.52,1.56-.52,1.16-1.52,1.38-2.25.37a20,20,0,0,1-3.49-6.24,50.9,50.9,0,0,0-3-6.92c-.09-.19-.27-.33-.36-.52a6.28,6.28,0,0,0-4.43-3.93c-.66-.16-1.21-.87-1.77-1.37-.41-.36-.72-.84-1.14-1.18a2.05,2.05,0,0,0-2.43-.51A2.18,2.18,0,0,0,74,162.42c.11.74.48,1.44.64,2.17a3.36,3.36,0,0,1-.1,1c-.3-.1-.71-.11-.87-.31a3.13,3.13,0,0,0-3.57-1.11c-1.54.35-2.93-.51-4.2-1.42a9.1,9.1,0,0,0-2.48-1.47,3.56,3.56,0,0,0-2.28.2c-1,.42-.85,1.19-.33,2.07,1.32,2.24,2.53,4.54,3.74,6.84,1.38,2.6,2.7,5.22,4.07,7.82,1.1,2.09,2.14,4.22,3.39,6.22,1.61,2.56,3.38,5,5.12,7.48.6.85.71,1.9,0,2.24-1,.5-1.46-.22-1.91-.92a29.45,29.45,0,0,0-1.79-2.75c-.28-.35-.92-.4-1.4-.59a4,4,0,0,0-.37,1.44c.45,3-.89,5.52-2,8.13a19.21,19.21,0,0,0-.86,3.11c-.23,1.07-.33,2.16-.57,3.23-.29,1.23-.18,2.32,1,3,1.48.83,2.5,2.36,4.27,2.79a1.5,1.5,0,0,1,.92,1.07c.09,2.25,1.49,3.83,2.89,5.21,2.65,2.61,4,6,6.09,9,.37.53.26,1.39.38,2.09-.69-.29-1.64-.38-2-.89-1.91-2.6-4.27-4.92-5.24-8.16A5.28,5.28,0,0,0,75,217.71c-.82-.74-1.62-.38-1.84.69-.28,1.32-.52,2.65-.77,4a2.08,2.08,0,0,0-.05.88c.49,1.78.7,3.74,1.59,5.29,1.58,2.74,6.78,6.13,10.53,3.66a2.78,2.78,0,0,1,2-.13,4.85,4.85,0,0,0,3.45-.19c1.47-.65,3-1.26,4.47-1.78a4,4,0,0,1,1.52.14,4.69,4.69,0,0,1-.44,1.36,13.87,13.87,0,0,1-9.84,5.8,12.48,12.48,0,0,0-2.56.67,4.49,4.49,0,0,1-3.45-.15,32.81,32.81,0,0,0-3.44-1.27,10.6,10.6,0,0,1-3.51-2.14c-2.77-2.19-4-5.13-4.79-8.39a6.09,6.09,0,0,1-.25-2.37c.68-3.77,1.13-7.61,3.3-10.94a5.28,5.28,0,0,0,.43-1.25c-.44-.06-.87-.14-1.31-.16-1.14-.05-2.29,0-3.41-.13a2.67,2.67,0,0,1-2.57-3.16c.29-3,.7-6,1.11-9.05a6.25,6.25,0,0,1,.62-1.65c.92-2,1.89-4,2.8-6.08a1.76,1.76,0,0,0-1.88-2.63,20.81,20.81,0,0,0-3.83,1.24c-2.29.86-4.52,1.88-6.85,2.6A21.88,21.88,0,0,1,52,193a7.61,7.61,0,0,0-1.12.16,5.37,5.37,0,0,1-5.56-1.53c-1-1-2.36-1.91-2.85-3.15-1-2.59-2-5.33-1.52-8.23a41.32,41.32,0,0,1,4-12.37,8.17,8.17,0,0,1,1.55-2.14c3.11-3,6.21-6,10.51-7.24a19.83,19.83,0,0,1,2.12-.3c4.3-.74,7.77,1.19,11.13,3.46a2.5,2.5,0,0,0,.41.3c.32.13.79.4,1,.28a1.41,1.41,0,0,0,.37-1c0-1.22-.08-2.45.05-3.65a2.44,2.44,0,0,1,2.58-2.45c2.75-.15,5.3.17,6.94,2.9a5.12,5.12,0,0,0,2.21,1.79,10.72,10.72,0,0,1,5.53,6.1c.86,2.19,1.43,4.49,2.13,6.74a1,1,0,0,0,.12.36c.34.38.71.74,1.07,1.11.26-.43.69-.85.74-1.31a23.7,23.7,0,0,0,.26-4.8,9.77,9.77,0,0,1,1.59-6,12.93,12.93,0,0,0,1.17-3.28,6.22,6.22,0,0,1,3.08-3.84,8.24,8.24,0,0,1,1.73-.77,50.85,50.85,0,0,0,11.72-5.89,62.76,62.76,0,0,0,6.11-4.47,8.24,8.24,0,0,0,1.86-2.78c.9-1.86,1.59-3.81,2.49-5.67,1-2.09,2.06-2.57,4.38-2.35a27.42,27.42,0,0,0,4.55.26,25.69,25.69,0,0,0,4.15-.91c.32-.08.61-.34.94-.38,2.83-.34,4.91-2.15,7.13-3.65a8.24,8.24,0,0,0,2.15-2.25c1.59-2.4,2.47-2.7,5.13-1.71a4.19,4.19,0,0,0,2.2.09c1.07-.22,2.07-.78,3.14-1a24.64,24.64,0,0,1,3.61-.26c.5,0,1.08.28,1.5.12a43.5,43.5,0,0,0,7.15-3c1.93-1.18,1.43-2.6-.7-3.54a24.43,24.43,0,0,0-12-1.89,7.11,7.11,0,0,1-3.16-.68,1.52,1.52,0,0,1-.64-2.44,5.41,5.41,0,0,1,4.54-2.33c.35,0,.74.54,1.12.82s.63.45.95.68A3.53,3.53,0,0,0,160,110c.32-1.39,1-2,2.3-1.61a11.8,11.8,0,0,0,5.64-.07,4.19,4.19,0,0,1,1.75-.19c2.69.79,5.26-.16,7.88-.41a4.43,4.43,0,0,1,1.75.07c3.72,1.24,7-.15,10.2-1.71.8-.38,1.56-.83,2.37-1.19,1.28-.57,1.59-1.52.71-2.61A23.83,23.83,0,0,0,188,97.9c-3-2.15-4.55-5.21-3.38-9.31a36,36,0,0,0,1.14-7.33c.08-1.16,0-2.78-1.56-3.15s-2.86.44-4,1.51c-.24.23-.41.54-.63.79a2.21,2.21,0,0,1-2.75.61,1.89,1.89,0,0,1-1.29-2.22,11.91,11.91,0,0,0-1.32-7.72,9.55,9.55,0,0,0-2.19-2.65c-1.13-1.06-2.45-1.92-3.56-3s-2.08-1.29-2.86.09c-2.44,4.29-6,7.74-8.76,11.75a13.46,13.46,0,0,0-1.61,3.81,5,5,0,0,1-2.69,3.34,20.47,20.47,0,0,1-4.28,1.87c-3.06.65-5,2.61-6.46,5.09a18.25,18.25,0,0,1-6.81,6.8,2.67,2.67,0,0,1-2.19.29,2.83,2.83,0,0,1-.93-2.12c0-2.74.16-5.48.28-8.22a4.18,4.18,0,0,0-2.46-4.08,39.82,39.82,0,0,1-10.24-8.69,5.68,5.68,0,0,1,1.18-8.16c2.46-1.71,4.87-3.5,7.39-5.1A67.63,67.63,0,0,1,136,57.59c3.24-1.49,6.65-2.6,10-3.8,1.06-.38,2.36-.28,3.29-.83A22,22,0,0,0,152.77,50c1.23-1.13,2.31-2.44,3.63-3.44a2.05,2.05,0,0,1,3.21.51,2.78,2.78,0,0,0,2.84,1.07,4.32,4.32,0,0,1,2.92,1.13c.88.82,1.65,1.51,2.91,1.42C168.41,50.71,168.56,50.86,168.79,51ZM44.23,184.33c0,2.28,1.26,4.11,4.29,5.27a10.46,10.46,0,0,0,1.64.66,5.2,5.2,0,0,0,2.41.16,47.77,47.77,0,0,0,7.18-2.72,21.78,21.78,0,0,1,7.47-2.54c1.81-.21,2.14-1.42,1.13-2.93-1.73-2.59-3.61-5.1-5.1-7.83a27,27,0,0,1-3.64-11.11A1.71,1.71,0,0,0,56.81,162c-1.64,1.11-3.21,2.34-4.92,3.32a13.34,13.34,0,0,0-5.4,6.51A25.74,25.74,0,0,0,44.23,184.33Z"/><path d="M262.68,292.25c-.73-1.24-1.54-2.45-2.17-3.74-1.77-3.64-3.47-7.32-5.2-11a3.16,3.16,0,0,0-.53-1c-1.68-1.55-2.21-3.69-3.17-5.64a65.45,65.45,0,0,0-4.17-6.31,17.26,17.26,0,0,1-1.08-2.38,20,20,0,0,0-1.3-2.85,9.25,9.25,0,0,1-1.48-6.61,22.45,22.45,0,0,0-.42-5.26c-.26-2.36-.75-4.75.87-6.84a38.85,38.85,0,0,1,3-3.28c1-1,2-1.93,3-2.88a2.23,2.23,0,0,0,.49-3,5.86,5.86,0,0,1,0-5.7,30.76,30.76,0,0,1,5.29-8.44c1.5-1.65,2.75-3.53,4.26-5.18q5.43-5.92,11-11.7a6,6,0,0,1,2.25-1.08,2.77,2.77,0,0,0,1.92-2,5.25,5.25,0,0,1,1.48-2.12c2.63-2.49,5.32-4.91,8-7.37a9.92,9.92,0,0,1,1.55-1.49c2.07-1.18,3.22-3.17,4.51-5a2,2,0,0,0,0-1.72c-.81-1.52-1.75-3-2.7-4.42a1.67,1.67,0,0,0-2.24-.58c-1.14.46-2.36,1.09-3.42,0s-.24-2.28.09-3.43c.82-2.87,1.6-5.74,2.42-8.61,1.12-3.9,2.82-7.54,6.4-9.71a18.63,18.63,0,0,1,5.94-2c2.84-.57,5.76-.77,8.65-1.16,1.65-.22,2-.81,1-2.16a45.66,45.66,0,0,0-3.1-4.16c-.52-.6-1.43-.86-2.06-1.39s-1.21-1.1-1.13-1.54.91-.93,1.48-1.3a1.81,1.81,0,0,1,1-.1A39.18,39.18,0,0,0,314,137.82a23.8,23.8,0,0,0,4.14-1.55c.33-.15.5-.67.75-1-.4-.16-.83-.51-1.19-.45a17.7,17.7,0,0,0-3.68.89,8.38,8.38,0,0,1-5.71,0,2.58,2.58,0,0,1-1.1-4.27,3.31,3.31,0,0,0,1-2.35,11.4,11.4,0,0,1,.62-2.28c.11-.36.28-.7.36-1.06.73-3.37,1.42-6.75,2.18-10.11.2-.89.76-1,1.35-.28a4.61,4.61,0,0,1,.71,4.76c-.37,1.16-.64,2.34-.95,3.52a6.54,6.54,0,0,1-.19,1c-.83,1.88-1.73,3.73-2.51,5.63a2.47,2.47,0,0,0-.2,1.84,2.08,2.08,0,0,0,1.72.63c1.59-.19,3.15-.6,4.73-.9,1.36-.27,2.73-.55,4.1-.76,2.18-.34,2.94-1.83,1.94-3.76a59.23,59.23,0,0,1-3.84-7.84c-1.21-3.56-1.9-7.3-2.78-11-.15-.64-.37-1.55.57-1.62a1.83,1.83,0,0,1,1.38,1.11c.63,2.94,2.45,5.43,2.92,8.46.27,1.71,1.36,3.32,2.26,4.88a8.37,8.37,0,0,1,.91,6.35,3.08,3.08,0,0,0-.11,1.24,1,1,0,0,0,1.86.58,9.75,9.75,0,0,0,1.68-2.5c1.43-3.25,2.79-3.88,6.16-2.64l.36.13c1.41.46,2,.15,2.49-1.28s1.27-2.18,2.55-2.22c.71,0,1,.22.86,1-.32,1.44-.56,2.9-.9,4.33a3,3,0,0,1-4.75,2c-1.64-.95-3.41-.79-4.19.83-1.25,2.59-3.36,4.27-5.41,6.08a9.5,9.5,0,0,0-1.23,1.28,7.31,7.31,0,0,1-3.59,2.48c-1,.33-1.89,1-2.89,1.28a46.6,46.6,0,0,1-5.35,1.37c-1.44.26-2.94.23-4.41.37-1.18.11-1.49.85-.83,1.84a.81.81,0,0,0,.24.29c2.4,1.24,3.29,3.54,4.27,5.84.61,1.44.13,2.71-1.41,2.72-5.1,0-9.92,1.38-14.74,2.83-2.14.64-3,2.46-4.15,4.06a4.78,4.78,0,0,0-.6,1.26q-1.59,4.72-3.14,9.45a1.32,1.32,0,0,0,.87,1.83c2.37.82,3.61,2.69,4.53,4.83,1.11,2.58,3.53,3.2,6,3.09a3,3,0,0,0,1.69-1c2.23-2.3,4.37-4.69,6.61-7a49.31,49.31,0,0,1,4.51-4.2,9.8,9.8,0,0,1,2.78-1.11,9,9,0,0,0,1.78-.6c1.73-1.11,3.37-2.36,5.13-3.44a9.07,9.07,0,0,1,3-1.21,38.62,38.62,0,0,1,6.26-.76,36.31,36.31,0,0,1,5.61.57c1.15.16,1.74,1,2.3,2a16.24,16.24,0,0,0,2.06,2.81c1.81,1.95,3.77,3.76,5.53,5.75a12.36,12.36,0,0,1,2.07,3.3,4.45,4.45,0,0,1-.62,4.88,6.93,6.93,0,0,0-.76,2.23,9.81,9.81,0,0,0,2.34-.24c2.2-.77,2.83-2.66,3-4.73.07-1.13-.22-2.27-.23-3.41a22.78,22.78,0,0,1,.23-4,2.51,2.51,0,0,0-1.06-2.6,15.75,15.75,0,0,1-2.82-3.15,2.31,2.31,0,0,1,.73-3.14c.91-.57,2-.31,2.91.74,1.13,1.26,2.27,2.5,3.36,3.79a7.18,7.18,0,0,1,1,1.72c.47,1.08.85,2.2,1.28,3.29.59,1.5.28,2.22-1.27,2.59-.94.23-1,.8-1,1.59,0,2.57.09,5.14-1,7.6a4.45,4.45,0,0,1-2.77,2.58c-1.71.59-3.4,1.23-5.13,1.75a11.89,11.89,0,0,1-3,.53,2.14,2.14,0,0,1-1.89-3.38c1.09-1.8,2.2-3.59,3.34-5.36a2.83,2.83,0,0,0-.58-4.13c-1.9-1.66-3.89-3.24-5.65-5a21,21,0,0,1-2.81-4,2.34,2.34,0,0,0-2.31-1.43c-2.06.16-4.13.29-6.18.56a13.36,13.36,0,0,0-7.62,3.69,7.81,7.81,0,0,1-4.28,2.3,3.36,3.36,0,0,0-1.68.83c-1.79,1.65-3.49,3.41-5.28,5.07-.8.74-1.71,1.36-2.57,2a8,8,0,0,0-1.26,1,1.06,1.06,0,0,0,.58,1.85,11.43,11.43,0,0,0,1.38.17c1.82.3,3.66.56,5.46.94,2.05.44,4.1.92,6.11,1.53,1.24.37,2.38,1.05,3.59,1.52a20.89,20.89,0,0,0,3.24,1,7.71,7.71,0,0,1,3.52,1.84,47.54,47.54,0,0,0,4.63,3c.88.58,1.72,1.22,2.56,1.85a41.9,41.9,0,0,1,4.41,3.37,82.84,82.84,0,0,1,6.05,6.6c1.12,1.36,1.35,1.55,3.05,1.09,3.47-.94,7-1.91,10.59-1.57a22,22,0,0,1,9.54,3.11,5,5,0,0,0,1.64.92c3.22.47,5.95,2.12,8.79,3.49a3.87,3.87,0,0,0,3.38,0c2-.79,4.17-1.17,6.11-2.07a17.07,17.07,0,0,0,4-2.94c.79-.71.51-1.52-.45-2a2.35,2.35,0,0,0-.59-.24c-2.88-.65-5.74-1.39-8.65-1.89s-3.83-1.25-4.56-4.1a50.89,50.89,0,0,0-1.91-6.77,58.39,58.39,0,0,0-3.71-6.89c-.28-.48-1-1.06-1.43-1a2.09,2.09,0,0,0-1.35,1.26c-.76,2.62-1.38,5.28-2,7.94-.11.45,0,.94-.16,1.38a2.15,2.15,0,0,1-2,1.82,4,4,0,0,1-2.11-1c-.38-.31-.48-1-.74-1.44a82.32,82.32,0,0,0-4.41-8.18c-1.57-2.3-1.69-4.79-1.92-7.33a1.24,1.24,0,0,1,.75-1c.31,0,.7.42,1.05.68a.32.32,0,0,1,.09.23c0,2.53,1.27,4.67,2.13,6.94a9.4,9.4,0,0,0,1.17,2.06c.68,1,1.47,1.84,2.16,2.79s1.38.84,1.78-.17c.91-2.31,1.69-4.67,2.64-7a7,7,0,0,1,1.66-2.31,1.72,1.72,0,0,1,2.85.23,36.67,36.67,0,0,1,6.12,11.16,34.35,34.35,0,0,0,1.84,4.14.94.94,0,0,0,.44.44,45.92,45.92,0,0,0,5.14,2.06,33.32,33.32,0,0,1,8.78,4.1c.85.54,1.82.89,2.64,1.45a2.7,2.7,0,0,1,1.17,1.44c.06.3-.73,1-1.24,1.12a4.89,4.89,0,0,0-2.48,2c-1.26,1.68-2.67,3.25-4.08,4.81a3.27,3.27,0,0,1-1.36.62,51.43,51.43,0,0,0-5.85,2,6.62,6.62,0,0,1-6.76-.28,36.9,36.9,0,0,0-7-2.84,39,39,0,0,1-6.35-3.06,8.41,8.41,0,0,0-4.72-1.16,53.88,53.88,0,0,0-7.27.91,5.16,5.16,0,0,0-2.32,1.37c-1.27,1.17-2.58,1.54-4,.58a18.33,18.33,0,0,1-3.17-2.87c-2.74-3-5-6.49-8.43-8.8-1-.65-1.74-1.6-2.68-2.31A54.25,54.25,0,0,0,319,189.77a60.27,60.27,0,0,0-21.45-5,15.28,15.28,0,0,0-3.15.28,2,2,0,0,0-1.29.68c-2,3.08-5.25,4.85-7.78,7.36-2,2-4.28,3.81-6.45,5.68a3.12,3.12,0,0,1-1.37.86c-1.38.19-1.78,1.23-2.49,2.2a49.51,49.51,0,0,1-4.27,4.64c-1.36,1.43-2.78,2.82-4.11,4.28-2.32,2.55-4.69,5.07-6.85,7.76a56.27,56.27,0,0,0-5.13,7.35,6.94,6.94,0,0,0-.61,4.26,7.34,7.34,0,0,1-2.28,7.13,25.71,25.71,0,0,0-4.9,5.41,3.52,3.52,0,0,0-.57,1.86,32,32,0,0,0,.52,5.42,31.65,31.65,0,0,0,1.85,5.88,54.52,54.52,0,0,0,2.85,5.07c2.41,4.25,4.82,8.51,7.19,12.78a21.21,21.21,0,0,1,1,2.56c.38,1,.79,1.94,1.14,2.93.79,2.22,1.59,4.44,2.28,6.68a10.86,10.86,0,0,1,.47,3,27.3,27.3,0,0,1-.32,3.28Z"/><path d="M99.8,419.43a6.72,6.72,0,0,1,2.59-4.77,39.71,39.71,0,0,0,7.86-7.67c2.43-3.19,6-4.89,9.52-6.5a61.36,61.36,0,0,0,6.45-3.23,28.76,28.76,0,0,0,3.65-3.12,32.84,32.84,0,0,0,6.38-7.92,17.07,17.07,0,0,0,2.64-7.67c.29-3.4,2.26-5.84,4.72-8.17s5.39-3,8.57-2.93a10.78,10.78,0,0,0,9-4.37c.89-1.12,1.89-2.16,2.85-3.22a13.82,13.82,0,0,0,3.61-10.21c-.11-2.57-.42-5.13-.5-7.69a11.87,11.87,0,0,1,.5-2.95c.23-1,.63-1.93.79-2.92.54-3.39,2.59-5.8,5.07-7.91a3.66,3.66,0,0,1,1.65-.59,2.43,2.43,0,0,0,2.07-2.06,9.58,9.58,0,0,1,1.45-2.88c1.13-1.66,2.41-3.23,3.58-4.86s2.44-3.63,3.75-5.37,1.3-2.73-.27-3.9c-2.62-2-5.42-3.67-8.08-5.57s-6-3.37-8.29-6.12a10,10,0,0,0-3.49-2.68,19.86,19.86,0,0,1-6-4.55c-3-3.12-6.14-6.15-9.11-9.31-1.84-2-3-4.24-2.36-7.14a4.57,4.57,0,0,0-.43-2.55c-1.42-3.4-4.43-5.19-7.34-7.09a15.37,15.37,0,0,1-6.18-8.07c-.22-.65.47-1.59.68-2.41.12-.48.33-1.08.14-1.46-.91-1.85-2.07-3.58-2.9-5.46a6.65,6.65,0,0,0-5.7-3.84,25.06,25.06,0,0,1-15.68-8c-2-2-4-4-6-6a9.49,9.49,0,0,1-1.11-1.37c-.94-1.38-2-1.53-3.27-.44a12.79,12.79,0,0,1-1.66,1.36,1.44,1.44,0,0,1-1.24,0,1.15,1.15,0,0,1-.15-1.12,37.64,37.64,0,0,1,3.42-4.34,2.42,2.42,0,0,1,2.09-.11c2.28.9,3.67,2.9,5.29,4.61,3.38,3.54,6.75,7.06,11,9.58,2.52,1.47,5.33,1.53,8,2.07a6.63,6.63,0,0,1,4.43,2.38c1.75,2.36,4.22,4.19,5.16,7.13a4.5,4.5,0,0,1,.35,2.19c-.77,3.27.48,5.95,2.58,8.18a20.53,20.53,0,0,0,4.87,3.57,12.36,12.36,0,0,1,6.08,7.28c.52,1.71.59,3.56,1.09,5.28a5.93,5.93,0,0,0,1.55,2.61c2.13,2,4.45,3.75,6.6,5.7,1.69,1.53,3.23,3.18,5.38,4.15.77.35,1.21,1.37,1.92,1.95,2.48,2,5,4.07,7.55,6,2.28,1.66,4.73,3.08,7.08,4.64,2.74,1.82,5.41,3.84,6.37,7.1a9.61,9.61,0,0,1-.61,7,26.64,26.64,0,0,0-1.84,6.16,9.29,9.29,0,0,1-1.77,3.85,28.63,28.63,0,0,0-1.77,3,22.46,22.46,0,0,1-1.33,2.29,28.64,28.64,0,0,1-4.62,5.28,9.31,9.31,0,0,0-2.47,4.3,75.66,75.66,0,0,0-1.82,7.89c-.44,2.17-.57,4.43-1.19,6.54a32.85,32.85,0,0,1-2.49,5.67c-1.93,3.74-5,6.56-8,9.4a9.68,9.68,0,0,1-6.76,2.75,30,30,0,0,0-4.67.33c-3.68.57-6,3-6.73,7a49,49,0,0,1-1,5.34,12.34,12.34,0,0,1-2,3.86c-1.26,1.64-1.33,2.19.47,3.26,2.12,1.27,4.32,2.42,6.45,3.7,2.41,1.44,4.74,3,7.16,4.42,2,1.18,4,2.27,6.1,3.33,5.48,2.81,10.94,5.69,16.5,8.34,4.9,2.33,9.93,4.39,14.89,6.57a3.72,3.72,0,0,1,1.31.73c1.1,1.24,2.55,1.45,4.06,1.79a50.64,50.64,0,0,1,5.12,1.82q3.22,1.11,6.47,2.15c4,1.28,8,2.61,12,3.79,2.9.84,5.87,1.48,8.81,2.18,4,1,8,1.91,12.09,2.8s8.08,1.69,12.12,2.53a.76.76,0,0,0,.25,0c2.68-.41,5.28.24,7.89.65s5.48.87,8.23,1.23c1.45.19,2.92.14,4.37.32,1.71.21,3.39.59,5.1.82a21.38,21.38,0,0,0,2.47,0c.49,0,1.09-.11,1.46.12a8.19,8.19,0,0,1,1.41,1.46,17.65,17.65,0,0,1-1.77.83,4.93,4.93,0,0,1-1.49.25c-1.24,0-2.49.07-3.73,0s-2.33-.31-3.49-.47c-2.12-.3-4.26-.52-6.37-.91a24,24,0,0,0-6.61-.76,36.19,36.19,0,0,1-5.28-.26c-.08,0-.2,0-.25,0-1.55-1.59-3.51-.81-5.32-1s-3.67-.5-5.5-.8c-1-.16-1.91-.37-2.84-.62-4.11-1.09-8.22-2.18-12.31-3.33a16.46,16.46,0,0,1-2.29-1.05,3.74,3.74,0,0,0-1-.41c-6.47-.75-12.54-3-18.69-4.93-2.46-.77-5-1.41-7.41-2.21-1.15-.37-2.23-1-3.36-1.46a34.4,34.4,0,0,1-4.53-1.8c-3.12-1.83-6.85-2-9.92-4a51.62,51.62,0,0,0-7.07-3.33c-.38-.18-.8-.29-1.17-.49l-8.78-4.74c-2.7-1.46-5.42-2.9-8.11-4.38-.78-.42-1.48-1-2.26-1.4-1.2-.67-2.47-1.24-3.65-1.94-1.8-1.07-3.57-2.22-5.34-3.35-2.37-1.52-4.72-3.08-7.1-4.6a1.77,1.77,0,0,0-2.48.46c-1.62,1.76-3.71,3.29-4.74,5.35-1.38,2.77-4,2.86-6.17,4-3.8,2.08-8,3.37-11.39,6.25-.61.52-1.13,1.14-1.72,1.68-1.49,1.35-3,2.72-4.52,4a8.08,8.08,0,0,0-2.87,4.07.42.42,0,0,1,0,.12c-.93,1.37-2.37,2.46-2.44,4.32-.36-.05-.94,0-1-.18C100.56,421.34,100.2,420.38,99.8,419.43Z"/><path d="M196.84,60c-.24,3.15,1,4,3.36,3s4.73-2,7.06-3.09c.48-.22,1.12-.73,1.15-1.14s-.58-1-1-1.22c-1-.57-2.18-.93-3.21-1.49a27.73,27.73,0,0,1-4.38-2.68,3.62,3.62,0,0,1-1.07-2.53c0-1.94.25-3.85-.77-5.68a2.16,2.16,0,0,1,.29-1.74,2.4,2.4,0,0,0,0-2.73,6.49,6.49,0,0,1,.69-8.18,4,4,0,0,1,1.71-1.23,59.37,59.37,0,0,1,7-2,74.71,74.71,0,0,1,7.91-.91c2.48-.2,3.17.49,3.19,3a4,4,0,0,0,1.7,3c2.25,2,4.66,3.93,6.69,6.16a36.44,36.44,0,0,0,7.89,6.28c2.77,1.73,3,3.57.87,6.09a31.92,31.92,0,0,1-7.69,6.34c-1.43.89-2.8,1.89-4.24,2.76a3.77,3.77,0,0,1-1.4.2,7.54,7.54,0,0,1-.14-1.66,1.71,1.71,0,0,1,.64-.91c1.84-1.55,3.72-3,5.54-4.6a23.39,23.39,0,0,0,2.92-2.78c1.11-1.34.83-2.59-.78-3.26a14.38,14.38,0,0,1-5.61-4.22,36.09,36.09,0,0,1-2.76-3.92,2.25,2.25,0,0,0-2.55-1.34,2.29,2.29,0,0,1-1.73-.89c-1.18-1.54-2.14-3.24-3.32-4.77a2.66,2.66,0,0,0-1.76-.9,14.66,14.66,0,0,0-3.52.25c-1.35.25-2.68.67-4,1-.76.22-1.49.58-2.26.76-2.28.55-3.33,2.16-2.59,4.34a7.37,7.37,0,0,1,.39,4.57,1,1,0,0,0,0,.5,13.64,13.64,0,0,1,.44,6.48c-.19,1,.7,1.68,1.66,1.75,2.74.21,4.77,2.08,7.23,2.93a5.24,5.24,0,0,1,1.7,1.3,2.46,2.46,0,0,1-.08,4c-2.18,1.69-4.13,3.75-7,4.39a10.62,10.62,0,0,0-2.72,1.33,7.07,7.07,0,0,1-6.91.25,1.69,1.69,0,0,0-2.42.6,13.23,13.23,0,0,0-1.17,2.23c-.76,1.85-2.1,2.44-4,1.64a4.52,4.52,0,0,1-1.23-.65,90.59,90.59,0,0,1-7.53-6.88c-1.07-1.18-1.47-3.11-1.8-4.77a3.67,3.67,0,0,1,1-2.55,1,1,0,0,1,1.74.71c-.3,2.44,1.11,4,2.56,5.52,1.27,1.36,2.53,2.72,3.83,4a2.47,2.47,0,0,0,2.85.85,2.55,2.55,0,0,0,1.53-2.79,7.76,7.76,0,0,0-3.08-5.32A10.7,10.7,0,0,1,186.05,58c-.27-.36-.22-1-.31-1.47.54-.09,1.15-.38,1.59-.21a7.54,7.54,0,0,1,1.74,1.22c.81.61,1.59,1.25,2.42,1.82.24.17.77.29.9.16a1.16,1.16,0,0,0,.31-1,5.88,5.88,0,0,0-1-2.12,36.14,36.14,0,0,0-4.75-4.55c-2.29-1.68-4-1.79-6-.35a14.08,14.08,0,0,1-7.25,2.35,3.1,3.1,0,0,1-3.08-2.49A1.16,1.16,0,0,1,171.87,50a8.19,8.19,0,0,1,1.48.31c2.3.57,3.45.17,4.82-1.7,1.55-2.11,3.38-2.52,5.69-1.3a3.44,3.44,0,0,0,1.43.43,9.27,9.27,0,0,1,7.83,4.14,23.27,23.27,0,0,0,1.68,2.22C196.44,56,196.6,58.28,196.84,60Z"/><path d="M226.91,76.58a9.38,9.38,0,0,1,1.83,5c.15,1.87,1,2.69,2.8,2.14a16.79,16.79,0,0,0,4.53-2.15A22.82,22.82,0,0,0,241.85,76a40.1,40.1,0,0,1,4.75-5.25,4.4,4.4,0,0,1,2.32-1.14c2.5-.36,5-.43,7.55-.8,3.2-.47,6.39-1.08,9.57-1.68,1.45-.27,2.88-.63,4.31-1,3.47-.89,6.94-1.79,10.39-2.75A13.24,13.24,0,0,0,283,62.29c1.16-.58,2.33-1.15,3.46-1.79a10.92,10.92,0,0,0,1.82-1.31,28,28,0,0,0,2.15-2.12,6.4,6.4,0,0,0,1-1.43c.55-1.09,1-2.21,1.53-3.32s1-2.32,1.48-3.47a10.46,10.46,0,0,1,.74-1.46c1.12-1.73,2.29-3.43,3.38-5.18a4,4,0,0,0-.49-5.34c-1.57-1.66-3.28-3.18-4.88-4.82a4.76,4.76,0,0,1-.65-1.45c.56,0,1.32-.15,1.64.14a13.26,13.26,0,0,1,2.5,3,10.94,10.94,0,0,0,3.89,3.45c2,1.33,2.67,3.11,1.59,5.28q-2.31,4.64-4.57,9.3a10.81,10.81,0,0,0-.34,1.34,12.23,12.23,0,0,1-1,2.71c-1.25,2-2.64,3.9-4,5.83a1.55,1.55,0,0,1-.51.55c-2.68,1.23-4.61,3.68-7.59,4.46-4.52,1.18-9,2.63-13.48,3.78-3.88,1-7.81,1.79-11.74,2.52-2.73.5-5.51.74-8.28,1.05a5,5,0,0,0-3.52,2.3,50.2,50.2,0,0,1-7.32,8,14.09,14.09,0,0,1-8.51,3.22c-3,.09-4.28-1-4.37-4a29.21,29.21,0,0,0-.55-3.73C226.25,78.68,225.88,77.66,226.91,76.58Z"/><path d="M400.39,99.06c1.65-.25,3.31-.41,4.93-.8a5.12,5.12,0,0,0,2-1.26c1.32-1.18,1-2.44-.65-2.89-2.29-.6-4.64-.94-6.91-1.61-3.18-.94-6.53-1.46-9.28-3.56-.49-.38-1.29-.34-1.9-.59-1.14-.47-2.26-1-3.38-1.54-.82-.38-1.61-.81-2.43-1.2a7.61,7.61,0,0,1-1.39-.58c-2.61-2-5.57-2-8.61-1.6-2.63.3-5.26.61-7.89.93a7.29,7.29,0,0,0-1.73.34c-3.15,1.21-6.31,2.4-9.39,3.75a11.36,11.36,0,0,0-2.94,2.15c-1.34,1.23-2.4,2.81-3.87,3.82a68.12,68.12,0,0,1-7.34,4.15,11.1,11.1,0,0,1-2.48.46c-1.78.42-2.73,1.44-2.33,3.17.75,3.21.11,6.58,1.31,9.71.15.39.23.81.37,1.21.35,1,1,1.2,1.88.7a8.48,8.48,0,0,1,1.73-.74.71.71,0,0,1,.75,1.19,17.86,17.86,0,0,1-1.74,1.64,15.59,15.59,0,0,1-2.75,2.21,3,3,0,0,1-2.33,0c-.42-.2-.56-1.18-.66-1.84a26.18,26.18,0,0,1-.29-3.52c0-1.28.12-2.56.17-3.85a3.23,3.23,0,0,0-.09-1.09c-.34-1-.68-2.07-1.11-3.07-.88-2-.3-4,.34-5.92a2.64,2.64,0,0,1,2.16-1.75c4.12-.89,7.54-3.32,11.2-5.21a2.5,2.5,0,0,0,1.13-1.16c1.05-2.73,3.49-3.73,5.87-4.8,2.11-.95,4.21-1.9,6.35-2.77a16,16,0,0,1,2.42-.57,7.75,7.75,0,0,0,1.45-.37,17.26,17.26,0,0,1,10.46-1.53,18.36,18.36,0,0,0,4.16.17c2.46-.12,4.31,1.34,6.34,2.32s4,2.14,6,3.22a2.17,2.17,0,0,0,.34.16c5.05,1.67,9.86,4.13,15.21,4.88,2.61.37,4.22,2.19,5.67,4.14a2.67,2.67,0,0,1-.68,3.65c-2.6,1.87-5.14,4.1-8.78,3.44-1-.18-2.08-.29-2.64.91a3.46,3.46,0,0,0,.79,3.4,2.48,2.48,0,0,0,3.1.63c.8-.46,1.45-1.15,2.23-1.65a27.46,27.46,0,0,1,2.92-1.69c.24-.12.67.15,1,.24-.1.34-.1.79-.32,1a9.94,9.94,0,0,1-2.23,1.84,32.79,32.79,0,0,1-5.11,2.17c-2.34.73-4-.24-4.85-2.52a42.68,42.68,0,0,1-1.77-4.45c-.65-2.51.5-3.78,3.1-3.75h2.41Z"/><path d="M105.33,419.34a29.81,29.81,0,0,1,3.32,1.88c2.2,1.63,4.22,3.52,6.47,5.07,4.59,3.15,9.29,6.12,13.92,9.21,1.36.91,2.64,2,4,2.92a3.36,3.36,0,0,0,1.28.79c2.12.28,3.65,1.69,5.41,2.66l6.61,3.69c1.47.81,2.92,1.66,4.42,2.39,1.28.62,2.65,1.07,3.95,1.66,1.64.75,3.2,1.68,4.87,2.35,2.76,1.12,5.57,2.11,8.38,3.13.75.27,1.55.42,2.32.64a5.49,5.49,0,0,1,2.14.72c2.29,2.12,5.2,2.08,8,2.64a10.09,10.09,0,0,1,2.34,1.33,6.61,6.61,0,0,0,1.64.66c1.47.32,3,.51,4.41.89a1.41,1.41,0,0,1,.74,1.13,1.27,1.27,0,0,0,1.08,1.46c3.51,1.07,7,2.16,10.53,3.19,1.73.51,3.51.85,5.22,1.4.55.18,1,.79,1.44,1.2a5.92,5.92,0,0,1-1.81,1.07,5.38,5.38,0,0,1-2.23-.34q-6.46-1.82-12.89-3.7a7.41,7.41,0,0,1-2.57-1c-2-1.6-4.42-2-6.71-2.84-.4-.14-.78-.31-1.17-.47-5.52-2.26-11-4.8-16.6-6.7a119.58,119.58,0,0,1-13.49-5.74c-1.62-.78-3.35-1.36-4.9-2.26-3.64-2.12-7.19-4.37-10.78-6.58a6,6,0,0,0-1.25-.83c-3.86-1.11-7-3.41-10.13-5.8a13.86,13.86,0,0,0-2.36-1.47C115.46,431,111.06,427,106.66,423a4.36,4.36,0,0,1-1.65-3.23Z"/><path d="M296.77,417.19c-2.69-.23-5.39-.34-8.06-.7-4.07-.55-8.14-1.16-12.17-2-3.54-.7-7-1.71-10.53-2.54-1.52-.36-3.09-.5-4.58-.94a31,31,0,0,1-3.17-1.42,4.26,4.26,0,0,0-1.31-.24,7.38,7.38,0,0,1-2.48-.16c-2.71-1.32-5.68-1.54-8.53-2.29-3.92-1-7.8-2.2-11.68-3.33a46.12,46.12,0,0,1-7.1-2.23c-4.46-2.14-9.37-2.75-14-4.39-5.52-2-11.15-3.59-16.67-5.55-3.49-1.24-6.85-2.83-10.28-4.25-.86-.35-1.75-.6-2.61-1-2.77-1.13-5.54-2.26-8.28-3.46-1.76-.77-3.74-1.36-5.14-2.58-1.73-1.5-3.87-1.91-5.72-3-1.52-.91-3.14-1.66-4.63-2.61-.6-.39-1.49-1.47-1.38-1.65.63-.93,1.52-.27,2.21.09,2.57,1.34,5.1,2.77,7.66,4.14.48.26,1,.38,1.52.6,1.33.6,2.62,1.29,4,1.81,3.06,1.16,5.61,3.48,9,3.86a7.82,7.82,0,0,1,2.22.86c1.3.59,2.57,1.23,3.86,1.83s2.66,1.23,4,1.8a20.69,20.69,0,0,0,2.15.72c2,.6,4.06,1.17,6.08,1.79a10.7,10.7,0,0,1,1.59.76,19.43,19.43,0,0,0,3,1.51c3.8,1.13,7.63,2.12,11.44,3.19,1.42.4,2.81.9,4.22,1.34,2.93.91,5.87,1.79,8.8,2.72,1.37.43,2.7,1,4.08,1.37,3,.82,6,1.53,8.92,2.36s5.72,1.73,8.59,2.53c1.3.36,2.76.29,4,.84,4,1.84,8.34,2.19,12.45,3.53A39.33,39.33,0,0,0,279.77,413c2.73,0,5.44,1,8.17,1.48a2.37,2.37,0,0,0,1.35,0,4.61,4.61,0,0,1,3.2-.14c1.32.28,2.67.42,4,.61a3.43,3.43,0,0,1,1.12.17,9,9,0,0,1,1.28,1,12.15,12.15,0,0,1-1.26,1,2.26,2.26,0,0,1-.87.13Z"/><path d="M360.89,111.58a36.13,36.13,0,0,1-.3-4.14,5,5,0,0,1,.77-2.47,23.36,23.36,0,0,1,7.65-6.9c1.08-.66,2.1-1.42,3.2-2a10.18,10.18,0,0,1,2.43-1,1.58,1.58,0,0,1,2.08,1c.37,1,.52,2.14-.46,2.63-3,1.48-3.83,3.67-3.36,6.91.21,1.41-.71,3-1.12,4.49-.06.2-.22.39-.23.59-.05,1-.41,2.11,0,2.86.53,1,1.76.53,2.78.44,1.88-.18,3.78-.25,5.67-.24.51,0,1,.44,1.52.69-.3.51-.48,1.26-.93,1.49-1.9,1-3.91,1.76-5.83,2.71a20.69,20.69,0,0,0-2.86,1.8c-.85.61-1.64,1.32-2.44,2-.23.19-.52.36-.63.6-1.54,3.45-5,4.35-7.95,5.83-1.12.56-2.64.4-4,.42-.39,0-.79-.51-1.19-.78.32-.35.57-.86,1-1,1.32-.55,2.78-.82,4-1.49a30.57,30.57,0,0,0,4.45-3c1.64-1.3,3.11-2.82,4.74-4.14,1.19-1,1.24-1.23-.08-2-1.84-1.07-2.44-2.11-1.89-4.2.69-2.65,1.63-5.23,2.46-7.85a3.19,3.19,0,0,0,.27-1.1,1.75,1.75,0,0,0-.42-1.2,1.92,1.92,0,0,0-1.29,0,1.72,1.72,0,0,0-.71.51c-.27.26-.49.59-.77.84-2.63,2.37-3.46,5-3,8.75A10.61,10.61,0,0,1,359.4,123a10.83,10.83,0,0,1-3.58,1.8,7.51,7.51,0,0,1-8.49-5.94c-.14-.73-.63-1.41-.71-2.15A5.55,5.55,0,0,1,347,115a6.24,6.24,0,0,1,1.09,1.16c1,1.84,1.92,3.74,2.91,5.58a2.13,2.13,0,0,0,2.58,1.06c4-.77,6.37-4.27,7.12-8a16.27,16.27,0,0,0,0-3.16Z"/><path d="M367.93,41.79a9.19,9.19,0,0,1-1.6-.56c-1.49-.88-2.93-1.84-4.41-2.72a40.06,40.06,0,0,0-4.16-2.3c-4.35-1.91-8.75-3.7-13.1-5.61-1.45-.64-2.81-1.5-4.21-2.26-.22-.12-.46-.35-.67-.33-2.76.27-4.5-1.89-6.75-2.8-1.95-.79-3.9-1.58-5.81-2.45a42.09,42.09,0,0,1-3.79-2c-.69-.4-.68-1-.14-1.59a3.24,3.24,0,0,1,4.08-.87c2.25,1,4.55,1.79,6.8,2.76,1.92.83,3.8,1.75,5.68,2.68.4.2.68.64,1.07.87,1.07.62,2.15,1.23,3.26,1.77.82.39,1.7.65,2.54,1,1.7.7,3.42,1.37,5.09,2.13,2.14,1,4.29,1.93,6.36,3q4.55,2.44,9,5.1a6.91,6.91,0,0,1,1.87,2,1.55,1.55,0,0,1,.15,1.38C368.94,41.44,368.32,41.58,367.93,41.79Z"/><path d="M184.26,427.63a7.28,7.28,0,0,1-1.4-.3c-2.58-1-5.14-2.1-7.72-3.13-2.07-.82-4.18-1.57-6.24-2.41-3-1.21-5.92-2.44-8.85-3.73-1-.44-1.88-1.11-2.85-1.6q-3.72-1.86-7.48-3.63a75.81,75.81,0,0,1-14.41-8.37,20.1,20.1,0,0,0-1.93-1.2c-.36-.22-.86-.34-1.06-.65a8.09,8.09,0,0,1-.66-1.65c.53-.12,1.11-.44,1.58-.33a8.51,8.51,0,0,1,2.28,1A86.32,86.32,0,0,0,148,408.38c1,.42,2,1.16,3,1.67q3.79,1.87,7.63,3.65c1.68.78,3.38,1.49,5.09,2.2q7.24,3,14.49,5.91c2.3.93,4.64,1.79,6.94,2.73.85.35,2.2.45,2,1.74S185.55,427.56,184.26,427.63Z"/><path d="M147.43,381.16c.6.25,1.21.46,1.79.74q7.92,3.82,15.82,7.66c1.74.85,3.42,1.81,5.17,2.64,3.79,1.8,7.62,3.54,11.42,5.32.76.36,1.43.92,2.21,1.23,2.57,1,5.17,2,7.75,3,3.37,1.33,6.74,2.67,10.09,4.06a7,7,0,0,1,1.73,1.25c.19.16.38.6.29.74a1.49,1.49,0,0,1-.8.47,1.28,1.28,0,0,1-.75,0c-2-.7-4.05-1.41-6.06-2.14-1.53-.56-3.05-1.15-4.57-1.75-1.09-.43-2.17-.88-3.25-1.33-1.39-.58-2.78-1.17-4.17-1.74-.66-.27-1.37-.44-2-.74-3.72-1.69-7.45-3.37-11.14-5.11-1.79-.84-3.5-1.84-5.28-2.71-1.51-.74-3.09-1.34-4.59-2.1-3.07-1.57-6.14-3.15-9.15-4.83a25.35,25.35,0,0,1-3.59-2.58,8.69,8.69,0,0,1-1.25-1.63Z"/><path d="M290.83,92.23c-4.51-.25-7.38-2.59-9.13-6.52-.68-1.54.11-4.82,1.42-5.86a1.31,1.31,0,0,1,1-.32c.21.07.37.61.36.94-.13,4,1.95,6.11,6,5.77a49.87,49.87,0,0,0,6.73-1.18c1.53-.34,1.83-1.62.76-2.77-.83-.9-1.75-1.72-2.51-2.67-.29-.36-.25-1-.37-1.47a6,6,0,0,1,1.76-.28,3.27,3.27,0,0,1,1.27.78c.91.68,1.79,1.4,2.71,2.07a3,3,0,0,1,1.26,3.45c-1,3.13-2.63,5.65-6.21,6.31a18.49,18.49,0,0,0-2.69,1C292.41,91.79,291.61,92,290.83,92.23Z"/><path d="M183.68,333.22c2.62-.07,4.45,1.08,6.25,2.39a6.25,6.25,0,0,0,1.77.84c1.71.55,3.46,1,5.15,1.56,3.06,1.05,6.07,2.24,9.14,3.26,2.8.93,5.63,1.75,8.47,2.54,2.06.57,4.15,1,6.23,1.5,1.06.26,2.12.52,3.18.81a36.39,36.39,0,0,1,3.84,1.17c.71.28,1.88,1.11,1.81,1.33-.39,1.1-1.44.72-2.26.51-4.17-1-8.34-2-12.48-3.16-3.41-.91-6.8-1.9-10.17-2.94-2.24-.69-4.39-1.94-6.67-2.2-3.51-.39-6.26-2.61-9.62-3.32-2-.42-3.83-1.67-5.68-2.65-.43-.23-.63-.9-.94-1.37.55-.1,1.1-.22,1.65-.3A.74.74,0,0,1,183.68,333.22Z"/><path d="M207.54,407.47c.9.34,1.64.63,2.39.89,3.07,1,6.13,2.08,9.21,3.08,1.32.43,2.69.7,4,1.13,3,1,6.11,1.91,9.1,3,1.75.65,3.38,1.64,5.08,2.46a4.54,4.54,0,0,0,1.64.63,8.85,8.85,0,0,1,4.81,1.25c1.25.79,3.17.48,4.78.75,1.28.21,2.54.56,3.81.85.73.17,1.48.4,1.4,1.33a1.52,1.52,0,0,1-1.67,1.4c-.33,0-.79,0-1-.2-1.63-1.83-3.91-1.21-5.91-1.68a45.29,45.29,0,0,1-4.81-1.76,3.15,3.15,0,0,0-1.51-.29,3.71,3.71,0,0,1-4.1-1.53,3.89,3.89,0,0,0-3-1.45,17.85,17.85,0,0,1-2.5-.73c-2-.59-4-1.16-6.06-1.77-4.19-1.26-8.38-2.52-12.55-3.81a28.17,28.17,0,0,1-3.67-1.35c-.49-.23-.81-.85-1.2-1.3Z"/><path d="M194.56,358.21a10.25,10.25,0,0,1-6.05-2c-.38-.27-.53-.86-.79-1.31.51-.21,1-.64,1.53-.58a12.6,12.6,0,0,1,5.5,2.1,8,8,0,0,0,2.32.73c1.17.32,2.36.57,3.51.92,1.45.44,2.87,1,4.31,1.43.32.11.72.1,1,.3,1.9,1.6,4.37,1.36,6.54,2.09,3.27,1.1,6.56,2.12,9.87,3.09,1.33.39,2.73.53,4.09.85a9.83,9.83,0,0,1,2.26.77c.39.2.61.72.91,1.09a4.77,4.77,0,0,1-1.4.64,5.31,5.31,0,0,1-1.87-.22c-5.45-1.45-10.91-2.89-16.34-4.43-1.28-.36-2.44-1.15-3.72-1.57-2.55-.84-5.16-1.52-7.72-2.33-.79-.25-1.5-.76-2.27-1.08A16.08,16.08,0,0,0,194.56,358.21Z"/><path d="M300.54,122.57c0,.3,0,.59-.05.89-.06,1.84.6,2.82,1.91,2.87a3,3,0,0,0,3.22-2.82,12,12,0,0,0-1.63-6.29,4.89,4.89,0,0,1-.26-1.6c.62,0,1.41-.33,1.83-.06a3.73,3.73,0,0,1,1.52,1.86,32.46,32.46,0,0,1,.93,4.71c.68,4.63-2.65,6.87-6.36,7.58-1.89.36-3-.71-3.59-2.57-.66-2.09-1-4.1.17-6.11a5.54,5.54,0,0,1,.64-1.09c.27-.28.7-.63,1-.58s.56.59.6.95a18.57,18.57,0,0,1,0,2.27Z"/><path d="M118.11,202.47c0,1.16-.63,1.61-1.34,1.14a5.7,5.7,0,0,1-1.35-1.47c-2-2.77-4-5.56-6-8.33-1.79-2.49-3.64-4.93-5.38-7.45-1.48-2.14-2.88-4.34-4.23-6.58a24.6,24.6,0,0,1-1.57-3.44c-.1-.25.07-.62.12-.93.38.1.91.07,1.1.31.86,1.09,1.66,2.23,2.42,3.4,1,1.58,2,3.2,3,4.8s2,3.32,3.06,4.93,2.15,3,3.27,4.48c1.94,2.54,3.91,5.05,5.85,7.59A18,18,0,0,1,118.11,202.47Z"/><path d="M141.71,190.21a5,5,0,0,1,3.63,2.53c.88,1.37,1.52,2.89,2.28,4.34a1.27,1.27,0,0,0,.44.57c2.27,1.08,3.32,3.26,4.67,5.16.17.24.25.6.48.74,2.27,1.34,3,3.89,4.61,5.75.43.5,1.09.8,1.55,1.28a10.18,10.18,0,0,1,1.5,2,1.19,1.19,0,0,1-.32,1.07c-.16.15-.71,0-1-.17a3.37,3.37,0,0,1-.8-.8c-1.7-2-3.42-3.9-5.09-5.89-1.84-2.19-3.92-4.26-5.31-6.71a19,19,0,0,0-2.9-3.88,23.63,23.63,0,0,0-1.64-1.73A6.53,6.53,0,0,1,141.71,190.21Z"/><path d="M100.6,205.3c0,1.19-.63,1.64-1.42,1.17A4.9,4.9,0,0,1,98,205.35c-.83-1-1.65-2-2.42-3.09-1.5-2.08-2.94-4.19-4.43-6.28-1.22-1.72-2.47-3.42-3.7-5.13-.54-.75-1.1-1.5-1.56-2.3s-.55-1.42.24-1.91,1.4,0,1.8.67c1.14,1.83,2.21,3.69,3.32,5.54a17.15,17.15,0,0,0,1.1,1.69c1.49,1.92,3,3.82,4.53,5.74q1.47,1.88,2.91,3.8C100.14,204.53,100.42,205,100.6,205.3Z"/><path d="M242.48,388.92a10.44,10.44,0,0,1-2.58,0c-2.82-.69-5.61-1.54-8.41-2.29-2.56-.69-5.14-1.3-7.69-2a8.28,8.28,0,0,1-4.5-2.5l.05-.42a7.67,7.67,0,0,1,1.85,0c2.24.57,4.45,1.25,6.68,1.86,2.92.8,5.85,1.57,8.77,2.35,1.42.38,2.88.67,4.26,1.15a7.68,7.68,0,0,1,1.74,1.21Z"/><path d="M213.7,380.27a4.88,4.88,0,0,1-3.31-.23c-1.81-.53-3.65-1-5.44-1.59-2.23-.73-4.43-1.57-6.65-2.32-1-.35-2.1-.57-3.14-.9a33.5,33.5,0,0,1-3.42-1.22c-.33-.15-.48-.7-.71-1.07.41-.23.87-.71,1.22-.65a8.16,8.16,0,0,1,3.38,1,9.33,9.33,0,0,0,4.1,1.6c2.87.58,5.65,1.64,8.47,2.5.88.27,1.75.59,2.65.78A4,4,0,0,1,213.7,380.27Z"/><path d="M122.31,161c.19-.47.27-1,.48-1.09a1.23,1.23,0,0,1,1.1.26,33.8,33.8,0,0,1,2.19,3.34c1.31,2.27,2.54,4.58,3.82,6.88.2.37.46.7.67,1.07.82,1.46,1.68,2.91,2.42,4.41a4.77,4.77,0,0,1,.17,1.62c-.51-.16-1.22-.16-1.5-.51-1.11-1.37-2.12-2.82-3.09-4.29-.76-1.16-1.42-2.39-2.12-3.59-1.06-1.81-2.15-3.6-3.15-5.45A20.25,20.25,0,0,1,122.31,161Z"/><path d="M118.34,226.31a4.75,4.75,0,0,1-3.35-2c-.79-.86-1.65-1.65-2.44-2.51-.56-.61-1.06-1.28-1.58-1.93l-.88-1c-.51-.6-1-1.18-1.54-1.78-.37-.45-.7-.94-1.09-1.37-1.74-1.87-3.5-3.73-5.25-5.6a1.15,1.15,0,0,1-.35-.52,10.83,10.83,0,0,1-.06-1.27c.42.08,1,0,1.24.27,1.35,1.44,2.62,3,3.93,4.45q2.4,2.74,4.82,5.47c2,2.26,4,4.5,6,6.76A5.18,5.18,0,0,1,118.34,226.31Z"/><path d="M170.9,363.29c.61.27,1.14.51,1.68.74,1,.4,1.94.77,2.89,1.2a42.4,42.4,0,0,1,4.29,2.05c1.07.63,2,1.37,3.36,1.14a2,2,0,0,1,1.22.25c1.29.71,2.56,1.47,3.8,2.27.26.17.35.59.52.9-.3.1-.65.36-.9.28-2.19-.66-4.61-.73-6.38-2.51a3.22,3.22,0,0,0-1.43-.7c-2.36-.62-4.78-1-6.73-2.69-.65-.57-1.74-.6-2.54-1a1.8,1.8,0,0,1-.6-1.23C170,363.79,170.58,363.54,170.9,363.29Z"/><path d="M79.86,197.09a8.19,8.19,0,0,1,1.43,1.22c1,1.36,1.86,2.77,2.74,4.19.64,1,1.21,2.12,1.83,3.16.5.82,1,1.62,1.57,2.42.19.28.46.5.65.77.49.74,1.12,1.61.32,2.33-.21.19-1.58-.46-2-1-1.69-2.34-3.23-4.8-4.8-7.23a3.34,3.34,0,0,1-.6-1.38,2.39,2.39,0,0,0-1.52-2.11,1.65,1.65,0,0,1-.7-1.29C78.8,197.82,79.4,197.52,79.86,197.09Z"/><path d="M350.21,130c-2.63,0-5-.37-6.89-2.09a4.93,4.93,0,0,1-1.18-2,1.3,1.3,0,0,1,.52-1.14,1.33,1.33,0,0,1,1.22.21c1.73,1.55,3.94,1.79,6,2.37.85.24,1.73.37,2.55.68.32.12.75.64.69.88a1.43,1.43,0,0,1-.86.92A11,11,0,0,1,350.21,130Z"/><path d="M274.36,338.29c1.08.42,2.15.86,3.24,1.25a8.52,8.52,0,0,0,1.66.45c1.58.23,3.17.4,4.75.61s3.24.42,4.86.65a5.44,5.44,0,0,1,1.82.4c.39.21.58.8.87,1.22-.4.24-.81.7-1.2.69a11.91,11.91,0,0,1-2.43-.52c-.88-.23-1.75-.53-2.63-.76q-3.23-.84-6.47-1.63a2.43,2.43,0,0,0-1.32-.08,5.45,5.45,0,0,1-4.06-.27c-.42-.16-.69-.7-1-1.07.45-.24.9-.49,1.37-.7a1.33,1.33,0,0,1,.5,0Z"/><path d="M138.75,64.73c.49.72,1,1.46,1.48,2.17s1,1.31,1.53,1.94.94,1,1.36,1.47c1.1,1.37,2.2,2.75,3.24,4.16A18.29,18.29,0,0,1,148.45,78a5.76,5.76,0,0,1-4.07-2.2c-1.61-2.4-3.66-4.53-4.53-7.4a12.07,12.07,0,0,0-1.21-1.91,8.58,8.58,0,0,1-.49-1.44Z"/><path d="M126.33,213.44c5.06,3.73,8.17,9.23,12.56,13.57l-.18.27c-.25-.06-.59,0-.74-.2q-3.75-3.73-7.46-7.51c-.7-.71-1.31-1.52-2.05-2.19A6.22,6.22,0,0,1,126.33,213.44Z"/><path d="M279.27,396.58c-1.89,1.21-12.06-.67-14.29-2.7a7.24,7.24,0,0,1,4.7-.14c1.1.35,2.26.52,3.38.81q2.87.73,5.73,1.51C279,396.12,279.11,396.4,279.27,396.58Z"/><path d="M372,42c.05-1.18.9-1.74,1.62-1.16,1.47,1.18,3.44,1.93,3.85,4.14a1.8,1.8,0,0,0,.72,1c.51.37,1.15.76.59,1.36a1.85,1.85,0,0,1-1.65.33,6.56,6.56,0,0,1-2.07-1.43,21.79,21.79,0,0,1-2.35-2.63A6.78,6.78,0,0,1,372,42Z"/><path d="M182.55,235.54c-.23.34-.34.64-.44.64a1.47,1.47,0,0,1-.92-.2c-.93-.85-1.79-1.78-2.7-2.65-.63-.6-1.29-1.17-1.94-1.75l-2.06-1.85-2.24-2c-.25-.22-.66-.42-.71-.68a7.38,7.38,0,0,1,0-1.61c.5.08,1.19,0,1.48.27,1.54,1.56,3,3.23,4.45,4.82.82.88,1.72,1.69,2.58,2.54Z"/><path d="M141.48,190c-.64-.39-1.08-.51-1.3-.8-1.87-2.44-3.75-4.88-5.5-7.4-.36-.52-.23-1.39-.33-2.1.64.3,1.52.43,1.88.93,1.74,2.48,3.37,5,5,7.6A5.6,5.6,0,0,1,141.48,190Z"/><path d="M251.64,390.13a13.18,13.18,0,0,1,1.41.18c2.48.63,5,1.22,7.42,2,.54.17.92.9,1.37,1.37a6.48,6.48,0,0,1-1.89.58,9.82,9.82,0,0,1-2.34-.51c-1.62-.43-3.25-.86-4.86-1.32a3.81,3.81,0,0,1-1.27-.54,7.3,7.3,0,0,1-1-1.16Z"/><path d="M114.75,173.71c0,1.06-.6,1.43-1.34,1a1.18,1.18,0,0,1-.53-.52c-1-3-3.22-5.36-4.13-8.38a2.05,2.05,0,0,1-.17-.73,6,6,0,0,1,.28-1c.32.15.79.2.94.45q1.74,2.85,3.37,5.77c.46.83.83,1.72,1.23,2.58C114.54,173.18,114.68,173.53,114.75,173.71Z"/><path d="M81.34,176.53c-.24.32-.45.85-.78,1a1.32,1.32,0,0,1-1.18-.38,24.33,24.33,0,0,1-1.51-2.76c-.63-1.24-1.25-2.48-1.82-3.75a4.63,4.63,0,0,1-.4-1.57,1,1,0,0,1,.49-.77.86.86,0,0,1,.78.2,5.83,5.83,0,0,1,1,1.3c1,1.85,2,3.72,2.94,5.58C81,175.67,81.14,176,81.34,176.53Z"/><path d="M162.08,215.95c.15-.25.26-.65.44-.68a1.32,1.32,0,0,1,1,.19,32.85,32.85,0,0,1,2.8,2.92c1.22,1.49,2.36,3.06,3.49,4.63a3.4,3.4,0,0,1,.29,1.19c-.41-.12-1-.12-1.21-.39-2.12-2.23-4.2-4.51-6.27-6.79A5.15,5.15,0,0,1,162.08,215.95Z"/><path d="M345.24,196.78c2.64-.47,4.79.25,6.94.86,1.21.34,2.41.75,3.58,1.21.27.11.4.55.59.84-.29.13-.62.41-.87.35-3-.72-5.93-1.47-8.88-2.27C346.18,197.67,345.85,197.24,345.24,196.78Z"/><path d="M185.65,355.42a18.07,18.07,0,0,1-2.39-1,25.54,25.54,0,0,1-3-2.1,1.29,1.29,0,0,1-.33-1.09c0-.2.61-.3,1-.4a1,1,0,0,1,.62,0c1.64.83,3.29,1.65,4.87,2.58a1.41,1.41,0,0,1,.5,1.27C186.77,355.06,186.11,355.19,185.65,355.42Z"/><path d="M126.64,194.32a11.62,11.62,0,0,1-3.11-4.4,13.7,13.7,0,0,0-1.44-2.12c-.46-.65-1-1.26-1.37-1.94-.13-.22,0-.6.05-.9.3.1.6.19.89.3a.47.47,0,0,1,.18.18c1.5,2.11,3.06,4.18,4.48,6.34a9.5,9.5,0,0,1,.79,2.34Z"/><path d="M125.24,212c-.21.06-.65.33-.8.22a11.16,11.16,0,0,1-4-4.52c-.22-.54-.11-1,.69-.93C122.31,206.93,125.28,210.46,125.24,212Z"/><path d="M289.38,79.69a5.77,5.77,0,0,1-1.23-.15c-.29-.12-.67-.32-.74-.56s.19-.6.39-.83a1.42,1.42,0,0,1,.75-.44,30.52,30.52,0,0,1,3.84-.57c.48,0,1,.47,1.47.72a4.66,4.66,0,0,1-1.18.9C291.5,79.18,290.27,79.46,289.38,79.69Z"/><path d="M301.52,329.89a26.16,26.16,0,0,1-3.21-1,1.5,1.5,0,0,1-.76-1.21,1.45,1.45,0,0,1,1.18-.8,11.69,11.69,0,0,1,3.16.7c.43.16.67.84,1,1.28Z"/><path d="M385.81,51.54a18.54,18.54,0,0,1-2.24-.92A16.72,16.72,0,0,1,381.22,49a1.31,1.31,0,0,1-.4-1c0-.2.58-.45.9-.45C383,47.5,385.52,49.87,385.81,51.54Z"/><path d="M337.52,86.72c-1.27-.38-2.49-.71-3.68-1.14a1,1,0,0,1-.52-.86,1,1,0,0,1,.83-.53c1.32.39,2.62.87,3.91,1.36.15.06.32.52.25.61A3.17,3.17,0,0,1,337.52,86.72Z"/><path d="M144.56,232.77c-1.81.2-4.52-2.48-4.63-4.56A13.57,13.57,0,0,1,144.56,232.77Z"/><path d="M178.34,351.16c-1.55,0-2.94-1-2.83-1.92a1.3,1.3,0,0,1,1-.78c1.3-.07,2.7,1,2.6,1.9C179,350.72,178.47,351,178.34,351.16Z"/><path d="M297.84,344.6a17.92,17.92,0,0,1-3.07-.53c-.45-.16-.72-.84-1.08-1.29a4.47,4.47,0,0,1,1.66-.39,10.78,10.78,0,0,1,2.49.89,3.76,3.76,0,0,1,.84.75Z"/><path d="M233.62,369.94c-.71-.31-1.43-.58-2.11-1a.83.83,0,0,1-.32-.73.81.81,0,0,1,.65-.44,23.42,23.42,0,0,1,3.07.45c.27.06.45.51.67.78a4.52,4.52,0,0,1-.89.61,3.7,3.7,0,0,1-1,.11Z"/><path d="M84.52,182.72c-.28.19-.64.63-1.05.69-.92.13-1.88-.79-1.65-1.62A1.76,1.76,0,0,1,83,180.69C84,180.65,84.36,181.51,84.52,182.72Z"/><path d="M389.44,236.73c-.59.65-.89,1.26-1.36,1.45s-1.45-1-1.31-2c.07-.5.61-.92.94-1.38Z"/><path d="M294.67,398l-1.43-1.73c.42-.31,1-1,1.22-.87a11,11,0,0,1,2,1.43Z"/><path d="M130.28,198.09c1.14,1.35,2.3,2.68,3.4,4.06.12.15,0,.53-.06.8-.27,0-.67,0-.78-.14-1-1.42-2-2.88-3-4.33Z"/><path d="M380.19,204.07a3.14,3.14,0,0,1-4-.36C377.15,202.54,379,202.68,380.19,204.07Z"/><path d="M247.5,391.36l-1.64-1.62c.43-.3,1-.93,1.27-.84a6.22,6.22,0,0,1,1.7,1.17Z"/><path d="M373.55,202.89a2.14,2.14,0,0,1-3.43-.55A2.22,2.22,0,0,1,373.55,202.89Z"/><path d="M311.78,112.17l-.87,1c-.41-.51-1.12-1-1.13-1.54s.65-1.1,1-1.65Z"/><path d="M146.76,235.07c1.54.41,3.49,2.47,3.37,3.57C149.09,238.47,147.06,236.32,146.76,235.07Z"/><path d="M189.06,242.12a3,3,0,0,1,2.94,2.51A3.4,3.4,0,0,1,189.06,242.12Z"/><path d="M392,80.86a3.46,3.46,0,0,1-3-.07.84.84,0,0,1-.37-.58c0-.12.22-.34.39-.42A3,3,0,0,1,392,80.86Z"/><path d="M328,82.07c.84.37,1.71.7,2.51,1.15.23.13.26.61.38.93-.35,0-.81.26-1,.12a25.93,25.93,0,0,1-2.13-1.66Z"/><path d="M289.33,325.58c.87.09,1.75.15,2.61.3.2,0,.35.4.52.61-.22.16-.46.49-.65.45-.88-.15-1.75-.4-2.62-.62Z"/><path d="M187.86,240.62c-.33.14-.8.48-1,.38a9.2,9.2,0,0,1-1.32-1.3c.27-.24.68-.74.79-.68a12.33,12.33,0,0,1,1.59,1.15Z"/><path d="M418,412.27a2,2,0,0,1-2.69,1.35C415.42,412.37,416.48,411.81,418,412.27Z"/><path d="M244.25,371.59l-3.61-1.08.16-.61,3.68.89Z"/><path d="M411,103.49c.22-.28.39-.67.68-.82a4.07,4.07,0,0,1,1.4-.32c.07,0,.32.52.26.59a4,4,0,0,1-1.12.92,2.63,2.63,0,0,1-1,0Z"/><path d="M382.93,80.31l-1.39-1.2c.29-.18.63-.55.85-.49a8.25,8.25,0,0,1,1.55.78Z"/><path d="M138,207.52l-.95.85A10.92,10.92,0,0,1,136,207c-.06-.09.37-.49.57-.74Z"/><path d="M147.92,172.18c-.5.29-.89.59-.95.54a7.83,7.83,0,0,1-1.1-1.34c0-.05.52-.58.54-.57C146.87,171.18,147.29,171.59,147.92,172.18Z"/><path d="M121.82,158.71l-.73-1.55c.2-.09.47-.31.59-.25a1.17,1.17,0,0,1,.62,1.58Z"/><path d="M342.44,87.7,341,87.1c.09-.2.21-.58.25-.57.51.1,1,.27,1.51.42Z"/><path d="M226.56,73l.62,1.74-.58.22-.68-1.72Z"/><path d="M223.52,66.21l-.56-1.5.6-.22.53,1.51Z"/><path d="M392.88,371.88c-.46-.29-1.32-.57-1.36-.93a2.35,2.35,0,0,1,.81-1.64,4.71,4.71,0,0,1,1.71-.77c4.07-1.38,8.19-2.64,12.21-4.16,2.95-1.11,5.79-2.52,8.65-3.85,4-1.85,8-3.54,11.83-5.68,4.83-2.71,10-4.93,14.27-8.55a17.83,17.83,0,0,1,2.61-1.54,7.49,7.49,0,0,0,.86-.52,49.58,49.58,0,0,1,4-3.13c.73-.46,2.37-.82,2.56-.53.64,1-.46,1.68-1.11,2.2-2.77,2.2-5.55,4.41-8.47,6.4-3.8,2.59-7.71,5-11.62,7.42-1.65,1-3.44,1.8-5.16,2.69l-3.59,1.87c-.19.1-.35.24-.54.32-4.72,2.11-9.38,4.34-14.17,6.27-2.82,1.14-5.84,1.79-8.76,2.67-.68.21-1.34.51-2,.72C394.79,371.39,393.93,371.59,392.88,371.88Z"/><path d="M8.8,247c1.38.56,1.59,1.6,1.84,2.69a7.41,7.41,0,0,0,.9,2c1.23,2.1,2.58,4.13,3.73,6.28,1.47,2.74,2.77,5.58,4.19,8.35s2.7,5.26,4.18,7.82c1,1.75,2.34,3.32,3.31,5.08,2.78,5,6.45,9.46,9.73,14.15,2.2,3.14,5.07,5.63,7.33,8.68,1,1.41,2,2.87,3.06,4.31a11.94,11.94,0,0,0,.87,1.24c2.36,2.57,4.69,5.17,7.13,7.67,2.22,2.28,4.57,4.44,6.85,6.67,3.13,3.06,6.23,6.15,9.37,9.19,1.39,1.35,2.94,2.54,4.29,3.93a28.07,28.07,0,0,1,2.29,3.05l-.41.48a23.38,23.38,0,0,1-2.94-1.64c-1.64-1.24-3.2-2.6-4.76-3.95-3.9-3.38-7.91-6.65-11.63-10.23-3.37-3.24-6.4-6.84-9.59-10.27-1.18-1.26-2.49-2.41-3.57-3.74-1.66-2.06-3.11-4.29-4.78-6.34s-3.45-3.91-5.2-5.86a9.14,9.14,0,0,1-.7-.73q-3-4.16-5.88-8.34c-1.3-1.87-2.59-3.74-3.86-5.63A118.71,118.71,0,0,1,13.9,262.31c-1.28-3-2.61-6-3.77-9.11a50.66,50.66,0,0,1-1.45-5.27A3,3,0,0,1,8.8,247Z"/><path d="M10,220.51a27.39,27.39,0,0,1,1.4,3.66c.52,2.22,1.18,4.25,3,5.79a6.54,6.54,0,0,1,1.36,2.37c.42.92.7,1.9,1.1,2.83a235.07,235.07,0,0,0,10.61,21.68c.78,1.4,1.44,2.86,2.16,4.28a1.65,1.65,0,0,0,.26.43c2.88,2.89,4.41,6.64,6.52,10,1.69,2.72,3.67,5.26,5.51,7.88.63.9,1.21,1.82,1.85,2.71,1,1.41,2,2.78,3,4.19s1.7,2.71,2.64,4c2.57,3.5,5.21,6.94,7.8,10.43,1,1.28,1.9,2.58,2.75,3.94.24.38.11,1,.15,1.49-.55-.13-1.1-.23-1.64-.4a1.17,1.17,0,0,1-.46-.42c-4.13-5.21-8.4-10.33-12.36-15.67-3.73-5-7.16-10.29-10.66-15.5-1.28-1.91-2.36-4-3.55-5.94a9.62,9.62,0,0,0-.91-1.21,11,11,0,0,1-1-1.12c-1.44-2.32-2.9-4.63-4.26-7-1.53-2.66-3.05-5.34-4.41-8.09-1.8-3.65-3.44-7.39-5.17-11.08-.74-1.57-1.62-3.06-2.28-4.66-.48-1.16-.64-2.44-1-3.64-.5-1.55-1-3.09-1.66-4.59-.84-2-1.88-3.95-1.29-6.23Z"/><path d="M46,319.93a9,9,0,0,1,1.62,1.29c2.18,2.56,4.21,5.25,6.46,7.74s4.87,5,7.31,7.5c1.84,1.89,3.71,3.77,5.48,5.73a19.12,19.12,0,0,0,5.28,4.44A19,19,0,0,1,76.21,350c.34.33.25,1.11.35,1.69-.58-.1-1.29,0-1.71-.33C71.18,348.62,67.39,346,64,343s-6.16-6.24-9.18-9.41S48.9,327.34,46,324.2a10.06,10.06,0,0,1-1.74-2.29C43.72,320.87,44.44,319.92,46,319.93Z"/><path d="M370.17,413.26c.81-.18,1.62-.38,2.44-.54a77,77,0,0,1,8.94-1.59,31.12,31.12,0,0,0,9.42-2c2.47-1,5-1.7,7.55-2.53l.12,0c.89-.14,1.9-.64,2.43.54.32.72-.57,1.85-1.74,2.16a39.07,39.07,0,0,0-8.71,3.35,3.21,3.21,0,0,1-1.07.38c-2.69.37-5.39.71-8.08,1.06a1.92,1.92,0,0,0-.62.11c-2.85,1.48-6.07,1.22-9.1,1.86-3.94.84-8,1.18-12,1.67a7.53,7.53,0,0,1-2.5-.2,1.33,1.33,0,0,1-.88-.88c0-.29.46-.83.8-.92q4.71-1.18,9.45-2.21c1.15-.25,2.33-.34,3.49-.5Z"/><path d="M403.84,407.09c-.24-.17-.69-.34-.7-.53a1.19,1.19,0,0,1,.41-1c1.26-.73,2.56-1.4,3.88-2a7.44,7.44,0,0,1,2.17-.66,4.58,4.58,0,0,1,1.51.34c-.25.47-.39,1.19-.78,1.37-1.33.63-2.75,1.07-4.13,1.58Z"/><path d="M50.21,221.78c.59.53,1.45.94,1.72,1.6.83,2,2.32,3.48,3.41,5.25,2.58,4.2,5.05,8.47,7.6,12.69.72,1.19,1.6,2.27,2.34,3.45,1,1.57,1.94,3.15,2.82,4.78.17.32-.07.86-.12,1.3-.43-.05-1,.05-1.27-.19a22.57,22.57,0,0,1-3.29-3.8c-2.46-4.1-4.71-8.33-7.1-12.48-1.59-2.76-3.28-5.46-4.86-8.23-.71-1.25-1.25-2.6-1.86-3.91Z"/><path d="M67.54,393a19.79,19.79,0,0,1,1,1.77,2.08,2.08,0,0,1-.63.47,7.38,7.38,0,0,1-1.07-1.33C66.77,393.79,67.15,393.45,67.54,393Z"/><path d="M54.84,184.47A8.7,8.7,0,0,1,52.28,181c-.51-1.2-1-2.42-1.46-3.63-.35-.86-.66-2,.22-2.4s1.65.6,1.86,1.42c.59,2.32,2.42,4.21,2.29,6.76,0,.36,0,.73,0,1.1Z"/></g></g></svg>