<svg xmlns="http://www.w3.org/2000/svg" ><title>Persona</title><g id="Layer_2" data-name="Layer 2"><g id="Layer_1-2" data-name="Layer 1"><path d="M399.73,458.68c-.24-.77-.71-1.53-.51-1.82a1.47,1.47,0,0,1,2.3-.32c1.3.93,2.58.08,3.79-.36s2.45-1.18,3.7-1.7,1.36-.69.66-2a1.71,1.71,0,0,1,.55-1.58,3.52,3.52,0,0,0,1.58-2.65c.23-1,.42-2.07.57-3.11a6.77,6.77,0,0,0-.05-1.29,3.12,3.12,0,0,0-1.21.12c-1.62.94-3.2,2-4.81,2.92a8,8,0,0,1-1.54.71,80.65,80.65,0,0,0-7.64,2.6,42.14,42.14,0,0,1-5.45,2c-2.73.81-5.35,2-8,2.87a55.64,55.64,0,0,1-5.65,1.56c-3,.66-6,1.2-9,1.79-.35.07-.71.08-1.06.15-1.33.27-2.64.57-4,.84-1.57.31-3.14.62-4.72.88q-5.72.95-11.44,1.84c-2,.31-4.06.5-6.07.86-2.44.44-4.85,1-7.29,1.51-1.39.28-2.79.5-4.19.74-2.24.39-4.47.8-6.71,1.14-2.83.43-5.67.78-8.5,1.19-2.16.32-4.32.7-6.48,1-2.65.38-5.31.73-8,1a4.48,4.48,0,0,1-1.52-.41c.44-.41.82-1.08,1.32-1.18q4.2-.81,8.45-1.37a14.63,14.63,0,0,1,3,.26,4.24,4.24,0,0,1,5.14-.59c.64.32.93.19,1.2-.48a1.78,1.78,0,0,1,1-1c3-.62,6-1.15,9-1.71,3.65-.67,7.28-1.56,11-1.91,2.39-.23,4.47-1.26,6.74-1.71,1-.2,2-.19,3-.38,3.82-.75,7.64-1.49,11.44-2.33,1.94-.43,3.82-1.12,5.75-1.57s4.19-.76,6.26-1.26a32.75,32.75,0,0,0,7-2c2.21-1.08,4.78-1.39,7.1-2.28s4.3-2,6.44-3.06a9.22,9.22,0,0,1,1.3-.61c2.46-.74,5-1.31,7.37-2.19,2.24-.82,4.39-1.9,6.54-2.94,1.64-.79,3.26-1.63,4.82-2.55a1.83,1.83,0,0,0,.69-1.34c.06-2.44.07-4.88,0-7.31,0-1-.83-.81-1.5-.54s-1.46.49-2.13.84a9.38,9.38,0,0,0-2.51,1.56c-1.33,1.38-2.93,1.34-4.52,1.07-.92-.15-1.3.07-1.09.84.4,1.44-1.16,1.09-1.54,1.79,0,0-.68-.4-1-.36a11,11,0,0,0-1.92.56c-1.21-.66-1.27-.71-3.16,1.54a4.71,4.71,0,0,1-3.4,1.84c-1.75.13-3.5.24-5.25.39a4.78,4.78,0,0,0-1.15.29c-.25.09-.51.41-.69.36-2.68-.75-4.17,2-6.48,2.2-.32,0-.85,0-1-.14-.72-1.14-1.42-.61-2.09,0s-1.5,1.44-2.7,1a.57.57,0,0,0-.48.16c-1.23,1.27-2.75.93-4.24.86a1.41,1.41,0,0,0-1.07.57,1.13,1.13,0,0,1-1.77.47,1.3,1.3,0,0,0-1-.09c-1.17.53-2.28,1.55-3.5-.35-.35,1.55-.86,2.12-2,1.22-.1-.08-.52.06-.67.21a2.65,2.65,0,0,1-3.46.73,2.67,2.67,0,0,0-3.69.5c-.34.35-1.31.24-1.93.1a1.36,1.36,0,0,0-1.62.39,2.93,2.93,0,0,1-4.35.1,9.3,9.3,0,0,0-1.41-.88,10.51,10.51,0,0,1,4.84-2.08c1.95-.3,3.91-.59,5.87-.79.91-.09,1.94.29,2.74,0a4.49,4.49,0,0,1,4.07.14c1.8-1.09,4.52,0,5.74-2.6.38-.8,1.41-.9,2.14-.06s1.08.62,1.39-.38a1.73,1.73,0,0,1,1.07-.91c2.34-.67,4.7-1.28,7.06-1.86a16.74,16.74,0,0,1,1.94-.27s.09,0,.13,0c1.64-.45,3.29-.89,4.92-1.37.54-.16,1.06-.42,1.59-.61l2.19-.78c.33-.11.66-.22,1-.3.94-.24,1.9-.42,2.83-.7,1.26-.38,2.49-.83,3.59-1.21.45.55.76.94,1.1,1.31,0,0,.46-.26.44-.36a17.29,17.29,0,0,0-.43-1.69l3.16-.71a5.3,5.3,0,0,0,.76-.21c1.39-.54,2.8-1.06,4.16-1.67.87-.39,1.65-1,2.51-1.37a24.65,24.65,0,0,1,2.82-1.14c1.51-.5,3.05-.91,4.57-1.4a1.23,1.23,0,0,0,.74-.59,4.51,4.51,0,0,0,.33-1.81q-.45-4.89-1-9.77c-.35-2.91-.69-5.82-1.19-8.7-.56-3.24-1.07-6.5-2.56-9.5a1.83,1.83,0,0,1-.16-1.42c.91-1.66,0-3.29,0-4.92a5.71,5.71,0,0,0-.88-2.3,28.42,28.42,0,0,1-1.5-2.52c-.53-1.35-1.36-1.47-2.54-1-1.77.7-3.53,1.5-5.35,2-2.09.61-4.26,1-6.39,1.44a3.3,3.3,0,0,0-.77.45,18.41,18.41,0,0,1-2.34,1.29c-1.76.68-3.55,1.28-5.34,1.84q-3.5,1.1-7,2.08c-2.59.72-5.18,1.44-7.8,2q-5.12,1.18-10.29,2.17t-10.49,1.78c-2.22.33-4.48.46-6.71.7-.84.09-1.67.24-2.51.3a6.77,6.77,0,0,1-1.22-.12l-.11-.38c.45-.29.93-.88,1.34-.84,2.2.23,3.9-1.3,6-1.51s4.4-.43,6.58-.8c1.63-.27,3.21-.77,4.82-1.18L362,393c2.4-.63,4.83-1.19,7.21-1.91,5.11-1.54,10.21-3.1,15.28-4.76,3.42-1.12,6.78-2.43,10.17-3.62.49-.17,1.06-.09,1.57-.23s1.21-.42,1.82-.64c1.32-.47,2.62-1,4-1.4s1.51-.92.89-2c-1.21-2.16-1.76-4.67-3.58-6.51a4,4,0,0,1-.64-1.44c-.42-1.13-1.12-1.47-2.18-1a32.91,32.91,0,0,1-8.14,2.85,47.86,47.86,0,0,0-5.26,1.27c-1,.29-2,.84-3.05,1.13-2.34.65-4.72,1.17-7.07,1.82-2.14.59-4.22,1.39-6.37,1.92-3.28.8-6.59,1.48-9.91,2.14-1.77.35-3.6.46-5.36.85-2.14.47-4.22,1.22-6.36,1.66-2.74.55-5.51.89-8.27,1.36s-5.66,1.07-8.5,1.54a22.92,22.92,0,0,1-3,.14q-4.93.16-9.85.3c-.19,0-.39-.15-1-.37,1.49-.49,2.64-1,3.84-1.26,3-.76,5.93-1.44,8.9-2.15a2.54,2.54,0,0,1,.92-.17c2.42.39,4.58-.75,6.88-1.1,2-.31,4.05-.38,6.06-.68,1.22-.18,2.4-.65,3.62-.9.58-.12,1.21,0,1.8-.08,1.18-.22,2.34-.56,3.52-.8.76-.15,1.55-.14,2.31-.31,1-.23,2-.63,3-.82,1.78-.33,3.59-.47,5.36-.85,1.54-.33,3-.9,4.54-1.36a43.21,43.21,0,0,1,6.65-2c2.78-.38,5.37-1.36,8.06-2a21.2,21.2,0,0,0,2.08-.78,8.86,8.86,0,0,1,1.66-.43c4.19-.55,8.12-2,12.46-3.34-1-1.32-1.87-2.38-2.69-3.44-.57-.74-1.12-1.49-1.69-2.24-.27-.35-.53-.71-.83-1a49.25,49.25,0,0,1-3.7-4.1,2.5,2.5,0,0,0-2.86-1.14q-7.14,1.63-14.27,3.33c-3.2.77-6.37,1.61-9.57,2.38a2.07,2.07,0,0,1-1.29,0,1.34,1.34,0,0,0-1.8.19c-.17.18-.55.18-.83.2-.06,0-.24-.34-.19-.42.18-.27.39-.64.66-.72,1.44-.44,2.91-.81,4.37-1.2,3.43-.92,6.85-1.87,10.29-2.76,1.63-.42,3.28-.75,4.93-1.07.37-.07.79.1,1.18.06a10.17,10.17,0,0,0,1.5-.3l4.45-1.14c.17,0,.34-.07.5-.1.1-2-.56-2.76-2.44-3.08a2.47,2.47,0,0,1-1.24-.65c-1.45-1.44-2.81-3-4.85-3.66a3,3,0,0,1-.91-.75c-1.16-1.08-2.25-2.25-3.48-3.24a2.34,2.34,0,0,0-2.5-.2,30.59,30.59,0,0,1-4.9,1.28c-.32.07-.73-.3-1.11-.47.3-.28.55-.71.9-.81,1.06-.3,2.17-.43,3.24-.72,1.32-.37,1.35-.77.55-1.8-2.18-2.8-5.51-3.8-8.37-5.54-2.34-1.43-5.07-2-7.39-3.26s-5-1.81-7.39-2.91c-1.36-.62-2.52-1.82-3.92-2.18-4-1-7.39-3.76-11.6-4.26a5.26,5.26,0,0,1-2.32-1c-2.11-1.51-4.51-2-7-2.42a41.61,41.61,0,0,1-5-1.54c-3.35-1-6.7-2.07-10.06-3.08-1-.29-2-.34-3-.71-1.68-.67-3.05.61-4.67.57-2.25-.05-4.51.41-6.77.52-2,.1-4,0-5.94,0-.41,0-.8.38-1.22.45a2.73,2.73,0,0,1-1.51,0,1.21,1.21,0,0,1-.37-1.14,1.71,1.71,0,0,1,1.11-.91c1.3-.15,2.62-.07,3.92-.17,1.1-.09,2.19-.33,3.29-.46s2.14-.14,3.19-.34c.4-.08.72-.55,1.07-.85a3.59,3.59,0,0,0-.88-.69,38.86,38.86,0,0,1-8-4.36,21,21,0,0,0-7.43-2.78c-1.72-.33-3.65.42-5.48.68,0,0-.08,0-.12,0-2.68.44-5.36.92-8.05,1.3-2.33.33-4.66.58-7,.78a11.12,11.12,0,0,1-2.22-.25,1.57,1.57,0,0,0-.51,0,54.22,54.22,0,0,1-13,1.51,18.05,18.05,0,0,0-3.83.37,6.83,6.83,0,0,1-4.92-.6,6.88,6.88,0,0,0-1-.36c.4,1.18-.09,1.21-1,1.23-1.87,0-3.73.41-5.6.49-2.93.13-5.86.15-8.8.17-.25,0-.51-.37-.77-.57.25-.21.47-.58.74-.62,2.41-.36,4.83-.63,7.24-1a34.29,34.29,0,0,1,7.08-.26c1.28.07,2.58-.6,3.9-.79,2.63-.37,5.27-.67,7.91-.93,1.31-.13,2.65,0,4-.17,2.15-.21,4.29-.5,6.43-.79,3-.41,6-.84,8.93-1.28q4.72-.69,9.44-1.42a10,10,0,0,0,1.42-.5l-3.52-2.71c-.81-.62-1.67-1.18-2.44-1.85-1.47-1.27-3.08-.76-4.7-.49s-3.23.4-4.83.66c-.73.12-1.43.44-2.15.56-3.15.51-6.3,1-9.46,1.44-1.85.24-3.72.27-5.58.46-4.11.42-8.2.92-12.31,1.31-1.84.17-3.7.12-5.54.22-.66,0-1.3.32-2,.38-3,.28-6,.59-9,.76-2.8.17-5.6.18-8.4.27-1.28,0-2.57.2-3.84.12a6.45,6.45,0,0,1-1.89-.76l-.08-.55a3.05,3.05,0,0,1,.52-.18c1.56-.24,3.13-.43,4.68-.72,1-.18,1.94-.54,2.92-.75a11.35,11.35,0,0,1,2.11-.22c2.1,0,4.2,0,6.29-.05A8.55,8.55,0,0,0,214,297c2.27-.39,4.54-.87,6.83-1.11,3.11-.32,6.24-.37,9.35-.67,3.74-.36,7.46-.84,11.19-1.28,4.18-.49,8.36-1,12.55-1.46.65-.07,1.34.29,1.93.25.8-.23,1.6-.47,2.4-.7a5,5,0,0,1,.53,0c2.16-.35,2.43-1,1-2.62a19.07,19.07,0,0,0-3.22-3.37c-.7-.5-1.92-.31-2.91-.35a10.62,10.62,0,0,0-2.1.13c-1.12.18-2.22.47-3.33.64-2.37.37-4.75.69-7.13,1-2,.28-4,.61-5.94.83-2.37.26-4.76.32-7.11.66-1.16.17-2.5-.33-3.5.71a.81.81,0,0,1-.49.18c-2.2.16-4.4.29-6.59.46a31.57,31.57,0,0,1-3.69.34c-2.55-.11-5.16.56-7.66-.48-.4-.17-.83-.28-1.24-.42l-.11-.39a19.74,19.74,0,0,1,2.5-1.13,12,12,0,0,1,4.14-.91c2.67.22,5.21-.62,7.85-.6a61.43,61.43,0,0,0,6.61-.68c2.2-.22,4.4-.37,6.6-.61,2-.22,3.94-.51,5.91-.78l5.88-.8c1.72-.24,3.44-.45,5.14-.76a2.55,2.55,0,0,1,2.48.53c.5.47,1,.54,1.38-.24a.42.42,0,0,1,.06-.12c.42-.45,1.26-1,1.19-1.34a8.38,8.38,0,0,0-1.21-2.65c-.56-.91-1.49-.63-2.14-.21a5.72,5.72,0,0,1-4.72.77,1.09,1.09,0,0,0-.66,0c-2.73,1.21-5.66.91-8.52,1.18-4,.39-8,.92-12,1.35-1.23.13-2.48.11-3.71.16a17.54,17.54,0,0,0-2.11.09c-1,.16-1.59,0-1.65-1.14,0-.17,0-.42-.13-.51-.42-.35-.88-.64-1.32-1-.29.44-.86.9-.83,1.32.09,1.2-.48,1.35-1.44,1.3-1.28-.06-2.58.06-3.85-.08a26.22,26.22,0,0,1-3.25-.76l0-.65c.61-.16,1.21-.35,1.82-.48.41-.08,1,.09,1.23-.14,1.46-1.46,3.38-.89,5.08-1.19a52.17,52.17,0,0,1,5.25-.51c1.32-.1,2.65-.1,4-.18a1.7,1.7,0,0,0,1.16-.5,3.73,3.73,0,0,0-.6-.11c-3.72-.09-7.44-.13-11.15-.26-1.27,0-2.53-.36-3.79-.49-3.34-.34-6.7-.61-10-1a22.52,22.52,0,0,1-3.11-.68c-2.94-.75-6-.69-8.89-2.06-4-1.91-8.16-3.46-12.21-5.25a46.75,46.75,0,0,1-4.68-2.53c-1.42-.83-1.92-.65-2.39.91-1.12,3.69-2.29,7.36-3.42,11a12.16,12.16,0,0,0-.38,1.82,10.6,10.6,0,0,1-2.4,4.79c-2,2.7-3.05,6-5.5,8.46-1.54,1.52-3.16,3-4.6,4.57-1,1.11-1.72,2.47-2.63,3.67a19.65,19.65,0,0,1-5.57,5c-1,.59-2,1.17-2.95,1.82-2.94,2-5.83,4-8.78,6a75.54,75.54,0,0,1-6.85,4.31,46.84,46.84,0,0,1-5.71,2.07,17.06,17.06,0,0,0-2.56,1.1c-2.62,1.48-5.16,3.12-7.83,4.52-1.78.94-3.78,1.46-5.58,2.37-1.51.77-3.29,1-4.57,2.33-.55.59-1.75.61-2.67.83-.37.09-.83-.08-1.17.07-2.23,1-4.43,2-6.64,3a2,2,0,0,1-.61.26c-3.14.18-5.09,2.45-7.37,4.15a9.32,9.32,0,0,1-4.38,1.36,40.74,40.74,0,0,0-4.55,1.35,7.66,7.66,0,0,1-2.55.51,2.51,2.51,0,0,0-2.44,1c-.95,1.25-1.9,2.47-3.61,2.77a1.52,1.52,0,0,0-1,.84c-.55,1.47-1.79,1.71-3.08,2a5.75,5.75,0,0,0-1.75.57c-2.33,1.37-4.66,2.75-6.92,4.24a35.63,35.63,0,0,0-3.28,2.69q-3.13,2.66-6.25,5.34a1.14,1.14,0,0,0-.39.67c-.12,1.45-1.19,2.15-2.26,2.79-3.68,2.2-6.18,5.51-8.55,9a13.17,13.17,0,0,1-2.13,2.06c-.35.32-1.05.55-1.09.88-.31,2.73-2.61,4.26-3.75,6.48-.14.27-.42.58-.37.82.24,1.35-.66,2.08-1.36,3a43.2,43.2,0,0,0-3.52,5.42,34.83,34.83,0,0,0-2,4.93,11.47,11.47,0,0,0-.63,2.84c-.22,2.54-2.71,3.87-3.18,6.3-.51,2.62-1.74,5-1.69,7.86a30.38,30.38,0,0,1-.92,6.51c-.84,4.12-1.51,8.32-.88,12.45.34,2.19-.15,4.36.41,6.5.63,2.44,1,5,1.62,7.4.84,3.31,1.8,6.6,2.73,9.89a12.47,12.47,0,0,1,.68,2.21,1.79,1.79,0,0,1-.63,1.47c-.36.19-1-.2-1.57-.36a.57.57,0,0,1-.31-.25c-1.2-2.18-2.47-4.33-3.52-6.59-.23-.49.35-1.36.54-2.06.08-.31.11-.64.17-1a3.6,3.6,0,0,1-.83-.13c-.47-.19-1.17-.34-1.31-.69-1-2.47-1.85-5-2.74-7.49a5.25,5.25,0,0,0-.39-1.26A11,11,0,0,1,1.55,436c-.28-2.19-.83-4.33-1.26-6.5a6.36,6.36,0,0,1-.19-1.18c0-2.53,0-5.06,0-7.59,0-2.13-.21-4.28,0-6.4.23-2.69.72-5.36,1.17-8a17.46,17.46,0,0,1,1.06-4.77c1.18-2.42,1.24-5.11,2.26-7.53.43-1,1.17-1.92,1.52-3,1.37-4,2.76-8,3.92-12.07,1.07-3.74,3.47-6.42,6.29-8.87a9.1,9.1,0,0,0,1.26-1.69l2.27-3.23c.84-1.19,1.67-2.38,2.54-3.54a34.73,34.73,0,0,1,2.28-2.84c1.06-1.14,2.2-2.2,3.33-3.27.64-.61,1.35-1.15,2-1.74,2-1.87,4.06-3.72,6-5.63a57.74,57.74,0,0,1,8.5-6.59c1.71-1.12,3.27-2.46,4.93-3.64,2-1.44,4.05-2.88,6.15-4.2a47,47,0,0,1,6.54-3.75c2.36-1,4.95-1.45,7.41-2.23,1.86-.59,3.7-1.28,5.52-2a11.16,11.16,0,0,0,1.58-1,24.27,24.27,0,0,1,3.4-2c2.43-1,4.92-1.78,7.41-2.59s4.75-1.37,7.09-2.19a21.4,21.4,0,0,0,3.41-1.73c3.47-2,6.86-4.08,10.39-5.93,2.62-1.37,5.4-2.42,8.11-3.63.36-.16.71-.38,1.07-.53,1.46-.63,3-1.14,4.37-1.9,2.08-1.13,4.36-1.82,6.2-3.5a37,37,0,0,1,6.72-4.91c2.12-1.19,3.46-3,5-4.68,2.3-2.44,4.67-4.8,7-7.22a2.29,2.29,0,0,0,.66-1.14c.38-2.84,2.43-4.5,4.43-6.1a6.36,6.36,0,0,0,2-3.33c.8-2.39,1.66-4.76,2.56-7.11.61-1.58,1.35-3.1,2-4.66a3.58,3.58,0,0,0-2.22-4.76c-2.05-.49-3.42-1.85-4.84-3.19s-2.89-3-4.41-4.45c-1.35-1.27-2.87-2.36-4.2-3.64a23.67,23.67,0,0,1-2.35-2.86c-2-2.65-4-5.32-6-8-1.29-1.72-3.08-3.1-3.58-5.36a1.35,1.35,0,0,0-.29-.44c-1.3-1.73-2.6-3.45-3.89-5.18a2,2,0,0,1-.46-.81c-.29-2.25-1.6-4.09-2.44-6.11-.68-1.66-1.5-3.26-2.21-4.9a23.45,23.45,0,0,1-1.41-3.74,2.88,2.88,0,0,1,.58-1.87c.5-.8.49-1.34-.52-1.32a2.34,2.34,0,0,1-2.49-2c-.89-3-2.45-5.79-2.84-9a29,29,0,0,0-1.56-5.08c-.27-.84-.51-1.7-.78-2.54s-.56-1.4-.74-2.12c-.24-1-.31-2-.58-3a16.36,16.36,0,0,0-1-2.19,8.28,8.28,0,0,1-.93-2.1c-.43-3.31-.75-6.63-1.1-10-.28-2.61-.53-5.21-.82-7.82-.06-.53-.21-1-.3-1.57-.24-1.49-.57-3-.67-4.48-.33-5.19-.61-10.38-.86-15.57-.2-4.17-.55-8.35-.42-12.51a86.28,86.28,0,0,1,1.32-9.49c.37-2.55.81-5.1,1.06-7.67a58.58,58.58,0,0,1,2.31-11.33A64.48,64.48,0,0,0,111.29,90a19.32,19.32,0,0,1,1.93-6.33c.9-1.54,1.14-3.45,1.81-5.15,1.14-2.89,2.38-5.75,3.6-8.61,1.47-3.44,2.88-6.9,4.47-10.28a66.91,66.91,0,0,1,3.5-6.14c.62-1,3.08-1.32,4-.59a1,1,0,0,1,.27.57,1.27,1.27,0,0,1-.07.66q-1.6,3.71-3.23,7.41c-.16.36-.57.65-.62,1-.55,3.68-2.38,6.84-3.85,10.18a68.05,68.05,0,0,0-2.89,9.44c-1.23,4.46-2.64,8.9-3.42,13.45-.4,2.35-1.35,4.54-1.55,6.91-.33,3.94-.81,7.87-1.07,11.82s-.31,8-.47,12c0,1.16-.25,2.31-.21,3.46.09,2.44.3,4.88.46,7.32a3.63,3.63,0,0,1,0,.8c-.6,3.67.28,7.21.84,10.8.39,2.54.36,5.15.52,7.73a9.46,9.46,0,0,0,.18,1.18c.47,2.43,1.18,4.76,1,7.36-.18,2.14.46,4.37.87,6.54.37,2,.85,3.91,1.38,5.83.87,3.13,1.84,6.23,2.76,9.35a6.07,6.07,0,0,1,.34,1.43c.17,4.29,1.78,8.24,3,12.26.71,2.37,2.15,4.52,3.27,6.76a3.11,3.11,0,0,1,.46,1c.23,2.63,2,4.66,2.72,7,1.45,4.65,4.47,8.24,7.27,12,1.07,1.45,1.7,3.22,2.68,4.74a40,40,0,0,0,2.64,3.25c1.06,1.31,2.07,2.65,3.16,3.93.51.61,1.2,1.06,1.72,1.66,1.69,2,3.32,4,5,6a7,7,0,0,0,1.42,1.11c1.93,1.33,3.9,2.6,5.81,4,1,.73,1.93,1.65,2.95,2.39,1.62,1.18,3.25,2.35,4.95,3.39a51.36,51.36,0,0,0,4.7,2.5c3.16,1.51,6.33,3,9.54,4.42,1.9.84,3.88,1.5,5.82,2.24a2.22,2.22,0,0,1,.72.33c1.76,1.63,4,1.5,6.15,1.75.77.09,1.52.34,2.29.5,1.46.3,2.92.66,4.39.87,1.09.15,2.22.07,3.33.13a24.38,24.38,0,0,0,6.07-.51c1.75-.34,3.62,0,5.43-.17.8-.05,1.57-.54,2.38-.65,1.9-.26,3.81-.42,5.71-.6,3.23-.3,6.47-.45,9.68-.9A37.46,37.46,0,0,0,240.4,266a71.64,71.64,0,0,0,7.74-2.44,26.46,26.46,0,0,0,4.92-3.29c1-.74,1.87-1.7,3.28-1.5,0,0,.1,0,.13,0l2-1.53c-.68-.16-1.35-.33-2-.47a.82.82,0,0,0-.52.1,28.21,28.21,0,0,1-8.11,2.54c-3.56.77-7,2.09-10.56,2.83-3.91.81-7.91,1.22-11.87,1.82-2.5.38-5,.88-7.5,1.14q-6.29.64-12.6,1a53.29,53.29,0,0,1-8.46.1c-3.09-.31-6.29-.54-9.06-2.3-.22-.14-.4-.32-.78-.63a3.84,3.84,0,0,1,1-.44c2.91-.16,5.82-.29,8.73-.43,2.3-.11,4.6-.24,6.9-.33.89,0,1.78,0,2.67,0s1.74-.19,2.6-.3a9.42,9.42,0,0,1,1.18-.19,85.43,85.43,0,0,0,15.63-1.84c3.26-.6,6.56-1,9.82-1.61,1.52-.27,3-.74,4.49-1.17,3.71-1.06,7.42-2.12,11.12-3.24a11.91,11.91,0,0,0,2.09-1.14l-2.64-1.58c-.12.26-.2.68-.45.89a4.77,4.77,0,0,1-1.18.55,2.73,2.73,0,0,1-.2-1,2.68,2.68,0,0,1,2.77-1.84c1.43-.06,2.85-.34,4.27-.53s2.52-1.13,4-.42a1,1,0,0,0,.86-.42c.4-1.48,1.61-1.27,2.69-1.43a8.07,8.07,0,0,0,1.74-.61,4.94,4.94,0,0,1,1.07-.5,3.06,3.06,0,0,1,1.07.27,5.78,5.78,0,0,1-.45.87c-1.53,2-4,1.87-6.11,2.64-1.4.52-2.78,1.12-4.22,1.7.34,1,.94.94,1.62.7,1-.37,2.12-.66,3.13-1.09,2-.83,3.9-1.72,5.82-2.65.27-.13.36-.59.59-.85s.61-.82.9-.81c1.17,0,1.61-.87,2.37-1.46a22.33,22.33,0,0,0,4.42-5.28,5.52,5.52,0,0,0,.45-1.14,8.27,8.27,0,0,0-1.25,0c-.88.09-1.76.23-2.63.39q-1.63.28-3.26.62a6.9,6.9,0,0,1-2.07.48c-2.17-.29-4,.84-6.07,1.13-3,.44-6,.83-8.92,1.24-.5-1.59-.31-1.91,1.14-2.24,3.38-.77,6.73-1.88,10.15-2.25s6.9-1.67,10.44-2a29.34,29.34,0,0,0,4.14-.88,1.85,1.85,0,0,0,.94-.48c2.36-2.76,6-4.22,7.36-8,.65-1.87,2.24-3.4,3.38-5.1.31-.46.54-1,.81-1.45l-.27-.34c-1,.47-2.08.88-3.06,1.42-.64.35-1.13,1-1.77,1.33-2.46,1.4-4.91,2.85-7.46,4.09-1.89.92-3.94,1.51-5.91,2.27a8.1,8.1,0,0,0-1,.56,9.71,9.71,0,0,1-5.23,1.58,2.19,2.19,0,0,0-.75.18l-2.6.91c-1.7.59-3.39,1.25-5.12,1.75s-3.56.76-5.32,1.22a46,46,0,0,1-10.39,1.09,7.18,7.18,0,0,0-1.58.24c-2.33.61-2.45.57-3.53-1.53l-.56,1.26-5.18-.85-.05-.71c1.19-.3,2.37-.65,3.58-.89s2.37-.35,3.55-.52a2.67,2.67,0,0,1,1.05-.12,6.52,6.52,0,0,0,4.48-.32,11.9,11.9,0,0,1,4.55-.82c2.15.09,3.86-1,5.79-1.47,4-1,8-1.57,12-2.44,1.37-.3,2.65-1,4-1.39a2.27,2.27,0,0,1,1.47,0c.76.34,1.08,0,1.55-.51a6.34,6.34,0,0,1,1.73-1.24c1.29-.73,2.61-1.4,3.91-2.12.42-.23.81-.77,1.22-.77,2.73,0,4.34-2.57,6.89-3,.46-.08.74-1,1.22-1.13a15.2,15.2,0,0,1,3.54-.89c1-.11,1.47-.34,1.34-1.45a1.65,1.65,0,0,1,.54-1.3,10,10,0,0,0,3.86-5.13c.7-2.1,1.6-4.14,2.41-6.2.26-.67.36-1.28-.47-1.64-1.42,2.22-3.56,3.06-5.95,3.5a3.69,3.69,0,0,0-1.24.65c-.94.62-1.83,1.34-2.81,1.89a2,2,0,0,1-1.29-.08c-.93-.25-1.66-.16-2.11.83a8.51,8.51,0,0,1-.74,1.11c-.44.66-1,1-1.66.38s-.92-.3-1.4.24a10.39,10.39,0,0,1-1.94,1.54c-.19.13-.61.21-.73.1-1.29-1.15-2.49-.3-3.84.11l.55,1.31c-1.05.44-1.88,1.36-3.29.84-.36-.13-1,.54-1.42.78l-1.9-.92.16,2.08-4.31.27A11.66,11.66,0,0,1,262,217c-.25.07-.73-.65-1.2-1.1.11,0,0,0,0,0-1,2.6-3.45,2.67-5.57,3.22-1,.26-2.12.81-3.13-.17-.09-.09-.6.21-.89.37-.62.34-1.22.74-1.86,1-.18.08-.51-.19-.77-.3.14-.24.22-.6.43-.69,1.25-.51,2.53-1,3.8-1.43.08,0,.22,0,.25-.08.85-2,3.22-1.79,4.69-3.1,1.71-1.52,4.29-2.06,6.5-3s4.22-1.9,6.38-2.7,4.6-1.37,6.84-2.22c1.74-.66,3.37-1.59,5-2.41.36-.18.66-.47,1-.62,2.22-.9,4.46-1.75,6.68-2.65.95-.38,1.87-.83,2.78-1.3,1.82-.94,3.57-2,5.43-2.85a5,5,0,0,0,3.23-3.76c.26-1.25.7-2.46,1.18-4.14a28.63,28.63,0,0,0-3,1.19c-1.94,1.06-3.8,2.25-5.74,3.31-1.52.84-3.1,1.55-4.65,2.35-2.15,1.11-4.3,2.25-6.45,3.38a1,1,0,0,1-.37.14c-3.67.17-6.45,2.81-9.9,3.59-1.68.38-3.34.89-5,1.27-4.13.92-8.25,1.89-12.4,2.67a40.89,40.89,0,0,1-7.22.75,36.81,36.81,0,0,1-5.7-.84,5,5,0,0,1,5.45-1.62.91.91,0,0,0,.83-.11c1-1.43,2.58-1.26,4-1.53,4.23-.83,8.5-1.5,12.72-2.4a63.38,63.38,0,0,0,8.08-2.23,76.37,76.37,0,0,0,10.21-4.22,91.64,91.64,0,0,1,8.42-3.63,36.67,36.67,0,0,0,4.09-2.48c1.93-1.11,3.87-2.2,5.85-3.21a5,5,0,0,0,2.7-4c.16-1.06.36-2.11.47-3.17a1.1,1.1,0,0,0-.33-.9c-.21-.13-.65,0-.94.16-2.41,1.11-4.8,2.27-7.23,3.35-2,.89-4,1.77-6,2.52-2.2.8-4.47,1.42-6.69,2.17-1.5.5-2.94,1.17-4.46,1.62-3,.88-6,1.75-9,2.47-3.93.93-7.89,1.73-11.86,2.51-.48.09-1-.3-1.93-.58a13.1,13.1,0,0,1,5.47-2.31c3.57-.87,7.16-1.71,10.68-2.77,2.24-.67,4.36-1.75,6.57-2.54,1-.36,2.15-.35,3.16-.69s1.79-.92,2.7-1.32a41.52,41.52,0,0,0,5.08-2.23c2.4-1.49,5.37-1.91,7.41-4.07.4-.42,1.13-.51,1.66-.82,2.41-1.4,4.82-2.82,7.21-4.26a1.68,1.68,0,0,0,.72-.91c.51-2,1-4.06,1.39-6.09a2.35,2.35,0,0,0-.17-.86,3.52,3.52,0,0,0-1,.24q-2,1.19-4,2.45a3.47,3.47,0,0,1-3.42.34,5.18,5.18,0,0,0-1.82,0l1.28,1.51c-.36.21-.83.53-1.33.77-1.31.62-2.66,1.16-4,1.8-1.82.9-3.57,1.93-5.41,2.77a27.61,27.61,0,0,1-2.72.64c-2.73.91-5.42,1.94-8.17,2.81a18,18,0,0,1-3.54.63c-.4,0-.84-.26-1.26-.41l-.06-.48c1.67-.74,3.31-1.55,5-2.2a30.06,30.06,0,0,1,3.43-.89.63.63,0,0,0,.13,0c2-1,3.92-2,5.89-3,.78-.39,1.58-.75,2.38-1.11a3.8,3.8,0,0,0,.74-.28c3.49-2.68,7.73-4,11.47-6.2,1.91-1.13,3.89-2.14,5.79-3.29,1.62-1,1.47-2.79,1.64-4.32a25.52,25.52,0,0,0-.14-4.41c0-.74-.33-1.22-1.21-.77-1.1.56-2.23,1.07-3.34,1.61a2.67,2.67,0,0,1-.72.34c-4.27.54-7.91,2.9-11.94,4.12-5.36,1.61-10.72,3.2-16.13,4.65-4,1.07-8,1.93-12,2.81a36.64,36.64,0,0,1-4.22.57,4.31,4.31,0,0,1-1.22-.24l0-.35c.58-.25,1.14-.53,1.73-.73,2.67-.9,5.35-1.75,8-2.65,2.39-.81,4.75-1.7,7.14-2.49,1-.35,2.19-.42,3.22-.81,4.62-1.75,9.24-3.52,13.82-5.39,3.72-1.52,7.38-3.2,11.09-4.77,1.68-.71,3.4-1.32,5.1-2a2.14,2.14,0,0,0,1.41-2.31c0-1.42.16-2.84.12-4.26a2.67,2.67,0,0,0-.64-1.9c-.4-.27-1.31.06-1.93.29-2.87,1.05-5.73,2.13-8.57,3.27-1.13.45-2.16,1.19-3.3,1.61-3.34,1.24-6.7,2.39-10.06,3.56a74.32,74.32,0,0,1-7.43,2.47c-4.48,1-8.85,2.81-13.59,2.25a1.48,1.48,0,0,1-.89-.43,10.29,10.29,0,0,1,1.47-.83c4.12-1.52,8.26-3,12.38-4.51,2.1-.77,4.18-1.61,6.3-2.31s4.35-1.25,6.49-2c1.51-.52,2.93-1.26,4.42-1.85,1.3-.52,2.64-.92,3.94-1.45,1.68-.69,3.35-1.42,5-2.18,1.85-.85,3.69-1.72,5.48-2.68a1.85,1.85,0,0,0,.82-1.3,29.35,29.35,0,0,0-.1-3.61c-.09-1.54-.41-1.73-1.81-1.15-3.33,1.36-6.61,2.86-10,4-2.84,1-5.81,1.55-8.71,2.38-1,.28-1.85.94-2.83,1.21-2.82.8-5.66,1.6-8.52,2.22-3.25.71-6.53,1.27-9.81,1.82a9.64,9.64,0,0,1-2.32-.17l-.09-.7c1.61-.65,3.19-1.39,4.84-1.93s3.6-.92,5.38-1.45c4.12-1.22,8.3-2.32,12.32-3.8,4.61-1.7,9.08-3.77,13.63-5.65,1.89-.78,3.79-1.54,5.72-2.22a1.38,1.38,0,0,0,1-1.87c-.3-1-1.15-.67-1.81-.43-.91.33-1.76.84-2.68,1.15-3.3,1.11-6.6,2.22-9.94,3.21-4.12,1.23-8.28,2.32-12.42,3.5-3,.86-6,1.81-9.08,2.63a35.58,35.58,0,0,1-4.31.77c-2,.29-4.11.54-6.17.74-2.33.23-4.67.39-7,.57-.19,0-.39-.06-.68-.37a9.2,9.2,0,0,1,1.78-.94c3.42-.94,6.82-2.17,10.31-2.64,4.42-.6,8.59-2.11,12.93-2.91a47.09,47.09,0,0,0,5.13-1.38l9.57-2.89c2.77-.83,5.55-1.62,8.31-2.5,1.73-.55,3.45-1.19,5.13-1.88a1.55,1.55,0,0,0,1-2,19,19,0,0,1-.46-4.16c0-1.74-.28-2-1.91-1.35-2.52,1-5.05,1.94-7.58,2.91a2.91,2.91,0,0,1-.76.26c-3.3.26-6.23,1.89-9.41,2.58a24.67,24.67,0,0,1-3.86.24l-.12-.52c.94-.69,1.87-1.4,2.83-2.06a17.7,17.7,0,0,1,1.94-1.16,9.55,9.55,0,0,1,1.82-.75c.89-.24,1.83-.31,2.71-.58,1.29-.39,2.55-1.28,3.85.13.7-1.76,2.11-2.12,3.53-2.54,1-.3,2-.78,3-1.19a16,16,0,0,1,1.92-.78c.84-.22,1.52-.59,1.27-1.53-.58-2.22-1.28-4.41-1.94-6.6-.27-.91-.77-1.23-1.68-.67a34.51,34.51,0,0,1-3.35,1.9c-3.54,1.66-7.08,3.33-10.69,4.83-1.58.66-3.34.86-5,1.37-1.05.32-2,.86-3.07,1.23a7,7,0,0,1-2.08.46c-.37,0-.76-.39-1.14-.6.2-.29.34-.74.61-.85,2.1-.83,4.2-1.65,6.33-2.38a43.65,43.65,0,0,0,7.12-3.13c1.93-1.07,4-1.91,6-2.86.6-.28,1.16-.64,1.77-.87a12.17,12.17,0,0,1,2.14-.57c1.05-.18,1.78-.55,1.62-1.81-.25-2-.44-4-.73-5.94-.13-.89-.51-1.41-1.53-.69a21.44,21.44,0,0,1-3.76,2.28c-2.17.93-4.44,1.61-6.65,2.44-.38.14-.65.59-1,.75a15.2,15.2,0,0,1-7.24,1.55c-.15,0-.29-.16-.75-.45a51.64,51.64,0,0,1,5.61-3.37c3.47-1.54,7.05-2.85,10.62-4.15a25,25,0,0,1,3.69-.73,7.22,7.22,0,0,0,.2-1.74c-.19-2.19-.58-2.31-2.66-1.72-2.63.75-5.32,1.25-8,1.9-3,.74-6,1.56-9.05,2.28a29.24,29.24,0,0,1-3.48.52c-.19,0-.42-.23-1.05-.62,1.7-.67,3-1.31,4.43-1.72,1.57-.46,3.2-.7,4.81-1.05l10.76-2.42c.13,0,.27,0,.4,0,2.28-.38,2.68-1.25,2.25-3.5-.53-2.8-2.31-4.86-3.63-7.2-.7-1.25-1.07-2.69-1.76-4A52.88,52.88,0,0,0,293,60a1.06,1.06,0,0,0-1-.19c-1.77,1.18-3.49,2.43-5.22,3.66a6.27,6.27,0,0,1-.87.61c-3.49,1.66-6.95,3.39-10.49,4.92-2.68,1.15-5.46,2-8.21,3a5.75,5.75,0,0,1-1.21.16l-.2-.32a4.32,4.32,0,0,1,.84-1c2-1.28,4-2.6,6.13-3.74,2.57-1.39,5.22-2.64,7.87-3.88,1.58-.74,3.38-1.13,4.82-2.07a18.81,18.81,0,0,1,5.89-2.28c.25-.06.57-.94.43-1.24-1.38-2.89-2.79-5.77-4.34-8.57-.29-.53-1.21-.72-1.88-1.08.89-1,.41-2.13-.36-3.18-1.68-2.29-3.41-4.54-5.12-6.81-1.36-1.81-2.64-3.67-4.07-5.42-1.23-1.5-2.59-2.89-3.93-4.3A10.46,10.46,0,0,0,270.49,27c-1.53-1.06-3.09-2.06-4.62-3.11a.81.81,0,0,1-.36-.53c0-1.83-1.51-2-2.72-2.58a37.58,37.58,0,0,1-4-2.33c-1-.66-1.92-1.57-3-2.14-2-1.08-4.08-2-6.14-3a1.52,1.52,0,0,0-.63-.22c-3.44.09-6.37-2-9.62-2.37-4.89-.48-9.11-3-13.8-3.94A40.56,40.56,0,0,0,220.47,6c-3.64-.25-7.28-.47-10.93-.52a31.22,31.22,0,0,0-4.68.62,32.93,32.93,0,0,0-4.48.66c-3.54,1-7,2.19-10.55,3.31a2.08,2.08,0,0,1-.37.15A37.61,37.61,0,0,0,177.63,14c-1.61.73-3.42,1-5,1.8-3.24,1.58-6.36,3.38-9.58,5a11,11,0,0,1-2.35.41,1.83,1.83,0,0,0-.89.59c-.64.75-1.07,1.77-1.84,2.27-1.9,1.21-4,2.19-6,3.24a12.18,12.18,0,0,1-1.41.5,7.68,7.68,0,0,1,3.23-4.09c2.18-1.69,4.36-3.39,6.67-4.89,2.08-1.35,4.33-2.45,6.51-3.65a52.48,52.48,0,0,0,5-2.8c5.19-3.67,11.1-5.57,17.09-7.34,2.35-.69,4.67-1.73,7.07-2,5-.54,9.86-2.54,15-2a3.57,3.57,0,0,0,.8,0c2.59-.33,5.17-.86,7.76-1s5.29.21,7.94.36c.4,0,.78.22,1.18.23C233.2.67,237,2.67,241.1,3.68a30.56,30.56,0,0,0,4.21.62,18.8,18.8,0,0,1,7.67,2c.72.41,1.58.56,2.34.9,1.69.76,3.37,1.54,5,2.36a3.87,3.87,0,0,1,1.38,1,9.44,9.44,0,0,0,4.1,2.83,20.57,20.57,0,0,1,3,2.08,33.53,33.53,0,0,0,2.93,1.82,12.74,12.74,0,0,1,4.55,3.42,18.72,18.72,0,0,0,2.2,1.94c.63.6,1.13,1.33,1.77,1.91s1.44,1,2.06,1.64a12.88,12.88,0,0,1,1.3,1.78c.5.71,1,1.43,1.52,2.12.18.24.48.4.67.65.92,1.17,1.85,2.34,2.72,3.55,1.25,1.72,2.46,3.47,3.68,5.22a1.1,1.1,0,0,1,.26.61c-.15,2,1.36,3.11,2.56,4.28,2,1.93,2.5,4.5,3.35,6.95A22.71,22.71,0,0,0,300,54.66c.61,1.13,1.25,2.25,2,3.32,1.67,2.47,2.47,5.31,3.5,8a3,3,0,0,0,.47.94c2.86,3.2,4.12,7.06,4.79,11.22a37.92,37.92,0,0,0,1.73,7.25,13.56,13.56,0,0,1,1.14,4.65c0,1.36,1,2.71,1.62,4a22.47,22.47,0,0,1,2.18,9.93,37.27,37.27,0,0,0,.23,4.13c.23,2.65.51,5.29.74,7.94.26,3,.46,5.91.74,8.85.19,1.95.49,3.88.73,5.82a2.48,2.48,0,0,1,0,1.05c-1.06,3-.27,6.07-.39,9.11,0,1-.38,2-.36,3,0,1.46.46,2.93.38,4.37-.18,3-.58,6.09-.89,9.13,0,.09-.06.19,0,.26,1.27,2.84-.77,5.57-.29,8.41.11.66-.43,1.42-.62,2.15-.61,2.41-1.23,4.82-1.79,7.24-.94,4.07-1.89,8.14-2.75,12.22-.32,1.52-.39,3.09-.6,4.63a3.91,3.91,0,0,1-.35,1.67c-1.35,1.9-1.52,4.16-2.13,6.29s-1.41,4.22-2.1,6.33c-.3.92-.54,1.86-.81,2.79a3.23,3.23,0,0,1-.26.75c-2.46,4.11-4.83,8.27-7.43,12.29a44.61,44.61,0,0,0-3.54,5.56c-1.13,2.45-2.26,5.18-4.91,6.65-.29.16-.46.53-.68.81a9,9,0,0,1-3.25,3.07c-.82.36-1.39,1.34-2,2.1-2.05,2.51-4,5.1-6.13,7.55a27,27,0,0,1-3.28,2.9c-2.11,1.76-4.25,3.49-6.36,5.25a2,2,0,0,0-.61.86c-1,3-3.39,4.75-5.74,6.47-1.83,1.34-2.94,2.82-2.44,5.17a2.67,2.67,0,0,1,0,1.07c-.72,3.51,1.05,6.11,3.25,8.46,1.51,1.62,3.39,2.9,4.87,4.53a20.68,20.68,0,0,0,6.95,4.77,27.32,27.32,0,0,1,3.5,2.34,15.54,15.54,0,0,0,6.17,2.2,16.62,16.62,0,0,1,3,1.07c1.28.49,2.57,1,3.84,1.51a9.16,9.16,0,0,1,1.84,1c2.91,2.17,6,3.61,9.79,3a4.78,4.78,0,0,1,2.82.9,9,9,0,0,0,4.32,1.57A10.86,10.86,0,0,1,316,302.9a12.2,12.2,0,0,0,2.87,1c2.64.77,5.29,1.52,7.93,2.29a.83.83,0,0,1,.36.16c2.75,2.87,6.57,3.28,10.06,4.43.54.18,1,.58,1.54.78a14.32,14.32,0,0,0,1.76.42,11,11,0,0,1,2.09.49c1.68.75,3.34,1.58,5,2.45.52.28.89.84,1.4,1.15,1.73,1.06,3.49,2.07,5.25,3.09a.64.64,0,0,0,.38.11c3.66-.6,5.79,2.16,8.46,3.77,2.24,1.35,4.62,2.46,6.94,3.67.27.14.65.23.79.46,1.34,2.27,3.93,2.82,5.78,4.33s3.8,2.81,5.45,4.46a34.12,34.12,0,0,0,5.82,5.22,16.62,16.62,0,0,1,6.35,6.7,5.35,5.35,0,0,0,.67,1c1.53,1.89,3,3.83,4.63,5.64.94,1.05,2.23,1.79,3.14,2.87a16.11,16.11,0,0,1,1.63,3,11.07,11.07,0,0,0,.58,1c.76,1.12,1.55,2.22,2.3,3.35a9.79,9.79,0,0,0,1,1.7c1.65,1.58,2,3.7,2.68,5.74a5.82,5.82,0,0,0,.75,1.83,25.19,25.19,0,0,1,4.46,10,31.49,31.49,0,0,1,1.09,8.4,4.69,4.69,0,0,0,.32,1.14c.45,1.88.92,3.76,1.32,5.65a21.37,21.37,0,0,0,.56,3.28,15.51,15.51,0,0,1,.62,7.24,46.6,46.6,0,0,0,.15,5.18c0,1.33.05,2.67,0,4a5.37,5.37,0,0,0,.56,3.33,3.12,3.12,0,0,1-.22,2.51,7.17,7.17,0,0,0-.57,4.81,2.15,2.15,0,0,1,.1.79c-.49,2.48-1,5-1.54,7.43-.37,1.6-.93,3.16-1.37,4.74-.62,2.2-1.14,4.42-1.83,6.59a13.24,13.24,0,0,1-1.42,2.55c-.42.71-.88,1.4-1.33,2.12l2.38.52a9.15,9.15,0,0,1-.84,2.17,20.86,20.86,0,0,1-3.47,4.25c-2.79,2.25-5.77,4.26-8.77,6.23-1.78,1.17-3.75,2.05-5.61,3.09-2.71,1.51-5.37,3.1-8.1,4.57-3.78,2-7.41,4.35-11.52,5.76-1.58.54-3,1.47-4.57,2.16-2.72,1.21-5.44,2.43-8.22,3.51-1.06.41-2.29.36-3.4.67s-2,.77-3.06,1.16-2,.69-2.94,1.06c-1.15.44-2.28.93-3.43,1.35-.57.21-1.2.26-1.78.45-1.64.52-3.3,1-4.91,1.62-3.83,1.45-7.61,3-11.46,4.42-1.37.5-2.9.52-4.3.94-2.16.64-4.28,1.44-6.41,2.18-.42.15-.82.52-1.21.51-4.2-.16-8.12,1.45-12.21,1.93a35.5,35.5,0,0,0-3.45,1c-1.73.39-3.48.64-5.22,1a8.53,8.53,0,0,0-2.8.75c-4,2.48-8.29,3-12.83,2.85a31.59,31.59,0,0,0-4.24.46c-1.1.11-2.21.12-3.3.26-1.49.19-3,.47-4.44.72,0,0-.09,0-.13,0-3.58-.81-6.81,1.36-10.38,1.16-2.43-.14-4.9.82-7.38,1-2.17.16-4.37.94-6.58,0a2.94,2.94,0,0,0-1.71,0,29.87,29.87,0,0,1-10.06,1,27.52,27.52,0,0,0-5.67.42c-1.8.23-3.54.59-5.39,0a11.27,11.27,0,0,0-3.05,0q-5.38,0-10.77-.12c-2.35,0-4.71-.07-7.06-.14s-4.68-.24-7-.24c-1.05,0-2.11.42-3.16.42-2.4,0-4.8-.22-7.19-.21a30.72,30.72,0,0,1-6.43-.93,36.61,36.61,0,0,0-9.13-1c-2.7.14-5.16-.67-7.74-.85-2.37-.17-4.77,0-7.15,0a15.53,15.53,0,0,1-2.37-.34q-2.15-.38-4.3-.79c-1.18-.23-2.34-.6-3.53-.72-5.38-.54-10.63-2-16-2.5-3.77-.37-7.3-1.57-11-2.27-3.27-.62-6.52-1.36-9.78-2.07-4.12-.9-8.26-1.73-12.35-2.78-3.55-.91-7-2.09-10.55-3.15-.47-.14-1-.2-1.43-.33l-7-2.05c-2.13-.62-4.28-1.2-6.4-1.89-.92-.3-1.74-.92-2.66-1.21-2.93-.9-5.93-1.56-8.81-2.58-3.37-1.2-6.66-2.66-9.95-4.08-2.89-1.25-5.82-2.44-8.57-4C40,478.17,38,477.56,37,475.58a1,1,0,0,0-.88-.32,4.61,4.61,0,0,1-3.41-.83c-2.24-1.26-4.61-2.29-6.76-3.67-2.55-1.64-5.78-2.05-7.89-4.54-.52-.61-1.71-.6-2.52-1-.4-.21-.62-.75-.93-1.14.47-.18,1-.59,1.39-.49a35.44,35.44,0,0,1,5.08,1.56c3.6,1.5,7.13,3.16,10.7,4.74s7.13,3.19,10.72,4.73c4.17,1.78,8.34,3.6,12.58,5.21,2.4.92,5,1.34,7.4,2.22s5.2.82,7.56,2.31c1.37.86,3.21.94,4.84,1.39,2.9.8,5.8,1.65,8.71,2.42.9.24,1.84.29,2.76.46a10.11,10.11,0,0,1,2.86.58c3.79,2,8,2.49,12.05,3.28,2.48.48,5,.65,7.52,1.07a24.49,24.49,0,0,1,3.83,1.08,18.08,18.08,0,0,0,7.7,1.24,12.26,12.26,0,0,1,3,.53,13.75,13.75,0,0,0,3.41.47c1.83-.17,3.37.64,5,1,2.5.57,5.09.77,7.64,1.15,1.1.16,2.19.36,3.28.57.52.1,1.07.45,1.55.36,3.76-.69,7.2,1.17,10.87,1.24,3.85.07,7.71.36,11.54.74,3.4.34,6.78,1,10.17,1.44.26,0,.61.2.78.09,2.52-1.55,5.12-.16,7.68-.25.56,0,1.12.3,1.69.32q2.31.12,4.62.12c1.73,0,3.48-.22,5.19-.07s3.18-.73,4.7.22c2.51-1.14,5.18.76,7.7-.4a1.85,1.85,0,0,1,1.05-.08c2.93.56,5.84,0,8.76-.15,1.67-.1,3.35.12,5,.09,3-.06,6-.12,8.93-.35,3.92-.31,7.83-.81,11.75-1.16,2.34-.21,4.7-.25,7-.45a25.73,25.73,0,0,0,4.43-.69,13.86,13.86,0,0,1,6.21-.4,5.26,5.26,0,0,0,1.86-.05,69.25,69.25,0,0,1,12.59-1.34,31.09,31.09,0,0,0,4.69-.89c3.46-.56,7-.94,10.39-1.61,2.24-.44,4.37-1.54,6.62-1.83,3.81-.49,7.13-2.64,11.11-2.7,4.65-.06,9.05-1.73,13.43-3.27a18.93,18.93,0,0,1,4.72-.84,15.53,15.53,0,0,0,6.09-2.23c.55-.29,1.15-.83,1.66-.77,2.6.33,4.61-1.39,7-1.83a34.54,34.54,0,0,0,9.69-3.66,17.31,17.31,0,0,1,3.17-.95l7-2.07a12.71,12.71,0,0,0,1.39-.49c4-1.74,8.09-3.47,12.11-5.25,1-.46,2-1.09,3-1.61.58-.3,1.22-.52,1.8-.83,1.55-.83,3.06-1.73,4.63-2.52a17.64,17.64,0,0,1,4.44-1.92C392.42,463.11,398,460.54,399.73,458.68ZM240.16,276.07l.09.53a21.17,21.17,0,0,0,2.69,0c2.85-.37,5.69-.9,8.57-.16a1.1,1.1,0,0,0,1.48-1.1,31.67,31.67,0,0,0,0-3.34c0-.69-.38-1-1.07-.65-.85.4-1.68.82-2.54,1.19-1.82.8-3.64,1.61-5.5,2.34C242.64,275.34,241.38,275.68,240.16,276.07Zm-4.57.79-.1-.56-2.41.43c.09.32.09.86.27.93A1.79,1.79,0,0,0,235.59,276.87ZM380,439.6l-.89-1.08c-.22.35-.64.72-.62,1s.45.75.7,1.12ZM226.49,278.47l2-.26C227.64,276.83,227.49,276.84,226.49,278.47Z"/><path d="M324.11,478.78l2.07,2.08c.38-3.23,2.34-4.43,4.62-3.2,2.18-2.06,3.52,1,5.64.91-.17-.65-.36-1.26-.46-1.88a1.18,1.18,0,0,1,.24-.81c.06-.08.45.11.7.15.58.08,1.17.13,1.75.2l.1-.42c.21.14.42.3.64.42s.6.28.89.42c.07-.32.12-.64.23-1,.16-.48.23-1.16.57-1.37a1.55,1.55,0,0,1,1.48.07c1,1,1.49.76,1.67-.12,2.78-1.51,5.63-.33,8.26-1.43.31-.82.88-1.19,2.06-1.36a31.86,31.86,0,0,0,7.25-1.82,10.74,10.74,0,0,1,4.26-1.13c.25,0,.55-.26.76-.47.63-.62,1.18-.55,1.36.29a1.09,1.09,0,0,0,1.61.85c1-.35.51-1,.15-1.62,0-.07,0-.17,0-.26,1,0,1,0,1.79,2-1,.37-1.92.81-2.92,1.11-1.25.38-2.55.61-3.8,1-2.31.68-4.59,1.47-6.92,2.1a10.5,10.5,0,0,1-2.33,0c-.36,0-1,0-1,.17-.79,1.89-2.61,1.94-4.17,2.44-1.3.42-2.63.76-3.95,1.14-.21.06-.46.22-.64.17-2.21-.66-3.85,1.36-5.95,1.23a6.8,6.8,0,0,0-1.82.13c-1.59.34-3.17.76-4.76,1.12-2.59.58-5.18,1.19-7.79,1.68-3.09.58-6.21,1-9.31,1.59-1.39.25-2.73.74-4.12,1a15.66,15.66,0,0,1-2.63,0l-.12-.39-.45,1-2.37.3-.52-2.25a4.19,4.19,0,0,0,3.56-1.71c.21-.28.9-.35,1.32-.28.21,0,.31.64.48,1s.46.81.69,1.21c.48-.4,1.34-.78,1.36-1.2.07-1.79,1-1.8,2.35-1.49.21.05.52.11.65,0a1.93,1.93,0,0,1,2.64,0c.24.16,1-.11,1.26-.42a1.92,1.92,0,0,1,2.37-.88C323.18,479.26,323.77,478.88,324.11,478.78ZM319,481.66l-.39-.59-1.34.92a3.76,3.76,0,0,0,.35.49C318.13,482.22,318.59,481.94,319,481.66Z"/><path d="M225.89,316.68c4.39-.37,8.77-.8,13.16-1.07a42.88,42.88,0,0,1,5,.27c.25,0,.58.07.76-.06,2-1.48,4.34-.84,6.56-.88a9.63,9.63,0,0,0,2.32-.32,3.94,3.94,0,0,1,3.23,0c.68.39,1.32.47,1.83-.37a1.42,1.42,0,0,1,1-.5c1.33-.09,2.66-.13,4-.12a12.07,12.07,0,0,1,1.55.27c.32,0,.76.17,1,0a5.59,5.59,0,0,1,5.42-.47,1.93,1.93,0,0,0,1-.05c1.28-.32,2.55-.72,3.85-1,.37-.07.82.31,1.24.48a4.36,4.36,0,0,1-.7,1.43,2.37,2.37,0,0,1-1.39.37c-3.45.18-6.91.29-10.35.5-2.57.16-5.12.44-7.68.67a4.19,4.19,0,0,1-1.06.09,12.82,12.82,0,0,0-4.25.06c-3.84.57-7.74.71-11.61,1l-9.66.83c-.09,0-.19,0-.26,0-2-.94-3.77.51-5.68.42-.71,0-1.43.11-2.13.05a3.65,3.65,0,0,1-1.11-.5c.32-.37.59-1,1-1.06a22.92,22.92,0,0,1,3-.39Z"/><path d="M304,422.33l-3.32.64c.47-1.28.76-2,1.9-1.86a2.5,2.5,0,0,0,1.29-.52c1.35-.81,2.7-1.58,4.38-1.22.13,0,.3.08.39,0,1.72-1.08,2.55.27,3.65,1.54a3.78,3.78,0,0,0,.42-1.13c0-.66,0-1.17.85-1.22s1.15.33,1.14,1.11c0,.11.12.22.16.31.82-.63,1.55-1.55,2.46-1.77s2,.23,3.13.4c.17,2-2.45,1.73-2.34,3.64-1.18-.94-1.79-.78-2.69.1a2.14,2.14,0,0,1-3,.28,3.16,3.16,0,0,0-1-.36l.13,1c-1.29.15-2.27-.12-2.65-1.81-1.13,2.28-2.95,2.29-4.94,2.19Z"/><path d="M357.48,345l-5.46.81c-.22,0-.5,0-.63.14-1.17,1.21-2.71.86-4.14,1.07-2.85.41-5.67,1.09-8.52,1.46-3.77.49-7.56.8-11.35,1.17-1.19.11-2.39.18-3.58.2a4,4,0,0,1-1.2-.46,27.63,27.63,0,0,1,3.47-1.12c2.3-.41,4.63-.72,6.95-1,3-.35,6-.57,9-.93,2.42-.29,4.83-.66,7.24-1,.69-.11,1.34-.46,2-.64a3.75,3.75,0,0,1,1.79-.28,2.68,2.68,0,0,0,2-.31c.66-.27,1.61.16,2.43.28Z"/><path d="M131.89,51.9a24.23,24.23,0,0,1-2.18-1.82,1.19,1.19,0,0,1-.13-1.12A43.39,43.39,0,0,1,132,45.33c.27-.36.79-.53,1.18-.81s.69-.38.76-.65c.35-1.34,1-2.31,2.55-2.11-.38-2,2.42-5.75,4.48-6.16a5.44,5.44,0,0,1-1.12,4.1c-1.51,2.45-3.26,4.76-4.84,7.17-.72,1.1-1.23,2.35-1.91,3.48A13.68,13.68,0,0,1,131.89,51.9Z"/><path d="M340.37,415.63c1-.28,1.92-.57,2.86-.81a3.59,3.59,0,0,1,1-.07c.93,0,1.86.11,2.79.17l2.19.16.33-1.58a1.28,1.28,0,0,1,1.62,1c.07.31-.55.78-.85,1.19a4.45,4.45,0,0,0-.86,1.27c-.46,1.72-1.45,2.26-3.26,1.78-.42-.11-1,.21-1.52.36l-.85-1.48-.53.19c0,1.55-.89,1.64-2,1.6a4.51,4.51,0,0,0-1.62.51c-1.36.53-1.85.25-2.52-1a16.15,16.15,0,0,0-1.87-2.35c.07,0,.48-.35.6-.26.87.61,2.32,0,2.84,1.39.07.18.76.31,1,.18a1.62,1.62,0,0,0,.77-.94A3.67,3.67,0,0,0,340.37,415.63Z"/><path d="M320.67,421.26a3.59,3.59,0,0,1,.6-1.1c.58-.5,1-.9.73-1.79s.29-1.2.95-.82a3.37,3.37,0,0,0,3.31-.19c1.69-.76,1.75-.75,1.66,1a3.61,3.61,0,0,0,.1.62,29.2,29.2,0,0,1,3-1.85,8.77,8.77,0,0,1,2.41-.49c.14,0,.37.21.47.38.47.77.9,1.56,1.36,2.33s.48,1.27-.59,1.34a3.46,3.46,0,0,1-.93.06c-1.26-.29-2.45-.44-3.31.83-.06.09-.24.11-.37.13a.85.85,0,0,1-.26,0c-.73-1.45-.71-1.43-2-.38-.83.69-1.7,1.18-2.63.05-.27-.32-.78-.43-1.13-.7a1.49,1.49,0,0,0-2.24.21,6.41,6.41,0,0,1-.8.6Z"/><path d="M249.63,241c.18,2,.17,2-1.64,2.22-3.38.5-6.74,1.1-10.11,1.66a4.93,4.93,0,0,1-.53.09c-3.08.17-6.17.4-9.25.46a14.28,14.28,0,0,1-3.13-.64l0-.6c.93-.09,1.87-.16,2.8-.27l5.46-.63c1.09-.13,2.18-.29,3.28-.43,3-.41,6.09-.79,9.13-1.25,1-.15,2-.51,2.94-.72A3.39,3.39,0,0,1,249.63,241Z"/><path d="M362.1,412.73l1.37-2.18a12.32,12.32,0,0,1,.63,1.82,1.41,1.41,0,0,1-.22,1.1c-.17.17-.72.05-1-.07-.8-.31-3.51.68-3.88,1.47-.07.15-.14.4-.07.5.78,1.06,0,1.42-.78,1.75-1,.44-1.69-.14-2.29-.86a8.88,8.88,0,0,0-1.16-1.39c-.2-.16-.7.08-1.06.13a2.88,2.88,0,0,0,.36.94,11.38,11.38,0,0,0,1.33,1.1c-1,.53-1.9.84-2.74,0a2.68,2.68,0,0,1,.12-3.08c.31-.32.57-.75.95-.93a1.93,1.93,0,0,1,1.35-.1c.25.09.31.67.46,1s.22.56.33.85c.22-.26.59-.51.62-.8.19-2,.26-2.09,2.12-1.91.13,0,.31.05.39,0C360.08,411,361,412,362.1,412.73Z"/><path d="M272.52,490.19a33,33,0,0,0,3.82-.92c1.23-.45,2.33-1.23,3.56-1.71a1.87,1.87,0,0,1,1.61.19c1.06.94,1.81,1.08,2.69-.23.32-.49,1.08-.68,1.84-1.12l-.08,1.33c.92-.52,1.75-.93,2.5-1.45s1.05-.16,1.29.47a1.62,1.62,0,0,1-1.56,2.27,10.49,10.49,0,0,0-3.72.55,61.82,61.82,0,0,1-6.41.6,1.85,1.85,0,0,0-1,.3c-1.44,1.16-2.92.65-4.4.17C272.56,490.59,272.53,490.2,272.52,490.19Z"/><path d="M295.24,70.3c-.21.07-.44.13-.64.23-2.23,1-4.4,2.2-6.7,3a18.36,18.36,0,0,1-4.82.66,1.56,1.56,0,0,1-1.14-.88c-.1-.26.32-.86.65-1.15,2-1.69,4.46-2.13,6.93-2.43a39.11,39.11,0,0,1,4.53-.12,3.71,3.71,0,0,1,.95.25Z"/><path d="M300.93,485.18a8.79,8.79,0,0,1,.91-1.5,2.93,2.93,0,0,1,1.4-1,1.88,1.88,0,0,1,2,2.89c-.14.27-.72.38-1.12.45-.86.15-1.73.19-2.59.34-1.48.26-2.95.6-4.43.84a14.17,14.17,0,0,1-3.19.27c-1-.08-1.78-.56-.72-1.7.2-.21.16-.66.37-.84a2.31,2.31,0,0,1,1.22-.61,1.26,1.26,0,0,1,.93.66c.46,1,1,1,1.72.31a5.42,5.42,0,0,1,.54-.39C298.95,484.13,299.93,483.53,300.93,485.18Z"/><path d="M236.5,253a3.42,3.42,0,0,1-2.7,2.59,18.64,18.64,0,0,1-6.82.54,5.34,5.34,0,0,0-2.16.58,2.24,2.24,0,0,1-2.78-1.12.88.88,0,0,1,0-.73c.11-.14.46-.11.71-.11a9.32,9.32,0,0,1,1.81.07,18.58,18.58,0,0,1,2.12.69l.07-1c1.23-.37,2.29-.77,3.4-1a4.12,4.12,0,0,1,1.84.15C233.62,254.13,235.17,254.6,236.5,253Z"/><path d="M304.48,451.06c-.48,2.5-2.58,1.35-3.82,1.92s-2.83-.31-4.44-.57V454c-1.2.12-2.45.29-3.71.35a3,3,0,0,1-1.54-.3,1.3,1.3,0,0,1-.6-1,1.21,1.21,0,0,1,.85-.81c2.8-.2,5.62-.29,8.42-.48.91-.06,1.8-.38,2.7-.52C303,451.13,303.72,451.12,304.48,451.06Z"/><path d="M272.93,54.87c-.23-.15-.61-.27-.67-.48a.93.93,0,0,1,.32-.77,15.28,15.28,0,0,1,6.92-3.47,8.12,8.12,0,0,0,1.71-.65,8.13,8.13,0,0,1,1.31-.62,2.74,2.74,0,0,1,1.06.21c-.17.35-.26.88-.54,1-1.61.82-3.28,1.53-4.9,2.33-1.3.63-2.56,1.34-3.86,2A9.94,9.94,0,0,1,272.93,54.87Z"/><path d="M405.68,417.2c-1,.76-1.88,1.43-2.76,2.08-.1.07-.3.14-.37.09-1.2-.91-1.79-.11-2.41.78a1.08,1.08,0,0,1-.8.42c-1.56-.12-2.63,1-3.92,1.5a7.76,7.76,0,0,1-2.57.15c0-.38-.15-.83,0-1.11s.61-.31,1-.36a23.06,23.06,0,0,0,6-2.12c1.82-.8,3.75-1.34,5.61-2.05a19.53,19.53,0,0,0,1.84-1.05,1,1,0,0,1,.71-.06c.1,0,.17.39.12.58A1.7,1.7,0,0,1,405.68,417.2Z"/><path d="M305.48,435.42a8.42,8.42,0,0,1,4.28-.48c.3,0,.68.27.87.16,2.09-1.25,4.41-.71,6.63-.9a3.59,3.59,0,0,0,.93,0c1.5-.58,2.3.27,3,1.41-.16.07-.3.2-.38.17-2.58-1.09-5.06,0-7.59.26-1.24.11-2.51-.08-3.76,0-.92,0-1.84.28-2.76.31a4.32,4.32,0,0,1-1.32-.4Z"/><path d="M378.48,464.51l2.81-2.16.82,2.15c-1.29.68-2.54,1.44-3.88,2a40,40,0,0,1-5.09,1.78c-.38.1-1-.51-1.41-.9-.07-.07.33-.81.65-1.06a2.86,2.86,0,0,1,3.34-.42C377.67,467,378.28,466.6,378.48,464.51Z"/><path d="M276.56,453.8c.78-.12,1.56-.31,2.35-.36,1.81-.1,3.62-.14,5.44-.2.27,0,.53,0,.8,0h1.73c0,.24,0,.6-.11.72a5.06,5.06,0,0,1-1.95,1.29c-.51.09-1.16-.59-2-1a4.84,4.84,0,0,1-.78.65,2.28,2.28,0,0,1-1.18.44,33.83,33.83,0,0,1-3.94-.53c-.32-.06-.56-.55-.84-.85Z"/><path d="M391.37,422.36a3.13,3.13,0,0,1-3.27,1.84,2.24,2.24,0,0,0-2.78.71c-.91,1-2.34.73-3.64.55a2.62,2.62,0,0,0-1.79.22c-1.28,1-1.23,1.1-2.64-.36Z"/><path d="M335.3,448.25c.77-.26,1.63-.23,1.71-1.38,0-.29.69-.77,1-.74a2.47,2.47,0,0,1,1.6.71,1.47,1.47,0,0,1-.91,2.1,23.06,23.06,0,0,1-3.55.45,2.84,2.84,0,0,1-1.52-.66,1,1,0,0,1-.29-.9,1.41,1.41,0,0,1,.92-.61c.21,0,.5.34.73.56A2.24,2.24,0,0,1,335.3,448.25Z"/><path d="M215.1,257.86c1-2.37,2.39-3.38,4.5-3.1.7.09,1.29,1.06,1.89,1.66a1,1,0,0,1-.4.55,4,4,0,0,1-1.78.41,2.58,2.58,0,0,0-2.21.43C216.71,258.1,215.92,257.86,215.1,257.86Z"/><path d="M388.14,405.74c.08.65-1.2,2.39-2,2.45a14.37,14.37,0,0,1-2.25-.26,2.24,2.24,0,0,0-1,.11,4.59,4.59,0,0,0-.95.71l-.93.78a2.94,2.94,0,0,1,2.9-3.33,5,5,0,0,0,1.11-.33,1.31,1.31,0,0,1,.72-.09C387.21,406.43,387.21,406.44,388.14,405.74Z"/><path d="M353.53,431c-.89.12-1.78.21-2.66.37s-1.75.45-2.64.62a2.82,2.82,0,0,1-1.25,0c-.22-.06-.35-.44-.52-.67a2.57,2.57,0,0,1,.72-.47c1.61-.37,3.22-.76,4.85-1a11.51,11.51,0,0,1,2.72-.07c.2,0,.49.55.5.86s-.48.54-.72.52a3.14,3.14,0,0,1-1-.52Z"/><path d="M318.55,449.44l.18,1.49a6.7,6.7,0,0,0-1.39.61c-.65.5-1.12.28-1.63-.2a1,1,0,0,0-1.62,0,4.82,4.82,0,0,1-1.35.64c-.08-.23-.3-.54-.22-.67a6.37,6.37,0,0,1,1.06-1.42c.17-.17.59-.09.9-.11Z"/><path d="M240.13,221c.11-.86.18-1.43.26-2,0-.13.08-.36.12-.36a20.86,20.86,0,0,1,3.36,0c.38,0,.74.73,1,1.19a1,1,0,0,1-.18.93,1.18,1.18,0,0,1-1.08,0c-.71-.72-1.27-.79-2,0C241.33,221,240.76,220.94,240.13,221Z"/><path d="M324.7,448.95a1.86,1.86,0,0,0-.44.37,3.27,3.27,0,0,0-.25.66c.23,0,.47.09.71.1a5.35,5.35,0,0,1,2,.34c-1.14.88-2.39.65-3.61.62a17.75,17.75,0,0,1-2.19-.11c-.26,0-.47-.4-.71-.62a9.54,9.54,0,0,1,2.16-1.46A6.44,6.44,0,0,1,324.7,448.95Z"/><path d="M307.38,451.08a34.39,34.39,0,0,1,3.33-.93c.26,0,.62.45.93.69a4.53,4.53,0,0,1-.86.79,6.38,6.38,0,0,0-1.71,1,11.46,11.46,0,0,0-1.76-.28,12.71,12.71,0,0,0-1.84.24C305.82,450.48,306.13,450.31,307.38,451.08Z"/><path d="M332.66,449.66a23.59,23.59,0,0,1-3.57.39c-1,0-1.68-.8-2.08-2,1.22-.1,2.3-.13,3.36-.29C332.1,447.46,331.37,449.43,332.66,449.66Z"/><path d="M298.59,436.21c-.53.59-.8.91-1.1,1.22s-.38.33-.69.61c-.8-1.5-1.78-1-2.91-.5-.48.22-1.22-.12-1.83-.28-.12,0-.27-.4-.22-.55s.32-.49.5-.49C294.3,436.2,296.26,436.21,298.59,436.21Z"/><path d="M374.57,408a11.27,11.27,0,0,1,1.89-.06c.29,0,.55.4.82.62a8,8,0,0,1-.91.32,3.21,3.21,0,0,1-.7,0l-.08.35,1,.34c1.14.43,1.64,1.61.9,2.24a4.54,4.54,0,0,1-1.3.53,5.62,5.62,0,0,0-.22-1.05c-.37-.88-.79-1.74-1.18-2.61A5.32,5.32,0,0,1,374.57,408Z"/><path d="M270.35,490c.2,1.32,0,1.62-1.48,1.77a7.54,7.54,0,0,1-2.25-.19c-.3-.06-.73-.47-.72-.71a1.11,1.11,0,0,1,.64-.85,8.61,8.61,0,0,1,1.84,0Z"/><path d="M214.2,257.37a5.25,5.25,0,0,1-.83.61,1.87,1.87,0,0,1-.79.06l-1.77,0a5.44,5.44,0,0,1,.52-1.82c.24-.33.93-.39,1.44-.47C213.67,255.61,214.44,255.7,214.2,257.37Z"/><path d="M359.91,429.88c-.68.27-1.34.58-2,.78a1.31,1.31,0,0,1-.85-.15,2.5,2.5,0,0,1,.19-1.3c.13-.23.63-.27,1-.34,1-.19,1.92-.39,2.88-.51.29,0,.79.14.87.35a1,1,0,0,1-.3.9,8.56,8.56,0,0,1-1.58.66Z"/><path d="M348.39,362.86c1.78-.6,3.55-1.25,5.36-1.75.46-.13,1.06.25,1.6.4-.42.29-.81.75-1.28.85-1.84.38-3.71.65-5.57,1Z"/><path d="M367.94,412.37c-1,.21-1.6.48-1.52,1.62,0,.36-1.3.82-2,1.24-.06-.38-.3-.86-.15-1.11A12.77,12.77,0,0,1,366,411.8C366.7,411.09,367.34,411.39,367.94,412.37Z"/><path d="M373.41,427.69a5.09,5.09,0,0,1-1-.45.79.79,0,0,1-.3-.66c0-.18.36-.35.58-.41a13.77,13.77,0,0,1,2.19-.53c.32,0,.68.24,1,.37-.19.44-.25,1.08-.58,1.27A6.56,6.56,0,0,1,373.41,427.69Z"/><path d="M237.85,220.89h-2.23l-.16-.32a7.77,7.77,0,0,1,1.46-1.18c.52-.25,1.53-.49,1.68-.28a4.37,4.37,0,0,1,.46,2c0,.12-.45.45-.52.41A4.18,4.18,0,0,1,237.85,220.89Z"/><path d="M383.58,464.55a3.77,3.77,0,0,1-.31-.93.88.88,0,0,1,.27-.67c.89-.65,1.81-1.28,2.75-1.86.25-.16.76-.26.91-.13s.29.81.17.91C386.28,462.71,385.14,463.47,383.58,464.55Z"/><path d="M340.11,431.94c.05-.07.1-.2.16-.2a10.12,10.12,0,0,0,3.85-.69c.2-.09.68.4,1,.62-.24.28-.47.79-.72.8-1.44.07-2.88,0-4.32,0Z"/><path d="M214.82,318.11a7.59,7.59,0,0,1,4.89-.49.72.72,0,0,1,.46.54.71.71,0,0,1-.5.49c-1.23.06-2.46.09-3.69.06C215.7,318.69,215.42,318.42,214.82,318.11Z"/><path d="M334.76,432.7c1.34-.15,2.57-1.23,4.11-.35-.55,1.77-2.15,1.06-3.25,1.4-.27.08-.69-.37-1-.57Z"/><path d="M399.6,403.19a11.67,11.67,0,0,1,1.29-1.81,1.1,1.1,0,0,1,1.07,0c.58.49,1,.8,1.69.13.16-.16.6,0,.9,0-.15.28-.24.65-.47.8a3.47,3.47,0,0,1-1,.24c-.87.23-1.72.48-2.59.69A4.14,4.14,0,0,1,399.6,403.19Z"/><path d="M293.07,469.63c1.3-.45,2.22-.84,3.19-1.07a2.47,2.47,0,0,1,1.33.23c.12,0,.21.63.13.69a2.45,2.45,0,0,1-1.23.54C295.48,470,294.48,469.8,293.07,469.63Z"/><path d="M402.18,454.32l4.41-.48A2.83,2.83,0,0,1,402.18,454.32Z"/><path d="M198,257.62c1.52-1.84,1.67-1.82,3,.21C199.79,258.67,199.21,258.64,198,257.62Z"/><path d="M390.19,405.3c.65-.28,1.09-.63,1.44-.56a4.22,4.22,0,0,1,1.28.8l-1.45,1.56Z"/><path d="M209.53,256.72a11.36,11.36,0,0,1-1.83,1.21c-.25.11-.72-.29-1.09-.46.2-.4.32-1.05.61-1.14a8.79,8.79,0,0,1,2.11-.16Z"/><path d="M247.79,252.06a22.73,22.73,0,0,1-2.21,1.41c-.26.13-.7-.11-1.06-.18a3,3,0,0,1,.27-.94A2.72,2.72,0,0,1,247.79,252.06Z"/><path d="M245.88,221c1.26-3.3,1.26-3.3,2.54-2.85Z"/><path d="M240.44,253.89a18.2,18.2,0,0,1-1.89,1.06c-.13.05-.42-.3-.64-.46l1.44-1.59Z"/><path d="M277.75,105.62l-2.44.5a1.49,1.49,0,0,1,1.55-1.7c.32,0,.69.53,1,.83Z"/><path d="M373.22,412.2c-.3,1.09-.43,1.12-1.41.22-.25-.23-.67-.28-.92-.5a1.26,1.26,0,0,1-.35-.77c0-.14.3-.45.41-.43a2.27,2.27,0,0,1,.72.41Z"/><path d="M286.25,436.82c1.83-1.09,3-.82,3.09.51Z"/><path d="M359.23,342.8l.93,1c-.33.29-.61.71-1,.84-.22.07-.6-.31-.9-.49Z"/><path d="M364.62,428.51l2.71-1.58C367.58,428.34,367.17,428.58,364.62,428.51Z"/><path d="M299.8,435.86c.31.59.69,1,.6,1.16a3.48,3.48,0,0,1-1.1.9s-.58-.52-.53-.64A9.47,9.47,0,0,1,299.8,435.86Z"/><path d="M303.7,436l-1,1.6-.41,0c-.06-.51-.34-1.15-.12-1.48s.92-.36,1.4-.53Z"/><path d="M398.27,404.69a4.42,4.42,0,0,1-.52-1.18c0-.21.33-.47.52-.71.26.31.63.58.73.93s-.21.62-.34.94Z"/><path d="M289.74,454.95l-1.7-.19-.14-.35c.25-.2.52-.57.75-.55a5,5,0,0,1,1.29.51Z"/><path d="M194.83,257h1.92l0,.6-1.93-.13Z"/><path d="M418.34,448.22l-1.59.75-.3-.6,1.56-.81Z"/><path d="M369.92,426.22a5.88,5.88,0,0,1,.72,1c0,.09-.39.5-.45.47a2.9,2.9,0,0,1-.86-.69S369.62,426.62,369.92,426.22Z"/></g></g></svg>
