<svg xmlns="http://www.w3.org/2000/svg" viewBox="0 0 283.23 365.47"><title>leaf</title><g id="Layer_2" data-name="Layer 2"><g id="Layer_1-2" data-name="Layer 1"><path d="M12.43,28c1.44-.47,1.17-1.4,1.16-2.25s0-1.8,0-2.7a1.45,1.45,0,0,0-.6-1.51c-.19-.13-.25-.56-.27-.85-.05-1,.35-2-.75-2.69-.13-.08-.09-.48-.09-.73,0-.71.07-1.42,0-2.12a3.43,3.43,0,0,0-.47-1.06c-.12-.24-.27-.48-.38-.72,0-.08,0-.25,0-.28-1.26-.81-.25-2.64-1.55-3.42,0-1.26-1.38-1.7-1.63-2.59C7.35,5.27,5.74,4.5,4.68,3.22c-.5-.6-.55-1,0-1.55S5.49.46,6,.24a2.72,2.72,0,0,1,2.16,0c.73.49,1,1.59,2.22,1.53a.45.45,0,0,1,.32.3c0,1.5,1.45,1.91,2.12,2.9.14.2.42.38.44.59a2.22,2.22,0,0,0,2,2.09c.49.1.9.66,1.31,1.06.66.65,1.25,1.37,1.94,2a1.58,1.58,0,0,0,1.06.27,1.55,1.55,0,0,1,1.51.59A14.25,14.25,0,0,0,22.7,13.1a2.67,2.67,0,0,0,.64.35l1,.52.65.33,1,.51.75.33.89.45.72.38s.08,0,.09,0c1,1,2.57.5,3.56,1.48a.89.89,0,0,0,.7.22c1.19-.27,1.83.48,2.48,1.24.12.14.3.4.4.37,1.22-.28,2.08.66,3.15.9.23.05.41.26.63.38s.57.31.87.44c.11,0,.28,0,.37,0A23.14,23.14,0,0,0,43,22.46a4.14,4.14,0,0,0,1.76.25c.8,0,1.5-.08,1.43,1.09,0,.19.49.54.8.59a6.45,6.45,0,0,0,1.83,0,2,2,0,0,1,2,.77c.4.52,1.22.66,1.56,1,1,1,2.16.73,3.3.75a.46.46,0,0,1,.34.14c.61,1.05,1.61.65,2.5.74a6.42,6.42,0,0,1,1.16.42,4.64,4.64,0,0,0,1.58.39,2.13,2.13,0,0,1,2.25.89c.56.95,1.41.87,2.27.81a1.77,1.77,0,0,1,1.62.52c.35.35,1.18.29,1.8.3a2.18,2.18,0,0,1,1.54.51,3.34,3.34,0,0,0,1.9.31c.57,0,1.1,0,1.4.57,0,.08.15.2.2.19,1.43-.36,2.41,1.11,3.79.94.23,0,.62,0,.7.17.56.93,1.45.68,2.25.66a1.62,1.62,0,0,1,1.52.57c.21.26.81.22,1.23.29.28,0,.71,0,.81.11.58.91,1.08.94,1.51-.1a20.42,20.42,0,0,0,2.56,1.57,5.42,5.42,0,0,0,1.8.11c.28,0,.72-.06.82.08.84,1.24,2.09.68,3.18.74a2,2,0,0,1,1.53.53c.35.34,1.12.3,1.7.32s1.31-.13,1.66.62c0,.05.11.13.14.12,1.41-.37,2.34,1.06,3.69,1a1.42,1.42,0,0,1,.95.28c.87.75,1.19.76,2-.06a2.34,2.34,0,0,1,.39-.26c.42.93,1.21.92,2,.84.17,0,.45,0,.52.17.58,1,1.57.61,2.41.72a6,6,0,0,1,1.24.45,3.48,3.48,0,0,0,1,.36c1.51,0,3,0,4.53,0,.25,0,.64-.07.74.06.88,1.23,2.16.66,3.28.77.41,0,.83,0,1.25,0a1.24,1.24,0,0,1,.63.15,3,3,0,0,0,4.14-.11c1.62,1.66,3.68,1.82,5.85,1.69a3.61,3.61,0,0,1,1.25.44,3.55,3.55,0,0,0,1,.35c1.51,0,3,0,4.53,0,.25,0,.64-.06.74.07.9,1.28,2.21.71,3.36.77a2,2,0,0,1,1.34.5,3.11,3.11,0,0,0,1.69.35c.63,0,1.28-.16,1.69.59a6.07,6.07,0,0,0,1.41-.37c.49.33,1.22.86,2,1.3a.87.87,0,0,0,.77-.22,1.79,1.79,0,0,1,2.43-.07,4.27,4.27,0,0,0,1.36.46c.39.13.78.28,1.17.44a3.4,3.4,0,0,0,.92.38,24.84,24.84,0,0,0,2.6,0c.66,0,1.26-.07,1.68.61.12.19.57.24.88.25.71,0,1.41,0,2.12,0,.27,0,.69,0,.79.18.46.77,1.17.58,1.85.69A2.32,2.32,0,0,1,171,53c.61.82,1.06,1.22,1.62-.22.75,1.31,1.84.93,2.85,1.05.59.07,1.11.71,1.68,1.07a9.37,9.37,0,0,0,1,.53c.14.07.39,0,.44.13.69,1.15,1.83.86,2.77.73a2.77,2.77,0,0,1,2.48,1.08,3.19,3.19,0,0,0,1.28.61,2,2,0,0,0,1,0,2.71,2.71,0,0,1,2.94,1.27c.14.2.47.27.71.38a8.41,8.41,0,0,0,3.11,1c.78,0,1.47,1.2,2.29,1.33,1.14.19,1.85,1.52,3.2,1.05.5-.17.65.28.7.78,0,.3.37.85.51.83,1-.12,1.34.75,2,1.19a8,8,0,0,0,1,.54l.66.32,1,.51a6,6,0,0,1,.65.35c.1.07.15.28.23.29,1,.11,1.63.58,1.65,1.67,0,.07.26.14.4.21a9.07,9.07,0,0,1,1.44.74,6.19,6.19,0,0,0,1.79,1.08c.82.28,1.39,1.26,2.09,1.91a1.61,1.61,0,0,0,.67.46,2.35,2.35,0,0,1,1.87,1.79c.22.62.88,1.47,1.39,1.5,1,.06,1.31.82,1.93,1.25.29.2.64.32.94.51a10,10,0,0,1,1.43,1c.7.66,1.33,1.38,2,2.08.09.09.2.23.29.23,1.4-.09,1.88,1.18,2.73,1.88a23.49,23.49,0,0,1,2,2.06c.09.09.19.25.28.25,1.56,0,1.95,1.7,3.06,2.15,1.76.71,2,2.65,3.44,3.56a1,1,0,0,0,.51.22c.78-.07,1,.3,1,1,0,.35.48.71.8,1,.63.56,1,1.58,2.1,1.4.1,0,.33.17.34.29.21,1.88,2.1,2.44,3,3.79.14.21.4.38.43.6a2.1,2.1,0,0,0,2,2c.19,0,.5.24.5.36,0,1.47,1.39,1.88,2.07,2.82.52.71,1.51,1.1,1.44,2.23,0,.14.51.42.8.44.55.05.68.27.84.8a7.37,7.37,0,0,0,1.15,1.64c.2.29.27.68.49,1,.48.58.91,1.37,1.54,1.61,1,.41,1.57.76,1.82,1.93,0,.22.27.41.41.6.73,1,2,1.46,2.23,2.95.14.77,1.26,1.37,1.93,2.05.15.16.44.35.42.48-.12.81.42,1.21.91,1.67a2.19,2.19,0,0,1,.88,1.59c0,.44.76.8,1.08,1.26a2.63,2.63,0,0,1,.49,1.23c0,.59,0,1.16.62,1.48.1,0,.24.2.23.29-.17,1.16.87,1.52,1.42,2.21a3.31,3.31,0,0,1,.31.66c.15.32.3.65.48,1,.09.16.35.31.33.44-.18,1.06.79,1.36,1.25,2,.11.15.41.3.39.39-.27,1.22.5,2.11.92,3.11.1.25.25.49.38.73l.45.88.4.81c.14.29.26.6.44.88a6.18,6.18,0,0,1,1,3c0,.4.72.76,1.11,1.14.14.13.41.31.38.4-.33,1.23.43,2.17.94,3.1s.56,2,1,2.9a3.52,3.52,0,0,1,.61,2.14.46.46,0,0,0,0,.28c.47.77,1,1.52,1.43,2.31a2.4,2.4,0,0,1,.22,1c.06.89-.33,1.89.74,2.5.12.07.15.42.12.62-.1.74-.1,1.39.65,1.85.16.1.17.52.18.8,0,.71,0,1.41,0,2.12,0,.28,0,.72.18.8.92.48.65,1.29.65,2,0,1.83,0,3.66,0,5.49,0,.31,0,.79.19.89.84.47.68,1.22.67,1.94,0,1.12,0,2.25,0,3.37,0,.71-.12,1.41.66,1.86.16.09.19.52.19.79,0,2.92,0,5.85,0,8.77a1.78,1.78,0,0,0,.62,1.11c.43.38.41.51,0,.85a1.55,1.55,0,0,0-.58,1c-.06,1.51,0,3,0,4.53,0,.25,0,.65-.08.73-1.23.8-.68,2-.74,3.07,0,.65.11,1.3-.64,1.65-.08,0-.17.17-.16.23.37,1.63-1.37,2.79-.94,4.47.18.72.31,1.63-.66,2.09.17,1.18-1.46,1.8-1,3.09a.68.68,0,0,1-.14.62c-1,.57-.71,1.5-.69,2.33,0,.57.05,1.09-.57,1.4-.12.06-.28.27-.26.37.2,1-.72,1.33-1.14,2a2.66,2.66,0,0,0-.54,1.3,1.64,1.64,0,0,1-.62,1.49,13.74,13.74,0,0,0-1.57,1.54,2.62,2.62,0,0,0-.35.64c-.17.35-.34.69-.5,1s-.41.6-.35.83c.32,1.22-.5,1.81-1.23,2.47-.14.13-.38.27-.38.41.05,1.52-1.41,1.93-2.08,2.91a9.13,9.13,0,0,0-.5.95,3.3,3.3,0,0,1-.43.79c-.6.62-1.25,1.19-1.85,1.81-.15.16-.16.46-.26.68a8.56,8.56,0,0,1-.44.87c-.08.13-.32.23-.31.34.07,1.43-1.23,1.92-1.93,2.81a15.5,15.5,0,0,1-1.49,1.49c-.11.11-.24.3-.36.3-1.48-.05-1.9,1.35-2.83,2-.71.53-1.11,1.42-2.23,1.47-.43,0-.82.74-1.24,1.13-.18.17-.44.46-.59.42-1.83-.45-2.5,1.12-3.5,2a4.54,4.54,0,0,1-2.7,1.45,9.32,9.32,0,0,0-3,.95c-1,.55-2.38.84-3,2.07a.66.66,0,0,1-.58.24c-1.23-.33-1.86.51-2.6,1.21a2,2,0,0,1-1.15.44c-.89.08-1.88-.3-2.51.73-.08.13-.41.16-.62.14-.72-.05-1.4-.09-1.87.66-.1.16-.52.16-.8.16-.74,0-1.48,0-2.22,0-.25,0-.63,0-.71.18-.48.93-1.29.64-2,.64l-8.1,0c-.24,0-.61,0-.7-.18-.52-.9-1.38-.68-2.15-.68a.85.85,0,0,0-.67.37c-.07.16.17.47.31.69s.4.28.38.39a3.33,3.33,0,0,0,.88,2.75,4.84,4.84,0,0,1,.61,1.18c.1.22.12.49.23.7a8.5,8.5,0,0,1,1,3c.12.81,1.16,1.47,1.34,2.3.24,1.13,1.45,1.93,1,3.28a1.36,1.36,0,0,0,.61,1.68c.2.12.22.63.22,1,0,.6,0,1.17.59,1.5.05,0,.14.1.13.13-.33,1.36,1,2.28,1,3.57,0,.84-.28,1.76.71,2.32.13.07.15.4.16.62a5.43,5.43,0,0,1,0,1.25,2.86,2.86,0,0,0,1.23,2.89,1.48,1.48,0,0,1,.47.95c0,.9,0,1.8,0,2.7,0,.63,0,1.24.64,1.57,0,0,.07,0,.07.06,0,1.2.7,2.19,1,3.28a13.77,13.77,0,0,1,0,3.26c0,.7-.14,1.42.67,1.86.17.09.21.51.21.78,0,1.83,0,3.66,0,5.49,0,.3,0,.77.22.88.74.44.63,1.09.63,1.77,0,5.27,0,10.54,0,15.81a1.58,1.58,0,0,1-.39,1c-.63.68-.68,1.17,0,1.74.35.29.41.46.08.84a2.48,2.48,0,0,0-.52,1.21c-.08.57.06,1.16,0,1.73a6.58,6.58,0,0,1-.51,1.31,3.33,3.33,0,0,0-.33.95c0,.8,0,1.61,0,2.41s.17,1.4-.64,1.84c-.16.09-.19.52-.2.8a14,14,0,0,0,0,2.31,2.09,2.09,0,0,1-.92,2.23,1.79,1.79,0,0,0-.78,2,2,2,0,0,1-.78,2.1c-.57.41-.69,1.12-1,1.69a10.29,10.29,0,0,1-2.62,3.67,19.21,19.21,0,0,0-2,1.9,1.09,1.09,0,0,0-.28.58,2.34,2.34,0,0,1-1.72,1.83c-.58.19-1,.78-1.55,1.16a7.11,7.11,0,0,1-1,.49,7.81,7.81,0,0,0-.73.37c-.18.12-.36.43-.5.41-1-.15-1.31.78-1.95,1.18a2.86,2.86,0,0,1-1.32.51q-2.94.08-5.88,0a2.06,2.06,0,0,1-1.19-.51c-.38-.33-.65-.4-.94,0-.39.58-1.14,1-1,1.89,0,.1-.26.37-.42.38-.57,0-1.14,0-1.83,0,.23-1.29,2-1.53,1.7-3-.25-1.08.65-2.44-.93-3.19,1-1,2-1.95,2.87-2.93a2.42,2.42,0,0,0,.56-1.21c.09-.6-.05-1.23,0-1.82a5.48,5.48,0,0,1,.5-1.32c0-.11.24-.21.23-.29-.35-1.65,1.5-2.86.93-4.57-.08-.24.22-.6.35-.9a4,4,0,0,0,.47-1.06c.07-.67-.06-1.35,0-2a5.66,5.66,0,0,1,.49-1.24,3.41,3.41,0,0,0,.33-1c0-1.25,0-2.51,0-3.76a1.35,1.35,0,0,1,.14-.73c.62-.89.64-.88-.17-1.66,1.22-.53.9-1.59.9-2.55,0-2.6,0-5.2,0-7.81a1.29,1.29,0,0,1,.48-.83c.44-.37.43-.61,0-1a1.63,1.63,0,0,1-.48-1c0-2.12,0-4.24,0-6.36,0-.22,0-.56-.11-.64-1.18-.77-.66-1.95-.75-3,0-.45,0-.9,0-1.35,0-.84.26-1.79-1-2.23,1-.61,1.25-1.17.12-1.72.24-.21.49-.32.54-.48a1.56,1.56,0,0,0,0-.84,7.74,7.74,0,0,1-.48-1.21,19.88,19.88,0,0,1,0-2.5,1.41,1.41,0,0,0-.62-1.5c-.18-.11-.25-.5-.26-.76,0-.71.09-1.42,0-2.12a5,5,0,0,0-.52-1.23,3.11,3.11,0,0,1-.32-.94c0-.7,0-1.41,0-2.12,0-.28,0-.72-.16-.81-1-.58-.57-1.51-.69-2.33a6.84,6.84,0,0,0-.55-1.4,2.87,2.87,0,0,1-.29-.86c0-.67.09-1.36,0-2a5.09,5.09,0,0,0-.55-1.31,6.71,6.71,0,0,1-.31-.67c-.07-.21,0-.56-.12-.63-1.08-.61-.65-1.62-.69-2.49,0-.58,0-1.16,0-1.73,0-.25,0-.64-.11-.74-1.25-.88-.56-2.16-.75-3.26a6.74,6.74,0,0,0-.54-1.41c-.07-.17-.31-.34-.28-.47.2-.89-.66-1.17-1-1.75a.61.61,0,0,0-.55-.22.77.77,0,0,0-.42.54c0,.89.14,1.76-.76,2.41-.14.1.08.79.23,1.18.08.2.36.32.61.53-.33.3-.59.52-.83.76a2.8,2.8,0,0,0-1,1.61,7.35,7.35,0,0,1-1.34,2.31c-.08.13-.27.28-.24.39.21.88-.49,1.27-1,1.74s-.84.75-.77,1.43c0,.18-.28.39-.43.59-.46.64-1.19,1-1.33,2-.11.82-.88,1.55-1.36,2.31-.05.08-.17.17-.16.23.25,1.2-.49,2.12-.92,3.1a7.12,7.12,0,0,1-1.12,1.48c-.14.17-.47.33-.46.46a5.21,5.21,0,0,1-.92,3c-.13.27-.26.54-.41.8s-.4.36-.38.51c.11.77-.4,1.17-.86,1.6s-1,.87-.91,1.66c0,.11-.17.25-.27.37-.57.68-1.28,1.13-1.52,2.19-.18.79-1.24,1.39-1.92,2.07-.13.14-.38.27-.38.4,0,1.52-1.42,2-2.17,3,0,0-.07,0-.08.06-.34.87-.62,1.8-1.85,1.81-.07,0-.3.7-.18.85a12.53,12.53,0,0,0,1.62,1.59,2.08,2.08,0,0,0,.77.23,7.63,7.63,0,0,1-.45.75,4.41,4.41,0,0,1-.51.5c-.84-.53-1.62-1-2.38-1.52a3,3,0,0,1-.56-.65c-.32-.39-.59-.38-.94,0q-1.26,1.38-2.59,2.69a2.81,2.81,0,0,1-.74.36c-.32.16-.64.32-.94.5-.13.08-.25.3-.36.29-1.09-.11-1.49.83-2.15,1.37-.22.18-.57.21-.82.37a8.88,8.88,0,0,1-3,1,9.7,9.7,0,0,0-2.3,1.4,1.63,1.63,0,0,1-.83.08c-.6,0-1.14,0-1.5.59-.1.17-.43.2-.66.3l-.9.4c-.3.14-.6.29-.9.42-.14.06-.4,0-.45.1-.63,1.13-1.69.58-2.58.72a4.87,4.87,0,0,0-1.15.5c-.28.13-.55.26-.83.37s-.48,0-.53.13c-.5.93-1.36.67-2.13.66s-1.28-.05-1.69.65c-.1.17-.51.21-.77.22-.74,0-1.48,0-2.22,0-.27,0-.7,0-.8.2-.45.78-1.14.66-1.85.65-2.15,0-4.31,0-6.46,0a4.11,4.11,0,0,0-1.23.51,2.84,2.84,0,0,1-.93.31c-1.54,0-3.08,0-4.63,0a3.74,3.74,0,0,0-1.15.49,2.92,2.92,0,0,1-.92.34c-.86,0-1.74,0-2.6,0a1.57,1.57,0,0,1-1.51-.56c-.43-.51-1-.43-1.6.06a2,2,0,0,1-1.13.47c-1.48.05-3,0-4.43,0-.3,0-.77,0-.88-.19-.43-.75-1.1-.67-1.77-.66-1.41,0-2.83,0-4.24,0-.26,0-.65-.07-.76-.25a1.47,1.47,0,0,0-1.51-.62c-.8,0-1.61,0-2.41,0a1.45,1.45,0,0,1-1.43-.55c-.19-.25-.75-.2-1.13-.32s-.88-.32-1.32-.49A3.22,3.22,0,0,0,95,325c-.7,0-1.42,0-2.12,0a7,7,0,0,1-1.24-.47c-.44-.14-.89-.2-1.33-.34s-.77-.3-1.16-.46a3.37,3.37,0,0,0-.92-.38c-.7-.05-1.42,0-2.12,0a3.88,3.88,0,0,1-1.15-.43c-.19-.09-.38-.36-.54-.34-.93.15-1.35-.59-1.78-1.11a1.8,1.8,0,0,0-1.58-.65,3.61,3.61,0,0,1-1.15-.42c-.25-.11-.49-.24-.73-.36s-.65-.32-1-.49c-.16-.09-.32-.33-.45-.31-1,.15-1.33-.75-2-1.19a8.53,8.53,0,0,0-.93-.52c-.27-.14-.55-.26-.81-.42s-.36-.4-.51-.38c-1,.12-1.4-.76-2-1.28-.16-.14-.35-.43-.49-.4-1,.15-1.43-.57-1.87-1.12a1.58,1.58,0,0,0-1.59-.63c-.71.08-1.13-.09-1.07-.92a.72.72,0,0,0-.23-.59c-.79-.36-1.61-.66-2.41-1a4.35,4.35,0,0,1-.73-.39c-.16-.1-.27-.36-.41-.37-1.89-.21-2.5-2-3.8-3-.22-.16-.43-.4-.67-.45a2.06,2.06,0,0,1-1.82-1.81c0-.25-.28-.66-.41-.66-1.52,0-2.06-1.29-2.92-2.1C51,300,49,297.92,47,295.88a.64.64,0,0,0-.41-.22c-.83.07-1.07-.28-1.16-1.11,0-.46-.68-.87-1.07-1.27-.63-.64-1.28-1.25-1.92-1.88-.11-.11-.28-.25-.27-.38.06-1.47-1.47-1.8-2-2.84a.11.11,0,0,0-.08-.05c-1.53.14-1.23-.91-1.35-1.86-.06-.5-.69-.94-1.09-1.38-.6-.66-1.32-1.13-1.51-2.2a7.49,7.49,0,0,0-1.52-2.44c-.36-.53-.94-.85-1-1.68,0-.43-.72-.83-1.06-1.28a7,7,0,0,1-.55-1c-.13-.24-.25-.49-.37-.73l-.46-1-.32-.66a8.88,8.88,0,0,0-.53-1c-.33-.48-.73-.92-1.05-1.4a10.59,10.59,0,0,0-.63-1.18c-.72-.83-.54-2-1-2.77a6.38,6.38,0,0,1-.73-2.32c-.09-.51-.77-.89-1.09-1.38a3.13,3.13,0,0,1-.5-1.31c-.09-.86.14-1.67-.7-2.44-.6-.55-.7-1.64-1-2.48,0-.12-.06-.3-.14-.35-1-.47-.7-1.34-.68-2.11s.07-1.26-.63-1.68c-.2-.12-.19-.63-.21-1-.06-.89.33-1.89-.75-2.49-.1-.05-.15-.3-.13-.44.12-.85.2-1.68-.94-2.07a5.22,5.22,0,0,1,.55-.49c.49-.3.5-.56.06-1a1.7,1.7,0,0,1-.48-1c-.07-.76,0-1.54,0-2.31s.13-1.41-.64-1.88c-.17-.1-.2-.52-.2-.79,0-2.63,0-5.27,0-7.9a3.36,3.36,0,0,0-.51-1.23c-.08-.16-.34-.32-.31-.44.16-.78-.4-1.13-.85-1.58a2.31,2.31,0,0,1-.92-1.59c0-.44-.72-.83-1.06-1.28a7.12,7.12,0,0,1-.55-1,8,8,0,0,0-.38-.73c-.12-.18-.44-.36-.41-.48.19-.94-.66-1.23-1-1.81-.28-.42-.42-.94-.71-1.35a15.31,15.31,0,0,0-1.17-1.35c-.57-.64-1.39-1.05-1.43-2.14,0-.43-.75-.81-1.11-1.24a4.67,4.67,0,0,1-.48-.86c-.15-.29-.29-.59-.43-.89s-.28-.53-.39-.81,0-.55-.18-.61c-.89-.44-.76-1.24-.61-1.93.23-1.13-.48-1.73-1.16-2.33A1.49,1.49,0,0,1,5.18,207a15.52,15.52,0,0,0,0-2c0-.24,0-.63-.19-.71-.89-.45-.66-1.21-.65-1.93s0-1.74,0-2.6c0-.68.08-1.34-.65-1.78-.18-.11-.2-.57-.22-.87-.06-.92.36-2-.74-2.59-.12-.07-.11-.42-.11-.63,0-1.54.06-3.09,0-4.63a4.09,4.09,0,0,0-.52-1.23,2.76,2.76,0,0,1-.33-.93c0-1.83,0-3.66,0-5.49,0-.28,0-.72-.17-.8-.94-.52-.66-1.36-.67-2.13q0-2.65,0-5.3c0-.54,0-1-.63-1.26-.09,0-.09-.68,0-.7.65-.21.68-.69.66-1.23a10.82,10.82,0,0,0,0-1.35A1.53,1.53,0,0,0,.52,168c-.69-.57-.72-1.11,0-1.58.54-.35.58-.69,0-1s-.68-.49,0-.84.7-1.17.07-1.71a1.47,1.47,0,0,1-.49-1c0-3.25,0-6.49,0-9.74,0-.45,0-.76.55-1s.55-.68,0-.91a.85.85,0,0,1-.57-.95c0-3.28,0-6.56,0-9.83,0-.26.07-.71.21-.76.88-.31.74-1,.74-1.68,0-4.21,0-8.42,0-12.63a1.59,1.59,0,0,1,.44-1,1.07,1.07,0,0,0,0-1.78c-.63-.56-.6-1,0-1.6a1.5,1.5,0,0,0,.45-1c0-3.79,0-7.58,0-11.37a1.53,1.53,0,0,1,.2-.89c.94-1.19.85-1.72,0-3-.31-.5,0-1.41.1-2.11.08-.46.46-.86.52-1.32.09-.63,0-1.29,0-1.92a1.79,1.79,0,0,1,.47-1c.4-.4.39-.62,0-1a1.79,1.79,0,0,1-.46-1c-.07-.6,0-1.22,0-1.83a1.25,1.25,0,0,1,.51-1.33,1.28,1.28,0,0,0,.33-.93c0-1.54,0-3.08,0-4.63,0-.28,0-.71.16-.8.9-.52.71-1.35.71-2.14s0-1.48,0-2.22c0-.24,0-.63.16-.7.88-.48.71-1.28.71-2,0-1.32,0-2.63,0-4,0-.25,0-.63.15-.71,1-.61.6-1.58.71-2.43a6,6,0,0,1,.47-1.24,3.7,3.7,0,0,0,.37-1.12c0-1.54,0-3.08,0-4.63,0-.22,0-.56.11-.63,1.09-.64.72-1.67.75-2.59,0-.61,0-1.22,0-1.83,0-.24,0-.61.18-.7.81-.48.7-1.23.66-2a2.09,2.09,0,0,1,.61-1.88c.36-.34.14-1.27.26-1.91A8.83,8.83,0,0,1,9.86,52a5.35,5.35,0,0,0,.37-1.22c.08-.85-.24-1.74.69-2.44.3-.23.16-1.09.14-1.65s-.05-1.12.56-1.51c.22-.14.3-.62.3-.94,0-2.41,0-4.82,0-7.23,0-.24,0-.63.17-.7.89-.48.69-1.28.69-2s0-1.74,0-2.6a1.91,1.91,0,0,1,.6-1.68C14.11,29.27,13.49,28.62,12.43,28Zm4.36,21.44c.19,0,.48,0,.55.1a2,2,0,0,0,1.58.88c.13,0,.23.22.36.3.29.17.59.31.88.46a10.06,10.06,0,0,1,.88.49c1,.67,1.42,2.12,2.92,2.11.1,0,.19.17.3.23l1.12.54a2.16,2.16,0,0,1,.57.32c.62.6,1.16,1.29,1.83,1.83.93.74,1.4,2.13,2.89,2.13.12,0,.24.19.36.29.64.57,1.06,1.47,2.15,1.39.15,0,.33.28.49.43.69.66,1.28,1.68,2.09,1.89a5,5,0,0,1,2.06,1.4c.16.14.37.39.52.37.84-.13,1.15.59,1.68.95a7.66,7.66,0,0,0,2.45,1.51,4.22,4.22,0,0,1,2,1.3c.15.12.27.41.39.4a4.72,4.72,0,0,1,2.94.91,8.07,8.07,0,0,0,1,.5c.28.13.59.4.84.34,1.1-.23,1.72.44,2.36,1.12.13.14.24.41.37.42a7.25,7.25,0,0,1,3.14,1c.16.09.53-.11.76-.25a.55.55,0,0,0,0-.5c-.52-.38-1.07-.72-1.62-1.06-.24-.15-.51-.24-.74-.4-.62-.42-.66-1.17-1-1.73-.52-.88-1.66-1.37-1.66-2.62-1.32-.83-1.84-2.66-3.66-2.86-.16,0-.28-.25-.43-.35a4.22,4.22,0,0,0-.72-.4c-1-.41-1.91-1.18-3.13-1-.11,0-.25-.27-.41-.38A10.44,10.44,0,0,0,40,59.67a5.25,5.25,0,0,1-2.27-1.58c-.4-.36-.77-.92-1.22-1a2.11,2.11,0,0,1-2-2c0-.19-.33-.52-.47-.5-1,.11-1.38-.79-2-1.27-1-.73-1.45-2.17-3-2.19-.1,0-.29-.15-.28-.23.06-1.1-.57-1.47-1.54-1.54-.09,0-.18-.17-.27-.27-.58-.59-1.06-1.41-1.77-1.73a4,4,0,0,1-2-2c-.55-1-2.29-1-2.49-2.5,0,0-.06,0-.07-.06l-.28-.55c.22-.11.46-.34.64-.3a2.46,2.46,0,0,1,.89.47c.64.47,1,1.37,2,1.29.18,0,.38.3.58.46.49.39,1,.79,1.47,1.15.32.22.72.32,1,.54,1.33.91,1.94,2.75,3.82,3,.1,0,.18.17.28.26.64.57,1.05,1.49,2.15,1.39.11,0,.25.18.37.29.65.56,1,1.49,2.14,1.39.15,0,.33.28.48.43.66.65,1.21,1.63,2,1.88A5,5,0,0,1,40.39,56c.13.14.48.09.73.12,0-.25,0-.59-.1-.74-.66-.68-1.4-1.28-2.07-1.94-.92-.9-1.82-1.84-2.53-2.56l.48-1.37-1.32.59a2.18,2.18,0,0,1-.28-.21c-.53-.48-1.19-.91-.11-1.57.17-.1.11-.94-.11-1.24-.46-.64-1.14-1.12-1.66-1.72a6,6,0,0,1-.59-1.1,3.26,3.26,0,0,0-.44-.7c-.66-.69-1.72-1.27-1.93-2.07a5.41,5.41,0,0,0-1.72-2.39c-.59-.63-1.49-1.17-1.67-1.9a5,5,0,0,0-1-1.73A7.49,7.49,0,0,1,24.55,33c-.17-.88-.77-1.26-1.17-1.87-.25-.37-.38-.82-.63-1.18s-.49-.64-.75-.65c-.8,0-1-.42-.94-1.12,0-.4,0-1-.18-1.17-.72-.51-.67-1.16-.62-1.88s-.27-.94-.93-.94-.92.32-.91,1-.12,1.43.67,1.85c.13.07.2.33.2.51,0,.9,0,1.8,0,2.7,0,.23-.2.44-.3.67a6.9,6.9,0,0,0-.53,1.41c-.18,1.1.47,2.4-.78,3.25-.06,0-.09.18-.09.27a12.83,12.83,0,0,0,.08,3.73c.26.84.79,1.4-.05,2.17A3.65,3.65,0,0,0,17,42.91a1.81,1.81,0,0,0-.25.7c0,2,0,3.92.06,5.88-1.76,0-1.76,0-1.74,1.51a2.38,2.38,0,0,1-.66,2.16c-.71.64-.07,2.06.86,2.27a1.76,1.76,0,0,1,.7.44c.43.38.82,1.12,1.24,1.13,1,0,1.45.73,2,1.27.35.34.83.77.85,1.19,0,.93.53,1.1,1.26,1a1.87,1.87,0,0,1,1.59.63c.84.75,1.36,2,2.77,2,.11,0,.2.47.33.71s.34.8.48.79c1-.09,1.41.77,2,1.28s.9.9,1.4,1.27,1,.5,1.51.83.83,1.07,1.66.92c.13,0,.31.19.45.32.65.56,1.06,1.48,2.15,1.39.15,0,.32.28.49.43a16.86,16.86,0,0,0,1.36,1.17c.41.29,1,.38,1.33.74a3,3,0,0,0,2.71,1,2.66,2.66,0,0,1,1.4.54c.42.27.69.8,1.12,1,.81.4,1.71.62,2.54,1a18.77,18.77,0,0,1,1.94,1c.78.45,1.54.95,2.32,1.41a.52.52,0,0,0,.38,0c1.25-.38,1.92,1,3.06,1,.28,0,.51.58.83.69a8.14,8.14,0,0,1,3.53,1.93c.15.16.31.47.45.47a5.19,5.19,0,0,1,3,.92c.31.19.66.32,1,.51.64.4.9,1.37,1.93,1.22.57-.08,1.16-.1,1.48.6,0,.11.48,0,.73.07a2.19,2.19,0,0,0-.17-.73c-.15-.23-.43-.36-.63-.56-.89-.88-1.63-2-2.69-2.56a9.82,9.82,0,0,0-3.34-1.07c-1.23-.1-2-1-3.06-1.22a11.77,11.77,0,0,1-1.62-.57c-.24-.08-.61,0-.73-.11a6.88,6.88,0,0,0-2.65-1.85c-.8-.35-1.17-1.51-2.32-1.44-.12,0-.25-.27-.4-.38a2.22,2.22,0,0,0-.64-.36c-1-.31-1.92-1.21-3.14-.93-.08,0-.2-.15-.29-.23a6.28,6.28,0,0,0-2.18-1.53c-1-.34-1.65-1.48-2.82-1.87-.68-.23-1.12-1.11-1.73-1.62-1.31-1.08-2-2.88-4-3.2-.15,0-.26-.27-.4-.41-.39-.38-.78-1.06-1.17-1.06-1,0-1.37-.72-2-1.19-.2-.16-.37-.51-.54-.5-1.14.07-1.51-.92-2.23-1.45-.93-.7-1.37-2.08-2.84-2.05-.12,0-.25-.18-.37-.29-1.93-1.92-3.86-3.83-5.77-5.76a8.58,8.58,0,0,1-1-1.35c-.18-.27-.28-.6-.47-.87C17.67,50.61,17.22,50,16.78,49.46Zm43.76-10c.62,0,1,.29.83.85-.35,1.25.77,2,1,3.06.17.83,1.16,1.49,1.35,2.33a11,11,0,0,0,.89,2.77,22.21,22.21,0,0,1,.71,2.28c.35,1,.59,2,1,3,.13.27.28.54.41.81l.43.88c.12.25.24.49.34.74A4.51,4.51,0,0,1,68,57.42c.11,1.27,1.23,2.24,1,3.6,0,.05.15.12.19.2.18.34.34.69.51,1s.23.43.33.65A3.89,3.89,0,0,1,70.54,64c.09.92-.31,2,.75,2.6.08,0,.08.23.1.36.22,1.06,1.25,1.9.89,3.13,0,0,0,.13.1.16,1.23.82.3,2.61,1.53,3.44,0,0,0,.13,0,.19.13.27.26.55.4.81s.3.52.44.79.25.73.51.94a2.79,2.79,0,0,1,1.18,2.81,2.68,2.68,0,0,0,.28,1.24,3.54,3.54,0,0,0,.57,1.1,4.13,4.13,0,0,1,.9,2.86c0,.09.19.17.24.28.18.34.34.69.51,1s.24.43.33.65a3.46,3.46,0,0,1,.49,1.23,1.9,1.9,0,0,0,.67,1.58C81.76,90.44,83,91.77,84.23,93c.38.37.77.88,1.23,1a2.15,2.15,0,0,1,1.94,2c0,.23.51.4.8.58s.74.33.73.4c-.23,1,.7,1.29,1.05,1.91.08.13.47.09.72.13,0-.23.08-.52,0-.68-.46-.73-1.29-1.38-1.39-2.14a7.21,7.21,0,0,0-1-2.95c-.19-.31-.34-.64-.5-1s-.25-.49-.35-.74-.1-.64-.29-.76c-.56-.36-.53-.85-.57-1.42-.1-1.22-.93-2.21-1-3.5-.07-.8-1.24-1.5-1.31-2.3a9.42,9.42,0,0,0-1-3c-.12-.28-.29-.53-.42-.81a3.3,3.3,0,0,1-.42-1c-.09-.94.36-2-.74-2.69-.08,0-.07-.24-.1-.36-.28-1.05-1.17-1.93-.91-3.14,0-.08-.18-.18-.23-.29a4.7,4.7,0,0,1-.52-1.31c-.13-1.26-1.21-2.24-1-3.58,0,0-.09-.08-.13-.14a10.64,10.64,0,0,1-1.31-3.69c-.31-1.24-1.36-2.28-1.06-3.68,0-.05-.15-.13-.18-.21-.18-.44-.36-.87-.51-1.32s-.07-.93-.31-1.13a1.27,1.27,0,0,1-.54-1.42c.43-1.57-1.29-2.66-.93-4.21,0-.08-.19-.24-.32-.33-.5-.33-.47-.62,0-.93s.27-.52,0-.9a14.49,14.49,0,0,1-1.31-2.27.74.74,0,0,1,.15-.7c1.13-.73.35-1.24-.22-1.63-.81-.56-.89-1,0-1.55.2-.13.42-.22.63-.33.09.22.16.45.26.66.45,1,1.1,1.93.94,3.12,0,.07.16.19.27.26a2.86,2.86,0,0,1,1.29,3,1.59,1.59,0,0,0,.28,1.05c.77,1.12.63,2.57,1.4,3.68,0,0,0,.06,0,.09,0,.9-.31,1.89.71,2.52.1.06.14.3.13.44A4.12,4.12,0,0,0,78.77,60c.38.91.57,1.94,1,2.91.28.66.39,1.4.69,2.13.38.92.57,1.94,1,2.91.28.65.4,1.4.68,2.11a16.45,16.45,0,0,0,1,3c.14.23.13.63.32.74.58.36.57.86.56,1.42a4.08,4.08,0,0,0,.1,1.7c.36.82,1.24,1.49,1.37,2.31a25.19,25.19,0,0,0,1,3.2c.18.62.35,1.19.59,1.78a11.28,11.28,0,0,1,1,3.24c.05,1.26,1,2,1.2,3.07a8.35,8.35,0,0,0,1.38,2.33.45.45,0,0,1,0,.28c-.12.83.38,1.44.62,2.14a16.67,16.67,0,0,0,1,3c.13.24.2.51.32.76s.34.69.51,1,.23.43.33.66c.18.44.37.87.51,1.32s.07.9.31,1.14c2.58,2.62,5.27,5.14,7.79,7.81,1.07,1.13,2.72,1.87,2.92,3.72a.54.54,0,0,0,.41.33c1-.14,1.44.65,1.94,1.21.71.79,1.9,1.3,1.79,2.67,0,.1.27.33.4.32s.48-.19.5-.32c.1-.74.31-1.5-.34-2.17a1.45,1.45,0,0,1-.45-1c.25-1.25-.84-2-1.17-3-.19-.57-.62-1.12-.54-1.79a1.11,1.11,0,0,1,.49-.8,1.14,1.14,0,0,1,1,.16,2.12,2.12,0,0,1,1,2.2,1.63,1.63,0,0,0,.64,2,.54.54,0,0,1,.17.43,6,6,0,0,0,.64,2.24,19.65,19.65,0,0,0,1,3c.12.24.21.51.31.76.17.44.36.88.51,1.33s.12.93.38,1.2q6.12,6.23,12.3,12.4a.7.7,0,0,0,.56.21.64.64,0,0,0,.36-.49c0-.33-.05-.81-.27-1a1.68,1.68,0,0,1-.64-1.6c0-.66.17-1.08.89-1.07s.72.52.74,1.08a2.28,2.28,0,0,0,.32,1.31,1.79,1.79,0,0,1-.05,2.63c-.35.36-.38.84.14.83,1,0,1.37.31,1.31,1.26,0,.1.15.2.21.31.19.37.38.74.56,1.12a2.14,2.14,0,0,0,.3.57c1.5,1.49,3.06,2.92,4.49,4.46.78.85,2,1.4,2,2.86,0,.12.33.36.5.35.85-.06,1.19.31,1.12,1.14,0,.13.12.29.22.41a18,18,0,0,0,1.54,1.57c.15.13.79,0,.79-.06,0-.68.14-1.51-.19-2-.81-1.24-.9-1.77.09-2.95a2.93,2.93,0,0,1,.64-.44,6.27,6.27,0,0,1,.28.83c.09.45,0,1.13.22,1.33a1.46,1.46,0,0,1,.58,1.7c-.53,1.77,1.14,3.09.9,4.79,0,.12.22.29.35.43,1,.94,1.93,1.87,2.86,2.84.46.48,1.13.87,1,1.75,0,.13.42.43.68.48a2.2,2.2,0,0,1,1.79,1.78,1.37,1.37,0,0,0,.32.65q1.1,1.2,2.26,2.34a.7.7,0,0,0,.57.2.63.63,0,0,0,.32-.51,5.52,5.52,0,0,0-.35-1.06,6.7,6.7,0,0,1-.48-1.35c-.08-.63,0-1.29,0-1.92a3.79,3.79,0,0,0-.35-1,8.06,8.06,0,0,1-.47-1.26c-.13-.65.06-1.5-.3-1.93a2.42,2.42,0,0,1-.55-1.83c0-.8,0-1.61,0-2.41,0-.3-.06-.75-.26-.87-.71-.43-.59-1.05-.59-1.7s.3-1.51-.62-1.94c-.08,0-.12-.45-.06-.48,1-.57.33-1,.05-1.29.14-.59.44-1.28.3-1.38-.59-.43-.52-1-.52-1.55,0-.3,0-.75-.23-.88-.67-.44-.62-1-.61-1.7,0-1.19,0-2.38,0-3.57,0-.7.12-1.41-.65-1.87-.17-.1-.2-.52-.21-.79,0-1,.05-1.93,0-2.89a2,2,0,0,0-.49-1.12c-.32-.36-.33-.52,0-.85a1.12,1.12,0,0,0,.21-.77c-.71-.37-.59-1-.57-1.6,0-.84,0-1.67,0-2.51,0-.28,0-.69-.2-.8-.75-.48-.65-1.17-.64-1.88,0-1.06,0-2.12,0-3.18a3.43,3.43,0,0,0-.37-1,3.76,3.76,0,0,1-.46-1.16c0-2.28,0-4.56,0-6.84a1.91,1.91,0,0,0-.42-1.19c-.4-.43-.41-.64.07-1,.14-.1.2-.62.1-.69-1-.75-.42-1.85-.61-2.77,0-.15.25-.37.39-.56a3.63,3.63,0,0,1,.45.61c.13.27.17.59.28.88a8.56,8.56,0,0,1,.49,1.25c.23,1.17-.44,2.53.81,3.48.1.08.06.37.06.56,0,1.38,0,2.76,0,4.15,0,.68-.1,1.33.63,1.78.17.11.21.51.22.79,0,.74,0,1.48,0,2.22a1.22,1.22,0,0,0,.29.85c.59.4.48,1,.56,1.53.23,1.66-.74,3.51.92,5-1,.41-1.15.89-.22,1.46.14.09.15.47.15.72,0,1,0,2,0,3,0,.25,0,.64.13.72,1,.63.6,1.64.73,2.51.23,1.66-.7,3.51.79,4.95-.88.84-.83.8-.46,1.28a2.61,2.61,0,0,1,.49,1.21c.14,1.16-.43,2.47.71,3.23-.18.49-.53,1.19-.45,1.24.93.61.49,1.51.6,2.29a6.53,6.53,0,0,0,.37,1.22,4.43,4.43,0,0,1,.45,1.17c.05,1.48,0,3,0,4.43a4,4,0,0,0,.38,1.13,5.24,5.24,0,0,1,.42,1.18c.09.87-.23,1.81.7,2.47.17.12.16.53.17.81,0,.71,0,1.42,0,2.12a3.71,3.71,0,0,0,.34,1,5.52,5.52,0,0,1,.46,1.27c.07.67,0,1.35,0,2a1.4,1.4,0,0,0,.3.86c2,2,4.09,4.06,6.13,6.09.4.4,1.06.83,1.08,1.27a2.19,2.19,0,0,0,.91,1.58c.45.44,1,.82.87,1.59,0,.13.18.32.31.45.45.49.9,1,1.39,1.45.16.15.49.3.63.23a.82.82,0,0,0,.29-.63c0-.61-.11-1.22-.08-1.82,0-.23.31-.45.47-.68a2.25,2.25,0,0,1,.39.67c.08.43-.13,1.1.1,1.3,1,.92.61,2.08.64,3.15a1.93,1.93,0,0,0,.67,1.68c.51.43,1.27.85,1.07,1.78,0,.12.19.32.32.45,1.18,1.17,2.37,2.33,3.54,3.51a2.52,2.52,0,0,1,.32.65,9.43,9.43,0,0,0,.54,1c.65,1,2.06,1.4,2,2.89,0,.12.32.36.46.35a.61.61,0,0,0,.42-.42c0-.74.27-1.53-.44-2.16a1.41,1.41,0,0,1-.34-.93c0-1.54,0-3.08-.06-4.63a3.51,3.51,0,0,0-.26-1,9.3,9.3,0,0,1-.51-1.43c-.22-1.4.55-3-.82-4.15-.06,0-.06-.18-.06-.28,0-1.77,0-3.53,0-5.3a.66.66,0,0,1,.32-.51c.12,0,.37.12.52.25a2.36,2.36,0,0,1,.81,2.2c-.09,1,0,2.05,0,3.08,0,.76-.12,1.55.67,2.09.15.11.18.46.19.71,0,2.38,0,4.75.06,7.13a4,4,0,0,0,.33,1.14c.14.4.32.78.44,1.19.42,1.4-.66,3.09.8,4.3-.42,1.24.69,2.05.88,3.12,0,.23.25.42.37.64s.31.58.46.88a4.4,4.4,0,0,0,.41.81c.52.64,1.45,1,1.32,2.08,0,.13.22.29.34.44.77,1,2.2,1.5,2.24,3,0,.13.25.27.4.39a7.35,7.35,0,0,1,2,3.56c.08.23.33.39.51.59.17-.2.46-.38.5-.6a8.79,8.79,0,0,0,0-1.14c0-.2.09-.48.23-.56s.42.06.56.18a2.07,2.07,0,0,1,.83,1.91,22.9,22.9,0,0,0,0,3.37,2,2,0,0,0,.47,1.06c.88,1.09,2.47,1.76,2.05,3.6,0,.12.12.28.21.42a9,9,0,0,1,1.38,2.32,3.07,3.07,0,0,0,1,1.65c.47.44.94.84.87,1.6,0,.17.3.38.47.56.68.67,1.46,1.25,1.15,2.42-.06.24.24.61.45.87.5.62,1.37,1,1.22,2,0,.13.24.37.41.44s.46-.13.46-.21c0-1,.24-2.09-.17-2.87a3.69,3.69,0,0,1-.57-1.9c0-1.06,0-2.12,0-3.18,0-.28,0-.7-.18-.81-1.17-.77-.57-1.93-.65-2.91,0-.19.54-.58.86-.61s.69.45.68.67a2.09,2.09,0,0,0,.75,2.12c.14.1.1.48.11.73q0,1.93,0,3.86c0,.76-.17,1.56.69,2,.14.08.26.53.19.59-1,.91-.25,1.79-.06,2.71.13.64-.09,1.36,0,2,.23,1.18,1.06,2.2,1,3.47,0,.06.15.11.21.18.54.63,1.46,1,1.33,2.07,0,.13.24.28.33.44s.32.58.47.87.28.54.39.82a3.3,3.3,0,0,1,.42,1.17c0,1.24.86,2.05,1.34,3,.33.69,1.34,1,1.2,2,0,.14.31.32.48.49.17-.2.49-.39.5-.59,0-.73-.06-1.47-.06-2.21a2.43,2.43,0,0,0-.55-1.64c-.34-.44-.2-1.26-.23-1.91,0,0,.53-.18.6-.1.44.5,1.09.86,1,1.75a2.86,2.86,0,0,0,.24,1.93,2.51,2.51,0,0,1,.56,1.93c0,.77,0,1.54,0,2.31a1.51,1.51,0,0,0,.25.88c1.11,1.27,2.32,2.36,4.24,1.92a5.12,5.12,0,0,1,1.35,0,1.36,1.36,0,0,1,.72.18,4.19,4.19,0,0,0,4.68,0,1.4,1.4,0,0,1,.8-.2c1.48,0,3,.06,4.43,0,.44,0,.86-.38,1.31-.52a.94.94,0,0,1,.75,0c.77.71,1.08.67,1.88-.07a4.13,4.13,0,0,1,1.69-1.08c.63-.15,1.33,0,1.76-.68a.8.8,0,0,1,.69-.2,3.21,3.21,0,0,0,3.46-1.44,2.29,2.29,0,0,1,2.36-1.11,1.19,1.19,0,0,0,.86-.46,2.65,2.65,0,0,1,2.7-1.18,1.8,1.8,0,0,0,1.75-.7c.88-.91,1.61-2.25,3.29-1.85.17,0,.42-.23.62-.37s.38-.4.59-.44a2.26,2.26,0,0,0,2-2,2.38,2.38,0,0,1,1.34-1.35,4,4,0,0,0,2.8-2.92c0-.17.23-.29.32-.45s.34-.63.5-.95a3,3,0,0,1,.36-.73c.62-.65,1.28-1.25,1.91-1.89s1.63-1.25,1.82-2a4.14,4.14,0,0,1,1.34-2c.73-.75,1.64-1.36,1.31-2.65-.05-.2.21-.5.37-.72.75-1,2.2-1.51,2.23-3.05,0-.07.13-.14.17-.22.2-.37.39-.74.57-1.11.1-.19.14-.48.3-.57.62-.36.62-.91.56-1.51,0-.25-.07-.6.06-.74a13.93,13.93,0,0,0,1.92-2.7c.66-1.17.37-2.63,1.39-3.6,0,0,0-.2,0-.28-.52-1.42.45-2.6,1-3.54a5.07,5.07,0,0,0,.64-2.65,1.52,1.52,0,0,1,.4-1c.48-.4.51-.65,0-1s-.7-1.88-.18-2.23c.67-.46.64-1,.62-1.69,0-.87-.06-1.74,0-2.6a3.16,3.16,0,0,1,.38-.92,3.51,3.51,0,0,0,.45-1.16c0-4.15,0-8.29,0-12.44,0-.68.09-1.33-.63-1.78-.19-.12-.22-.57-.22-.87,0-2.09,0-4.18,0-6.27,0-.3-.05-.75-.24-.87-.69-.43-.53-1.05-.62-1.68-.23-1.6.79-3.41-.78-4.78.35-1.22-.6-2.08-.89-3.12a5.6,5.6,0,0,0-.35-.65,5.6,5.6,0,0,1-.47-1.24c-.19-1.13.53-2.47-.78-3.34.22-1.2-.53-2.11-.91-3.13a3.56,3.56,0,0,0-.25-.6,9.06,9.06,0,0,1-1.36-2.31,7.16,7.16,0,0,0-.8-2.51,19.26,19.26,0,0,1-1.6-3.2,14,14,0,0,0-1-3c-.2-.3-.35-.63-.51-.94l-.34-.65a5.43,5.43,0,0,0-.6-1.09c-.61-.69-1.37-1.27-1.05-2.38.06-.2-.11-.48-.23-.69-.47-.78-1.24-1.5-1.36-2.32s-.75-1.28-1.16-1.88a9.71,9.71,0,0,0-.64-1.17,4.23,4.23,0,0,1-.92-2.85c0-.12-.2-.24-.32-.34-.78-.68-1.56-1.34-1.27-2.57,0-.21-.22-.7-.34-.7-1,0-1.47-.42-1.41-1.43,0-.07-.12-.14-.18-.22-1.33-1.68-3.44-2.65-4.18-4.92-.27-.84-1.59-1.25-1.55-2.45,0-.07-.12-.15-.18-.21-1.51-1.48-3.1-2.88-4.49-4.46-1-1.18-2.74-1.88-2.9-3.74,0-.08-.12-.15-.19-.21a54.62,54.62,0,0,1-5.1-5.19,7.81,7.81,0,0,0-2.26-2.18,8,8,0,0,1-1.25-1.18c-.73-.68-1.47-1.31-1.18-2.51.12-.51-.22-.8-.8-.84a1.55,1.55,0,0,1-.9-.41c-1.44-1.41-2.85-2.85-4.27-4.28-.11-.11-.25-.29-.36-.28-1.13.09-1.51-.92-2.23-1.45-1.27-.94-1.9-2.71-3.74-2.91-.08,0-.15-.11-.22-.18-.57-.56-1.1-1.17-1.71-1.68-1.3-1.09-2.06-2.87-4-3.21-.18,0-.29-.33-.47-.47-.46-.37-.92-.74-1.4-1.07-.32-.22-.72-.32-1-.55-1.31-.94-2-2.69-3.82-3-.12,0-.23-.22-.33-.33-1.3-1.44-2.66-3-4.49-3.55a7.3,7.3,0,0,1-2.7-2c-.9-.82-1.56-2-3.09-1.61-.13,0-.32-.17-.49-.26-.78-.46-1.56-.93-2.35-1.39a6.17,6.17,0,0,1-1.42-.78,2.27,2.27,0,0,0-2.24-.93.8.8,0,0,1-.61-.19,4.7,4.7,0,0,0-2.43-1.65c-.79-.14-1.45-.93-2.2-1.38-.12-.07-.41,0-.57.14a3.46,3.46,0,0,0-.52.6c-.28-.3-.49-.73-.7-.73a6.12,6.12,0,0,1-3-1c-.26-.15-.55-.27-.82-.4l-.89-.43c-.22-.1-.56-.12-.67-.29a1.23,1.23,0,0,0-1.5-.58c-1.38.43-2.43-.53-3.35-1.07a5.3,5.3,0,0,0-2.57-.61c-.33,0-.8,0-1-.25a1.59,1.59,0,0,0-1.52-.61c-.83,0-1.75.29-2.32-.68-.06-.11-.37,0-.54-.11s-.54-.28-.82-.4a3.73,3.73,0,0,0-1.09-.44c-.7-.07-1.41,0-2.12,0-.27,0-.68,0-.79-.2-.47-.74-1.17-.69-1.88-.66s-1.48.2-2-.64c-.08-.15-.46-.18-.71-.18-.71,0-1.41,0-2.12,0-.31,0-.77,0-.89-.18-.51-.77-1.25-.66-2-.66-1.32,0-2.63,0-4,0-.27,0-.69,0-.79-.19-.49-.78-1.24-.68-2-.67-1.06,0-2.12,0-3.18,0-.27,0-.67-.05-.78-.22-.42-.68-1-.64-1.7-.63-.84,0-1.67,0-2.51,0-.28,0-.69,0-.8-.18-.5-.79-1.25-.66-2-.66-1.32,0-2.63,0-4,0-.27,0-.69,0-.79-.19-.49-.79-1.23-.71-2-.67s-1.4.11-1.88-.63c-.11-.17-.52-.19-.8-.2-.67,0-1.35,0-2,0-1.09-.1-2.34.49-3.18-.72-.06-.09-.31,0-.46-.07a2.54,2.54,0,0,1-.82-.4c-.7-.65-1.13-.66-1.84,0-.4.39-1.83.6-2.13.18-.66-1-1.58-.64-2.44-.7-.34,0-.84,0-1-.2-.5-.73-1.19-.65-1.89-.64s-1.61,0-2.41,0c-.27,0-.67-.06-.77-.23-.42-.7-1-.64-1.69-.63s-1.62.25-2.14-.66c-.08-.15-.47-.16-.72-.16-.71,0-1.41,0-2.12,0-.3,0-.75,0-.88-.21a1.7,1.7,0,0,0-1.71-.63c-.79,0-1.62.21-2.14-.68-.09-.15-.47-.16-.71-.17-.74,0-1.48,0-2.22,0-.27,0-.68,0-.79-.2a1.65,1.65,0,0,0-2-.62c-1.29.27-2.06-.78-3.07-1.15A4.7,4.7,0,0,0,82.5,41c-.76,0-1.54.19-2-.66-.09-.15-.47-.16-.72-.16-.71,0-1.41,0-2.12,0-.3,0-.76,0-.88-.2-.46-.7-1.11-.65-1.79-.62-.21,0-.55,0-.63-.13-.53-.84-1.32-.77-2.13-.72a.64.64,0,0,1-.51-.21c-.43-.74-1.11-.64-1.78-.62-.21,0-.55,0-.63-.13-.5-.8-1.24-.78-2-.71a.73.73,0,0,1-.6-.22c-.4-.69-1-.66-1.68-.65a3.53,3.53,0,0,1-2.19-.58c-.82-.53-2-.49-3-1a16.36,16.36,0,0,0-2.1-.7,23,23,0,0,1-3-1c-.25-.13-.5-.23-.76-.34a5.09,5.09,0,0,0-1.24-.52c-.87-.12-1.89.33-2.5-.72,0-.08-.23-.07-.36-.1-1.06-.26-1.92-1.2-3.15-.93-.12,0-.31-.29-.48-.44-.45-.39-.86-1-1.38-1.1-1.06-.28-1.89-1.34-3.14-.94,0,0-.11-.05-.17-.09A26.71,26.71,0,0,0,39.18,26c-.31-.15-.77,0-1.17,0l.4.91c.06.14.1.28.15.41-1.13.47-1.57.19-1.58-.91,0-.4.05-1-.17-1.16-.88-.66-1.29-2-2.68-2-.12,0-.24-.19-.38-.27-.34-.18-.69-.34-1-.52s-.48-.27-.72-.41l-.79-.44a10.57,10.57,0,0,1-1-.5,20.33,20.33,0,0,0-2.88-1.92c-.57-.25-1.19-.33-1.6-.87a2.05,2.05,0,0,0-2.23-.93.72.72,0,0,1-.54-.15c-1.11-.89-1.83-2.17-3.37-2.64-.76-.23-1.27-1.28-1.93-1.91-.18-.17-.51-.18-.78-.26a2.31,2.31,0,0,0,.22.85c.36.47,1.13.84,1.17,1.3.08,1,.88,1.36,1.36,2,.11.15.38.28.38.41-.06,1.24,1,1.67,1.65,2.42a13,13,0,0,1,1,1.35c.19.3.3.65.5.95.67,1,2.12,1.41,2.08,2.92,0,.13.24.27.38.41.68.68,1.74,1.26,1.94,2.06a5.19,5.19,0,0,0,1.71,2.39c.57.6,1.54,1.13,1.65,1.8.2,1.19,1.08,1.66,1.71,2.41a13.55,13.55,0,0,1,1,1.36,6.9,6.9,0,0,0,.52.94c.62.69,1.7,1.24,1.85,2,.25,1.21,1.14,1.7,1.78,2.48a13.83,13.83,0,0,1,.89,1.2,9.92,9.92,0,0,0,.6,1.09c.6.7,1.51,1.25,1.82,2.05a4.07,4.07,0,0,0,1,1.64c.47.43,1,.84.85,1.6,0,.11.14.28.25.38,1.21,1.19,2.43,2.36,3.62,3.57.41.42,1,.91,1,1.41.1.93.84,1.25,1.33,1.78.17.18.72.05,1.08,0,.07,0,.18-.5.1-.56a5.88,5.88,0,0,1-1.84-2.69c-.16-.42-.31-.85-.47-1.27s-.35-1-.56-1.41a18,18,0,0,1-1.1-2.23c-.33-1.07-1.27-2-1-3.22,0-.09-.22-.22-.3-.35s-.26-.49-.38-.73l-.49-1c-.12-.25-.24-.49-.35-.74a7,7,0,0,0-.29-.77c-.45-.79-1-1.54-1.37-2.35s-.66-1.7-1-2.54c0-.11-.21-.16-.27-.27-.16-.29-.3-.58-.44-.88s-.11-.57-.28-.67c-.62-.37-.62-.91-.57-1.51a1.37,1.37,0,0,0-.07-.75c-.48-.84-1-1.65-1.56-2.52.23-.26.46-.55.73-.81s.39-.32.51-.27.25.32.33.51c.18.37.33.76.5,1.14.1.23.19.45.3.67s.33.64.49,1,.23.5.35.75.28.6.44.89.29.47.4.72A8.71,8.71,0,0,0,43,35.83c1,1.05.39,2.63,1.46,3.57,0,0,0,.07,0,.09l.37.74.46,1c.11.22.23.44.33.66a4.26,4.26,0,0,1,.5,1.23c.09,1,0,2.08,1,2.75a1.79,1.79,0,0,1,.76,1.74,1.79,1.79,0,0,0,.52,1.15,2.77,2.77,0,0,1,1.14,2.65,1.63,1.63,0,0,0,.72,1.76,2.53,2.53,0,0,1,1,2.7,2.29,2.29,0,0,0,.51,1.3c.41.64,1.31,1,1.17,2,0,.13.23.29.32.45s.32.64.48,1l.38.73.45.88a3.79,3.79,0,0,0,.41.81,4.56,4.56,0,0,0,1.36,1.33,2.93,2.93,0,0,1,2,2c.12.42.77.66,1.07,1.07.68.91,1.93,1.39,2,2.79,0,.41.58.82,1,1.13.11.09.71-.17.71-.24a4.26,4.26,0,0,0-.28-1.23,6.65,6.65,0,0,0-.51-.87c-.18-.32-.35-.64-.52-1l-.35-.64c-.19-.37-.39-.74-.57-1.11-.11-.22-.33-.5-.27-.67.43-1.29-.82-2-1-3.12-.16-.83-1.14-1.49-1.35-2.33s-.72-2-.86-2.85a3.77,3.77,0,0,0-1.46-2.69.76.76,0,0,1,0-.71c.61-.4.53-.67,0-1.07-.78-.58-1.47-1.25-1.16-2.4a.73.73,0,0,0-.19-.61c-1.11-.94-.44-2.6-1.49-3.57a3.16,3.16,0,0,1-.46-.88,7.72,7.72,0,0,1-.4-.72c-.4-1-1.11-1.93-.94-3.13,0-.11-.27-.25-.38-.4s-.35-.37-.34-.55c0-.9.13-1.79-.92-2.25.35-.38.58-.64.83-.88a3.6,3.6,0,0,1,.5-.34,3.75,3.75,0,0,1,.35.6,5.2,5.2,0,0,0,.19.8c.45.79,1,1.55,1.43,2.33a.62.62,0,0,1,0,.38c-.11.76-.11,1.47.68,1.93.1.06.09.29.15.44.16.36.34.7.5,1.06s.39.55.32.74c-.43,1.29.85,2,1,3.11.14.82,1.14,1.48,1.36,2.31a12.2,12.2,0,0,0,.92,2.86c.49.92,1.3,1.87,1,3.1,0,.06.1.15.15.23.48.77,1,1.54,1.44,2.32a.45.45,0,0,1,0,.28,3.88,3.88,0,0,0,.62,2.14,13,13,0,0,0,1,2.91,6.69,6.69,0,0,1,.48,1c.13.27.25.55.38.82s.27.55.41.81l.43.8.51,1c.12.22.34.44.33.65a5.4,5.4,0,0,0,.62,2.14,29,29,0,0,0,1.06,3.08,2.58,2.58,0,0,0,.37.73Q70.35,79.26,74,83c.13.14.44.1.67.14,0-.23.13-.63.07-.66-.91-.4-.68-1.19-.74-1.9a2.06,2.06,0,0,0-.42-.8c-.12-.18-.42-.37-.39-.5.17-.84-.49-1.19-.93-1.65s-.94-.78-.81-1.52c0-.13-.22-.3-.29-.47a5,5,0,0,1-.5-1.32c-.14-1.25-1.19-2.23-1-3.57,0,0,0,0-.06-.07-.48-.77-1-1.53-1.44-2.31a.63.63,0,0,1,0-.38c.11-.76.12-1.46-.67-1.94-.16-.1-.16-.53-.14-.81.05-1.33-1.28-2.29-1-3.68,0-.05-.15-.12-.19-.2-.18-.34-.35-.69-.53-1s-.28-.47-.4-.72a2.85,2.85,0,0,1-.42-1.08c0-1.33-1.3-2.29-1-3.69,0,0-.15-.12-.19-.2-.19-.43-.39-.86-.53-1.31s-.05-.95-.29-1.13c-.56-.43-.53-.94-.56-1.53-.07-1.09.51-2.35-.76-3.16.11-1.11-.67-2-.85-2.95a27.15,27.15,0,0,1-.08-5.09Zm79.8,259.75a1.7,1.7,0,0,1,1.82.45,50.11,50.11,0,0,0,4.28,4.27c1.51,1.29,2.44,3.31,4.62,3.77q3,3.08,6,6.14a2,2,0,0,0,.66.41s.31-.24.28-.31a5.88,5.88,0,0,0-.36-.59c-.11-.22-.31-.56-.23-.66a8.26,8.26,0,0,1,1-1,5.39,5.39,0,0,0,.46.5c.6.49,1,2,2,.44.07-.1.36-.08.55-.07.68,0,.83-.42.77-1s.36-1.44-.69-1.63a4.38,4.38,0,0,1-2.72-2.7c-.07-.25-.42-.46-.69-.63a5.53,5.53,0,0,0-.89-.36c.17-.2.35-.39.51-.6s.33-.45.56-.77c.86.85,1.57,1.78,2.8,2,.39.08.66.66,1,1,.18.17.41.39.62.38.77,0,1,.31,1,1,0,.21.34.43.53.65a3.29,3.29,0,0,0,.51-.71.83.83,0,0,0-.08-.65c-.48-.77-1-1.48-1.48-2.27a1.3,1.3,0,0,1-.07-1.06,1,1,0,0,1,.89-.3,1,1,0,0,1,.54.73c0,.82.49,1,1.14.93a1.61,1.61,0,0,1,1.61.58c.39.49,1,.42,1.51-.08,1.05-1.07,2.12-2.13,3.18-3.2.63-.63,1.67-1.2,1.8-1.92.27-1.47,1.5-2,2.23-3a6,6,0,0,0,.44-.7,5.61,5.61,0,0,1,.58-1.11c.64-.71,1.44-1.29,1.1-2.46-.06-.21.23-.55.41-.78.4-.49,1.1-.89,1.21-1.42a13.12,13.12,0,0,1,.74-2.41,6.48,6.48,0,0,1,1.55-2.15,1,1,0,0,0,0-1.52c-.22-.23-.48-.43-.69-.67a2.88,2.88,0,0,0-2.49-1.14,5.46,5.46,0,0,1-3.51-1.49c-.22-.16-.27-.54-.4-.81.38,0,.95-.16,1.11,0a2.28,2.28,0,0,0,2,.69,2.05,2.05,0,0,1,.69.25l1.35.53a7.86,7.86,0,0,1,1.41.62,1.09,1.09,0,0,0,1.61-.11c.44-.47.92-.89,1.35-1.36a3.68,3.68,0,0,0,.38-.72c.17-.31.35-.61.52-.93s.3-.45.24-.55a1.13,1.13,0,0,0-.59-.36c-.26-.09-.68,0-.8-.17-.45-.64-1.09-.6-1.73-.61-.83,0-1.67,0-2.5-.06a3.73,3.73,0,0,1-1-.29,11.64,11.64,0,0,0-1.28-.48c-1.13-.26-2.46.4-3.41-.76-.1-.12-.43-.07-.65-.08a10.07,10.07,0,0,1-1.35,0,3.22,3.22,0,0,1-.85-.41c.27-.16.53-.45.8-.46,1.38,0,2.76,0,4.14,0a2.06,2.06,0,0,1,.61.23,12.3,12.3,0,0,0,1.53.57c1.38.33,3-.49,4.17.79.08.09.31,0,.47,0,1,0,2.06,0,3.08.07.68,0,1.12-.14,1.1-1,0-.26.28-.52.43-.78s.27-.47.4-.72a7,7,0,0,1,.54-1c.27-.35.73-.59.92-1a1.46,1.46,0,0,0,.1-1.21c-.34-.51-.64,0-1,.22s-1,.31-1.15.14a2.24,2.24,0,0,0-2-.66.8.8,0,0,1-.6-.21,1.62,1.62,0,0,0-1.8-.63c-1.32.31-2.15-.74-3.19-1.11a5.38,5.38,0,0,0-1.84-.52c-.77,0-1.54,0-2.31,0-.31,0-.76,0-.89-.22-.54-.8-1.31-.68-2.07-.68s-1.74,0-2.6,0c-1.25.08-2.1-.78-3.08-1.29-.45-.24-.66-.38-1,0s-2.65.71-3,.21c-.52-.71-1.18-.65-1.89-.65h-3.18c-.22,0-.55,0-.65-.08-.75-.95-1.78-.65-2.75-.71a2.86,2.86,0,0,1-.92-.43c.31-.15.62-.42.93-.42,2.6,0,5.2,0,7.81.06.84,0,1.74-.25,2.35.68.1.16.54.15.82.15,1.25,0,2.5,0,3.76,0,.22,0,.55,0,.64.1.83,1.15,2,.76,3.1.73a1.92,1.92,0,0,1,1.82.77c.53.73,1.1,1.25,1.58.4a8.25,8.25,0,0,0,2.46.42c1.67-.27,2.86,1.31,4.5,1,0,0,.1.08.15.11a14.5,14.5,0,0,0,4.32,1.49,6.82,6.82,0,0,0,1.34,0c1.39,0,1.38,0,1.37-1.41,0-.81-.15-1.59.66-2.27.32-.27.18-1.23,0-1.81-.05-.21-.75-.3-1.17-.36s-.85,0-1.25,0a1.19,1.19,0,0,1-.79-.53c-.11-.3.07-.7.13-1.05l.25,0a2,2,0,0,0,2.59.65,2.14,2.14,0,0,0,1.24-2.53c-.07-.34,0-.71,0-1.06a1.43,1.43,0,0,1,.53-1.43,1.28,1.28,0,0,0,.16-1.24c-1-1.08-2-2.47-3.81-2.06a1.64,1.64,0,0,1-.77,0,7.19,7.19,0,0,1-1.24-.49c-.68-.34-1.34-.73-2-1-.09,0-.32.16-.46.27s-.31.28-.53.48c-.52-1.1-1.44-.84-2.29-.89a5,5,0,0,1-1.26-.28,7.08,7.08,0,0,0-1.36-.53c-.89-.09-1.8,0-2.7,0-.3,0-.76,0-.88-.2-.46-.72-1.11-.64-1.79-.63-.24,0-.6,0-.71-.18a1.79,1.79,0,0,0-1.88-.65c-.18,0-.47,0-.54-.11-.76-1.1-1.91-.8-2.9-.72-1.35.11-2.22-.8-3.26-1.32-.47-.23-.71-.36-1,.08s-.95.64-1.31.19a2,2,0,0,0-1.89-.65c-.74,0-1.46.13-2-.65-.13-.2-.64-.18-1-.2-.57,0-1.38.19-1.68-.1-.88-.88-1.88-.62-2.87-.68-.28,0-.55-.28-.82-.43.28-.15.55-.42.83-.42,1.61,0,3.21,0,4.82,0,.22,0,.54,0,.63.15.63.95,1.58.64,2.45.71a4.73,4.73,0,0,1,1.13.33,5.73,5.73,0,0,0,1.35.49c1.14.08,2.37-.39,3.29.74.12.14.48.11.74.11.71,0,1.41,0,2.12,0,.25,0,.61,0,.71.17a1.79,1.79,0,0,0,2,.66c.18,0,.46,0,.53.14.63,1,1.62.67,2.52.73.33,0,.81,0,1,.25.44.61,1,.57,1.63.59s1.32-.14,1.56.15c.69.84,1.13.53,1.65-.2.26.29.46.72.67.72a11.3,11.3,0,0,1,3.14.93,11.29,11.29,0,0,0,2.3.08,3.38,3.38,0,0,1,.94.34,4.3,4.3,0,0,0,1.17.46,2,2,0,0,1,1.56.53,1.47,1.47,0,0,0,1.23.22c.21-.05.36-.61.4-1a11.09,11.09,0,0,1,0-1.73c.41-1.46-.6-2.53-1.1-3.66a5.57,5.57,0,0,1-.65-2.05c0-.29-.48-.73-.8-.8a10.85,10.85,0,0,0-1.72,0,2.56,2.56,0,0,1-.74-.28c.12-.2.18-.49.36-.59.49-.29,1-.49,1.55-.75.16-.08.42-.19.43-.31a1.25,1.25,0,0,0-.21-.58c-.17-.35-.35-.69-.52-1s-.21-.38-.29-.58a5.48,5.48,0,0,1-.52-1.32,14.56,14.56,0,0,1,0-1.92,2.2,2.2,0,0,0-1.67-1.89c-.83,0-1-.46-.87-1.14s.08-1.16-.57-1.5a.5.5,0,0,1-.25-.38c.16-1-.74-1.33-1.2-1.94-.13-.18-.45-.32-.44-.47.08-1.21-.94-1.65-1.58-2.34s-1.25-1.29-2-2c.91-.4,1.47-.78.34-1.35a.31.31,0,0,1-.15-.23c.08-1.14-.95-1.5-1.49-2.2s-1.16-.91-1.19-1.86a5,5,0,0,0-.91-2,.73.73,0,0,0-.57-.26c-.87,0-1-.42-.94-1.16a2.73,2.73,0,0,0-.93-2.73c-1-.76-2-1.57-1.64-3.09,0-.14-.48-.53-.78-.58a1.86,1.86,0,0,1-1.65-1.48c-.12-1-.58-1.14-1.38-1.1-.64,0-1.28,0-1.93,0-.25,0-.62,0-.71-.15-.57-.89-1.43-.7-2.25-.7-1,0-2.06-.07-3.08,0-1.36.11-2.3-.76-3.38-1.31-.65-.33-1.18-.67-1.71.12-.09.13-.36.3-.45.25-.65-.32-1.27-.69-1.91-1-.32-.17-.66-.31-1-.49s-.47-.31-.7-.47c.25-.14.5-.4.75-.4,1.09,0,2.18,0,3.27,0,.19,0,.45,0,.54.13.71.93,1.71.67,2.65.74s2.26-.43,3.08.74c.09.12.42.09.65.09.71,0,1.41,0,2.12,0,.3,0,.74,0,.87.24.53.78,1.29.59,2,.59s1-.42.79-.94a15.85,15.85,0,0,0-1.06-2.32c-.05-.1-.27-.14-.43-.17a2,2,0,0,1-1.87-2.24c0-.25,0-.63-.1-.73-1-.78-1.52-2.42-3.28-2.09a1.11,1.11,0,0,1-.79-.4c-.37-.4-.64-.43-1,0s-2.62.7-3,.21a2.2,2.2,0,0,0-1.92-.64c-2.19,0-4.37,0-6.56,0-.27,0-.68,0-.79-.21-.45-.72-1.12-.65-1.79-.64-1.12,0-2.25,0-3.37,0-.22,0-.55,0-.63-.13-.64-1-1.63-.67-2.52-.72-.28,0-.71,0-.82-.12-.67-1-1.64-.67-2.54-.71-.31,0-.76,0-.89-.18a1.81,1.81,0,0,0-1.73-.6c-.16,0-.38,0-.47-.05a2.22,2.22,0,0,1-.6-.78c-.07-.18.13-.45.2-.69.26.13.5.27.77.37a2.76,2.76,0,0,0,.88.26c1.8,0,3.6,0,5.4.07.31,0,.77,0,.89.19.5.78,1.25.69,2,.66s1.39-.08,1.88.64c.13.18.59.19.9.19,2.35,0,4.7-.1,7,0,1.11.07,2.08,1,3.31.94.07,0,.16.19.24.29.35.45.67.4,1,0,.49-.65,1-.55,1.53,0a2.4,2.4,0,0,0,1.15.48,12.67,12.67,0,0,0,1.34,0c.57,0,1-.11,1-.75s-.17-.95-.86-1c-.3,0-.62-.38-.84-.66s-.34-.77-.6-1.08c-.61-.73-1.53-1.3-1.87-2.13-.61-1.49-1-1.94-2.57-2-.21,0-.52,0-.62-.16a2.38,2.38,0,0,0-2.83-.58,3,3,0,0,1-2.54,0,7,7,0,0,0-2.2,0c-.28,0-.71,0-.8-.16-.61-1-1.08-.54-1.62.26-.62-1.23-1.67-.94-2.63-.95-.61,0-1.22,0-1.83,0-.22,0-.55,0-.63-.13-.58-1-1.09-.59-1.66.24-.59-1.32-1.67-.89-2.62-1a3.52,3.52,0,0,1-1-.28,6.62,6.62,0,0,1-1-.49,3.75,3.75,0,0,1-.59-.55c.49-.37,1-1,1.48-1,.93,0,2.1-.53,2.81.65.07.11.36.06.54.13a1.7,1.7,0,0,1,.73.36c.42.52.72.5,1.14,0s1.78-.58,2.11-.14a2,2,0,0,0,1.89.65c.8,0,1.61,0,2.41,0a3.13,3.13,0,0,1,.93.35,4.52,4.52,0,0,0,1.16.48c.76.08,1.54,0,2.31,0,1,0,2.07-.38,2.82.68a.55.55,0,0,0,.45.1,7.57,7.57,0,0,0,.86-.26l-.38-.69-.37-.72-.45-.88-.4-.81c-.15-.29-.23-.68-.47-.87-1.78-1.43-2.87-3.59-5.2-4.48a5.35,5.35,0,0,0-2-.6c-.77,0-1.54,0-2.31,0-.27,0-.67,0-.78-.22-.42-.68-1-.64-1.7-.63-.9,0-1.8,0-2.7,0-1.38.1-2.33-.78-3.41-1.38a1,1,0,0,0-.76,0c-.19.08-.32.34-.47.51l0-.36a18.17,18.17,0,0,0-2.15-.47c-.76-.08-1.54,0-2.31,0-.24,0-.62,0-.71-.16-.54-.87-1.37-.65-2.15-.69-.41,0-1,.06-1.18-.16-.63-.84-1.46-.64-2.27-.67-.63,0-1.51.19-1.85-.14a2.46,2.46,0,0,0-2.17-.67.64.64,0,0,1-.51-.21,1.67,1.67,0,0,0-1.81-.63,3.66,3.66,0,0,1-3.79-1.61c-.46-.62-1-1.33-1.71-.2a.53.53,0,0,1-.44.12c-.95-.18-2.09.44-2.83-.69-.1-.15-.47-.15-.72-.15-.71,0-1.41,0-2.12,0-.28,0-.7,0-.8-.16-.5-.78-1.21-.72-2-.66-.18,0-.46,0-.53-.14-.63-1-1.63-.65-2.52-.73a4.12,4.12,0,0,1-1-.3,6.31,6.31,0,0,0-1.25-.51c-.88-.12-1.89.3-2.5-.74,0-.08-.24,0-.36-.1l-1.12-.56a2.27,2.27,0,0,0-.68-.29c-1-.11-2.21.35-3-.77,0-.05-.19,0-.27-.05l-1.06-.51-.75-.33-.77-.3c-.45-.18-.89-.4-1.36-.55-.27-.08-.71.07-.83-.09-.65-.79-1.5-.71-2.37-.72-.17,0-.33-.3-.5-.46.19-.14.4-.42.57-.4,1.28.18,2.71-.46,3.81.73.14.15.48.15.74.15.71,0,1.41,0,2.12,0,.27,0,.68,0,.79.2.53.82,1.32.65,2.07.67.41,0,1-.11,1.19.1a2.12,2.12,0,0,0,2.06.71c.22,0,.45.19.68.28a6.89,6.89,0,0,0,1.52.55c.79.1,1.69-.25,2.22.71.06.11.36.06.53.13s.59.3.9.44a3.39,3.39,0,0,0,1,.4c.7.06,1.41,0,2.12,0,.28,0,.7,0,.8.16.58.88,1.45.64,2.26.68.37,0,.94,0,1.08.16.66,1,1.59.63,2.45.69.34,0,.82,0,1,.19.47.61,1.08.58,1.73.64a3.7,3.7,0,0,1,1,.4,4.44,4.44,0,0,0,1,.41,8.26,8.26,0,0,0,1.44,0c.52,0,.83.15.91.74,0,.31.31.8.53.83a3.09,3.09,0,0,0,1.17-.32c.24-.07.66-.24.68-.19.49.89,1.34.55,2.07.66,1.17.17,2.54-.58,3.46.73,1.36-.38,2.26.94,3.52.94.61,0,1.22,0,1.83,0,.28,0,.69,0,.8.18.48.73,1.19.6,1.89.67,1.3.13,2.78-.57,3.85.76.07.08.32,0,.46,0s.44.22.67.31a4.74,4.74,0,0,0,1.33.53c.89.08,1.8,0,2.7,0,.28,0,.7,0,.81.14.64.94,1.59.72,2.45.66a4.31,4.31,0,0,0,1.29-.53,5.22,5.22,0,0,0-.58-1.28c-.57-.69-1.46-1.19-1.8-2a4.41,4.41,0,0,0-1-1.74c-.47-.41-1-.8-.88-1.59,0-.13-.49-.34-.76-.51s-.83-.39-.82-.57c.07-1.21-.7-1.15-1.52-1.15-.56,0-1.37.12-1.64-.19a2.36,2.36,0,0,0-2.09-.65c-1,0-2.06,0-3.08,0-.24,0-.62,0-.71-.15-.55-.91-1.43-.69-2.24-.71-.64,0-1.55.21-1.86-.12-.84-.91-1.83-.51-2.74-.73a17.93,17.93,0,0,1-3.24-1.09,5.3,5.3,0,0,0-2.28-.57c-1.29,0-2.25-1.23-3.61-1,0,0-.11-.07-.14-.13-.35-.68-1-.61-1.59-.61s-1.32.16-1.56-.12a2.22,2.22,0,0,0-2.07-.69.75.75,0,0,1-.6-.22c-.43-.75-1.14-.55-1.79-.65-1.29-.18-2.78.64-3.85-.75-.07-.09-.32,0-.46-.06s-.5-.23-.76-.34a4.93,4.93,0,0,0-1.25-.5c-.66-.08-1.35,0-2,0-.3,0-.72-.08-.85-.28-.39-.59-.93-.52-1.51-.59-1.2-.15-2.2-1.07-3.48-1,0,0-.08-.11-.13-.13a4.83,4.83,0,0,0-1.25-.5,5.4,5.4,0,0,1-2.56-.64,25.66,25.66,0,0,0-3-1,6.51,6.51,0,0,0-2.29,0c-.25,0-.63,0-.73-.1-.72-1-1.76-.68-2.72-.74a3.28,3.28,0,0,1-.93-.34,4.35,4.35,0,0,0-1.25-.48c-1.28-.06-2.23-1.25-3.59-1,0,0-.08-.1-.14-.12A5.25,5.25,0,0,1,73,152a3.9,3.9,0,0,0-2.85-.92A.21.21,0,0,1,70,151a1.38,1.38,0,0,0-1.75-.65c-1.33.38-2.29-.58-3.17-1.09a5.78,5.78,0,0,0-2.47-.63,2.52,2.52,0,0,1-1.31-.53c-.74-.67-1.37-1.44-2.55-1.11-.16,0-.39-.16-.58-.25a6.38,6.38,0,0,1-1.11-.59,4.32,4.32,0,0,0-2.86-.93c-.16,0-.31-.3-.47-.45a7,7,0,0,0-1.3-1.09c-.81-.41-1.73-.62-2.52-1.05-.42-.23-.68-.77-1-1.17a8.3,8.3,0,0,1,1.4-.22c.55,0,1.3-.06,1.61.25a2.08,2.08,0,0,0,1.64.57c.54,0,1.33-.15,1.57.14.78.93,1.73.63,2.66.69a3.64,3.64,0,0,1,1,.29,9.1,9.1,0,0,0,1.42.54c1.2.22,2.18,1.16,3.48,1,0,0,.08.1.14.13a5.71,5.71,0,0,0,1.33.54c.84.13,1.83-.32,2.41.72.06.1.36.05.54.12s.55.25.83.38a3.85,3.85,0,0,0,1.07.47c.67.07,1.35,0,2,0a2.34,2.34,0,0,1,1.22.51c.74.67,1.36,1.45,2.54,1.15a.68.68,0,0,1,.58.24,1.51,1.51,0,0,0,1.51.61,4,4,0,0,1,2.36.61c.81.49,2,.55,3,1,.62.29,1.34.36,2,.68.92.42,2,.48,3,1,.46.26,1.21,0,1.8.07,1.28.25,2.53.59,3.8.91.08,0,.13.15.22.18a8.56,8.56,0,0,0,1.43.54c1.19.25,2.18,1.16,3.48,1,0,0,.05,0,.07.07.36.72,1,.65,1.68.64.87,0,1.74,0,2.6,0,.59,0,.93.19.9.83s.35.9,1,.88a10.19,10.19,0,0,1,1.44,0,3.62,3.62,0,0,1,.93.34,4.65,4.65,0,0,0,1.16.48c.7.07,1.41,0,2.12,0a3.33,3.33,0,0,1,.93.35,6.34,6.34,0,0,0,1.17.47c1.47.27,2.78,1.28,4.38.92.55.91,1.44.79,2.3.77a.64.64,0,0,1,.47.28c.35.63.92.59,1.51.59s1.42-.17,1.65.12c.74.94,1.66.63,2.55.7.33,0,.81,0,1,.25.43.61,1,.48,1.61.6,1.14.25,2.22.77,3.36,1.09a5.85,5.85,0,0,0,2,.57c1.38-.09,2.33.76,3.38,1.44.19.12.49.08.74.11,0-.25,0-.59-.12-.73-.62-.63-1.32-1.19-2-1.82a4.07,4.07,0,0,1-1.12-1.38,5.52,5.52,0,0,0-2.75-2.8c-.57-.2-1.35-.8-1.39-1.28-.08-1-.77-1.35-1.26-1.93s-1-.87-1.35-1.36a2.88,2.88,0,0,0-3-1.27,4.9,4.9,0,0,1-1.95-.25,3.43,3.43,0,0,1-1.19-.6c-.26-.2-.59-.54-.58-.81a1,1,0,0,1,.61-.75c.66-.06,1.42-.28,1.87.56a2.86,2.86,0,0,0,.86.88c.16.11.45,0,.68,0,0-.2.07-.55,0-.58-.85-.39-.69-1.11-.7-1.82a1.21,1.21,0,0,0-.32-.75c-1.17-1.19-2.38-2.33-3.53-3.52a1.44,1.44,0,0,1-.36-.92,2.12,2.12,0,0,0-1.92-2.42,1.32,1.32,0,0,1-.56-.33c-.54-.5-1.07-1-1.57-1.55a3.5,3.5,0,0,1-1-1.25,2.23,2.23,0,0,0-2.35-1.94c-.56,0-1.34.11-1.64-.19a2.15,2.15,0,0,0-1.91-.61c-.18,0-.47,0-.54-.12-.69-1.06-1.75-.69-2.71-.75a3.2,3.2,0,0,1-.87-.27,9.2,9.2,0,0,0-1.43-.55c-1.1-.21-2.39.46-3.28-.77-.09-.13-.43-.12-.64-.1-.66.06-1.26.08-1.69-.6-.11-.18-.51-.22-.78-.23-.71,0-1.41,0-2.12,0a1.79,1.79,0,0,1-.83-.13,9.4,9.4,0,0,0-2.32-1.4,10.05,10.05,0,0,1-2.86-.91c-.93-.51-1.9-1.25-3.12-1-.06,0-.14-.12-.23-.17-.77-.48-1.54-1-2.32-1.42a.5.5,0,0,0-.38,0c-1.25.44-1.95-.81-3-1-.83-.15-1.5-1.21-2.33-1.34a10.44,10.44,0,0,1-3-1c-.25-.12-.5-.23-.75-.34-.41-.18-.84-.55-1.23-.51-1.18.12-1.86-.88-2.89-1.14a9.62,9.62,0,0,1-2.33-1.37.53.53,0,0,0-.28,0,4,4,0,0,1-2.08-.6c-.89-.45-2.07-.39-3-1a5.13,5.13,0,0,0-.83-.36c-.32-.15-.64-.32-1-.48l-.74-.38-1-.46c-.22-.11-.44-.23-.67-.33a6.62,6.62,0,0,0-1.33-.54c-1.13-.22-2.46.52-3.35-.76,0-.06-.19,0-.27-.06L52.1,117c-.25-.12-.54-.39-.74-.33-1.28.37-2-.81-3.12-1-.83-.18-1.5-1.22-2.32-1.35a9.4,9.4,0,0,1-3-1l-.82-.41-.8-.42-.9-.44c-.3-.15-.66-.48-.89-.41-1.27.4-1.93-.86-3-1-.82-.14-1.5-1.21-2.32-1.34a9.41,9.41,0,0,1-3-1c-.24-.13-.51-.22-.76-.33l-1-.51-.65-.35-1-.5-.74-.37-1-.46-.67-.32c-.35-.17-.7-.33-1-.52s-.47-.28-.71-.43-.46-.29-.7-.42a11.45,11.45,0,0,1-1.12-.59c-.46-.32-.84-.78-1.32-1.05-1-.59-2.11-1.1-3.16-1.64-.08,0-.22-.12-.21-.18a2.38,2.38,0,0,1,.12-.62,14.42,14.42,0,0,1,2,.26c.49.11.94.46,1.43.52.82.1,1.76-.26,2.31.73,0,.08.24.07.35.12.4.19.79.41,1.2.59.25.11.56.31.78.25,1.25-.35,1.94.85,3,1.06.83.16,1.5,1.18,2.33,1.34a9.42,9.42,0,0,1,2.87.93,4.83,4.83,0,0,0,3.12,1c.1,0,.24.2.34.31.72.77,1.39,1.63,2.66,1.27.14,0,.36.1.52.2.78.48,1.55,1,2.33,1.44a.74.74,0,0,0,.38.05c.73,0,1.5-.17,1.94.68,0,.08.23.09.34.14.84.33,1.72.61,2.52,1A15,15,0,0,0,50,113.3a12.63,12.63,0,0,1,2.78.86c.9.49,1.86,1.38,3.11,1,0,0,.13,0,.16.09.58,1,1.55.65,2.41.76a3.61,3.61,0,0,1,1.39.58c.45.28.78.87,1.24,1,1.09.27,1.95,1.33,3.23,1,.1,0,.27.24.42.36s.35.36.53.37a4.78,4.78,0,0,1,2.43.75,23.25,23.25,0,0,0,3.22,1.62c1,.39,2.09.35,3,1a4.47,4.47,0,0,0,.77.29,4.63,4.63,0,0,1,1.11.57,4.24,4.24,0,0,0,2.86.94c.16,0,.3.31.47.45.45.38.87,1,1.39,1.08a7.79,7.79,0,0,1,2.25.7c.81.43,1.89.46,2.82,1s1.9,1.25,3.12,1c.06,0,.15.11.23.16.77.48,1.54,1,2.32,1.42a.5.5,0,0,0,.38,0c1.25-.43,2.2.56,3,1a4.87,4.87,0,0,0,2.76.63,3,3,0,0,1,.87.28c.47.18.94.4,1.42.57a8.78,8.78,0,0,0,4.21.9s.12.06.15.11c.41.79,1.15.69,1.85.68s1.48-.2,2,.64c.09.16.53.18.8.19.64,0,1.24,0,1.68.65.14.23.81.16,1.23.14.1,0,.18-.34.27-.53a3.59,3.59,0,0,1-1-.4c-.54-.44-1.24-.88-1.44-1.47s-.26-1.09-1.05-1a.55.55,0,0,1-.44-.14c-1.11-1.58-3.27-2.31-3.66-4.47,0-.11-.14-.21-.22-.3-.81-.94-2.41-1.08-2.66-2.61,0-.15-.3-.24-.4-.4-.83-1.22-2.55-1.77-2.66-3.54,0-.1-.25-.28-.36-.27-1.11.13-1.5-.82-2.15-1.38-.45-.39-.85-1-1.36-1.13a7.7,7.7,0,0,1-2.42-.76c-.77-.39-1.85-.24-2.64-.94-.23-.2-.64-.18-1-.31a4.13,4.13,0,0,1-1.11-.57,4.24,4.24,0,0,0-2.86-.94c-.16,0-.31-.3-.47-.46-.67-.69-1.29-1.44-2.44-1.14a.77.77,0,0,1-.66-.27c-.4-.65-1-.58-1.62-.58-.78,0-1.63.26-2.14-.67-.07-.12-.42-.06-.62-.14a7.39,7.39,0,0,1-.74-.36l-1-.48-.8-.45c-.24-.14-.5-.41-.72-.38a3.43,3.43,0,0,1-3.7-1.55s-.05-.06-.07-.06a4.82,4.82,0,0,1-3-.91,8.68,8.68,0,0,0-1-.48,3.59,3.59,0,0,0-.64-.36c-1.05-.28-1.91-1.22-3.15-.94-.1,0-.28-.23-.41-.37-.7-.75-1.37-1.54-2.59-1.24-.17,0-.4-.14-.6-.23L57,103.24a7.59,7.59,0,0,1-2.09-1.09,1.9,1.9,0,0,0-1.7-.6c-.65.06-1.06-.11-1-.88,0-.24-.21-.69-.34-.7A4.24,4.24,0,0,1,49,99.06a9.71,9.71,0,0,0-1.19-.65c-.49-.32-.93-.71-1.42-1-.3-.2-.68-.28-1-.5-.45-.35-.83-1.06-1.27-1.09-1-.06-1.35-.76-2-1.24-.2-.16-.4-.46-.59-.45-1,0-1.34-.78-1.94-1.26-.17-.14-.32-.45-.47-.44-1.18,0-1.69-.92-2.36-1.6s-1.26-1.25-2.31-1c-.25.05-.65-.23-.87-.46a9.39,9.39,0,0,0-3.55-2.06A13.13,13.13,0,0,1,27.72,86c-.43-.29-.81-1.09-1.13-1-1,.15-1.29-.71-1.93-1-.12-.06-.1-.41-.14-.62a2.18,2.18,0,0,1,.63.15c.18.1.27.41.44.46a22.33,22.33,0,0,1,3.26,1.57c1,.41,2.11.39,3,1.05.29.21.7.29.95.54.71.7,1.35,1.45,2.54,1.19.22,0,.55.25.79.43a8.9,8.9,0,0,0,1.46,1.19,10.24,10.24,0,0,1,3.18,1.75,1,1,0,0,1,.33.64c0,.73.36.94,1,1,1,.08,2.09-.32,2.79.77,1.6-.09,2,2,3.61,1.94.42.77,1.12.73,1.85.65a.94.94,0,0,1,.55.1,9.18,9.18,0,0,0,2.32,1.41,9,9,0,0,1,3,1,8.46,8.46,0,0,0,.89.45l.81.39c.25.11.51.21.77.32l1,.52c.22.11.43.24.66.34a4.88,4.88,0,0,0,1.24.52c.87.13,1.89-.34,2.5.72,0,.08.23.07.36.1,1.06.26,1.92,1.22,3.15.92,0,0,.13,0,.16.1.45.79,1.19.74,1.94.68a1,1,0,0,1,.54.14,9,9,0,0,0,2.32,1.41,11.49,11.49,0,0,1,2.86.91,20.38,20.38,0,0,1,2.22.74A24,24,0,0,0,81,109c.92.38,2,.38,2.92,1a9.22,9.22,0,0,0,1,.49c.22.11.42.25.63.36a5.11,5.11,0,0,0,1.12.54,9,9,0,0,0,1.48.11c0-.45.2-1,0-1.31-.54-.67-1.13-1.4-2.23-1.12-.62.15-1-.14-.91-.86,0-.24-.19-.49-.29-.74a4.28,4.28,0,0,0-.66.41c-.11.1-.13.29-.2.45l-.25,0c-.45-1.12-1.29-1-2.13-1-.23,0-.47-.26-.7-.42s-.33-.29-.52-.4c-.5-.28-1.18-.41-1.49-.82-.72-1-1.67-.89-2.66-.9-.38,0-1-.08-1.11-.33a5.57,5.57,0,0,0-3.06-2c-.95-.35-2-.62-3-1-.23-.09-.45-.22-.67-.31a3.92,3.92,0,0,0-1.42-.52c-1.06,0-1.45-.69-2.06-1.31a3.11,3.11,0,0,0,.4-.3,3.47,3.47,0,0,0,.48-.61s-.23-.33-.28-.31a4.8,4.8,0,0,0-.68.37,2.86,2.86,0,0,1-.85.44,2.83,2.83,0,0,1-1.87-.63,30.76,30.76,0,0,0-3.48-1.73,15.1,15.1,0,0,1-2.83-1,9.2,9.2,0,0,0-1-.48l-.73-.37-1-.49L52.2,94l-.9-.44-.8-.4-.89-.45-.81-.4-.89-.46-.73-.37-1-.5c-.21-.11-.42-.24-.64-.35l-1-.5-.74-.34-.9-.44L42.07,89a3.07,3.07,0,0,1-.75-.33c-.68-.58-1.11-1.51-2.22-1.44-.13,0-.27-.26-.42-.37a5.93,5.93,0,0,0-.63-.38,5.77,5.77,0,0,1-1.19-.65c-.69-.63-1.28-1.34-2.39-1.07-.2,0-.69-.23-.69-.34,0-1-.48-1.42-1.44-1.42-.12,0-.22-.22-.35-.3s-.53-.29-.8-.43l-.9-.44-.8-.4a4.93,4.93,0,0,1-.89-.46c-.47-.37-.88-1.13-1.34-1.15-1,0-1.33-.79-1.94-1.26-.17-.13-.33-.44-.48-.44-1.16.05-1.59-.93-2.3-1.52-.53-.44-.85-1.11-1.78-1.15a5.16,5.16,0,0,1-2-.92c-.13-.07-.21-.31-.24-.49a2.26,2.26,0,0,0-1.88-1.89,1.39,1.39,0,0,1-.63-.38c-1.15-1.16-2.27-2.34-3.42-3.5-.15-.15-.49-.28-.64-.21a.82.82,0,0,0-.31.63c0,.8,0,1.6,0,2.41,0,.28,0,.71-.16.81-1,.62-.62,1.57-.71,2.43a2.43,2.43,0,0,1-.48,1.23c-.5.61-.61,1.12.07,1.62.4.29.44.51.09.92a2.22,2.22,0,0,0-.49,1.22c0,.53,0,1-.55,1.32a.73.73,0,0,0-.07.7c.88,1.18.87,1.57-.06,2.82a1.47,1.47,0,0,0-.19.81c0,.74,0,1.48,0,2.22,0,.27-.06.68-.23.78-.71.41-.65,1-.64,1.68,0,.93,0,1.86,0,2.8,0,.68.11,1.34-.62,1.79-.17.11-.22.51-.23.79a11,11,0,0,0,0,2,2.91,2.91,0,0,0,.56,1.3,1,1,0,0,1,0,1.52A1.94,1.94,0,0,0,7.52,101c0,2.34,0,4.69,0,7,0,.38-.34.75-.47,1.14s-.21.63-.09.78c.84,1.07.84,1.67,0,2.76a1.35,1.35,0,0,0-.23.79c0,4,0,8.1,0,12.15a1.81,1.81,0,0,1-.49,1.12c-.36.37-.36.56,0,.94a2.14,2.14,0,0,1,.5,1.11,7.69,7.69,0,0,1,0,1.92,2.28,2.28,0,0,1-.49,1.14c-.52.61-.53,4.48.05,5,.09.09.28.15.29.24,0,.39.18,1,0,1.13-.91.58-.7,1.43-.7,2.24,0,1,0,1.93,0,2.89a1.54,1.54,0,0,1-.24.88,1.91,1.91,0,0,0,0,2.88,1.34,1.34,0,0,1,.23.79c0,7.39,0,14.78,0,22.17a2.31,2.31,0,0,0,.55,1.3,1,1,0,0,1,.12,1.38,2.88,2.88,0,0,0,0,3.78,1.37,1.37,0,0,1,.22.8c0,2.12,0,4.24,0,6.36,0,.3.05.75.24.87.7.43.62,1,.6,1.69,0,.93,0,1.86,0,2.8,0,.68-.1,1.33.63,1.78.18.11.21.57.22.87,0,1.54,0,3.08,0,4.63,0,.3.07.74.27.86.65.4.58,1,.61,1.6.05,1.09-.49,2.33.75,3.16.12.08.08.42.08.64a12.86,12.86,0,0,0,0,1.92,4.41,4.41,0,0,0,.6,1.39c.34.61,1.2.84,1.11,1.79a3.74,3.74,0,0,0,.61,2.66c.48.74.49,1.93,1,2.87a4.69,4.69,0,0,1,1,3.11c0,.11.25.27.39.4.73.67,1.52,1.3,1.19,2.49a.83.83,0,0,0,.18.6c1.28,0,1.48,1,1.9,1.89.16.32.31.64.46,1s.22.44.31.67c.18.44.37.88.51,1.33s.19.82.29,1.23l.93-.66a2,2,0,0,1,.45-.07c.27.57.82,1.22.83,1.87.07,4,0,8.1,0,12.15,0,.3.07.74.27.86.65.41.58,1,.6,1.6a8.63,8.63,0,0,0,.36,1.89c.11.4.53.83.44,1.15-.44,1.65,1.29,2.8.94,4.41,0,.09.24.21.3.35a3.91,3.91,0,0,1,.45,1.16c.09.88-.33,1.88.72,2.51.13.07.07.42.14.62a7.78,7.78,0,0,0,.35.74,7.29,7.29,0,0,0,.48,1,4.37,4.37,0,0,1,.91,2.93c0,.07.13.14.17.22a4.87,4.87,0,0,0,.61,1.18,3.77,3.77,0,0,1,.89,2.77c0,.12.23.22.3.35.17.31.33.64.47,1s.13.42.24.6a9.51,9.51,0,0,1,1.34,2.34,2.57,2.57,0,0,0,.94,1.56,2,2,0,0,1,.84,2.08,1.12,1.12,0,0,0,.44.87c1.36,1,1.93,2.48,2.87,3.75.07.09,0,.26.07.37a5.82,5.82,0,0,0,.54,1c.34.45,1,.84,1.05,1.29a2.23,2.23,0,0,0,.87,1.5c.46.46,1,.86.93,1.67,0,.15.26.33.39.51.73,1,2.16,1.46,2.16,3,0,.1.16.19.24.29,1.07,1.32,2.89,2,3.16,4,0,.1.18.17.27.26a14.45,14.45,0,0,0,1.37,1.34c1,.72,1.4,2.13,2.89,2.14.16,0,.31.3.49.43.61.45.94,1.21,1.93,1.27.47,0,1.15.75,1.27,1.27.28,1.16.79,1.87,2,2a1.21,1.21,0,0,1,.55.35c.65.56,1.07,1.47,2.15,1.39.11,0,.26.18.37.29,1.44,1.45,2.87,2.93,4.34,4.35a1.93,1.93,0,0,0,1,.36.63.63,0,0,0,.53-.29c.06-.14-.09-.39-.18-.58a12.85,12.85,0,0,0-.62-1.2,1.24,1.24,0,0,0-.5-.46c-.22-.1-.61,0-.72-.17-1-1.22-2.67-1.82-2.95-3.61a.81.81,0,0,0-.61-.48c-.73,0-1.06-.26-1.05-1,0-.22-.35-.63-.54-.63-.83,0-1.19-.33-1.12-1.17,0-.15-.16-.34-.29-.47-.93-.92-1.88-1.83-2.81-2.75-.66-.65-1.32-1.27-1.1-2.38,0-.22-.47-.59-.77-.83s-.83-.34-.81-.46c.1-.87-.61-1.2-1-1.76a7.06,7.06,0,0,1-1.49-2.46c-.17-1-.87-1.42-1.39-2.07-.14-.17-.39-.37-.37-.52.11-.75-.43-1.08-.83-1.52s-1.06-.78-.9-1.59c0-.15-.24-.34-.35-.53s-.31-.58-.47-.87a5.62,5.62,0,0,0-.48-.87c-.37-.47-1-.86-1.13-1.36a2.48,2.48,0,0,0-.79-1.43c-.47-.48-1.14-.88-1-1.74,0-.13-.23-.28-.32-.44s-.31-.64-.48-1-.26-.48-.38-.73l-.46-.88-.41-.82c-.15-.3-.3-.59-.43-.89s-.16-.47-.28-.68a9.87,9.87,0,0,1-1.33-2.35,2.44,2.44,0,0,0-.89-1.48,2.25,2.25,0,0,1-.88-2.26,6.71,6.71,0,0,0,0-1.73c0-.23-.4-.42-.61-.63-1.1,1.3-1.17.44-1.17-.56a.11.11,0,0,0,0-.08c-.87-.45-.73-1.23-.73-2a1.54,1.54,0,0,0-.44-.79c-.39-.49-1-.89-1.19-1.44-.32-1.07-1.28-2-1-3.21,0-.1-.26-.26-.37-.41a2,2,0,0,1-.38-.63c-.26-1.06-1.22-1.91-1-3.14,0-.1-.23-.23-.27-.38a19.5,19.5,0,0,1-.49-1.95c0-.12.26-.29.4-.44.14.15.34.27.41.44s.07.65.21.91c.43.78,1.25,1.5,1.32,2.3.14,1.57,1.93,2,2.06,3.6.07.81,1.14,1.5,1.3,2.33a3.11,3.11,0,0,0,1,1.72c.41.41.87.74.77,1.44,0,.16.24.35.35.54s.31.58.46.88l.4.82c.15.3.3.59.44.89s.22.5.34.75a4.68,4.68,0,0,0,.51,1,4.1,4.1,0,0,1,.91,2.86c0,.07.1.16.17.23.66.65,1.58,1.13,1.52,2.28,0,.09.16.19.23.3.46.75,1.2,1.47,1.29,2.27.17,1.51,1.89,2,2,3.51.07.8,1.19,1.5,1.31,2.32.16,1.1,1,1.51,1.53,2.2.39.48.75,1,1.09,1.5a8.9,8.9,0,0,1,.5,1c.12.24.24.49.35.74s.28.6.42.9.28.54.41.81.3.59.45.89.26.54.38.82.11.52.26.69c.64.68,1.55,1.16,1.51,2.3,0,.13.27.26.37.41a8.13,8.13,0,0,1,.38.73,8.47,8.47,0,0,0,.5,1c.68,1,2.11,1.43,2.09,2.92,0,.12.19.24.3.35.94.92,1.9,1.81,2.8,2.77.48.51,1.21.9,1.07,1.81,0,.15.26.34.39.51,1,1.31,2.8,2,3.05,3.87,0,.13.21.23.33.34,1.87,1.88,3.72,3.76,5.6,5.63.4.4.84,1,1.3,1,1,.07,1.13.6,1,1.4s0,1.23.93,1.19a1.27,1.27,0,0,1,.73.36c.66.55,1.07,1.46,2.16,1.39.17,0,.37.32.55.5.66.7,1.3,1.43,2.44,1.11a.81.81,0,0,1,.66.28,9.56,9.56,0,0,0,3.8,2.91c.92.39,2.05.26,2.89,1a4,4,0,0,0,1.09.57,1.78,1.78,0,0,0,.86.28c.27,0,.51-.34.76-.52a6,6,0,0,0-.72-.46A22.49,22.49,0,0,1,85,315.52,6,6,0,0,1,83.46,314c-.92-1.24-2.67-1.85-2.82-3.69,0-.07-.12-.14-.19-.21-1.21-1.19-2.49-2.32-3.61-3.58-.76-.86-2.09-1.37-2-2.83,0-.1-.14-.21-.23-.3-.64-.62-1.29-1.24-1.93-1.87s-1.61-1.23-1.85-2a4,4,0,0,0-1.08-1.79c-.43-.41-.84-.76-.76-1.45,0-.16-.31-.53-.45-.51-1.08.12-1.47-.78-2.07-1.34a5.51,5.51,0,0,1-.81-1.11c-.21-.33-.33-.71-.55-1-.35-.51-.77-1-1.12-1.48a9.69,9.69,0,0,0-.54-1c-.6-.67-1.62-1.19-1.8-1.93a5,5,0,0,0-1.68-2.41.48.48,0,0,1-.16-.33c.12-.68-.33-1-.75-1.44s-1.13-.87-1-1.74c0-.16-.32-.36-.47-.56-.45-.61-1.35-.93-1.21-1.94,0-.16-.27-.43-.47-.56-1.1-.7-1.29-2-1.9-3a8.58,8.58,0,0,0-1-1.61c-.41-.43-1-.76-.81-1.51,0-.14-.23-.35-.37-.52-.53-.63-1.45-1-1.33-2.07,0-.13-.24-.28-.33-.44s-.31-.58-.46-.87a3.33,3.33,0,0,0-.48-.86c-.72-.69-1.47-1.32-1.2-2.51a1.05,1.05,0,0,0-.33-.74A13.34,13.34,0,0,0,46,263.1a1.45,1.45,0,0,1-.57-1.41,3,3,0,0,0-.28-1.15,3.71,3.71,0,0,0-.57-1.1,4.21,4.21,0,0,1-.91-2.85c0-.1-.18-.18-.24-.29-.18-.34-.34-.69-.52-1s-.27-.47-.41-.71l-.44-.79a8.89,8.89,0,0,0-.51-1c-.38-.53-1-1-1.13-1.56a8.77,8.77,0,0,0-.63-2c-.42-1-.67-2.06-1.08-3.09-.26-.64-.38-1.34-.65-2A12.64,12.64,0,0,0,37,241.15c-.09-.12.09-.47.21-.68s.34-.06.42,0a4.51,4.51,0,0,1,.94,1.08c.56,1.11,1,2.26,1.58,3.5l0,.08-.5.73a2.64,2.64,0,0,1,.8.33,9.82,9.82,0,0,1,2.35,2.32c.48.91,1.34,1.86.95,3.1,0,.06.08.2.15.23,1.3.6,1.65,2,2.14,3.07.41.9.42,2.05,1,3,.18.27.23.66.45.88.74.72,1.56,1.35,1.22,2.58a.76.76,0,0,0,.23.6,6.1,6.1,0,0,1,1.64,2.33c.34.92,1.45,1.51,1.74,2.69.21.83,1.22,1.5,1.34,2.32.16,1.13,1,1.57,1.57,2.27A15,15,0,0,1,56.26,273a7.36,7.36,0,0,0,.56,1c.66.7,1.41,1.29,1.12,2.45-.06.23.23.67.47.84a8.9,8.9,0,0,1,2.76,3.78A7.32,7.32,0,0,0,62.4,283c.17.19.52.36.51.54,0,1.23,1,1.66,1.65,2.43s1.93,1.34,1.89,2.73c0,.15.32.29.46.46.38.45.78.9,1.12,1.38a10.59,10.59,0,0,0,.64,1.17c.82.9,1.71,1.73,2.57,2.59.59.59,1.53,1.11,1.67,1.79.24,1.19,1.12,1.7,1.75,2.49.94,1.19,2.57,1.85,2.75,3.61,0,.07.12.14.19.21,1.23,1.21,2.47,2.41,3.7,3.63.63.63,1.59,1.22,1.75,2a4.16,4.16,0,0,0,1.41,2c.66.73,1.74,1.33,2,2.16a4.62,4.62,0,0,0,1.41,2c.64.71,1.7,1.27,1.92,2.08a6.86,6.86,0,0,0,1.64,2.35,2,2,0,0,0,1.67.69c1,.1,2.28-.56,3.08.7.06.09.31,0,.45.09a3.11,3.11,0,0,1,.89.44,2,2,0,0,0,2.59,0,1,1,0,0,1,1.62,0,3.88,3.88,0,0,0,2.63,1.39c.86.11,1.4.43,2.37,0a2.16,2.16,0,0,1,2.84.61c.06.1.29.13.44.14,2.63,0,5.27,0,7.9,0,.21,0,.43-.29.64-.44a4.56,4.56,0,0,0-.64-.56c-.39-.23-.82-.38-1.21-.62-.58-.36-.86-1.26-1.81-1-.09,0-.42-.46-.4-.48a4.91,4.91,0,0,1,1.28-1.1c.25-.11.78.15,1.06.38.75.64,1.34,1.7,2.18,1.95a4.85,4.85,0,0,1,2,1.43c.51.48,2.82.71,3.23.17a1.58,1.58,0,0,1,1.69-.57,3.59,3.59,0,0,0,1.15,0c.25-.06.46-.32.69-.49a5.18,5.18,0,0,0-.66-.52,7,7,0,0,1-1.13-.55c-.61-.52-1.09-1.18-1.72-1.67-.89-.7-1.35-2-2.77-2-.08,0-.23-.1-.23-.15,0-1.11-.67-1.57-1.69-1.68,0-1.18-.77-1.53-1.74-1.72,0,0-.08-.09-.12-.14-.62-.83-1.85-1.26-1.74-2.59,0-.05-.06-.16-.1-.15-1.28,0-1.36-1.13-1.93-1.84-.82-1-1.93-1.79-2.75-2.8-1-1.19-2.7-1.82-2.81-3.67,0-.07-.14-.13-.19-.21-.59-.9-1-1.89-2.24-2.25-.57-.17-1-.84-1.44-1.37-.69-.9-2-1.36-2-2.79,0-.14-.5-.26-.75-.42a2.92,2.92,0,0,1-.83-.6c-.3-.4-.47-.91-.75-1.33s-1.13-.89-1-1.76c0-.13-.19-.32-.32-.45a27.19,27.19,0,0,1-2-2c-.72-.87-2-1.38-2-2.79,0-.13-.24-.29-.39-.4a8.07,8.07,0,0,1-2.73-3.72,9.54,9.54,0,0,0-1.63-2.34,28.1,28.1,0,0,1-1.86-2.94c-.53-.9-1-1.84-1.48-2.77a2.47,2.47,0,0,1-.14-.57c.17,0,.46-.11.49,0,.75,1.3,2.54,1.79,2.72,3.52,0,.21.31.38.45.59.69,1,2.11,1.43,2.12,2.92,0,.14.26.26.37.42s.38.48.38.72c0,.72.28,1,1,1a.69.69,0,0,1,.52.19c.65.89,2,1.29,1.94,2.7,0,.16.27.33.42.49.65.66,1.72,1.23,1.87,2,.26,1.28,1.25,1.78,1.9,2.63s1.77,1.21,1.71,2.51c0,.12.45.25.67.4.58.4,1.58.76,1.64,1.22.14,1.21,1.09,1.65,1.7,2.42s1.92,1.35,1.91,2.73c0,.12.38.3.61.35a2.17,2.17,0,0,1,1.81,1.86c0,.18.14.5.21.5,1.13,0,1.54.72,1.7,1.69,0,0,.1.08.14.12,2.91,2.89,5.81,5.78,8.73,8.65a8,8,0,0,0,1.16.66,2.51,2.51,0,0,1,.66.66c.37.56.68,1.15,1.06,1.7.05.07.41,0,.56-.08a2.22,2.22,0,0,0,.43-.51l2.16,2a4.54,4.54,0,0,0-.53.46c-.11.13-.28.37-.23.46a.78.78,0,0,0,.48.38,3.53,3.53,0,0,1,2.82,2.77c.06.23.35.55.54.55.76,0,1.6.35,2.19-.53.14-.21.62-.26.95-.27,1.77,0,3.53,0,5.3,0a3.67,3.67,0,0,0,1.06-.3,13.62,13.62,0,0,1,1.43-.51c.61-.13,1.47.06,1.81-.29a1.83,1.83,0,0,1,1.81-.55,2.4,2.4,0,0,0,2.35-.95c.12-.14.23-.53.18-.56-.89-.57-1.29-1.71-2.48-2a12.39,12.39,0,0,1-2.25-1c.11-1.38-1.25-1.32-1.9-2-3.3-3.22-6.6-6.44-9.78-9.77-1.08-1.13-2.5-1.94-3-3.7-.25-.91-1.38-1.54-1.77-2.66-.26-.76-1.24-1.26-1.84-1.92a2.26,2.26,0,0,1-.45-1c0-.14.17-.4.33-.5s.35.1.47.22c2.51,2.52,5,5.05,7.52,7.56a5.09,5.09,0,0,0,.94.51c.27.17.65.33.74.58a4.06,4.06,0,0,0,2.84,2.8c.22.07.55.39.52.55-.1.67.31,1,.75,1.34,1,.83,1.6,2.28,3.17,2.39.1,0,.19.16.28.25,1.71,1.72,3.43,3.44,5.14,5.18a1,1,0,0,0,1.53.12c.43-.42.32-1-.13-1.45a3.23,3.23,0,0,1-.57-1.12c0-.11.14-.39.28-.44a.53.53,0,0,1,.49.17c.56.88,1.82,1.29,1.76,2.6,0,.1.13.21.2.32.9,1.34,2.28,1,3.55,1,.15,0,.28-.39.42-.59a2.09,2.09,0,0,1-.87-1.69c0-.12-.35-.21-.54-.31a5,5,0,0,1-1.19-.61c-1.24-1.16-2.42-2.37-3.62-3.57s-2.67-2.59-3.91-4S141.63,303,141,301a7,7,0,0,1-.66-1.85ZM218.48,292c.31-.26.56-.36.63-.53s.12-.69,0-.74c-.65-.32-.54-.86-.53-1.41s.16-1.42-.14-1.66c-.95-.73-.64-1.65-.7-2.53,0-.36-.07-.87-.3-1-.58-.42-.56-.94-.54-1.53,0-.81.26-1.69-.69-2.23-.14-.08-.21-.49-.15-.7.38-1.29-.85-2-1.16-3.05a5.19,5.19,0,0,1-.51-1.7c0-.79.21-1.63-.71-2.12-.1-.05-.08-.29-.15-.44-.16-.35-.33-.69-.5-1s-.22-.5-.34-.75-.3-.59-.44-.89-.26-.55-.4-.81-.31-.58-.47-.88-.26-.48-.38-.72-.3-.65-.47-1-.35-.42-.37-.63c-.07-1.11.36-2.33-.81-3.15.15-1.06-.79-1.44-1.32-2.07-.12-.14-.31-.27-.36-.43a34.3,34.3,0,0,0-1.54-3.25,12.92,12.92,0,0,0-1-3,7.38,7.38,0,0,0-.52-.94c-.65-.69-1.44-1.26-1.17-2.43.14-.61-.23-.93-.91-.9s-1.67.24-2-.13c-.92-.91-2-.62-3-.68-.28,0-.78.21-.83.41a2,2,0,0,0,.19,1.14c.1.24.44.39.54.63.35.83.42,1.92,1,2.48.9.86.67,1.77.69,2.72a2.25,2.25,0,0,0,1.65,1.83,3.27,3.27,0,0,1,.84.43,3,3,0,0,1-.82.45c-.79.15-1.23,1-.63,1.4.82.59.67,1.3.64,2s-.11,1.35.65,1.77c.15.09.14.46.22.69s.11.57.28.67c.62.38.55.93.56,1.52s-.1,1.43.23,1.73a2.08,2.08,0,0,1,.61,1.89c0,.8,0,1.61,0,2.41,0,.27.05.68.22.78a1.42,1.42,0,0,1,.61,1.77,4.94,4.94,0,0,0,1.05,3.94,4.5,4.5,0,0,1,.65,2.64c0,.81-.25,1.68.7,2.22.14.08.14.47.15.72,0,.74,0,1.48,0,2.22,0,.27.05.69.22.79.75.43.65,1.09.62,1.77,0,.83-.05,1.67,0,2.5a3.3,3.3,0,0,0,.37.93,5.3,5.3,0,0,1,.47,1.25c.1.85-.29,1.81.7,2.43.15.09.16.47.16.71,0,1.67,0,3.34,0,5,0,.68-.08,1.34.65,1.77.17.1.21.51.21.78,0,3.5,0,7,0,10.5a1.62,1.62,0,0,0,.47,1c.38.36.43.55,0,.9a1.09,1.09,0,0,0-.2.76c.68.33.59.9.59,1.49,0,1.48,0,3,0,4.43,0,.73.18,1.48-.67,2-.16.09-.19.52-.19.8,0,.8.31,1.76,0,2.37a2.15,2.15,0,0,0,0,2.39,2.15,2.15,0,0,1-.59,2.85c-.18.11-.18.59-.18.9,0,1.8,0,3.6,0,5.4a3.17,3.17,0,0,1-.39,1,5,5,0,0,0-.43,1.09c-.18,1.2.52,2.58-.79,3.55-.14.1-.15.52-.07.73.51,1.43-.55,2.48-1,3.55a4,4,0,0,0-.62,2.14.54.54,0,0,1-.14.44c-1.07.61-.64,1.62-.73,2.5a4.13,4.13,0,0,1-.4,1.07c-.1.24-.22.47-.33.71a2.51,2.51,0,0,0,.76.28c1.09,0,2.19,0,3.28,0a1.53,1.53,0,0,0,.93-.36c1.24-1.2,2.49-2.4,3.63-3.69s3-2.09,3.31-4.12c0-.12.26-.19.35-.31q1-1.46,2-2.94c.06-.09,0-.26,0-.37.11-.28.25-.55.38-.81s.31-.59.45-.88.22-.5.33-.75c.18-.44.37-.87.51-1.32s0-.92.22-1.06c.71-.46.67-1.1.64-1.78,0-.83,0-1.67,0-2.5,0-.27.05-.67.23-.78.68-.42.63-1,.62-1.7,0-1.22,0-2.44,0-3.66,0-.69-.08-1.33.64-1.77.17-.1.22-.52.22-.79,0-1.83,0-3.66,0-5.49a1.44,1.44,0,0,1,.4-1c.46-.4.53-.64,0-1.05a1.27,1.27,0,0,1-.43-.86q0-4.63,0-9.25c0-.69.08-1.33-.64-1.77-.18-.11-.21-.58-.21-.88,0-2.09,0-4.18,0-6.26a3,3,0,0,0-.3-1,7.53,7.53,0,0,1-.52-1.33c-.19-1.13.49-2.46-.8-3.34-.06,0,0-.19-.07-.27-.2-.4-.41-.8-.61-1.2-.08-.17-.24-.35-.22-.51C219.52,293.33,219.53,292.49,218.48,292ZM76.85,101.69c.45.3.79.55,1.16.77s.76.37,1.11.6c.94.63,1.85,1.3,2.79,1.93a.67.67,0,0,0,.56.05,4.77,4.77,0,0,0,.75-.54c-.24-.16-.46-.41-.72-.45a2.3,2.3,0,0,1-1.77-1.68,1.62,1.62,0,0,0-.36-.73c-.56-.65-1.48-1.06-1.37-2.15,0-.11-.17-.25-.28-.37-.52-.52-1-1.07-1.57-1.55-1-.89-1.72-2.33-3.47-1.92-.12,0-.3-.22-.47-.29a5.07,5.07,0,0,0-1.33-.53c-.85-.11-1.82.29-2.41-.72-.06-.1-.37,0-.54-.11s-.54-.27-.82-.41l-.9-.42a3.37,3.37,0,0,1-.74-.38c-.66-.55-1.07-1.47-2.15-1.38-.11,0-.23-.21-.37-.28-.31-.17-.64-.32-1-.49l-.8-.45q-.4-.21-.81-.4c-.25-.11-.51-.21-.77-.31-.47-.19-1-.59-1.42-.52a3,3,0,0,1-2.95-1.33,7,7,0,0,0-1.34-1.18c-.41-.29-.94-.43-1.35-.72-.57-.41-.92-1.18-1.82-1-.11,0-.25-.18-.38-.26a8.18,8.18,0,0,0-2.28-1.28,3.87,3.87,0,0,1-1.6-.91A7.42,7.42,0,0,0,45,80.67c-1.07-.21-1.53-.93-2.21-1.52A15.61,15.61,0,0,0,41.39,78c-.34-.24-.79-.33-1.12-.58-1.09-.83-1.73-2.41-3.54-2-.14,0-.36-.22-.53-.35-1-.75-1.51-2.19-3-2.23-.1,0-.17-.19-.28-.24-.32-.17-.65-.31-1-.48a3.49,3.49,0,0,1-.78-.47c-.67-.64-1.23-1.71-2-1.87-1.3-.28-1.84-1.29-2.72-1.95-.34-.25-.67-.52-1-.75s-.72-.32-1-.54c-1.33-.9-1.93-2.75-3.82-3-.12,0-.22-.22-.34-.33-1.71-1.73-3.41-3.47-5.15-5.16a1.33,1.33,0,0,0-1.12-.22,1.14,1.14,0,0,0-.51.88c-.05,1,0,2.05,0,3.08,0,.25,0,.64-.11.73-1.12.67-.68,1.76-.75,2.69A2.83,2.83,0,0,0,14,67.17a4.28,4.28,0,0,1,1.5.82,2.27,2.27,0,0,0,2.17.88,1.17,1.17,0,0,1,.86.45,10.66,10.66,0,0,0,3.7,2.76c.58.28,1.23.35,1.7.9s.83,1.07,1.65,1c.13,0,.29.22.45.32s.58.32.88.47a6.1,6.1,0,0,1,.82.41c1,.73,1.51,2.19,3.06,2.23.14,0,.25.28.4.39.61.45.92,1.35,1.93,1.23.17,0,.39.29.58.45.48.4.94.82,1.44,1.18a11.16,11.16,0,0,1,1.18.64c.69.63,1.29,1.32,2.39,1.07.24-.05.59.28.87.46a19,19,0,0,0,2.89,1.93C43,85,43.6,85,44,85.59a2.16,2.16,0,0,0,2.24.95c.25,0,.59.28.86.48a7.32,7.32,0,0,0,1.47,1.14c1,.4,1.91,1.22,3.14,1,.12,0,.29.31.47.44A8.23,8.23,0,0,0,54,90.82a6.7,6.7,0,0,0,2.71.8c.18,0,.36.33.55.49.46.38.9.77,1.39,1.11a10.34,10.34,0,0,1,1.18.66A3.94,3.94,0,0,0,62.18,95c1,.13,1.92.91,3.05.86.07,0,.14.12.21.19.67.59,1.1,1.53,2.22,1.46.13,0,.26.27.42.37s.48.25.73.38l1,.5.74.35.9.43.9.42.68.3a4.74,4.74,0,0,0,1.42.54c.74,0,1.29.05,1.17,1,0,.19.22.41.34.62.2-.12.41-.23.6-.37A2.69,2.69,0,0,0,76.85,101.69ZM193.49,241l-.49.25.89,1.72c.08.17.14.35.22.51.2.4.4.8.63,1.18a6.35,6.35,0,0,1,1,1.52c.15.57.27.87.89.84.21,0,.52,0,.61.18.48.74,1.2.63,1.9.62a2.08,2.08,0,0,1,1.92.62c.17.21.65.22,1,.22a.69.69,0,0,0,.48-.36c0-.09-.14-.31-.23-.47a6.16,6.16,0,0,0-.54-1,4.17,4.17,0,0,0-.82-.7c-.28-.21-.75-.34-.83-.59a1.12,1.12,0,0,1,.37-1c.57-.45.45-.68,0-1.1a2.82,2.82,0,0,1-1.3-1.88c-.07-.59-.85-1.1-.85-1.9,0-.11-.35-.31-.53-.3-.81.05-1.12-.3-1.05-1.09a.59.59,0,0,0-.2-.42c-1-.92-.38-2.56-1.47-3.46,0,0,0-.07,0-.09-.13-.27-.26-.55-.4-.81s-.3-.52-.44-.79-.3-.66-.5-1c-.66-1-2.11-1.43-2.1-2.92,0-.12-.22-.23-.29-.36-.17-.32-.31-.64-.47-1s-.2-.45-.31-.66l-.52-1-.32-.66-.53-1c-.11-.22-.16-.55-.33-.64a4.81,4.81,0,0,1-2-3c-.31-1-.74-2-1-3.09a1.36,1.36,0,0,0-.29-.57c-.6-.62-1.24-1.2-1.84-1.82a3,3,0,0,1-.4-.71l-.53-1c-.11-.22-.2-.44-.31-.66a8.25,8.25,0,0,0-.54-1c-.35-.51-.78-1-1.13-1.48a7.12,7.12,0,0,1-.51-1c-.12-.25-.22-.5-.33-.75a4.18,4.18,0,0,0-.38-.82c-.75-1-1.94-1.56-2.31-3-.23-.91-1.63-1.44-1.67-2.69-1.33.06-1.46-1.11-2-1.9,0,0-.06,0-.08-.06l-.33-.66a8.43,8.43,0,0,0-.54-1c-.35-.51-.78-1-1.13-1.47a7.19,7.19,0,0,1-.52-1q-.18-.37-.33-.75c-.1-.25-.13-.58-.31-.76-.91-.94-1.88-1.83-2.8-2.76a5.59,5.59,0,0,1-1.08-1.3c-.41-.81-.48-1.87-1.06-2.48-.76-.8-1.29-2.07-2.72-2-.12,0-.36-.19-.35-.27.06-.78-.77-1.25-.83-1.78-.11-1.07-1-1.44-1.43-2.15s-1.3-.78-1.17-1.74c0-.21-.36-.47-.55-.71-.16.28-.43.54-.45.83s.24.55.37.84a4.44,4.44,0,0,1,.48,1.16c.08.63-.05,1.29,0,1.92a2,2,0,0,0,.52,1.21A9.66,9.66,0,0,1,162,188.6a5.83,5.83,0,0,0,1.08,1.79c.67.68,1.38,1.33,2,2a2.84,2.84,0,0,1,.38.72,4.06,4.06,0,0,0,.48.95c.62.69,1.68,1.23,1.87,2a4.85,4.85,0,0,0,1.62,2.33c.07.07.16.16.16.23-.08,1.2,1,1.63,1.58,2.35a13.29,13.29,0,0,1,1,1.34,8.75,8.75,0,0,1,.53,1c.12.25.21.5.33.75a4.41,4.41,0,0,0,.45.88c.37.47,1.11.87,1.14,1.34a2.3,2.3,0,0,0,.91,1.57c.44.44,1,.81.87,1.59,0,.13.22.3.29.47a4.07,4.07,0,0,1,.47,1.32,2,2,0,0,0,.59,1.41c.76.87,2.09,1.36,2,2.83,0,.11.21.23.3.35.78,1,2.21,1.5,2.24,3,0,.1.16.19.24.28.59.63,1.5,1,1.39,2.14,0,.11.19.24.27.38.18.34.35.69.53,1s.27.48.41.72l.44.8a7.74,7.74,0,0,0,.51.95c.37.5.95.91,1.14,1.47.36,1,1.23,1.91.92,3.13,0,.06.09.18.17.22,1.28.62,1.56,2,2.13,3.09.43.8.46,1.87.95,2.81s1.32,1.86,1,3.1c0,.06.1.15.15.24Zm-37.24-62.67a1.81,1.81,0,0,0-.64-2.3c-.34-.26-.84-.65-.83-1a2.09,2.09,0,0,0-.9-1.59c-.44-.44-1-.81-.88-1.59,0-.15-.32-.51-.46-.49-1.07.11-1.47-.78-2.06-1.35a2.52,2.52,0,0,1-.77-1.21c-.11-.58-.27-.88-.9-.84s-.7-.25-.86-.78a5.94,5.94,0,0,0-1.1-1.67s-.64.26-.64.4c0,.79-.29,1.62.58,2.27.56.42,1.26.91,1.14,1.86,0,.16.31.37.47.55.38.42,1.08.84,1.08,1.27,0,1,.79,1.33,1.24,1.94.13.18.45.33.44.47-.07,1.21,1,1.61,1.58,2.35.44.54,1.22.88,1.05,1.81,0,.13.34.45.57.5a2.2,2.2,0,0,1,1.88,1.94c.05.22.34.38.52.57.18-.19.47-.37.5-.58a1.75,1.75,0,0,0-.19-.91C156.79,179.34,156.46,178.74,156.25,178.32Zm-11.57-14,.19-.15c-.31-.5-.6-1-1-1.48s-.87-.65-.87-1c0-1.23-1-1.66-1.66-2.43s-1.94-1.34-1.88-2.73c0-.11-.21-.23-.32-.34a29.38,29.38,0,0,1-2.41-2.47c-.65-.83-1-2-2.2-2.21-.07,0-.13-.22-.17-.21a3,3,0,0,0-.8.21,4.34,4.34,0,0,0,.3,1.22c.09.22.49.4.47.56-.15,1,.64,1.34,1.13,1.88s1.33,1.29,2,2a2,2,0,0,1,.32.65c.33.81.65,1.62,1,2.42a.38.38,0,0,0,.31.19c.91-.18,1.38.5,1.82,1,.74.89,2,1.4,2.05,2.85,0,.37.56.76.93,1,.11.08.56-.11.71-.29S144.66,164.58,144.68,164.32Zm-19.9-22.5c-.14.12-.37.23-.39.36a.78.78,0,0,0,.2.57,20,20,0,0,1,2,1.88c1,1.24,2.72,1.88,2.89,3.74,0,.08.12.14.19.21.49.53,1,1.1,1.49,1.59.15.14.48.08.73.11a2.33,2.33,0,0,0-.1-.75c-.14-.29-.6-.56-.56-.78.22-1.34-.69-2-1.48-2.79a3.12,3.12,0,0,1-1.21-1.85,1.75,1.75,0,0,0-1.71-1.4c-.67,0-1.38.14-1.71-.7C125.11,141.94,124.93,141.91,124.77,141.83Zm-29.54-33.4a2.84,2.84,0,0,0-.32-.76c-.63-.66-1.35-1.24-1.93-1.94-.78-.93-2.12-1.44-2.23-2.91,0-.17-.48-.3-.75-.44s-.7-.22-.7-.34c0-1-.53-1.42-1.48-1.44-.11,0-.19-.24-.32-.33a2.88,2.88,0,0,0-.67-.39c-.06,0-.32.24-.29.3a2.84,2.84,0,0,0,.41.66c.07.1.22.13.31.22,1.94,1.95,3.9,3.88,5.8,5.86a9.89,9.89,0,0,1,1,1.51c.17.26.37.5.55.75Zm29.3,31.37c-.44-.44-.87-.84-1.28-1.27a15.52,15.52,0,0,1-1.25-1.38c-.31-.4-.42-1-.78-1.31-.82-.73-1.89-1.15-2.32-2.34a4.1,4.1,0,0,0-1.24-1.41c-.17-.15-.52-.11-.79-.16a4.12,4.12,0,0,0,.22.79c.1.21.34.35.46.55.26.44.44.94.74,1.35a10.92,10.92,0,0,0,1,1.1c1.43,1.48,2.86,3,4.31,4.43a.77.77,0,0,0,.6.07C124.36,140.2,124.43,140,124.54,139.8ZM108,122.42c-.23.19-.49.32-.48.42a1.27,1.27,0,0,0,.28.63c.76,1,2.18,1.43,2.29,2.94,0,.16.41.37.65.42a2.58,2.58,0,0,1,1.79,1.76,1.82,1.82,0,0,0,.4.72,14.52,14.52,0,0,0,1.36,1.45c.17.16.52.12.78.17a4.92,4.92,0,0,0-.21-.79c-.13-.29-.33-.56-.49-.84s-.26-.55-.43-.81c-.69-1-2.15-1.51-2.2-3a.54.54,0,0,0-.4-.34c-1.09.16-1.4-.83-2-1.35A17.43,17.43,0,0,1,108,122.42Zm-9.93-10a4.42,4.42,0,0,0,.49.83q2.4,2.51,4.85,5a.78.78,0,0,0,.66.09c.09,0,.16-.53.11-.56-.7-.35-.54-1.25-1-1.63-.83-.76-1.33-2-2.72-2.08-.14,0-.3-.21-.39-.36-.32-.56-.58-1.15-.93-1.68-.12-.19-.51-.38-.67-.31S98.28,112.17,98.11,112.45Zm-12-15-.78-.91c-.2.27-.54.54-.55.82s.31.58.49.87Z"/><path d="M54.15,108.44c-.41-.23-.82-.46-1.23-.68-.24-.13-.53-.35-.75-.31-1.18.24-1.83-.48-2.5-1.23-.13-.14-.29-.4-.4-.38-1.17.18-2.07-.52-3.06-.9a7,7,0,0,1-.73-.38l-.87-.47a5.21,5.21,0,0,0-3-1c-.12,0-.27-.25-.4-.39a8.73,8.73,0,0,0-3.54-2,20.19,20.19,0,0,1-2.36-1.35c-.24-.14-.53-.36-.75-.31-1.17.24-1.82-.49-2.51-1.21a1.36,1.36,0,0,0-.95-.47A2.12,2.12,0,0,1,29,96.48a11.47,11.47,0,0,0-1.21-1.23c-.25-.21-.63-.47-.89-.41-1,.23-1.59-.41-2.24-1a13.56,13.56,0,0,0-1.24-.71,9.88,9.88,0,0,1-1.32-1.06c-.94-.92-1.83-1.88-2.77-2.79-.2-.19-.58-.2-.84-.35s-.64-.36-.71-.6a1,1,0,0,1,.28-.9,1.3,1.3,0,0,1,1.06.09c1.16.69,2.19,1.62,3.68,1.48a.49.49,0,0,1,.28,0c.77.47,1.51,1.29,2.32,1.37,1.57.15,2,1.88,3.58,2.06.82.1,1.5,1.16,2.33,1.32,1.11.22,1.8,1.48,3.08,1.11a.56.56,0,0,1,.46,0c.85.88,2.28.88,3,2a1.48,1.48,0,0,0,1.06.46,3.67,3.67,0,0,1,3.07,2.75c0,.19.19.49.32.51a.89.89,0,0,0,.63-.25,2.11,2.11,0,0,1,2.54-.06,10.67,10.67,0,0,1,2.86,2c.14.14.5.1.75.08a1.75,1.75,0,0,1,1.53.54,8.23,8.23,0,0,0,2,1.1,14.91,14.91,0,0,0,1.46.71c.32.12.69.09,1,.18s.89.33,1.34.5c.26.1.52.19.77.3s.54.28.82.41l.89.44c.22.1.46.18.69.28a5.37,5.37,0,0,1,1.11.57,5.78,5.78,0,0,0,2.83,1c.83.15,1.54.92,2.32,1.39a1,1,0,0,0,.63.16c.94-.2,1.51.33,2.17.89a5.37,5.37,0,0,0,3.69,1.64,1.68,1.68,0,0,1,.69.27,5,5,0,0,1,1.1.57,4.53,4.53,0,0,0,2.94,1c.11,0,.22.21.33.33A3.81,3.81,0,0,0,79.91,116c.94.11,1.87.77,3,.88.42,0,.77.71,1.16,1.09.13.13.3.39.41.37a4.61,4.61,0,0,1,3,.93c1,.5,2,.63,2.91,1a12.34,12.34,0,0,0,2.24.69A9.48,9.48,0,0,1,95,122.25c.13.08.24.32.34.31,1.16-.13,2.05.52,3.05.91.51.19.78.36.78.89s-.38.74-.9.74a2.11,2.11,0,0,1-1.74-.56c-.33-.34-1.13-.27-1.72-.28s-1.23.06-1.59-.61c0-.05-.1-.13-.14-.12-1.36.26-2.32-1-3.6-1,0,0-.07,0-.09,0-1.14-.72-2.59-.58-3.7-1.39a4.68,4.68,0,0,0-.68-.26,21.47,21.47,0,0,0-3.08-1.08,5.1,5.1,0,0,0-2.06-.6.51.51,0,0,1-.28,0,9.13,9.13,0,0,0-2.33-1.37c-1.09-.25-1.81-1.43-3.08-1.14-.2,0-.55,0-.63-.1a2,2,0,0,0-2.12-.75c-.21,0-.44-.2-.66-.31a8.09,8.09,0,0,1-1-.5,7.4,7.4,0,0,0-3-1c-.83-.16-1.54-.93-2.32-1.4a1,1,0,0,0-.65-.11,1.9,1.9,0,0,1-1.92-.76,6.46,6.46,0,0,0-1.58-1,7.34,7.34,0,0,0-2.61-.82,10.57,10.57,0,0,1-2.33-1.37,5,5,0,0,0-1.07-.32Z"/><path d="M71.64,270a1.58,1.58,0,0,0,.2-.23c.15-.21.27-.44.41-.66a3.21,3.21,0,0,0-.74-.28,2.51,2.51,0,0,1-1.7-1.57,4.84,4.84,0,0,0-.46-1c-.12-.25-.26-.49-.35-.74a4,4,0,0,0-.17-.63c-.48-.79-1-1.53-1.46-2.35-.14-.27,0-.7.06-1.06.28.14.65.21.81.44.46.65.75,1.43,1.26,2,.76.9,1.69,1.66,2.49,2.54.49.54,1.15.93,1.19,1.87,0,.44.71.85,1.09,1.28.17.19.48.4.46.57-.1.78.44,1.14.88,1.59a2.21,2.21,0,0,1,.91,1.58c0,.43.68.86,1.08,1.27.63.64,1.28,1.25,1.92,1.88.09.09.23.2.23.3,0,1.49,1.43,1.92,2.1,2.92a9.58,9.58,0,0,1,.49.87c.15.29.29.6.45.88.06.11.25.17.26.27.27,1.92,2.08,2.62,3.1,3.94.08.1.25.17.27.26.27,1.91,2.07,2.62,3.1,3.94.1.12.3.24.3.36,0,1.51,1.47,2,2.17,3a2.23,2.23,0,0,1,.41.8,2.56,2.56,0,0,0,1.73,1.76c.29.06.76.36.75.52,0,.7.38,1,.79,1.44a4.39,4.39,0,0,1,1.06,1.71c.3.85,1.27,1.46,2,2.16a23.58,23.58,0,0,1,3.47,3.56,4,4,0,0,0,1.91,1.87,1.68,1.68,0,0,1,1,1.6c0,.45.71.91,1.13,1.34.9.91,1.82,1.8,2.73,2.69,0,0,.07,0,.07.06.12,1,.5,1.71,1.65,1.68,0,0,.07,0,.07.06-.2,1.77,1.85,1.29,2.34,2.36.16.35.43.84.3,1.09a4.9,4.9,0,0,1-1.15,1.21s-.32-.16-.44-.29c-.58-.6-1.14-1.21-1.72-1.81-.11-.11-.24-.26-.38-.28-1.8-.17-2.33-2-3.59-2.8a.54.54,0,0,1-.14-.44c.09-.77-.25-1-1-1a1,1,0,0,1-.65-.71c0-.72-.32-1-1-.94-.21,0-.61-.22-.61-.33,0-1.4-1.18-1.9-1.92-2.7-1.7-1.83-3.51-3.54-5.28-5.31,0,0-.13-.07-.15-.12-.28-.93-.57-1.84-1.81-1.82,0,0-.15-.16-.14-.23.12-1.1-.83-1.49-1.4-2.13-.06-.07-.19-.13-.2-.2-.25-2-2.13-2.65-3.16-4-.06-.08-.18-.13-.19-.21-.21-1.82-1.92-2.5-2.88-3.75-.56-.73-1.58-1.13-1.52-2.29,0-.15-.29-.32-.43-.48-.52-.6-1.28-1-1.26-2,0-.34-.6-.7-.93-1a6.57,6.57,0,0,1-1.67-2.41,12.26,12.26,0,0,0-3.55-4.51,3.39,3.39,0,0,1-.49-.94,3.37,3.37,0,0,0-.45-.78c-.59-.63-1.24-1.2-1.83-1.83-.15-.16-.15-.46-.25-.68s-.29-.59-.46-.87-.28-.41-.38-.63C72.12,271.06,71.9,270.57,71.64,270Z"/><path d="M96.6,310.93c-.06.67-.23,1.36.61,1.74.08,0,.08.5,0,.64a6.39,6.39,0,0,1-.86.78c-1.56-1.51-3.1-3-4.62-4.48s-3.08-3.08-4.61-4.62c-.13-.13-.38-.27-.38-.41,0-1.53-1.38-2.06-2.2-3-1.38-1.51-2.89-2.9-4.34-4.35-.09-.09-.22-.22-.21-.31.16-1.07-.78-1.44-1.3-2.07-.06-.07-.2-.12-.21-.19-.14-1-.51-1.7-1.67-1.7-.08,0-.14-.38-.23-.58s-.28-.6-.42-.9l-.42-.89a2.67,2.67,0,0,0-.36-.73c-1-1.08-2.14-2.11-3.17-3.21a6,6,0,0,1-.67-1.26,5.34,5.34,0,0,0-.41-.62c-.13-.17-.42-.36-.4-.5.15-.83-.48-1.2-.93-1.66a2.48,2.48,0,0,1-.86-1.51c-.06-.49-.76-.88-1.13-1.35a5.4,5.4,0,0,1-.48-.87c-.16-.29-.3-.59-.47-.88-.08-.13-.3-.24-.3-.36,0-1.49-1.44-1.92-2.1-2.92a8.84,8.84,0,0,1-.48-1,7.85,7.85,0,0,0-.37-.73c-.13-.21-.47-.41-.44-.57.1-.74-.38-1.1-.83-1.52a4.15,4.15,0,0,1-1-1.73,14,14,0,0,0-2-3c-.07-.1-.24-.15-.28-.25a12.54,12.54,0,0,0-1-2.5c-.69-1-.87-2.26-1.91-3-.28-.21-.39-.66-.57-1l-.39-.73c-.17-.32-.34-.65-.52-1s-.36-.54-.5-.84a3.49,3.49,0,0,1-.33-1c0-.13.25-.41.4-.42s.45.28.42.39c-.24,1.08.73,1.41,1.24,2,1.07,1.19,2.25,2.28,3.37,3.42a2.49,2.49,0,0,1,.38.53c.26.47.47,1,.78,1.42a4.69,4.69,0,0,1,1,1.74,8.41,8.41,0,0,0,1.5,2.47c.35.53,1.09.82.95,1.67,0,.17.28.39.43.59.5.62,1.28,1,1.31,2,0,.43.71.84,1.1,1.26.15.16.37.29.45.48a17.72,17.72,0,0,0,1,2.53,11.91,11.91,0,0,0,2.76,3.72c.26.2.32.64.52.93.34.51.75,1,1.09,1.49a11.78,11.78,0,0,1,.59,1.11,5.74,5.74,0,0,0,.34.65c.11.15.39.26.4.39.06,1.58,1.53,2.09,2.31,3.11.08.1.24.19.24.29,0,1.53,1.46,2,2.16,3,.12.18.43.36.4.5-.16.84.48,1.19.92,1.66s.92.77.85,1.52c0,.16.51.49.82.54.54.08.73.29.84.83a3,3,0,0,0,.78,1.22,15.55,15.55,0,0,1,1.9,2,6.45,6.45,0,0,0,2.49,2.49c.35.19.43.83.69,1.22s.44.61.68.62c.67,0,1,.23,1,1a1,1,0,0,0,.33.65c1.44,1.45,2.9,2.89,4.36,4.33.11.11.3.25.29.36-.13,1.4.87,1.3,1.76,1.34Z"/><path d="M120,296.57c.31.65.61,1.29.93,1.93a2.1,2.1,0,0,0,.34.55c1.05,1.07,2.14,2.11,3.17,3.2a9,9,0,0,1,.7,1.24c.17.26.4.59.66.65a2.19,2.19,0,0,1,1.86,1.91,1.06,1.06,0,0,0,.26.49q2.85,2.91,5.72,5.8c.13.13.51.23.57.16a1.12,1.12,0,0,0,.33-.73,2.76,2.76,0,0,0-.4-.82c-.12-.25-.23-.5-.34-.76.36,0,.84-.22,1-.06.5.4.92.86,1.64.81a.45.45,0,0,1,.33.3c0,.68.59,1.12.76,1.63.4,1.2,1.48,2.25,1,3.69,0,.12,0,.26,0,.38-.12.46-.18,1.26-.4,1.31-.69.15-1.49.41-2.11-.38a20.09,20.09,0,0,0-1.68-1.71c-.07-.07-.13-.19-.21-.19-1.83-.15-2.55-1.79-3.67-2.84-2.55-2.38-5-4.91-7.41-7.38-.11-.11-.3-.24-.3-.36,0-1.48-1.39-1.95-2.11-2.9-.52-.68-1.48-1.06-1.38-2.15,0-.13-.23-.29-.35-.43-.53-.63-1.45-1-1.34-2.07,0-.18-.36-.41-.56-.61L113.87,294c-.11-.11-.29-.25-.28-.37.11-1.09-.83-1.49-1.38-2.15a3.12,3.12,0,0,1-.36-.64c-.17-.35-.33-.7-.51-1-.09-.17-.32-.33-.3-.46.16-.93-.61-1.3-1.1-1.79-.8-.81-1.71-1.45-1.51-2.87.06-.42-.72-1-1.12-1.45-.18-.22-.48-.41-.52-.65a2.77,2.77,0,0,1,.19-1,2.9,2.9,0,0,1,.68.38c.89.88,1.78,1.76,2.61,2.69a10.54,10.54,0,0,1,.63,1.18,10,10,0,0,0,1.06,1.32c.64.67,1.35,1.28,2,2a1.37,1.37,0,0,1,.32.84c0,1.52.44,2,2,2.48a1.75,1.75,0,0,1,.93.78,30.67,30.67,0,0,1,1.29,2.86,8.63,8.63,0,0,1,.31,1.29Z"/><path d="M66.67,132.92,70,134.41a2,2,0,0,1,.46.32c.12.1.22.35.32.34,1.34-.11,2.35.87,3.61,1a5.44,5.44,0,0,1,1.25.47c.28.11.55.26.84.36s.35-.05.47,0c1.21.62,2.57.82,3.83,1.32,1,.4,1.78,1.46,3.05,1.19.22,0,.61,0,.71.15.64,1,1.59.59,2.45.7a5.33,5.33,0,0,1,1.25.47c.23.09.44.21.66.32s.65.33,1,.47a10.71,10.71,0,0,1,1.28.48,24.27,24.27,0,0,0,2.33,1.43,9,9,0,0,0,1.88.19,6.59,6.59,0,0,1,1.25.46c.25.1.5.23.75.33s.58.09.69.25c.43.67,1,.65,1.7.61.06,0,.16,0,.19,0,.92,1.06,2.48.52,3.52,1.41.38.33,1.14.26,1.73.27s1.24-.08,1.6.59c0,.08.16.18.22.17,1.17-.19,2.06.52,3,.91.17.07.45.06.53.18.59.93,1.52.6,2.35.7a7.67,7.67,0,0,1,1.35.47,5.6,5.6,0,0,0,1.24.33c.83.07,1.62-.1,2.38.65.42.42,1.37.38,1.79,1.05a2.09,2.09,0,0,1,.37,1c0,.47-.27.58-.71.27a5.79,5.79,0,0,0-4.19-1.42,2,2,0,0,1-2-.6c-.32-.35-1.21-.13-1.83-.25a7.8,7.8,0,0,1-1.34-.49c-.23-.09-.44-.23-.67-.31s-.54,0-.63-.15c-.65-1-1.71-.47-2.51-.76a24,24,0,0,1-3.83-1.34,4.07,4.07,0,0,0-1.83-.29,5.16,5.16,0,0,1-1.53-.49c-1.05-.33-1.89-1-3-1.31s-2.66-.4-3.72-1.33c-.15-.13-.41-.14-.6-.22a26.59,26.59,0,0,0-3.1-1.08,6.36,6.36,0,0,0-2.16-.62c-.21,0-.43-.22-.65-.33s-.63-.33-1-.48c-.17-.08-.45-.06-.52-.18-.61-1-1.58-.6-2.43-.71a5.58,5.58,0,0,1-1.25-.47l-.76-.32c-.23-.09-.58-.1-.68-.26-.42-.68-1-.61-1.7-.62a2.73,2.73,0,0,1-.94-.33c-.33-.14-.64-.32-1-.47-.17-.08-.44-.07-.52-.19-.48-.78-1.23-.7-2-.67s-1.42.11-1.86-.66a.56.56,0,0,0-.42-.17c-.83,0-1.68.12-2.23-.75-.07-.11-.36-.12-.55-.11a5.62,5.62,0,0,1-1.88-.56c-1.07-.29-1.79-1.56-3.09-1.12a.51.51,0,0,1-.38,0c-.78-.47-1.54-1-2.33-1.43-.61-.35-1.27-.61-1.87-1-.18-.1-.25-.39-.36-.6.22-.1.53-.35.64-.28.78.52.95-1.43,1.71-.44.55.71,1.22.36,1.84.47a1.88,1.88,0,0,1,.64.37c.2.14.42.46.58.43.82-.16,1.22.44,1.56.92C65.73,133.59,66.22,133.77,66.67,132.92Z"/><path d="M55.83,131.17c-.43-.26-.85-.53-1.28-.77a4.46,4.46,0,0,0-.69-.24c-.23-.08-.58-.09-.68-.25-.42-.69-1-.66-1.69-.61-.06,0-.16,0-.19,0-.93-1-2.47-.54-3.52-1.41a10,10,0,0,0-2.39-1.1c-.25-.11-.5-.25-.75-.37l-1-.46c-.2-.09-.5-.11-.59-.26-.38-.65-1-.6-1.59-.63a3.57,3.57,0,0,1-1.1-.4c-.28-.12-.55-.26-.82-.39l-.89-.47-.73-.37A7.65,7.65,0,0,0,37,123c-1.09-.36-1.92-1.47-3.19-1.28a2.76,2.76,0,0,1-2.64-1.14,3.15,3.15,0,0,0-.94-.52l-.75-.36-1-.48c-.2-.09-.5-.11-.59-.25-.41-.69-1-.66-1.69-.61a.91.91,0,0,1-.47,0c-.77-.43-1.52-.89-2.29-1.33-.21-.12-.45-.2-.67-.31s-.64-.34-1-.48a4.6,4.6,0,0,1-1.27-.49,2.52,2.52,0,0,0-1.65-.81c-.14,0-.38-.37-.38-.57s.19-.82.3-.82a10.77,10.77,0,0,1,2.07.22,5,5,0,0,1,1,.46c.14.06.32.06.46.13a5.07,5.07,0,0,1,1.52.78,3.75,3.75,0,0,0,2.39.86,8.17,8.17,0,0,1,2.32,1.24c.14.08.27.31.36.29,1.23-.29,2.09.67,3.15.93a2,2,0,0,1,.63.39c.15.11.31.39.41.37,1.22-.24,2.09.65,3.14.92a3.07,3.07,0,0,1,.64.37l.88.46.82.41.9.42.74.36a5.75,5.75,0,0,1,1,.49c.9.69,2,.66,3,1.06a18.88,18.88,0,0,1,3.14,1.57,7.74,7.74,0,0,0,2.6.85,9.7,9.7,0,0,1,2.34,1.4c.08.05.18.16.24.14,1.25-.39,2.09.64,3.15.93.67.18,1.18.91,2,.86a.89.89,0,0,1,.09.55A3.67,3.67,0,0,1,55.83,131.17Z"/><path d="M132.39,256.22c-.91-1.3-2.21-.76-3.36-.86-.6-.05-1.21,0-1.2-.82s.62-.84,1.22-.79c.31,0,.78,0,.9.15.57.85,1,.64,1.67-.35l.55,1.14.35,0,.51-1,.12.39a8,8,0,0,1,2.22.53c.86.49,1.55.84,2.35,0,.08-.09.63.06.75.24.41.63,1,.62,1.61.61.93,0,1.86,0,2.79,0,.7,0,1.4-.12,1.88.63.11.17.52.21.79.22.87,0,1.74,0,2.6,0,.63,0,1.19,0,1.61.58.13.2.57.25.87.26,1.06,0,2.12,0,3.18,0,.7,0,1.37-.1,1.9.61.17.23.77.17,1.17.22,1.09.13,2.19-.29,3.23.69.47.44,1.66.07,2.52.18a11.35,11.35,0,0,1,1.33.48,9,9,0,0,0,1.82.32c.62,0,1.19,0,1.63.57.14.2.57.27.86.27.62,0,1.19-.06,1.63.56.08.11.74-.19,1.3-.34.54.92,1.64.55,2.65.68a2.79,2.79,0,0,1,1.6,1c.46.58.7.81,1.17.07.08-.13.39-.12.6-.17a2.06,2.06,0,0,1-.17.63,1.76,1.76,0,0,1-.59.57,1.1,1.1,0,0,1-.66.07c-.21-.67-.78-.59-1.27-.62-.64,0-1.28,0-1.92,0-.25,0-.62,0-.73-.1-.91-1.17-2.2-.53-3.3-.75a9,9,0,0,1-1.34-.5,3.6,3.6,0,0,0-1-.33c-.7,0-1.41,0-2.12,0-.25,0-.63,0-.73-.12-.69-1-1.7-.65-2.62-.73a4.26,4.26,0,0,1-1.09-.42,3.73,3.73,0,0,0-1-.39c-.8-.06-1.6,0-2.41,0s-1.33.11-1.79-.61c-.12-.19-.57-.22-.88-.23-1,0-2.05,0-3.08,0-.73,0-1.47.15-2-.65-.11-.17-.53-.18-.8-.18-1.06,0-2.12,0-3.18,0-.71,0-1.4.11-1.88-.63-.11-.17-.52-.21-.79-.22-1,0-1.93,0-2.89,0-.81,0-1.58.16-2.3-.59-.33-.35-1.21-.17-1.85-.24-.31,0-.79,0-.9-.16C133.35,255,132.89,255.51,132.39,256.22Z"/><path d="M130.29,186.09l.08.18.43,1a9.26,9.26,0,0,1-1.21-.22,10.42,10.42,0,0,0-1.42-.55,17.5,17.5,0,0,0-1.92,0c-.27,0-.67,0-.78-.21-.48-.76-1.2-.65-1.89-.63s-1.37.12-1.9-.6c-.17-.24-.79-.28-1.17-.22a2.54,2.54,0,0,1-2.7-1.18c-.38-.55-.7-.52-1.13,0a1.88,1.88,0,0,1-2.26,0c-.16-.15-.34-.46-.47-.44-1.18.19-2.06-.55-3.06-.92-.23-.08-.45-.22-.67-.32-.42-.18-.86-.54-1.26-.5a2,2,0,0,1-1.81-.87c-.11-.12.07-.52.11-.79.66.14,1.32.27,2,.44a7.49,7.49,0,0,0,1.13.4c.58.05,1.12,0,1.52.59.08.12.76-.15,1.36-.29.33.74,1.23.62,2.12.56a.14.14,0,0,1,.09,0c1.5,1.44,3.39.58,5.09.86.49.08.93.39,1.42.51a8.9,8.9,0,0,0,1.93.3,2.26,2.26,0,0,1,1.45.49c.47.34,1.26.23,1.89.38s1,.34,1.43.5a10.64,10.64,0,0,0,1.06.31c.41.09.83.15,1.24.22Z"/><path d="M159.14,241c-.52-1.12-1.52-.75-2.42-.84a5.19,5.19,0,0,1-1.25-.46,6.77,6.77,0,0,1-.94-.36c-.25-.14-.58-.34-.63-.58a1,1,0,0,1,.25-.85c.24-.16.84-.22.95-.07.84,1.15,2,.69,3.1.74.61,0,1.19-.05,1.64.55.15.2.58.25.88.27.9,0,1.8,0,2.69.05a6.34,6.34,0,0,1,1.41.53,3.94,3.94,0,0,0,1,.29c.92.08,1.87-.24,2.65.69.26.3,1.11.06,1.66.17s.94.39,1.43.51a5.07,5.07,0,0,0,1.91.29c1-.16,1.43.47,2,1,.38.35.07.68-.36.69-1,0-1.92,0-2.89,0-.09,0-.22,0-.27-.07-1.19-1.44-2.82-.56-4.23-.81a6.13,6.13,0,0,1-1.25-.46c-.11,0-.2-.26-.28-.25-1.57.3-2.7-1.32-4.31-1a1.67,1.67,0,0,1-1.23-.45C159.84,239.89,159.73,240.89,159.14,241Z"/><path d="M157.65,228.47h-2c-.19,0-.46,0-.55-.07-1-1.17-2.3-.66-3.49-.79a3.92,3.92,0,0,1-1.1-.4c-.17-.07-.3-.3-.46-.32-1.95-.22-3.74-1.29-5.79-1-.45.06-.94-.36-1.43-.47a5.66,5.66,0,0,0-1.94-.29c-.91.12-1.34-.48-1.87-.95a.52.52,0,0,1-.06-.5.56.56,0,0,1,.48-.22c1,.24,2.07-.32,3,.67.31.35,1.22.12,1.85.23a7.18,7.18,0,0,1,1.19.42,4,4,0,0,0,.95.34c.73.06,1.47,0,2.21.06.22,0,.54,0,.64.1,1,1.13,2.24.65,3.41.77a9.06,9.06,0,0,1,1.18.4c.66.17,1.34.26,2,.43.49.13,1,.33,1.44.49a5.1,5.1,0,0,1,.79.26,4.79,4.79,0,0,1,.67.52c-.25.13-.5.26-.77.37-.08,0-.19,0-.29,0Z"/><path d="M122.75,220.08a5.62,5.62,0,0,1,2.87.68c.74.51,2,.22,3.1.23.65,0,1.25-.09,1.72.56.16.22.64.25,1,.27.74,0,1.47,0,2.21,0s1.36-.08,1.9.6c.2.25.83.2,1.26.21s1,.05,1,.72-.35.94-1,.92a1.72,1.72,0,0,1-1.61-.61c-.15-.21-.63-.24-1-.26-.64,0-1.28,0-1.92,0-.22,0-.54.07-.65,0-1.24-1.3-2.83-.61-4.26-.81a12.63,12.63,0,0,1-1.35-.48,14.8,14.8,0,0,0-1.84-.35c-.87-.11-1.87.36-2.55-.63-.11-.16-.55,0-.82-.14s-.31-.26-.47-.4c.17-.16.32-.44.5-.45C121.47,220,122.11,220.08,122.75,220.08Z"/><path d="M128.63,213.3a5.34,5.34,0,0,1-3-.59c-.84-.53-2.24-.15-3.39-.25A5.48,5.48,0,0,1,121,212a3.63,3.63,0,0,0-1-.31c-1.06-.05-2.12,0-3.17-.08a1.14,1.14,0,0,1-.82-.58.94.94,0,0,1,.32-.87,1.11,1.11,0,0,1,1,.08c.51.65,1.16.58,1.83.59l5,0c.19,0,.46,0,.56.07,1.17,1.29,2.7.79,4.07.74a2.84,2.84,0,0,1,2,.94c.1.08.18.35.13.41a.86.86,0,0,1-.52.32C129.85,213.38,129.24,213.33,128.63,213.3Z"/><path d="M143.28,237.75c-.85-1.4-2.14-.81-3.26-.87a1.48,1.48,0,0,1-1.27-2.13.73.73,0,0,1,.59-.11c.55,1,1.46.54,2.24.66a7.21,7.21,0,0,1,1.34.48,3.27,3.27,0,0,0,.85.3c.77,0,1.54,0,2.3,0,.22,0,.54,0,.64.11.71.91,1.7.74,2.65.71.6,0,1,.11,1,.81s-.43.92-1,.8-1-.38-1.53-.51-1.23-.24-1.84-.33c-.34-.05-.87.08-1-.1C144.37,236.76,143.85,236.93,143.28,237.75Z"/><path d="M136.58,214.83c-.46-.19-.94-.37-1.4-.59a3.33,3.33,0,0,1-.56-.42c.21-.16.41-.44.62-.45,1,0,1.92,0,2.88,0a4,4,0,0,1,2.6.61c.59.45,1.73.15,2.62.26a11.69,11.69,0,0,1,1.26.44,7,7,0,0,0,1.73.31,2,2,0,0,1,1.86.74,5.2,5.2,0,0,1,.37.77c-.32.05-.81.26-.95.13-1.29-1.3-2.91-.57-4.37-.82-.41-.07-.78-.32-1.19-.41a21.28,21.28,0,0,0-2.1-.4c-.78-.11-1.68.29-2.28-.62A5.29,5.29,0,0,0,136.58,214.83Z"/><path d="M121.89,203.27c.95.16,1.91-.09,2.86.68.56.46,1.73.13,2.62.24.44.05.83.36,1.27.45a15.08,15.08,0,0,0,2.22.31c.74,0,1.2.3,1.11,1.09-.05.49-.29.67-.78.33a2.88,2.88,0,0,0-1.14-.51c-1.18-.19-2.39.19-3.55-.71-.58-.45-1.74-.12-2.63-.23a5.29,5.29,0,0,1-1.18-.44,3.64,3.64,0,0,0-.87-.31c-.48,0-1,.05-1.44,0a3.32,3.32,0,0,1-.9-.44,3.9,3.9,0,0,1,.94-.4A10.21,10.21,0,0,1,121.89,203.27Z"/><path d="M185.25,246.28a9.55,9.55,0,0,0-1.19-.61,7.59,7.59,0,0,0-1.62-.41c-1-.12-2.09.33-2.94-.67-.21-.24-.87-.05-1.29-.17s-.69-.29-.77-.53a1,1,0,0,1,.27-.9c.22-.16.82-.19,1,0,.88,1.08,2.07.66,3.14.71a2.56,2.56,0,0,1,1.56.5,3.73,3.73,0,0,0,1.92.35c.63,0,1.31-.12,1.3.82S185.94,246.15,185.25,246.28Z"/><path d="M96.63,311l.4-.88c.19.18.37.38.57.55a4.24,4.24,0,0,1,.72.62c.81,1.16,1.71,2.27,1.66,3.82,0,.3.42.6.52.94s.31,1,.11,1.33c-.33.46-.9.35-1.32-.12s-.7-.74-1.06-1.11a1.76,1.76,0,0,1-.07-2.75c.1-.11.22-.32.18-.41a16.87,16.87,0,0,0-1-1.94c-.08-.13-.47-.06-.72-.08Z"/><path d="M104.61,191.49h-1.82c-.22,0-.55,0-.64-.08-.95-1.17-2.25-.61-3.4-.72-.56-.05-1.15,0-1.24-.75a2.18,2.18,0,0,1,.22-.78l.64.25a3.34,3.34,0,0,0,1,.39c1.79.06,3.58,0,5.37.08a3.14,3.14,0,0,1,1,.24,8.44,8.44,0,0,1,1.15.53,4.29,4.29,0,0,1,.6.48c-.22.14-.44.4-.66.4-.73,0-1.47-.05-2.2-.09Z"/><path d="M185.15,265.41c-.65,0-1.58.24-2.23-.66-.11-.15-.48-.14-.73-.14a1.7,1.7,0,0,1-1.63-.58c-.13-.17-.54-.1-.79-.22a3.17,3.17,0,0,1-.6-.47c.19-.14.4-.42.56-.39,1,.16,2-.31,2.89.61.34.35,1.21.17,1.83.3a11.85,11.85,0,0,1,1.36.46,6.64,6.64,0,0,1,.87.3,3.64,3.64,0,0,1,.6.47c-.22.14-.42.38-.65.4A9.23,9.23,0,0,1,185.15,265.41Z"/><path d="M136.09,236.25a12.31,12.31,0,0,0-1.84-.86,3.75,3.75,0,0,0-1.79-.13c-1.07.24-1.36-.79-2.06-1.11,0,0,.06-.32.09-.49.17,0,.46,0,.49.11.3.72.93.57,1.48.59a31.13,31.13,0,0,1,3.55.1c.58.08,1.08.64,1.62,1-.16.21-.28.54-.48.6a2.68,2.68,0,0,1-.95-.06Z"/><path d="M172.61,219.38a5.35,5.35,0,0,0-1.27-.73,4.33,4.33,0,0,1-2.58-1.78c-.07-.11-.37,0-.54-.1a4.38,4.38,0,0,1-.79-.39s.07-.36.15-.38c.3-.07.68-.2.91-.07.77.41,1.48.94,2.24,1.36a7.17,7.17,0,0,0,1.17.33,5.54,5.54,0,0,1,1.33.54c.27.18.39.56.58.85Z"/><path d="M159.86,217.88l2.26.52c.09,0,.23,0,.28,0a3.37,3.37,0,0,0,2.71.85c.1,0,.32.25.32.39s-.22.4-.32.39c-1-.07-2,.33-2.94-.41-.53-.4-1.44-.28-2.18-.43a9.64,9.64,0,0,1-1-.31c.18-.22.35-.45.54-.67S159.86,217.87,159.86,217.88Z"/><path d="M173.59,283.1a5.47,5.47,0,0,1-.53-.5,2.33,2.33,0,0,0-2.47-1.14c-.11,0-.32,0-.36-.07-.57-.94-1.5-.73-2.36-.79-.16,0-.31-.25-.47-.39.17-.16.34-.46.49-.45.67,0,1.47-.37,2,.56.12.22.74.23,1.13.25.55,0,1.08-.06,1.38.6.07.15.43.2.67.24C174,281.58,174.24,282.09,173.59,283.1Z"/><path d="M141.68,206.62a2.6,2.6,0,0,1,2.47.87c.12.16.26.42.2.56a.64.64,0,0,1-.53.28c-.67-.06-1.36.11-1.93-.55-.24-.28-1-.13-1.43-.26a3.2,3.2,0,0,1-.78-.47,2.65,2.65,0,0,1,.75-.4A7.49,7.49,0,0,1,141.68,206.62Z"/><path d="M160.16,228c.63.15,1.26.35,1.9.43s1.22.54,1,1.16c-.06.17-.62.34-.65.3-.63-.91-1.58-.48-2.39-.62-.35-.06-.68-.18-1-.27.19-.25.38-.5.58-.74s.33-.37.5-.55Z"/><path d="M135.74,205.78c.85,0,1.76-.17,2.33.72a5.92,5.92,0,0,1,.38.83c-.33,0-.84.21-1,.07-.84-1-2-.68-3-.74-.25,0-.48-.28-.72-.44a2.5,2.5,0,0,1,.73-.42A7.17,7.17,0,0,1,135.74,205.78Z"/><path d="M167.62,231.2c-.4-.21-.78-.45-1.19-.64s-.71-.2-1-.36a2.54,2.54,0,0,1-.53-.45c.18-.15.39-.44.54-.41a15.74,15.74,0,0,1,1.85.48,4.42,4.42,0,0,1,.76.32c.28.14.54.32.81.48-.28.15-.56.3-.84.43-.08,0-.19,0-.29,0Z"/><path d="M116.74,193.16a2.57,2.57,0,0,1-.76,0c-.27-.09-.66-.25-.72-.46a1.1,1.1,0,0,1,.21-.94,1.17,1.17,0,0,1,1-.1,9.86,9.86,0,0,1,1.57.72c.15.08.37.28.35.37s-.22.42-.37.45a8.17,8.17,0,0,1-1.24,0Z"/><path d="M125.1,253.72a9.17,9.17,0,0,1,1.06,0c.69.08.8.59.68,1.13,0,.13-.45.29-.65.24a10.43,10.43,0,0,1-1.52-.52c-.34-.13-.66-.31-1-.47.31-.14.62-.3.95-.41a1.51,1.51,0,0,1,.48,0Z"/><path d="M110.57,192.49l-1.14-.4a5.18,5.18,0,0,1,1-1.17,1.32,1.32,0,0,1,1.12,0,1,1,0,0,1,.15.91A3.73,3.73,0,0,1,110.57,192.49Z"/><path d="M173.49,233c-.71-.5-1.33-.92-1.91-1.37-.06,0,0-.4.11-.47s.45,0,.48.08c.26.68.84.54,1.37.62a6.42,6.42,0,0,1,1.15.39Z"/><path d="M17.29,114.17c-.7-.62-1.36-1.19-2-1.79-.09-.09,0-.33,0-.51a1.5,1.5,0,0,1,.57,0c.4.18.74.48,1.15.62C17.7,112.76,17.84,113.24,17.29,114.17Z"/><path d="M178.1,225.67c.62.57,1.12,1,1.58,1.5a2,2,0,0,1-.37.48c-.63-.36-1.23-.76-1.84-1.16Z"/><path d="M150.92,215.88a2,2,0,0,1,.66,0c.17.07.29.28.44.42-.15.14-.28.35-.45.41a1.15,1.15,0,0,1-.66,0c-.39-.1-.76-.26-1.14-.4l1-.66Z"/><path d="M156,304.93a5,5,0,0,1,1.11-.77c.18-.06.48.25.73.39l-1.14,1.15Z"/><path d="M151.06,237.81l.65-.78,1.11,1.08c-.22.16-.5.51-.64.46A5.65,5.65,0,0,1,151.06,237.81Z"/><path d="M157.59,218.42a2.06,2.06,0,0,1-.67,0c-.18-.06-.3-.27-.45-.41.15-.14.27-.35.44-.41a1.11,1.11,0,0,1,.66,0,11.48,11.48,0,0,1,1.11.44l-1,.6Z"/><path d="M140.37,299.19c-.62-.17-1.06-.49-.85-1.22a.64.64,0,0,1,.43-.41c.14,0,.39.25.41.41a8.26,8.26,0,0,1,0,1.24Z"/><path d="M147.13,208.35a2.35,2.35,0,0,1,.66,0,5.28,5.28,0,0,1,.84.32c-.07.16-.12.46-.2.47a2.57,2.57,0,0,1-1.07-.09c-.13-.05-.14-.44-.2-.68Z"/><path d="M147.15,208.32a2.88,2.88,0,0,1-.75,0,4.28,4.28,0,0,1-.8-.34c.1-.18.18-.49.29-.5a1.82,1.82,0,0,1,1,.15c.17.09.19.44.28.67Z"/><path d="M153.84,217.81l-.73-.65c.24-.16.47-.44.71-.44s.49.27.73.43Z"/><path d="M113.89,191.11c.09.27.31.6.23.79a1,1,0,0,1-.74.47c-.17,0-.38-.29-.57-.45l.63-.55Z"/><path d="M105.3,180.51c-.09-.27-.29-.57-.25-.81s.34-.43.52-.64a2.49,2.49,0,0,1,.32.8c0,.22-.21.45-.33.67Z"/><path d="M139.6,143.65c0-.51,0-1,0-1.54,0-.25,0-.62-.16-.72-1-.67-.68-1.7-.74-2.62,0-.25,0-.65-.08-.73-1.06-.67-.63-1.69-.73-2.61a3.6,3.6,0,0,0-.44-1.09c-.05-.11-.27-.2-.26-.26.3-1.4-1.06-2.36-1-3.69,0-.58,0-1.16,0-1.73,0-.22,0-.56-.09-.64-1.25-.88-.56-2.17-.77-3.27a9.32,9.32,0,0,0-.54-1.42,3.59,3.59,0,0,1-.28-1c-.06-.92.26-1.88-.71-2.64-.28-.22-.14-1-.13-1.57s.06-1.18-.58-1.61c-.22-.15-.24-.68-.27-1-.07-.86.24-1.74-.67-2.46-.31-.25-.06-1.16-.17-1.74a9,9,0,0,0-.55-1.42,3,3,0,0,1-.3-.87c0-.8,0-1.61,0-2.41s.12-1.42-.64-1.87a.74.74,0,0,1-.21-.6,2,2,0,0,0-.7-2.05c-.15-.12-.05-1,.18-1.13.66-.51.6-.83,0-1.21-.08,0-.2-.16-.19-.21.41-1.55-1.32-2.61-1-4.19.09-.41-.32-.94-.5-1.41a3,3,0,0,1-.3-.87c0-1.09,0-2.18,0-3.28,0-.71.12-1.43-.67-1.85,0,0-.06,0-.06-.07,0-1.46-.09-2.92-.1-4.39,0-.08.3-.26.36-.22s.38.27.41.44c.05.38-.15.86,0,1.14a24.16,24.16,0,0,1,1,2.93,4.46,4.46,0,0,1,.65,2.24.36.36,0,0,0,.07.27c1.39,1.06.56,2.55.75,3.84.14,1-.27,2,.74,2.83.31.26,0,1.16.15,1.75a6.61,6.61,0,0,0,.46,1.26,3.38,3.38,0,0,1,.36.93c0,.83,0,1.67,0,2.5a1.77,1.77,0,0,0,.64,1.79c.21.15.18.7.2,1.07a5.9,5.9,0,0,0,.58,2.37,15.43,15.43,0,0,1,1.08,3.26,10.77,10.77,0,0,1,0,2.5c0,.65-.1,1.29.62,1.68.14.08.18.38.23.59s0,.39,0,.46c1.45,1.23.53,2.88.81,4.31a5.79,5.79,0,0,0,.51,1.25c0,.11.26.21.24.28-.37,1.5,1.22,2.51,1,4a11.69,11.69,0,0,0,0,2.21c0,.25,0,.63.15.72,1,.58.62,1.5.72,2.32a7.85,7.85,0,0,0,.52,1.42,4.72,4.72,0,0,1,.29,1.15c.06.86-.27,1.79.71,2.44.14.09,0,.93-.22,1.2-.38.44-.49.68,0,1.1a2.12,2.12,0,0,1,.38.8c.06.15,0,.39.12.45,1,.66.67,1.68.72,2.61a2.8,2.8,0,0,0,.24.89,7.52,7.52,0,0,0,.44.81c-.59.32-.87,1.27-1.72,1-.27-.1-.44-.67-.52-1.05a6.8,6.8,0,0,1,0-1.35Z"/><path d="M86.57,47c.64,0,1,.31.88,1s.37,1.25.5,1.8c.27,1.17.84,2.22,1.09,3.37a7,7,0,0,0,.66,2.65,5.94,5.94,0,0,1,1.14,3.65c-.08,1,.68,2.21,1,3.33a4.35,4.35,0,0,1,.54,1.7c0,.27,0,.68.2.8A1.53,1.53,0,0,1,93.24,67c-.27,1.2.43,1.88,1.17,2.62a2,2,0,0,1,.49,1.14c.09.92-.28,1.94.76,2.6.13.08.14.42.12.63-.06.7.39,1.23.54,1.79.28,1.07,1.17,1.8,1.22,3.06a10.87,10.87,0,0,0,1,3.16,4.48,4.48,0,0,1,.59,1.88,1.3,1.3,0,0,0,.42.89,1,1,0,0,1,.09,1.64,4.48,4.48,0,0,0-.47,1.07,5.63,5.63,0,0,1-.35.58,2.29,2.29,0,0,1-.48-.61,2.27,2.27,0,0,1,0-.76c0-.19.08-.42,0-.57-.42-.77-.89-1.52-1.34-2.27,0-.08-.19-.14-.19-.2,0-1.12-.71-2.07-.86-3a4.28,4.28,0,0,0-1.26-2.51A2,2,0,0,1,94.22,77c-.08-.93.28-1.94-.75-2.6-.13-.08-.14-.42-.12-.63.06-.7-.39-1.23-.54-1.79-.31-1.15-.82-2.22-1.1-3.36-.15-.61,0-1.28-.67-1.64,0,0-.07,0-.06-.07.21-1.32-.8-2.29-1-3.5a8.71,8.71,0,0,0-.55-1.4,4.85,4.85,0,0,1-.28-1.16c-.07-.83.29-1.77-.69-2.33.24-1.35-1-2.3-1-3.58,0-.64,0-1.28,0-1.93,0-.19,0-.47-.08-.55-1.32-1-.62-2.42-.83-3.65a10.33,10.33,0,0,1,0-1.83Z"/><path d="M124.7,127.48l-.89-1.72c-.07-.14-.2-.29-.19-.43a3.14,3.14,0,0,0-.71-2.35c-.4-.53-.17-1.54-.18-2.34,0-.62,0-1.21-.6-1.62a.79.79,0,0,1-.21-.6c0-.76,0-1.48-.69-2a.66.66,0,0,1-.15-.53,1.82,1.82,0,0,0-.72-2c-.11-.07-.15-.36-.13-.54a3.82,3.82,0,0,0-.58-2c-.41-1-1.39-1.92-1.12-3.28a4.09,4.09,0,0,0-.58-2.67c-.45-.87-1.53-1.77-1.06-3.06a.57.57,0,0,0-.15-.52c-.86-.48-.72-1.28-.68-2s.1-1.37-.65-1.76c-.05,0-.12-.11-.11-.15.37-1.54-1.32-2.62-.94-4.18a1.28,1.28,0,0,0-.56-1.52c-.15-.1-.21-.37-.27-.58s0-.48-.07-.55c-1.26-.9-.6-2.22-.8-3.35a13.29,13.29,0,0,0-.58-1.42,1.88,1.88,0,0,1-.09-1.13,1,1,0,0,1,.9-.28,1.13,1.13,0,0,1,.52.85,6,6,0,0,0,.59,1.81c.42,1.15,1.53,2.1,1.14,3.55-.1.37.29.89.48,1.33,0,.11.25.21.24.28-.37,1.55,1.35,2.62.94,4.19a1.19,1.19,0,0,0,.58,1.48s.07,0,.07.07c-.1,1.31.83,2.34,1,3.57a8.62,8.62,0,0,0,.49,1.34,4.56,4.56,0,0,1,.34,1.13c.06.88-.2,1.81.71,2.46.13.09.16.42.14.63-.07.73.46,1.31.57,1.85.25,1.18.86,2.22,1.08,3.36.12.59,0,1.18.61,1.61.19.13.24.57.25.87,0,.94-.16,1.86.7,2.67.34.32.1,1.23.22,1.85a6.62,6.62,0,0,0,.49,1.26c0,.05.13.1.13.14-.2,1.35.89,2.33,1,3.59a6.47,6.47,0,0,0,.46,1.26,6.44,6.44,0,0,1,.36,1.41c.06.77-.23,1.6.66,2.16.18.12.21.75.07,1a1,1,0,0,1-.9.31c-.23-.06-.39-.47-.54-.74s-.14-.48-.24-.7c-.27-.59-.57-1.16-.85-1.75Z"/><path d="M166.7,175.44c-.29-.59-.61-1.17-.87-1.78a2.65,2.65,0,0,1-.24-1c0-2.63,0-5.26,0-7.89,0-.25,0-.62-.15-.72-.86-.56-.62-1.39-.63-2.17,0-3.76,0-7.51-.09-11.27a2.18,2.18,0,0,0-.45-1.17c-.46-.62-.49-2.68.08-3.2.42-.38.38-.62,0-1a2,2,0,0,1-.45-1.07,15.55,15.55,0,0,1,0-2.21,2,2,0,0,1,.28-.64,2.15,2.15,0,0,1,.56.27c1.05,1,1,1,.22,2.14a.75.75,0,0,0,.06.72c.64.41.57,1,.56,1.63,0,1.22,0,2.44,0,3.66,0,.6-.12,1.24.57,1.62a.84.84,0,0,1-.15.66c-.47.36-.41.6,0,1a1.55,1.55,0,0,1,.39,1c0,3.79,0,7.58.07,11.37a1.86,1.86,0,0,0,.48,1.06c.46.54.51,1,0,1.51a1.1,1.1,0,0,0,0,1.87,1.79,1.79,0,0,1,0,2.33c-.49.43-.2.63,0,1.08.44,1,1.36,1.79,1.27,3,0,.63-.22,1-.88,1s-.79-.41-.76-1c0-.22,0-.45,0-.67Z"/><path d="M105.37,104.75c-.29-.55-.6-1.08-.86-1.64-.38-.82-.71-1.67-1.06-2.5-.06-.14-.05-.38-.15-.44-.88-.47-.71-1.28-.69-2a2.32,2.32,0,0,0-.59-1.81,9.1,9.1,0,0,1-1.1-2.47c-.08-.2-.2-.39-.29-.58-.18-.38-.36-.75-.53-1.13-.05-.11,0-.3-.12-.35-1.24-.76-.6-2-.68-3,0-.19.41-.58.65-.6s.82.3.81.43c-.08.95.64,1.38,1.17,1.87a1.64,1.64,0,0,1,.6,1.41,2.71,2.71,0,0,0,.64,2.46c.59.57.7,1.65,1,2.5.07.17.23.3.3.48.19.43.34.88.51,1.32s.34.89.52,1.33c0,.08.2.15.19.2-.26,1.36.92,2.31,1,3.59a4.48,4.48,0,0,0,.48,1.25,33.94,33.94,0,0,0,1.17,3.43c.24.46-.61.87-1,.62a6.4,6.4,0,0,1-1.4-1.55c-.14-.18-.1-.49-.2-.71-.28-.61-.6-1.21-.9-1.81Z"/><path d="M110.88,73.48c-.74.5-.94,1-.06,1.64.12.08,0,.43.1.64.18.55.4,1.08.58,1.62a3.07,3.07,0,0,1,.24.88,4,4,0,0,0,.65,2.69c.43.56.15,1.71.08,2.59,0,.15-.59.36-.88.33a.88.88,0,0,1-.57-.61,9.67,9.67,0,0,1,0-1.54c0-.82.15-1.7-.71-2.25,0,0-.1-.12-.09-.16.47-1.87-1.18-3.37-.93-5.2,0-.24.07-.63-.06-.73-1.18-.89-.62-2.17-.82-3.27a9.92,9.92,0,0,0-.52-1.44,3.43,3.43,0,0,1-.25-.89c0-.74,0-1.48,0-2.21,0-.22,0-.54-.12-.64-1.12-.89-.57-2.13-.74-3.22a7.63,7.63,0,0,0-.52-1.43,3,3,0,0,1-.26-.78c0-.74,0-1.48-.08-2.21a5,5,0,0,0-.5-1.11,3.8,3.8,0,0,1-.14-.64c.21.05.49,0,.62.17a2.12,2.12,0,0,1,.9,2.21.45.45,0,0,0,0,.37c1.32,1.3.59,3,.8,4.45a4.35,4.35,0,0,0,.44,1.1c0,.08.17.13.2.21a33.39,33.39,0,0,1,1,3.53,25,25,0,0,1,.1,3,2.14,2.14,0,0,0,.26.7,10,10,0,0,0,.54,1.14C110.29,72.76,110.58,73.08,110.88,73.48Z"/><path d="M187.41,185.67c0-1.38,0-2.76,0-4.13,0-.28.28-.55.43-.83a2.68,2.68,0,0,1,.44.82,12.53,12.53,0,0,1,0,1.44c0,.25,0,.62.14.72.88.59.64,1.46.65,2.26,0,3.21,0,6.41.08,9.61,0,.34.32.67.48,1a5.65,5.65,0,0,1,.2.63,2.33,2.33,0,0,1-.68-.19,2.44,2.44,0,0,1-.89-2.51c.06-.93,0-1.86,0-2.79,0-.22.06-.55-.06-.65-1.23-1-.59-2.37-.71-3.58a17.58,17.58,0,0,1,0-1.83Z"/><path d="M190,204.08c0,1.32,0,2.63,0,3.94a2.93,2.93,0,0,1-.45,1,2.89,2.89,0,0,1-.39-.94c0-1.51,0-3,0-4.52,0-.25,0-.63-.1-.73-1-.75-.62-1.8-.69-2.75,0-.56.16-.95.79-1s.82.36.82.93c0,1.35,0,2.69,0,4Z"/><path d="M176.47,171.77c.16.9-.34,1.86.75,2.31,0,0,0,.32-.07.49-.2,0-.46,0-.58-.12a3,3,0,0,1-.93-2.76,2.32,2.32,0,0,0-.28-1,4.67,4.67,0,0,0-.39-.68c.25-.1.54-.32.74-.26s.67.36.73.61A6.6,6.6,0,0,1,176.47,171.77Z"/><path d="M49.57,35.18c-.25-.11-.64-.15-.72-.34a22.44,22.44,0,0,1-.93-2.46c0-.08.28-.39.42-.38s.41.27.41.41a1.74,1.74,0,0,0,.7,1.44c.24.23.08.89.1,1.36Z"/><path d="M199.17,218a1.25,1.25,0,0,1,0-.47,4.69,4.69,0,0,1,.42-.65,5.41,5.41,0,0,1,.47.69.69.69,0,0,1,0,.47c-.12.35-.27.69-.42,1l-.65-1Z"/><path d="M71.77,42l-.35-.7c-.19-.36-.4-.71-.55-1.08a2.34,2.34,0,0,1-.07-.64,1.63,1.63,0,0,1,.57.16,2.35,2.35,0,0,1,.7.73,2.55,2.55,0,0,1,.19,1.06C72.26,41.61,72,41.73,71.77,42Z"/><path d="M60.57,39.43c-.71,0-1.07-.4-.9-1.11,0-.19.31-.32.48-.47.13.16.35.3.38.47a7.34,7.34,0,0,1,0,1.14Z"/><path d="M210.38,241.11l-.67.69c-.16-.24-.44-.47-.43-.71s.29-.47.45-.7Z"/><path d="M49.54,35.21c.68,0,1,.31.9,1,0,.2-.26.36-.4.53-.16-.17-.4-.32-.45-.52a5,5,0,0,1,0-1Z"/><path d="M86.6,46.95c-.24-.07-.62-.07-.68-.21a2.49,2.49,0,0,1-.12-1.06c0-.09.29-.16.44-.24a6.48,6.48,0,0,1,.35.88,2.38,2.38,0,0,1,0,.66Z"/><path d="M176.12,166.73c-.3.1-.63.32-.89.26a.86.86,0,0,1-.43-.7c0-.24.3-.46.46-.7l.56.65Z"/><path d="M23.09,36.92c.19.16.34.27.47.4,1.26,1.28,2.55,2.53,3.76,3.85a1.64,1.64,0,0,1,.29,1.18c0,.17-.64.45-.84.36s-.45-.55-.65-.86a5,5,0,0,0-.47-.79c-.87-.9-1.8-1.74-2.64-2.66a2,2,0,0,1-.29-1C22.71,37.24,22.93,37.09,23.09,36.92Z"/><path d="M29,42.84c.18.17.34.31.49.46C30.73,44.53,32,45.75,33.16,47a1.53,1.53,0,0,1,.45.7,2.06,2.06,0,0,1-.19.79,2.28,2.28,0,0,1-.69-.32c-.85-.83-1.65-1.7-2.5-2.53a1.54,1.54,0,0,0-.74-.36,1.67,1.67,0,0,1-.82-2.18A1.71,1.71,0,0,1,29,42.84Z"/></g></g></svg>
