<svg xmlns="http://www.w3.org/2000/svg" viewBox="0 0 563.67 471.67"><title>Shirt</title><g id="Layer_2" data-name="Layer 2"><g id="Layer_1-2" data-name="Layer 1"><path d="M305.46,437.52a9.89,9.89,0,0,0,2.63-.2c.83-.29,1.48-1.32,2.29-1.43,2.21-.31,4.45-.34,6.69-.42q4.4-.17,8.8-.27c3.09-.07,6.18-.08,9.27-.15,1.87,0,3.74-.2,5.61-.26,1.59-.05,3.18,0,4.76-.08,1.25-.05,2.5-.31,3.74-.3,2.48,0,5,.21,7.44.23,2.93,0,5.87-.07,8.8-.11,1.35,0,2.71,0,4.06-.06,3.74-.15,7.47-.37,11.21-.46,1.34,0,2.69.34,4,.34,1.53,0,3.06-.19,4.59-.31.7-.05,1.39-.15,2.09-.18q3.65-.13,7.31-.23c4.06-.1,8.13-.12,12.18-.31,3.63-.18,7.25-.6,10.88-.81,2.66-.15,5.34-.22,8-.14a9.22,9.22,0,0,0,4.49-.78,7.9,7.9,0,0,1,3.11-.71c1.24,0,1.72-.59,1.7-1.7a3.78,3.78,0,0,0-.24-1.78c-1.06-1.78-.76-3.61-.44-5.46a8.3,8.3,0,0,0,.14-1.4c0-.83-.37-1.2-1.25-1-2.27.53-4.53,1.16-6.84,1.49-3,.43-6,.61-9,.89a1.29,1.29,0,0,1-1.53-1.06c-.18-.58-.83-1-1.27-1.5-.45.43-1.11.78-1.29,1.31a2.3,2.3,0,0,1-2.43,1.53c-5.88.24-11.77.42-17.65.66-4.2.17-8.4.47-12.61.61-2.33.08-4.68-.06-7-.08-1.68,0-3.36-.08-5,0-2.42.15-4.83.47-7.25.63s-4.75.26-7.13.34c-3.41.11-6.82.25-10.22.25-1.57,0-3.14-.41-4.72-.46-3-.09-6.1.1-9.13-.12a82.66,82.66,0,0,1-9.15-1.26,8.34,8.34,0,0,1-2.8-1.54c-.15-.1-.1-.81.1-1a1.54,1.54,0,0,1,1.05-.29c3.6,0,7.19.11,10.79.09,2.15,0,4.31-.19,6.46-.28,4.85-.21,9.69-.43,14.54-.6,2.88-.1,5.76-.06,8.64-.13.74,0,1.48-.24,2.22-.3,3-.25,5.94-.58,8.91-.67,4.62-.13,9.25-.08,13.87-.13,1.47,0,2.94-.11,4.4-.18.61,0,1.21-.09,1.82-.1l11.05-.15c.09,0,.19,0,.28,0,6,.46,12-.73,18.06-.36,2.63.16,5.31-.49,8-.77,1.16-.12,2.32-.26,3.49-.33a2,2,0,0,0,2.05-1.71c.58-2.56,1.22-5.07.44-7.75a10.59,10.59,0,0,1-.09-3.35c.05-1.21-.38-1.74-1.65-1.6-2.22.25-4.45.54-6.68.62-2.47.09-5-.11-7.43,0-3.41.12-6.81.47-10.22.59s-6.73,0-10.09.12a40.69,40.69,0,0,0-4.27.64c-2.17.31-4.33.68-6.51.86-2.61.21-5.24.18-7.85.39-3.86.3-7.7.78-11.56,1.08q-4.83.38-9.68.51c-4.63.13-9.26.21-13.9.21-3.73,0-7.48,0-11.2-.3a39.82,39.82,0,0,1-5.92-1.33l0-.58,4.2-1.07a12.7,12.7,0,0,1,6.38,0,1.61,1.61,0,0,0,1,.08c3.19-1.59,6.64-.67,9.95-1.07,2.41-.29,4.86-.39,7.29-.53,1.3-.07,2.6,0,3.9-.08q6.65-.4,13.3-.86c1.82-.13,3.63-.41,5.45-.56,2-.16,4-.22,6-.37,4.1-.31,8.2-.64,12.3-1a7.17,7.17,0,0,1,2.08-.2c4.33,1,8.56-.56,12.85-.37,1.4.06,2.8.26,4.2.26,2.89,0,5.79-.08,8.68-.1a4.53,4.53,0,0,1,1.81.19c1.72.76,3.41,0,5.1,0,1.21,0,2.27-1.6,2.46-3.4a9.52,9.52,0,0,0-.09-2.1c-.17-1.44-.47-2.87-.55-4.31-.14-2.6-.43-3-3.23-2.74-6.37.5-12.72,1.31-19.09,1.85a56.47,56.47,0,0,1-6.26-.13,2.76,2.76,0,0,0-.56,0l-6.73,1.26a13,13,0,0,1-2.34.37c-5.76,0-11.48.7-17.23.91-2.55.09-5.11,0-7.67.07-3.08.08-6.16.3-9.25.35-3.6,0-7.21,0-10.81-.06-3.82,0-7.63-.14-11.45-.18a4.46,4.46,0,0,1-3.71-1.76,7,7,0,0,1,1.28-.42q5.8-.57,11.6-1.09c1.53-.13,3.07-.18,4.6-.29,3.58-.24,7.15-.56,10.73-.73,4-.19,8-.25,11.93-.4,1.21,0,2.42-.22,3.63-.29,2-.1,4.1-.17,6.15-.24,2.8-.1,5.6-.15,8.4-.3,1.35-.07,2.69-.43,4-.49s2.58.24,3.86.18c1,0,2.06-.52,3.1-.59,3.64-.24,7.29-.41,10.94-.57,3.18-.14,6.37-.15,9.54-.36,2.2-.15,4.4.37,6.61-.19.9-.23,1.38-.42,1.55-1.4a10.82,10.82,0,0,0-.36-5.52,11.71,11.71,0,0,1-.09-2.91c-.1-1.65-.37-1.95-2.07-1.87-2.48.11-5,.34-7.43.52-1.44.1-2.89.18-4.33.3-3.51.3-7,.7-10.54.91s-6.79.15-10.19.31c-1.53.07-3,.44-4.57.54-2.27.15-4.56.19-6.83.27-.42,0-.84,0-1.26,0-5.79.33-11.58.73-17.37,1-2.37.1-4.76-.11-7.14-.14-1.87,0-3.73,0-5.6,0-3.09,0-6.18.14-9.27,0-2-.07-4-.46-6-.69-.45-.05-.91,0-1.36-.06a23,23,0,0,1-4.09-.4c-.55-.14-.89-1.12-1.32-1.71.58-.37,1.14-1,1.76-1.08,5.13-.44,10.27-.87,15.41-1.12,5.65-.27,11.31-.35,17-.5,4-.11,8-.17,12-.3.59,0,1.17-.36,1.77-.42a12.71,12.71,0,0,1,2.18,0,14.7,14.7,0,0,0,2.05.27c4.28-.28,8.55-.64,12.83-.92,2.59-.17,5.19-.17,7.78-.36,5.84-.43,11.66-1,17.5-1.4,2.18-.16,4.39,0,6.57-.14.71,0,1.77-.31,2-.8a4.44,4.44,0,0,0,.55-3.11,4.85,4.85,0,0,1,.1-4.28A2.66,2.66,0,0,0,437,356c-.16-.31-1.23-.29-1.87-.22-1.3.13-2.66.75-3.86.52a8.06,8.06,0,0,0-4.52.44,21.27,21.27,0,0,1-6.1.74c-5.89.23-11.73,1-17.58,1.65-2.91.35-5.87.28-8.81.42-.51,0-1,.12-1.53.16-2.51.21-5,.42-7.53.61-1.35.1-2.71.13-4.06.26-3.38.34-6.75.8-10.13,1.09-2.74.23-5.51.25-8.26.44-4,.28-7.91.77-11.88.89a23,23,0,0,1-5.46-.9,1.27,1.27,0,0,1-.59-1.09c.24-.53.71-1.2,1.2-1.31a54,54,0,0,1,5.68-.93q7.87-.91,15.76-1.71c2.09-.21,4.24,0,6.3-.41,6-1.06,12-.78,18-1.42,1.71-.18,3.39-.57,5.1-.68,2.14-.15,4.29-.08,6.43-.18,2.75-.12,5.5-.3,8.25-.48,3.78-.25,7.55-.61,11.33-.77,3.46-.15,6.93-.12,10.39-.15a4.7,4.7,0,0,1,1.37.18,1.62,1.62,0,0,0,2.24-1.62c0-1.21-.22-2.41-.27-3.62a17.11,17.11,0,0,1,0-3.07c.35-2.53-.36-3.15-2.85-2.6a32,32,0,0,1-5.26.68c-1.82.09-3.65-.16-5.46-.06-2.36.12-4.71.44-7.07.67-.51,0-1.12.27-1.5.06-1.42-.74-2.73-.28-4.08.1a5.78,5.78,0,0,1-1.52.21c-2.93,0-5.92-.35-8.79.08-4.9.73-9.84,0-14.73.82a45.67,45.67,0,0,1-6.57.22c-3.55.06-7.1,0-10.64.15-1.91.06-3.83.52-5.73.44a16.36,16.36,0,0,1-4.55-1.08c-.91-.32-1-1.16-.2-1.77a4.79,4.79,0,0,1,2-1.13c4.25-.63,8.51-1.18,12.77-1.69,3.24-.39,6.49-.82,9.75-1,2.51-.12,5,.22,7.56.22,1.9,0,3.81-.2,5.71-.3a7.4,7.4,0,0,1,2-.07,16.24,16.24,0,0,0,5.55-.1,67.49,67.49,0,0,1,7-.06c1,0,1.91-.13,2.87-.2.47,0,.93-.09,1.4-.11,2.68-.09,5.36-.16,8-.26,1.17,0,2.34-.16,3.51-.24,3.41-.23,6.82-.44,10.22-.69a1.22,1.22,0,0,0,1.17-1.79,14.62,14.62,0,0,1-.62-6.78A4.63,4.63,0,0,0,436,326a1.9,1.9,0,0,0-1.59-.72c-2.08.29-4.12.89-6.21,1.13-5.25.6-10.52,1.1-15.78,1.57-4.84.43-9.69.82-14.54,1.11q-6.58.4-13.18.52c-2.47.05-5-.32-7.43-.18a28.76,28.76,0,0,1-10.17-.84,14.2,14.2,0,0,1-2.44-1.06.93.93,0,0,1-.41-.78c0-.2.47-.36.76-.44a29.48,29.48,0,0,1,4-1c1.71-.22,3.45-.21,5.18-.27l30.18-1c.19,0,.42-.08.55,0,2.11,1.3,4.05-.08,6.07-.33,1.78-.22,3.61-.09,5.4-.26,2.93-.28,5.84-.73,8.77-1s6.14-.49,9.21-.73c1.78-.14,2.11-.51,2-2.29-.07-.74-.29-1.48-.32-2.22,0-1.43-.36-3,.08-4.26.65-1.89,0-3.48-.41-5.17-.21-.84-.79-1.07-1.62-.92q-6.36,1.13-12.73,2.22c-1.8.31-3.71,1-5.37.69s-3.06.5-4.57.65c-5.62.57-11.26,1.05-16.89,1.52-3.72.31-7.45.6-11.18.79-2.52.13-5,.08-7.57.11a19,19,0,0,1-4.17,0c-2.44-.53-4.91-.38-7.35-.71a20.37,20.37,0,0,1-3-.8c-.1,0-.15-.21-.39-.58,1.64-.65,3.17-1.66,4.79-1.83,4.41-.46,8.86-.51,13.29-.82,2.14-.15,4.25-.57,6.39-.77a31.07,31.07,0,0,1,3.3.07c1.3,0,2.6.09,3.89,0,4.05-.21,8.11-.4,12.15-.76,4.24-.37,8.46-.95,12.7-1.41,5.43-.59,10.87-1.2,16.31-1.71,1.52-.14,2.55-.54,2.53-2.26,0-1.47,0-2.94-.06-4.41a5,5,0,0,1,.05-1.93c.83-1.86.35-3.68.08-5.52a1.31,1.31,0,0,0-1.74-1.27c-3.58.58-7.15,1.28-10.75,1.67s-7.37.48-11.06.74c-3.3.23-6.6.67-9.91.73-2.63,0-5.28-.34-7.91-.52a2.36,2.36,0,0,0-1.1.07c-2.39,1.11-4.85.73-7.33.52-1.3-.11-2.62,0-3.93-.06-1-.07-2.08-.33-3.12-.49a4.36,4.36,0,0,0-.93-.07c-2.32.15-4.63.34-7,.45-1.54.07-3.08,0-4.62,0-2.2,0-4.4,0-6.61,0a89.83,89.83,0,0,0-9.47,0,11.47,11.47,0,0,1-5.22-.2c-.68-.25-1.31-.59-2.34-1.07a25.28,25.28,0,0,1,3-1.14,46.09,46.09,0,0,1,10.15-1.21c2.36,0,4.72-.43,7.09-.52,2.53-.1,5-.69,7.63-.16,2.15.43,4.47-.07,6.72-.05,3.6,0,7.2.15,10.8.2q4.26.05,8.52,0c3.46,0,6.93-.09,10.39-.24,4.11-.18,8.21-.43,12.31-.76,4.47-.36,8.93-.81,13.38-1.29,3.24-.35,3.55-1,2.73-4.11a15.34,15.34,0,0,1-.22-3.69c0-1.21.08-2.41.1-3.62.07-3.12.11-6.25.19-9.37.07-2.55-.26-2.93-2.77-2.71-5.6.5-11.18,1.11-16.78,1.55-2.54.2-5.11.11-7.67.16-4.48.08-9,.35-13.44.21-4.29-.14-8.55-.75-12.84-1.07-4.94-.37-9.88-.67-14.82-1-2.88-.17-5.77-.18-8.64-.44-2.33-.21-4.65-.68-7-1v-.51a3.84,3.84,0,0,1,.92-.41,49.48,49.48,0,0,1,5-.69c3.88-.21,7.77-.3,11.66-.43,2.46-.08,4.92-.24,7.39-.22a37.19,37.19,0,0,0,8.63-.49c1.12-.25,2.4.29,3.61.32,3.51.08,7,.19,10.52.08,3.34-.11,6.68-.47,10-.73a6.8,6.8,0,0,1,1.4-.11c3.83.53,7.54-.43,11.29-.83,1.86-.19,3.75-.09,5.61-.23q3.5-.26,7-.73a1.39,1.39,0,0,0,.83-1c.09-3,.18-6,.08-9-.06-1.86-.63-2.11-2.45-1.8-1.52.26-3.06.36-4.59.52-3.06.33-6.13.63-9.19,1-1.52.18-3,.61-4.55.69-3.12.16-6.25.2-9.37.22-4,0-8.1,0-12.14-.05-2.67-.06-5.33-.32-8-.42-1.2,0-2.41.08-3.62.06a21.53,21.53,0,0,1-2.21-.22l-4.92-.59a12.23,12.23,0,0,1-1.23-.17,22.59,22.59,0,0,0-2.3-.57c-2.87-.33-5.75-.52-8.6-.93a35.57,35.57,0,0,1-4.73-1.22,5.28,5.28,0,0,1-1.13-.66l0-.48a9.07,9.07,0,0,1,1.74-.27q6.59.24,13.17.55c2,.1,4.08.39,6.13.44,3.21.08,6.43,0,9.64.06a22.05,22.05,0,0,1,3.24.57,2.83,2.83,0,0,0,.9.1,26.85,26.85,0,0,1,3.36-.58c4.07-.11,8.14-.06,12.21-.15,4.63-.11,9.25-.41,13.88-.43,4.16,0,8.32.21,12.47.36,2,.08,2.63-.34,2.26-2.3-.52-2.77.42-5.36.59-8,0-.22,0-.44,0-1a18.89,18.89,0,0,0-1.81,1,8.8,8.8,0,0,1-4.32,1.3c-4.47.47-9-.76-13.44.42-1.46.39-3.15,0-4.73-.12-.51,0-1-.08-1.53-.12-2.08-.15-4.15-.32-6.23-.42-1.24-.06-2.49,0-3.73,0-7.67-.36-15.33-.76-23-1.12-2.33-.11-4.67-.1-7-.24-1.25-.07-2.5-.34-3.75-.49-4.27-.5-8.54-1-12.81-1.5a2.09,2.09,0,0,1-1.34-.83c.42-.14.92-.49,1.25-.38,2.1.71,3.91-.94,6.06-.58,2,.33,4.07-.21,6.12-.24,4.43-.06,8.87,0,13.3,0,.42,0,.84-.12,1.26-.11,1.67,0,3.34.1,5,.11,2,0,3.92-.09,5.89-.05,3.72.07,7.45.18,11.17.3,4.44.14,8.88.39,13.32.45,3.22,0,6.44-.23,9.66-.19a10.48,10.48,0,0,0,5.44-1,4.34,4.34,0,0,1,2.45.07c1.21.2,1.93-.13,2-1.44.11-1.58.26-3.16.33-4.75,0-1-.48-1.46-1.48-1.46-1.64,0-3.28-.05-4.92-.08-2.43,0-4.85-.11-7.28-.1-1.45,0-2.9.27-4.35.22-4.11-.14-8.22-.39-12.33-.58-2.15-.1-4.31-.08-6.44-.3-4.59-.47-9.17-1.06-13.75-1.59-2.3-.27-4.61-.46-6.9-.79s-4.32-.73-6.47-1.11c-.83-.15-1.57-.6-1.24-1.48a2,2,0,0,1,1.58-.91c2.07,0,4.13.25,6.19.39,7.28.52,14.56,1.07,21.85,1.54,2.79.18,5.59.24,8.39.29a47.08,47.08,0,0,0,6.83-.07c4-.52,7.91.14,11.85.35a37.74,37.74,0,0,0,4.84-.28c.24,0,.47-.23.8-.4l-1.09-1.48c.6-.07,1-.16,1.35-.16a2.91,2.91,0,0,0,3-2.41,32.75,32.75,0,0,0,.12-4.48c0-1.13-.69-1.47-1.79-1.42-2.89.14-5.78.24-8.68.26s-5.79,0-8.67-.17c-2.18-.11-4.35-.44-6.53-.68-4.7-.5-9.41-.89-14.08-1.54a54.73,54.73,0,0,1-6.73-1.73c-.24-.06-.42-.31-1-.74a11.91,11.91,0,0,1,2.61-.69c5,0,9.9,0,14.85,0,2.67,0,5.34,0,8,0,1.29,0,2.58.36,3.86.38,3.4,0,6.81,0,10.21,0,1.91,0,3.83-.11,5.74-.23a2.2,2.2,0,0,0,1.4-.52c1.19-1.34,0-2.78-.06-4.16,0-.45-.86-1-1.44-1.24-1.69-.67-3.44-1.2-5.17-1.78-1.51-.51-.29-1.32-.16-2.29-.8-.11-1.59-.27-2.38-.32-5.83-.37-11.69-.15-17.48-1.25-2.38-.46-4.87-.37-7.26-.8-3.68-.66-7.33-1.52-11-2.34a20.09,20.09,0,0,1-3.08-1,6.66,6.66,0,0,1-1.94-1.3,13.51,13.51,0,0,1,7.15-.45c1,.17,2,.36,3,.45q5.31.49,10.62.9c2.75.21,5.51.41,8.26.53,4.07.17,8.14.24,12.21.4,2.46.1,4.92.4,7.38.39a10,10,0,0,0,3.47-.89c.85-.34.63-1.09.1-1.61a18,18,0,0,0-1.88-1.46c-3.15-2.33-6.35-4.6-9.44-7-2.43-1.89-4.71-4-7.11-5.9-.83-.67-1.88-1.06-2.73-1.7-3.85-2.88-7.69-5.77-11.49-8.71-2.5-1.94-4.94-3.95-7.37-6-1.07-.88-2.07-1.85-3.07-2.8a5.11,5.11,0,0,1-.6-.84l.23-.49a14.87,14.87,0,0,1,3.25,1.07,51.68,51.68,0,0,1,4.26,3.16c1.87,1.4,3.8,2.73,5.6,4.22s3.14,2.94,4.76,4.35c.47.4,1.28.4,1.75.8,1.94,1.61,3.8,3.3,5.7,5,.59.52,1.17,1.06,1.8,1.53,1.4,1,2.84,2.05,4.25,3.09.22.16.39.4.61.58,3.16,2.56,6.33,5.1,9.48,7.67.93.76,2.17,1.42,2.64,2.42.76,1.62,2,1.94,3.41,2.67,2.16,1.13,4.1,1,6.22.7,2.59-.32,5.2-.6,7.78-1a5.68,5.68,0,0,0,1.67-.92,18.17,18.17,0,0,0-1.74-1.07c-.53-.25-1.24-.23-1.68-.57-1.55-1.2-3-2.55-4.53-3.76-1.13-.88-2.43-1.55-3.57-2.44-2.77-2.15-5.47-4.41-8.25-6.56s-5.9-4.42-8.82-6.66c-1.07-.82-2.08-1.73-3.08-2.65-1.41-1.29-2.83-2.58-4.16-3.95-2.69-2.78-5.42-5.54-7.94-8.47a71.17,71.17,0,0,1-4.56-6.35,5.36,5.36,0,0,1-.47-1.49l.34-.31a12.89,12.89,0,0,1,2.53,1.51c2.32,2.21,4.53,4.54,6.78,6.82a6.28,6.28,0,0,0,.5.48c1.58,1.28,3.5,2.31,4.68,3.89,1.9,2.56,4.73,3.79,7,5.77,1.8,1.57,3.59,3.15,5.43,4.68q6.19,5.16,12.43,10.26t12.73,10.36a1.73,1.73,0,0,0,1.12.47c1.68-.26,3.33-.64,5.4-1.05a18.44,18.44,0,0,0-1.64-1.75c-2.21-1.74-4.54-3.32-6.65-5.17-4.35-3.83-8.58-7.78-12.86-11.69-1.33-1.21-2.68-2.41-3.94-3.69-2.06-2.1-4-4.28-6.07-6.41-2.38-2.51-4.89-4.9-7.13-7.53-1.78-2.09-3.25-4.44-4.83-6.69a6,6,0,0,1-.42-1.38,7,7,0,0,1,1.33.62c2.4,2,4.82,4,7.16,6.06,2.1,1.87,4.12,3.85,6.16,5.79,1.72,1.64,3.4,3.34,5.15,5s3.53,3,5.23,4.61c1.88,1.75,3.65,3.63,5.54,5.38s4,3.54,6,5.26,4.39,3.67,6.58,5.5c2,1.67,4,3.38,6,5a2.58,2.58,0,0,0,1.69.55c2.23-.23,4.45-.57,6.67-.94a4.47,4.47,0,0,0,1.28-.71,5.47,5.47,0,0,0-1-1.2c-3.69-2.29-7.47-4.41-10.31-7.86-.93-1.13-2.59-1.62-3.78-2.57-1.63-1.32-3.14-2.79-4.67-4.22-3.71-3.47-7.44-6.93-11.1-10.45-2.29-2.21-4.45-4.55-6.71-6.79-2.45-2.42-5-4.78-7.43-7.2-.92-.91-1.75-1.91-2.62-2.86l.27-.3c.25.06.56,0,.74.19,3.48,2.91,7.29,5.41,10.39,8.8a48.42,48.42,0,0,0,4.81,4c3,2.53,6.09,5,9,7.64a77,77,0,0,0,10.33,8.45,1,1,0,0,1,.33.26c1.47,2.64,4.38,3.55,6.53,5.38a77.6,77.6,0,0,0,7.17,4.84c1.62,1.1,3.16,2.33,4.83,3.34s3.37.49,5-.2a1.06,1.06,0,0,0,.18-1,10.74,10.74,0,0,0-1.85-1.9c-2.22-1.7-4.53-3.29-6.73-5q-4.51-3.54-8.91-7.24c-1.32-1.11-2.47-2.41-3.74-3.58-1.44-1.33-2.95-2.59-4.37-3.94-3.89-3.7-7.77-7.4-11.6-11.17a15.46,15.46,0,0,1-1.75-2.59l.36-.4c1,.63,2.09,1.21,3.08,1.9a161.44,161.44,0,0,1,15.14,12.4c2.47,2.2,5.25,4.05,7.82,6.15,1.66,1.35,3.18,2.87,4.78,4.3.48.43,1,.83,1.52,1.22,2.9,2.2,5.85,4.34,8.7,6.6a53.84,53.84,0,0,1,4.14,3.78,2.42,2.42,0,0,0,2.55.67c.71-.2,1.48-.2,2.21-.35a5,5,0,0,0,1-.4c-.17-.32-.32-.64-.51-.94a1.22,1.22,0,0,0-.32-.27c-2.2-1.69-4.43-3.34-6.57-5.1a24.69,24.69,0,0,1-2.46-2.67c-.22-.24-.36-.59-.62-.74-5.4-3.2-9.7-7.73-14.35-11.83-1.5-1.33-3.12-2.53-4.62-3.86-1.67-1.49-3.29-3-4.9-4.6-1-1-1.9-2-2.8-3-.18-.2-.14-.59-.21-.89.34,0,.77-.15,1,0,1.88,1.3,3.74,2.63,5.58,4q3.33,2.45,6.62,5c1,.74,1.88,1.55,2.84,2.28s2,1.34,2.93,2.1c1.61,1.32,3.46,2.5,4.67,4.14,1.56,2.1,3.94,2.9,5.77,4.51,2.21,1.95,4.36,4,6.64,5.83s4.38,3.49,6.7,5c2,1.37,4.5,1.06,6.82,1.13.26,0,.84-.85.77-1.2a4.94,4.94,0,0,0-1.05-2.37c-1.33-1.36-2.91-2.48-4.29-3.8-1.77-1.7-3.43-3.52-5.16-5.27s-3.34-3.32-5-5c-.87-.85-1.79-1.65-2.62-2.53q-4-4.29-8-8.64c-1.24-1.38-2.4-2.83-3.58-4.26a2.05,2.05,0,0,1-.23-.62l.28-.38a41.87,41.87,0,0,1,3.48,2.48c2.47,2.14,4.85,4.38,7.26,6.59.9.82,1.72,1.72,2.64,2.52,2.06,1.81,4.18,3.56,6.23,5.38,1.33,1.17,2.6,2.4,3.87,3.64s2.25,2.35,3.42,3.47a5.69,5.69,0,0,0,1.83,1.26,1.38,1.38,0,0,0,1.21-.63c.6-2.33,1.37-4.58-.95-6.69a79.08,79.08,0,0,1-5.63-6.44c-.86-1-1.87-1.82-2.72-2.81a9.9,9.9,0,0,1-1-1.8,3.7,3.7,0,0,0-.41-.7c-1.12-1.27-2.27-2.53-3.38-3.81-.13-.15-.1-.43-.15-.68.19-.05.37-.16.44-.11a24,24,0,0,1,6.61,5.77,2.41,2.41,0,0,0,.25.34c2.38,2.3,4.74,4.62,7.15,6.88.9.84,1.45.62,1.75-.58,0-.18,0-.38.1-.55.94-3.13.84-6.09-1.39-8.81a2.61,2.61,0,0,1,.7.24c.88.62,1.37.17,1.51-.65.28-1.56.49-3.14.63-4.71.2-2.43,0-4.93.56-7.27a23,23,0,0,0,.6-7.36c-.49-5.62.66-11.15.82-16.74a43,43,0,0,1,.68-4.51,14.06,14.06,0,0,0,0-1.54c0-.88,0-1.76.12-2.64.15-1.53.35-3.06.54-4.59.08-.65.11-1.31.25-1.95,1-4.33,2-8.66,2.93-13,.48-2.13.9-4.26,1.43-6.38.35-1.42,0-2.08-1.51-2.39a122.79,122.79,0,0,1-12-2.66,31.06,31.06,0,0,0-6-1,28.57,28.57,0,0,1-3.8-.92c-1.49-.38-3-.71-4.46-1.19s-2.9-1.23-4.38-1.76c-2.19-.78-4.41-1.47-6.63-2.18-.49-.16-1.12-.11-1.47-.41-2.57-2.26-6-2.41-9-3.69a2.23,2.23,0,0,1-.26-.11c-4-2.37-8.62-3.09-12.76-5-2.92-1.35-6.08-1.87-8.95-3.54-2.57-1.49-5.85-1.93-8.88-2.4a19.54,19.54,0,0,1-5.64-2c-2-1-3.91-2-6-2.79a36.39,36.39,0,0,0-5.27-1.4c-3.41-.74-6.82-1.22-9.94-3.21-1.67-1.06-4.12-.91-6.22-1.3-.63-.12-1.27-.17-1.89-.32a21.6,21.6,0,0,0-3.25-.84,17.84,17.84,0,0,1-6.46-2.21,5.89,5.89,0,0,0-1.16-.5c-4.58-1.12-9.18-2.15-13.74-3.35-1.6-.42-3.08-1.31-4.65-1.9-2.32-.86-4.67-1.62-7-2.45-1.27-.45-2.51-1-3.8-1.4s-2.72-.63-4.06-1c-4.63-1.31-9.25-2.67-13.88-4-1.45-.41-1.86-.06-1.86,1.47s.07,3.18,0,4.77c-.11,3.48-2,6.27-3.59,9.19-1.42,2.67-3,5.27-4.29,8-1,2.08-1.93,4-4.08,5.31s-3.92,3.44-5.88,5.17a21.8,21.8,0,0,1-1.81,1.31c-1.44,1-2.86,2.11-4.34,3.08-1.32.87-2.69,1.68-4.09,2.43a44.11,44.11,0,0,1-4.06,1.9c-1.29.53-2.63.94-4,1.37a61.26,61.26,0,0,1-7,2.18c-2.93.58-5.93.78-8.9,1.1-3.71.4-7.42.81-11.14,1.1a39.51,39.51,0,0,1-5-.06c-3.11-.16-6.21,0-9.26-1.26-2.3-.92-4.95-.94-7.38-1.58-3-.79-5.87-1.75-8.77-2.75a66.88,66.88,0,0,1-6.22-2.48c-1.56-.72-3-1.72-4.51-2.52-2.61-1.36-5.26-2.64-7.86-4A14.2,14.2,0,0,1,243,52.24c-2.33-1.94-4.66-3.89-6.92-5.91a21.22,21.22,0,0,1-6.2-9,41.68,41.68,0,0,1-2.2-12.35c-.06-1.83-.85-3.62-1.28-5.44A14.08,14.08,0,0,1,226,17c0-.34.33-.71.51-1.06.29.24.7.43.85.74.53,1.09,1,2.23,1.45,3.35.92,2.23,1.88,4.45,2.72,6.71.27.71.11,1.58.34,2.32a19,19,0,0,0,1.35,3.45,30.76,30.76,0,0,0,7.64,9.75,61.33,61.33,0,0,0,14.6,8.44c2.4,1,4.67,2.39,7.08,3.39a35.11,35.11,0,0,0,5.37,1.56c4,.95,8,1.92,12,2.68s7.92,1.07,11.95-.14a15.51,15.51,0,0,1,6.14-.3c3.16.38,6-.75,9-1.34a38.13,38.13,0,0,0,10.17-3.45,52,52,0,0,1,5.22-1.9c.45-.17.77-.64,1.17-1,.87-.69,1.73-1.38,2.62-2,1.44-1.07,3-2,4.32-3.21,2.17-1.88,4.22-3.89,6.32-5.85a5.45,5.45,0,0,0,.91-.88c1.3-2,2.55-4,3.85-6a8.75,8.75,0,0,1,1.58-2.12A9.78,9.78,0,0,0,346.22,25c.48-1.61,1-3.21,1.58-4.8a5.11,5.11,0,0,0-1.9-6.27c-1.43-1.08-1.38-1.57.15-2.54,1-.64,2-1.39,3-2a3.51,3.51,0,0,1,1.57-.53,64,64,0,0,1,18.62,2.25c2.56.64,4.94,1.62,7.4,2.45,1.78.6,3.79.44,5.61.95,3.45,1,6.85,2.12,10.26,3.23,2.38.77,4.56,2.26,7.23,2a1.71,1.71,0,0,1,.55.09c4.76,1.21,9.65,2.07,14.24,3.73A78.17,78.17,0,0,0,427,27c5,.91,9.48,3.17,14.3,4.49a22.19,22.19,0,0,0,2.88.56,15.88,15.88,0,0,1,6.43,2.25,17.06,17.06,0,0,0,4,1.64,49.39,49.39,0,0,0,7.25,2c2.34.35,3.93,2,6,2.83,3.69,1.54,7.15,3.43,11.2,4.18,2.66.49,5.09,2.23,7.63,3.39,1.53.7,3.07,1.4,4.63,2,2.76,1.13,5.56,2.17,8.31,3.32s5.68,2.59,8.6,3.69c2.18.82,4.51,1.24,6.75,1.94a40.33,40.33,0,0,1,5.93,2.13,23.59,23.59,0,0,0,6.71,1.88c4.7.8,9.41,1.69,14,2.9,2,.53,3.82,1.94,5.72,2.94s2.28,1,3.69-.82a4.74,4.74,0,0,1,5.3-1.6,5,5,0,0,1,3.58,4.08A7.36,7.36,0,0,0,560,72.6a3.89,3.89,0,0,0,1.23,1.84c1.48,1,2.73,3.31,2.41,5a4.47,4.47,0,0,1-4,3.09c-1.56,0-2.09.71-2.14,2.09,0,1.21-.09,2.41-.13,3.62a11.16,11.16,0,0,1-.08,2.66c-.62,2.17-.19,4.28.12,6.41a6.63,6.63,0,0,1,.16,1.25c-.25,5.16.16,10.41-1.91,15.36-.14.34,0,.81,0,1.22,0,1.14.11,2.29,0,3.43-.1,1.43-.36,2.85-.53,4.28s-.26,2.6-.4,3.9-.34,2.87-.52,4.31a5,5,0,0,1-.23,1.38c-1.37,3.14-1.49,6.44-1.41,9.78,0,1-.21,1.95-.29,2.92a9.64,9.64,0,0,0-.09,2.79,17.43,17.43,0,0,1-.61,8.72,4.22,4.22,0,0,0-.14,1.8c.56,3.12-.09,6.14-.63,9.19-.32,1.84-.37,3.73-.74,5.56-.41,2.05-1.1,4.05-1.56,6.1-.27,1.21-.32,2.46-.47,3.69,0,.37-.07.74-.13,1.11-.21,1.38-.49,2.75-.61,4.14a3.45,3.45,0,0,1-2.83,3.37c-2,.44-3.68-.17-4.51-1.7-.45-.82-.83-1.68-1.28-2.5A2.61,2.61,0,0,0,536,186.1c-3.54.31-7.07.72-10.61,1-3.36.23-6.73.28-10.1.43a1.91,1.91,0,0,0-.94.23c-1.3.87-2.58.4-3.92.14a15.9,15.9,0,0,0-3.54-.12c-1.74.06-3.49.23-5.23.34-.42,0-.84,0-1.26,0l-5.32,0a12.27,12.27,0,0,0-2.8.05c-4.37,1-8.82,1-13.25,1.26s-8.94.83-13.39,1.33c-1.43.16-2.83.55-4.26.79a11.05,11.05,0,0,1-1.82.11c-1.58,0-3.17-.07-4.75,0-2.06.06-4.11.21-6.16.3a2.2,2.2,0,0,0-1.81,3.44,4.05,4.05,0,0,0,3.42,1.43,4.78,4.78,0,0,1,2.56.22,2.49,2.49,0,0,1,1.25,1.88,2.66,2.66,0,0,1-1.53,1.75,22.51,22.51,0,0,1-4.19,1,1.59,1.59,0,0,0-1.54,1.67c0,.89-.07,1.79,0,2.67.22,2.74.61,5.48.72,8.22.1,2.42-.08,4.85-.14,7.28a19.3,19.3,0,0,0-.09,2c.17,2.19.47,4.37.57,6.56.06,1.43-.19,2.88-.24,4.32-.09,2.57-.22,5.14-.17,7.71.09,4.39.29,8.77.48,13.15.11,2.52.33,5,.41,7.57.09,2.71.06,5.42.12,8.13,0,1.59.17,3.18.21,4.77.05,2.28.05,4.56.09,6.84a28.16,28.16,0,0,0,.15,3.07,18.45,18.45,0,0,1-.56,8.16c-.42,1.33.25,3,.41,4.54.44,4,.88,8.05.18,12.14-.31,1.79.17,3.72.23,5.58,0,1.15-.07,2.3-.06,3.45,0,2.71.05,5.42.09,8.13a13.76,13.76,0,0,1,.06,1.68A16.07,16.07,0,0,0,450.4,337c.3.77-.06,1.82-.16,2.74,0,.22-.31.42-.3.62.12,3.27-1.67,6.34-1,9.67.29,1.54,1,2,2.62,1.68.69-.15,1.58-.64,1.84.4.06.24-1,1-1.64,1.12-2.07.38-2.16.31-2.09,2.46s.4,4.35.47,6.54c0,1.39-.26,2.78-.31,4.17-.05,1.67,0,3.34,0,5,0,1.07,0,2.15,0,3.22-.09,1.53-.3,3.06-.34,4.59s.54,2.09,2.19,2.18a11,11,0,0,1,3.07.73c.39.14,1,.84.89,1a2.3,2.3,0,0,1-1.19,1.21,8.7,8.7,0,0,1-2.07,0,5.29,5.29,0,0,0-1.58.25c-1.28.45-1.59,1.35-1.54,2.73.12,3.12,0,6.25-.06,9.38,0,.09,0,.2,0,.28,1.17,3.29-.28,6.48-.35,9.72a11.56,11.56,0,0,0,.38,2.15,9.59,9.59,0,0,1,.34,2.17c-.25,4-.59,7.9-.85,11.86a4.8,4.8,0,0,0,.33,1.78c.55,1.62,1,3.25.38,4.94-1.16,3.11-.3,6.29-.34,9.43,0,2.24.24,4.48.2,6.72s-.33,4.19-.47,6.29c-.19,3-.23,6-.54,8.95a29.31,29.31,0,0,1-1.19,4.73,12.19,12.19,0,0,1-.88,2.46,3,3,0,0,1-1.35,1.4c-.34.12-1.11-.41-1.42-.84-.84-1.18-1.55-2.45-2.29-3.71a5.78,5.78,0,0,1-.78-3.75,30.27,30.27,0,0,0-.22-4.75c-.08-1.75.32-3.52-.48-5.26-.25-.53.08-1.36.22-2,.25-1.18,0-1.46-1.15-1.39-.78,0-1.57-.08-2.35-.07s-1.44.08-2.16.14c-1.72.13-3.44.24-5.15.41a9.7,9.7,0,0,0-1.5.38l-.05.38a13.13,13.13,0,0,1,1.33.85,10.22,10.22,0,0,1,1,1.05,4.15,4.15,0,0,1-1.31.59c-2.71.17-5.42.21-8.13.39-3.91.26-7.83.58-11.73.92a138.56,138.56,0,0,1-17.47.48,75.25,75.25,0,0,0-7.61.55c-.93.06-1.86-.11-2.8-.12-2.85,0-5.71,0-8.56-.12-3.44-.13-6.89-.17-10.29-.58-4.6-.56-9.21-.27-13.81-.59-4.8-.33-9.64,0-14.46,0-2.8,0-5.6.3-8.39.26-4.82-.06-9.64-.3-14.46-.43-2.48-.07-5-.05-7.43-.1a7.1,7.1,0,0,1-1.95-.19A27.93,27.93,0,0,0,292,450.9c-2.28.08-4.58-.5-6.88-.66-3.16-.22-6.34-.31-9.5-.48-.88,0-1.75-.21-2.62-.33a10.17,10.17,0,0,0-1.67-.24c-3.59.12-7.18.31-10.77.42-3.08.09-6.17.1-9.26.16-4.06.07-8.13.21-12.19.21-4.61,0-9.22-.16-13.83-.18-1.49,0-3,.28-4.47.34q-10.33.43-20.67.79a8.52,8.52,0,0,1-2.51-.08,3.32,3.32,0,0,1-1.54-1.22c-.45-.58-1-1.08-1.35-.25-.92,2-2.58,1.21-4,1.3-.78,0-1.57-.07-2.36-.07-2.14,0-4.29,0-6.43,0-2.81.08-5.61.36-8.42.36-3.69,0-7.39-.14-11.07-.32a7.21,7.21,0,0,1-2.86-1,11.63,11.63,0,0,1,2.35-.6c3.92-.19,7.84-.29,11.76-.42a.6.6,0,0,0,.14,0c3.9-1.13,7.93-.32,11.88-.75.87-.1,1.78.09,2.66,0,2.08-.09,4.16-.27,6.25-.35s4.1,0,6.14-.11c1.1-.06,2.17-.48,3.27-.58,3.15-.29,6.3-.51,9.46-.75.14,0,.32-.09.41,0,2.06,1.26,4.12-.12,6.18-.06,3.4.09,6.81-.42,10.22-.48,2,0,4,.35,5.94.52a5.51,5.51,0,0,0,1.08-.19c1-.12,1.91-.27,2.87-.34,2-.15,4.07-.25,6.1-.37,5.84-.34,11.68-.86,17.52-1,5.5-.09,11,.29,16.51.42,1.82,0,3.65-.09,5.48-.08,2.67,0,5.34.1,8,.12,3.41,0,6.83,0,10.24.1a16.86,16.86,0,0,1,2.61.45,3.37,3.37,0,0,0,1.23.22c3.48-.84,6.88.46,10.32.32,2.43-.09,4.86-.27,7.29-.24,3.74,0,7.48.21,11.21.36a4.41,4.41,0,0,1,1.19.38,3.17,3.17,0,0,0,1,.36,21.5,21.5,0,0,0,3.8-.37,27.3,27.3,0,0,1,11.39.08,14.23,14.23,0,0,0,3.05,0,7.77,7.77,0,0,1,2.63-.1c3.25,1.14,6.58.74,9.89.76,3.83,0,7.66.09,11.49,0,6.58-.21,13.15-.53,19.72-.83,5.37-.24,10.74-.54,16.12-.75,4.72-.18,9.45-.29,14.17-.37,2.29,0,4.58.1,6.87.11,1.62,0,2.06-.48,1.8-2.05s-.58-2.85-.87-4.27a1.63,1.63,0,0,0-2-1.41c-3.24.35-6.49.69-9.73,1.05-2.32.26-4.63.6-7,.8-1.52.13-3.06,0-4.59.12-1.1,0-2.19.22-3.29.29-2,.12-3.92.2-5.88.3-1.11.06-2.22.18-3.33.2-1.38,0-2.76,0-4.14,0-.41,0-.82-.29-1.22-.27-2.37.1-4.74.31-7.11.37-4,.11-7.94.14-11.91.21a5.2,5.2,0,0,0-1.67,0c-2.61,1-5.26.41-7.91.35-3.46-.09-6.92.07-10.39.15-2.11,0-4.21.2-6.32.21-3.35,0-6.7-.08-10.05-.07-1.54,0-3.08.28-4.62.24-4-.11-8-.37-12-.48-3.6-.1-7.22.18-10.79-.18a58,58,0,0,1-8.43-2,5.45,5.45,0,0,1-1.28-.74Zm229-347.69-.27,0c.2.59.61,1.2.55,1.76-.48,4.22-1.1,8.43-1.59,12.65-.4,3.44-.71,6.88-1,10.33-.21,2.28-.43,4.56-.55,6.84-.17,3.16-.09,6.35-.41,9.5-.47,4.59-1.23,9.15-1.82,13.72-.21,1.61-.14,3.28-.5,4.85-.64,2.83.3,4.82,2.43,6.72s4.15,4.43,6.22,6.66c.59.64,1.39,1,1.7-.11a20,20,0,0,0,.48-3.84c0-.6-.17-1.21-.12-1.81.27-3.33.73-6.65.84-10s-.14-6.44-.21-9.66a3.16,3.16,0,0,1,.17-1.1c.89-2.52,1.68-5,1.29-7.77a3,3,0,0,1,.07-1c.6-3.06,1.22-6.12,1.81-9.18a8.53,8.53,0,0,0,.19-1.94,24.19,24.19,0,0,1,1.14-8.7,11,11,0,0,0,.3-3c.07-1.95.06-3.9.15-5.85,0-.79.33-1.56.41-2.34.25-2.59.37-5.19.71-7.77s.9-5.36,1.36-8a1.83,1.83,0,0,0-1-2.1,35.32,35.32,0,0,0-9.33-3.77c-1.58-.4-2.4.49-2,2.12a9.18,9.18,0,0,1,.38,2.34c-.06,1.78-.18,3.56-.42,5.32S534.82,88.13,534.5,89.83Zm.52,78.65c.78.74,1.37,1.35,2,1.9.45.38,1.16.72,1.21-.22a4.71,4.71,0,0,0-.45-2.94c-2.83-3.54-5.84-6.93-8.81-10.36-.63-.73-1.32-.65-1.58.26a37.44,37.44,0,0,0-1,4.6A1.81,1.81,0,0,0,527,163c1.9,2,3.87,4,5.77,6.07C533.68,170,534.41,170.3,535,168.48Zm1.05,7.33c-.81-.64-1.43-1.08-2-1.6-2.21-2-4.38-4.07-6.6-6.07-1.67-1.5-2.15-1.36-2.66.68a9.21,9.21,0,0,1-.34,1.07,2,2,0,0,0,1,2.73c1.09.71,2,1.65,3.11,2.36a5.52,5.52,0,0,0,1.88.58,11.17,11.17,0,0,1,2.08.33A3.77,3.77,0,0,0,536.08,175.81Z"/><path d="M352.57,460.11c1.92,1.74,2.18,1.69,4.35.36,1.29-.78,2.5-1.84,4.35-.74.83.49,2.27-.08,3.43-.09.63,0,1.26.23,1.89.22.94,0,1.87-.14,2.81-.24.57-.06,1.13-.22,1.7-.23,2.07,0,4.14,0,6.21-.07a2.22,2.22,0,0,1,.82,0,3.08,3.08,0,0,0,3-.54c1.62-1,1.92-.9,2.57.87.46,1.26,1.19,1.36,2.21.48a6.91,6.91,0,0,1,2-1c.34-.13.8,0,1.09-.18,2.29-1.43,4.22-.43,6,.93.8.6,1.27.87,2.22,0,1.35-1.22,2.82-2.3,5-1.06,1,.54,2.53,0,3.82-.09a5.84,5.84,0,0,1,1.8,0c2.57.74,5,.07,7.47-.51.62-.15,1.49-.41,1.88-.13,1.45,1,3,.64,4.57.71a5.12,5.12,0,0,1,1.91.37,5,5,0,0,0,3.64.16c1.39-.33,3.25.68,4.71,1.47.66.35.44,1.51-.48,1.94a8.18,8.18,0,0,1-2.25.78c-2,.29-4,.43-5.93.7-2.15.3-4.29.69-6.44,1a3.16,3.16,0,0,1-1.25,0,12.87,12.87,0,0,0-8.61,1c-.38.16-.92.4-1.2.25-2.23-1.23-5.15-.38-7.09-2.4,0,0-.18,0-.17,0-.19.63-.2,1.49-.61,1.77a3.86,3.86,0,0,1-2,.24c-1.68,0-3.36,0-5-.06-.79,0-1.57-.18-2.35-.24s-1.45,0-2.18,0c-.23,0-.61.16-.66.08-.9-1.36-2.16-.49-3.25-.54a2,2,0,0,0-1.21.2c-2.3,1.67-4.73,1.35-7.3.79-1.21-.26-2.57.3-3.87.34-2.64.09-5.28.1-7.92.1-.5,0-1-.3-1.51-.3-2.14,0-4.27.15-6.4.19-1,0-2.05-.18-3.05-.07-1.94.21-3.85.67-5.8.82-1.22.1-2.47-.31-3.7-.25-2.72.14-5.44.36-8.15.68a10.34,10.34,0,0,1-5.7-1c-.3-.14-.42-.66-.78-1.27-.19.32-.32.57-.48.79-1.11,1.44-2.38,2.05-4.27,1.28-.73-.3-1.76.12-2.65.24-.55.07-1.08.24-1.63.27a36,36,0,0,1-4.05,0c-1-.07-1.88-.5-2.84-.6a16.37,16.37,0,0,0-2.64.07c-1.25.07-2.5.17-3.74.23-1,.05-2.1.09-3.14.08a9.54,9.54,0,0,1-1.37-.2,5.86,5.86,0,0,0-1.5-.21c-2.81.33-5.62,1-8.43,1a40.71,40.71,0,0,1-7.32-.76,9.65,9.65,0,0,0-4.38.37,30.06,30.06,0,0,1-5.52.61c-1.24.12-2.48.19-3.71.38a2.38,2.38,0,0,1-2.69-1c-.88-1.32-2.25-1.21-3.23,0a2.55,2.55,0,0,1-1.66.67c-2.36.18-4.72.32-7.09.36-1.51,0-3-.23-4.54-.25-1.75,0-3.5.1-5.24.15-.23,0-.56.1-.69,0-.95-.88-1.92-.36-2.87-.08-3.15.95-6.33.13-9.45,0a11.68,11.68,0,0,0-4.5.48,3.46,3.46,0,0,1-1.1.1c-1.76,0-3.51,0-5.27-.09-1,0-2-.26-3-.4a1.73,1.73,0,0,0-.81-.05,12.66,12.66,0,0,1-5.86.85c-2.11-.12-4.25.32-6.38.35-1.83,0-3.67-.2-5.5-.25a9.52,9.52,0,0,0-2.19.25,2.11,2.11,0,0,1-2.31-.49,1.6,1.6,0,0,0-1.41-.18c-2.61,1-5.19,1.54-7.71-.15a1.68,1.68,0,0,0-1.89,0c-1.56.67-3.36,1.72-4.82,1.42a38.78,38.78,0,0,0-5.23-.48,9.15,9.15,0,0,0-2,.34c-.31.05-.74.25-.93.11-1.25-.86-2.29-.34-3.35.37a2.35,2.35,0,0,1-1.18.42c-2.19,0-4.38,0-6.57,0-1,0-2.06.09-3.07,0-2.26-.21-4.52-.51-6.78-.75a11.93,11.93,0,0,0-2.38-.15,1.85,1.85,0,0,1-2-.82c-.54-.84-1.25-.92-1.92,0s-1.53,1.58-2.77,1-1.48-1.61-1.48-2.91c0-2.72-.14-5.43-.22-8.15,0-1.54,0-3.09-.15-4.63-.32-3.2-.77-6.4-1.11-9.6a29.23,29.23,0,0,1-.14-3.5c0-2.24.19-4.48.15-6.72a15.34,15.34,0,0,0-.66-2.26,17.51,17.51,0,0,1-.6-4.5,51,51,0,0,0-.11-7.36c-.3-5.12-1.56-10.17-1.07-15.38.23-2.5-.54-5.09-.89-7.64-.55-4.11-1.93-8.15-1.27-12.38a17.48,17.48,0,0,0-.31-5.74c-.46-2.73.15-5.64.22-8.47,0-1.66-.07-3.33-.1-5-.06-3.12,0-6.24-.17-9.36-.1-2.57-.36-5.13-.53-7.7a26,26,0,0,1-.24-5.29,33.68,33.68,0,0,0-.34-8.95,2.07,2.07,0,0,1,0-1c1.23-2.93-.17-5.68-.55-8.5a8.58,8.58,0,0,1-.07-1.91c.29-3.21.62-6.42.92-9.62a1.09,1.09,0,0,0-.08-.69c-1.72-2.3-.78-4.8-.69-7.28.08-2.21-.21-4.44-.34-6.66-.1-1.68-.26-3.36-.27-5,0-4.63,0-9.25,0-13.88,0-2.29.15-4.58,0-6.86-.06-1.24-.63-2.45-.75-3.7a16.36,16.36,0,0,1,0-4.42,14.75,14.75,0,0,0-.18-6.38,7.06,7.06,0,0,1,.29-4.05c.7-1.79.36-3.51.32-5.26,0-1.92,0-3.84-.14-5.76-.19-3.77-.43-7.54-.65-11.3a7.87,7.87,0,0,1-.07-1c.34-5,.61-10,1.07-14.91.37-3.91.85-7.81,1.55-11.67.28-1.56,1.32-3,1.94-4.49a5.82,5.82,0,0,0,.19-1.55,6,6,0,0,0-1.6-.05c-2.45.58-4.9,1.17-7.31,1.88a32.28,32.28,0,0,0-4.42,1.68,7.09,7.09,0,0,1-4.48.66,14.57,14.57,0,0,0-3.91-.28c-3.33.28-6.75-.41-10,.82a3.19,3.19,0,0,1-1.94-.06c-2.93-.94-5.82-.43-8.76,0a35.91,35.91,0,0,1-8.64.24,24.38,24.38,0,0,0-12,1.5,3.5,3.5,0,0,1-2.62,0,7.92,7.92,0,0,0-5.54-.54,54.44,54.44,0,0,1-7.52.58l-4,.25c-.93.06-1.87.17-2.8.19-2.26.06-2.26.05-3,2.18-.9,2.45-4.48,3.31-5.92,1.2-2.21-3.26-4.42-6.52-5.09-10.64a60.41,60.41,0,0,0-2.86-9.81,14.19,14.19,0,0,1-1-6.14c.18-1.83.35-3.79-1.29-5.35a5,5,0,0,1-1-2.56c-.58-2.84-.93-5.73-1.59-8.55-.9-3.81-2-7.56-3-11.36-.58-2.27-1-4.58-1.59-6.84-.4-1.48-1.11-2.88-1.57-4.35a20.49,20.49,0,0,1-.5-2.86,3.59,3.59,0,0,0,0-.69c-.76-2-1.64-3.86-2.28-5.84-1-3.14-1.95-6.32-2.81-9.51s-1.51-6.15-2.29-9.22c-.1-.39-.45-.72-.6-1.11-.65-1.64-1.3-3.28-1.89-4.94-.68-1.88-1.32-3.78-1.94-5.68A26,26,0,0,1,8,101.53c-.36-1.69-.58-3.4-1-5.07a46.62,46.62,0,0,0-1.62-5.35c-.76-2-1.69-3.95-2.64-5.87-.18-.37-.8-.57-1.25-.76A10.71,10.71,0,0,0,0,84.09c.36-.54.61-.85.8-1.2a20.1,20.1,0,0,0,1.65-3.16,3.55,3.55,0,0,1,4.38-2.59c2.33.39,3.92-.8,5.67-1.86a18.27,18.27,0,0,1,2.35-1c.33-.14.81-.19,1-.44,1.59-2.28,4.14-3.16,6.42-4.42,2.78-1.54,5.54-3.12,8.38-4.53,1.62-.81,3.43-1.24,5.07-2s3.08-1.77,4.67-2.55a18,18,0,0,1,2.95-1,14,14,0,0,0,2.66-.7c2.22-1.18,4.36-2.51,6.55-3.76a1.79,1.79,0,0,1,.93-.25c2.25.14,4-1,5.83-2.1a5.83,5.83,0,0,1,.81-.55c2.11-.77,4.23-1.51,6.34-2.27.48-.17,1.12-.28,1.38-.64,1.49-2,3.92-1.75,5.92-2.47,2.4-.87,4.91-1.44,7.31-2.33A25.91,25.91,0,0,0,84,42.41,33.71,33.71,0,0,1,87.18,41a24.51,24.51,0,0,1,3-1.17c1.93-.52,3.91-.83,5.83-1.37s3.69-1.19,5.53-1.82c.53-.18,1-.52,1.54-.66,2.11-.56,4.25-1,6.36-1.62a29.75,29.75,0,0,0,2.86-1.11c.26-.1.51-.21.78-.3l6.63-2.09,3.6-1.17c.13,0,.31,0,.41-.08,2.76-2,6.19-1.41,9.25-2.23,3.38-.91,6.71-2,10-3.14,2.42-.86,4.77-2,7.32-2.23,3.08-.25,5.56-1.77,8.17-3.08a11.55,11.55,0,0,1,1.88-.48c1.24-.37,2.49-.72,3.7-1.18,1.6-.61,3.15-1.34,4.74-2,2.25-.88,4.53-1.7,6.79-2.55a10.24,10.24,0,0,0,2.69-1.12c1.69-1.32,3.69-1.44,5.64-1.9,2.63-.62,5.19-1.55,7.79-2.31.93-.27,1.9-.4,2.83-.68,1.42-.42,2.82-.94,4.24-1.37,1.16-.35,2.34-.61,3.51-.95.76-.22,1.49-.49,2.24-.74l7.43-2.48A12.18,12.18,0,0,0,214,.44c2.57-1.44,6.8.91,6.63,3.86-.16,2.76-.21,4.3-3.95,5.48-4.1,1.3-8.11,2.85-12.18,4.25-3.52,1.21-7,2.39-10.59,3.5-3.29,1-6.67,1.76-9.9,2.93a58.08,58.08,0,0,0-6.37,3.23c-.58.3-1.2.53-1.8.79L170,27.12a6,6,0,0,1-1,.48,42.86,42.86,0,0,0-8.18,2.82c-2.46,1.13-5,2.1-7.54,3-.93.35-2,.39-2.93.67A15,15,0,0,0,147,35.32c-2.54,1.47-5.38,1.82-8.15,2.49-1.52.37-2.93,1.17-4.43,1.63-1.81.57-3.68,1-5.51,1.48-1.23.35-2.44.79-3.65,1.21-.44.15-.84.41-1.27.56q-3.89,1.33-7.79,2.62c-1.68.55-3.35,1.13-5,1.61-3.15.88-6.48,1.34-9.43,2.66a33,33,0,0,1-6.86,2.18c-2.07.43-4,1.62-6,2.31-3.8,1.29-7.6,2.62-11.48,3.65a22.49,22.49,0,0,0-6.78,2.83c-2.19,1.43-4.85,2.14-7.33,3.09-1.82.7-3.69,1.28-5.52,1.94-1.36.5-2.7,1.06-4.05,1.59s-2.94,1.18-4.43,1.72c-1,.36-2.05.61-3.07.94-.79.26-1.57.56-2.34.87L37.5,73.22c-.3.12-.62.2-.93.31-4,1.47-7.93,3.05-12,4.34a23.18,23.18,0,0,0-4,1.82,33.78,33.78,0,0,1-4.76,1.64c-.79.28-1.53.7-2.3,1.05s-.83.87-.56,1.62c1,2.8,2,5.62,3,8.43a1.28,1.28,0,0,0,.22.51c2,1.84,2,4.4,2.69,6.78A41.68,41.68,0,0,0,21.17,105a15.85,15.85,0,0,1,1.29,3.54,34.54,34.54,0,0,0,3.33,10.37,34.75,34.75,0,0,1,1.69,4.91c1.17,3.53,2.36,7.06,3.5,10.6.23.7.21,1.49.45,2.19.61,1.8,1.3,3.58,2,5.37a3.78,3.78,0,0,1,.43,1.32c-.11,2.18,1.29,3.86,1.79,5.83.32,1.24.5,2.52.77,3.78a14.67,14.67,0,0,0,.67,2.53,1.44,1.44,0,0,0,1.92,1,3.56,3.56,0,0,1,2.6,1.29c1.64,1.83,3.09,3.84,4.59,5.8,1,1.33,1.9,2.79,3,4,1.35,1.52,2.9,2.86,4.33,4.32s2.77,3,4.18,4.44a12.86,12.86,0,0,0,1.46,1.09,13.33,13.33,0,0,0-1-5.44c-1-2.7-2.17-5.37-3.08-8.12-.62-1.85-.81-3.85-1.41-5.7-1.19-3.68-2.56-7.3-3.81-11-.45-1.32-.7-2.71-1.13-4-.29-.92-.74-1.79-1.08-2.69-.79-2.1-1.6-4.19-2.31-6.32-.9-2.66-1.71-5.34-2.55-8-.66-2.09-1.29-4.2-1.94-6.29-.59-1.88-1.23-3.73-1.79-5.62q-1.9-6.44-3.73-12.9c-.4-1.44-.62-2.93-1-4.36-.62-2.09-1.5-4.12-2-6.24a52.16,52.16,0,0,1-.66-5.91l.5-.34a6,6,0,0,1,1.72,1.06c1.8,2.26,3.67,4.5,4.37,7.43a21.61,21.61,0,0,0,1.07,2.29c1.25,3.35,2.46,6.71,3.69,10.06a10.7,10.7,0,0,1,.68,1.84,9.28,9.28,0,0,1,.17,3,2,2,0,0,0,.73,2.3,4.51,4.51,0,0,1,1.36,2.07c1.17,3.35,2.25,6.74,3.35,10.11,1.23,3.74,2.44,7.48,3.68,11.22.1.3.38.54.49.85q.77,2.15,1.48,4.32c.55,1.68,1,3.39,1.61,5.07.76,2.24,1.55,4.48,2.34,6.71s1.68,4.52,2.45,6.81a27.36,27.36,0,0,1,1,3.79,13.94,13.94,0,0,0,4.29,7.82c2,1.89,3.46,4.29,5.37,6.25q6.75,6.92,13.72,13.62c1.53,1.48,3.55.82,5.36.58a10.7,10.7,0,0,0,2.59-1c.82-.35,1-1,.32-1.52-1.92-1.61-3.87-3.2-5.89-4.69a31.18,31.18,0,0,1-7.07-6.71A18.42,18.42,0,0,0,77.12,174c-1.81-1.37-2.18-2-1.6-4.15.31-1.12-.23-1.79-1.29-1.35-1.67.71-2.41-.15-3.52-1.24-2.29-2.25-3.51-5-4.77-7.84a5.13,5.13,0,0,1-.19-.84c1.73,0,2.88,1.06,4.07,1.81a47.87,47.87,0,0,1,10.07,9c.92,1,2.1,1.86,3.09,2.86,2,2,3.89,4.05,5.86,6,.41.42,1,.65,1.46,1,.86.74,1.7,1.52,2.52,2.31.33.32.54.78.89,1.07q4.27,3.38,8.58,6.7a2.09,2.09,0,0,0,1,.53,13.83,13.83,0,0,0,2-.12,10.78,10.78,0,0,0-1-1.49q-3.28-3.64-6.62-7.22c-1.91-2-3.92-4-5.78-6.05a75.92,75.92,0,0,1-5.21-6.26,45,45,0,0,1-2.92-5.27c-.09-.17,0-.43.31-1L87,164.83c.61.47,1.2,1,1.83,1.43A16.13,16.13,0,0,1,91,167.73c3.63,3.64,7.24,7.29,10.77,11,1.89,2,3.51,4.23,5.42,6.2,1.61,1.67,3.44,3.14,5.19,4.67a1.25,1.25,0,0,0,.75.34c2.59-.08,5.18-.19,7.78-.3l.23-.47c-.76-1.08-1.44-2.23-2.28-3.23-3.45-4.11-6.82-8.31-10.5-12.22a18.9,18.9,0,0,1-4.2-7.66c-.11-.36-.22-.72-.3-1.08,0-.12.06-.26.18-.77a25,25,0,0,1,3.71,2.47,72.16,72.16,0,0,1,4.87,5.37c1.79,2.1,3.48,4.27,5.23,6.39s3.64,4.38,5.46,6.57c.77.93,1.49,1.92,2.32,2.8.67.71,3.37.85,4.1.26a1,1,0,0,0,.21-.84c-.07-.3-.35-.54-.52-.82-3.27-5.39-6.59-10.76-9.78-16.19a20.87,20.87,0,0,1-1.34-4,2.79,2.79,0,0,1,2.95,1.37c3.31,4.84,6.56,9.74,9.95,14.53,1.46,2.07,2.94,4.13,5.47,5.21a3.87,3.87,0,0,1,1.35,5.82,5.28,5.28,0,0,0-.62,1.24c-.49,1.25-.87,2.56-1.46,3.77a2.07,2.07,0,0,0,.06,2.47,14.78,14.78,0,0,1,3.11,8.58,33.28,33.28,0,0,0,.83,4c.57,3.08,1.23,6.14,1.6,9.25.27,2.21.11,4.47.16,6.71a2.44,2.44,0,0,0,.13,1c1.35,2.85,1.11,5.9.93,8.86a63.71,63.71,0,0,0,0,9.52c.38,4.37.18,8.78.36,13.17.13,3.31.39,6.63.71,9.93a102,102,0,0,1,.1,14.73,20.06,20.06,0,0,0,.35,4.84c.63,3.14,1.09,6.18.36,9.44a27.07,27.07,0,0,0-.14,7c.19,4.21.55,8.4.78,12.61,0,.68-.3,1.38-.32,2.07a29,29,0,0,0,0,4.06c.21,1.94.81,3.85.23,5.84a5.09,5.09,0,0,0,.14,1.66,14.14,14.14,0,0,1,.2,3.49,19.77,19.77,0,0,0,.36,6.4,20.71,20.71,0,0,1-.15,3.15c0,1.28,0,2.57.05,3.86a12.28,12.28,0,0,1,.21,2.62,25.24,25.24,0,0,0,.35,12.23,9.13,9.13,0,0,1,.1,2.23c.1,2.42.26,4.83.28,7.25a44.17,44.17,0,0,1-.24,8.25,41.78,41.78,0,0,0-.2,9.07c.08,2.52-.25,5-.35,7.57s-.07,4.86-.18,7.29c-.09,1.92-.39,3.83-.46,5.74-.06,1.72.06,3.44.1,5.16,0,.56,0,1.12,0,1.68q-.06,2.57-.13,5.14c-.06,1.91-.15,3.82-.19,5.72-.05,3.13,0,6.26-.12,9.38-.05,2-.31,3.91-.34,5.87s.2,4.11.16,6.16c-.07,3.12-.24,6.25-.44,9.37-.16,2.57-.11,2.91,1.47,5.16,1.72-.43,3.61-.52,5.08-1.35a9.81,9.81,0,0,1,5.78-1,38.9,38.9,0,0,0,9.42-.86c1.47-.29,3.1.35,4.67.4s3.26-.14,4.89-.11c.42,0,.83.43,1.26.63s.94.59,1.3.49a3.17,3.17,0,0,1,3.58.94,5.89,5.89,0,0,0,1.52.91,4.76,4.76,0,0,1,.65-1.44,36.49,36.49,0,0,1,3-2.73c.12-.1.76.11.83.3.65,1.62,2,1.07,3.22,1.17.45,0,.9.14,1.35.17.3,0,.76.08.88-.09,1.43-1.93,3.44-1.15,5.26-1.13,3,0,6.19.7,9,0,2.07-.52,3.7-.95,5.66,0a14.74,14.74,0,0,0,3.28.72c.39-1,1.54-.65,2.7-.69,2.77-.1,5.61.1,8.23-1.09,1.56-.7,2.53.52,3.72,1,.16.07.27.37.4.37q2.56-.08,5.12-.24c.51,0,1-.17,1.52-.24a14.81,14.81,0,0,1,2.3-.31,32,32,0,0,1,5.66.27c2.28.44,4.22-.39,6.22-1.06,1.24-.42,2.2-.58,2.59,1,0,.19.43.47.58.44,1.11-.26,2.2-.63,3.31-.9a2.26,2.26,0,0,1,1.42,0,3.56,3.56,0,0,0,3.33.34,3.45,3.45,0,0,1,2.48-.05c1.89.89,3.4-.39,5-.72,2.49-.51,4.82-1.57,7.46-.62a22.18,22.18,0,0,0,4,.66l.43,1.52c.61-1.55,1.32-1.72,2.35-.76.19.17.86,0,1.24-.22,2.64-1.32,5.3-2.32,8.26-1a.85.85,0,0,0,.26.09,62.43,62.43,0,0,1,6.92.58c1.87.36,3.3.24,4.71-1.19.44-.45,1.7-.16,2.58-.08,1.27.11,2.54.29,3.8.52a7.53,7.53,0,0,1,2.27.69c.7.39,1,.43,1.59-.27a9.86,9.86,0,0,1,2.69-2.07c.19-.11,1.08.47,1.21.87.59,1.81,1.37,2.21,3.07,1.35.38-.19.73-.43,1.09-.65a1.92,1.92,0,0,1,2.33.09,2.65,2.65,0,0,0,1.89.19c1.34-.32,2.61-1,4-1.24a54.21,54.21,0,0,1,6-.86,6.52,6.52,0,0,1,2,.5,25.54,25.54,0,0,0,4.26,1c1.86.15,3.73,0,5.51.77.24.11.71-.16,1-.35s.15-.43.24-.64S352.43,460.37,352.57,460.11ZM39.64,162.61a5.34,5.34,0,0,0-.29,1,17.6,17.6,0,0,0,1.67,6.9,23.37,23.37,0,0,1,1,3.88c.22,1,.27,2,.51,3,.36,1.5.94,3,1.21,4.46.43,2.39.73,4.81,1,7.22.16,1.38.18,2.78.27,4.17.08,1.2.08,2.42.27,3.61.16,1,.86,1.24,1.8.91a24.81,24.81,0,0,1,3.08-1c4.34-.9,8.7-1.75,13.05-2.61,1.37-.27,1.49-.66,1.27-2-.54-3.4-2.84-5.46-5.3-7.46a34.19,34.19,0,0,1-3.39-3.14c-.94-1-1.64-2.25-2.58-3.25-1.76-1.88-3.7-3.59-5.42-5.5-2-2.18-4.11-4.19-5.29-7C42,164.63,40.73,163.78,39.64,162.61Zm28.11,19.22-.41.26c.19,2.71.9,5.17,3.14,7.05.87.73,1.49,1.75,2.36,2.48a4.64,4.64,0,0,0,2.32,1.15,6.85,6.85,0,0,0,2.68-.66.9.9,0,0,0,.31-.83,4,4,0,0,0-.92-1q-4.14-3.77-8.3-7.51C68.56,182.41,68.15,182.13,67.76,181.83ZM95,174.05c-.56-.3-.92-.64-1.1-.56a1.6,1.6,0,0,0-.77.84c0,.12.5.69.64.64A5.22,5.22,0,0,0,95,174.05ZM334.06,461.9c-.63-.4-.92-.73-1.16-.7s-.63.36-.94.57c.18.21.36.61.53.6A7.2,7.2,0,0,0,334.06,461.9Z"/><path d="M245.56,74.53a9,9,0,0,1,2.85.77c2.18,1.5,4.78,1.79,7.14,2.73s4.92,2,7.29,3.13a42.92,42.92,0,0,0,11,3.62c3.76.72,7.49,1.62,11.26,2.31a45,45,0,0,0,12.69,0c3.62-.37,7.27-.54,10.87-1.07a56.47,56.47,0,0,0,8.16-1.9c2.79-.85,5.45-2.13,8.24-3,4.94-1.49,9.31-4.14,13.71-6.7,1.92-1.11,3.45-2.88,5.31-4.12,3.5-2.36,7.07-4.63,9.75-8,1.17-1.45,2.18-3,3.25-4.56a6.57,6.57,0,0,1,.63-.92A32.84,32.84,0,0,0,364.48,47c.3-.67.43-1.42.7-2.11.41-1.08.9-2.14,1.29-3.23.89-2.51,2.88-4.58,2.79-7.51a13.52,13.52,0,0,1,.78-3.4h.52a5.89,5.89,0,0,1,.5.88c1.05,2.9,1.66,5.75-.27,8.59a35,35,0,0,0-2.06,3.95,1.75,1.75,0,0,0-.3.91c.45,2.81-1.22,5-2.39,7.2-2.1,3.9-4.81,7.46-7.19,11.21-2.71,4.28-6.75,7.19-10.53,10.37a48.28,48.28,0,0,1-5.5,4.1,78.13,78.13,0,0,1-7,3.76c-2.42,1.19-4.87,2.34-7.38,3.29s-5.15,1.63-7.72,2.44c-.67.21-1.3.54-2,.72-1.06.28-2.14.47-3.22.7a4,4,0,0,0-1.21.32c-2.48,1.49-5.19,1.29-7.92,1.29-2.12,0-4.23.44-6.35.52-2.36.09-4.73,0-7.1,0-.64,0-1.29-.21-1.93-.2a32.1,32.1,0,0,1-9.38-1.34c-2.19-.63-4.49-.86-6.74-1.3A41.34,41.34,0,0,1,262.64,84c-2.69-1.48-5.36-3.09-8.46-3.86a19.8,19.8,0,0,1-8.37-4.32,3,3,0,0,1-.49-.88Z"/><path d="M356.46,275.07a26.58,26.58,0,0,1,4.38-1.46c2.35-.37,4.76-.38,7.13-.6,2.74-.25,5.47-.65,8.21-.84,2.51-.17,5-.17,7.55-.22.37,0,.78.19,1.11.09,3-.85,6.14-.19,9.21-.33,2.46-.12,4.93-.06,7.4-.12.84,0,1.68-.19,2.52-.19,1.43,0,2.85.07,4.28.12.61,0,1.21.1,1.82.1,2.94,0,5.88,0,8.82-.06,3.78-.06,7.56-.21,11.35-.19a2.76,2.76,0,0,1,1.92,1c.56.76.14,1.6-.58,2.22a8.19,8.19,0,0,1-5,1.82,4.65,4.65,0,0,0-1.92.33c-2.64,1.5-5.48.89-8.25.93-1.35,0-2.83.4-4,0-1.72-.63-3.1.12-4.64.26a50.66,50.66,0,0,1-7.84-.45c-.37,0-.75-.08-1.12-.08-2.84,0-5.69,0-8.53.07-2,0-4,.17-6,.25a5,5,0,0,1-1.4,0c-4.11-1-8.28-.43-12.43-.53-4.38-.11-8.76-.83-13.13-1.3a2.41,2.41,0,0,1-.71-.34Z"/><path d="M135.27,175.51c.21.09.47.13.61.28,2.06,2.26,4.45,4.24,5.87,7.05.42.83,1,1.54,1.53,2.34a5.52,5.52,0,0,1,1,2c.07.61-.22,1.67-.63,1.84a2.4,2.4,0,0,1-1.91-.6c-.55-.45-.79-1.26-1.24-1.85a32.84,32.84,0,0,1-5.18-8.95c-.21-.61-.32-1.27-.48-1.9Z"/><path d="M236.81,68.1c-1.36.42-3.44-1-3.87-2.69Z"/><path d="M366.74,211.44c.66-.26,1-.53,1.32-.5a3.54,3.54,0,0,1,1.58.49c.17.11,0,.74,0,1.14a10.67,10.67,0,0,1-1.56-.3A7.93,7.93,0,0,1,366.74,211.44Z"/><path d="M229.05,62.12l2.6,2.65-.12.13-2.78-2.45Z"/></g></g></svg>